<svg xmlns="http://www.w3.org/2000/svg" xmlns:xlink="http://www.w3.org/1999/xlink" width="128" height="200" viewBox="0 0 128 200"><defs><style>.a{fill:none;}.b{fill:#fff;}.c{fill:#170000;}.d{clip-path:url(#a);}.e{fill:#c21823;}</style><clipPath id="a"><rect class="a" width="58.593" height="74.222"/></clipPath></defs><rect class="b" width="125.04" height="197.04" transform="translate(1.48 1.48)"/><path d="M138.88,210.85h-128v-200h128ZM13.84,207.884H135.92V13.816H13.84Z" transform="translate(-10.88 -10.85)"/><path class="c" d="M29,32.529a9.857,9.857,0,0,0,1.82-2.072,3.826,3.826,0,0,0,.673-2.02,1.754,1.754,0,0,0-.488-1.3,1.924,1.924,0,0,0-1.4-.525,3.012,3.012,0,0,0-1.48.333A5.439,5.439,0,0,0,27,27.771l-.474-.673a4.825,4.825,0,0,1,1.48-1.1,4.44,4.44,0,0,1,2.065-.5,3.7,3.7,0,0,1,1.754.377,2.531,2.531,0,0,1,1.058.984,2.753,2.753,0,0,1,.34,1.339,4.6,4.6,0,0,1-1.413,3.019,14.852,14.852,0,0,1-3.508,2.79l4.6-.348.518-1.273.74.148-.385,2.346H26.712l-.222-.622A15.3,15.3,0,0,0,29,32.529Z" transform="translate(-14.939 -14.658)"/><path d="M138.88,210.85h-128v-200h128ZM13.84,207.884H135.92V13.816H13.84Z" transform="translate(-10.88 -10.85)"/><path d="M165.185,27.159a3.219,3.219,0,1,0-6.26-1.029,3.433,3.433,0,0,0,.155,1.029,3.279,3.279,0,0,0,.126,6.556,3.138,3.138,0,0,0,2.131-.836l-.688,2.4h2.96l-.7-2.42a3.145,3.145,0,0,0,2.161.858,3.279,3.279,0,0,0,.118-6.556Z" transform="translate(-48.596 -13.979)"/><path d="M146.939,174.1a2.96,2.96,0,0,0-.74.333,2.525,2.525,0,0,0,2.708,4.262,2.752,2.752,0,0,0,.622-.548,2.584,2.584,0,0,0,4.307-2.856,2.494,2.494,0,0,0-1.48-1.066l1.88-.555-1.243-1.946-1.31,1.48a2.531,2.531,0,0,0-.34-1.806,2.6,2.6,0,0,0-4.44,2.694Z" transform="translate(-45.775 -52.021)"/><path d="M117.857,166.956a2.538,2.538,0,1,0,.37,4.973,2.753,2.753,0,0,0,.74-.311,2.59,2.59,0,1,0,3.959-2.8l1.968.089-.548-2.22-1.724.984a2.472,2.472,0,0,0,.259-1.813,2.59,2.59,0,0,0-5.047,1.125Z" transform="translate(-37.972 -50.427)"/><g class="d" transform="translate(68.097 45.744)"><path d="M143.737,98.718l5.58-4.588s1.339-.932-1.9-2.679c-2.435-1.31-8.31,1.917-9.724,2.538-.673.3-2.708.118-3.441.2a3.212,3.212,0,0,1-.932,0,2.324,2.324,0,0,1-1.029-.932,1.828,1.828,0,0,1-.215,1.909c-.7,1.162-3.278,3.485-3.108,5.106.148,1.48,1.576,4.692,4.625,5.18a9.849,9.849,0,0,0,4.943-.244,6.5,6.5,0,0,1,4.714,1.228,4.766,4.766,0,0,0,2.827.9l.644.044L143.53,101.6" transform="translate(-109.698 -77.325)"/><path d="M146.566,107.765h-.037l-.644-.044a5.18,5.18,0,0,1-3.16-1.043,6.028,6.028,0,0,0-4.255-1.1,1.893,1.893,0,0,0-.481.118,9.709,9.709,0,0,1-4.64.133c-3.426-.562-4.928-4.137-5.084-5.683-.148-1.376,1.177-2.96,2.22-4.225a13.2,13.2,0,0,0,.947-1.221,1.362,1.362,0,0,0,.207-1.347.555.555,0,0,1,.178-.74.54.54,0,0,1,.74.141c.429.607.673.74.74.74a2.472,2.472,0,0,0,.74,0,11.352,11.352,0,0,1,1.184,0,8.466,8.466,0,0,0,2.094-.133l.792-.377c2.294-1.1,7.067-3.411,9.413-2.139,1.613.866,2.42,1.695,2.472,2.531a1.251,1.251,0,0,1-.511,1.08L143.91,99a.526.526,0,1,1-.666-.814l5.543-4.655a.178.178,0,0,0,.074-.163c0-.1-.155-.673-1.887-1.606-1.857-1-6.66,1.295-8.414,2.161l-.829.392a7.555,7.555,0,0,1-2.546.229h-1.058a3.3,3.3,0,0,1-1.147,0,1.806,1.806,0,0,1-.252-.1,3.293,3.293,0,0,1-.363.829,13.063,13.063,0,0,1-1.043,1.354c-.881,1.051-2.087,2.494-1.991,3.411.148,1.421,1.524,4.27,4.166,4.706a8.614,8.614,0,0,0,4.174-.111c.215-.059.407-.1.585-.141a7.039,7.039,0,0,1,5.18,1.369,3.759,3.759,0,0,0,2.124.74l-2.694-4.9a.55.55,0,1,1,.962-.533l3.189,5.779a.555.555,0,0,1-.481.814Z" transform="translate(-109.515 -77.152)"/><path d="M163.423,142.364a.555.555,0,1,1,0-1.1,27.21,27.21,0,0,0,11.285-2.575c.807-.5,3.115-2.072,3.7-3.115.74-1.347,8.073-8.14,12.395-7.9a.548.548,0,0,1,.511.585.555.555,0,0,1-.585.511c-3.648-.259-10.538,5.92-11.359,7.363s-3.789,3.315-4.122,3.522a28.12,28.12,0,0,1-11.84,2.716Z" transform="translate(-118.497 -86.82)"/><path d="M139.41,133.138a.629.629,0,0,1-.192-.037c-6.112-2.338-10.4-8.14-10.434-14.2a7.215,7.215,0,0,0-5.5-7.178c-.881-.185-1.82-.34-2.827-.511l-2.42-.429c-6.253-1.162-5.713-9.45-5.713-9.531a.555.555,0,0,1,.54-.511l4.159-.111a.562.562,0,0,1,.57.54.555.555,0,0,1-.54.562l-3.641.1c0,1.687.3,7.03,4.825,7.874.829.155,1.635.289,2.4.422,1.014.17,1.968.333,2.864.518a8.325,8.325,0,0,1,6.379,8.251c0,5.58,4.026,11,9.724,13.179a.548.548,0,0,1,.318.74.562.562,0,0,1-.518.326Z" transform="translate(-105.37 -79.792)"/><path d="M138.813,102.743a1.3,1.3,0,0,1-1.014-.5,38.332,38.332,0,0,1-3.138-5.106.548.548,0,0,1,.229-.74.54.54,0,0,1,.74.222,35.843,35.843,0,0,0,3.034,4.943.17.17,0,0,0,.163.081.163.163,0,0,0,.148-.1l1.11-1.968c.044-.067,2.05-3.13,1.539-5.18a1.887,1.887,0,0,0-.992-1.251,6.083,6.083,0,0,0-5.565-.1,5.469,5.469,0,0,1-2.472,0,7.755,7.755,0,0,0-1.251-.1,3.071,3.071,0,0,1-1.147,0c-.836-.229-1.48-1.384-2.005-2.22l-.237-.4c-.133-.207-.281-.459-.437-.74-.488-.866-1.236-2.168-1.887-2.338-1.48-.392-3.53-.636-4-.392h0a22.281,22.281,0,0,0,1.643,2.079,5.787,5.787,0,0,1,1.917,2.331A6.963,6.963,0,0,0,126.4,93a.7.7,0,0,1-.252,1.147,3.485,3.485,0,0,0-2.087,2.316,1.066,1.066,0,0,1-.488.6c-.5.289-1.835.74-5.062.74a.555.555,0,0,1,0-1.1h.237c3,0,4.055-.459,4.307-.6a4.647,4.647,0,0,1,2.22-2.753,9.821,9.821,0,0,1-1.029-1.517,4.884,4.884,0,0,0-1.591-1.961,17.212,17.212,0,0,1-2.02-2.546,1.051,1.051,0,0,1,.118-1.154c.932-1.073,4.736-.1,5.18,0,1.1.289,1.9,1.717,2.56,2.856.148.266.281.5.407.74l.259.422c.281.488.94,1.613,1.354,1.732a2.22,2.22,0,0,0,.74,0,7.4,7.4,0,0,1,1.48.1,7.008,7.008,0,0,0,1.894.089,7.126,7.126,0,0,1,6.534.141A3,3,0,0,1,142.7,94.21c.622,2.479-1.576,5.839-1.672,5.987l-1.088,1.931a1.3,1.3,0,0,1-1.021.666Zm-13.024-9.62Z" transform="translate(-106.853 -75.903)"/><path class="b" d="M136.742,99.262a.562.562,0,0,1-.363-.133,6.43,6.43,0,0,0-1.532-.511.548.548,0,0,1-.422-.651.555.555,0,0,1,.659-.422,6.024,6.024,0,0,1,2.028.74.54.54,0,0,1,.044.777A.533.533,0,0,1,136.742,99.262Z" transform="translate(-111.116 -78.987)"/><path d="M116.491,101.4l-3.411.1s.289,3.33.3,3.382a6.608,6.608,0,0,0,3.115-3.478Z" transform="translate(-105.569 -79.992)"/><path d="M113.183,105.233a.533.533,0,0,1-.259-.059.555.555,0,0,1-.289-.4s0-.074-.3-3.426a.562.562,0,0,1,.133-.414.577.577,0,0,1,.4-.185l3.411-.089a.548.548,0,0,1,.459.229.533.533,0,0,1,.074.5,7.06,7.06,0,0,1-3.4,3.789A.5.5,0,0,1,113.183,105.233Zm.3-3.4.163,1.917a6.12,6.12,0,0,0,1.783-1.968Z" transform="translate(-105.376 -79.799)"/><path d="M130.792,90.787s.651.118-1.954,1.362c-.636.3-1.813,1.051-2.279,1.347a10.619,10.619,0,0,0-2.013,1.724,4.063,4.063,0,0,1,2.479-2.827.148.148,0,0,0,.044-.244c-1.376-1.362-4.151-1.347-4.84-3.2s-.511-6.186,2.22-7.985c.881-.585,1.48,1.11,1.746,1.732a16.569,16.569,0,0,0,1.539,3.441c1.021,1.547,1.709,3.389,3.056,4.669" transform="translate(-107.86 -74.648)"/><path d="M124.359,95.557a.547.547,0,0,1-.266-.067.555.555,0,0,1-.266-.644,4.81,4.81,0,0,1,2.22-2.9,9.376,9.376,0,0,0-1.547-.74c-1.206-.481-2.457-.984-2.96-2.287-.74-2.028-.585-6.66,2.427-8.636a1.125,1.125,0,0,1,1.006-.163c.74.237,1.169,1.147,1.532,2.1l.229.6a13.534,13.534,0,0,0,1.288,2.768c.355.54.673,1.125.984,1.68a11.951,11.951,0,0,0,1.931,2.834.629.629,0,0,1,.3.451c.059.474-.274.881-2.338,1.865-.629.3-1.857,1.08-2.22,1.317a9.776,9.776,0,0,0-1.894,1.628A.57.57,0,0,1,124.359,95.557Zm.259-14.378c-2.516,1.65-2.671,5.72-2.057,7.4.311.844,1.243,1.221,2.324,1.65a7.082,7.082,0,0,1,2.383,1.347.74.74,0,0,1,.2.407c.348-.2.688-.392.947-.518a12.358,12.358,0,0,0,1.48-.792,14.193,14.193,0,0,1-1.872-2.827c-.311-.562-.607-1.1-.94-1.606a14.171,14.171,0,0,1-1.4-2.96l-.207-.54c-.525-1.436-.807-1.539-.858-1.547Zm5.92,9.938Z" transform="translate(-107.672 -74.445)"/><path class="b" d="M133.072,102.924a.54.54,0,0,1-.414-.185.548.548,0,0,1,.052-.74,2.694,2.694,0,0,1,1.761-.377.55.55,0,1,1-.1,1.1,1.939,1.939,0,0,0-.94.118A.585.585,0,0,1,133.072,102.924Z" transform="translate(-110.628 -80.044)"/><path d="M220.048,121.125c-4.44,0-10.471-2-12.21-3.826-1.9-2.013-4.063-1.436-6.564-.74l-.525.141a17.827,17.827,0,0,1-7.518,0c-4.743-.821-8.31-6.135-8.458-6.364a.55.55,0,0,1,.918-.607c.037.052,3.456,5.18,7.726,5.92a16.976,16.976,0,0,0,7.052,0l.518-.141c2.6-.7,5.3-1.421,7.652,1.066,1.968,2.079,10.893,4.558,14.363,3.012,2.013-.9,2.264-1.576,2.279-1.828,0-.392-.414-.866-1.221-1.332l-.437-.259c-1.265-.74-1.687-1.014-5.261-1.125s-4.218-.888-5.025-2.494c-.111-.229-.237-.481-.392-.74-1.191-2.124-2.22-3.175-4.351-2.694-2.908.666-4.729-2.346-4.928-2.694a3.174,3.174,0,0,1-.185-1.687c0-.2,0-.37,0-.451a22.57,22.57,0,0,0-.932-4.766c-1.154-3.626-3.278-6.223-5.979-7.311a.555.555,0,0,1,.385-1.036,13.631,13.631,0,0,0,10.715-.5,11.019,11.019,0,0,0,5.535-6.986c.636-2.22-.622-6.549-3.774-9.272a12.439,12.439,0,0,1,.9,7c-.562,2.708-2.331,3.619-4.758,4.618a19.321,19.321,0,0,1-9.864.762c-2.065-.4-9.524-1.073-18.929,7.1-8.362,7.259-10.737,8.044-14.548,8.88-3.293.74-8.961,1.717-9.96-.089a.555.555,0,1,1,.969-.525c.363.659,3.7.673,8.747-.466,3.633-.814,5.92-1.569,14.06-8.658,9.783-8.488,17.678-7.77,19.861-7.341a18.026,18.026,0,0,0,9.243-.74c2.22-.918,3.648-1.635,4.1-3.818a11.277,11.277,0,0,0-1.939-8.244.548.548,0,0,1,.681-.836c3.426,1.776,7.578,7.289,6.283,11.877a12.114,12.114,0,0,1-6.09,7.659,14.06,14.06,0,0,1-8.355,1.332,13.979,13.979,0,0,1,3.774,6.2,23.681,23.681,0,0,1,.977,4.995,4.968,4.968,0,0,1,0,.585,7.169,7.169,0,0,0,0,1.08h0c.067.1,1.517,2.671,3.737,2.176,3.064-.74,4.44,1.295,5.557,3.226.163.289.3.555.414.8.651,1.295.9,1.783,4.07,1.88,3.7.118,4.329.4,5.8,1.28l.422.252c1.221.74,1.813,1.48,1.761,2.346-.052,1.014-1.006,1.917-2.923,2.768a8.487,8.487,0,0,1-3.367.614ZM204.582,105.748Z" transform="translate(-115.731 -72.344)"/><path d="M131.425,160.827a2.958,2.958,0,0,1-.511-.037,2.39,2.39,0,0,1-2.264-2.176,11.011,11.011,0,0,1,1.021-4.551c.155-.4.318-.807.466-1.243.533-1.524,3.7-3.271,7.829-5.387,1.132-.585,2.22-1.132,2.9-1.554,2.5-1.48,5.01-7.481,5.039-7.541a.548.548,0,0,1,.74-.3.555.555,0,0,1,.3.74c-.1.259-2.679,6.379-5.483,8.059-.74.444-1.769.977-2.96,1.591-2.738,1.413-6.867,3.545-7.3,4.773-.155.444-.318.866-.481,1.28a10.182,10.182,0,0,0-.955,4.122c0,.644.681,1.029,1.325,1.117a2.96,2.96,0,0,0,3.152-2.279c1.3-4.055,6.1-5.757,7.837-6.075,3.315-.6,7.6-1.613,8.762-2.5,1.443-1.1,4.766-6.2,4.832-10.464a.555.555,0,0,1,.548-.548h0a.555.555,0,0,1,.54.562c-.067,4.507-3.5,9.975-5.269,11.329-1.65,1.258-7.481,2.39-9.228,2.708-1.48.259-5.853,1.806-6.986,5.328A4.063,4.063,0,0,1,131.425,160.827Z" transform="translate(-109.617 -89.469)"/><path d="M114.882,154.527a2.553,2.553,0,0,1-2.109-1.48,5.72,5.72,0,0,1,.37-6.438,6.9,6.9,0,0,1,2.834-2.176,173.329,173.329,0,0,0,16.531-7.615.555.555,0,0,1,.74.229.54.54,0,0,1-.229.74,174.577,174.577,0,0,1-16.591,7.674,5.809,5.809,0,0,0-2.375,1.835,4.6,4.6,0,0,0-.311,5.18c.392.629.784.947,1.177.947h0c.385,0,1.206-.326,2.42-2.42a8.358,8.358,0,0,1,4.573-3.434l1.554-.622a32.938,32.938,0,0,1,5.18-1.769l1.524-.3c2.745-.488,6.5-1.169,7.541-3.7a.548.548,0,0,1,.74-.3.555.555,0,0,1,.3.74c-1.28,3.071-5.372,3.811-8.362,4.351-.54.1-1.043.185-1.48.289a30.758,30.758,0,0,0-5.01,1.709c-.518.215-1.043.429-1.569.629a7.384,7.384,0,0,0-4.018,2.96c-1.154,1.983-2.22,2.96-3.36,2.96Z" transform="translate(-105.276 -89.185)"/><path class="e" d="M155,112.579s3.663-4.662,10.034-.118C165.034,112.461,159.092,117.833,155,112.579Z" transform="translate(-116.468 -82.351)"/><path class="e" d="M157.795,96.73s-5.276,2.361-3,10.131C154.8,106.861,161.369,102.391,157.795,96.73Z" transform="translate(-116.266 -78.778)"/><path d="M154,108.306l-.3-.74c-2.96-6.993,1.739-10.034,1.783-10.064l.414-.252.3.37c4.055,4.943-1.569,10.086-1.621,10.138Zm1.665-9.524c-.9.792-2.864,3.145-1.258,7.607C155.554,105.116,157.84,101.942,155.665,98.782Z" transform="translate(-115.875 -78.913)"/><path class="e" d="M150.131,112.636c-.681-3.086-5.084.363-6.053,1.066-2.8,2.02-5.587,4.033-8.473,5.92-.9.585-1.939.829-2.316,2.05-.444,1.48.829,3.589,2.176,2.664,3.574-2.442,7.319-4.677,10.752-7.4C147.3,116.181,150.552,114.567,150.131,112.636Z" transform="translate(-110.8 -82.585)"/><path d="M135.511,122.6a1.48,1.48,0,0,1-.947-.34,2.486,2.486,0,0,1-.74-2.686,3.226,3.226,0,0,1,1.739-1.709c.178-.1.363-.2.54-.318,2.575-1.665,5.069-3.426,7.481-5.136l.163-.118c1.635-1.177,3.7-2.457,4.973-1.939a1.6,1.6,0,0,1,.962,1.295h0c.311,1.643-1.739,2.96-3.1,3.811-.252.163-.474.3-.636.422-2.035,1.547-4.225,2.96-6.334,4.322-1.073.7-2.139,1.384-3.2,2.094A1.658,1.658,0,0,1,135.511,122.6Zm12.536-11.27c-.533,0-1.584.385-3.633,1.857l-.17.118c-2.42,1.717-4.921,3.493-7.518,5.18-.2.133-.407.244-.614.363-.57.311-1.021.555-1.228,1.125a1.376,1.376,0,0,0,.363,1.436.437.437,0,0,0,.577,0c1.058-.74,2.139-1.413,3.212-2.109,2.094-1.354,4.262-2.753,6.275-4.285l.74-.466c.977-.614,2.782-1.769,2.612-2.671h0c-.074-.392-.237-.459-.3-.481a.74.74,0,0,0-.318-.067Z" transform="translate(-110.929 -82.288)"/><path d="M158.128,113.546h-.466a5.4,5.4,0,0,1-3.855-2.22l-.266-.34.266-.34c0-.044,3.7-4.536,9.724-.215l.562.392-.511.466C163.5,111.334,160.992,113.546,158.128,113.546Zm-3.152-2.59a4.218,4.218,0,0,0,2.782,1.48,7.281,7.281,0,0,0,4.521-1.569c-3.959-2.472-6.468-.7-7.3.089Z" transform="translate(-116.089 -81.852)"/><path d="M168.56,107.112s8.3,5.076,13.194,3.448c6.86-2.279,10.626-5,12.143-6.394,2.375-2.183,4.159-10.36-3.36-10.8,0,0-1.48.067-9.864,5.624C177.869,100.851,172.9,105.1,168.56,107.112Z" transform="translate(-119.994 -77.904)"/><path d="M179.372,111.246c-4.928,0-11-3.7-11.292-3.855a.562.562,0,0,1,.059-.977,54.517,54.517,0,0,0,8.88-5.809c1.214-.91,2.264-1.687,3.138-2.264,8.14-5.372,9.872-5.705,10.138-5.72,3.7.222,5.091,2.1,5.631,3.641a8.608,8.608,0,0,1-1.872,8.14c-1.236,1.132-4.914,4.04-12.336,6.5a7.518,7.518,0,0,1-2.346.34Zm-9.82-4.285c2.22,1.214,8.14,4.114,11.84,2.886,7.215-2.4,10.752-5.18,11.936-6.275A7.444,7.444,0,0,0,194.9,96.6c-.622-1.761-2.146-2.738-4.529-2.893-.274.059-2.22.644-9.62,5.528-.844.555-1.88,1.332-3.078,2.22A63.907,63.907,0,0,1,169.553,106.961Z" transform="translate(-119.803 -77.709)"/></g></svg>