<svg xmlns="http://www.w3.org/2000/svg" xmlns:xlink="http://www.w3.org/1999/xlink" width="128" height="200" viewBox="0 0 128 200"><defs><style>.a{fill:none;}.b{fill:#fff;}.c{fill:#170000;}.d{clip-path:url(#a);}.e{fill:#c21823;}</style><clipPath id="a"><rect class="a" width="88.823" height="84.764"/></clipPath></defs><g transform="translate(-10.878 -10.853)"><g transform="translate(10.878 10.853)"><rect class="b" width="125.03" height="197.029" transform="translate(1.485 1.485)"/><path d="M138.878,210.853h-128v-200h128Zm-125.04-2.966H135.918V13.819H13.838Z" transform="translate(-10.878 -10.853)"/></g><g transform="translate(22.811 21.74)"><path class="c" d="M32.954,26.089a3.467,3.467,0,0,1,1.289,1.572,5.7,5.7,0,0,1,.425,2.251,7.742,7.742,0,0,1-.835,3.591,7.616,7.616,0,0,1-2.183,2.645A6.48,6.48,0,0,1,28.8,37.421l-.343-.656a6.138,6.138,0,0,0,2.816-1.833,6.787,6.787,0,0,0,1.475-2.951,3.029,3.029,0,0,1-1.013.737,3.175,3.175,0,0,1-1.386.306,3.547,3.547,0,0,1-1.8-.44,2.965,2.965,0,0,1-1.185-1.252,4.062,4.062,0,0,1-.417-1.884,4.134,4.134,0,0,1,.47-1.953,3.666,3.666,0,0,1,1.348-1.437,3.851,3.851,0,0,1,2.071-.544A3.742,3.742,0,0,1,32.954,26.089Zm-.864,5.647a2.081,2.081,0,0,0,.835-.812l.044-.685a7.148,7.148,0,0,0-.484-2.891,1.933,1.933,0,0,0-2.92-.664,2.469,2.469,0,0,0-.723,1.066,4.026,4.026,0,0,0-.238,1.386,3.686,3.686,0,0,0,.558,2.257,1.8,1.8,0,0,0,1.5.723A2.7,2.7,0,0,0,32.09,31.736Z" transform="translate(-26.949 -25.515)"/></g><g transform="translate(118.23 19.749)"><path d="M165.271,27.158a3.344,3.344,0,0,0,.161-1.031,3.217,3.217,0,1,0-6.432,0,3.322,3.322,0,0,0,.162,1.031,3.295,3.295,0,0,0,.123,6.582,3.16,3.16,0,0,0,2.141-.839l-.693,2.4h2.945l-.7-2.428a3.161,3.161,0,0,0,2.168.864,3.295,3.295,0,0,0,.123-6.582Z" transform="translate(-156.07 -22.834)"/></g><g transform="translate(110.057 129.068)"><path d="M146.931,174.155a2.626,2.626,0,0,0-.754.33,2.534,2.534,0,1,0,2.721,4.275,2.624,2.624,0,0,0,.617-.544,2.6,2.6,0,0,0,4.324-2.868,2.5,2.5,0,0,0-1.464-1.068l1.89-.556-1.246-1.957-1.318,1.492a2.491,2.491,0,0,0-.343-1.807,2.6,2.6,0,0,0-4.428,2.7Z" transform="translate(-144.961 -170.294)"/></g><g transform="translate(80.966 144.221)"><path d="M107.6,194.592a2.646,2.646,0,0,0-.754.33,2.534,2.534,0,1,0,2.721,4.275,2.626,2.626,0,0,0,.618-.544,2.6,2.6,0,0,0,4.323-2.867,2.487,2.487,0,0,0-1.463-1.068l1.89-.557-1.246-1.957-1.318,1.492a2.489,2.489,0,0,0-.343-1.807,2.6,2.6,0,0,0-4.428,2.7Z" transform="translate(-105.633 -190.732)"/></g><g transform="translate(87.937 124.293)"><path d="M117.873,166.909a2.618,2.618,0,0,0-.82.068,2.534,2.534,0,1,0,1.195,4.924,2.638,2.638,0,0,0,.76-.315,2.6,2.6,0,0,0,5.017-1.318,2.488,2.488,0,0,0-1.04-1.484l1.969.083-.547-2.254-1.729.987a2.493,2.493,0,0,0,.258-1.821,2.6,2.6,0,0,0-5.063,1.129Z" transform="translate(-115.059 -163.854)"/></g><g transform="translate(118.735 104.191)"><path d="M159.209,140.144a2.636,2.636,0,0,0-.8.18,2.535,2.535,0,1,0,1.858,4.715,2.633,2.633,0,0,0,.71-.417,2.6,2.6,0,0,0,4.789-1.993,2.488,2.488,0,0,0-1.233-1.327l1.962-.187-.851-2.158-1.578,1.215a2.49,2.49,0,0,0,.007-1.839,2.6,2.6,0,0,0-4.861,1.812Z" transform="translate(-156.749 -136.741)"/></g><g transform="translate(67.155 138.304)"><path d="M90.345,185.216a2.632,2.632,0,0,0-.815-.119,2.535,2.535,0,1,0,.053,5.068,2.617,2.617,0,0,0,.812-.136,2.6,2.6,0,0,0,5.185-.151,2.488,2.488,0,0,0-.679-1.68l1.9.526-.024-2.32-1.907.571a2.492,2.492,0,0,0,.663-1.716,2.6,2.6,0,0,0-5.187-.042Z" transform="translate(-86.963 -182.752)"/></g><g transform="translate(29.961 131.842)"><path d="M39.96,176.5a2.624,2.624,0,0,0-.814-.118,2.534,2.534,0,1,0,.053,5.067,2.634,2.634,0,0,0,.811-.135,2.6,2.6,0,0,0,5.186-.151,2.493,2.493,0,0,0-.679-1.681l1.9.526-.024-2.32-1.907.571a2.49,2.49,0,0,0,.663-1.715,2.6,2.6,0,0,0-5.188-.043Z" transform="translate(-36.579 -174.037)"/></g><g transform="translate(125.359 114.423)"><path d="M167.478,156.457a2.634,2.634,0,0,0-.323.757,2.535,2.535,0,1,0,4.913,1.244,2.642,2.642,0,0,0,.076-.819,2.6,2.6,0,0,0,1.178-5.052,2.49,2.49,0,0,0-1.8.226l.993-1.7-2.249-.569.065,1.99a2.492,2.492,0,0,0-1.489-1.08,2.6,2.6,0,0,0-1.366,5Z" transform="translate(-165.67 -150.542)"/></g><g transform="translate(21.768 148.27)"><path d="M27.352,202.109a2.627,2.627,0,0,0-.322.757,2.534,2.534,0,1,0,4.912,1.243,2.617,2.617,0,0,0,.076-.819,2.6,2.6,0,0,0,1.178-5.052,2.491,2.491,0,0,0-1.8.226l.993-1.7-2.249-.569.065,1.99a2.494,2.494,0,0,0-1.489-1.079,2.6,2.6,0,0,0-1.367,5Z" transform="translate(-25.545 -196.194)"/></g><g transform="translate(44.813 140.642)"><path d="M58.475,189.988a2.646,2.646,0,0,0-.717.4,2.535,2.535,0,1,0,3.136,3.981,2.612,2.612,0,0,0,.56-.6,2.6,2.6,0,0,0,4.015-3.286,2.494,2.494,0,0,0-1.564-.917l1.825-.743L64.294,187l-1.162,1.617a2.493,2.493,0,0,0-.522-1.763,2.6,2.6,0,0,0-4.135,3.133Z" transform="translate(-56.755 -185.904)"/></g><g transform="translate(13.497 53.893)"><g class="d"><g transform="translate(-21.609 6.248)"><g transform="translate(11.829 15.569)"><path d="M16.756,106.749l5.437-4.788s1.31-.979-2-2.621c-2.484-1.232-8.263,2.207-9.662,2.878-.667.321-2.711.215-3.441.32a3,3,0,0,1-.941.032,2.326,2.326,0,0,1-1.065-.907,1.848,1.848,0,0,1-.143,1.928c-.662,1.187-3.17,3.6-2.946,5.226.2,1.472,1.742,4.651,4.82,5.049a9.8,9.8,0,0,0,4.945-.42,6.549,6.549,0,0,1,4.775,1.074,4.76,4.76,0,0,0,2.861.8l.646.021-3.392-5.685" transform="translate(-1.426 -98.53)"/><path d="M19.848,115.707h-.019l-.647-.022a5.212,5.212,0,0,1-3.2-.935,6.046,6.046,0,0,0-4.3-.953c-.15.032-.307.08-.483.134a9.718,9.718,0,0,1-4.646.294c-3.453-.448-5.083-3.979-5.3-5.522-.191-1.374,1.08-3.006,2.1-4.318a12.144,12.144,0,0,0,.907-1.254,1.372,1.372,0,0,0,.165-1.355.561.561,0,0,1,.154-.752.546.546,0,0,1,.748.114c.452.594.693.691.757.706a2.4,2.4,0,0,0,.731-.043c.284-.04.7-.051,1.182-.064a8.368,8.368,0,0,0,2.1-.206c.187-.09.455-.23.783-.4,2.262-1.187,6.968-3.66,9.364-2.472,1.648.816,2.485,1.618,2.562,2.452a1.267,1.267,0,0,1-.471,1.107l-5.4,4.76a.553.553,0,0,1-.731-.829l5.437-4.788a.17.17,0,0,0,.066-.162c-.015-.1-.178-.672-1.949-1.55-1.9-.937-6.59,1.531-8.359,2.461-.343.18-.622.327-.818.42a7.333,7.333,0,0,1-2.548.315c-.428.011-.834.022-1.055.054a2.956,2.956,0,0,1-1.151.021,1.327,1.327,0,0,1-.26-.092,3.253,3.253,0,0,1-.333.845,12.439,12.439,0,0,1-1,1.4c-.847,1.087-2.006,2.575-1.879,3.486.2,1.426,1.674,4.232,4.343,4.578a8.626,8.626,0,0,0,4.18-.254c.212-.065.4-.122.581-.159a7.069,7.069,0,0,1,5.246,1.192,3.757,3.757,0,0,0,2.153.657l-2.872-4.813a.553.553,0,0,1,.95-.567l3.393,5.685a.552.552,0,0,1-.475.836Z" transform="translate(-1.234 -98.341)"/></g><g transform="translate(38.679 41.976)"><path d="M37.947,149.594a.553.553,0,0,1-.019-1.106,27.493,27.493,0,0,0,11.232-2.974c.789-.529,3.05-2.188,3.611-3.25.729-1.383,7.792-8.473,12.151-8.358a.553.553,0,0,1-.018,1.1h-.019c-3.634-.1-10.361,6.3-11.138,7.769-.791,1.5-3.684,3.457-4.01,3.675a28.041,28.041,0,0,1-11.77,3.139Z" transform="translate(-37.394 -133.906)"/></g><g transform="translate(0 24.008)"><path d="M13.547,141.53a.559.559,0,0,1-.179-.03c-6.212-2.13-10.717-7.837-10.954-13.877a7.24,7.24,0,0,0-5.758-7.009c-.885-.15-1.835-.278-2.843-.413-.788-.1-1.608-.215-2.455-.343-6.306-.955-6.057-9.279-6.054-9.362a.553.553,0,0,1,.518-.531l4.171-.256a.554.554,0,0,1,.586.518.553.553,0,0,1-.518.586l-3.652.224c.042,1.688.539,7.035,5.114,7.728.84.128,1.654.236,2.435.341,1.017.136,1.978.264,2.882.417a8.35,8.35,0,0,1,6.678,8.057c.221,5.595,4.419,10.889,10.207,12.875a.553.553,0,0,1-.179,1.076Z" transform="translate(14.698 -109.706)"/></g><g transform="translate(4.172 12.751)"><path d="M11.969,111.123a1.308,1.308,0,0,1-.995-.469,38.1,38.1,0,0,1-3.32-5.01.553.553,0,1,1,.954-.558,35.8,35.8,0,0,0,3.208,4.853.179.179,0,0,0,.313-.031l1.045-2.014c.039-.066,1.942-3.214,1.366-5.212a1.89,1.89,0,0,0-1.038-1.218,6.1,6.1,0,0,0-5.584.088,5.416,5.416,0,0,1-2.478.084,7.657,7.657,0,0,0-1.256-.059,3.2,3.2,0,0,1-1.152.022c-.847-.209-1.565-1.342-2.089-2.17-.094-.149-.177-.281-.25-.388-.14-.2-.295-.456-.462-.727-.524-.85-1.315-2.135-1.974-2.285-1.488-.342-3.56-.512-4.027-.251,0,.008.007.018.013.029a23.925,23.925,0,0,0,1.717,2.029,5.8,5.8,0,0,1,2.006,2.272,7.177,7.177,0,0,0,1.268,1.707.7.7,0,0,1,.212.644.686.686,0,0,1-.423.514,3.5,3.5,0,0,0-2.014,2.4,1.087,1.087,0,0,1-.461.616c-.5.307-1.824.835-5.059.923a.559.559,0,0,1-.568-.538.552.552,0,0,1,.538-.567c3.175-.088,4.255-.6,4.509-.76a4.666,4.666,0,0,1,2.109-2.837,9.835,9.835,0,0,1-1.06-1.535,4.835,4.835,0,0,0-1.659-1.914,17.03,17.03,0,0,1-2.115-2.482,1.043,1.043,0,0,1,.082-1.164c.894-1.109,4.745-.263,5.181-.163,1.109.255,1.973,1.657,2.667,2.783.157.255.3.492.434.685.078.116.169.259.27.419.3.474,1,1.586,1.42,1.688a2.373,2.373,0,0,0,.731-.042,7.628,7.628,0,0,1,1.511.053,6.668,6.668,0,0,0,1.9.021,7.152,7.152,0,0,1,6.554-.082,2.979,2.979,0,0,1,1.61,1.9c.711,2.468-1.377,5.916-1.466,6.06l-1.026,1.98a1.283,1.283,0,0,1-1.143.707Zm-13.488-8.5h0Z" transform="translate(9.079 -94.546)"/></g><g transform="translate(16.306 21.309)"><path class="b" d="M9.622,107.726a.547.547,0,0,1-.351-.125,6.465,6.465,0,0,0-1.553-.431.553.553,0,0,1,.195-1.088,5.981,5.981,0,0,1,2.06.665.552.552,0,0,1-.351.979Z" transform="translate(-7.263 -106.072)"/></g><g transform="translate(0.002 24.054)"><path d="M-10.531,110.514l-3.419.209s.4,3.329.415,3.384A6.624,6.624,0,0,0-10.531,110.514Z" transform="translate(14.503 -109.961)"/><path d="M-13.727,114.468a.547.547,0,0,1-.238-.053.556.556,0,0,1-.3-.385c-.006-.029-.016-.078-.423-3.431a.556.556,0,0,1,.124-.42.557.557,0,0,1,.391-.2l3.421-.209a.536.536,0,0,1,.471.212.554.554,0,0,1,.09.508,7.148,7.148,0,0,1-3.28,3.918A.554.554,0,0,1-13.727,114.468Zm.2-3.421c.065.529.16,1.313.235,1.916a6.177,6.177,0,0,0,1.721-2.036Z" transform="translate(14.695 -109.769)"/></g><g transform="translate(6.206 8.59)"><path d="M3.487,99.452s.656.093-1.913,1.429c-.63.327-1.786,1.117-2.242,1.433a10.708,10.708,0,0,0-1.959,1.8A4.093,4.093,0,0,1-.24,101.189a.146.146,0,0,0,.037-.243c-1.423-1.322-4.209-1.21-4.962-3.043-.747-1.816-.724-6.184,1.943-8.084.865-.616,1.547,1.068,1.809,1.68A17.252,17.252,0,0,0,.256,94.876c1.078,1.512,1.836,3.338,3.231,4.575" transform="translate(6.146 -89.134)"/><path d="M-2.821,104.476a.556.556,0,0,1-.25-.059.554.554,0,0,1-.285-.633A4.8,4.8,0,0,1-1.262,100.8a9.21,9.21,0,0,0-1.576-.679c-1.23-.446-2.5-.906-3.032-2.2-.824-2.006-.816-6.642,2.135-8.744a1.136,1.136,0,0,1,1-.193c.842.237,1.344,1.418,1.613,2.052l.249.593A13.6,13.6,0,0,0,.513,94.364c.379.531.719,1.1,1.049,1.651a11.985,11.985,0,0,0,2.031,2.772.627.627,0,0,1,.318.443c.082.477-.238.89-2.276,1.949-.629.327-1.829,1.152-2.182,1.4a10.185,10.185,0,0,0-1.845,1.7A.552.552,0,0,1-2.821,104.476ZM-3.04,90.048C-5.5,91.792-5.514,95.881-4.848,97.5c.345.84,1.292,1.182,2.386,1.579A6.932,6.932,0,0,1-.021,100.35a.689.689,0,0,1,.215.4c.339-.215.672-.417.93-.552a13.849,13.849,0,0,0,1.463-.845,14.268,14.268,0,0,1-1.975-2.77c-.333-.556-.647-1.081-1-1.576a14.71,14.71,0,0,1-1.505-2.95l-.223-.532C-2.7,90.146-2.988,90.053-3.04,90.048Zm2.4,10.435-.006,0Zm3.846-.676h0Z" transform="translate(6.34 -88.942)"/></g><g transform="translate(15.011 24.288)"><path class="b" d="M6.072,111.481a.55.55,0,0,1-.382-.95,2.652,2.652,0,0,1,1.752-.442.552.552,0,0,1,.523.58.545.545,0,0,1-.579.524,1.968,1.968,0,0,0-.938.144A.561.561,0,0,1,6.072,111.481Z" transform="translate(-5.519 -110.084)"/></g><g transform="translate(29.891)"><path d="M93.694,126.211c-4.416,0-10.094-1.722-11.827-3.429-1.98-1.948-4.125-1.294-6.611-.535l-.519.157a17.927,17.927,0,0,1-7.539.264c-4.785-.659-8.543-5.869-8.7-6.091a.553.553,0,1,1,.9-.641c.036.05,3.642,5.042,7.95,5.637a16.927,16.927,0,0,0,7.07-.229l.514-.156c2.588-.79,5.262-1.607,7.71.8,2.046,2.014,11.078,4.191,14.511,2.519,1.987-.969,2.213-1.657,2.218-1.907.008-.391-.442-.851-1.267-1.3l-.448-.244c-1.294-.714-1.766-.953-5.319-.944H92.26c-3.611,0-4.186-.759-5.041-2.326-.124-.228-.259-.474-.421-.742-1.264-2.083-2.346-3.107-4.459-2.55-2.819.746-4.7-2.006-5.022-2.513-.221-.293-.247-.776-.252-1.7,0-.2,0-.368-.009-.454a22.718,22.718,0,0,0-1.1-4.745c-1.282-3.6-3.5-6.128-6.248-7.127a.553.553,0,0,1,.352-1.048,13.693,13.693,0,0,0,10.725-.869A11.053,11.053,0,0,0,86.1,88.852c.784-3.183-1.53-6.9-4.057-9.055a12.44,12.44,0,0,1,1.09,6.875c-.471,2.734-2.21,3.71-4.616,4.791a19.286,19.286,0,0,1-9.871,1.115c-2.082-.329-9.584-.744-18.736,7.769-8.133,7.568-10.49,8.439-14.279,9.431-3.277.859-8.93,2.034-9.989.261a.553.553,0,1,1,.95-.567c.389.653,3.773.544,8.759-.763,3.612-.947,5.867-1.786,13.806-9.172,9.516-8.852,17.456-8.4,19.662-8.052a18.048,18.048,0,0,0,9.245-1.03c2.223-1,3.6-1.765,3.981-3.972a11.313,11.313,0,0,0-2.234-8.2.553.553,0,0,1,.656-.86c3.5,1.664,7.853,7.045,6.709,11.691a12.134,12.134,0,0,1-5.843,7.891A14.057,14.057,0,0,1,73,98.634a14.009,14.009,0,0,1,3.992,6.085,23.758,23.758,0,0,1,1.159,4.978c.015.111.018.33.019.587a6.538,6.538,0,0,0,.058,1.083.588.588,0,0,1,.03.052h0s1.585,2.606,3.8,2.017c3.052-.808,4.535,1.148,5.687,3.044.172.284.315.546.447.786.7,1.281.922,1.754,4.145,1.749h.219c3.506,0,4.162.268,5.637,1.082l.437.239c1.244.669,1.866,1.44,1.849,2.291-.021,1.015-.949,1.956-2.839,2.878A9.277,9.277,0,0,1,93.694,126.211Zm-15.506-14.9h0Z" transform="translate(-25.559 -77.373)"/></g><g transform="translate(80.93 28.482)"><path d="M112.472,127.653a22.5,22.5,0,0,1-9.028-2.285.553.553,0,1,1,.47-1c3.919,1.84,9.233,3.149,12.4,1.3a3.085,3.085,0,0,0,1.533-1.527.645.645,0,0,0-.131-.543,5.312,5.312,0,0,0-3.033-2.032,9.915,9.915,0,0,0-2.346.05,9.231,9.231,0,0,1-3.085-.049,3.5,3.5,0,0,1-2.224-1.726c-.147-.211-.3-.435-.49-.665a6.192,6.192,0,0,0-3.271-1.994c-2.949-.657-4.873-.292-8.293.464a.553.553,0,0,1-.24-1.079c3.479-.771,5.6-1.171,8.773-.464a7.36,7.36,0,0,1,3.889,2.377c.2.252.376.5.538.728a2.478,2.478,0,0,0,1.576,1.285,8.264,8.264,0,0,0,2.719.023,10.958,10.958,0,0,1,2.608-.045,6.374,6.374,0,0,1,3.779,2.488,1.755,1.755,0,0,1,.31,1.415,4.06,4.06,0,0,1-2.055,2.248A8.668,8.668,0,0,1,112.472,127.653Z" transform="translate(-94.298 -115.732)"/></g><g transform="translate(13.737 50.409)"><path d="M6.554,169.176a3.785,3.785,0,0,1-.38-.019,2.4,2.4,0,0,1-2.353-2.1,11.084,11.084,0,0,1,.872-4.6c.142-.406.287-.824.423-1.264.481-1.547,3.616-3.405,7.663-5.673,1.111-.623,2.16-1.211,2.859-1.662,2.454-1.586,4.765-7.674,4.788-7.735a.553.553,0,1,1,1.035.388c-.1.264-2.463,6.491-5.223,8.274-.728.47-1.792,1.066-2.917,1.7-2.692,1.509-6.759,3.788-7.148,5.039-.141.45-.289.878-.434,1.3a10.075,10.075,0,0,0-.814,4.165c.043.649.717,1.008,1.365,1.076a2.956,2.956,0,0,0,3.081-2.392c1.166-4.109,5.916-5.987,7.649-6.363,3.3-.717,7.565-1.883,8.7-2.812,1.411-1.157,4.57-6.385,4.486-10.662a.552.552,0,0,1,.541-.564.57.57,0,0,1,.564.542c.089,4.524-3.162,10.121-4.891,11.539C24.8,158.669,19,160,17.254,160.382c-1.447.315-5.807,2.017-6.82,5.584A4.061,4.061,0,0,1,6.554,169.176Z" transform="translate(-3.803 -145.264)"/></g><g transform="translate(1.081 50.275)"><path d="M-10.217,163.515a2.6,2.6,0,0,1-2.1-1.4,5.746,5.746,0,0,1,.155-6.472,6.941,6.941,0,0,1,2.76-2.277A173.575,173.575,0,0,0,6.911,145.16a.553.553,0,0,1,.558.954,174.873,174.873,0,0,1-16.417,8.258,5.849,5.849,0,0,0-2.323,1.922A4.621,4.621,0,0,0-11.4,161.5c.285.426.706.931,1.221.908.382-.019,1.194-.368,2.344-2.506a8.339,8.339,0,0,1,4.464-3.6c.513-.219,1.022-.447,1.53-.674a32.278,32.278,0,0,1,5.149-1.957c.454-.116.969-.227,1.519-.347,2.73-.591,6.469-1.4,7.432-3.959a.553.553,0,0,1,1.036.391c-1.176,3.122-5.255,4.005-8.234,4.65-.536.116-1.038.224-1.481.337a31.4,31.4,0,0,0-4.97,1.894c-.514.231-1.029.46-1.547.682a7.371,7.371,0,0,0-3.926,3.109c-1.089,2.024-2.155,3.034-3.264,3.087Z" transform="translate(13.241 -145.083)"/></g><g transform="translate(31.968 30.218)"><path class="e" d="M28.357,120.352s3.508-4.806,10.059-.467C38.416,119.885,32.638,125.48,28.357,120.352Z" transform="translate(-28.357 -118.07)"/></g><g transform="translate(31.182 20.083)"><path class="e" d="M30.664,104.42S25.451,106.968,28,114.683C28,114.683,34.444,109.97,30.664,104.42Z" transform="translate(-27.298 -104.42)"/></g><g transform="translate(30.05 20.554)"><path d="M27.255,116.174l-.327-.7c-3.248-6.9,1.391-10.12,1.438-10.152l.4-.27.32.365c4.238,4.818-1.223,10.167-1.279,10.221Zm1.341-9.609c-.874.827-2.761,3.254-1,7.675C28.7,112.919,30.882,109.656,28.6,106.565Z" transform="translate(-25.774 -105.055)"/></g><g transform="translate(16.116 31.072)"><path class="e" d="M23.651,120.439c-.786-3.07-5.086.541-6.031,1.275-2.74,2.129-5.462,4.243-8.293,6.24-.874.617-1.912.9-2.248,2.135-.4,1.463.952,3.573,2.272,2.6,3.5-2.577,7.177-4.948,10.526-7.756C20.937,124.092,24.143,122.365,23.651,120.439Z" transform="translate(-7.008 -119.221)"/></g><g transform="translate(16.441 30.25)"><path d="M9.278,130.95a1.535,1.535,0,0,1-.911-.309,2.491,2.491,0,0,1-.81-2.666A3.225,3.225,0,0,1,9.239,126.2c.179-.106.36-.213.535-.334,2.527-1.763,4.965-3.618,7.324-5.413l.158-.121c1.6-1.236,3.6-2.592,4.918-2.118a1.606,1.606,0,0,1,1.012,1.267h0c.367,1.634-1.645,3.013-2.977,3.926-.249.17-.468.32-.629.445-1.988,1.621-4.131,3.113-6.2,4.557-1.048.731-2.1,1.461-3.127,2.208A1.655,1.655,0,0,1,9.278,130.95Zm12.274-11.738c-.526,0-1.567.406-3.62,1.992l-.164.127c-2.368,1.8-4.816,3.664-7.362,5.439-.2.138-.4.259-.6.379-.561.332-1,.595-1.2,1.172a1.387,1.387,0,0,0,.413,1.428.445.445,0,0,0,.583-.03c1.037-.752,2.09-1.486,3.144-2.221,2.055-1.432,4.18-2.912,6.146-4.514.186-.144.422-.307.692-.492.953-.653,2.726-1.87,2.523-2.773h0c-.088-.39-.248-.447-.308-.469A.732.732,0,0,0,21.551,119.211Z" transform="translate(-7.445 -118.114)"/></g><g transform="translate(30.843 28.771)"><path d="M31.348,121.2c-.094,0-.189,0-.283-.007a5.429,5.429,0,0,1-3.946-2.126l-.277-.331.255-.349c.034-.048,3.518-4.676,9.745-.553l.574.38-.495.479C36.812,118.793,34.3,121.2,31.348,121.2ZM28.279,118.7a4.207,4.207,0,0,0,2.843,1.383A7.168,7.168,0,0,0,35.6,118.36C31.534,116,29.082,117.877,28.279,118.7Z" transform="translate(-26.842 -116.121)"/></g><g transform="translate(41.439 16.032)"><path d="M41.863,114.253s8.495,4.8,13.349,3c6.8-2.525,10.477-5.382,11.951-6.83,2.313-2.275,3.819-10.513-3.741-10.711,0,0-1.455.117-9.695,5.982C50.981,107.65,46.146,112.082,41.863,114.253Z" transform="translate(-41.306 -99.158)"/><path d="M52.49,118.022c-4.879,0-10.8-3.309-11.094-3.476a.557.557,0,0,1,.022-.982,56.208,56.208,0,0,0,8.728-6.136c1.185-.95,2.209-1.771,3.065-2.38,7.961-5.667,9.7-6.061,9.973-6.083,3.694.094,5.173,1.931,5.774,3.454a8.6,8.6,0,0,1-1.6,8.209c-1.2,1.181-4.786,4.223-12.147,6.956A7.829,7.829,0,0,1,52.49,118.022Zm-9.633-3.967c2.282,1.143,8.312,3.839,11.969,2.484,7.158-2.658,10.6-5.575,11.753-6.7a7.464,7.464,0,0,0,1.342-7.007c-.688-1.746-2.251-2.67-4.644-2.749-.267.073-2.18.724-9.421,5.877-.829.59-1.841,1.4-3.014,2.341A65.056,65.056,0,0,1,42.857,114.055Z" transform="translate(-41.113 -98.965)"/></g></g></g></g><g transform="translate(10.878 10.853)"><path d="M138.878,210.853h-128v-200h128Zm-125.04-2.966H135.918V13.819H13.838Z" transform="translate(-10.878 -10.853)"/></g></g></svg>