<svg xmlns="http://www.w3.org/2000/svg" xmlns:xlink="http://www.w3.org/1999/xlink" width="128" height="200" viewBox="0 0 128 200"><defs><style>.a{fill:none;}.b{fill:#fff;}.c{fill:#170000;}.d{clip-path:url(#a);}.e{fill:#c21823;}</style><clipPath id="a"><rect class="a" width="54.628" height="74.208"/></clipPath></defs><g transform="translate(-10.878 -10.853)"><g transform="translate(10.878 10.853)"><rect class="b" width="125.04" height="197.04" transform="translate(1.48 1.48)"/><path d="M138.878,210.853h-128v-200h128Zm-125.04-2.966H135.918V13.819H13.838Z" transform="translate(-10.878 -10.853)"/></g><g transform="translate(19.686 19.964)"><path class="c" d="M27.282,23.167h1.634l3.608,10.245.921.148v.728H29.524V33.56l1.233-.148-.7-2.2H25.723l-.7,2.2,1.277.148v.728H22.783V33.56l.92-.148Zm.935,2.375-.371-1.307-.356,1.336-1.5,4.767h3.787Z" transform="translate(-22.783 -23.167)"/></g><g transform="translate(10.878 10.853)"><path d="M138.878,210.853h-128v-200h128Zm-125.04-2.966H135.918V13.819H13.838Z" transform="translate(-10.878 -10.853)"/></g><g transform="translate(118.303 19.718)"><path d="M165.239,27.142a3.331,3.331,0,0,0,.161-1.028,3.205,3.205,0,1,0-6.409,0,3.31,3.31,0,0,0,.161,1.028,3.283,3.283,0,0,0,.123,6.559,3.149,3.149,0,0,0,2.134-.836l-.69,2.4h2.934l-.7-2.419a3.15,3.15,0,0,0,2.16.86,3.283,3.283,0,0,0,.123-6.559Z" transform="translate(-156.07 -22.834)"/></g><g transform="translate(110.084 129.088)"><path d="M146.924,174.141a2.616,2.616,0,0,0-.751.329,2.525,2.525,0,1,0,2.712,4.26,2.615,2.615,0,0,0,.615-.542,2.587,2.587,0,0,0,4.308-2.857,2.488,2.488,0,0,0-1.459-1.065l1.884-.554-1.242-1.95-1.313,1.487a2.482,2.482,0,0,0-.342-1.8,2.587,2.587,0,0,0-4.412,2.694Z" transform="translate(-144.961 -170.294)"/></g><g transform="translate(82.77 59.592)"><g class="d"><g transform="translate(6.674 -0.334)"><g transform="translate(12.029 13.607)"><path d="M148.848,102.746l5.579-4.581s1.338-.931-1.905-2.679c-2.432-1.312-8.305,1.914-9.721,2.535-.675.3-2.707.121-3.437.2a2.982,2.982,0,0,1-.939,0,2.321,2.321,0,0,1-1.028-.94,1.842,1.842,0,0,1-.209,1.915c-.7,1.159-3.281,3.478-3.112,5.1.152,1.472,1.574,4.692,4.626,5.194a9.762,9.762,0,0,0,4.939-.249,6.526,6.526,0,0,1,4.718,1.233,4.741,4.741,0,0,0,2.821.9l.644.044-3.184-5.779" transform="translate(-133.516 -94.631)"/><path d="M151.631,111.778h-.038l-.643-.044a5.189,5.189,0,0,1-3.156-1.041,6.016,6.016,0,0,0-4.253-1.1c-.151.026-.309.07-.487.118a9.682,9.682,0,0,1-4.636.132c-3.422-.562-4.925-4.137-5.085-5.68-.143-1.376,1.18-2.958,2.243-4.228a12.208,12.208,0,0,0,.946-1.218,1.361,1.361,0,0,0,.21-1.342.559.559,0,0,1,.179-.745.543.543,0,0,1,.741.138c.43.607.667.712.73.73a2.408,2.408,0,0,0,.728-.019,11.605,11.605,0,0,1,1.18-.024,8.465,8.465,0,0,0,2.1-.133c.189-.083.459-.214.792-.374,2.292-1.106,7.064-3.406,9.412-2.141,1.611.869,2.418,1.7,2.465,2.53a1.263,1.263,0,0,1-.508,1.087L149,102.98a.551.551,0,1,1-.7-.851l5.579-4.581a.169.169,0,0,0,.071-.159c-.011-.1-.154-.676-1.888-1.61-1.851-1-6.616,1.3-8.41,2.164-.348.168-.63.3-.829.391a7.439,7.439,0,0,1-2.547.226c-.427,0-.831-.006-1.053.018a2.981,2.981,0,0,1-1.146-.018,1.446,1.446,0,0,1-.256-.1,3.281,3.281,0,0,1-.361.829,12.5,12.5,0,0,1-1.045,1.355c-.88,1.053-2.086,2.495-1.991,3.407.147,1.427,1.522,4.272,4.168,4.708a8.61,8.61,0,0,0,4.172-.11c.214-.057.4-.107.584-.138a7.039,7.039,0,0,1,5.184,1.368,3.758,3.758,0,0,0,2.122.728l-2.695-4.892a.551.551,0,0,1,.964-.532l3.184,5.779a.551.551,0,0,1-.482.817Z" transform="translate(-133.323 -94.44)"/></g><g transform="translate(37.688 41.168)"><path d="M168.554,146.4a.55.55,0,1,1,0-1.1,27.4,27.4,0,0,0,11.288-2.578c.8-.5,3.113-2.073,3.707-3.112.774-1.352,8.071-8.185,12.389-7.906a.55.55,0,0,1,.512.587.561.561,0,0,1-.586.513c-3.645-.253-10.534,5.915-11.359,7.354-.84,1.468-3.787,3.317-4.12,3.523a27.963,27.963,0,0,1-11.83,2.721Z" transform="translate(-168.003 -131.691)"/></g><g transform="translate(0.267 21.171)"><path d="M144.52,137.163a.553.553,0,0,1-.2-.036c-6.113-2.336-10.4-8.173-10.432-14.2a7.216,7.216,0,0,0-5.494-7.178c-.879-.181-1.825-.341-2.827-.511-.778-.131-1.588-.269-2.422-.425-6.248-1.167-5.713-9.448-5.707-9.532a.551.551,0,0,1,.535-.51l4.161-.112a.551.551,0,1,1,.03,1.1l-3.644.1c-.016,1.682.3,7.024,4.828,7.872.829.155,1.632.291,2.4.422,1.011.17,1.967.332,2.865.516a8.321,8.321,0,0,1,6.374,8.252c.027,5.579,4.026,11,9.724,13.173a.551.551,0,0,1-.2,1.065Z" transform="translate(-117.427 -104.663)"/></g><g transform="translate(4.441 10.088)"><path d="M143.909,106.77a1.3,1.3,0,0,1-1.017-.5,38,38,0,0,1-3.135-5.1.551.551,0,1,1,.969-.523,35.754,35.754,0,0,0,3.029,4.944.2.2,0,0,0,.166.083.187.187,0,0,0,.147-.1l1.111-1.97c.041-.064,2.044-3.133,1.538-5.144a1.884,1.884,0,0,0-.991-1.25,6.079,6.079,0,0,0-5.565-.1,5.435,5.435,0,0,1-2.47,0,8.149,8.149,0,0,0-1.25-.1,3.032,3.032,0,0,1-1.147-.018c-.836-.237-1.512-1.389-2.006-2.231-.089-.152-.168-.288-.237-.4-.132-.209-.278-.464-.435-.74-.493-.865-1.236-2.172-1.887-2.344-1.472-.391-3.531-.63-4-.388l.012.029a23.644,23.644,0,0,0,1.641,2.081,5.781,5.781,0,0,1,1.919,2.331,7.16,7.16,0,0,0,1.2,1.743.7.7,0,0,1,.189.652.684.684,0,0,1-.441.5,3.5,3.5,0,0,0-2.086,2.318,1.068,1.068,0,0,1-.482.6c-.509.289-1.849.783-5.068.744a.551.551,0,0,1-.547-.555.563.563,0,0,1,.555-.546c3.17.019,4.258-.456,4.517-.6a4.656,4.656,0,0,1,2.2-2.754,9.737,9.737,0,0,1-1-1.564,4.8,4.8,0,0,0-1.586-1.962,16.954,16.954,0,0,1-2.021-2.547,1.041,1.041,0,0,1,.121-1.154c.927-1.073,4.735-.1,5.166.015,1.1.292,1.908,1.718,2.56,2.864.149.259.285.5.41.7.074.118.16.263.255.427.283.482.946,1.613,1.355,1.728a2.343,2.343,0,0,0,.73-.016,7.564,7.564,0,0,1,1.5.1,6.683,6.683,0,0,0,1.893.087,7.129,7.129,0,0,1,6.529.144,2.969,2.969,0,0,1,1.537,1.951c.623,2.482-1.574,5.844-1.668,5.986l-1.091,1.936a1.29,1.29,0,0,1-1.021.661C143.974,106.768,143.941,106.77,143.909,106.77Zm-13.023-9.6h0Zm-4.173-6.345Z" transform="translate(-123.067 -89.685)"/></g><g transform="translate(16.618 18.9)"><path class="b" d="M141.856,103.3a.549.549,0,0,1-.363-.137,6.432,6.432,0,0,0-1.532-.482.551.551,0,1,1,.231-1.077,5.988,5.988,0,0,1,2.028.731.551.551,0,0,1-.364.965Z" transform="translate(-139.525 -101.594)"/></g><g transform="translate(0.28 21.19)"><path d="M121.6,105.435l-3.412.092s.288,3.329.3,3.385A6.6,6.6,0,0,0,121.6,105.435Z" transform="translate(-117.637 -104.883)"/><path d="M118.291,109.268a.548.548,0,0,1-.544-.462c0-.027-.012-.075-.3-3.424a.551.551,0,0,1,.534-.6l3.413-.092a.539.539,0,0,1,.461.228.552.552,0,0,1,.073.508,7.12,7.12,0,0,1-3.4,3.79A.545.545,0,0,1,118.291,109.268Zm.3-3.4c.045.528.114,1.313.166,1.916a6.145,6.145,0,0,0,1.785-1.969Z" transform="translate(-117.443 -104.69)"/></g><g transform="translate(6.797 5.98)"><path d="M135.9,94.819s.65.115-1.954,1.357c-.639.3-1.816,1.051-2.282,1.35a10.672,10.672,0,0,0-2.013,1.727,4.082,4.082,0,0,1,2.478-2.832.146.146,0,0,0,.046-.24c-1.372-1.366-4.15-1.35-4.837-3.2-.682-1.834-.509-6.183,2.212-7.984.883-.584,1.5,1.116,1.743,1.735a17.216,17.216,0,0,0,1.547,3.42c1.022,1.543,1.714,3.386,3.06,4.667" transform="translate(-126.447 -84.326)"/><path d="M129.459,99.61a.544.544,0,0,1-.266-.068.55.55,0,0,1-.262-.64A4.784,4.784,0,0,1,131.12,96a9.288,9.288,0,0,0-1.546-.73c-1.209-.485-2.459-.988-2.944-2.293-.752-2.025-.586-6.643,2.425-8.635a1.137,1.137,0,0,1,1-.158c.73.233,1.17,1.148,1.536,2.1l.229.6a13.5,13.5,0,0,0,1.284,2.765c.359.542.678,1.12.988,1.68a11.947,11.947,0,0,0,1.928,2.831.622.622,0,0,1,.3.453c.065.477-.268.878-2.334,1.863-.605.288-1.754,1.017-2.22,1.316a10.167,10.167,0,0,0-1.9,1.626A.548.548,0,0,1,129.459,99.61Zm.26-14.376c-2.51,1.652-2.665,5.724-2.058,7.36.315.848,1.246,1.222,2.323,1.654a6.924,6.924,0,0,1,2.387,1.347.7.7,0,0,1,.2.406c.348-.206.685-.394.945-.517A13.884,13.884,0,0,0,135,94.694a14.3,14.3,0,0,1-1.873-2.828c-.312-.565-.607-1.1-.942-1.6a14.525,14.525,0,0,1-1.4-2.985l-.206-.541C130.051,85.343,129.77,85.24,129.719,85.234Zm2.035,10.474h0Zm3.859-.54h0Z" transform="translate(-126.252 -84.132)"/></g><g transform="translate(15.215 21.861)"><path class="b" d="M138.181,106.949a.549.549,0,0,1-.365-.96,2.656,2.656,0,0,1,1.758-.38.55.55,0,0,1,.5.595.559.559,0,0,1-.595.5,1.968,1.968,0,0,0-.939.112A.555.555,0,0,1,138.181,106.949Z" transform="translate(-137.63 -105.596)"/></g><g transform="translate(29.785)"><path d="M225.162,125.16c-4.469,0-10.472-2-12.21-3.83-1.9-2.008-4.065-1.43-6.565-.76l-.524.139a17.9,17.9,0,0,1-7.516.005c-4.743-.822-8.305-6.138-8.455-6.364a.551.551,0,0,1,.919-.607c.034.051,3.453,5.147,7.724,5.887a16.886,16.886,0,0,0,7.049.015l.519-.138c2.6-.7,5.294-1.418,7.65,1.066,1.967,2.076,10.889,4.555,14.364,3.007,2.012-.9,2.26-1.574,2.274-1.824.021-.39-.411-.863-1.218-1.334l-.437-.259c-1.264-.755-1.691-1.01-5.266-1.122-3.666-.115-4.215-.89-5.018-2.492-.116-.231-.242-.482-.394-.753-1.188-2.118-2.234-3.172-4.353-2.692-2.908.668-4.726-2.342-4.925-2.689a3.148,3.148,0,0,1-.183-1.691c.007-.2.014-.366.006-.451a22.572,22.572,0,0,0-.937-4.765c-1.153-3.625-3.275-6.222-5.978-7.312a.551.551,0,0,1,.385-1.032,13.639,13.639,0,0,0,10.712-.5,11.009,11.009,0,0,0,5.54-6.982c.89-3.142-1.286-6.921-3.729-9.156a12.411,12.411,0,0,1,.85,6.884c-.565,2.706-2.33,3.62-4.763,4.614a19.181,19.181,0,0,1-9.869.769c-2.061-.4-9.52-1.068-18.925,7.095-8.362,7.258-10.738,8.044-14.545,8.9-3.291.741-8.964,1.719-9.956-.084a.551.551,0,1,1,.965-.532c.366.664,3.737.673,8.749-.459,3.629-.818,5.9-1.574,14.064-8.66,9.781-8.488,17.673-7.768,19.857-7.343a17.991,17.991,0,0,0,9.243-.709c2.248-.918,3.645-1.634,4.1-3.818a11.279,11.279,0,0,0-1.944-8.242.551.551,0,0,1,.683-.834c3.428,1.778,7.579,7.286,6.279,11.873a12.092,12.092,0,0,1-6.09,7.659,14,14,0,0,1-8.347,1.333,13.965,13.965,0,0,1,3.767,6.2,23.629,23.629,0,0,1,.983,5c.011.112.007.33,0,.586a6.587,6.587,0,0,0,.021,1.081l.01.017c.061.11,1.512,2.68,3.73,2.175,3.065-.7,4.476,1.3,5.559,3.227.161.288.3.553.418.8.651,1.3.895,1.785,4.068,1.884,3.685.115,4.325.4,5.8,1.277l.427.253c1.216.71,1.808,1.5,1.762,2.345-.055,1.01-1.012,1.916-2.926,2.769A8.559,8.559,0,0,1,225.162,125.16Zm-15.481-15.38h0Z" transform="translate(-157.322 -76.05)"/></g><g transform="translate(80.701 28.441)"><path d="M244.31,126.794a21.861,21.861,0,0,1-9.348-2.593.55.55,0,1,1,.5-.98c3.839,1.967,9.086,3.452,12.3,1.717a3.076,3.076,0,0,0,1.579-1.469.643.643,0,0,0-.112-.545,5.286,5.286,0,0,0-2.951-2.128,9.9,9.9,0,0,0-2.337-.031,9.132,9.132,0,0,1-3.072-.154,3.484,3.484,0,0,1-2.155-1.8c-.14-.215-.287-.442-.465-.679a6.178,6.178,0,0,0-3.19-2.1c-2.916-.756-4.843-.459-8.275.178a.551.551,0,0,1-.2-1.084c3.489-.647,5.616-.974,8.753-.161a7.338,7.338,0,0,1,3.792,2.5c.2.258.357.508.51.743a2.469,2.469,0,0,0,1.525,1.335,8.228,8.228,0,0,0,2.708.117,10.9,10.9,0,0,1,2.6.044,6.358,6.358,0,0,1,3.679,2.608,1.752,1.752,0,0,1,.26,1.42,4.048,4.048,0,0,1-2.124,2.168A8.337,8.337,0,0,1,244.31,126.794Z" transform="translate(-226.137 -114.49)"/></g><g transform="translate(12.345 48.697)"><path d="M136.532,164.854a3.584,3.584,0,0,1-.507-.036,2.4,2.4,0,0,1-2.271-2.175,11.058,11.058,0,0,1,1.027-4.554c.155-.4.313-.809.464-1.242.533-1.525,3.719-3.268,7.827-5.389,1.128-.582,2.192-1.131,2.9-1.557,2.5-1.495,5.009-7.478,5.034-7.539a.551.551,0,1,1,1.017.423c-.108.259-2.675,6.38-5.486,8.06-.741.443-1.82,1-2.963,1.591-2.732,1.41-6.862,3.542-7.292,4.774-.155.444-.317.864-.477,1.275a10.056,10.056,0,0,0-.954,4.122c.021.647.679,1.028,1.324,1.119a2.946,2.946,0,0,0,3.151-2.277c1.3-4.054,6.1-5.759,7.835-6.074,3.315-.6,7.6-1.617,8.757-2.5,1.445-1.1,4.77-6.2,4.833-10.465a.527.527,0,0,1,.559-.542.551.551,0,0,1,.543.559c-.067,4.509-3.5,9.971-5.267,11.324-1.653,1.262-7.482,2.394-9.229,2.71-1.452.264-5.852,1.808-6.983,5.328A4.061,4.061,0,0,1,136.532,164.854Z" transform="translate(-133.751 -141.867)"/></g><g transform="translate(0 47.907)"><path d="M119.992,158.557a2.56,2.56,0,0,1-2.112-1.467,5.727,5.727,0,0,1,.377-6.441,6.919,6.919,0,0,1,2.828-2.173,173.46,173.46,0,0,0,16.528-7.612.551.551,0,0,1,.524.97,174.409,174.409,0,0,1-16.633,7.661,5.84,5.84,0,0,0-2.381,1.835,4.609,4.609,0,0,0-.306,5.181c.388.627.784.946,1.176.946H120c.381,0,1.2-.325,2.419-2.415a8.321,8.321,0,0,1,4.57-3.433c.517-.2,1.031-.41,1.546-.619a32.16,32.16,0,0,1,5.2-1.774c.457-.1.974-.193,1.526-.293,2.738-.494,6.49-1.172,7.536-3.687a.551.551,0,0,1,1.017.424c-1.278,3.068-5.37,3.807-8.358,4.348-.538.1-1.042.188-1.486.285a31.315,31.315,0,0,0-5.016,1.717c-.52.212-1.04.422-1.563.625a7.352,7.352,0,0,0-4.017,2.961c-1.153,1.978-2.251,2.948-3.356,2.962Z" transform="translate(-117.065 -140.799)"/></g><g transform="translate(31.851 28.453)"><path class="e" d="M160.114,116.615s3.658-4.666,10.034-.12C170.148,116.5,164.2,121.868,160.114,116.615Z" transform="translate(-160.114 -114.505)"/></g><g transform="translate(31.272 18.285)"><path class="e" d="M162.905,100.763s-5.279,2.359-3.006,10.13C159.9,110.893,166.479,106.42,162.905,100.763Z" transform="translate(-159.331 -100.763)"/></g><g transform="translate(30.147 18.703)"><path d="M159.108,112.349l-.3-.705c-3-6.987,1.733-10.031,1.781-10.061l.41-.255.307.374c4.055,4.944-1.567,10.084-1.624,10.136Zm1.664-9.523c-.9.793-2.861,3.147-1.259,7.61C160.66,109.158,162.943,105.983,160.772,102.826Z" transform="translate(-157.811 -101.328)"/></g><g transform="translate(15.719 29.119)"><path class="e" d="M155.237,116.669c-.676-3.085-5.083.363-6.05,1.062-2.8,2.027-5.585,4.038-8.472,5.93-.892.584-1.935.828-2.313,2.048-.447,1.444.826,3.591,2.173,2.668,3.571-2.447,7.318-4.682,10.75-7.363C152.41,120.213,155.662,118.6,155.237,116.669Z" transform="translate(-138.311 -115.406)"/></g><g transform="translate(16.101 28.273)"><path d="M140.625,126.625a1.517,1.517,0,0,1-.946-.339,2.481,2.481,0,0,1-.715-2.683,3.215,3.215,0,0,1,1.737-1.713c.182-.1.366-.2.544-.314,2.575-1.666,5.068-3.432,7.479-5.138l.163-.118c1.635-1.174,3.679-2.456,4.969-1.94a1.6,1.6,0,0,1,.965,1.3h0c.31,1.641-1.742,2.946-3.1,3.81-.253.161-.476.3-.641.42-2.035,1.546-4.221,2.959-6.334,4.325-1.068.691-2.137,1.382-3.189,2.091A1.665,1.665,0,0,1,140.625,126.625Zm12.54-11.268c-.536,0-1.585.385-3.636,1.859l-.169.121c-2.421,1.714-4.924,3.486-7.517,5.164-.2.13-.408.244-.614.356-.57.312-1.021.558-1.231,1.127a1.38,1.38,0,0,0,.362,1.435.44.44,0,0,0,.582-.009c1.058-.713,2.132-1.408,3.207-2.1,2.1-1.355,4.263-2.758,6.276-4.285.189-.138.431-.292.705-.465.971-.618,2.78-1.768,2.609-2.675-.074-.391-.232-.454-.291-.478A.747.747,0,0,0,153.164,115.357Z" transform="translate(-138.826 -114.263)"/></g><g transform="translate(30.769 26.981)"><path d="M163.242,117.558q-.233,0-.47-.021a5.408,5.408,0,0,1-3.856-2.252l-.264-.34.266-.338c.036-.046,3.667-4.535,9.723-.217l.559.4-.509.459A9.293,9.293,0,0,1,163.242,117.558Zm-3.155-2.59a4.189,4.189,0,0,0,2.781,1.472,7.288,7.288,0,0,0,4.518-1.563C163.442,112.407,160.922,114.179,160.087,114.967Z" transform="translate(-158.652 -112.516)"/></g><g transform="translate(41.33 15.247)"><path d="M173.675,111.145s8.3,5.076,13.192,3.447c6.856-2.281,10.618-5,12.135-6.392,2.382-2.186,4.164-10.339-3.358-10.8,0,0-1.452.067-9.86,5.625C182.982,104.882,178.016,109.13,173.675,111.145Z" transform="translate(-173.121 -96.852)"/><path d="M184.476,115.274c-4.928,0-10.988-3.668-11.285-3.85a.556.556,0,0,1,.056-.977,56.007,56.007,0,0,0,8.9-5.811c1.213-.906,2.261-1.688,3.133-2.265,8.124-5.369,9.872-5.7,10.141-5.714,3.676.22,5.085,2.1,5.631,3.636a8.569,8.569,0,0,1-1.873,8.122c-1.237,1.135-4.914,4.041-12.336,6.509A7.524,7.524,0,0,1,184.476,115.274Zm-9.813-4.289c2.234,1.217,8.146,4.113,11.834,2.886,7.219-2.4,10.752-5.187,11.935-6.273a7.439,7.439,0,0,0,1.578-6.933c-.626-1.762-2.15-2.736-4.531-2.9-.269.063-2.2.645-9.584,5.528-.846.559-1.882,1.333-3.081,2.228A64.953,64.953,0,0,1,174.663,110.985Z" transform="translate(-172.926 -96.657)"/></g></g></g></g></g></svg>