<svg xmlns="http://www.w3.org/2000/svg" xmlns:xlink="http://www.w3.org/1999/xlink" width="128" height="200" viewBox="0 0 128 200"><defs><style>.a{fill:none;}.b{fill:#fff;}.c{fill:#170000;}.d{clip-path:url(#a);}.e{fill:#c21823;}</style><clipPath id="a"><rect class="a" width="95.829" height="91.36"/></clipPath></defs><rect class="b" width="125.04" height="197.04" transform="translate(1.48 1.48)"/><path d="M138.88,210.85h-128v-200h128ZM13.84,207.884H135.92V13.816H13.84Z" transform="translate(-10.88 -10.85)"/><path class="c" d="M28.307,36.464a4.27,4.27,0,0,0,1.924-.437,3.389,3.389,0,0,0,1.384-1.184,3,3,0,0,0,.5-1.724q0-2.386-2.22-2.39a4.669,4.669,0,0,0-1.088.141,6.793,6.793,0,0,0-1.051.333l-.4-.281.74-5.343h4.233l.148-.289h.925l-.266,1.532H29.2l-.681,3.434a4.6,4.6,0,0,1,1.021-.37,4.847,4.847,0,0,1,1.258-.141,3.078,3.078,0,0,1,2.22.807,3.13,3.13,0,0,1,.814,2.331,3.774,3.774,0,0,1-.673,2.168,4.743,4.743,0,0,1-1.909,1.591,6.445,6.445,0,0,1-2.8.592,4.44,4.44,0,0,1-1.043-.1v-.74a8.532,8.532,0,0,0,.91.074Z" transform="translate(-15.165 -14.604)"/><path d="M138.88,210.85h-128v-200h128ZM13.84,207.884H135.92V13.816H13.84Z" transform="translate(-10.88 -10.85)"/><path d="M165.185,27.159a3.219,3.219,0,1,0-6.26-1.029,3.433,3.433,0,0,0,.155,1.029,3.279,3.279,0,0,0,.126,6.556,3.138,3.138,0,0,0,2.131-.836l-.688,2.4h2.96l-.7-2.42a3.145,3.145,0,0,0,2.161.858,3.279,3.279,0,0,0,.118-6.556Z" transform="translate(-48.596 -13.979)"/><path d="M146.939,174.1a2.96,2.96,0,0,0-.74.333,2.525,2.525,0,0,0,2.708,4.262,2.752,2.752,0,0,0,.622-.548,2.584,2.584,0,0,0,4.307-2.856,2.494,2.494,0,0,0-1.48-1.066l1.88-.555-1.243-1.946-1.31,1.48a2.531,2.531,0,0,0-.34-1.806,2.6,2.6,0,0,0-4.44,2.694Z" transform="translate(-45.775 -52.021)"/><path d="M107.62,194.542a2.45,2.45,0,0,0-.74.333,2.524,2.524,0,1,0,2.716,4.255,2.849,2.849,0,0,0,.614-.54,2.59,2.59,0,0,0,4.307-2.856,2.464,2.464,0,0,0-1.48-1.066l1.88-.555-1.236-1.954-1.317,1.48a2.516,2.516,0,0,0-.34-1.8,2.6,2.6,0,0,0-4.44,2.694Z" transform="translate(-35.549 -57.303)"/><path d="M117.857,166.956a2.538,2.538,0,1,0,.37,4.973,2.753,2.753,0,0,0,.74-.311,2.59,2.59,0,1,0,3.959-2.8l1.968.089-.548-2.22-1.724.984a2.472,2.472,0,0,0,.259-1.813,2.59,2.59,0,0,0-5.047,1.125Z" transform="translate(-37.972 -50.427)"/><path d="M159.217,140.139a2.73,2.73,0,0,0-.8.185,2.525,2.525,0,0,0,1.85,4.7,2.709,2.709,0,0,0,.74-.414,2.59,2.59,0,0,0,4.773-1.991,2.509,2.509,0,0,0-1.228-1.325l1.954-.185-.851-2.146-1.569,1.206a2.494,2.494,0,0,0,0-1.835,2.59,2.59,0,0,0-4.847,1.806Z" transform="translate(-48.843 -43.395)"/><path d="M167.487,156.433a2.634,2.634,0,0,0-.318.74,2.526,2.526,0,1,0,4.9,1.236,2.738,2.738,0,0,0,.074-.814,2.59,2.59,0,0,0,1.177-5.039,2.509,2.509,0,0,0-1.8.229l.992-1.695-2.22-.57.067,1.983a2.5,2.5,0,0,0-1.48-1.073,2.59,2.59,0,0,0-1.369,4.988Z" transform="translate(-51.164 -46.946)"/><g class="d" transform="translate(30.861 28.453)"><path d="M94.029,91.659l5.032-5.18s1.228-1.073-2.22-2.449C94.3,83,88.827,86.863,87.495,87.663c-.644.37-2.679.422-3.4.585a2.96,2.96,0,0,1-.932.1,2.353,2.353,0,0,1-1.132-.814,1.82,1.82,0,0,1,0,1.924c-.562,1.228-2.864,3.826-2.516,5.424.318,1.48,2.087,4.484,5.18,4.64a9.827,9.827,0,0,0,4.884-.8,6.483,6.483,0,0,1,4.825.7,4.773,4.773,0,0,0,2.908.57h.644l-3.811-5.432" transform="translate(-59.597 -58.285)"/><path d="M96.546,100.358a4.536,4.536,0,0,1-2.649-.7,6.012,6.012,0,0,0-4.351-.614l-.466.17a9.686,9.686,0,0,1-4.6.651c-3.463-.17-5.358-3.559-5.691-5.076-.3-1.347.844-3.071,1.754-4.44a11,11,0,0,0,.807-1.31,1.376,1.376,0,0,0,.059-1.362.555.555,0,0,1,.089-.74.54.54,0,0,1,.74.052c.5.555.74.629.807.644a2.59,2.59,0,0,0,.74-.1c.274-.059.688-.1,1.169-.155a8.576,8.576,0,0,0,2.065-.363l.74-.466c2.153-1.354,6.66-4.174,9.117-3.182,1.695.681,2.59,1.413,2.731,2.22a1.251,1.251,0,0,1-.385,1.14l-4.995,5.18a.548.548,0,0,1-.777,0,.54.54,0,0,1,0-.777l5.032-5.18a.17.17,0,0,0,.052-.163c0-.1-.229-.659-2.057-1.391-1.954-.74-6.431,2.035-8.14,3.093-.326.207-.592.377-.74.481a7.163,7.163,0,0,1-2.509.511c-.422.044-.821.089-1.043.141a3.33,3.33,0,0,1-1.14.111,1.191,1.191,0,0,1-.266-.074,3.19,3.19,0,0,1-.266.866A13.6,13.6,0,0,1,81.494,91c-.74,1.14-1.8,2.708-1.6,3.611.3,1.4,1.991,4.07,4.669,4.211a8.776,8.776,0,0,0,4.129-.577c.207-.081.392-.155.57-.207a7.211,7.211,0,0,1,5.306.74,3.7,3.7,0,0,0,2.22.488L93.512,94.7a.549.549,0,1,1,.9-.636l3.811,5.38a.548.548,0,0,1,.044.562.54.54,0,0,1-.466.311h-.644Z" transform="translate(-59.405 -58.104)"/><path d="M118.656,132.416a.555.555,0,0,1-.548-.488.548.548,0,0,1,.488-.607,27.15,27.15,0,0,0,10.922-3.8c.74-.585,2.864-2.4,3.337-3.508.622-1.428,7.074-9.05,11.426-9.25a.585.585,0,0,1,.577.533.548.548,0,0,1-.525.57c-3.626.163-9.8,7.06-10.464,8.584s-3.389,3.7-3.7,3.966a27.994,27.994,0,0,1-11.455,4.033Z" transform="translate(-69.639 -66.32)"/><path d="M93.218,126.843a.459.459,0,0,1-.141,0c-6.334-1.635-11.255-6.956-11.958-12.935a7.215,7.215,0,0,0-6.268-6.534c-.9-.081-1.857-.133-2.871-.192-.784-.044-1.606-.089-2.449-.148-6.342-.459-6.741-8.747-6.741-8.836a.54.54,0,0,1,.474-.562l4.122-.577a.549.549,0,0,1,.155,1.088l-3.611.5c.17,1.68,1.08,6.949,5.676,7.282.844.067,1.658.111,2.435.148,1.029.059,2,.111,2.908.2a8.318,8.318,0,0,1,7.237,7.481c.651,5.543,5.232,10.478,11.1,12a.548.548,0,0,1-.133,1.08Z" transform="translate(-55.257 -61.716)"/><path d="M89.582,96.7a1.31,1.31,0,0,1-.925-.392,37.859,37.859,0,0,1-3.7-4.721.559.559,0,1,1,.925-.629,36.581,36.581,0,0,0,3.559,4.573.178.178,0,0,0,.178.059.17.17,0,0,0,.133-.118l.881-2.079c0-.067,1.68-3.345.955-5.284a1.872,1.872,0,0,0-1.125-1.132,6.09,6.09,0,0,0-5.543.518,5.439,5.439,0,0,1-2.457.281,7.526,7.526,0,0,0-1.251.037,3.108,3.108,0,0,1-1.147.111c-.851-.141-1.658-1.214-2.22-1.991l-.281-.37c-.148-.192-.326-.429-.511-.688-.585-.8-1.48-2.02-2.139-2.116-1.48-.222-3.582-.229-4.026.067h0a23.622,23.622,0,0,0,1.865,1.887,5.757,5.757,0,0,1,2.168,2.1,7.26,7.26,0,0,0,1.4,1.6.7.7,0,0,1,.259.622.673.673,0,0,1-.385.54,3.522,3.522,0,0,0-1.813,2.546,1.08,1.08,0,0,1-.407.644c-.481.348-1.754.969-4.958,1.31A.548.548,0,0,1,68.862,93c3.152-.333,4.181-.925,4.44-1.1a4.655,4.655,0,0,1,1.872-2.96A9.812,9.812,0,0,1,74,87.458a4.929,4.929,0,0,0-1.8-1.776,16.835,16.835,0,0,1-2.294-2.3,1.036,1.036,0,0,1,0-1.162c.8-1.169,4.692-.629,5.136-.562,1.117.163,2.087,1.48,2.864,2.56.178.237.34.459.488.644l.3.392c.34.451,1.125,1.48,1.547,1.569a2.561,2.561,0,0,0,.74-.1,8.14,8.14,0,0,1,1.48-.059,6.86,6.86,0,0,0,1.887-.126,7.119,7.119,0,0,1,6.5-.592,2.96,2.96,0,0,1,1.754,1.769c.9,2.39-.91,5.979-.992,6.135l-.866,2.079A1.273,1.273,0,0,1,89.582,96.7Z" transform="translate(-56.733 -57.665)"/><path class="b" d="M86.73,93.657a.555.555,0,0,1-.311-.1,6.712,6.712,0,0,0-1.606-.3.555.555,0,1,1,.111-1.1,6.112,6.112,0,0,1,2.094.5.555.555,0,0,1-.318,1.006Z" transform="translate(-60.845 -60.439)"/><path d="M66.912,97.93,63.53,98.4s.659,3.278.673,3.33a6.586,6.586,0,0,0,2.708-3.8Z" transform="translate(-55.449 -61.944)"/><path d="M64.01,102.1a.637.637,0,0,1-.2,0,.548.548,0,0,1-.326-.37s0-.074-.688-3.367a.555.555,0,0,1,.089-.429.54.54,0,0,1,.377-.222l3.382-.511a.54.54,0,0,1,.607.666,7.089,7.089,0,0,1-2.96,4.151.57.57,0,0,1-.281.081Zm0-3.419.377,1.887A6.246,6.246,0,0,0,65.9,98.411Z" transform="translate(-55.255 -61.752)"/><path d="M80.127,85.773s.659,0-1.791,1.561c-.6.377-1.687,1.251-2.116,1.6a10.723,10.723,0,0,0-1.806,1.946,4.07,4.07,0,0,1,2.146-3.093.148.148,0,0,0,0-.244c-1.48-1.206-4.27-.873-5.18-2.634s-1.191-6.061,1.332-8.155c.814-.681,1.621.94,1.931,1.524A17.02,17.02,0,0,0,76.561,81.5c1.191,1.421,2.087,3.175,3.567,4.3" transform="translate(-57.321 -56.395)"/><path d="M74.232,91.252a.51.51,0,0,1-.207-.037.555.555,0,0,1-.333-.607,4.788,4.788,0,0,1,1.85-3.13,9.237,9.237,0,0,0-1.621-.555c-1.258-.348-2.553-.74-3.182-1.946-.977-1.924-1.332-6.534,1.48-8.88a1.147,1.147,0,0,1,.977-.274c.74.148,1.295,1.014,1.761,1.917l.3.57a13.431,13.431,0,0,0,1.584,2.6c.422.5.807,1.043,1.177,1.561a11.973,11.973,0,0,0,2.22,2.6.622.622,0,0,1,.355.414c.118.466-.17.9-2.109,2.116-.57.348-1.635,1.206-2.065,1.554a10.487,10.487,0,0,0-1.7,1.828.533.533,0,0,1-.481.266ZM72.967,76.933c-2.309,1.924-2.005,5.987-1.214,7.548.407.807,1.369,1.073,2.494,1.384a6.9,6.9,0,0,1,2.523,1.073.673.673,0,0,1,.244.377c.326-.244.636-.466.881-.622a14.461,14.461,0,0,0,1.391-.955,14.312,14.312,0,0,1-2.22-2.6c-.37-.525-.74-1.021-1.117-1.48a14.836,14.836,0,0,1-1.717-2.812l-.266-.511C73.285,77.007,72.967,76.933,72.967,76.933Zm6.971,9.213Z" transform="translate(-57.138 -56.191)"/><path class="b" d="M83.527,97.645a.555.555,0,0,1-.414-.918,2.649,2.649,0,0,1,1.709-.577.533.533,0,0,1,.562.54.548.548,0,0,1-.533.562,1.976,1.976,0,0,0-.925.215A.525.525,0,0,1,83.527,97.645Z" transform="translate(-60.506 -61.481)"/><path d="M171.174,103.971c-4.122,0-8.88-1.154-10.508-2.546-2.124-1.776-4.2-.962-6.616,0l-.5.2a17.863,17.863,0,0,1-7.452.829c-4.81-.281-8.947-5.18-9.117-5.372a.548.548,0,0,1,.067-.74.555.555,0,0,1,.777.067c0,.052,4.011,4.729,8.34,4.988a16.939,16.939,0,0,0,7-.74l.5-.2c2.509-.984,5.1-2,7.726.207,2.183,1.843,11.329,3.3,14.608,1.376,1.9-1.117,2.072-1.82,2.057-2.072,0-.385-.5-.807-1.362-1.184l-.459-.215c-1.339-.607-1.8-.814-5.358-.525s-4.292-.407-5.269-1.909c-.141-.215-.3-.451-.481-.74-1.413-1.976-2.575-2.908-4.625-2.22-2.819.992-4.958-1.791-5.18-2.116a3.37,3.37,0,0,1-.37-1.658,1.2,1.2,0,0,0-.044-.451,23.1,23.1,0,0,0-1.48-4.632c-1.554-3.471-3.959-5.816-6.764-6.593a.555.555,0,0,1,.266-1.073,13.646,13.646,0,0,0,10.589-1.695,11,11,0,0,0,4.721-7.563c.533-3.219-2.057-6.734-4.736-8.68a12.4,12.4,0,0,1,1.621,6.749c-.259,2.753-1.909,3.855-4.218,5.121a19.3,19.3,0,0,1-9.716,1.872c-2.1-.163-9.583,0-18.011,9.176-7.5,8.14-9.768,9.2-13.461,10.478-3.189,1.1-8.71,2.708-9.9,1.036a.555.555,0,1,1,.9-.644c.437.622,3.8.252,8.643-1.436,3.515-1.221,5.691-2.22,13.009-10.182,8.769-9.539,16.694-9.7,18.907-9.531a17.974,17.974,0,0,0,9.109-1.739c2.131-1.162,3.441-2.035,3.648-4.255a11.3,11.3,0,0,0-2.856-7.97.548.548,0,0,1-.074-.7.562.562,0,0,1,.659-.215c3.6,1.384,8.347,6.394,7.57,11.1a12.084,12.084,0,0,1-5.18,8.3,14.06,14.06,0,0,1-8.14,2.22,14.016,14.016,0,0,1,4.44,5.735,23.5,23.5,0,0,1,1.532,4.862c0,.1.044.326.067.585a6.554,6.554,0,0,0,.141,1.066h0c.074.1,1.791,2.5,3.952,1.746,2.96-1.043,4.6.784,5.883,2.583.192.266.355.518.511.74.792,1.214,1.088,1.672,4.255,1.413,3.7-.3,4.344-.089,5.92.622l.459.2c1.288.57,1.961,1.288,2.013,2.139.059,1.006-.792,2.013-2.6,3.078A11.2,11.2,0,0,1,171.174,103.971ZM156.167,90.385ZM156.115,90.318Z" transform="translate(-65.887 -51.158)"/><path d="M189.749,105.359a23.769,23.769,0,0,1-8.044-1.643.555.555,0,0,1-.326-.74.548.548,0,0,1,.74-.318c4.04,1.524,9.42,2.4,12.417.326a3.071,3.071,0,0,0,1.406-1.635.666.666,0,0,0-.17-.533,5.261,5.261,0,0,0-3.175-1.783,10.182,10.182,0,0,0-2.324.229,9.058,9.058,0,0,1-3.071.192,3.493,3.493,0,0,1-2.346-1.539c-.163-.2-.333-.414-.533-.622a6.186,6.186,0,0,0-3.456-1.672c-2.96-.422-4.862.089-8.2,1.1a.54.54,0,0,1-.688-.363.555.555,0,0,1,.363-.688c3.4-1.036,5.476-1.6,8.68-1.14a7.333,7.333,0,0,1,4.055,2.057c.222.237.407.466.585.681a2.472,2.472,0,0,0,1.672,1.154,8.273,8.273,0,0,0,2.7-.185,11.1,11.1,0,0,1,2.59-.252,6.357,6.357,0,0,1,3.944,2.183,1.761,1.761,0,0,1,.422,1.384,4.066,4.066,0,0,1-1.872,2.39A9.428,9.428,0,0,1,189.749,105.359Z" transform="translate(-83.641 -61.019)"/><path d="M88.807,154.376h-.1a2.39,2.39,0,0,1-2.494-1.909,11.026,11.026,0,0,1,.511-4.64c.1-.414.215-.844.318-1.288.355-1.576,3.33-3.7,7.171-6.231,1.058-.74,2.057-1.376,2.716-1.88,2.316-1.761,4.137-7.992,4.151-8.051a.555.555,0,0,1,.688-.377.548.548,0,0,1,.37.681c-.074.274-1.939,6.66-4.544,8.628-.688.525-1.695,1.2-2.768,1.909-2.553,1.709-6.423,4.292-6.712,5.565-.1.459-.215.9-.326,1.317a10.042,10.042,0,0,0-.488,4.211c.089.636.792.94,1.48.962a2.96,2.96,0,0,0,2.871-2.62c.844-4.174,5.417-6.408,7.111-6.912,3.226-.969,7.4-2.464,8.421-3.471,1.31-1.258,4.04-6.7,3.626-10.945a.55.55,0,1,1,1.1-.111c.444,4.492-2.353,10.308-3.959,11.84s-7.171,3.219-8.88,3.7c-1.413.429-5.609,2.457-6.342,6.075A4.018,4.018,0,0,1,88.807,154.376Z" transform="translate(-61.331 -69.95)"/><path d="M71.575,150.232A2.686,2.686,0,0,1,69.525,149a5.72,5.72,0,0,1-.355-6.438,6.919,6.919,0,0,1,2.568-2.479,173.589,173.589,0,0,0,15.54-9.42.548.548,0,0,1,.74.133.555.555,0,0,1-.133.74,174.388,174.388,0,0,1-15.673,9.479,5.853,5.853,0,0,0-2.161,2.094,4.618,4.618,0,0,0,.274,5.18c.466.585.9.866,1.288.807s1.214-.444,2.19-2.664a8.436,8.436,0,0,1,4.159-3.922c.5-.259.984-.525,1.48-.792a32.4,32.4,0,0,1,4.958-2.346c.444-.148.947-.3,1.48-.459,2.664-.8,6.32-1.894,7.074-4.514a.555.555,0,0,1,1.058.311c-.925,3.189-4.906,4.388-7.814,5.254-.525.163-1.021.3-1.48.451a31.378,31.378,0,0,0-4.751,2.316l-1.48.807a7.139,7.139,0,0,0-3.656,3.389c-.925,2.094-1.909,3.182-3,3.323Z" transform="translate(-56.701 -70.43)"/><path class="e" d="M106.52,104.655s3.108-5.047,9.953-1.243C116.5,103.411,111.167,109.4,106.52,104.655Z" transform="translate(-66.627 -63)"/><path class="e" d="M107.666,88.65s-4.988,2.96-1.85,10.4C105.816,99.054,111.847,93.867,107.666,88.65Z" transform="translate(-66.174 -59.531)"/><path d="M105.17,100.607l-.377-.666c-3.767-6.608.6-10.168.636-10.2l.385-.3.348.34c4.581,4.44-.429,10.2-.481,10.249Zm.585-9.62c-.8.888-2.486,3.448-.392,7.7.992-1.436,2.886-4.84.392-7.733Z" transform="translate(-65.78 -59.737)"/><path class="e" d="M102.018,104.845c-1.021-2.96-5.017.932-5.92,1.732-2.553,2.331-5.1,4.64-7.755,6.845-.821.681-1.828,1.043-2.065,2.294-.281,1.48,1.221,3.478,2.457,2.412,3.271-2.834,6.749-5.476,9.857-8.525C99.605,108.686,102.654,106.718,102.018,104.845Z" transform="translate(-61.355 -63.457)"/><path d="M88.419,116.438a1.613,1.613,0,0,1-.814-.237,2.486,2.486,0,0,1-1.006-2.59,3.175,3.175,0,0,1,1.532-1.894c.17-.118.34-.244.5-.377,2.383-1.954,4.655-3.981,6.86-5.92l.141-.133c1.48-1.354,3.382-2.856,4.729-2.486a1.584,1.584,0,0,1,1.1,1.177c.488,1.6-1.406,3.123-2.657,4.137-.229.185-.437.348-.585.488-1.85,1.761-3.87,3.411-5.816,5.01-.984.807-1.968,1.613-2.96,2.435A1.635,1.635,0,0,1,88.419,116.438Zm11.47-12.624c-.5,0-1.48.444-3.515,2.264l-.148.141c-2.22,1.968-4.492,4-6.9,5.972-.185.155-.377.289-.57.429a2.22,2.22,0,0,0-1.1,1.251,1.391,1.391,0,0,0,.525,1.391.451.451,0,0,0,.577-.074c.969-.829,1.954-1.635,2.96-2.449,1.931-1.584,3.929-3.219,5.757-4.965.178-.155.4-.34.651-.54.9-.74,2.56-2.072,2.294-2.96h0c-.118-.377-.281-.429-.348-.444A.614.614,0,0,0,99.889,103.814Z" transform="translate(-61.431 -63.195)"/><path d="M109.145,105.27a5.424,5.424,0,0,1-3.959-1.813l-.3-.3.222-.37c0-.044,3.138-4.921,9.62-1.3l.6.333-.451.511c-.1.118-2.568,2.864-5.631,2.96Zm-2.834-2.22a4.27,4.27,0,0,0,2.96,1.154,7.293,7.293,0,0,0,4.314-2.065c-4.24-2.065-6.534-.007-7.274.858Z" transform="translate(-66.203 -62.52)"/><path d="M119.84,97.028s8.813,4.114,13.5,1.946c6.556-3.041,9.99-6.164,11.337-7.718,2.124-2.442,2.96-10.737-4.544-10.36,0,0-1.436.229-9.169,6.66C128.387,89.753,123.925,94.534,119.84,97.028Z" transform="translate(-70.09 -57.512)"/><path d="M129.778,99.966c-4.669,0-10.079-2.494-10.36-2.627a.548.548,0,0,1-.318-.474.533.533,0,0,1,.266-.5,55.963,55.963,0,0,0,8.192-6.778c1.1-1.036,2.057-1.931,2.864-2.6,7.467-6.253,9.169-6.778,9.435-6.823,3.7-.207,5.291,1.48,6,2.96a8.554,8.554,0,0,1-.947,8.281c-1.1,1.265-4.44,4.566-11.529,7.859a8.613,8.613,0,0,1-3.6.7Zm-8.954-3.234c2.361.962,8.562,3.175,12.084,1.547,6.9-3.2,10.1-6.364,11.159-7.578a7.467,7.467,0,0,0,.792-7.067c-.821-1.68-2.449-2.472-4.832-2.368-.259.089-2.109.888-8.88,6.571-.74.651-1.724,1.532-2.812,2.56A65.053,65.053,0,0,1,120.824,96.732Z" transform="translate(-69.897 -57.32)"/></g></svg>