<svg xmlns="http://www.w3.org/2000/svg" xmlns:xlink="http://www.w3.org/1999/xlink" width="128" height="200" viewBox="0 0 128 200"><defs><style>.a{fill:none;}.b{fill:#fff;}.c{fill:#170000;}.d{clip-path:url(#a);}.e{fill:#c21823;}</style><clipPath id="a"><rect class="a" width="82.317" height="82.317"/></clipPath></defs><rect class="b" width="125.04" height="197.04" transform="translate(1.48 1.48)"/><path d="M138.88,210.85h-128v-200h128ZM13.84,207.884H135.92V13.816H13.84Z" transform="translate(-10.88 -10.85)"/><path class="c" d="M27.407,37.239a5.448,5.448,0,0,1-.7-.126V36.27a4.159,4.159,0,0,0,1.169.148,4.98,4.98,0,0,0,2.028-.377,3.049,3.049,0,0,0,1.31-1.006,2.353,2.353,0,0,0,.451-1.4,2,2,0,0,0-.614-1.561,2.812,2.812,0,0,0-1.924-.577l-.459.118a2.375,2.375,0,0,1-.481.133l-.252-.784a5.92,5.92,0,0,0,1.191-.355,3.944,3.944,0,0,0,1.48-1.036,2.079,2.079,0,0,0,.562-1.369,1.48,1.48,0,0,0-.5-1.243,2.005,2.005,0,0,0-1.273-.392,3.641,3.641,0,0,0-1.288.237,4.617,4.617,0,0,0-1.058.577l-.4-.666a4.27,4.27,0,0,1,1.325-.807,4.64,4.64,0,0,1,1.887-.392,3.7,3.7,0,0,1,2.22.585,2.042,2.042,0,0,1,.836,1.791,2.679,2.679,0,0,1-.836,1.909,4.98,4.98,0,0,1-2.013,1.251H30.5a3.515,3.515,0,0,1,1.539.326,2.6,2.6,0,0,1,1.036.888,2.22,2.22,0,0,1,.363,1.251,3.16,3.16,0,0,1-.651,1.976,4.3,4.3,0,0,1-1.85,1.347,7.467,7.467,0,0,1-2.775.481A5.793,5.793,0,0,1,27.407,37.239Z" transform="translate(-14.983 -14.662)"/><path d="M138.88,210.85h-128v-200h128ZM13.84,207.884H135.92V13.816H13.84Z" transform="translate(-10.88 -10.85)"/><path d="M165.185,27.159a3.219,3.219,0,1,0-6.26-1.029,3.433,3.433,0,0,0,.155,1.029,3.279,3.279,0,0,0,.126,6.556,3.138,3.138,0,0,0,2.131-.836l-.688,2.4h2.96l-.7-2.42a3.145,3.145,0,0,0,2.161.858,3.279,3.279,0,0,0,.118-6.556Z" transform="translate(-48.596 -13.979)"/><path d="M146.939,174.1a2.96,2.96,0,0,0-.74.333,2.525,2.525,0,0,0,2.708,4.262,2.752,2.752,0,0,0,.622-.548,2.584,2.584,0,0,0,4.307-2.856,2.494,2.494,0,0,0-1.48-1.066l1.88-.555-1.243-1.946-1.31,1.48a2.531,2.531,0,0,0-.34-1.806,2.6,2.6,0,0,0-4.44,2.694Z" transform="translate(-45.775 -52.021)"/><path d="M117.857,166.956a2.538,2.538,0,1,0,.37,4.973,2.753,2.753,0,0,0,.74-.311,2.59,2.59,0,1,0,3.959-2.8l1.968.089-.548-2.22-1.724.984a2.472,2.472,0,0,0,.259-1.813,2.59,2.59,0,0,0-5.047,1.125Z" transform="translate(-37.972 -50.427)"/><path d="M159.217,140.139a2.73,2.73,0,0,0-.8.185,2.525,2.525,0,0,0,1.85,4.7,2.709,2.709,0,0,0,.74-.414,2.59,2.59,0,0,0,4.773-1.991,2.509,2.509,0,0,0-1.228-1.325l1.954-.185-.851-2.146-1.569,1.206a2.494,2.494,0,0,0,0-1.835,2.59,2.59,0,0,0-4.847,1.806Z" transform="translate(-48.843 -43.395)"/><g class="d" transform="translate(44.381 37.631)"><path d="M116.685,91.01l5.58-4.581s1.339-.932-1.9-2.679c-2.435-1.31-8.31,1.917-9.724,2.538-.673.3-2.708.118-3.441.2a3.263,3.263,0,0,1-.94,0,2.4,2.4,0,0,1-1.029-.94,1.82,1.82,0,0,1-.207,1.909c-.7,1.162-3.278,3.485-3.115,5.106.155,1.48,1.576,4.692,4.632,5.18a9.812,9.812,0,0,0,4.936-.244,6.513,6.513,0,0,1,4.721,1.228,4.743,4.743,0,0,0,2.819.9h.644l-3.182-5.772" transform="translate(-78.945 -67.227)"/><path d="M119.466,100.069h-.037l-.644-.044a5.18,5.18,0,0,1-3.152-1.043,5.991,5.991,0,0,0-4.255-1.1,3.853,3.853,0,0,0-.488.118,9.672,9.672,0,0,1-4.632.133c-3.426-.562-4.928-4.137-5.091-5.683-.141-1.376,1.184-2.96,2.22-4.233a12.322,12.322,0,0,0,.947-1.214,1.4,1.4,0,0,0,.215-1.347.548.548,0,0,1,.178-.74.533.533,0,0,1,.74.141c.429.607.666.74.74.74a2.449,2.449,0,0,0,.74,0h1.184a8.14,8.14,0,0,0,2.094-.133c.192-.081.459-.207.792-.37,2.294-1.11,7.067-3.4,9.413-2.139,1.613.866,2.42,1.695,2.464,2.523a1.258,1.258,0,0,1-.5,1.088l-5.55,4.558a.55.55,0,1,1-.7-.851l5.617-4.64a.17.17,0,0,0,.067-.163c0-.1-.148-.673-1.887-1.606s-6.616,1.295-8.406,2.161l-.873.414a7.222,7.222,0,0,1-2.546.222h-1.058a3,3,0,0,1-1.147,0,1.169,1.169,0,0,1-.252-.1,3.582,3.582,0,0,1-.363.829,13.06,13.06,0,0,1-1.043,1.354c-.881,1.051-2.087,2.494-2,3.4.155,1.428,1.524,4.277,4.174,4.714a8.717,8.717,0,0,0,4.174-.111,5.1,5.1,0,0,1,.585-.141,7.074,7.074,0,0,1,5.18,1.369,3.737,3.737,0,0,0,2.124.74L115.84,94a.548.548,0,0,1,.215-.74.555.555,0,0,1,.74.222l3.189,5.779a.548.548,0,0,1,0,.562.555.555,0,0,1-.518.244Z" transform="translate(-78.752 -67.058)"/><path d="M136.388,134.663a.548.548,0,0,1-.548-.548.555.555,0,0,1,.548-.555,27.18,27.18,0,0,0,11.292-2.575c.807-.5,3.115-2.072,3.7-3.115.777-1.347,8.073-8.177,12.388-7.9a.549.549,0,1,1-.074,1.1h-.215c-3.7,0-10.36,5.957-11.144,7.363s-3.789,3.323-4.122,3.522a27.876,27.876,0,0,1-11.84,2.723Z" transform="translate(-87.77 -76.722)"/><path d="M112.359,125.441a.555.555,0,0,1-.192,0c-6.12-2.338-10.4-8.14-10.434-14.2a7.23,7.23,0,0,0-5.5-7.178c-.873-.185-1.82-.34-2.819-.511-.74-.133-1.591-.266-2.427-.429-6.253-1.162-5.72-9.45-5.713-9.531a.555.555,0,0,1,.533-.511l4.166-.111a.555.555,0,0,1,0,1.1l-3.648.1c0,1.687.3,7.03,4.832,7.874.829.155,1.635.3,2.412.422,1.006.17,1.961.333,2.856.518a8.31,8.31,0,0,1,6.4,8.221c0,5.58,4.033,11,9.731,13.172a.548.548,0,0,1-.2,1.066Z" transform="translate(-74.619 -69.705)"/><path d="M111.758,95.011a1.3,1.3,0,0,1-1.014-.5,37.644,37.644,0,0,1-3.138-5.1.555.555,0,0,1,.969-.525,36.417,36.417,0,0,0,3.027,4.943.2.2,0,0,0,.17.081.17.17,0,0,0,.148-.1l1.11-1.968c0-.067,2.042-3.138,1.539-5.18a1.887,1.887,0,0,0-.992-1.251,6.061,6.061,0,0,0-5.572-.015,5.469,5.469,0,0,1-2.472,0,7.758,7.758,0,0,0-1.251-.1,3,3,0,0,1-1.147,0c-.836-.237-1.48-1.384-2.005-2.22l-.237-.4c-.133-.207-.281-.459-.437-.74-.488-.866-1.236-2.168-1.887-2.338-1.48-.4-3.53-.636-4-.392A23.5,23.5,0,0,0,96.2,81.277a5.809,5.809,0,0,1,1.924,2.331,7.134,7.134,0,0,0,1.2,1.746.7.7,0,0,1-.244,1.147,3.478,3.478,0,0,0-2.094,2.316,1.029,1.029,0,0,1-.481.6c-.5.289-1.85.784-5.069.74a.555.555,0,0,1,0-1.1h.215c3,0,4.048-.459,4.307-.6a4.618,4.618,0,0,1,2.22-2.753,9.894,9.894,0,0,1-1.006-1.569,4.81,4.81,0,0,0-1.584-1.961,17.108,17.108,0,0,1-2.02-2.546,1.051,1.051,0,0,1,.118-1.162c.932-1.073,4.736-.1,5.18,0,1.1.289,1.909,1.717,2.56,2.864.148.259.289.5.414.7s.155.266.252.429c.311.518.947,1.606,1.354,1.724a2.538,2.538,0,0,0,.74,0,7.4,7.4,0,0,1,1.48.1,6.66,6.66,0,0,0,1.894.081,7.148,7.148,0,0,1,6.534.148,2.96,2.96,0,0,1,1.532,1.954c.629,2.479-1.569,5.839-1.665,5.987l-1.1,1.931a1.288,1.288,0,0,1-1.021.666Zm-13.187-8.88ZM94.56,79.116Z" transform="translate(-76.097 -65.803)"/><path class="b" d="M109.687,91.573a.562.562,0,0,1-.377-.126,6.431,6.431,0,0,0-1.532-.488.549.549,0,0,1,.229-1.073,5.92,5.92,0,0,1,2.028.74.548.548,0,0,1,.052.74A.54.54,0,0,1,109.687,91.573Z" transform="translate(-80.361 -68.899)"/><path d="M89.434,93.7,86,93.8s.289,3.323.3,3.382a6.66,6.66,0,0,0,3.13-3.478Z" transform="translate(-74.811 -69.894)"/><path d="M86.13,97.543a.533.533,0,0,1-.259-.059.555.555,0,0,1-.289-.4s0-.074-.3-3.426a.54.54,0,0,1,.141-.414.562.562,0,0,1,.392-.185L89.231,93a.518.518,0,0,1,.459.229.555.555,0,0,1,.074.5,7.089,7.089,0,0,1-3.4,3.789.518.518,0,0,1-.229.022Zm.3-3.4c.052.525.118,1.31.17,1.917a6.209,6.209,0,0,0,1.783-1.968Z" transform="translate(-74.623 -69.712)"/><path d="M103.742,83.087s.651.118-1.954,1.354c-.644.311-1.82,1.058-2.287,1.354a10.915,10.915,0,0,0-2.013,1.724,4.063,4.063,0,0,1,2.479-2.827.148.148,0,0,0,.044-.244c-1.369-1.362-4.144-1.347-4.832-3.2s-.511-6.186,2.22-7.985c.881-.585,1.48,1.11,1.739,1.732a17.589,17.589,0,0,0,1.547,3.419c1.021,1.547,1.717,3.389,3.064,4.669" transform="translate(-77.11 -64.55)"/><path d="M97.3,87.877a.592.592,0,0,1-.266-.067.562.562,0,0,1-.259-.644,4.78,4.78,0,0,1,2.22-2.9,9.375,9.375,0,0,0-1.547-.74c-1.214-.481-2.464-.984-2.96-2.287-.74-2.028-.585-6.66,2.42-8.643a1.147,1.147,0,0,1,1.006-.155c.74.237,1.177,1.147,1.539,2.109l.229.6a13.453,13.453,0,0,0,1.28,2.76c.363.54.681,1.125.992,1.68a12.084,12.084,0,0,0,1.924,2.834.614.614,0,0,1,.3.451c.067.474-.266.881-2.331,1.865a23.856,23.856,0,0,0-2.22,1.317,10.36,10.36,0,0,0-1.9,1.628.54.54,0,0,1-.429.192ZM97.56,73.5c-2.509,1.65-2.664,5.72-2.057,7.4.318.844,1.251,1.221,2.324,1.65a6.993,6.993,0,0,1,2.39,1.347.74.74,0,0,1,.2.407c.348-.2.688-.392.947-.518a13.735,13.735,0,0,0,1.48-.792,14.193,14.193,0,0,1-1.872-2.827c-.318-.562-.607-1.1-.947-1.606a14.518,14.518,0,0,1-1.391-2.96l-.207-.54C97.893,73.581,97.612,73.507,97.56,73.5ZM99.6,83.941Zm3.863-.54Z" transform="translate(-76.922 -64.353)"/><path class="b" d="M106.016,95.211a.548.548,0,0,1-.363-.962,2.664,2.664,0,0,1,1.754-.377.555.555,0,0,1,.5.592.562.562,0,0,1-.592.5,2.035,2.035,0,0,0-.94.111A.562.562,0,0,1,106.016,95.211Z" transform="translate(-79.872 -69.933)"/><path d="M193.021,113.4c-4.44,0-10.471-2-12.21-3.826-1.909-2.013-4.07-1.436-6.571-.74l-.518.141a17.826,17.826,0,0,1-7.518,0c-4.743-.821-8.31-6.135-8.458-6.364a.55.55,0,1,1,.918-.607c.037.052,3.456,5.18,7.726,5.92a17.1,17.1,0,0,0,7.052,0l.518-.141c2.6-.7,5.291-1.421,7.652,1.066,1.968,2.079,10.885,4.558,14.363,3,2.013-.9,2.264-1.569,2.279-1.82,0-.392-.414-.866-1.221-1.332l-.437-.259c-1.265-.74-1.695-1.014-5.269-1.125s-4.211-.888-5.017-2.494c-.118-.229-.244-.481-.392-.74-1.191-2.124-2.22-3.175-4.359-2.694a3.878,3.878,0,0,1-3.36-.866,6.941,6.941,0,0,1-1.532-1.783c-.229-.3-.244-.74-.215-1.732v-.451a22.473,22.473,0,0,0-.94-4.766c-1.147-3.626-3.271-6.223-5.979-7.319a.555.555,0,0,1-.311-.74.562.562,0,0,1,.74-.326,13.645,13.645,0,0,0,10.708-.5,11,11,0,0,0,5.513-7.023c.888-3.145-1.288-6.919-3.7-9.154a12.41,12.41,0,0,1,.851,6.882c-.562,2.708-2.331,3.619-4.766,4.618a19.314,19.314,0,0,1-9.872.74c-2.057-.4-9.516-1.073-18.922,7.1-8.362,7.252-10.745,8.044-14.548,8.88-3.293.74-8.969,1.717-9.96-.089a.548.548,0,0,1,.215-.74.562.562,0,0,1,.74.222c.363.659,3.737.666,8.747-.466,3.633-.814,5.92-1.576,14.06-8.658,9.783-8.5,17.678-7.77,19.861-7.341a18.026,18.026,0,0,0,9.243-.74c2.22-.918,3.648-1.635,4.1-3.818a11.248,11.248,0,0,0-1.946-8.244.548.548,0,0,1,0-.7.555.555,0,0,1,.681-.141c3.426,1.776,7.578,7.289,6.275,11.84a12.084,12.084,0,0,1-6.09,7.659,13.993,13.993,0,0,1-8.347,1.332,13.9,13.9,0,0,1,3.767,6.2,23.681,23.681,0,0,1,.984,4.995,4.968,4.968,0,0,1,0,.585,6.3,6.3,0,0,0,0,1.08h0c0,.067,1.48,2.671,3.7,2.176,3.078-.74,4.484,1.295,5.565,3.226.155.289.3.555.414.8.651,1.295.9,1.783,4.07,1.88,3.7.118,4.329.4,5.794,1.28l.429.252c1.214.74,1.806,1.48,1.761,2.346-.052,1.014-1.014,1.917-2.96,2.768a8.488,8.488,0,0,1-3.308.74ZM177.532,98.019Z" transform="translate(-85.003 -62.218)"/><path d="M212.15,115.065a21.9,21.9,0,0,1-9.346-2.6.549.549,0,1,1,.5-.977c3.841,1.968,9.087,3.448,12.306,1.717a3.056,3.056,0,0,0,1.576-1.48.629.629,0,0,0-.111-.54,5.291,5.291,0,0,0-2.96-2.131,9.827,9.827,0,0,0-2.338,0,8.984,8.984,0,0,1-3.071-.155,3.478,3.478,0,0,1-2.131-1.82c-.141-.215-.289-.444-.466-.673a6.135,6.135,0,0,0-3.189-2.1c-2.916-.74-4.847-.459-8.281.178a.549.549,0,1,1-.2-1.08c3.493-.651,5.617-.977,8.754-.163a7.311,7.311,0,0,1,3.8,2.5c.192.259.355.511.511.74a2.442,2.442,0,0,0,1.524,1.339,8.207,8.207,0,0,0,2.708.111,11.322,11.322,0,0,1,2.6.044,6.379,6.379,0,0,1,3.7,2.612,1.724,1.724,0,0,1,.259,1.421,4.032,4.032,0,0,1-2.124,2.168,8.34,8.34,0,0,1-4.018.888Z" transform="translate(-102.89 -72.249)"/><path d="M104.372,153.135a2.865,2.865,0,0,1-.511,0,2.4,2.4,0,0,1-2.272-2.176,11.1,11.1,0,0,1,1.029-4.551c.155-.4.311-.807.466-1.243.533-1.524,3.7-3.271,7.829-5.387,1.125-.585,2.22-1.132,2.9-1.561,2.5-1.48,5.01-7.474,5.032-7.533a.555.555,0,1,1,1.021.422c-.111.259-2.679,6.379-5.491,8.059-.74.444-1.82,1-2.96,1.591-2.731,1.413-6.86,3.545-7.3,4.773-.155.444-.318.866-.474,1.273a10.1,10.1,0,0,0-.955,4.129c0,.644.681,1.029,1.325,1.117a2.96,2.96,0,0,0,3.152-2.279c1.3-4.055,6.1-5.757,7.837-6.075,3.315-.6,7.6-1.621,8.754-2.5,1.48-1.1,4.773-6.2,4.84-10.464a.548.548,0,0,1,1.1,0c-.059,4.507-3.493,9.975-5.261,11.322-1.65,1.265-7.481,2.4-9.235,2.716-1.48.259-5.853,1.806-6.978,5.328a4.063,4.063,0,0,1-3.848,3.041Z" transform="translate(-78.865 -79.379)"/><path d="M87.831,146.827a2.575,2.575,0,0,1-2.116-1.48,5.728,5.728,0,0,1,.377-6.438,6.934,6.934,0,0,1,2.827-2.176,170.851,170.851,0,0,0,16.532-7.615.555.555,0,0,1,.74.229.54.54,0,0,1-.222.74,173.743,173.743,0,0,1-16.628,7.674,5.816,5.816,0,0,0-2.383,1.835,4.6,4.6,0,0,0-.3,5.18c.385.629.784.947,1.177.947h0c.385,0,1.2-.326,2.42-2.42a8.358,8.358,0,0,1,4.573-3.434l1.547-.614a32.056,32.056,0,0,1,5.18-1.776l1.524-.3c2.738-.488,6.49-1.169,7.541-3.7a.549.549,0,0,1,1.014.422c-1.273,3.071-5.372,3.811-8.355,4.351-.54.1-1.043.185-1.48.289a30.841,30.841,0,0,0-5.017,1.709c-.518.215-1.043.429-1.561.629a7.358,7.358,0,0,0-4.018,2.96c-1.154,1.983-2.257,2.96-3.36,2.96Z" transform="translate(-74.525 -79.088)"/><path class="e" d="M128,104.88s3.656-4.662,10.034-.118C138,104.761,132.048,110.133,128,104.88Z" transform="translate(-85.731 -72.253)"/><path class="e" d="M130.744,89s-5.284,2.361-3,10.131C127.739,99.153,134.318,94.683,130.744,89Z" transform="translate(-85.515 -68.672)"/><path d="M126.949,100.616l-.3-.7c-2.96-6.993,1.732-10.034,1.783-10.064l.407-.259.311.377c4.055,4.943-1.569,10.086-1.628,10.138Zm1.665-9.524c-.9.792-2.864,3.145-1.258,7.607C128.5,97.427,130.783,94.252,128.614,91.092Z" transform="translate(-85.125 -68.826)"/><path class="e" d="M123.053,104.936c-.673-3.086-5.084.363-6.046,1.066-2.8,2.02-5.587,4.033-8.473,5.92-.9.585-1.939.829-2.316,2.05-.444,1.48.829,3.589,2.176,2.664,3.567-2.442,7.319-4.677,10.752-7.4C120.241,108.481,123.5,106.875,123.053,104.936Z" transform="translate(-80.045 -72.487)"/><path d="M108.451,114.9a1.48,1.48,0,0,1-.947-.34,2.486,2.486,0,0,1-.74-2.686,3.219,3.219,0,0,1,1.732-1.709c.185-.1.37-.2.548-.318,2.6-1.68,5.18-3.515,7.481-5.136l.163-.118c1.635-1.177,3.7-2.457,4.973-1.939a1.613,1.613,0,0,1,.962,1.295h0c.311,1.643-1.746,2.96-3.1,3.811l-.644.422c-2.035,1.547-4.218,2.96-6.334,4.322-1.066.7-2.139,1.384-3.189,2.094a1.665,1.665,0,0,1-.9.3Zm12.513-11.278c-.533,0-1.584.385-3.633,1.857l-.17.118c-2.3,1.628-4.906,3.478-7.518,5.18-.2.133-.407.244-.614.363-.57.311-1.021.555-1.236,1.125a1.391,1.391,0,0,0,.363,1.436.451.451,0,0,0,.585,0c1.058-.74,2.131-1.413,3.2-2.109,2.1-1.354,4.27-2.753,6.283-4.285a8.545,8.545,0,0,1,.74-.466c.969-.614,2.782-1.769,2.612-2.671h0c-.074-.392-.237-.459-.3-.481A.74.74,0,0,0,120.964,103.618Z" transform="translate(-80.176 -72.19)"/><path d="M131.078,105.849h-.466a5.417,5.417,0,0,1-3.863-2.22l-.259-.34.266-.333c.037-.044,3.7-4.536,9.724-.215l.555.392-.5.466C136.421,103.636,133.934,105.849,131.078,105.849Zm-3.16-2.6a4.188,4.188,0,0,0,2.79,1.48,7.153,7.153,0,0,0,4.514-1.561C131.256,100.676,128.747,102.445,127.918,103.251Z" transform="translate(-85.339 -71.757)"/><path d="M141.51,99.412s8.3,5.076,13.194,3.448c6.86-2.279,10.619-5,12.136-6.394,2.383-2.22,4.166-10.36-3.36-10.8,0,0-1.48.067-9.857,5.624C150.819,93.151,145.854,97.4,141.51,99.412Z" transform="translate(-89.244 -67.807)"/><path d="M152.311,103.546c-4.928,0-10.989-3.7-11.285-3.855a.548.548,0,0,1-.266-.5.57.57,0,0,1,.326-.474,54.516,54.516,0,0,0,8.88-5.809c1.214-.91,2.257-1.687,3.13-2.264,8.14-5.372,9.879-5.705,10.145-5.72,3.7.222,5.084,2.1,5.631,3.641A8.607,8.607,0,0,1,167,96.7c-1.236,1.14-4.914,4.048-12.336,6.512A7.563,7.563,0,0,1,152.311,103.546ZM142.5,99.254c2.22,1.214,8.14,4.114,11.84,2.886,7.222-2.4,10.76-5.18,11.944-6.275a7.459,7.459,0,0,0,1.576-6.934c-.629-1.761-2.153-2.738-4.536-2.893-.266.059-2.22.644-9.62,5.528-.844.555-1.88,1.332-3.078,2.22A64.973,64.973,0,0,1,142.5,99.254Z" transform="translate(-89.049 -67.612)"/></g></svg>