<svg xmlns="http://www.w3.org/2000/svg" xmlns:xlink="http://www.w3.org/1999/xlink" width="128" height="200" viewBox="0 0 128 200"><defs><style>.a{fill:none;}.b{fill:#fff;}.c{fill:#170000;}.d{clip-path:url(#a);}.e{fill:#c21823;}</style><clipPath id="a"><rect class="a" width="107.771" height="95.067"/></clipPath></defs><g transform="translate(419.6 307.147)"><g transform="translate(-419.6 -307.147)"><rect class="b" width="125.04" height="197.039" transform="translate(1.48 1.48)"/><path d="M-291.6-107.147h-128v-200h128Zm-125.04-2.966h122.081V-304.181H-416.64Z" transform="translate(419.6 307.147)"/></g><g transform="translate(-419.6 -307.147)"><path d="M-291.6-107.147h-128v-200h128Zm-125.04-2.966h122.081V-304.181H-416.64Z" transform="translate(419.6 307.147)"/></g><g transform="translate(-408.034 -296.178)"><path class="c" d="M-402.293-280.933q.8-1.753,1.538-3.528t2.057-5.027l.7-1.752-4.4.059-.625,1.975-.95-.178.312-2.942h6.772l.312.4q-.728,2.036-2.035,5.711t-2.02,5.726Z" transform="translate(403.971 292.325)"/></g><g transform="translate(-320.396 -188.913)"><path d="M-283.554-143.858a2.617,2.617,0,0,0-.751.329,2.559,2.559,0,0,0-.825,3.519,2.559,2.559,0,0,0,3.537.742,2.62,2.62,0,0,0,.616-.542,2.561,2.561,0,0,0,3.483.661,2.558,2.558,0,0,0,.825-3.519,2.485,2.485,0,0,0-1.459-1.065l1.883-.554-1.242-1.951-1.313,1.487a2.487,2.487,0,0,0-.343-1.8,2.559,2.559,0,0,0-3.537-.742A2.562,2.562,0,0,0-283.554-143.858Z" transform="translate(285.517 147.706)"/></g><g transform="translate(-349.494 -173.758)"><path d="M-322.883-123.421a2.634,2.634,0,0,0-.752.329,2.559,2.559,0,0,0-.824,3.519,2.559,2.559,0,0,0,3.537.742,2.6,2.6,0,0,0,.615-.542,2.562,2.562,0,0,0,3.484.662,2.559,2.559,0,0,0,.824-3.519,2.479,2.479,0,0,0-1.459-1.065l1.884-.555-1.242-1.951-1.314,1.487a2.484,2.484,0,0,0-.342-1.8,2.559,2.559,0,0,0-3.537-.742A2.561,2.561,0,0,0-322.883-123.421Z" transform="translate(324.846 127.268)"/></g><g transform="translate(-385.657 -177.338)"><path d="M-372.009-128.026a2.616,2.616,0,0,0-.715.4,2.558,2.558,0,0,0-.468,3.584,2.559,2.559,0,0,0,3.594.384,2.636,2.636,0,0,0,.558-.6,2.562,2.562,0,0,0,3.532.309,2.559,2.559,0,0,0,.469-3.584,2.488,2.488,0,0,0-1.559-.914l1.819-.74L-366.21-131l-1.158,1.612a2.485,2.485,0,0,0-.521-1.758,2.559,2.559,0,0,0-3.594-.384A2.561,2.561,0,0,0-372.009-128.026Z" transform="translate(373.723 132.096)"/></g><g transform="translate(-342.519 -193.688)"><path d="M-312.615-151.1a2.611,2.611,0,0,0-.817.068,2.558,2.558,0,0,0-1.917,3.064,2.558,2.558,0,0,0,3.108,1.844,2.624,2.624,0,0,0,.757-.314,2.563,2.563,0,0,0,3.084,1.751,2.56,2.56,0,0,0,1.917-3.064,2.483,2.483,0,0,0-1.037-1.479l1.962.083-.545-2.247-1.724.984a2.481,2.481,0,0,0,.258-1.815,2.56,2.56,0,0,0-3.109-1.845A2.563,2.563,0,0,0-312.615-151.1Z" transform="translate(315.419 154.146)"/></g><g transform="translate(-311.676 -213.794)"><path d="M-271.277-177.867a2.621,2.621,0,0,0-.8.179,2.559,2.559,0,0,0-1.479,3.3,2.559,2.559,0,0,0,3.332,1.4,2.62,2.62,0,0,0,.707-.415,2.563,2.563,0,0,0,3.295,1.312,2.56,2.56,0,0,0,1.479-3.3,2.483,2.483,0,0,0-1.23-1.322l1.955-.186-.848-2.151-1.572,1.211a2.489,2.489,0,0,0,.007-1.833,2.56,2.56,0,0,0-3.332-1.4A2.562,2.562,0,0,0-271.277-177.867Z" transform="translate(273.729 181.259)"/></g><g transform="translate(-363.307 -179.674)"><path d="M-340.145-132.793a2.616,2.616,0,0,0-.811-.118,2.559,2.559,0,0,0-2.559,2.552,2.559,2.559,0,0,0,2.612,2.5,2.608,2.608,0,0,0,.809-.135,2.562,2.562,0,0,0,2.609,2.4,2.559,2.559,0,0,0,2.559-2.552,2.483,2.483,0,0,0-.676-1.675l1.892.524-.024-2.312-1.9.569a2.486,2.486,0,0,0,.661-1.71,2.56,2.56,0,0,0-2.612-2.5A2.562,2.562,0,0,0-340.145-132.793Z" transform="translate(343.515 135.248)"/></g><g transform="translate(-305.075 -203.56)"><path d="M-263.007-161.563a2.624,2.624,0,0,0-.321.754,2.559,2.559,0,0,0,1.814,3.127,2.559,2.559,0,0,0,3.082-1.887,2.61,2.61,0,0,0,.076-.816,2.563,2.563,0,0,0,2.988-1.909,2.558,2.558,0,0,0-1.814-3.126,2.483,2.483,0,0,0-1.792.226l.99-1.7-2.242-.567.065,1.983a2.484,2.484,0,0,0-1.484-1.076,2.56,2.56,0,0,0-3.083,1.887A2.563,2.563,0,0,0-263.007-161.563Z" transform="translate(264.808 167.458)"/></g><g transform="translate(-400.674 -278.695)"><g class="d"><g transform="translate(5.242 11.917)"><g transform="translate(11.808 19.747)"><path d="M-355.695-217.371l5.03-5.179s1.225-1.075-2.193-2.45c-2.564-1.03-8.039,2.835-9.375,3.611-.638.37-2.676.425-3.394.585a2.973,2.973,0,0,1-.932.105,2.316,2.316,0,0,1-1.128-.819,1.841,1.841,0,0,1,.007,1.927c-.565,1.23-2.87,3.825-2.52,5.421.317,1.447,2.092,4.486,5.18,4.643a9.759,9.759,0,0,0,4.88-.8,6.522,6.522,0,0,1,4.827.7,4.733,4.733,0,0,0,2.9.576l.644-.029-3.812-5.385" transform="translate(370.787 225.72)"/><path d="M-353.189-208.681a4.513,4.513,0,0,1-2.641-.7,6.012,6.012,0,0,0-4.348-.612c-.148.043-.3.1-.471.171a9.669,9.669,0,0,1-4.591.651c-3.465-.175-5.359-3.558-5.692-5.075-.3-1.351.841-3.07,1.754-4.454a12.266,12.266,0,0,0,.8-1.316,1.368,1.368,0,0,0,.058-1.359.559.559,0,0,1,.094-.76.546.546,0,0,1,.752.055c.495.555.743.633.807.643a2.435,2.435,0,0,0,.721-.1c.28-.062.69-.105,1.167-.155a8.312,8.312,0,0,0,2.072-.369c.178-.1.432-.263.744-.46,2.154-1.357,6.64-4.183,9.112-3.184,1.7.682,2.594,1.414,2.734,2.236a1.263,1.263,0,0,1-.382,1.137l-5,5.149a.551.551,0,0,1-.779.012.551.551,0,0,1-.012-.779l5.03-5.179a.168.168,0,0,0,.053-.166c-.023-.1-.229-.653-2.056-1.389-1.953-.779-6.429,2.034-8.115,3.1-.326.2-.591.373-.778.48a7.332,7.332,0,0,1-2.509.511c-.424.044-.824.087-1.041.135a3,3,0,0,1-1.142.111,1.452,1.452,0,0,1-.265-.072,3.247,3.247,0,0,1-.266.865,12.5,12.5,0,0,1-.886,1.465c-.757,1.145-1.793,2.714-1.6,3.61.307,1.4,1.992,4.075,4.67,4.211a8.674,8.674,0,0,0,4.133-.577c.206-.081.388-.152.565-.2a7.024,7.024,0,0,1,5.3.778,3.742,3.742,0,0,0,2.191.485l-3.226-4.559a.55.55,0,0,1,.132-.767.55.55,0,0,1,.767.132l3.811,5.385a.551.551,0,0,1,.046.56.552.552,0,0,1-.471.309l-.644.029C-352.745-208.691-352.953-208.681-353.189-208.681Z" transform="translate(370.98 225.912)"/></g><g transform="translate(40.929 43.138)"><path d="M-331.07-176.621a.55.55,0,0,1-.547-.488.55.55,0,0,1,.485-.609,27.311,27.311,0,0,0,10.926-3.829c.743-.586,2.861-2.41,3.335-3.509.616-1.43,7.074-9.052,11.423-9.249a.572.572,0,0,1,.576.526.551.551,0,0,1-.526.575c-3.628.164-9.8,7.061-10.461,8.584-.67,1.553-3.392,3.721-3.7,3.963a27.948,27.948,0,0,1-11.449,4.032A.435.435,0,0,1-331.07-176.621Z" transform="translate(331.62 194.305)"/></g><g transform="translate(0 30.056)"><path d="M-356.517-182.185a.518.518,0,0,1-.138-.018c-6.336-1.634-11.254-6.954-11.959-12.938a7.22,7.22,0,0,0-6.265-6.518c-.893-.08-1.851-.132-2.865-.189-.789-.043-1.608-.089-2.456-.15-6.339-.46-6.737-8.749-6.741-8.833a.551.551,0,0,1,.474-.568l4.122-.578a.552.552,0,0,1,.622.469.552.552,0,0,1-.469.622l-3.61.506c.172,1.674,1.082,6.949,5.681,7.283.841.061,1.654.105,2.437.148,1.024.056,1.99.11,2.9.192a8.322,8.322,0,0,1,7.259,7.486c.653,5.541,5.234,10.477,11.14,12a.551.551,0,0,1,.4.67A.551.551,0,0,1-356.517-182.185Z" transform="translate(386.941 211.982)"/></g><g transform="translate(4.122 18.544)"><path d="M-360.186-212.327a1.307,1.307,0,0,1-.926-.391,38.017,38.017,0,0,1-3.687-4.721.55.55,0,0,1,.138-.767.551.551,0,0,1,.767.138,35.71,35.71,0,0,0,3.564,4.574.181.181,0,0,0,.174.063.187.187,0,0,0,.135-.119l.883-2.083c.033-.067,1.68-3.343.951-5.285a1.886,1.886,0,0,0-1.125-1.131,6.085,6.085,0,0,0-5.54.521,5.363,5.363,0,0,1-2.456.277,7.9,7.9,0,0,0-1.253.038,2.977,2.977,0,0,1-1.142.111c-.857-.141-1.658-1.211-2.243-1.992-.106-.141-.2-.266-.28-.367-.155-.193-.329-.43-.516-.687-.586-.8-1.472-2.019-2.137-2.118-1.5-.223-3.577-.23-4.021.064l.016.027a23.7,23.7,0,0,0,1.864,1.885,5.78,5.78,0,0,1,2.169,2.1,7.115,7.115,0,0,0,1.392,1.6.694.694,0,0,1,.26.625.679.679,0,0,1-.381.543,3.487,3.487,0,0,0-1.814,2.539,1.073,1.073,0,0,1-.415.65c-.47.342-1.74.969-4.95,1.308a.549.549,0,0,1-.606-.49.55.55,0,0,1,.49-.605c3.15-.333,4.179-.93,4.42-1.1a4.649,4.649,0,0,1,1.877-2.983,9.819,9.819,0,0,1-1.173-1.442,4.806,4.806,0,0,0-1.8-1.772,17.012,17.012,0,0,1-2.293-2.3,1.042,1.042,0,0,1-.009-1.162c.8-1.171,4.694-.63,5.135-.564,1.122.166,2.089,1.493,2.865,2.559.176.241.339.463.485.646.087.107.189.244.3.4.364.486,1.121,1.5,1.54,1.566a2.384,2.384,0,0,0,.723-.1,7.757,7.757,0,0,1,1.506-.065,6.726,6.726,0,0,0,1.891-.127,7.125,7.125,0,0,1,6.5-.589,2.966,2.966,0,0,1,1.747,1.766c.9,2.4-.909,5.985-.985,6.136l-.866,2.048a1.3,1.3,0,0,1-.942.771A1.289,1.289,0,0,1-360.186-212.327Zm-13.96-7.4h0Zm-4.774-6.523Z" transform="translate(381.369 227.538)"/></g><g transform="translate(15.967 26.434)"><path class="b" d="M-362.972-215.373a.546.546,0,0,1-.314-.1,6.408,6.408,0,0,0-1.578-.308.552.552,0,0,1-.493-.6.551.551,0,0,1,.6-.494,5.983,5.983,0,0,1,2.1.5.551.551,0,0,1,.138.767A.551.551,0,0,1-362.972-215.373Z" transform="translate(365.36 216.877)"/></g><g transform="translate(0 30.16)"><path d="M-382.815-211.1l-3.381.474s.66,3.276.676,3.33A6.6,6.6,0,0,0-382.815-211.1Z" transform="translate(386.746 211.648)"/><path d="M-385.715-206.935a.547.547,0,0,1-.2-.038.55.55,0,0,1-.328-.366c-.007-.024-.021-.074-.684-3.369a.55.55,0,0,1,.09-.428.55.55,0,0,1,.373-.227l3.38-.474a.544.544,0,0,1,.483.174.548.548,0,0,1,.129.5,7.124,7.124,0,0,1-2.954,4.149A.556.556,0,0,1-385.715-206.935Zm-.019-3.417c.105.52.26,1.292.381,1.886a6.137,6.137,0,0,0,1.551-2.156Z" transform="translate(386.94 211.842)"/></g><g transform="translate(5.354 14.364)"><path d="M-369.586-223.23s.659.041-1.79,1.568c-.6.374-1.687,1.248-2.115,1.6a10.678,10.678,0,0,0-1.807,1.943,4.083,4.083,0,0,1,2.144-3.093.146.146,0,0,0,.019-.244c-1.516-1.2-4.275-.875-5.166-2.637-.883-1.746-1.2-6.088,1.3-8.183.811-.679,1.62.941,1.927,1.529a17.222,17.222,0,0,0,1.921,3.226c1.189,1.418,2.083,3.173,3.565,4.3" transform="translate(379.507 232.994)"/><path d="M-375.495-217.765a.547.547,0,0,1-.21-.042.549.549,0,0,1-.332-.606,4.787,4.787,0,0,1,1.848-3.129,9.2,9.2,0,0,0-1.617-.551c-1.256-.347-2.555-.706-3.183-1.949-.975-1.928-1.329-6.536,1.441-8.854a1.143,1.143,0,0,1,.98-.27c.855.17,1.445,1.305,1.762,1.914l.3.576a13.556,13.556,0,0,0,1.584,2.6c.417.5.8,1.038,1.17,1.559a11.933,11.933,0,0,0,2.232,2.6.625.625,0,0,1,.352.417c.118.467-.168.9-2.111,2.114-.588.366-1.724,1.285-2.058,1.559a10.2,10.2,0,0,0-1.7,1.829A.55.55,0,0,1-375.495-217.765Zm-1.293-14.321c-2.31,1.925-2.007,5.988-1.219,7.548.408.807,1.375,1.074,2.493,1.383a6.919,6.919,0,0,1,2.524,1.071.7.7,0,0,1,.246.382c.321-.243.637-.469.88-.621a13.983,13.983,0,0,0,1.388-.953,14.329,14.329,0,0,1-2.177-2.6c-.374-.527-.727-1.024-1.116-1.489a14.554,14.554,0,0,1-1.72-2.808l-.267-.517C-376.446-232.014-376.737-232.084-376.788-232.086Zm6.969,9.212h0Z" transform="translate(379.704 233.187)"/></g><g transform="translate(14.934 29.393)"><path class="b" d="M-366.2-211.388a.542.542,0,0,1-.374-.146.546.546,0,0,1-.035-.77,2.634,2.634,0,0,1,1.7-.574h.014a.549.549,0,0,1,.55.534.551.551,0,0,1-.533.567,1.966,1.966,0,0,0-.921.216A.56.56,0,0,1-366.2-211.388Z" transform="translate(366.756 212.878)"/></g><g transform="translate(30.278)"><path d="M-278.56-205.056c-4.115,0-8.858-1.157-10.505-2.545-2.116-1.781-4.2-.966-6.61-.018l-.5.2a17.85,17.85,0,0,1-7.469.847c-4.8-.284-8.94-5.168-9.115-5.376a.55.55,0,0,1,.07-.776.549.549,0,0,1,.776.069c.039.047,4.009,4.727,8.334,4.983a16.894,16.894,0,0,0,7.006-.776l.5-.195c2.51-.987,5.1-2.005,7.723.2,2.188,1.844,11.331,3.307,14.611,1.376,1.9-1.117,2.069-1.818,2.055-2.068-.022-.389-.505-.811-1.359-1.189l-.465-.208c-1.341-.61-1.793-.816-5.357-.525-3.658.3-4.289-.411-5.266-1.914-.141-.216-.294-.451-.476-.7-1.419-1.971-2.576-2.907-4.628-2.187-2.822.986-4.958-1.795-5.2-2.12a3.142,3.142,0,0,1-.371-1.662c-.016-.2-.027-.364-.045-.448a22.611,22.611,0,0,0-1.465-4.629c-1.552-3.474-3.953-5.817-6.76-6.6a.552.552,0,0,1-.387-.665.551.551,0,0,1,.655-.4,13.639,13.639,0,0,0,10.587-1.7,11.018,11.018,0,0,0,4.722-7.56c.53-3.224-2.056-6.736-4.734-8.684a12.422,12.422,0,0,1,1.617,6.748c-.256,2.753-1.908,3.859-4.214,5.12a19.2,19.2,0,0,1-9.719,1.874c-2.1-.166-9.58.006-18.01,9.175-7.494,8.151-9.767,9.2-13.454,10.48-3.187,1.107-8.713,2.714-9.9,1.035a.55.55,0,0,1,.13-.768.55.55,0,0,1,.768.13c.437.619,3.791.248,8.643-1.438,3.514-1.221,5.689-2.229,13-10.185,8.767-9.536,16.693-9.7,18.907-9.528a17.993,17.993,0,0,0,9.1-1.741c2.13-1.166,3.439-2.033,3.645-4.255a11.281,11.281,0,0,0-2.857-7.974.55.55,0,0,1-.074-.689.551.551,0,0,1,.66-.215c3.605,1.381,8.347,6.389,7.571,11.1a12.094,12.094,0,0,1-5.192,8.3,14.064,14.064,0,0,1-8.144,2.262,13.949,13.949,0,0,1,4.438,5.736,23.7,23.7,0,0,1,1.539,4.857c.022.109.043.325.064.58a6.673,6.673,0,0,0,.141,1.075l.012.016c.073.1,1.791,2.5,3.951,1.741,2.97-1.034,4.595.79,5.886,2.583.193.269.354.517.5.746.793,1.219,1.09,1.675,4.253,1.416,3.676-.3,4.342-.087,5.9.619l.453.2c1.288.568,1.966,1.285,2.015,2.132.058,1.011-.791,2.018-2.6,3.081A11.138,11.138,0,0,1-278.56-205.056Zm-15.052-13.656h0Z" transform="translate(346.016 252.596)"/></g><g transform="translate(80.785 28.075)"><path d="M-259.991-203.674a23.713,23.713,0,0,1-8.03-1.61.551.551,0,0,1-.321-.71.551.551,0,0,1,.709-.32c4.036,1.524,9.418,2.41,12.417.326a3.074,3.074,0,0,0,1.4-1.636.646.646,0,0,0-.172-.53,5.291,5.291,0,0,0-3.171-1.783,9.89,9.89,0,0,0-2.325.232,9.182,9.182,0,0,1-3.069.191,3.49,3.49,0,0,1-2.344-1.543c-.162-.2-.335-.409-.538-.622a6.158,6.158,0,0,0-3.406-1.727c-2.982-.425-4.862.087-8.2,1.1a.548.548,0,0,1-.687-.366.55.55,0,0,1,.366-.687c3.4-1.035,5.473-1.6,8.678-1.143a7.337,7.337,0,0,1,4.05,2.06c.223.235.412.464.59.681a2.47,2.47,0,0,0,1.666,1.156,8.215,8.215,0,0,0,2.7-.188,10.849,10.849,0,0,1,2.588-.247,6.356,6.356,0,0,1,3.948,2.179,1.753,1.753,0,0,1,.418,1.381,4.046,4.046,0,0,1-1.867,2.394A9.429,9.429,0,0,1-259.991-203.674Z" transform="translate(277.751 214.659)"/></g><g transform="translate(17.26 53.497)"><path d="M-360.933-154.654h-.1a2.4,2.4,0,0,1-2.5-1.907,11.057,11.057,0,0,1,.51-4.643c.108-.414.22-.838.322-1.284.357-1.576,3.328-3.666,7.174-6.236,1.054-.7,2.049-1.369,2.709-1.872,2.316-1.769,4.138-8,4.156-8.058a.549.549,0,0,1,.682-.376.551.551,0,0,1,.376.682c-.079.271-1.943,6.641-4.546,8.628-.685.523-1.7,1.2-2.764,1.912-2.558,1.708-6.423,4.29-6.712,5.563-.1.458-.218.894-.33,1.319a10.074,10.074,0,0,0-.486,4.206c.093.64.791.945,1.44.963a2.944,2.944,0,0,0,2.877-2.616c.84-4.176,5.414-6.409,7.1-6.916,3.228-.972,7.37-2.463,8.42-3.47,1.313-1.26,4.044-6.7,3.628-10.944a.551.551,0,0,1,.495-.6.557.557,0,0,1,.6.5c.44,4.488-2.354,10.3-3.962,11.846-1.5,1.436-7.165,3.218-8.866,3.73-1.414.424-5.613,2.452-6.342,6.078A4.021,4.021,0,0,1-360.933-154.654Z" transform="translate(363.611 180.307)"/></g><g transform="translate(4.113 54.852)"><path d="M-378.154-158.8a2.69,2.69,0,0,1-2.051-1.234,5.731,5.731,0,0,1-.348-6.443,6.931,6.931,0,0,1,2.567-2.478,173.472,173.472,0,0,0,15.57-9.419.55.55,0,0,1,.767.138.551.551,0,0,1-.138.767,174.214,174.214,0,0,1-15.667,9.481,5.839,5.839,0,0,0-2.16,2.091,4.612,4.612,0,0,0,.277,5.184c.461.585.9.858,1.285.807s1.156-.458,2.132-2.672a8.314,8.314,0,0,1,4.156-3.924c.493-.259.983-.525,1.472-.793a32.1,32.1,0,0,1,4.958-2.342c.442-.15.945-.3,1.481-.462,2.667-.8,6.319-1.893,7.078-4.511a.546.546,0,0,1,.681-.376.55.55,0,0,1,.376.682c-.926,3.194-4.91,4.388-7.819,5.26-.523.156-1.013.3-1.443.45a31.211,31.211,0,0,0-4.785,2.266c-.495.269-.99.54-1.489.8a7.349,7.349,0,0,0-3.659,3.395c-.924,2.1-1.906,3.181-3,3.32A1.839,1.839,0,0,1-378.154-158.8Z" transform="translate(381.381 178.475)"/></g><g transform="translate(32.354 33.715)"><path class="e" d="M-343.211-204.374s3.112-5.048,9.957-1.245C-333.254-205.619-338.56-199.611-343.211-204.374Z" transform="translate(343.211 207.038)"/></g><g transform="translate(31.069 23.841)"><path class="e" d="M-342.064-220.381s-4.981,2.936-1.85,10.4C-343.914-209.976-337.878-215.159-342.064-220.381Z" transform="translate(344.948 220.381)"/></g><g transform="translate(29.947 24.426)"><path d="M-344.555-208.424l-.38-.668c-3.763-6.607.6-10.164.64-10.2l.38-.3.347.337c4.583,4.459-.425,10.2-.477,10.255Zm.585-9.651c-.8.889-2.49,3.448-.4,7.7C-343.371-211.771-341.458-215.182-343.97-218.075Z" transform="translate(346.464 219.59)"/></g><g transform="translate(17.375 35.003)"><path class="e" d="M-347.708-204.19c-1.019-2.99-5.011.932-5.893,1.735-2.556,2.328-5.1,4.639-7.753,6.845-.82.681-1.83,1.04-2.069,2.3-.282,1.485,1.224,3.477,2.459,2.407,3.273-2.833,6.746-5.475,9.855-8.524C-350.119-200.35-347.069-202.316-347.708-204.19Z" transform="translate(363.457 205.298)"/></g><g transform="translate(17.568 34.246)"><path d="M-361.306-192.6a1.543,1.543,0,0,1-.815-.239,2.486,2.486,0,0,1-1.013-2.587,3.224,3.224,0,0,1,1.535-1.9c.169-.119.341-.238.5-.372,2.371-1.945,4.65-3.979,6.855-5.947l.149-.133c1.492-1.351,3.372-2.854,4.72-2.487a1.6,1.6,0,0,1,1.1,1.18h0c.491,1.595-1.4,3.123-2.653,4.134-.233.189-.44.354-.59.491-1.849,1.763-3.861,3.412-5.806,5.007-.986.808-1.97,1.615-2.936,2.438A1.62,1.62,0,0,1-361.306-192.6Zm11.468-12.623c-.5,0-1.5.444-3.513,2.262l-.154.14c-2.213,1.974-4.5,4.015-6.89,5.976-.186.152-.378.289-.57.423-.533.374-.953.669-1.1,1.258a1.385,1.385,0,0,0,.522,1.387.446.446,0,0,0,.577-.075c.971-.828,1.961-1.64,2.952-2.452,1.93-1.581,3.926-3.217,5.754-4.961.173-.157.4-.337.648-.542.9-.723,2.564-2.069,2.293-2.951h0c-.118-.38-.282-.426-.344-.443A.645.645,0,0,0-349.838-205.223Z" transform="translate(363.196 206.321)"/></g><g transform="translate(31.151 32.35)"><path d="M-340.584-203.762a5.433,5.433,0,0,1-3.953-1.808l-.3-.308.225-.366c.03-.049,3.135-4.918,9.637-1.305l.6.333-.453.514c-.1.116-2.562,2.862-5.624,2.939Zm-2.826-2.255a4.111,4.111,0,0,0,2.925,1.151,7.252,7.252,0,0,0,4.317-2.061C-340.362-208.937-342.668-206.894-343.41-206.017Z" transform="translate(344.837 208.882)"/></g><g transform="translate(41.655 17.552)"><path d="M-329.89-212s8.812,4.113,13.495,1.945c6.557-3.036,9.99-6.161,11.341-7.715,2.12-2.441,2.977-10.743-4.548-10.352,0,0-1.436.229-9.167,6.7C-321.345-219.269-325.8-214.49-329.89-212Z" transform="translate(330.444 228.686)"/><path d="M-319.953-209.062c-4.668,0-10.077-2.492-10.366-2.628a.555.555,0,0,1-.319-.473.556.556,0,0,1,.265-.5,55.952,55.952,0,0,0,8.2-6.776c1.1-1.036,2.057-1.931,2.858-2.6,7.469-6.249,9.17-6.777,9.435-6.819,3.678-.2,5.288,1.515,6,2.982a8.572,8.572,0,0,1-.95,8.282c-1.1,1.266-4.425,4.566-11.526,7.854A8.586,8.586,0,0,1-319.953-209.062Zm-8.952-3.23c2.356.959,8.556,3.171,12.082,1.54,6.907-3.2,10.1-6.363,11.155-7.576a7.442,7.442,0,0,0,.79-7.067c-.819-1.681-2.452-2.472-4.827-2.37-.26.092-2.111.889-8.9,6.571-.778.65-1.72,1.536-2.811,2.559A65,65,0,0,1-328.9-212.292Z" transform="translate(330.639 228.879)"/></g></g></g></g><g transform="translate(-312.18 -298.281)"><path d="M-265.238-290.857a3.333,3.333,0,0,0,.161-1.028,3.248,3.248,0,0,0-3.205-3.281,3.248,3.248,0,0,0-3.205,3.281,3.332,3.332,0,0,0,.161,1.028,3.252,3.252,0,0,0-3.082,3.279A3.248,3.248,0,0,0-271.2-284.3a3.153,3.153,0,0,0,2.135-.836l-.69,2.4h2.934l-.7-2.42a3.152,3.152,0,0,0,2.161.861,3.248,3.248,0,0,0,3.205-3.281A3.251,3.251,0,0,0-265.238-290.857Z" transform="translate(274.409 295.166)"/></g></g></svg>