<svg xmlns="http://www.w3.org/2000/svg" xmlns:xlink="http://www.w3.org/1999/xlink" width="128" height="200" viewBox="0 0 128 200"><defs><style>.a{fill:none;}.b{fill:#fff;}.c{fill:#170000;}.d{clip-path:url(#a);}.e{fill:#c21823;}</style><clipPath id="a"><rect class="a" width="96.202" height="91.715"/></clipPath></defs><rect class="b" width="125.029" height="197.029" transform="translate(1.486 1.486)"/><path d="M138.88,210.85h-128v-200h128ZM13.84,207.884H135.92V13.816H13.84Z" transform="translate(-10.88 -10.85)"/><path class="c" d="M28.853,33.7a3.818,3.818,0,0,1-1.33-1.642,5.638,5.638,0,0,1-.453-2.3,6.909,6.909,0,0,1,.906-3.469,8.305,8.305,0,0,1,2.333-2.607,6.894,6.894,0,0,1,2.919-1.263l.342.646a6.582,6.582,0,0,0-2.934,1.842,6.812,6.812,0,0,0-1.627,2.927,2.89,2.89,0,0,1,1.025-.743,3.506,3.506,0,0,1,1.523-.3,3.038,3.038,0,0,1,2.377.906,3.625,3.625,0,0,1,.832,2.518,4.532,4.532,0,0,1-.461,2.021A3.61,3.61,0,0,1,30.933,34.3a3.558,3.558,0,0,1-2.08-.594Zm.825-5.653a2.3,2.3,0,0,0-.862.78c0,.245,0,.438,0,.587a6.73,6.73,0,0,0,.475,2.971,1.805,1.805,0,0,0,1.761,1.151,1.664,1.664,0,0,0,1.166-.423,2.555,2.555,0,0,0,.743-1.107,4.7,4.7,0,0,0,.23-1.449,3.477,3.477,0,0,0-.55-2.162,1.768,1.768,0,0,0-1.486-.683A2.778,2.778,0,0,0,29.677,28.051Z" transform="translate(-15.043 -13.825)"/><path d="M138.88,210.85h-128v-200h128ZM13.84,207.884H135.92V13.816H13.84Z" transform="translate(-10.88 -10.85)"/><path d="M165.221,27.175a3.232,3.232,0,1,0-6.285-1.033,3.447,3.447,0,0,0,.156,1.033,3.292,3.292,0,0,0,.126,6.582,3.15,3.15,0,0,0,2.139-.839l-.691,2.407h2.971l-.7-2.429a3.157,3.157,0,0,0,2.169.862,3.291,3.291,0,0,0,.119-6.582Z" transform="translate(-48.676 -13.945)"/><path d="M146.946,174.117a2.972,2.972,0,0,0-.743.334,2.535,2.535,0,1,0,2.719,4.279,2.764,2.764,0,0,0,.624-.55,2.594,2.594,0,0,0,4.324-2.868,2.5,2.5,0,0,0-1.486-1.07l1.887-.557-1.248-1.954-1.315,1.486a2.541,2.541,0,0,0-.342-1.813,2.607,2.607,0,0,0-4.457,2.7Z" transform="translate(-45.805 -52.043)"/><path d="M107.628,194.557a2.459,2.459,0,0,0-.743.334,2.534,2.534,0,1,0,2.726,4.272,2.86,2.86,0,0,0,.617-.542,2.6,2.6,0,0,0,4.324-2.867,2.474,2.474,0,0,0-1.486-1.07l1.887-.557-1.241-1.961-1.322,1.486a2.526,2.526,0,0,0-.342-1.805,2.607,2.607,0,1,0-4.457,2.7Z" transform="translate(-35.57 -57.328)"/><path d="M117.868,166.968a2.548,2.548,0,1,0,.371,4.992,2.764,2.764,0,0,0,.743-.312,2.6,2.6,0,1,0,3.974-2.808l1.976.089-.55-2.229-1.731.988a2.481,2.481,0,0,0,.26-1.82A2.6,2.6,0,0,0,117.845,167Z" transform="translate(-37.997 -50.449)"/><path d="M159.226,140.152a2.74,2.74,0,0,0-.8.186,2.535,2.535,0,0,0,1.857,4.717,2.72,2.72,0,0,0,.743-.416,2.6,2.6,0,0,0,4.792-2,2.518,2.518,0,0,0-1.233-1.33l1.961-.186-.854-2.154-1.575,1.211a2.5,2.5,0,0,0,0-1.842,2.6,2.6,0,0,0-4.866,1.813Z" transform="translate(-48.921 -43.413)"/><path d="M90.369,185.178a2.719,2.719,0,0,0-.817-.119,2.534,2.534,0,1,0,.869,4.933,2.6,2.6,0,1,0,5.2-.149,2.511,2.511,0,0,0-.676-1.679l1.894.52v-2.318l-1.909.572a2.511,2.511,0,0,0,.661-1.716,2.6,2.6,0,0,0-5.2-.045Z" transform="translate(-30.71 -55.263)"/><path d="M167.493,156.456a2.645,2.645,0,0,0-.319.743,2.536,2.536,0,1,0,4.918,1.241,2.749,2.749,0,0,0,.074-.817,2.6,2.6,0,0,0,1.181-5.059,2.518,2.518,0,0,0-1.805.23l1-1.7-2.229-.572.067,1.991a2.511,2.511,0,0,0-1.486-1.077,2.6,2.6,0,0,0-1.374,5.007Z" transform="translate(-51.216 -46.967)"/><g class="d" transform="translate(30.483 28.563)"><path d="M94.085,91.689l5.052-5.2s1.233-1.077-2.229-2.459C94.36,83,88.863,86.875,87.526,87.677c-.646.371-2.689.423-3.41.587a2.971,2.971,0,0,1-.936.1,2.362,2.362,0,0,1-1.137-.817,1.827,1.827,0,0,1,0,1.931c-.565,1.233-2.875,3.841-2.526,5.445.319,1.486,2.095,4.5,5.2,4.658a9.865,9.865,0,0,0,4.9-.8,6.508,6.508,0,0,1,4.844.7,4.791,4.791,0,0,0,2.919.572h.646L94.2,94.6" transform="translate(-59.52 -58.185)"/><path d="M96.615,100.424a4.554,4.554,0,0,1-2.659-.7,6.036,6.036,0,0,0-4.368-.617l-.468.171a9.724,9.724,0,0,1-4.613.654c-3.477-.171-5.378-3.573-5.713-5.1-.3-1.352.847-3.083,1.761-4.457a11.045,11.045,0,0,0,.81-1.315,1.382,1.382,0,0,0,.059-1.367.557.557,0,0,1,.089-.743.542.542,0,0,1,.743.052c.5.557.743.631.81.646a2.6,2.6,0,0,0,.743-.1c.275-.059.691-.1,1.174-.156a8.61,8.61,0,0,0,2.073-.364l.743-.468c2.162-1.359,6.686-4.19,9.152-3.194,1.7.683,2.6,1.419,2.741,2.229a1.255,1.255,0,0,1-.386,1.144l-5.014,5.2a.55.55,0,0,1-.78,0,.542.542,0,0,1,0-.78l5.052-5.2a.171.171,0,0,0,.052-.163c0-.1-.23-.661-2.065-1.4-1.961-.743-6.456,2.043-8.172,3.105-.327.208-.594.379-.743.483a7.191,7.191,0,0,1-2.518.513c-.423.045-.825.089-1.047.141a3.343,3.343,0,0,1-1.144.111,1.2,1.2,0,0,1-.267-.074,3.2,3.2,0,0,1-.267.869,13.655,13.655,0,0,1-.884,1.486c-.743,1.144-1.805,2.719-1.6,3.625.3,1.4,2,4.086,4.688,4.227a8.811,8.811,0,0,0,4.145-.579c.208-.082.394-.156.572-.208a7.239,7.239,0,0,1,5.326.743,3.714,3.714,0,0,0,2.229.49l-3.291-4.591A.557.557,0,0,1,93.7,94a.55.55,0,0,1,.743.134l3.826,5.408a.55.55,0,0,1-.423.869h-.646Z" transform="translate(-59.33 -58.006)"/><path d="M118.659,132.485a.557.557,0,0,1-.55-.49.55.55,0,0,1,.49-.609,27.256,27.256,0,0,0,10.965-3.818c.743-.587,2.875-2.414,3.35-3.521.624-1.434,7.1-9.085,11.47-9.286a.594.594,0,0,1,.579.535.55.55,0,0,1-.527.572c-3.648.163-9.843,7.087-10.5,8.617s-3.4,3.714-3.714,3.982a28.1,28.1,0,0,1-11.5,4.049Z" transform="translate(-69.451 -66.132)"/><path d="M93.337,126.959a.46.46,0,0,1-.141,0c-6.359-1.642-11.3-6.983-12-12.985a7.243,7.243,0,0,0-6.292-6.56c-.9-.082-1.865-.134-2.882-.193-.787-.045-1.612-.089-2.459-.149-6.366-.461-6.768-8.781-6.768-8.87a.542.542,0,0,1,.475-.565l4.138-.579a.552.552,0,0,1,.156,1.092l-3.625.505c.171,1.686,1.085,6.976,5.705,7.31.839.067,1.657.111,2.437.149,1.033.059,2.006.111,2.919.2a8.35,8.35,0,0,1,7.265,7.51c.654,5.564,5.252,10.519,11.143,12.049a.55.55,0,0,1-.134,1.085Z" transform="translate(-55.227 -61.578)"/><path d="M89.643,96.752a1.315,1.315,0,0,1-.929-.394A38.006,38.006,0,0,1,85,91.618a.561.561,0,0,1,.929-.631A36.722,36.722,0,0,0,89.5,95.578a.178.178,0,0,0,.178.059.171.171,0,0,0,.134-.119l.884-2.087c0-.067,1.686-3.358.958-5.3a1.88,1.88,0,0,0-1.129-1.137,6.114,6.114,0,0,0-5.564.52,5.46,5.46,0,0,1-2.466.282,7.556,7.556,0,0,0-1.255.037,3.12,3.12,0,0,1-1.151.111c-.854-.141-1.664-1.218-2.229-2l-.282-.371c-.149-.193-.327-.431-.513-.691-.587-.8-1.486-2.028-2.147-2.125-1.486-.223-3.6-.23-4.041.067h0a23.715,23.715,0,0,0,1.872,1.894,5.78,5.78,0,0,1,2.177,2.11,7.288,7.288,0,0,0,1.4,1.6.743.743,0,0,1,.26.624.676.676,0,0,1-.386.542,3.536,3.536,0,0,0-1.82,2.555,1.04,1.04,0,0,1-.416.646c-.475.349-1.753.973-4.97,1.315a.55.55,0,0,1-.609-.49.557.557,0,0,1,.49-.609c3.165-.334,4.2-.929,4.457-1.107a4.673,4.673,0,0,1,1.879-2.971,9.85,9.85,0,0,1-1.174-1.486,4.947,4.947,0,0,0-1.805-1.783,16.9,16.9,0,0,1-2.3-2.31,1.04,1.04,0,0,1,0-1.166c.8-1.174,4.71-.631,5.156-.565,1.122.163,2.095,1.486,2.875,2.57.178.238.342.461.49.646l.3.394c.342.453,1.129,1.486,1.553,1.575a2.57,2.57,0,0,0,.743-.1,8.172,8.172,0,0,1,1.486-.059,6.887,6.887,0,0,0,1.894-.126,7.146,7.146,0,0,1,6.53-.594A2.971,2.971,0,0,1,92.718,87.7c.9,2.4-.914,6-1,6.158l-.906,2.11A1.27,1.27,0,0,1,89.643,96.752Z" transform="translate(-56.666 -57.565)"/><path class="b" d="M86.739,93.663a.557.557,0,0,1-.312-.1,6.738,6.738,0,0,0-1.612-.3.557.557,0,1,1,.111-1.107,6.136,6.136,0,0,1,2.1.505.557.557,0,0,1-.319,1.01Z" transform="translate(-60.754 -60.316)"/><path d="M66.925,97.93l-3.395.475s.661,3.291.676,3.343A6.612,6.612,0,0,0,66.925,97.93Z" transform="translate(-55.418 -61.804)"/><path d="M64.014,102.116a.639.639,0,0,1-.2,0,.55.55,0,0,1-.327-.371s0-.074-.691-3.38a.557.557,0,0,1,.089-.431.542.542,0,0,1,.379-.223l3.395-.513a.542.542,0,0,1,.609.669,7.117,7.117,0,0,1-2.971,4.168A.572.572,0,0,1,64.014,102.116Zm0-3.432.379,1.894a6.27,6.27,0,0,0,1.523-2.162Z" transform="translate(-55.226 -61.614)"/><path d="M80.164,85.809s.661,0-1.8,1.567c-.6.379-1.694,1.255-2.125,1.6a10.764,10.764,0,0,0-1.813,1.954,4.086,4.086,0,0,1,2.154-3.105.149.149,0,0,0,0-.245c-1.486-1.211-4.286-.877-5.2-2.645s-1.2-6.084,1.337-8.186c.817-.683,1.627.943,1.939,1.53a17.086,17.086,0,0,0,1.924,3.239c1.2,1.426,2.095,3.187,3.581,4.316" transform="translate(-57.269 -56.317)"/><path d="M74.247,91.312a.512.512,0,0,1-.208-.037.557.557,0,0,1-.334-.609,4.806,4.806,0,0,1,1.857-3.142,9.27,9.27,0,0,0-1.627-.557c-1.263-.349-2.563-.743-3.194-1.954-.981-1.931-1.337-6.56,1.441-8.914a1.166,1.166,0,0,1,.988-.275c.743.149,1.3,1.018,1.768,1.924l.3.572a13.483,13.483,0,0,0,1.59,2.615c.423.505.81,1.047,1.181,1.567a12.02,12.02,0,0,0,2.229,2.607.624.624,0,0,1,.357.416c.119.468-.171.906-2.117,2.125C77.9,88,76.833,88.861,76.4,89.21a10.526,10.526,0,0,0-1.709,1.835A.535.535,0,0,1,74.247,91.312Zm-1.27-14.375c-2.318,1.931-2.013,6.01-1.218,7.577.409.81,1.374,1.077,2.5,1.389A6.924,6.924,0,0,1,76.8,86.981a.676.676,0,0,1,.245.379c.327-.245.639-.468.884-.624a14.519,14.519,0,0,0,1.4-.958,14.367,14.367,0,0,1-2.229-2.607c-.371-.527-.743-1.025-1.122-1.486a14.9,14.9,0,0,1-1.723-2.823l-.267-.513C73.3,77.012,72.977,76.938,72.977,76.938Zm7,9.249Z" transform="translate(-57.087 -56.115)"/><path class="b" d="M83.529,97.65a.557.557,0,0,1-.416-.921,2.66,2.66,0,0,1,1.716-.579h0a.557.557,0,0,1,0,1.107,1.983,1.983,0,0,0-.929.215.527.527,0,0,1-.371.178Z" transform="translate(-60.418 -61.346)"/><path d="M171.436,104.156c-4.138,0-8.914-1.159-10.549-2.555-2.132-1.783-4.22-.966-6.641,0l-.505.2a17.933,17.933,0,0,1-7.481.832c-4.829-.282-8.981-5.2-9.152-5.393a.55.55,0,0,1,.067-.743.557.557,0,0,1,.78.067c0,.052,4.026,4.747,8.372,5.007a17.086,17.086,0,0,0,7.035-.743l.5-.193c2.518-1,5.126-2.013,7.748.2,2.229,1.85,11.381,3.313,14.672,1.382,1.909-1.122,2.08-1.827,2.065-2.08,0-.386-.505-.81-1.367-1.189l-.461-.215c-1.345-.609-1.805-.817-5.378-.527s-4.309-.409-5.289-1.917c-.141-.215-.3-.453-.475-.743-1.426-1.983-2.593-2.919-4.65-2.229-2.83,1-4.977-1.8-5.2-2.125a3.383,3.383,0,0,1-.371-1.664,1.2,1.2,0,0,0-.045-.453,23.185,23.185,0,0,0-1.486-4.65c-1.56-3.484-3.974-5.839-6.79-6.619a.557.557,0,0,1,.267-1.077,13.7,13.7,0,0,0,10.631-1.7,11.047,11.047,0,0,0,4.74-7.592c.535-3.231-2.058-6.76-4.754-8.714a12.451,12.451,0,0,1,1.627,6.775c-.26,2.763-1.917,3.87-4.234,5.141a19.315,19.315,0,0,1-9.754,1.879c-2.11-.163-9.62,0-18.082,9.212-7.525,8.172-9.806,9.234-13.513,10.519-3.2,1.107-8.744,2.719-9.94,1.04a.557.557,0,1,1,.9-.646c.438.624,3.811.253,8.677-1.441,3.529-1.226,5.713-2.229,13.06-10.222,8.8-9.576,16.759-9.739,18.98-9.568a18.059,18.059,0,0,0,9.145-1.746c2.139-1.174,3.454-2.043,3.662-4.272a11.344,11.344,0,0,0-2.867-8,.557.557,0,0,1,.587-.914c3.618,1.389,8.38,6.418,7.6,11.143a12.131,12.131,0,0,1-5.2,8.328,14.062,14.062,0,0,1-8.172,2.229,14.07,14.07,0,0,1,4.457,5.757,23.594,23.594,0,0,1,1.538,4.881c0,.1.045.327.067.587a6.579,6.579,0,0,0,.141,1.07h0c.074.1,1.8,2.511,3.967,1.753,2.971-1.04,4.613.787,5.906,2.593.2.267.357.52.513.743.795,1.218,1.092,1.679,4.272,1.419,3.714-.3,4.361-.089,5.943.624l.461.2c1.293.572,1.969,1.293,2.021,2.147.059,1.01-.795,2.021-2.607,3.09A11.247,11.247,0,0,1,171.436,104.156ZM156.319,90.45Z" transform="translate(-65.74 -51.137)"/><path d="M189.818,105.4a23.861,23.861,0,0,1-8.075-1.649.557.557,0,0,1-.327-.743.55.55,0,0,1,.743-.319c4.056,1.53,9.457,2.414,12.465.327a3.083,3.083,0,0,0,1.411-1.642.669.669,0,0,0-.171-.535,5.282,5.282,0,0,0-3.187-1.79,10.223,10.223,0,0,0-2.333.23,9.093,9.093,0,0,1-3.083.193,3.506,3.506,0,0,1-2.355-1.545c-.163-.2-.334-.416-.535-.624a6.21,6.21,0,0,0-3.469-1.679c-2.971-.423-4.881.089-8.231,1.107a.542.542,0,0,1-.691-.364.557.557,0,0,1,.364-.691c3.41-1.04,5.5-1.6,8.714-1.144a7.362,7.362,0,0,1,4.071,2.065c.223.238.409.468.587.683a2.481,2.481,0,0,0,1.679,1.159,8.305,8.305,0,0,0,2.711-.186,11.144,11.144,0,0,1,2.6-.253,6.381,6.381,0,0,1,3.96,2.191,1.768,1.768,0,0,1,.423,1.389,4.082,4.082,0,0,1-1.879,2.4A9.464,9.464,0,0,1,189.818,105.4Z" transform="translate(-83.298 -60.889)"/><path d="M88.817,154.476h-.1a2.4,2.4,0,0,1-2.5-1.917,11.069,11.069,0,0,1,.513-4.658c.1-.416.215-.847.319-1.293.357-1.582,3.343-3.714,7.206-6.262,1.055-.743,2.058-1.374,2.719-1.879,2.325-1.768,4.153-8.023,4.168-8.082a.557.557,0,0,1,.691-.379.55.55,0,0,1,.371.683c-.074.275-1.946,6.686-4.561,8.662-.691.52-1.7,1.2-2.778,1.917-2.563,1.716-6.448,4.309-6.738,5.586-.1.461-.215.9-.327,1.322a10.081,10.081,0,0,0-.49,4.227c.089.639.795.943,1.486.966a2.971,2.971,0,0,0,2.882-2.63c.847-4.19,5.438-6.433,7.139-6.938,3.239-.973,7.429-2.474,8.454-3.484,1.315-1.263,4.056-6.73,3.64-10.987a.553.553,0,1,1,1.1-.111c.446,4.509-2.362,10.348-3.974,11.886s-7.2,3.232-8.914,3.714c-1.419.431-5.631,2.466-6.366,6.1A4.034,4.034,0,0,1,88.817,154.476Z" transform="translate(-61.234 -69.721)"/><path d="M71.588,150.308a2.719,2.719,0,0,1-2.065-1.241,5.757,5.757,0,0,1-.349-6.463,6.946,6.946,0,0,1,2.578-2.489,174.266,174.266,0,0,0,15.6-9.457.55.55,0,0,1,.743.134.557.557,0,0,1-.134.743,175.073,175.073,0,0,1-15.734,9.516,5.876,5.876,0,0,0-2.169,2.1,4.636,4.636,0,0,0,.275,5.2c.468.587.906.869,1.293.81s1.218-.446,2.2-2.674A8.469,8.469,0,0,1,78,142.552c.5-.26.988-.527,1.486-.795a32.525,32.525,0,0,1,4.977-2.355c.446-.149.951-.3,1.486-.461,2.674-.8,6.344-1.9,7.1-4.532a.557.557,0,0,1,1.062.312c-.929,3.2-4.925,4.405-7.845,5.274-.527.163-1.025.3-1.486.453a31.943,31.943,0,0,0-4.806,2.325l-1.486.8a7.167,7.167,0,0,0-3.67,3.4c-.929,2.1-1.917,3.194-3.016,3.335Z" transform="translate(-56.656 -70.197)"/><path class="e" d="M106.52,104.665s3.12-5.066,9.992-1.248C116.534,103.417,111.185,109.427,106.52,104.665Z" transform="translate(-66.472 -62.849)"/><path class="e" d="M107.677,88.65s-5.007,2.971-1.857,10.445C105.82,99.095,111.874,93.887,107.677,88.65Z" transform="translate(-66.024 -59.418)"/><path d="M105.177,100.65l-.379-.669c-3.781-6.634.6-10.207.639-10.237l.386-.3.349.342c4.6,4.457-.431,10.237-.483,10.289Zm.587-9.657c-.8.891-2.5,3.462-.394,7.733,1-1.441,2.9-4.858.394-7.763Z" transform="translate(-65.634 -59.621)"/><path class="e" d="M102.079,104.85c-1.025-2.971-5.037.936-5.943,1.738-2.563,2.34-5.118,4.658-7.785,6.872-.825.683-1.835,1.047-2.073,2.3-.282,1.486,1.226,3.492,2.466,2.422,3.283-2.845,6.775-5.5,9.9-8.558C99.657,108.705,102.718,106.729,102.079,104.85Z" transform="translate(-61.258 -63.301)"/><path d="M88.426,116.491a1.619,1.619,0,0,1-.817-.238,2.5,2.5,0,0,1-1.01-2.6,3.187,3.187,0,0,1,1.538-1.9c.171-.119.342-.245.505-.379,2.392-1.961,4.673-4,6.886-5.943l.149-.134c1.486-1.359,3.387-2.867,4.74-2.5a1.59,1.59,0,0,1,1.107,1.181h0c.49,1.6-1.4,3.135-2.667,4.153-.23.186-.438.349-.587.49-1.857,1.768-3.885,3.425-5.839,5.029-.988.81-1.976,1.619-2.971,2.444A1.642,1.642,0,0,1,88.426,116.491Zm11.515-12.673c-.5,0-1.486.446-3.521,2.273l-.156.141c-2.229,1.976-4.509,4.019-6.924,5.995-.186.156-.379.29-.572.431a2.229,2.229,0,0,0-1.1,1.255,1.4,1.4,0,0,0,.527,1.4.453.453,0,0,0,.579-.074c.973-.832,1.961-1.642,2.971-2.459,1.939-1.59,3.945-3.231,5.78-4.985.178-.156.4-.342.654-.542.9-.743,2.57-2.08,2.3-2.971h0c-.119-.379-.282-.431-.349-.446A.579.579,0,0,0,99.941,103.818Z" transform="translate(-61.334 -63.042)"/><path d="M109.162,105.291a5.43,5.43,0,0,1-3.967-1.82l-.3-.3.223-.371c0-.045,3.15-4.933,9.657-1.307l.6.334-.453.513c-.1.119-2.578,2.875-5.653,2.971Zm-2.838-2.229a4.272,4.272,0,0,0,2.971,1.159,7.321,7.321,0,0,0,4.331-2.073c-4.242-2.058-6.56-.007-7.3.862Z" transform="translate(-66.053 -62.375)"/><path d="M119.84,97.09s8.848,4.13,13.55,1.954c6.582-3.053,10.029-6.188,11.381-7.748,2.132-2.451,2.971-10.779-4.561-10.4,0,0-1.441.23-9.2,6.686C128.42,89.788,123.941,94.587,119.84,97.09Z" transform="translate(-69.897 -57.421)"/><path d="M129.819,100.043c-4.688,0-10.118-2.5-10.4-2.637a.55.55,0,0,1-.319-.475.535.535,0,0,1,.267-.505,56.262,56.262,0,0,0,8.224-6.8c1.114-1.04,2.065-1.939,2.875-2.607,7.5-6.277,9.2-6.8,9.472-6.849,3.714-.208,5.312,1.486,6.025,2.971a8.587,8.587,0,0,1-.951,8.313c-1.107,1.278-4.457,4.591-11.574,7.889a8.647,8.647,0,0,1-3.618.706ZM120.83,96.8c2.37.966,8.6,3.187,12.131,1.553,6.931-3.209,10.14-6.389,11.2-7.607a7.5,7.5,0,0,0,.795-7.094c-.825-1.686-2.466-2.481-4.851-2.377-.26.089-2.117.891-8.914,6.6-.743.654-1.723,1.538-2.823,2.563a64.63,64.63,0,0,1-7.54,6.366Z" transform="translate(-69.706 -57.231)"/></g></svg>