<svg xmlns="http://www.w3.org/2000/svg" width="128" height="200" viewBox="0 0 128 200"><defs><style>.a{fill:#fff;}.b{fill:#170000;}.c{fill:#c21823;}</style></defs><rect class="a" width="125.029" height="197.029" transform="translate(1.486 1.486)"/><path d="M138.88,210.85h-128v-200h128ZM13.84,207.884H135.92V13.816H13.84Z" transform="translate(-10.88 -10.85)"/><path class="b" d="M27.416,29.958a4.324,4.324,0,0,1,1.723-1.263,5.2,5.2,0,0,1-1.359-1.211,2.607,2.607,0,0,1-.475-1.59,2.481,2.481,0,0,1,.468-1.486,2.882,2.882,0,0,1,1.248-.958,4.145,4.145,0,0,1,1.649-.342A3.759,3.759,0,0,1,33,23.777a2.125,2.125,0,0,1,.877,1.79,2.675,2.675,0,0,1-.513,1.575A4.346,4.346,0,0,1,31.874,28.4a7.852,7.852,0,0,1,1.85,1.359,2.355,2.355,0,0,1,.661,1.7,2.481,2.481,0,0,1-.527,1.582A3.469,3.469,0,0,1,32.446,34.1a4.851,4.851,0,0,1-1.9.371,5.274,5.274,0,0,1-1.8-.3,3.046,3.046,0,0,1-1.382-.951,2.466,2.466,0,0,1-.535-1.627,2.652,2.652,0,0,1,.587-1.634Zm5.1.862a3.135,3.135,0,0,0-.787-.743c-.312-.2-.743-.438-1.285-.743-.282-.141-.49-.253-.631-.334a3.165,3.165,0,0,0-1.129.958,2.132,2.132,0,0,0-.438,1.285,2.229,2.229,0,0,0,2.429,2.466,2.414,2.414,0,0,0,1.033-.238,2.169,2.169,0,0,0,.817-.691,1.716,1.716,0,0,0,.312-1.01A1.538,1.538,0,0,0,32.512,30.82Zm-3.506-4.3a2.971,2.971,0,0,0,.8.743c.319.193.78.453,1.374.743a2.972,2.972,0,0,0,1.055-.906,2.043,2.043,0,0,0,.394-1.2,2.154,2.154,0,0,0-.542-1.545,1.909,1.909,0,0,0-1.419-.55,2.1,2.1,0,0,0-1.4.475,1.582,1.582,0,0,0-.572,1.285A1.486,1.486,0,0,0,29.006,26.518Z" transform="translate(-14.981 -14.001)"/><path d="M138.88,210.85h-128v-200h128ZM13.84,207.884H135.92V13.816H13.84Z" transform="translate(-10.88 -10.85)"/><path d="M165.221,27.175a3.232,3.232,0,1,0-6.285-1.033,3.447,3.447,0,0,0,.156,1.033,3.292,3.292,0,0,0,.126,6.582,3.15,3.15,0,0,0,2.139-.839l-.691,2.407h2.971l-.7-2.429a3.157,3.157,0,0,0,2.169.862,3.291,3.291,0,0,0,.119-6.582Z" transform="translate(-48.676 -13.945)"/><path d="M146.946,174.117a2.972,2.972,0,0,0-.743.334,2.535,2.535,0,1,0,2.719,4.279,2.764,2.764,0,0,0,.624-.55,2.594,2.594,0,0,0,4.324-2.868,2.5,2.5,0,0,0-1.486-1.07l1.887-.557-1.248-1.954-1.315,1.486a2.541,2.541,0,0,0-.342-1.813,2.607,2.607,0,0,0-4.457,2.7Z" transform="translate(-45.805 -52.043)"/><path d="M107.628,194.557a2.459,2.459,0,0,0-.743.334,2.534,2.534,0,1,0,2.726,4.272,2.86,2.86,0,0,0,.617-.542,2.6,2.6,0,0,0,4.324-2.867,2.474,2.474,0,0,0-1.486-1.07l1.887-.557-1.241-1.961-1.322,1.486a2.526,2.526,0,0,0-.342-1.805,2.607,2.607,0,1,0-4.457,2.7Z" transform="translate(-35.57 -57.328)"/><path d="M117.868,166.968a2.548,2.548,0,1,0,.371,4.992,2.764,2.764,0,0,0,.743-.312,2.6,2.6,0,1,0,3.974-2.808l1.976.089-.55-2.229-1.731.988a2.481,2.481,0,0,0,.26-1.82A2.6,2.6,0,0,0,117.845,167Z" transform="translate(-37.997 -50.449)"/><path d="M159.226,140.152a2.74,2.74,0,0,0-.8.186,2.535,2.535,0,0,0,1.857,4.717,2.72,2.72,0,0,0,.743-.416,2.6,2.6,0,0,0,4.792-2,2.518,2.518,0,0,0-1.233-1.33l1.961-.186-.854-2.154-1.575,1.211a2.5,2.5,0,0,0,0-1.842,2.6,2.6,0,0,0-4.866,1.813Z" transform="translate(-48.921 -43.413)"/><path d="M90.369,185.178a2.719,2.719,0,0,0-.817-.119,2.534,2.534,0,1,0,.869,4.933,2.6,2.6,0,1,0,5.2-.149,2.511,2.511,0,0,0-.676-1.679l1.894.52v-2.318l-1.909.572a2.511,2.511,0,0,0,.661-1.716,2.6,2.6,0,0,0-5.2-.045Z" transform="translate(-30.71 -55.263)"/><path d="M39.972,176.473a2.488,2.488,0,0,0-.839-.119,2.533,2.533,0,1,0,.052,5.066,2.466,2.466,0,0,0,.81-.134,2.6,2.6,0,1,0,5.2-.156,2.459,2.459,0,0,0-.676-1.679l1.9.527v-2.325l-1.909.572a2.489,2.489,0,0,0,.661-1.716,2.6,2.6,0,1,0-5.2,0Z" transform="translate(-17.5 -53.016)"/><path d="M167.493,156.456a2.645,2.645,0,0,0-.319.743,2.536,2.536,0,1,0,4.918,1.241,2.749,2.749,0,0,0,.074-.817,2.6,2.6,0,0,0,1.181-5.059,2.518,2.518,0,0,0-1.805.23l1-1.7-2.229-.572.067,1.991a2.511,2.511,0,0,0-1.486-1.077,2.6,2.6,0,0,0-1.374,5.007Z" transform="translate(-51.216 -46.967)"/><path d="M65.877,96.1l5.438-4.792s1.315-.981-2.006-2.622c-2.481-1.233-8.261,2.229-9.657,2.882-.669.319-2.711.215-3.44.319a2.971,2.971,0,0,1-.943,0,2.347,2.347,0,0,1-1.062-.906,1.865,1.865,0,0,1-.149,1.931c-.661,1.181-3.172,3.6-2.971,5.2.2,1.486,1.738,4.658,4.821,5.052a9.85,9.85,0,0,0,4.948-.416,6.545,6.545,0,0,1,4.777,1.07,4.762,4.762,0,0,0,2.86.81h.646l-3.395-5.69" transform="translate(-21.358 -30.914)"/><path d="M68.98,105.069h-.646a5.2,5.2,0,0,1-3.2-.936,6.063,6.063,0,0,0-4.309-.951,1.984,1.984,0,0,0-.483.134,9.836,9.836,0,0,1-4.65.29c-3.454-.446-5.081-3.982-5.3-5.52-.193-1.374,1.077-3.009,2.1-4.324a10.793,10.793,0,0,0,.906-1.255,1.359,1.359,0,0,0,.163-1.352.557.557,0,0,1,.156-.743.542.542,0,0,1,.743.111,2.879,2.879,0,0,0,.743.743,2.5,2.5,0,0,0,.743-.045c.282,0,.743-.052,1.189-.067a8.29,8.29,0,0,0,2.087-.26l.78-.4c2.229-1.189,6.968-3.662,9.375-2.481,1.642.817,2.481,1.619,2.555,2.459a1.27,1.27,0,0,1-.468,1.107L66.06,96.34a.558.558,0,1,1-.743-.832l5.438-4.792a.171.171,0,0,0,.067-.156c0-.1-.178-.676-1.954-1.553-1.894-.936-6.589,1.53-8.365,2.459-.342.186-.617.327-.817.423a7.347,7.347,0,0,1-2.541.312,5.222,5.222,0,0,0-1.062.059,3.172,3.172,0,0,1-1.151,0,1.4,1.4,0,0,1-.26-.1,2.971,2.971,0,0,1-.334.847,13.371,13.371,0,0,1-1,1.4c-.847,1.085-2.013,2.57-1.887,3.484.2,1.426,1.679,4.234,4.346,4.584a8.58,8.58,0,0,0,4.182-.26c.215-.059.4-.119.587-.156a7.072,7.072,0,0,1,5.245,1.2,3.766,3.766,0,0,0,2.154.654L65.095,99.1a.557.557,0,0,1,.193-.743.55.55,0,0,1,.743.193l3.425,5.72a.55.55,0,0,1,0,.565.542.542,0,0,1-.475.238Z" transform="translate(-21.177 -30.727)"/><path d="M87.07,138.948a.55.55,0,1,1,0-1.1,27.486,27.486,0,0,0,11.24-2.972c.787-.527,3.053-2.191,3.61-3.254.743-1.367,7.652-8.365,12.027-8.365h.134a.557.557,0,1,1,0,1.107h-.1c-3.662,0-10.274,6.314-11.039,7.778s-3.714,3.454-4.012,3.677a28.081,28.081,0,0,1-11.782,3.135Z" transform="translate(-30.619 -39.922)"/><path d="M62.678,130.912a.513.513,0,0,1-.178,0c-6.218-2.125-10.72-7.837-10.957-13.877a7.265,7.265,0,0,0-5.765-7.02c-.884-.149-1.835-.275-2.845-.409-.787-.1-1.6-.215-2.451-.342-6.314-.958-6.062-9.286-6.062-9.368a.565.565,0,0,1,.52-.535l4.175-.253a.551.551,0,1,1,.067,1.1l-3.655.23c.045,1.686.542,7.035,5.118,7.726.839.134,1.657.238,2.437.342,1.018.141,1.976.267,2.882.423a8.356,8.356,0,0,1,6.686,8.06c.215,5.594,4.42,10.891,10.207,12.881a.55.55,0,0,1,.349.7.565.565,0,0,1-.527.342Z" transform="translate(-16.932 -33.69)"/><path d="M61.115,100.479a1.307,1.307,0,0,1-1-.468A37.144,37.144,0,0,1,56.8,95a.551.551,0,0,1,.951-.557A36.4,36.4,0,0,0,60.959,99.3a.185.185,0,0,0,.319-.037l1.04-2.013c0-.067,1.946-3.217,1.367-5.2a1.894,1.894,0,0,0-1.033-1.218,6.1,6.1,0,0,0-5.594.089A5.46,5.46,0,0,1,54.585,91a8.468,8.468,0,0,0-1.263-.059,2.971,2.971,0,0,1-1.151,0c-.847-.208-1.56-1.345-2.087-2.169-.1-.149-.178-.282-.253-.386s-.29-.461-.461-.743c-.527-.854-1.315-2.139-1.976-2.288-1.486-.342-3.558-.513-4.026-.253h0a24.865,24.865,0,0,0,1.716,2.035,5.772,5.772,0,0,1,2.006,2.229,7.1,7.1,0,0,0,1.27,1.709.7.7,0,0,1,.208.646.669.669,0,0,1-.423.513,3.514,3.514,0,0,0-2.013,2.4,1.085,1.085,0,0,1-.461.617c-.505.312-1.827.839-5.059.929a.557.557,0,0,1-.037-1.107c3.179-.089,4.257-.609,4.517-.743a4.68,4.68,0,0,1,2.11-2.838,9.858,9.858,0,0,1-1.062-1.53,4.858,4.858,0,0,0-1.657-1.85,16.737,16.737,0,0,1-2.117-2.489,1.033,1.033,0,0,1,.082-1.159c.891-1.114,4.747-.267,5.2-.163,1.107.253,1.969,1.657,2.667,2.786l.431.683c.082.111.171.26.275.416.3.475,1,1.59,1.419,1.686a1.969,1.969,0,0,0,.743,0,7.384,7.384,0,0,1,1.486.052,6.82,6.82,0,0,0,1.9,0,7.132,7.132,0,0,1,6.56-.082,2.971,2.971,0,0,1,1.6,1.9c.743,2.466-1.374,5.943-1.486,6.062l-1.025,1.983a1.293,1.293,0,0,1-1,.7ZM47.617,91.973ZM47.758,91.3Z" transform="translate(-18.501 -29.742)"/><path class="a" d="M58.746,97.079a.557.557,0,0,1-.349-.126,6.449,6.449,0,0,0-1.553-.431.551.551,0,1,1,.2-1.085A5.861,5.861,0,0,1,59.1,96.1a.557.557,0,0,1,.082.743A.565.565,0,0,1,58.746,97.079Z" transform="translate(-22.722 -32.716)"/><path d="M38.587,99.86l-3.417.215s.4,3.328.416,3.38A6.6,6.6,0,0,0,38.587,99.86Z" transform="translate(-17.126 -33.863)"/><path d="M35.394,103.822a.564.564,0,0,1-.245-.059.527.527,0,0,1-.3-.386s0-.074-.423-3.425a.55.55,0,0,1,.126-.423.565.565,0,0,1,.386-.2l3.425-.208a.513.513,0,0,1,.468.215.535.535,0,0,1,.089.505,7.161,7.161,0,0,1-3.276,3.922A.624.624,0,0,1,35.394,103.822Zm.2-3.425c.067.527.163,1.315.238,1.917a6.188,6.188,0,0,0,1.723-2.035Z" transform="translate(-16.934 -33.671)"/><path d="M52.611,88.809s.661.089-1.909,1.426a25.4,25.4,0,0,0-2.229,1.434,10.638,10.638,0,0,0-1.961,1.805A4.093,4.093,0,0,1,48.9,90.547a.149.149,0,0,0,.037-.245c-1.419-1.322-4.2-1.211-4.962-3.046s-.743-6.188,1.946-8.082c.862-.617,1.545,1.062,1.805,1.679a17.665,17.665,0,0,0,1.657,3.358c1.077,1.486,1.835,3.336,3.231,4.576" transform="translate(-19.383 -28.486)"/><path d="M46.3,93.827a.505.505,0,0,1-.253-.059.55.55,0,0,1-.282-.631,4.792,4.792,0,0,1,2.095-2.971,9.048,9.048,0,0,0-1.575-.676c-1.233-.446-2.5-.906-3.038-2.229-.825-2.006-.817-6.686,2.139-8.751a1.129,1.129,0,0,1,1-.193c.847.238,1.345,1.419,1.619,2.05l.253.6a13.609,13.609,0,0,0,1.374,2.741,18.116,18.116,0,0,1,1.047,1.657,12.205,12.205,0,0,0,2.035,2.771.646.646,0,0,1,.319.446c.082.475-.238.891-2.281,1.946-.617.319-1.827,1.151-2.184,1.4a10.267,10.267,0,0,0-1.842,1.7A.55.55,0,0,1,46.3,93.827Zm-.223-14.434c-2.459,1.746-2.474,5.839-1.805,7.429.342.906,1.293,1.211,2.385,1.649a6.857,6.857,0,0,1,2.444,1.27.654.654,0,0,1,.215.394c.342-.215.676-.416.929-.55a12.754,12.754,0,0,0,1.486-.847,14.471,14.471,0,0,1-1.976-2.771c-.334-.557-.646-1.077-1-1.575a14.9,14.9,0,0,1-1.486-2.971l-.223-.542C46.42,79.489,46.13,79.4,46.078,79.393Zm6.255,9.761Z" transform="translate(-19.185 -28.288)"/><path class="a" d="M55.19,100.834a.52.52,0,0,1-.4-.171.542.542,0,0,1,0-.743,2.607,2.607,0,0,1,1.753-.446.55.55,0,0,1,.52.579.535.535,0,0,1-.579.527,2.021,2.021,0,0,0-.936.141A.572.572,0,0,1,55.19,100.834Z" transform="translate(-22.266 -33.758)"/><path d="M142.852,115.6c-4.413,0-10.1-1.723-11.834-3.432-1.976-1.946-4.123-1.293-6.612-.535l-.52.156a17.955,17.955,0,0,1-7.54.267c-4.792-.661-8.55-5.876-8.706-6.1a.551.551,0,0,1,.9-.639c0,.052,3.648,5.044,7.956,5.638a16.781,16.781,0,0,0,7.072-.23l.52-.156c2.585-.787,5.26-1.6,7.711.81,2.043,2.013,11.084,4.19,14.516,2.518,1.991-.973,2.229-1.657,2.229-1.909,0-.386-.446-.847-1.27-1.293l-.446-.245c-1.293-.743-1.731-.951-5.319-.943h-.082c-3.61,0-4.19-.743-5.044-2.333-.126-.223-.26-.468-.423-.743-1.263-2.087-2.347-3.113-4.457-2.555-2.823.743-4.71-2.006-5.022-2.511-.223-.3-.253-.743-.253-1.709a3.651,3.651,0,0,0,0-.453,23.12,23.12,0,0,0-1.1-4.747c-1.285-3.6-3.506-6.129-6.255-7.132a.559.559,0,0,1,.327-1.07,13.676,13.676,0,0,0,10.735-.869,11.046,11.046,0,0,0,5.319-7.2c.743-3.179-1.53-6.9-4.064-9.056a12.369,12.369,0,0,1,1.092,6.879c-.468,2.734-2.229,3.714-4.613,4.792a19.263,19.263,0,0,1-9.88,1.114c-2.08-.327-9.59-.743-18.743,7.77-8.172,7.577-10.5,8.446-14.285,9.442-3.284.854-8.914,2.028-10,.26a.557.557,0,0,1,.951-.572c.394.654,3.774.55,8.766-.743,3.61-.951,5.869-1.79,13.81-9.182,9.524-8.84,17.495-8.387,19.671-8.038a18.037,18.037,0,0,0,9.249-1.033c2.229-1,3.6-1.761,3.989-3.974a11.373,11.373,0,0,0-2.229-8.172.55.55,0,0,1,0-.7.557.557,0,0,1,.676-.163c3.5,1.664,7.86,7.05,6.686,11.7a12.131,12.131,0,0,1-5.846,7.9,14.115,14.115,0,0,1-8.328,1.627,13.914,13.914,0,0,1,4,6.084,23.861,23.861,0,0,1,1.159,4.985v.587a6.928,6.928,0,0,0,.052,1.085.119.119,0,0,1,0,.052h0s1.582,2.6,3.8,2.013c3.053-.8,4.539,1.151,5.69,3.046.171.282.312.55.446.787.7,1.285.936,1.768,4.145,1.753,3.714,0,4.353.253,5.861,1.085l.438.238c1.241.669,1.865,1.441,1.85,2.288,0,1.018-.951,1.961-2.845,2.882A9.323,9.323,0,0,1,142.852,115.6ZM127.341,100.687Z" transform="translate(-27.808 -25.329)"/><path d="M161.6,117.01a22.524,22.524,0,0,1-9.033-2.288.55.55,0,0,1-.26-.743.557.557,0,0,1,.743-.267c3.922,1.842,9.234,3.15,12.4,1.3a3.068,3.068,0,0,0,1.538-1.53.661.661,0,0,0-.134-.542,5.289,5.289,0,0,0-3.031-2.028,9.991,9.991,0,0,0-2.347.045,9.2,9.2,0,0,1-3.09-.045,3.521,3.521,0,0,1-2.229-1.731c-.149-.208-.3-.431-.49-.661a6.151,6.151,0,0,0-3.276-2c-2.971-.654-4.873-.29-8.3.461a.535.535,0,0,1-.654-.416.55.55,0,0,1,.416-.661c3.484-.743,5.6-1.174,8.781-.461a7.3,7.3,0,0,1,3.885,2.377,8.914,8.914,0,0,1,.542.743,2.5,2.5,0,0,0,1.575,1.285,8.12,8.12,0,0,0,2.719,0,10.973,10.973,0,0,1,2.615-.045,6.4,6.4,0,0,1,3.781,2.489,1.761,1.761,0,0,1,.3,1.419,3.946,3.946,0,0,1-2.05,2.229A8.632,8.632,0,0,1,161.6,117.01Z" transform="translate(-45.477 -35.218)"/><path d="M55.7,158.548a3.282,3.282,0,0,1-.386,0A2.407,2.407,0,0,1,53,156.453a11.143,11.143,0,0,1,.869-4.606c.141-.4.29-.825.423-1.263.483-1.545,3.618-3.4,7.666-5.676,1.114-.624,2.162-1.211,2.86-1.664,2.459-1.59,4.769-7.674,4.792-7.733a.551.551,0,1,1,1.033.386c-.1.267-2.459,6.493-5.2,8.276-.743.475-1.79,1.07-2.919,1.7-2.7,1.486-6.76,3.789-7.154,5.044-.141.446-.29.877-.431,1.293a10.177,10.177,0,0,0-.817,4.168c.045.654.743,1.01,1.367,1.077a2.971,2.971,0,0,0,3.083-2.392c1.166-4.108,5.943-5.988,7.652-6.366,3.306-.743,7.57-1.887,8.706-2.815,1.411-1.151,4.569-6.389,4.457-10.668a.557.557,0,0,1,.542-.565.579.579,0,0,1,.565.542c.089,4.532-3.165,10.133-4.9,11.552-1.619,1.322-7.429,2.659-9.167,3.038-1.486.312-5.809,2.013-6.827,5.586a4.064,4.064,0,0,1-3.908,3.179Z" transform="translate(-21.869 -42.878)"/><path d="M38.953,152.88a2.615,2.615,0,0,1-2.1-1.4A5.757,5.757,0,0,1,37.007,145a6.9,6.9,0,0,1,2.763-2.273,175.716,175.716,0,0,0,16.343-8.209.557.557,0,0,1,.743.193.55.55,0,0,1-.2.743,174.313,174.313,0,0,1-16.425,8.261,5.9,5.9,0,0,0-2.325,1.924,4.628,4.628,0,0,0-.126,5.2c.275.423.743.914,1.189.914h0c.386,0,1.2-.371,2.347-2.511a8.347,8.347,0,0,1,4.457-3.6c.513-.215,1.025-.446,1.53-.676a32.5,32.5,0,0,1,5.148-1.931c.453-.119.966-.23,1.486-.349,2.734-.594,6.478-1.4,7.429-3.96a.557.557,0,0,1,1.04.386c-1.181,3.127-5.26,4.012-8.238,4.658-.535.111-1.04.223-1.486.334a32.137,32.137,0,0,0-4.933,1.9l-1.545.683a7.553,7.553,0,0,0-3.93,3.113c-1.085,2.021-2.154,3.031-3.269,3.083Z" transform="translate(-17.321 -42.819)"/><path class="c" d="M77.48,109.7s3.506-4.821,10.044-.468C87.524,109.23,81.759,114.831,77.48,109.7Z" transform="translate(-28.221 -35.815)"/><path class="c" d="M79.836,93.77s-5.2,2.548-2.667,10.266C77.132,104.036,83.55,99.319,79.836,93.77Z" transform="translate(-27.949 -32.293)"/><path d="M76.377,105.528l-.327-.7C72.8,97.921,77.439,94.7,77.484,94.675l.409-.275.319.371c4.242,4.814-1.226,10.17-1.278,10.222Zm1.337-9.613c-.869.825-2.763,3.254-1,7.681,1.107-1.322,3.283-4.591,1-7.681Z" transform="translate(-27.539 -32.456)"/><path class="c" d="M72.785,109.789c-.787-3.068-5.089.542-6.032,1.278-2.741,2.132-5.468,4.242-8.3,6.24-.877.617-1.909.9-2.229,2.139-.394,1.486.951,3.573,2.273,2.6,3.5-2.578,7.184-4.948,10.534-7.763C70.073,113.444,73.282,111.713,72.785,109.789Z" transform="translate(-22.677 -36.123)"/><path d="M58.366,120.3a1.486,1.486,0,0,1-.906-.312,2.5,2.5,0,0,1-.817-2.667,3.254,3.254,0,0,1,1.723-1.775c.178-.1.364-.215.535-.334,2.526-1.761,4.97-3.618,7.325-5.416l.156-.119c1.6-1.241,3.61-2.593,4.925-2.125a1.6,1.6,0,0,1,1.01,1.27h0c.371,1.634-1.642,3.016-2.971,3.93-.245.171-.468.319-.624.446-1.991,1.619-4.13,3.113-6.2,4.554q-1.582,1.114-3.135,2.229a1.642,1.642,0,0,1-1.018.319Zm12.28-11.745c-.527,0-1.567.409-3.625,2l-.156.126c-2.37,1.8-4.821,3.662-7.369,5.438-.193.141-.4.26-.6.379-.565.334-1,.594-1.2,1.174a1.382,1.382,0,0,0,.409,1.426.446.446,0,0,0,.587,0q1.56-1.114,3.142-2.229c2.058-1.434,4.182-2.912,6.151-4.517.186-.141.423-.3.691-.49.951-.654,2.726-1.872,2.526-2.771h0c-.089-.394-.245-.453-.3-.475a.788.788,0,0,0-.23-.059Z" transform="translate(-22.775 -35.835)"/><path d="M80.457,110.554h-.282a5.438,5.438,0,0,1-3.952-2.132L76,108.095l.253-.349c0-.052,3.521-4.68,9.754-.557l.572.379-.5.483C85.947,108.147,83.429,110.554,80.457,110.554Zm-3.046-2.459a4.22,4.22,0,0,0,2.845,1.382,7.172,7.172,0,0,0,4.457-1.723C80.665,105.354,78.229,107.233,77.411,108.095Z" transform="translate(-27.836 -35.317)"/><path d="M91,103.6s8.5,4.806,13.372,2.971c6.8-2.526,10.482-5.386,11.96-6.834,2.31-2.281,3.818-10.519-3.714-10.72,0,0-1.486.119-9.7,5.988C100.108,96.991,95.272,101.426,91,103.6Z" transform="translate(-31.785 -31.069)"/><path d="M101.605,107.4c-4.888,0-10.809-3.313-11.143-3.477a.556.556,0,0,1,.022-.981A56.524,56.524,0,0,0,99.221,96.8c1.189-.951,2.229-1.768,3.068-2.377,7.964-5.668,9.709-6.069,9.977-6.092,3.714.1,5.2,1.931,5.772,3.462a8.478,8.478,0,0,1-1.6,8.172c-1.2,1.181-4.792,4.227-12.153,6.961a7.763,7.763,0,0,1-2.682.475Zm-9.657-3.967c2.288,1.144,8.32,3.841,11.975,2.481,7.161-2.659,10.608-5.572,11.76-6.686a7.429,7.429,0,0,0,1.345-7.005c-.691-1.746-2.229-2.674-4.65-2.756-.267.074-2.177.743-9.42,5.884-.832.587-1.842,1.4-3.016,2.34a65.215,65.215,0,0,1-7.978,5.728Z" transform="translate(-31.574 -30.891)"/><path d="M58.478,190a2.437,2.437,0,0,0-.743.409,2.534,2.534,0,1,0,3.135,3.982,2.674,2.674,0,0,0,.557-.6,2.6,2.6,0,0,0,4.019-3.291,2.5,2.5,0,0,0-1.567-.914l1.827-.743-1.434-1.827-1.166,1.619a2.5,2.5,0,0,0-.52-1.768A2.6,2.6,0,0,0,58.449,190Z" transform="translate(-22.827 -56.129)"/></svg>