<svg xmlns="http://www.w3.org/2000/svg" xmlns:xlink="http://www.w3.org/1999/xlink" width="128" height="200" viewBox="0 0 128 200"><defs><style>.a,.i{fill:none;}.b{fill:#fff;}.c{fill:#858585;}.d{fill:#ffe700;}.e{clip-path:url(#a);}.f{fill:#231815;}.g{fill:#c21823;}.h{fill:#ffb4c0;}.i{stroke:#000;stroke-linecap:round;stroke-linejoin:round;stroke-width:1.5px;}.j{clip-path:url(#b);}</style><clipPath id="a"><rect class="a" width="27.433" height="79.067"/></clipPath><clipPath id="b"><rect class="a" width="71.461" height="75.507"/></clipPath></defs><g transform="translate(-10.878 -10.853)"><g transform="translate(10.878 10.853)"><rect class="b" width="125.033" height="197.033" transform="translate(1.483 1.483)"/><path d="M138.878,210.853h-128v-200h128Zm-125.04-2.966H135.918V13.819H13.838Z" transform="translate(-10.878 -10.853)"/></g><g transform="translate(102.105 149.288)"><g transform="translate(0 3.781)"><path class="c" d="M169.46,236.559v21.412c-15.089-2.554-26.727-14.8-31.309-27.991-.8-2.3-4.255-27.416-3.819-27.311,17.979,4.3,32.478,16.219,35.128,33.89" transform="translate(-134.294 -202.669)"/></g><g transform="translate(2.242 2.062)"><path d="M170.984,257.047a.65.65,0,0,1-.1-.008c-13.33-2.407-25.081-13.6-29.937-28.51-.416-1.276-1.464-8.633-2.235-14.546-1.693-12.983-1.46-13.233-1.253-13.454a.574.574,0,0,1,.555-.162c18.616,4.75,31.148,17.656,33.519,34.524a.557.557,0,0,1-1.1.155c-2.278-16.2-14.224-28.653-32.015-33.424.256,3.863,2.857,24.316,3.589,26.562,4.732,14.529,16.145,25.425,29.076,27.759a.556.556,0,0,1-.1,1.1Z" transform="translate(-137.316 -200.35)"/></g><g transform="translate(2.246 2.062)"><path d="M170.985,253.964a.557.557,0,0,1-.472-.26l-33.106-52.5a.557.557,0,0,1,.771-.765c12.294,7.867,32.451,47.7,33.3,49.387a.556.556,0,1,1-.994.5c-.194-.385-18.263-36.095-30.453-47.041l31.421,49.828a.556.556,0,0,1-.469.853Z" transform="translate(-137.322 -200.35)"/></g><g transform="translate(3.664 15.299)"><path d="M147.464,220.492a.559.559,0,0,1-.085-.007l-7.673-1.181a.556.556,0,1,1,.169-1.1l7.673,1.18a.557.557,0,0,1-.084,1.107Z" transform="translate(-139.234 -218.199)"/></g><g transform="translate(4.553 18.554)"><path d="M149.433,224.257H149.4l-8.443-.558a.556.556,0,1,1,.073-1.109l8.443.558a.556.556,0,0,1-.036,1.111Z" transform="translate(-140.433 -222.588)"/></g><g transform="translate(5.108 22.803)"><path d="M152.395,230.528a.528.528,0,0,1-.059,0l-10.655-1.1a.556.556,0,0,1-.5-.61.55.55,0,0,1,.61-.5l10.656,1.1a.556.556,0,0,1-.056,1.109Z" transform="translate(-141.182 -228.318)"/></g><g transform="translate(6.7 31.975)"><path d="M158.293,241.8H143.884a.556.556,0,1,1,0-1.112h14.408a.556.556,0,1,1,0,1.112Z" transform="translate(-143.328 -240.685)"/></g><g transform="translate(8.334 35.281)"><path d="M146.088,246.581a.556.556,0,0,1-.013-1.112l14.859-.326a.556.556,0,0,1,.024,1.112l-14.858.326Z" transform="translate(-145.532 -245.142)"/></g><g transform="translate(11.615 40.741)"><path d="M150.512,254.089a.556.556,0,0,1-.019-1.112l14.637-.472a.557.557,0,0,1,.036,1.112l-14.637.472Z" transform="translate(-149.956 -252.505)"/></g><g transform="translate(5.109 25.543)"><path d="M154.344,234.174l-.047,0-12.605-1.049a.556.556,0,1,1,.093-1.108l12.605,1.049a.556.556,0,0,1-.046,1.11Z" transform="translate(-141.182 -232.012)"/></g><g transform="translate(17.714 10.831)"><path d="M158.735,222.9a.578.578,0,0,1-.156-.022.556.556,0,0,1-.377-.69l2.814-9.616a.556.556,0,0,1,1.067.313l-2.814,9.616A.556.556,0,0,1,158.735,222.9Z" transform="translate(-158.179 -212.174)"/></g><g transform="translate(20.528 13.56)"><path d="M162.529,227.03a.546.546,0,0,1-.167-.025.557.557,0,0,1-.363-.7l3.167-10.063a.557.557,0,0,1,1.062.335l-3.167,10.062A.557.557,0,0,1,162.529,227.03Z" transform="translate(-161.973 -215.854)"/></g><g transform="translate(22.624 17.362)"><path d="M165.374,233.044a.557.557,0,0,1-.478-.269c-.472-.782.778-4.638,3.716-11.458a.556.556,0,1,1,1.021.441c-1.944,4.513-3.868,9.644-3.755,10.5a.557.557,0,0,1-.505.789Zm.476-.844h0Z" transform="translate(-164.799 -220.98)"/></g><g transform="translate(24.427 18.832)"><path d="M167.788,236.558a.538.538,0,0,1-.166-.025.557.557,0,0,1-.365-.7l3.926-12.482a.556.556,0,0,1,1.062.333l-3.926,12.482A.558.558,0,0,1,167.788,236.558Z" transform="translate(-167.231 -222.962)"/></g><g transform="translate(27.974 23.623)"><path d="M172.571,244.4a.536.536,0,0,1-.132-.016.555.555,0,0,1-.409-.672l3.374-13.863a.556.556,0,0,1,1.081.263l-3.374,13.863A.556.556,0,0,1,172.571,244.4Z" transform="translate(-172.014 -229.423)"/></g><g transform="translate(32.177 34.099)"><path d="M178.238,255.718a.549.549,0,0,1-.138-.018.556.556,0,0,1-.4-.676l2.83-11.058a.564.564,0,0,1,.676-.4.556.556,0,0,1,.4.676l-2.83,11.058A.557.557,0,0,1,178.238,255.718Z" transform="translate(-177.681 -243.548)"/></g><g transform="translate(15.764 8.661)"><path d="M156.107,218.179a.558.558,0,0,1-.544-.676l1.713-7.82a.562.562,0,0,1,.662-.424.556.556,0,0,1,.425.662l-1.713,7.82A.556.556,0,0,1,156.107,218.179Z" transform="translate(-155.549 -209.248)"/></g><g transform="translate(15.764 46.423)"><path d="M170.561,261.278H156.106a.556.556,0,0,1,0-1.112h14.454a.556.556,0,1,1,0,1.112Z" transform="translate(-155.55 -260.166)"/></g><g transform="translate(18.78 49.367)"><path d="M173.468,265.248h-13.3a.556.556,0,0,1,0-1.112h13.3a.556.556,0,0,1,0,1.112Z" transform="translate(-159.617 -264.136)"/></g><g transform="translate(0.835)"><path class="d" d="M140.245,203.648l-.934-3.638c-.889-2.253-1.985-2.9-3.183-2.128-1.16.918-.916,2.173.88,3.729A22.745,22.745,0,0,0,140.245,203.648Z" transform="translate(-135.42 -197.57)"/></g><g transform="translate(1.021 0.188)"><path d="M141.052,205.012a.556.556,0,0,1-.245-.057,22.327,22.327,0,0,1-3.189-1.994l-.124-.088c-1.262-1.089-1.844-2.043-1.823-2.95a2.16,2.16,0,0,1,.919-1.669,2.1,2.1,0,0,1,1.854-.342c.867.279,1.584,1.162,2.191,2.7l.956,3.7a.557.557,0,0,1-.539.694Zm-3.18-6.077a1.179,1.179,0,0,0-.635.222,1.058,1.058,0,0,0-.454.79c-.009.377.226,1.038,1.4,2.052l.082.054c.639.454,1.256.891,1.933,1.3l-.616-2.4c-.436-1.093-.969-1.822-1.476-1.985A.72.72,0,0,0,137.872,198.935Z" transform="translate(-135.67 -197.824)"/></g></g><g transform="translate(12.607 108.64)"><g class="e"><g transform="translate(-7.339 5.445)"><g transform="translate(0 2.979)"><path class="c" d="M30.731,207.952,17.8,228.556C4.82,216.984,1.02,198.168,4.58,182.709c.621-2.7,12.465-28.951,12.822-28.587,14.7,15,21.455,35.225,13.329,53.83" transform="translate(-3.313 -154.119)"/></g><g transform="translate(2.102 2.898)"><path d="M19.775,228.761a.632.632,0,0,1-.426-.165C7.977,218.229,3.43,200.362,7.765,183.08c.371-1.479,3.807-9.192,6.636-15.347,6.213-13.515,6.573-13.61,6.922-13.7a.653.653,0,0,1,.632.179c15.044,15.817,19.3,35.805,11.4,53.468a.632.632,0,1,1-1.153-.517c7.594-16.965,3.621-36.162-10.616-51.5-2.088,3.871-11.938,25.123-12.592,27.727-4.223,16.839.177,34.217,11.21,44.275a.632.632,0,0,1-.426,1.1Z" transform="translate(-6.147 -154.01)"/></g><g transform="translate(16.819 2.901)"><path d="M26.765,225.794a.633.633,0,0,1-.633-.63l-.142-70.517a.632.632,0,0,1,1.2-.271c2.981,6.315,4.258,19.628,3.795,39.568-.343,14.8-1.569,27.939-1.582,28.071a.632.632,0,0,1-1.259-.119c.047-.487,4.229-45.764-.886-63.659l.134,66.925a.632.632,0,0,1-.63.633Z" transform="translate(-25.991 -154.013)"/></g><g transform="translate(10.188 16.495)"><path d="M24.352,179.379a.63.63,0,0,1-.413-.154l-6.671-5.771a.632.632,0,0,1,.828-.956l6.67,5.771a.632.632,0,0,1-.414,1.11Z" transform="translate(-17.05 -172.344)"/></g><g transform="translate(9.077 20.163)"><path d="M23.972,184.191a.631.631,0,0,1-.37-.12l-7.788-5.636a.632.632,0,0,1,.742-1.024l7.788,5.636a.632.632,0,0,1-.372,1.144Z" transform="translate(-15.553 -177.289)"/></g><g transform="translate(7.044 24.59)"><path d="M23.032,192.014a.632.632,0,0,1-.388-.134l-9.591-7.491a.632.632,0,0,1,.778-1l9.591,7.492a.632.632,0,0,1-.39,1.13Z" transform="translate(-12.811 -183.259)"/></g><g transform="translate(3.036 34.376)"><path d="M21.9,206.421a.631.631,0,0,1-.335-.1L7.7,197.621a.632.632,0,0,1,.673-1.071l13.864,8.7a.632.632,0,0,1-.337,1.167Z" transform="translate(-7.407 -196.454)"/></g><g transform="translate(2.415 38.857)"><path d="M21.695,212.421a.631.631,0,0,1-.324-.09L6.877,203.671a.632.632,0,0,1,.649-1.085l14.494,8.661a.632.632,0,0,1-.325,1.175Z" transform="translate(-6.57 -202.496)"/></g><g transform="translate(2.185 46.234)"><path d="M21.26,222.1a.638.638,0,0,1-.318-.087L6.573,213.621a.632.632,0,0,1,.638-1.092l14.369,8.389a.632.632,0,0,1-.32,1.178Z" transform="translate(-6.26 -212.443)"/></g><g transform="translate(5.389 27.226)"><path d="M22.707,196.7a.629.629,0,0,1-.378-.127l-11.5-8.624a.632.632,0,1,1,.759-1.011l11.5,8.624a.632.632,0,0,1-.38,1.138Z" transform="translate(-10.579 -186.813)"/></g><g transform="translate(20.597 22.383)"><path d="M31.718,189.1a.632.632,0,0,1-.419-1.105l8.517-7.553a.632.632,0,1,1,.839.946l-8.517,7.553A.634.634,0,0,1,31.718,189.1Z" transform="translate(-31.086 -180.282)"/></g><g transform="translate(21.387 26.922)"><path d="M32.783,195.437a.632.632,0,0,1-.41-1.113l9.126-7.769a.632.632,0,0,1,.819.962l-9.126,7.769A.63.63,0,0,1,32.783,195.437Z" transform="translate(-32.151 -186.403)"/></g><g transform="translate(20.588 32.208)"><path d="M31.706,203.068h-.011a.63.63,0,0,1-.621-.642c.018-1.039,3.549-3.994,10.495-8.781a.632.632,0,1,1,.717,1.04c-4.6,3.168-9.545,6.944-9.954,7.833A.631.631,0,0,1,31.706,203.068Zm.618-.53Zm.013-.091h0Z" transform="translate(-31.074 -193.531)"/></g><g transform="translate(20.493 34.809)"><path d="M31.579,207.941a.632.632,0,0,1-.41-1.113l11.317-9.639a.632.632,0,1,1,.819.962L31.988,207.79A.632.632,0,0,1,31.579,207.941Z" transform="translate(-30.946 -197.038)"/></g><g transform="translate(20.177 41.229)"><path d="M31.152,218.259a.632.632,0,0,1-.441-1.086l11.622-11.3a.632.632,0,1,1,.88.907l-11.621,11.3A.632.632,0,0,1,31.152,218.259Z" transform="translate(-30.52 -205.694)"/></g><g transform="translate(19.589 53.517)"><path d="M30.359,232.459a.632.632,0,0,1-.435-1.09l9.4-8.931a.632.632,0,1,1,.87.917l-9.4,8.931A.632.632,0,0,1,30.359,232.459Z" transform="translate(-29.726 -222.263)"/></g><g transform="translate(21.118 18.45)"><path d="M32.419,182.734a.632.632,0,0,1-.451-1.075l6.372-6.49a.632.632,0,0,1,.9.885l-6.372,6.49A.632.632,0,0,1,32.419,182.734Z" transform="translate(-31.788 -174.98)"/></g><g transform="translate(3.03 53.752)"><path d="M21.938,232.576a.634.634,0,0,1-.336-.1L7.695,223.747a.632.632,0,0,1,.672-1.071l13.908,8.732a.632.632,0,0,1-.337,1.167Z" transform="translate(-7.399 -222.581)"/></g><g transform="translate(4.154 58.409)"><path d="M22.338,238.154a.633.633,0,0,1-.335-.1L9.21,230.027a.632.632,0,0,1,.672-1.07l12.792,8.03a.632.632,0,0,1-.337,1.167Z" transform="translate(-8.915 -228.86)"/></g><g transform="translate(15.868 0.553)"><path class="d" d="M26.953,158.883l1.3-4.064c.505-2.705-.158-3.991-1.777-3.971-1.671.182-2.194,1.537-1.406,4.12A25.811,25.811,0,0,0,26.953,158.883Z" transform="translate(-24.709 -150.848)"/></g><g transform="translate(16.524)"><path d="M28.393,159.247a.558.558,0,0,1-.474-.264,25.392,25.392,0,0,1-1.855-3.828l-.07-.167c-.546-1.779-.532-3.028.022-3.869a2.377,2.377,0,0,1,1.837-1.017,2.249,2.249,0,0,1,1.924.764c.65.774.8,2.037.46,3.862l-1.314,4.132a.557.557,0,0,1-.463.382A.525.525,0,0,1,28.393,159.247Zm-.441-8.036h-.031a1.278,1.278,0,0,0-.976.52c-.351.532-.318,1.528.1,2.881l.05.116c.364.878.715,1.723,1.158,2.58l.911-2.852c.323-1.747.052-2.533-.234-2.874A1.192,1.192,0,0,0,27.953,151.211Z" transform="translate(-25.593 -150.102)"/></g></g></g></g><g transform="translate(47.084 87.042)"><g transform="translate(35.397 6.016)"><path class="f" d="M118.26,129.416a34.127,34.127,0,0,0,1.328,5.653.789.789,0,0,0,1.239.331l1.766-1.43s5.281-5.05,2.68-7.754c-1.951-2.028-5.409-2.1-7.015-2.015a8.033,8.033,0,0,1-2.283-.183,3.337,3.337,0,0,1-.925-.318,2.3,2.3,0,0,1-.694-1.212s.226.86-.857,1.685-4.419,2.077-4.806,3.625c-.351,1.4-.044,4.837,2.793,6.334a10.869,10.869,0,0,0,4.953,1.448,7.042,7.042,0,0,1,4.231,2.732,5.079,5.079,0,0,0,2.476,1.781l.619.258-1.171-6.379" transform="translate(-108.024 -121.941)"/><path class="f" d="M123.572,140.716a.552.552,0,0,1-.214-.043l-.619-.258a5.519,5.519,0,0,1-2.744-2.017,6.55,6.55,0,0,0-3.843-2.461c-.159-.027-.332-.042-.526-.059a10.724,10.724,0,0,1-4.592-1.445c-3.182-1.678-3.443-5.482-3.073-6.96.332-1.327,2.177-2.33,3.66-3.136a12.73,12.73,0,0,0,1.348-.8c.748-.57.656-1.1.652-1.118a.565.565,0,0,1,.409-.654.547.547,0,0,1,.665.364c.211.681.4.867.474.916a2.717,2.717,0,0,0,.742.238,7.545,7.545,0,0,0,2.125.169c1.9-.1,5.382.039,7.447,2.186a3.083,3.083,0,0,1,.874,2.285c-.052,2.482-2.584,5.255-3.355,6.042l1.118,6.091a.556.556,0,0,1-.547.657ZM114.3,123.761a3.149,3.149,0,0,1-.658.665,12.832,12.832,0,0,1-1.49.888c-1.155.628-2.9,1.577-3.113,2.43-.259,1.034-.143,4.306,2.513,5.707a9.625,9.625,0,0,0,4.169,1.321c.229.02.432.038.619.07a7.562,7.562,0,0,1,4.619,3,4.051,4.051,0,0,0,1.879,1.405l-.816-4.448-1.039.842a1.353,1.353,0,0,1-1.209.254,1.325,1.325,0,0,1-.9-.825,35.84,35.84,0,0,1-1.354-5.751.557.557,0,1,1,1.1-.19,33.443,33.443,0,0,0,1.3,5.555.219.219,0,0,0,.152.138.24.24,0,0,0,.215-.045l1.758-1.424.008-.007c.044-.044,3.144-3.059,3.192-5.446a1.986,1.986,0,0,0-.564-1.489c-1.822-1.893-5.216-1.924-6.583-1.845a8.7,8.7,0,0,1-2.441-.2,3.309,3.309,0,0,1-1.109-.4A1.467,1.467,0,0,1,114.3,123.761Z" transform="translate(-107.832 -121.75)"/></g><g transform="translate(24.757 49.646)"><path class="f" d="M112.273,228.39a11.208,11.208,0,0,1-4.315-1.092c-2.009-.9-2.367-2.134-2.861-3.838l-.166-.565-2.291-7.622c-.776-2.584-1.434-4.393-3.424-5.929l-.455-.349c-1.849-1.414-4.15-3.175-5.229-5.674a.556.556,0,1,1,1.021-.441c.963,2.232,3.138,3.9,4.884,5.231l.458.351c2.249,1.736,3,3.785,3.81,6.49l2.46,8.2c.471,1.625.708,2.441,2.249,3.135,1.2.538,4.152,1.665,5.719.458.323-.248.5-.478.5-.646,0-.313-.581-.767-1.006-1.1-.2-.159-.4-.314-.573-.469a22.845,22.845,0,0,1-3.985-5.26,10.427,10.427,0,0,1-1.543-7.057,15.666,15.666,0,0,1,.605-2.052c1.066-3.17,2.847-8.475.569-12.578-1.329-2.391.929-4.729,1.653-5.388a12.583,12.583,0,0,0,3.386-4.507,27.638,27.638,0,0,0,1.463-4.849c.387-1.64.481-1.994.8-2.184a.557.557,0,0,1,.7.85c-.091.212-.264.942-.417,1.589a28.335,28.335,0,0,1-1.538,5.062,13.536,13.536,0,0,1-3.644,4.861c-.571.52-2.362,2.348-1.431,4.026,2.518,4.531.564,10.348-.485,13.472a15.838,15.838,0,0,0-.563,1.876,9.446,9.446,0,0,0,1.4,6.307,21.852,21.852,0,0,0,3.778,5.007c.151.137.328.274.509.416.673.524,1.438,1.119,1.435,1.977a1.971,1.971,0,0,1-.938,1.525A4.078,4.078,0,0,1,112.273,228.39Zm4.3-46.777h0Z" transform="translate(-93.486 -180.579)"/></g><g transform="translate(3.798 6.006)"><path class="f" d="M72.83,219.827a7.277,7.277,0,0,1-5.961-3.556,12.913,12.913,0,0,1-1.632-7.4,39.133,39.133,0,0,1,1.584-9.023l.069-.251a12.8,12.8,0,0,0,.648-3.615,38.214,38.214,0,0,0-1.025-6.675,49.3,49.3,0,0,1-.886-4.968c-.614-5.98,2.51-13.26,9.668-15.6a14.841,14.841,0,0,0,6.348-4.243l.173-.192a49.36,49.36,0,0,0,4.888-6.018c1.608-2.493,3.166-4.768,4.815-7.177l.949-1.385c1.015-1.485,2.046-3.084,3.067-4.755a6.875,6.875,0,0,0-2.417-9.553c-.808-.464-1.685-.931-2.609-1.424-.724-.385-1.477-.786-2.249-1.213-5.768-3.194-2.407-10.639-2.372-10.714a.553.553,0,0,1,.673-.3l4.14,1.31a.556.556,0,1,1-.336,1.06l-3.653-1.155c-.587,1.534-2.083,6.511,2.088,8.822.767.424,1.514.823,2.233,1.206.937.5,1.821.969,2.641,1.441a7.987,7.987,0,0,1,2.812,11.1c-1.031,1.686-2.074,3.3-3.1,4.8l-.948,1.386c-1.646,2.4-3.2,4.671-4.8,7.152a50.217,50.217,0,0,1-5,6.16l-.173.192a15.972,15.972,0,0,1-6.829,4.556c-6.529,2.134-9.462,9.028-8.908,14.43a48.969,48.969,0,0,0,.867,4.852,38.933,38.933,0,0,1,1.049,6.883,13.67,13.67,0,0,1-.688,3.937l-.07.249a38.1,38.1,0,0,0-1.543,8.761,11.841,11.841,0,0,0,1.465,6.78,5.878,5.878,0,0,0,5.912,2.939.341.341,0,0,0,.222-.136c.38-.658-.487-2.014-.953-2.742l-.167-.263c-.162-.26-.319-.5-.468-.72a5.3,5.3,0,0,1-1.216-3.787c.044-.63.067-1.271.089-1.917A22.186,22.186,0,0,1,71.8,204c.723-2.655,2.608-3.809,4.6-5.03.352-.215.709-.434,1.064-.665a22.8,22.8,0,0,0,6.877-6.227c1.355-2.057,3.613-7.817,1.493-11.545a.557.557,0,0,1,.968-.55c2.395,4.212,0,10.38-1.532,12.708a23.805,23.805,0,0,1-7.2,6.549c-.365.236-.73.46-1.089.68-1.88,1.151-3.5,2.145-4.112,4.374a21.376,21.376,0,0,0-.527,4.807c-.023.659-.047,1.314-.091,1.956a4.252,4.252,0,0,0,1.032,3.093c.154.231.317.477.486.747l.16.252c.635.993,1.7,2.654.979,3.9a1.433,1.433,0,0,1-.954.667A5.371,5.371,0,0,1,72.83,219.827Z" transform="translate(-65.225 -121.736)"/></g><g transform="translate(28.549 0.001)"><path class="f" d="M117.745,133.49a1.359,1.359,0,0,1-.356-.048,1.324,1.324,0,0,1-.9-.824,35.807,35.807,0,0,1-1.354-5.753.557.557,0,0,1,.454-.643.564.564,0,0,1,.643.453,33.439,33.439,0,0,0,1.3,5.556.219.219,0,0,0,.151.137.232.232,0,0,0,.216-.045l1.767-1.431s3.143-3.042,3.192-5.447a1.987,1.987,0,0,0-.564-1.49c-1.822-1.893-5.216-1.923-6.583-1.844a8.676,8.676,0,0,1-2.441-.2,3.292,3.292,0,0,1-1.109-.4c-.74-.5-1.015-1.787-1.215-2.728-.036-.169-.068-.321-.1-.443a3.54,3.54,0,0,0-1.593-2.264c-.739-.481-3.94-1.652-4.44-1.281a1.126,1.126,0,0,0,.222.368,29.587,29.587,0,0,1,3.321,5.085.695.695,0,0,1-.617,1.014h-.052a3.678,3.678,0,0,0-2.823,1.42,1.086,1.086,0,0,1-.669.385c-.6.091-2.065.077-5.224-1.033a.557.557,0,1,1,.369-1.05c3.122,1.1,4.375,1.03,4.685.984a4.813,4.813,0,0,1,3.044-1.771,28.26,28.26,0,0,0-2.893-4.327,1.758,1.758,0,0,1-.451-.97,1.078,1.078,0,0,1,.524-1.063c1.382-.814,5.323,1.119,5.611,1.307a4.632,4.632,0,0,1,2.065,2.926c.033.132.069.3.108.481.124.581.381,1.791.748,2.038a2.648,2.648,0,0,0,.742.238,7.445,7.445,0,0,0,2.125.17c1.9-.1,5.382.039,7.447,2.185a3.085,3.085,0,0,1,.874,2.285c-.06,2.867-3.427,6.12-3.57,6.257l-1.8,1.461A1.362,1.362,0,0,1,117.745,133.49Z" transform="translate(-98.599 -113.639)"/></g><g transform="translate(49.409 17.13)"><path class="f" d="M138.375,164.2a4.533,4.533,0,0,1-.726-.055c-.455-.075-.951-.165-1.469-.259-2.193-.4-5.508-1-6.429-.346a.556.556,0,0,1-.644-.907c1.209-.858,3.777-.475,7.272.158.511.093,1,.182,1.451.255,2.007.327,5.924-1.351,9.382-2.834,4.162-1.784,6.571-2.757,7.678-2.01,1.178.8,2.2,1.035,2.884.667a1.9,1.9,0,0,0,.817-1.778,5.057,5.057,0,0,0-3.024-4.222c-1.428-.716-6.038.813-9.741,2.039-3.782,1.253-7.046,2.332-8.667,1.967a10.064,10.064,0,0,1-7.788-6.885c-.145-.464-2.218-10.564-2.633-12.584a.556.556,0,0,1,1.089-.223c.983,4.793,2.488,12.073,2.605,12.479a8.991,8.991,0,0,0,6.972,6.127c1.322.3,4.753-.839,8.072-1.938,4.5-1.491,8.748-2.9,10.587-1.978a6.175,6.175,0,0,1,3.639,5.2,2.974,2.974,0,0,1-1.4,2.774c-.616.334-1.961.682-4.037-.725-.656-.446-4.1,1.033-6.615,2.111C144.246,162.691,140.737,164.2,138.375,164.2Z" transform="translate(-126.726 -136.735)"/></g><g transform="translate(42.774 37.755)"><path class="f" d="M142.423,190.335a4.449,4.449,0,0,1-3.33-1.748c-1.834-2.064-4.429-3.362-6.938-4.617a38.61,38.61,0,0,1-4.593-2.564,59.521,59.521,0,0,1-4.677-3.694c-.541-.458-1.081-.914-1.626-1.363a4.172,4.172,0,0,0-1.381-.871,1.04,1.04,0,0,0-1.1.242.556.556,0,1,1-.9-.659,2.12,2.12,0,0,1,2.3-.651,5.071,5.071,0,0,1,1.777,1.081c.549.452,1.092.912,1.638,1.373a58.426,58.426,0,0,0,4.587,3.626,38.031,38.031,0,0,0,4.462,2.487c2.6,1.3,5.3,2.649,7.272,4.873a3.139,3.139,0,0,0,3.01,1.313,1.768,1.768,0,0,0,1.3-1.078,5.384,5.384,0,0,0-.611-3.286,6.394,6.394,0,0,0-2.041-2.77,2.479,2.479,0,0,0-.252-.147,4.51,4.51,0,0,0-1.032-.323l-.445-.1a13.427,13.427,0,0,1-1.686-.432,13.049,13.049,0,0,1-1.907-.866,17.435,17.435,0,0,1-3.41-2.441,23.92,23.92,0,0,1-1.935-1.976l-.185-.21a43.661,43.661,0,0,1-5.858-7.777,4.773,4.773,0,0,0-1.907-2c-.1-.05-.2-.1-.306-.147a.556.556,0,1,1,.448-1.018c.13.057.256.118.376.181a5.881,5.881,0,0,1,2.369,2.458,42.757,42.757,0,0,0,5.715,7.572l.184.211A22.857,22.857,0,0,0,133.6,176.9a16.4,16.4,0,0,0,3.19,2.286,11.993,11.993,0,0,0,1.745.795,12.378,12.378,0,0,0,1.549.394l.458.1a5.566,5.566,0,0,1,1.29.415,3.467,3.467,0,0,1,.368.213,7.4,7.4,0,0,1,2.441,3.239,6.373,6.373,0,0,1,.676,4.014,2.869,2.869,0,0,1-2.112,1.89A3.267,3.267,0,0,1,142.423,190.335Z" transform="translate(-117.78 -164.546)"/></g><g transform="translate(0 33.701)"><path class="f" d="M66.955,185.388a.551.551,0,0,1-.359-.132c-4.431-3.749-6.615-8.383-6.487-13.774.13-5.475,2.737-9.425,7.542-11.424a10.642,10.642,0,0,1,7.03-.624,7.635,7.635,0,0,1,5.065,5.108,4.888,4.888,0,0,1,.09,2.361c0,.016-.379,1.568-1.151,1.623a.7.7,0,0,1-.69-.488c-.713-1.9-2.611-3.836-5.071-3.569-2.707.29-4.626,2.9-5.446,5.055-1.669,4.373,1.077,8.265,4.651,9.852a.556.556,0,1,1-.45,1.017c-4.727-2.1-6.932-6.835-5.242-11.266.934-2.444,3.161-5.421,6.368-5.764a6.056,6.056,0,0,1,5.877,3.493c.033-.085.058-.159.07-.2a3.754,3.754,0,0,0-.078-1.809,6.583,6.583,0,0,0-4.313-4.344,9.543,9.543,0,0,0-6.285.585c-4.367,1.817-6.739,5.421-6.857,10.423-.121,5.109,1.872,9.329,6.093,12.9a.556.556,0,0,1-.36.98Z" transform="translate(-60.104 -159.079)"/></g><g transform="translate(32.333 22.575)"><path class="g" d="M124.118,148.912c1.436-2.728-4.316-3.111-5.541-3.237-3.55-.366-7.076-.73-10.609-1.253-1.091-.161-2.085-.674-3.171-.024-1.285.769-1.641,3.2.033,3.415,4.437.567,8.881,1.407,13.357,1.707C119.573,149.65,123.218,150.622,124.118,148.912Z" transform="translate(-103.701 -144.077)"/></g><g transform="translate(41.325 9.365)"><path class="b" d="M117.931,128.54a.557.557,0,0,1-.478-.27,6.919,6.919,0,0,0-1.353-.968.556.556,0,1,1,.564-.959,6.337,6.337,0,0,1,1.743,1.353.556.556,0,0,1-.475.843Z" transform="translate(-115.826 -126.266)"/></g><g transform="translate(13.419 33.745)"><path class="f" d="M96.473,159.89s3.532,9.085,1.055,13.626c-3.468,6.358-6.819,9.586-8.462,10.835-2.58,1.961-10.939,2.27-10.052-5.231C79.014,179.12,85.819,177.636,96.473,159.89Z" transform="translate(-78.392 -159.333)"/><path class="f" d="M84.613,185.9A7.637,7.637,0,0,1,80.864,185c-1.419-.812-3.023-2.536-2.6-6.143a.557.557,0,0,1,.434-.478c.062-.015,6.766-1.757,17.1-18.973a.544.544,0,0,1,.524-.268.556.556,0,0,1,.472.353c.148.38,3.6,9.379,1.026,14.093-3.753,6.881-7.274,9.993-8.613,11.012A7.978,7.978,0,0,1,84.613,185.9Zm-5.276-6.549c-.179,2.223.52,3.8,2.08,4.692a7.456,7.456,0,0,0,7.119-.324c1.283-.975,4.66-3.967,8.311-10.659,1.833-3.361.119-9.556-.7-12.063C87.128,175.692,80.935,178.766,79.337,179.347Z" transform="translate(-78.198 -159.139)"/></g><g transform="translate(23.55 6.008)"><path class="f" d="M96.863,123.562l-3.4-1.074s-.849,3.15-.86,3.2A6.9,6.9,0,0,0,96.863,123.562Z" transform="translate(-92.052 -121.932)"/><path class="f" d="M92.414,126.055a.557.557,0,0,1-.547-.659c.005-.028.014-.076.869-3.248a.556.556,0,0,1,.705-.385l3.4,1.074a.556.556,0,0,1,.251.9,7.422,7.422,0,0,1-4.631,2.321ZM93.66,123c-.134.5-.331,1.228-.484,1.795a6.47,6.47,0,0,0,2.434-1.178Z" transform="translate(-91.858 -121.738)"/></g><g transform="translate(33.719)"><path class="f" d="M114.038,120.709s.6.326-2.388.581c-.733.063-2.149.348-2.709.464a11.343,11.343,0,0,0-2.572.9h0a4.25,4.25,0,0,1,3.406-1.757.14.14,0,0,0,.127-.205,29.021,29.021,0,0,0-3.254-4.984,1.231,1.231,0,0,1-.325-.659c-.133-1.721,4.672.36,5.276.753a4.249,4.249,0,0,1,1.681,2.714,12.473,12.473,0,0,0,.758,2.192" transform="translate(-105.764 -113.829)"/><path class="f" d="M106.174,123.022a.556.556,0,0,1-.438-.9,4.889,4.889,0,0,1,3.181-1.926,28.27,28.27,0,0,0-2.893-4.326,1.762,1.762,0,0,1-.449-.972,1.073,1.073,0,0,1,.523-1.061c1.38-.82,5.323,1.118,5.611,1.306a4.8,4.8,0,0,1,1.915,3.036,12.308,12.308,0,0,0,.669,1.993.624.624,0,0,1,.145.541c-.1.484-.548.735-2.934.939-.721.062-2.2.363-2.642.455a10.766,10.766,0,0,0-2.431.851A.559.559,0,0,1,106.174,123.022Zm7.4-2.016h0Zm-6.581-6.279a.577.577,0,0,0-.331.071,1.146,1.146,0,0,0,.222.369,29.668,29.668,0,0,1,3.318,5.081.692.692,0,0,1,.065.459c.423-.072.837-.133,1.141-.159a15.278,15.278,0,0,0,1.734-.222,17.163,17.163,0,0,1-.594-1.855,3.734,3.734,0,0,0-1.447-2.392A12.551,12.551,0,0,0,106.992,114.726Z" transform="translate(-105.57 -113.638)"/></g><g transform="translate(38.845 11.797)"><path class="b" d="M114.449,130.933a.558.558,0,0,1-.221-.047,2.167,2.167,0,0,0-1-.219.556.556,0,0,1-.377-1.047,2.9,2.9,0,0,1,1.824.246.557.557,0,0,1-.224,1.066Z" transform="translate(-112.482 -129.545)"/></g><g transform="translate(44.99 12.937)"><path class="b" d="M123.395,138.356a1.362,1.362,0,0,1-.364-.048,1.324,1.324,0,0,1-.9-.825,35.76,35.76,0,0,1-1.354-5.751.558.558,0,0,1,.453-.644.565.565,0,0,1,.644.454,33.63,33.63,0,0,0,1.3,5.555.22.22,0,0,0,.153.138.242.242,0,0,0,.216-.045l.923-.607a20.893,20.893,0,0,0,1.933-1.524,20.079,20.079,0,0,0,2.62-2.915.556.556,0,1,1,.881.679,21.11,21.11,0,0,1-2.768,3.073,21.335,21.335,0,0,1-2.058,1.617l-.878.575A1.271,1.271,0,0,1,123.395,138.356Z" transform="translate(-120.768 -131.081)"/></g><g transform="translate(33.742 21.537)"><path d="M122.1,148.693a15.891,15.891,0,0,1-2.452-.26c-.308-.049-.579-.093-.788-.115-2.625-.212-5.284-.621-7.855-1.015-1.3-.2-2.606-.4-3.908-.577a1.63,1.63,0,0,1-1.468-1.356,2.35,2.35,0,0,1,1.194-2.392,3.356,3.356,0,0,1,2.485-.113c.21.048.423.1.641.13,3.155.483,6.282.836,9.3,1.177l.207.022c2.092.222,4.577.639,5.228,1.9a1.578,1.578,0,0,1-.1,1.563h0A2.664,2.664,0,0,1,122.1,148.693Zm-14.046-4.9a1.482,1.482,0,0,0-.713.17,1.25,1.25,0,0,0-.616,1.214.527.527,0,0,0,.521.449c1.308.176,2.616.378,3.928.578,2.552.392,5.191.8,7.789,1.008.238.025.531.071.863.125,1.092.175,3.366.541,3.8-.223h0c.175-.309.1-.447.075-.507-.211-.408-1.136-.966-4.356-1.307l-.214-.023c-3.033-.342-6.171-.7-9.348-1.183-.244-.036-.482-.091-.719-.145A4.728,4.728,0,0,0,108.057,143.79Z" transform="translate(-105.602 -142.678)"/></g><g transform="translate(51.995 26.969)"><path class="g" d="M130.214,150.047s5.932-1.015,8.135,6.581C138.349,156.628,130.126,156.644,130.214,150.047Z" transform="translate(-130.213 -150.002)"/></g><g transform="translate(53.365 19.748)"><path class="g" d="M140.973,140.456s-5.753-1.767-8.913,5.482C132.06,145.938,140.213,147.009,140.973,140.456Z" transform="translate(-132.06 -140.266)"/></g><g transform="translate(51.87 25.32)"><path d="M137.871,154.807c-.2,0-4.013-.032-6.253-2.3a5.561,5.561,0,0,1-1.573-4.149l.006-.463.457-.079c.056-.01,5.815-.907,7.9,6.276l.205.71h-.742Zm-6.7-5.931a4.36,4.36,0,0,0,1.235,2.848,7.992,7.992,0,0,0,4.686,1.919C135.5,149.221,132.366,148.849,131.172,148.877Z" transform="translate(-130.045 -147.779)"/></g><g transform="translate(52.221 19.107)"><path d="M131.26,146.429h-.742l.206-.71c2.084-7.182,7.844-6.286,7.9-6.276l.456.078.007.463a5.567,5.567,0,0,1-1.573,4.149C135.274,146.4,131.466,146.429,131.26,146.429Zm6.612-5.928c-1.261,0-4.283.475-5.832,4.763a7.99,7.99,0,0,0,4.686-1.919,4.352,4.352,0,0,0,1.235-2.843Z" transform="translate(-130.518 -139.401)"/></g><g transform="translate(33.436 50.751)"><path class="h" d="M105.307,192.03s4.178-15.107,10.277-8.11-5.983,15.432-5.983,15.432S104.343,201.018,105.307,192.03Z" transform="translate(-105.189 -182.07)"/></g></g><g transform="translate(104.987 151.918)"><path class="i" d="M138.072,201.1" transform="translate(-138.072 -201.1)"/></g><g transform="translate(11.743 163.751)"><g transform="translate(0 1.392)"><path class="c" d="M12.045,245.338v16.673c12.582-1.989,22.286-11.526,26.105-21.8.666-1.79,3.549-21.347,3.185-21.266-14.991,3.35-27.081,12.629-29.291,26.389" transform="translate(-12.045 -218.949)"/></g><g transform="translate(0.679 1.415)"><path d="M13.517,261.913a.557.557,0,0,1-.094-1.105c10.073-1.749,18.962-9.913,22.647-20.8.533-1.576,2.515-16.477,2.785-19.76-13.776,3.608-23.02,12.91-24.787,24.994a.557.557,0,0,1-1.1-.161c1.864-12.749,11.7-22.5,26.313-26.089a.578.578,0,0,1,.551.167c.211.231.379.413-.954,10.238-.6,4.454-1.425,10-1.754,10.967-3.813,11.266-13.042,19.721-23.51,21.539A.6.6,0,0,1,13.517,261.913Z" transform="translate(-12.961 -218.979)"/></g><g transform="translate(0.68 1.414)"><path d="M13.517,259.592a.556.556,0,0,1-.464-.861l24.026-36.653c-9.485,8.881-22.921,34.426-23.068,34.707a.556.556,0,0,1-.985-.516c.667-1.275,16.449-31.274,26.095-37.21a.556.556,0,0,1,.757.779l-25.895,39.5A.555.555,0,0,1,13.517,259.592Z" transform="translate(-12.962 -218.978)"/></g><g transform="translate(19.463 11.374)"><path d="M38.844,234.407a.556.556,0,0,1-.081-1.107l6-.888a.556.556,0,1,1,.162,1.1l-6,.888A.613.613,0,0,1,38.844,234.407Z" transform="translate(-38.289 -232.408)"/></g><g transform="translate(18.166 13.82)"><path d="M37.095,237.241a.556.556,0,0,1-.035-1.111l6.6-.421a.549.549,0,0,1,.59.52.556.556,0,0,1-.519.59l-6.6.42Z" transform="translate(-36.539 -235.706)"/></g><g transform="translate(16.002 17.019)"><path d="M34.177,241.958a.556.556,0,0,1-.054-1.109l8.334-.825a.545.545,0,0,1,.608.5.556.556,0,0,1-.5.608l-8.334.825A.477.477,0,0,1,34.177,241.958Z" transform="translate(-33.621 -240.02)"/></g><g transform="translate(11.82 23.921)"><path d="M39.809,250.438H28.539a.556.556,0,0,1,0-1.112h11.27a.556.556,0,1,1,0,1.112Z" transform="translate(-27.983 -249.326)"/></g><g transform="translate(10.19 26.407)"><path d="M37.963,254.036h-.012l-11.622-.245a.556.556,0,0,1,.024-1.112l11.621.245a.556.556,0,0,1-.011,1.112Z" transform="translate(-25.785 -252.678)"/></g><g transform="translate(7.796 30.516)"><path d="M34.562,259.687h-.018L23.1,259.331a.557.557,0,0,1-.539-.573.578.578,0,0,1,.574-.539l11.449.355a.556.556,0,0,1-.017,1.112Z" transform="translate(-22.557 -258.219)"/></g><g transform="translate(14.475 19.083)"><path d="M32.118,244.7a.556.556,0,0,1-.043-1.111l9.86-.789a.571.571,0,0,1,.6.511.556.556,0,0,1-.51.6l-9.86.789Z" transform="translate(-31.563 -242.803)"/></g><g transform="translate(12.274 8.012)"><path d="M31.353,236.221a.557.557,0,0,1-.532-.394l-2.2-7.235a.556.556,0,0,1,1.064-.324l2.2,7.235a.555.555,0,0,1-.532.718Z" transform="translate(-28.596 -227.874)"/></g><g transform="translate(9.797 10.064)"><path d="M28.288,239.327a.555.555,0,0,1-.528-.383l-2.478-7.571a.556.556,0,1,1,1.057-.346l2.478,7.571a.557.557,0,0,1-.355.7A.562.562,0,0,1,28.288,239.327Z" transform="translate(-25.255 -230.642)"/></g><g transform="translate(7.688 12.925)"><path d="M25.9,243.852a.555.555,0,0,1-.514-.766c.029-.719-1.483-4.58-2.926-7.8a.556.556,0,1,1,1.015-.455c3.5,7.806,3.061,8.5,2.9,8.762A.558.558,0,0,1,25.9,243.852ZM25.43,243h0Z" transform="translate(-22.411 -234.5)"/></g><g transform="translate(6.153 14.032)"><path d="M23.968,246.5a.557.557,0,0,1-.529-.383l-3.07-9.391a.556.556,0,1,1,1.057-.346l3.071,9.391a.557.557,0,0,1-.355.7A.572.572,0,0,1,23.968,246.5Z" transform="translate(-20.342 -235.992)"/></g><g transform="translate(3.81 17.636)"><path d="M20.378,252.4a.557.557,0,0,1-.539-.42L17.2,241.545a.557.557,0,0,1,1.079-.273L20.918,251.7a.556.556,0,0,1-.4.676A.545.545,0,0,1,20.378,252.4Z" transform="translate(-17.182 -240.852)"/></g><g transform="translate(0.948 25.516)"><path d="M16.093,260.911a.556.556,0,0,1-.537-.414l-2.214-8.321a.556.556,0,0,1,1.075-.285l2.213,8.32a.556.556,0,0,1-.395.68A.531.531,0,0,1,16.093,260.911Z" transform="translate(-13.324 -251.477)"/></g><g transform="translate(14.661 6.378)"><path d="M33.71,232.667a.556.556,0,0,1-.542-.432l-1.339-5.883a.556.556,0,0,1,1.085-.248l1.339,5.883a.557.557,0,0,1-.543.68Z" transform="translate(-31.814 -225.671)"/></g><g transform="translate(4.695 34.79)"><path d="M30.238,265.094H18.932a.556.556,0,1,1,0-1.112H30.238a.556.556,0,1,1,0,1.112Z" transform="translate(-18.376 -263.982)"/></g><g transform="translate(3.242 37.006)"><path d="M27.372,268.082h-10.4a.556.556,0,1,1,0-1.112h10.4a.556.556,0,1,1,0,1.112Z" transform="translate(-16.417 -266.97)"/></g><g transform="translate(24.894)"><path class="d" d="M48.144,220.112c1.405-1.171,1.6-2.115.688-2.806-.937-.582-1.794-.094-2.49,1.6l-.73,2.737A17.8,17.8,0,0,0,48.144,220.112Z" transform="translate(-45.612 -217.071)"/></g><g transform="translate(23.758 0.003)"><path d="M44.636,222.761a.556.556,0,0,1-.538-.7l.731-2.737c.509-1.253,1.089-1.942,1.794-2.17a1.844,1.844,0,0,1,2.343,1.638,3.155,3.155,0,0,1-1.442,2.307.412.412,0,0,1-.042.031l-.1.069a17.643,17.643,0,0,1-2.507,1.508A.55.55,0,0,1,44.636,222.761Zm2.5-4.576a.533.533,0,0,0-.169.027c-.208.068-.626.348-1.085,1.465L45.5,221.1c.429-.261.834-.537,1.25-.822l.079-.053c.9-.755,1.027-1.208,1.023-1.412,0-.063-.006-.257-.336-.507A.733.733,0,0,0,47.135,218.185Zm.033,2.486h0Z" transform="translate(-44.08 -217.076)"/></g></g><g transform="translate(10.878 10.853)"><path d="M138.878,210.853h-128v-200h128Zm-125.04-2.966H135.918V13.819H13.838Z" transform="translate(-10.878 -10.853)"/></g><g transform="translate(118.255 19.738)"><path d="M165.26,27.152a3.34,3.34,0,0,0,.161-1.03,3.213,3.213,0,1,0-6.424,0,3.318,3.318,0,0,0,.162,1.03,3.291,3.291,0,0,0,.123,6.575,3.156,3.156,0,0,0,2.139-.838l-.692,2.4h2.941l-.7-2.425a3.157,3.157,0,0,0,2.166.863,3.291,3.291,0,0,0,.123-6.575Z" transform="translate(-156.07 -22.834)"/></g><g transform="translate(12.361 12.336)"><g class="j"><g transform="translate(-14.836 -11.075)"><path d="M55.781,27.481a22.8,22.8,0,0,0,1.1-7.052C56.883,8.017,47.021-2.08,34.9-2.08S12.913,8.017,12.913,20.429a22.817,22.817,0,0,0,1.1,7.052A22.3,22.3,0,0,0-7.126,49.974c0,12.412,9.862,22.509,21.985,22.509A21.607,21.607,0,0,0,29.5,66.748L24.766,83.177H44.9l-4.783-16.6a21.624,21.624,0,0,0,14.825,5.906c12.122,0,21.985-10.1,21.985-22.509A22.3,22.3,0,0,0,55.781,27.481Z" transform="translate(7.126 2.08)"/></g></g></g><g transform="translate(22.291 19.955)"><path class="b" d="M36.507,37.029a5.382,5.382,0,0,1-1.079-.544c-.323-.214-.707-.494-1.154-.841q-.729-.565-1.227-.878a3.058,3.058,0,0,0-1.02-.417,5.066,5.066,0,0,1-1.072.119,4.526,4.526,0,0,1-2.56-.7A4.285,4.285,0,0,1,26.8,31.8a7.589,7.589,0,0,1-.535-2.955,6.638,6.638,0,0,1,.647-3.006,4.86,4.86,0,0,1,1.778-2,4.73,4.73,0,0,1,2.561-.708,4.345,4.345,0,0,1,3.541,1.467,6.151,6.151,0,0,1,1.221,4.056,6.606,6.606,0,0,1-.8,3.319,4.81,4.81,0,0,1-2.151,2.039,4.233,4.233,0,0,1,1.295.328,14.209,14.209,0,0,1,1.474.759,16.756,16.756,0,0,0,1.518.745,3.112,3.112,0,0,0,1.191.238,3.248,3.248,0,0,0,.461-.03l.179.64a1.7,1.7,0,0,1-.639.424,2.173,2.173,0,0,1-.775.141A3.564,3.564,0,0,1,36.507,37.029ZM33.4,32.392a6.877,6.877,0,0,0,.834-3.729,6.491,6.491,0,0,0-.8-3.5A2.543,2.543,0,0,0,31.164,23.9a2.62,2.62,0,0,0-2.284,1.25,6.638,6.638,0,0,0-.842,3.691,6.65,6.65,0,0,0,.811,3.535,2.539,2.539,0,0,0,2.269,1.3A2.583,2.583,0,0,0,33.4,32.392Z" transform="translate(-26.267 -23.126)"/></g></g></svg>