<svg xmlns="http://www.w3.org/2000/svg" xmlns:xlink="http://www.w3.org/1999/xlink" width="128" height="200" viewBox="0 0 128 200"><defs><style>.a{fill:none;}.b{fill:#fff;}.c{clip-path:url(#a);}.d{fill:#c21823;}.e{fill:#170000;}</style><clipPath id="a"><rect class="a" width="82.317" height="82.317"/></clipPath></defs><rect class="b" width="125.04" height="197.04" transform="translate(1.48 1.48)"/><path d="M138.88,210.85h-128v-200h128ZM13.84,207.884H135.92V13.816H13.84Z" transform="translate(-10.88 -10.85)"/><path d="M146.939,174.1a2.96,2.96,0,0,0-.74.333,2.525,2.525,0,0,0,2.708,4.262,2.752,2.752,0,0,0,.622-.548,2.584,2.584,0,0,0,4.307-2.856,2.494,2.494,0,0,0-1.48-1.066l1.88-.555-1.243-1.946-1.31,1.48a2.531,2.531,0,0,0-.34-1.806,2.6,2.6,0,0,0-4.44,2.694Z" transform="translate(-45.775 -52.021)"/><path d="M117.857,166.956a2.538,2.538,0,1,0,.37,4.973,2.753,2.753,0,0,0,.74-.311,2.59,2.59,0,1,0,3.959-2.8l1.968.089-.548-2.22-1.724.984a2.472,2.472,0,0,0,.259-1.813,2.59,2.59,0,0,0-5.047,1.125Z" transform="translate(-37.972 -50.427)"/><path d="M159.217,140.139a2.73,2.73,0,0,0-.8.185,2.525,2.525,0,0,0,1.85,4.7,2.709,2.709,0,0,0,.74-.414,2.59,2.59,0,0,0,4.773-1.991,2.509,2.509,0,0,0-1.228-1.325l1.954-.185-.851-2.146-1.569,1.206a2.494,2.494,0,0,0,0-1.835,2.59,2.59,0,0,0-4.847,1.806Z" transform="translate(-48.843 -43.395)"/><path d="M167.487,156.433a2.634,2.634,0,0,0-.318.74,2.526,2.526,0,1,0,4.9,1.236,2.738,2.738,0,0,0,.074-.814,2.59,2.59,0,0,0,1.177-5.039,2.509,2.509,0,0,0-1.8.229l.992-1.695-2.22-.57.067,1.983a2.5,2.5,0,0,0-1.48-1.073,2.59,2.59,0,0,0-1.369,4.988Z" transform="translate(-51.164 -46.946)"/><g class="c" transform="translate(44.381 37.631)"><path d="M120.023,86.1l6.216-3.7s1.48-.74-1.48-2.96c-2.22-1.665-8.5.614-10,1.006a17.86,17.86,0,0,1-3.426-.333,2.8,2.8,0,0,1-.932-.148,2.331,2.331,0,0,1-.858-1.006,1.85,1.85,0,0,1-.5,1.865c-.873,1.036-3.781,2.96-3.87,4.558-.074,1.48.836,4.884,3.774,5.846a9.738,9.738,0,0,0,4.921.518,6.487,6.487,0,0,1,4.44,1.946,4.743,4.743,0,0,0,2.649,1.325l.629.141-2.257-6.2" transform="translate(-79.797 -66.03)"/><path d="M121.429,95.5h-.118l-.629-.141a5.18,5.18,0,0,1-2.96-1.48,6.147,6.147,0,0,0-4.033-1.739,2.444,2.444,0,0,0-.5.037,9.62,9.62,0,0,1-4.6-.585c-3.293-1.088-4.233-4.847-4.151-6.4.074-1.376,1.621-2.738,2.871-3.826a14.224,14.224,0,0,0,1.125-1.11,1.376,1.376,0,0,0,.414-1.295.562.562,0,0,1,.289-.74.548.548,0,0,1,.74.252c.333.666.548.807.607.836a2.694,2.694,0,0,0,.74.1,10.973,10.973,0,0,1,1.169.155,7.977,7.977,0,0,0,2.094.192l.836-.244c2.435-.74,7.511-2.279,9.62-.666,1.48,1.11,2.124,2.05,2.042,2.879a1.265,1.265,0,0,1-.666,1l-6.186,3.648a.555.555,0,0,1-.555-.955l6.216-3.7a.155.155,0,0,0,.1-.148c0-.1-.044-.688-1.613-1.88-1.68-1.273-6.741.259-8.651.836-.363.111-.666.207-.873.259a7.289,7.289,0,0,1-2.553-.17c-.422-.067-.821-.133-1.043-.148a2.96,2.96,0,0,1-1.132-.192,1.324,1.324,0,0,1-.237-.141,3.433,3.433,0,0,1-.481.74,14.511,14.511,0,0,1-1.243,1.177c-1.036.9-2.449,2.139-2.494,3.056-.074,1.436.844,4.44,3.389,5.3a8.562,8.562,0,0,0,4.144.533c.215,0,.414-.044.592-.044a6.892,6.892,0,0,1,4.914,2.153,3.759,3.759,0,0,0,1.983,1.043l-1.909-5.247a.555.555,0,0,1,.333-.74.548.548,0,0,1,.74.333l2.22,6.2a.548.548,0,0,1-.518.74Z" transform="translate(-79.604 -65.846)"/><path d="M136.522,133.18a26.066,26.066,0,0,1-4.048-.3.555.555,0,0,1-.466-.629.548.548,0,0,1,.629-.459A27.38,27.38,0,0,0,144.188,131c.873-.37,3.4-1.569,4.144-2.5.977-1.214,9.22-6.86,13.468-5.92a.55.55,0,1,1-.244,1.073c-3.545-.8-11.322,4.218-12.358,5.513s-4.255,2.694-4.618,2.842A27.172,27.172,0,0,1,136.522,133.18Z" transform="translate(-86.772 -77.377)"/><path d="M110.879,118.64a.637.637,0,0,1-.274-.074c-5.676-3.256-9.013-9.687-8.14-15.644a7.23,7.23,0,0,0-4.322-7.94c-.844-.318-1.761-.622-2.731-.947-.74-.244-1.48-.5-2.316-.784-5.964-2.124-4.181-10.219-4.137-10.3a.548.548,0,0,1,.607-.422l4.129.533a.54.54,0,0,1,.474.614.548.548,0,0,1-.614.474l-3.619-.466c-.274,1.665-.792,6.993,3.559,8.525.792.281,1.561.54,2.3.784.977.326,1.894.636,2.76.962a8.334,8.334,0,0,1,5.025,9.132c-.836,5.52,2.279,11.492,7.57,14.519a.555.555,0,0,1-.274,1.036Z" transform="translate(-75.507 -66.988)"/><path d="M114.595,88.649h-.1a1.273,1.273,0,0,1-1.029-.659,37.615,37.615,0,0,1-2.272-5.535.55.55,0,1,1,1.036-.37,37,37,0,0,0,2.22,5.358.207.207,0,0,0,.155.1.2.2,0,0,0,.163-.081l1.4-1.776c.052-.052,2.509-2.775,2.316-4.84a1.887,1.887,0,0,0-.784-1.391,6.09,6.09,0,0,0-5.483-.962,5.394,5.394,0,0,1-2.442-.385,7.288,7.288,0,0,0-1.221-.289,3.1,3.1,0,0,1-1.132-.2c-.784-.363-1.273-1.606-1.635-2.516-.059-.163-.118-.3-.17-.422-.1-.229-.207-.5-.318-.807-.355-.925-.888-2.331-1.48-2.6-1.391-.614-3.389-1.177-3.892-1h0a22.747,22.747,0,0,0,1.295,2.309,5.742,5.742,0,0,1,1.539,2.6,6.971,6.971,0,0,0,.918,1.909.688.688,0,0,1,.089.673.673.673,0,0,1-.511.422,3.485,3.485,0,0,0-2.42,1.968,1.08,1.08,0,0,1-.57.518c-.548.207-1.939.474-5.121-.044a.551.551,0,1,1,.178-1.088c3.123.511,4.277.207,4.551.1a4.662,4.662,0,0,1,2.6-2.383,10.049,10.049,0,0,1-.74-1.7,4.832,4.832,0,0,0-1.265-2.22,17.3,17.3,0,0,1-1.606-2.827,1.043,1.043,0,0,1,.3-1.125c1.058-.9,4.44.518,5.1.814,1.036.459,1.621,1.991,2.087,3.226.111.274.207.533.3.74s.118.289.192.466c.222.562.681,1.739,1.073,1.917a2.568,2.568,0,0,0,.74.1,7.532,7.532,0,0,1,1.48.333,6.6,6.6,0,0,0,1.857.377A7.156,7.156,0,0,1,118.42,78.5a2.96,2.96,0,0,1,1.214,2.168c.237,2.553-2.457,5.535-2.568,5.661l-1.428,1.82a1.317,1.317,0,0,1-1.043.5ZM102.755,77.771Zm.266-.636Z" transform="translate(-77.069 -63.497)"/><path class="b" d="M113.537,84.706a.548.548,0,0,1-.422-.2,6.66,6.66,0,0,0-1.48-.74.555.555,0,1,1,.4-1.029,5.824,5.824,0,0,1,1.887,1.036.555.555,0,0,1-.067.74A.577.577,0,0,1,113.537,84.706Z" transform="translate(-81.37 -67.028)"/><path d="M93.091,83.7l-3.382-.429s-.229,3.33-.229,3.389A6.579,6.579,0,0,0,93.091,83.7Z" transform="translate(-75.716 -67.182)"/><path d="M89.285,87.013a.548.548,0,0,1-.333-.111.562.562,0,0,1-.222-.429s0-.081.229-3.441a.562.562,0,0,1,.2-.385.548.548,0,0,1,.422-.118l3.389.437a.548.548,0,0,1,.4.807,7.1,7.1,0,0,1-3.952,3.219A.511.511,0,0,1,89.285,87.013Zm.74-3.323c0,.533-.089,1.317-.126,1.924a6.2,6.2,0,0,0,2.065-1.672Z" transform="translate(-75.521 -66.988)"/><path d="M108.608,75.551s.622.215-2.139,1.036a21.893,21.893,0,0,0-2.464.984,10.679,10.679,0,0,0-2.22,1.391,4.085,4.085,0,0,1,2.886-2.412.141.141,0,0,0,.081-.229c-1.147-1.561-3.892-1.976-4.285-3.915s.451-6.186,3.419-7.541c.962-.444,1.317,1.332,1.48,1.983a16.922,16.922,0,0,0,1,3.619c.74,1.68,1.169,3.611,2.3,5.084" transform="translate(-78.55 -62.379)"/><path d="M101.542,79.328a.548.548,0,0,1-.34-.118.555.555,0,0,1-.155-.673,4.773,4.773,0,0,1,2.612-2.523,9.153,9.153,0,0,0-1.421-.962c-1.117-.666-2.279-1.354-2.553-2.723-.429-2.116.444-6.66,3.7-8.14a1.132,1.132,0,0,1,1.014,0c.688.34.984,1.31,1.2,2.316l.133.629a13.823,13.823,0,0,0,.836,2.96c.274.585.5,1.206.74,1.813A12.062,12.062,0,0,0,108.786,75a.644.644,0,0,1,.229.488c0,.481-.407.829-2.6,1.48-.673.207-2.005.784-2.4.962a9.96,9.96,0,0,0-2.124,1.31.548.548,0,0,1-.355.089Zm2.39-14.171c-2.738,1.243-3.515,5.239-3.167,6.956.178.881,1.043,1.4,2.035,1.991a6.845,6.845,0,0,1,2.153,1.7.74.74,0,0,1,.141.429c.37-.148.74-.281,1.006-.363a13.188,13.188,0,0,0,1.591-.555,14.415,14.415,0,0,1-1.406-3.078c-.222-.607-.437-1.184-.688-1.732a14.851,14.851,0,0,1-.918-3.16l-.118-.577C104.243,65.313,103.984,65.172,103.932,65.157Zm4.285,10.7Z" transform="translate(-78.343 -62.19)"/><path class="b" d="M109.366,87.8a.548.548,0,0,1-.474-.259.54.54,0,0,1,.178-.74,2.642,2.642,0,0,1,1.791-.1.555.555,0,0,1,.407.666.54.54,0,0,1-.666.4,1.976,1.976,0,0,0-.947,0,.577.577,0,0,1-.289.037Z" transform="translate(-80.743 -68.046)"/><path d="M192.588,122.324c-4.529,0-11.633-3.448-13.276-5.824s-3.8-2.042-6.371-1.761l-.533.052a17.908,17.908,0,0,1-7.4-1.154c-4.558-1.547-7.259-7.348-7.4-7.592a.55.55,0,0,1,1-.459c0,.052,2.62,5.617,6.727,7.008a16.783,16.783,0,0,0,6.956,1.1l.533-.059c2.686-.281,5.454-.585,7.4,2.22,1.621,2.361,10.057,6.186,13.727,5.18,2.131-.577,2.479-1.206,2.531-1.48.081-.385-.274-.918-1-1.48l-.392-.318c-1.132-.947-1.48-1.265-5.025-1.924s-4.033-1.532-4.581-3.241q-.111-.363-.266-.8c-.851-2.279-1.717-3.485-3.892-3.337-2.442.163-3.937-2.057-4.44-3.419a3.145,3.145,0,0,1,.081-1.695c.037-.192.067-.363.074-.444a22.2,22.2,0,0,0-.192-4.854c-.577-3.759-2.272-6.66-4.773-8.14a.555.555,0,0,1,.54-.962A13.66,13.66,0,0,0,183.279,90.1a10.989,10.989,0,0,0,6.512-6.024c1.369-2.96-.2-7.037-2.272-9.62a12.336,12.336,0,0,1-.222,6.934c-.977,2.59-2.856,3.219-5.417,3.818a19.158,19.158,0,0,1-9.872-.74c-1.976-.74-9.243-2.523-19.795,4.092-9.383,5.876-11.84,6.29-15.747,6.549-3.374.222-9.124.311-9.827-1.621a.555.555,0,1,1,1.036-.377c.259.74,3.582,1.243,8.717.9,3.7-.244,6.075-.644,15.237-6.379,10.974-6.882,18.663-4.951,20.757-4.2a17.952,17.952,0,0,0,9.243.74c2.361-.562,3.848-1.051,4.64-3.145a11.285,11.285,0,0,0-.651-8.443.555.555,0,0,1,.807-.74c3.108,2.287,6.364,8.369,4.373,12.706a12.1,12.1,0,0,1-7.208,6.66,14,14,0,0,1-8.451,0,13.934,13.934,0,0,1,2.812,6.69,23.969,23.969,0,0,1,.2,5.091,5.7,5.7,0,0,1-.1.585,7.153,7.153,0,0,0-.148,1.066h0c.044.118,1.088,2.9,3.352,2.731,3.152-.207,4.225,1.976,4.995,4.048.118.3.207.592.289.851.444,1.384.614,1.9,3.7,2.486,3.626.688,4.211,1.066,5.528,2.161l.385.318c1.1.888,1.561,1.761,1.384,2.59-.215.992-1.3,1.739-3.323,2.287a6.356,6.356,0,0,1-1.628.207Zm-14.726-17.76Z" transform="translate(-85.362 -64.182)"/><path d="M212.723,124.1c-3.456,0-7.481-1.968-10.456-4.137a.555.555,0,0,1-.126-.74.548.548,0,0,1,.74-.118c3.493,2.531,8.451,4.81,11.892,3.6a3.115,3.115,0,0,0,1.791-1.206.637.637,0,0,0,0-.555,5.269,5.269,0,0,0-2.583-2.56,9.9,9.9,0,0,0-2.309-.392,9.169,9.169,0,0,1-3.012-.629,3.478,3.478,0,0,1-1.85-2.109c-.1-.229-.215-.481-.355-.74a6.231,6.231,0,0,0-2.827-2.568c-2.768-1.2-4.714-1.2-8.207-1.1a.533.533,0,0,1-.562-.533.555.555,0,0,1,.533-.57c3.552-.1,5.7-.089,8.673,1.191a7.348,7.348,0,0,1,3.36,3.064c.155.281.274.555.392.807a2.449,2.449,0,0,0,1.3,1.554,8.043,8.043,0,0,0,2.657.54,10.686,10.686,0,0,1,2.56.444,6.349,6.349,0,0,1,3.234,3.145,1.783,1.783,0,0,1,.037,1.48,4.15,4.15,0,0,1-2.435,1.813,7.237,7.237,0,0,1-2.449.326Z" transform="translate(-103.115 -74.055)"/><path d="M98.2,145.751a3.7,3.7,0,0,1-1.073-.163,2.4,2.4,0,0,1-1.909-2.494,10.981,10.981,0,0,1,1.724-4.344q.326-.555.644-1.154c.74-1.428,4.181-2.657,8.569-4.114,1.206-.407,2.338-.784,3.108-1.1,2.7-1.088,6.1-6.616,6.142-6.66a.55.55,0,1,1,.94.57c-.148.244-3.633,5.92-6.66,7.119-.8.326-1.954.74-3.175,1.117-2.916.969-7.326,2.442-7.94,3.589-.222.414-.451.807-.666,1.184a10,10,0,0,0-1.584,3.929c-.081.644.511,1.117,1.132,1.31a2.96,2.96,0,0,0,3.471-1.761c1.909-3.8,6.912-4.751,8.68-4.8,3.367-.081,7.763-.422,9.035-1.117,1.606-.866,5.676-5.395,6.394-9.62a.548.548,0,0,1,.636-.444.54.54,0,0,1,.451.629c-.74,4.44-4.995,9.317-6.956,10.36-1.82.984-7.755,1.206-9.531,1.251-1.48,0-6.068.881-7.726,4.188a4.137,4.137,0,0,1-3.707,2.516Z" transform="translate(-77.207 -78.153)"/><path d="M82.934,137.058a1.7,1.7,0,0,1-.274,0,2.568,2.568,0,0,1-1.887-1.783,5.728,5.728,0,0,1,1.369-6.3,6.882,6.882,0,0,1,3.13-1.724,174.162,174.162,0,0,0,17.508-4.973.555.555,0,0,1,.37,1.043,176.055,176.055,0,0,1-17.619,5,5.861,5.861,0,0,0-2.642,1.48,4.61,4.61,0,0,0-1.1,5.069c.289.688.636,1.066,1.029,1.117s1.236-.133,2.768-2.013a8.329,8.329,0,0,1,5.039-2.686l1.635-.37a31.714,31.714,0,0,1,5.4-.947c.459,0,.984-.044,1.547-.059,2.782-.059,6.593-.155,8.022-2.479a.54.54,0,0,1,.74-.178.555.555,0,0,1,.185.74c-1.739,2.834-5.92,2.96-8.932,3l-1.517.052a31.88,31.88,0,0,0-5.18.925l-1.65.377a7.4,7.4,0,0,0-4.44,2.3C85.109,136.266,83.962,137.058,82.934,137.058Z" transform="translate(-73.343 -77.318)"/><path class="d" d="M129.39,100.894s4.336-4.048,9.931,1.428C139.321,102.322,132.616,106.71,129.39,100.894Z" transform="translate(-86.093 -71.39)"/><path class="d" d="M134.36,85.63s-5.58,1.48-4.536,9.546C129.787,95.176,136.98,91.772,134.36,85.63Z" transform="translate(-86.172 -67.796)"/><path d="M128.787,96.467l-.192-.74c-1.88-7.4,3.263-9.62,3.315-9.672l.444-.185.244.414c3.249,5.513-3.1,9.724-3.167,9.768Zm3.115-9.154c-1.014.644-3.315,2.671-2.42,7.326,1.347-1.088,4.092-3.87,2.435-7.326Z" transform="translate(-85.779 -67.859)"/><path class="d" d="M124.076,100.795c-.192-3.152-5.084-.422-6.142.118-3.086,1.569-6.149,3.123-9.294,4.551-.969.437-2.035.518-2.6,1.665-.666,1.354.259,3.7,1.732,2.96,3.907-1.872,7.955-3.5,11.759-5.617C120.754,103.859,124.195,102.778,124.076,100.795Z" transform="translate(-79.965 -71.351)"/><path d="M108.4,108.374a1.48,1.48,0,0,1-1.117-.5,2.472,2.472,0,0,1-.289-2.76,3.2,3.2,0,0,1,1.976-1.421c.2-.074.392-.141.585-.229,2.812-1.251,5.543-2.6,8.184-3.922l.178-.089c1.8-.91,4.018-1.857,5.18-1.147a1.591,1.591,0,0,1,.74,1.428h0c.059,1.665-2.176,2.642-3.648,3.286-.274.118-.518.222-.7.318-2.22,1.206-4.625,2.264-6.926,3.293-1.162.518-2.324,1.036-3.478,1.576A1.791,1.791,0,0,1,108.4,108.374Zm13.675-9.235a9.515,9.515,0,0,0-3.656,1.295l-.185.089c-2.657,1.325-5.4,2.686-8.229,3.944-.222.1-.444.178-.659.259a2.22,2.22,0,0,0-1.391.925,1.384,1.384,0,0,0,.133,1.48.444.444,0,0,0,.577.081c1.154-.54,2.331-1.066,3.5-1.584,2.279-1.021,4.632-2.065,6.852-3.263.215-.111.474-.222.777-.355,1.051-.459,3.012-1.317,2.96-2.22h0c0-.4-.163-.488-.215-.518a.947.947,0,0,0-.488-.163Z" transform="translate(-80.194 -71.026)"/><path d="M133.224,102.39a5.565,5.565,0,0,1-1.384-.163,5.439,5.439,0,0,1-3.463-2.819l-.207-.377.318-.3c.044,0,4.322-3.915,9.62,1.295l.488.474-.57.377a9.931,9.931,0,0,1-4.8,1.51ZM129.591,99.3a4.233,4.233,0,0,0,2.523,1.887,7.36,7.36,0,0,0,4.706-.851C133.306,97.262,130.538,98.623,129.591,99.3Z" transform="translate(-85.776 -70.836)"/><path d="M143,98.549s7.4,6.3,12.5,5.439c7.134-1.191,11.27-3.3,12.98-4.44,2.694-1.791,5.713-9.576-1.65-11.189,0,0-1.443-.155-10.612,4.04C153.16,93.791,147.6,97.225,143,98.549Z" transform="translate(-89.632 -68.506)"/><path d="M154.32,104.431c-5.18,0-11.588-5.409-11.877-5.654a.548.548,0,0,1-.178-.54.54.54,0,0,1,.385-.414,55.97,55.97,0,0,0,9.694-4.373c1.339-.74,2.5-1.317,3.448-1.754,8.88-4.048,10.634-4.114,10.908-4.077,3.6.784,4.7,2.856,5,4.44a8.557,8.557,0,0,1-3.108,7.733c-1.4.932-5.476,3.234-13.194,4.529A6.585,6.585,0,0,1,154.32,104.431ZM143.96,98.57c2.02,1.547,7.4,5.321,11.248,4.677,7.5-1.258,11.426-3.463,12.765-4.351a7.459,7.459,0,0,0,2.627-6.608c-.34-1.843-1.7-3.034-4.026-3.567-.281,0-2.272.3-10.36,3.989-.918.422-2.065,1.021-3.389,1.724a65.574,65.574,0,0,1-8.858,4.137Z" transform="translate(-89.437 -68.312)"/></g><path class="e" d="M31.6,34.651H26.675l-.385-.666c.585-1.11,1.3-2.583,2.153-4.4s1.613-3.508,2.287-5.032h.385l1.184.636-4,7.726-.6.9,3.907-.207.059-2.893,1.265-.1v2.923l2.094-.1v1.221H32.928v2.39H31.6Z" transform="translate(-14.887 -14.412)"/><path d="M138.88,210.85h-128v-200h128ZM13.84,207.884H135.92V13.816H13.84Z" transform="translate(-10.88 -10.85)"/><path d="M165.185,27.159a3.219,3.219,0,1,0-6.26-1.029,3.433,3.433,0,0,0,.155,1.029,3.279,3.279,0,0,0,.126,6.556,3.138,3.138,0,0,0,2.131-.836l-.688,2.4h2.96l-.7-2.42a3.145,3.145,0,0,0,2.161.858,3.279,3.279,0,0,0,.118-6.556Z" transform="translate(-48.596 -13.979)"/></svg>