<svg xmlns="http://www.w3.org/2000/svg" xmlns:xlink="http://www.w3.org/1999/xlink" width="128" height="200" viewBox="0 0 128 200"><defs><style>.a{fill:none;}.b{fill:#fff;}.c{fill:#858585;}.d{fill:#ffe700;}.e{clip-path:url(#a);}.f{fill:#231815;}.g{fill:#c21823;}.h{fill:#ffb4c0;}.i{opacity:0.6;}.j{clip-path:url(#b);}</style><clipPath id="a"><rect class="a" width="27.454" height="79.127"/></clipPath><clipPath id="b"><rect class="a" width="71.519" height="75.565"/></clipPath></defs><rect class="b" width="125.031" height="197.031" transform="translate(1.484 1.484)"/><path d="M138.88,210.85h-128v-200h128ZM13.84,207.884H135.92V13.816H13.84Z" transform="translate(-10.88 -10.85)"/><path d="M165.213,27.171a3.229,3.229,0,1,0-6.279-1.032,3.444,3.444,0,0,0,.156,1.032,3.289,3.289,0,0,0,.126,6.576,3.147,3.147,0,0,0,2.138-.839l-.69,2.4h2.969l-.7-2.427a3.154,3.154,0,0,0,2.167.861,3.289,3.289,0,1,0,.119-6.576Z" transform="translate(-48.658 -13.953)"/><path class="c" d="M169.488,236.589v21.428c-15.1-2.561-26.72-14.844-31.329-28.018-.8-2.3-4.26-27.462-3.822-27.328,17.991,4.3,32.5,16.232,35.151,33.919" transform="translate(-43.098 -60.495)"/><path d="M171.007,257.094h-.1c-13.36-2.412-25.1-13.6-29.963-28.531-.416-1.277-1.484-8.639-2.227-14.562-1.692-12.989-1.484-13.241-1.254-13.464a.579.579,0,0,1,.557-.163c18.63,4.758,31.173,17.672,33.541,34.557a.542.542,0,0,1-.468.623.557.557,0,0,1-.631-.468c-2.279-16.217-14.236-28.679-32.041-33.451.252,3.859,2.858,24.33,3.592,26.579,4.735,14.54,16.158,25.443,29.095,27.781a.564.564,0,0,1,.453.646A.557.557,0,0,1,171.007,257.094Z" transform="translate(-43.876 -59.9)"/><path d="M171.009,254a.542.542,0,0,1-.468-.26L137.409,201.2a.549.549,0,0,1,.074-.69.564.564,0,0,1,.7-.074c12.3,7.875,32.472,47.732,33.325,49.424a.557.557,0,1,1-.995.5c-.193-.379-18.273-36.123-30.475-47.071l31.447,49.862a.564.564,0,0,1-.178.742A.594.594,0,0,1,171.009,254Z" transform="translate(-43.877 -59.898)"/><path d="M147.459,220.494h-.082l-7.682-1.18a.557.557,0,1,1,.171-1.1l7.674,1.18a.557.557,0,0,1-.082,1.106Z" transform="translate(-44.279 -64.456)"/><path d="M149.455,224.259h0L141,223.7a.557.557,0,0,1-.512-.594.534.534,0,0,1,.586-.52l8.454.557a.564.564,0,0,1,.52.594.557.557,0,0,1-.594.52Z" transform="translate(-44.617 -65.589)"/><path d="M152.393,230.532h-.059l-10.658-1.1a.557.557,0,1,1,.111-1.106l10.666,1.1a.557.557,0,1,1-.059,1.113Z" transform="translate(-44.794 -67.108)"/><path d="M158.308,241.8H143.887a.557.557,0,0,1,0-1.113h14.421a.557.557,0,1,1,0,1.113Z" transform="translate(-45.427 -70.297)"/><path d="M146.087,246.58a.557.557,0,1,1,0-1.113l14.844-.327h0a.557.557,0,0,1,0,1.113Z" transform="translate(-45.994 -71.444)"/><path d="M150.517,254.091a.557.557,0,0,1,0-1.113l14.651-.468a.549.549,0,0,1,.572.534.564.564,0,0,1-.534.579l-14.651.468Z" transform="translate(-47.136 -73.344)"/><path d="M154.356,234.182h-.045l-12.618-1.047a.549.549,0,0,1-.5-.6.542.542,0,0,1,.594-.5l12.618,1.047a.557.557,0,0,1-.045,1.113Z" transform="translate(-44.874 -68.063)"/><path d="M158.737,222.911h-.156a.557.557,0,0,1-.379-.69l2.813-9.649a.558.558,0,0,1,1.069.319l-2.813,9.649a.564.564,0,0,1-.534.371Z" transform="translate(-49.255 -62.904)"/><path d="M162.527,227.049a.616.616,0,0,1-.163,0,.557.557,0,0,1-.371-.683l3.169-10.072a.549.549,0,0,1,.7-.364.564.564,0,0,1,.364.7L163.054,226.7A.557.557,0,0,1,162.527,227.049Z" transform="translate(-50.232 -63.869)"/><path d="M165.37,233.055a.549.549,0,0,1-.475-.275c-.475-.742.742-4.639,3.711-11.467a.558.558,0,1,1,1.024.445c-1.945,4.513-3.874,9.649-3.763,10.5a.557.557,0,0,1-.215.742A.572.572,0,0,1,165.37,233.055ZM165.853,232.209Z" transform="translate(-50.96 -65.181)"/><path d="M167.807,236.574a.616.616,0,0,1-.163,0,.549.549,0,0,1-.364-.7l3.926-12.491a.557.557,0,0,1,.7-.364.549.549,0,0,1,.364.7l-3.926,12.491A.557.557,0,0,1,167.807,236.574Z" transform="translate(-51.594 -65.735)"/><path d="M172.576,244.413h-.134a.557.557,0,0,1-.408-.675l3.377-13.887a.557.557,0,0,1,.668-.416.564.564,0,0,1,.408.675l-3.377,13.842A.549.549,0,0,1,172.576,244.413Z" transform="translate(-52.822 -67.392)"/><path d="M178.236,255.777H178.1a.557.557,0,0,1-.408-.675l2.835-11.066a.564.564,0,0,1,.675-.4.549.549,0,0,1,.4.675l-2.828,11.066A.564.564,0,0,1,178.236,255.777Z" transform="translate(-54.281 -71.052)"/><path d="M156.107,218.175h-.119a.549.549,0,0,1-.423-.661l1.714-7.823a.557.557,0,1,1,1.084.237l-1.737,7.808a.549.549,0,0,1-.52.438Z" transform="translate(-48.577 -62.136)"/><path d="M170.572,261.283H156.107a.557.557,0,1,1,0-1.113h14.466a.557.557,0,1,1,0,1.113Z" transform="translate(-48.577 -75.318)"/><path d="M173.477,265.253h-13.3a.557.557,0,0,1,0-1.113h13.3a.557.557,0,1,1,0,1.113Z" transform="translate(-49.626 -76.342)"/><path class="d" d="M140.252,203.658l-.935-3.644c-.891-2.227-1.989-2.9-3.184-2.13-1.165.92-.92,2.175.876,3.711a22.955,22.955,0,0,0,3.243,2.063Z" transform="translate(-43.286 -59.126)"/><path d="M141.058,205.017a.564.564,0,0,1-.245-.059,22.083,22.083,0,0,1-3.191-2l-.126-.089c-1.262-1.091-1.848-2.041-1.826-2.969a2.182,2.182,0,0,1,.92-1.67,2.138,2.138,0,0,1,1.856-.341c.868.282,1.588,1.165,2.227,2.709l.957,3.711a.549.549,0,0,1-.186.572.557.557,0,0,1-.386.134Zm-3.184-6.086a1.2,1.2,0,0,0-.638.223,1.076,1.076,0,0,0-.453.794c0,.371.23,1.039,1.4,2.048l.082.059c.646.453,1.262.891,1.937,1.3l-.616-2.4c-.438-1.1-.965-1.826-1.484-1.989a.788.788,0,0,0-.223-.037Z" transform="translate(-43.354 -59.188)"/><g class="e" transform="translate(1.729 97.708)"><path class="c" d="M30.748,208,17.8,228.615C4.822,217.029,1.015,198.2,4.563,182.731c.623-2.694,12.477-28.946,12.833-28.612C32.106,169.134,38.868,189.374,30.755,208" transform="translate(-10.656 -145.687)"/><path d="M19.783,228.818a.616.616,0,0,1-.423-.163C7.975,218.264,3.425,200.4,7.767,183.105c.371-1.484,3.808-9.2,6.68-15.364,6.212-13.523,6.576-13.62,6.925-13.709a.646.646,0,0,1,.631.178c15.059,15.831,19.3,35.834,11.408,53.513a.631.631,0,0,1-.839.312.623.623,0,0,1-.312-.831c7.563-16.982,3.585-36.19-10.636-51.547-2.086,3.874-11.95,25.146-12.618,27.751-4.223,16.856.178,34.246,11.222,44.31a.623.623,0,0,1,0,.891.609.609,0,0,1-.445.208Z" transform="translate(-11.389 -145.66)"/><path d="M26.742,225.848a.638.638,0,0,1-.631-.631L26,154.648a.646.646,0,0,1,.5-.623.623.623,0,0,1,.705.349c2.969,6.324,4.268,19.646,3.8,39.6-.341,14.844-1.573,27.967-1.581,28.093a.634.634,0,0,1-1.262-.119c.045-.482,4.231-45.794-.883-63.7l.126,67.014a.631.631,0,0,1-.631.631Z" transform="translate(-16.507 -145.66)"/><path d="M24.361,179.383a.631.631,0,0,1-.416-.156l-6.68-5.774a.631.631,0,0,1-.059-.891.623.623,0,0,1,.891-.067l6.68,5.774a.631.631,0,0,1-.408,1.113Z" transform="translate(-14.2 -150.385)"/><path d="M23.974,184.2a.616.616,0,0,1-.364-.126l-7.8-5.641a.632.632,0,0,1,.742-1.024l7.8,5.641a.638.638,0,0,1,.141.883A.646.646,0,0,1,23.974,184.2Z" transform="translate(-13.813 -151.661)"/><path d="M23.038,192.019a.638.638,0,0,1-.386-.134l-9.6-7.5a.631.631,0,0,1-.111-.883.638.638,0,0,1,.891-.111l9.6,7.5a.638.638,0,0,1,.111.891A.646.646,0,0,1,23.038,192.019Z" transform="translate(-13.108 -153.201)"/><path d="M21.949,206.418a.623.623,0,0,1-.334-.1L7.706,197.593a.633.633,0,0,1,.668-1.076l13.879,8.714a.631.631,0,0,1,.193.868A.616.616,0,0,1,21.949,206.418Z" transform="translate(-11.714 -156.593)"/><path d="M21.739,212.43a.631.631,0,0,1-.319-.089L6.894,203.672a.638.638,0,0,1-.215-.868.631.631,0,0,1,.868-.215l14.488,8.669a.623.623,0,0,1,.223.861.638.638,0,0,1-.52.312Z" transform="translate(-11.504 -158.159)"/><path d="M21.276,222.1a.609.609,0,0,1-.319-.089L6.572,213.591a.638.638,0,0,1-.223-.868.631.631,0,0,1,.861-.223l14.384,8.394a.631.631,0,0,1,.223.861A.623.623,0,0,1,21.276,222.1Z" transform="translate(-11.419 -160.716)"/><path d="M22.724,196.721a.6.6,0,0,1-.379-.134l-11.5-8.624a.631.631,0,0,1,.742-1.017L23.1,195.578a.631.631,0,0,1,.119.883A.616.616,0,0,1,22.724,196.721Z" transform="translate(-12.541 -154.126)"/><path d="M31.718,189.105A.631.631,0,0,1,31.3,188l8.528-7.556a.633.633,0,0,1,.846.943l-8.535,7.593a.631.631,0,0,1-.416.126Z" transform="translate(-17.816 -152.433)"/><path d="M32.78,195.441a.631.631,0,0,1-.408-1.113l9.137-7.771a.629.629,0,1,1,.816.957L33.2,195.293a.638.638,0,0,1-.416.148Z" transform="translate(-18.092 -154.011)"/><path d="M31.713,203.074h0a.638.638,0,0,1-.623-.646c0-1.039,3.555-3.993,10.51-8.788a.623.623,0,0,1,.876.163.631.631,0,0,1-.163.883c-4.594,3.169-9.552,6.947-9.96,7.838A.623.623,0,0,1,31.713,203.074ZM32.329,202.547ZM32.329,202.451Z" transform="translate(-17.819 -155.847)"/><path d="M31.58,207.95a.631.631,0,0,1-.408-1.113L42.5,197.188a.632.632,0,0,1,.816.965L31.988,207.8a.661.661,0,0,1-.408.148Z" transform="translate(-17.783 -156.752)"/><path d="M31.148,218.268a.646.646,0,0,1-.453-.193.631.631,0,0,1,0-.9l11.63-11.311a.631.631,0,0,1,.891,0,.638.638,0,0,1,0,.9l-11.6,11.326a.638.638,0,0,1-.468.178Z" transform="translate(-17.669 -158.981)"/><path d="M30.359,232.466a.631.631,0,0,1-.438-1.091l9.411-8.907a.633.633,0,1,1,.876.913L30.8,232.3a.661.661,0,0,1-.438.163Z" transform="translate(-17.466 -163.263)"/><path d="M32.421,182.745a.646.646,0,0,1-.445-.186.631.631,0,0,1,0-.891l6.376-6.5a.646.646,0,0,1,.9,0,.638.638,0,0,1,0,.9l-6.376,6.494a.646.646,0,0,1-.453.186Z" transform="translate(-18 -151.067)"/><path d="M21.939,232.58a.624.624,0,0,1-.334-.1L7.688,223.74a.631.631,0,1,1,.668-1.069l13.924,8.736a.638.638,0,0,1-.341,1.173Z" transform="translate(-11.704 -163.331)"/><path d="M22.329,238.16a.623.623,0,0,1-.334-.1L9.2,230.025a.631.631,0,0,1-.23-.868.638.638,0,0,1,.876-.2l12.8,8.038a.631.631,0,0,1,.2.868A.638.638,0,0,1,22.329,238.16Z" transform="translate(-12.094 -164.956)"/><path class="d" d="M26.946,158.888l1.306-4.067c.5-2.709-.163-3.993-1.781-3.971-1.67.178-2.227,1.536-1.41,4.119a25.873,25.873,0,0,0,1.885,3.919Z" transform="translate(-16.169 -144.845)"/><path d="M28.4,159.247a.557.557,0,0,1-.475-.26,25.778,25.778,0,0,1-1.856-3.83L26,154.987c-.549-1.781-.534-3.028,0-3.874A2.427,2.427,0,0,1,27.84,150.1a2.293,2.293,0,0,1,1.93.742c.646.779.8,2.041.46,3.867l-1.321,4.134a.564.564,0,0,1-.46.386Zm-.438-8.038h-.037a1.277,1.277,0,0,0-.972.52c-.356.534-.319,1.529.1,2.88l.045.119c.371.876.742,1.722,1.165,2.583l.905-2.835c.327-1.744.052-2.531-.23-2.872A1.2,1.2,0,0,0,27.958,151.209Z" transform="translate(-16.402 -144.648)"/></g><path class="f" d="M118.264,129.422a35.123,35.123,0,0,0,1.329,5.656.787.787,0,0,0,1.239.334l1.774-1.432s5.285-5.054,2.679-7.756c-1.952-2.034-5.411-2.108-7.021-2.019a7.9,7.9,0,0,1-2.286-.186,3.3,3.3,0,0,1-.928-.319,2.308,2.308,0,0,1-.69-1.21s.223.861-.861,1.685-4.453,2.078-4.81,3.629c-.349,1.4-.045,4.839,2.8,6.338a10.762,10.762,0,0,0,4.958,1.447,7.051,7.051,0,0,1,4.231,2.731,5.1,5.1,0,0,0,2.479,1.789l.623.252-1.173-6.383" transform="translate(-36.327 -39.719)"/><path class="f" d="M123.587,140.727a.691.691,0,0,1-.215,0l-.623-.26A5.537,5.537,0,0,1,120,138.448a6.641,6.641,0,0,0-3.845-2.464,5.2,5.2,0,0,0-.527-.059,10.7,10.7,0,0,1-4.594-1.484c-3.184-1.677-3.444-5.485-3.08-6.962.334-1.329,2.182-2.338,3.667-3.14a11.8,11.8,0,0,0,1.351-.8c.742-.564.653-1.091.653-1.113a.564.564,0,0,1,.408-.661.542.542,0,0,1,.661.371,1.841,1.841,0,0,0,.475.913,2.731,2.731,0,0,0,.742.238,7.637,7.637,0,0,0,2.13.171c1.9-.1,5.388,0,7.422,2.227a3.1,3.1,0,0,1,.876,2.286c-.052,2.479-2.59,5.255-3.362,6.042l1.121,6.1a.542.542,0,0,1-.542.653ZM114.3,123.76a3.051,3.051,0,0,1-.653.668,12.805,12.805,0,0,1-1.484.883c-1.158.631-2.9,1.581-3.117,2.434-.26,1.032-.141,4.312,2.516,5.708a9.649,9.649,0,0,0,4.171,1.329,3.914,3.914,0,0,1,.623.067,7.674,7.674,0,0,1,4.617,2.969,4.134,4.134,0,0,0,1.885,1.41l-.816-4.453-1.039.839a1.343,1.343,0,0,1-1.21.252,1.329,1.329,0,0,1-.905-.824,35.456,35.456,0,0,1-1.358-5.685.549.549,0,0,1,.453-.646.557.557,0,0,1,.638.453,33.825,33.825,0,0,0,1.306,5.559.223.223,0,0,0,.148.141.26.26,0,0,0,.215-.045l1.766-1.455h0c.045-.045,3.147-3.065,3.2-5.455a1.982,1.982,0,0,0-.564-1.484c-1.826-1.893-5.2-1.922-6.591-1.841a8.722,8.722,0,0,1-2.442-.2,3.013,3.013,0,0,1-1.106-.4,1.634,1.634,0,0,1-.252-.223Z" transform="translate(-36.137 -39.527)"/><path class="f" d="M112.294,228.4a11.194,11.194,0,0,1-4.32-1.1c-2.011-.905-2.368-2.13-2.865-3.837l-.163-.564-2.293-7.63c-.742-2.59-1.432-4.394-3.429-5.938l-.453-.349c-1.848-1.41-4.156-3.177-5.2-5.678a.557.557,0,1,1,1.017-.438c.965,2.227,3.147,3.9,4.891,5.2l.46.356c2.227,1.737,2.969,3.785,3.815,6.494l2.457,8.164c.475,1.625.742,2.442,2.227,3.14,1.2.534,4.156,1.663,5.73.453.319-.245.5-.475.5-.646,0-.312-.579-.742-1-1.1-.208-.156-.408-.312-.579-.468a23.009,23.009,0,0,1-3.986-5.262,10.488,10.488,0,0,1-1.544-7.066,16.127,16.127,0,0,1,.609-2.048c1.061-3.177,2.85-8.483.564-12.618-1.329-2.4.935-4.735,1.655-5.4a12.618,12.618,0,0,0,3.392-4.505,28.018,28.018,0,0,0,1.484-4.854c.386-1.64.482-2,.8-2.19a.557.557,0,0,1,.742.2.549.549,0,0,1-.067.653c-.089.208-.26.943-.416,1.588a28.678,28.678,0,0,1-1.536,5.069,13.493,13.493,0,0,1-3.652,4.861c-.571.52-2.36,2.353-1.432,4.03,2.524,4.535.564,10.354-.482,13.486a16.259,16.259,0,0,0-.564,1.878,9.448,9.448,0,0,0,1.4,6.309,22.007,22.007,0,0,0,3.778,5.01c.156.141.327.275.512.416.675.527,1.44,1.121,1.432,1.982a1.952,1.952,0,0,1-.935,1.484A4.052,4.052,0,0,1,112.294,228.4ZM116.6,181.578Z" transform="translate(-32.415 -54.767)"/><path class="f" d="M72.847,219.9a7.274,7.274,0,0,1-5.938-3.563,12.945,12.945,0,0,1-1.633-7.422,38.9,38.9,0,0,1,1.588-9.025l.067-.252a12.618,12.618,0,0,0,.646-3.622,38.009,38.009,0,0,0-1.024-6.68,49.853,49.853,0,0,1-.883-4.973c-.616-5.982,2.509-13.271,9.649-15.586a14.9,14.9,0,0,0,6.353-4.245l.178-.193a50.091,50.091,0,0,0,4.884-6.042c1.611-2.494,3.169-4.772,4.817-7.185l.95-1.381c1.017-1.484,2.049-3.088,3.073-4.758a6.888,6.888,0,0,0,.8-5.314,6.8,6.8,0,0,0-3.221-4.245c-.809-.468-1.692-.935-2.613-1.425-.742-.386-1.484-.794-2.227-1.217-5.774-3.2-2.412-10.651-2.375-10.725a.542.542,0,0,1,.668-.3l4.149,1.314a.557.557,0,1,1-.341,1.061l-3.652-1.158c-.586,1.536-2.086,6.517,2.086,8.832q1.113.635,2.227,1.2c.943.5,1.826.972,2.642,1.447a7.986,7.986,0,0,1,2.813,11.133c-1.024,1.685-2.071,3.3-3.1,4.8l-.95,1.388c-1.648,2.4-3.206,4.676-4.8,7.155a50.369,50.369,0,0,1-5,6.168l-.171.193a15.92,15.92,0,0,1-6.836,4.557c-6.531,2.138-9.471,9.04-8.907,14.443a47.024,47.024,0,0,0,.868,4.854,38.9,38.9,0,0,1,1.047,6.888,13.478,13.478,0,0,1-.69,3.941l-.067.252a38.015,38.015,0,0,0-1.544,8.765,11.685,11.685,0,0,0,1.484,6.784,5.905,5.905,0,0,0,5.938,2.969.378.378,0,0,0,.223-.141c.379-.653-.49-2.011-.957-2.746l-.163-.26c-.163-.26-.319-.5-.468-.742a5.3,5.3,0,0,1-1.217-3.793c.045-.631.067-1.269.089-1.915a21.977,21.977,0,0,1,.564-5.069c.742-2.657,2.613-3.808,4.609-5.032.349-.215.742-.43,1.061-.668a22.773,22.773,0,0,0,6.88-6.227c1.3-2.086,3.563-7.875,1.425-11.586a.557.557,0,0,1,.965-.549c2.4,4.216,0,10.391-1.529,12.714a23.829,23.829,0,0,1-7.207,6.554c-.364.238-.742.46-1.091.683-1.885,1.15-3.511,2.145-4.119,4.379a21.858,21.858,0,0,0-.527,4.81c0,.661-.045,1.314-.089,1.959a4.258,4.258,0,0,0,1.032,3.1c.156.23.319.475.49.742l.156.252c.638.987,1.7,2.657.98,3.9a1.4,1.4,0,0,1-.95.668,5.245,5.245,0,0,1-1.113.134Z" transform="translate(-25.069 -39.628)"/><path class="f" d="M117.756,133.517a1.367,1.367,0,0,1-.349-.045,1.344,1.344,0,0,1-.906-.824,35.8,35.8,0,0,1-1.351-5.76.557.557,0,0,1,.453-.646.564.564,0,0,1,.638.46,33.4,33.4,0,0,0,1.306,5.559.208.208,0,0,0,.148.134.215.215,0,0,0,.215-.045l1.766-1.432s3.147-3.043,3.2-5.448a1.982,1.982,0,0,0-.564-1.484c-1.826-1.893-5.2-1.922-6.591-1.848a8.706,8.706,0,0,1-2.442-.193,3.348,3.348,0,0,1-1.106-.4c-.742-.5-1.017-1.789-1.217-2.731a1.787,1.787,0,0,0-.1-.445,3.5,3.5,0,0,0-1.6-2.227c-.742-.482-3.941-1.655-4.453-1.284a1.091,1.091,0,0,0,.223.371,29.429,29.429,0,0,1,3.318,5.084.7.7,0,0,1,0,.69.646.646,0,0,1-.6.327,3.711,3.711,0,0,0-2.865,1.425,1.106,1.106,0,0,1-.675.379c-.594.1-2.063.082-5.2-1.032a.557.557,0,1,1,.371-1.047c3.125,1.1,4.379,1.024,4.683.98a4.869,4.869,0,0,1,3.05-1.774,28.345,28.345,0,0,0-2.895-4.327,1.8,1.8,0,0,1-.453-.972,1.061,1.061,0,0,1,.527-1.061c1.381-.816,5.322,1.121,5.611,1.306a4.661,4.661,0,0,1,2.071,2.969,3.182,3.182,0,0,0,.1.482c.126.579.386,1.789.742,2.034a2.509,2.509,0,0,0,.742.245,7.6,7.6,0,0,0,2.13.163c1.9-.1,5.388.045,7.422,2.227a3.1,3.1,0,0,1,.876,2.286c-.059,2.872-3.429,6.123-3.577,6.264l-1.8,1.484a1.4,1.4,0,0,1-.861.156Z" transform="translate(-33.747 -37.447)"/><path class="f" d="M138.381,164.2a4.591,4.591,0,0,1-.742-.052l-1.484-.26c-2.19-.4-5.507-1-6.435-.349a.557.557,0,1,1-.638-.906c1.21-.861,3.778-.475,7.274.156l1.484.26c2,.327,5.938-1.351,9.389-2.835,4.164-1.789,6.576-2.761,7.682-2.011s2.227,1.032,2.887.668a1.9,1.9,0,0,0,.816-1.781,5.055,5.055,0,0,0-3.028-4.223c-1.425-.742-6.042.809-9.745,2.034s-7.051,2.338-8.676,1.974a10.093,10.093,0,0,1-7.793-6.9c-.141-.46-2.227-10.569-2.635-12.618a.557.557,0,0,1,.438-.661.549.549,0,0,1,.653.438c.987,4.795,2.494,12.076,2.605,12.484a8.989,8.989,0,0,0,6.977,6.131c1.329.3,4.758-.839,8.083-1.937,4.5-1.484,8.751-2.9,10.591-1.982a6.183,6.183,0,0,1,3.644,5.2,2.969,2.969,0,0,1-1.4,2.783c-.616.334-1.959.675-4.038-.742-.661-.445-4.1,1.032-6.621,2.115C144.259,162.7,140.749,164.2,138.381,164.2Z" transform="translate(-41.146 -43.398)"/><path class="f" d="M142.444,190.347a4.453,4.453,0,0,1-3.333-1.752c-1.833-2.063-4.453-3.362-6.947-4.617a38.592,38.592,0,0,1-4.594-2.568,58.41,58.41,0,0,1-4.683-3.711c-.534-.46-1.076-.913-1.625-1.366a4.112,4.112,0,0,0-1.381-.868,1.039,1.039,0,0,0-1.1.238.542.542,0,0,1-.742.119.549.549,0,0,1-.119-.779,2.108,2.108,0,0,1,2.3-.646A5.084,5.084,0,0,1,122,175.473c.549.453,1.091.913,1.633,1.373a58.359,58.359,0,0,0,4.594,3.629,38.856,38.856,0,0,0,4.453,2.494c2.613,1.3,5.307,2.65,7.281,4.876a3.159,3.159,0,0,0,3.013,1.314,1.774,1.774,0,0,0,1.3-1.084,5.351,5.351,0,0,0-.616-3.288,6.361,6.361,0,0,0-2.041-2.768,1.732,1.732,0,0,0-.252-.148,4.779,4.779,0,0,0-1.032-.327l-.445-.089a12.8,12.8,0,0,1-1.685-.438,12.261,12.261,0,0,1-1.907-.861,17.247,17.247,0,0,1-3.414-2.449,23.319,23.319,0,0,1-1.937-1.974l-.186-.208a43.494,43.494,0,0,1-5.863-7.786,4.758,4.758,0,0,0-1.907-2l-.3-.148a.564.564,0,0,1-.289-.742.557.557,0,0,1,.742-.282l.379.178a5.938,5.938,0,0,1,2.368,2.464,42.6,42.6,0,0,0,5.722,7.578l.186.208a21.256,21.256,0,0,0,1.848,1.885,15.811,15.811,0,0,0,3.192,2.286,11.4,11.4,0,0,0,1.744.8,13.928,13.928,0,0,0,1.551.393l.46.1a5.381,5.381,0,0,1,1.284.416,3.03,3.03,0,0,1,.371.215,7.422,7.422,0,0,1,2.442,3.236,6.338,6.338,0,0,1,.675,4.023,2.865,2.865,0,0,1-2.108,1.885A3.28,3.28,0,0,1,142.444,190.347Z" transform="translate(-38.762 -50.591)"/><path class="f" d="M66.959,185.414a.579.579,0,0,1-.356-.126,16.9,16.9,0,0,1-6.494-13.79c.126-5.4,2.739-9.433,7.548-11.43a10.606,10.606,0,0,1,7.036-.623,7.645,7.645,0,0,1,5.069,5.106,4.943,4.943,0,0,1,.089,2.368s-.379,1.566-1.15,1.625a.742.742,0,0,1-.69-.49c-.742-1.907-2.613-3.845-5.077-3.57-2.709.289-4.631,2.9-5.448,5.054-1.67,4.379,1.076,8.276,4.654,9.864a.549.549,0,0,1,.282.742.557.557,0,0,1-.742.282c-4.728-2.1-6.932-6.843-5.24-11.274.928-2.449,3.162-5.426,6.368-5.774a6.065,6.065,0,0,1,5.886,3.5l.067-.2a3.778,3.778,0,0,0-.074-1.811,6.606,6.606,0,0,0-4.312-4.349,9.6,9.6,0,0,0-6.287.586c-4.372,1.818-6.747,5.426-6.865,10.436s1.878,9.337,6.1,12.907a.564.564,0,0,1,.059.787A.542.542,0,0,1,66.959,185.414Z" transform="translate(-23.705 -49.195)"/><path class="g" d="M124.132,148.92c1.44-2.731-4.32-3.117-5.544-3.243-3.555-.364-7.081-.742-10.614-1.254-1.1-.156-2.093-.675-3.177,0-1.284.742-1.64,3.206,0,3.414,4.453.572,8.907,1.41,13.36,1.714C119.583,149.655,123.219,150.628,124.132,148.92Z" transform="translate(-35.065 -45.296)"/><path class="b" d="M117.927,128.556a.557.557,0,0,1-.49-.245,6.679,6.679,0,0,0-1.351-.972.549.549,0,0,1-.2-.742.557.557,0,0,1,.742-.2,6.435,6.435,0,0,1,1.744,1.351.564.564,0,0,1-.193.742A.5.5,0,0,1,117.927,128.556Z" transform="translate(-38.18 -40.704)"/><path class="f" d="M96.489,159.89s3.533,9.092,1.054,13.634c-3.474,6.368-6.821,9.6-8.469,10.844-2.583,1.967-10.948,2.271-10.057-5.233C78.987,179.136,85.823,177.651,96.489,159.89Z" transform="translate(-28.615 -49.395)"/><path class="f" d="M84.619,185.918a7.712,7.712,0,0,1-3.756-.891c-1.418-.816-3.021-2.538-2.6-6.153a.542.542,0,0,1,.438-.475c.059,0,6.769-1.759,17.115-18.993a.542.542,0,0,1,.52-.267.572.572,0,0,1,.475.356c.148.379,3.6,9.389,1.024,14.1-3.756,6.888-7.281,10.005-8.617,11.022A8,8,0,0,1,84.619,185.918Zm-5.285-6.554c-.178,2.227.527,3.8,2.086,4.691a7.481,7.481,0,0,0,7.125-.319c1.284-.98,4.661-3.971,8.313-10.673,1.841-3.362.119-9.56-.742-12.068-8.981,14.711-15.178,17.783-16.781,18.37Z" transform="translate(-28.42 -49.201)"/><path class="f" d="M96.87,123.566l-3.4-1.076s-.854,3.154-.861,3.206A6.932,6.932,0,0,0,96.87,123.566Z" transform="translate(-32.146 -39.712)"/><path class="f" d="M92.416,126.059a.557.557,0,0,1-.549-.661s0-.074.868-3.251a.594.594,0,0,1,.275-.341.549.549,0,0,1,.43-.045l3.4,1.076a.572.572,0,0,1,.371.379.549.549,0,0,1-.119.52,7.422,7.422,0,0,1-4.631,2.323ZM93.663,123c-.134.5-.334,1.232-.482,1.8a6.42,6.42,0,0,0,2.434-1.18Z" transform="translate(-31.952 -39.518)"/><path class="f" d="M114.046,120.717s.6.319-2.39.579c-.742.059-2.152.349-2.717.468a11.385,11.385,0,0,0-2.568.9h0a4.253,4.253,0,0,1,3.407-1.759.141.141,0,0,0,.126-.208,29.1,29.1,0,0,0-3.258-4.988,1.269,1.269,0,0,1-.327-.661c-.126-1.722,4.676.364,5.285.742a4.245,4.245,0,0,1,1.677,2.761,13.359,13.359,0,0,0,.742,2.227" transform="translate(-35.719 -37.616)"/><path class="f" d="M106.183,123.028a.542.542,0,0,1-.43-.2.557.557,0,0,1,0-.7,4.906,4.906,0,0,1,3.184-1.93,28.346,28.346,0,0,0-2.895-4.327,1.744,1.744,0,0,1-.445-.972,1.076,1.076,0,0,1,.52-1.061c1.381-.824,5.329,1.121,5.619,1.306a4.81,4.81,0,0,1,1.915,3.036,12.345,12.345,0,0,0,.668,2,.653.653,0,0,1,.148.542c-.1.482-.549.742-2.969.943-.742.059-2.227.364-2.642.453a10.711,10.711,0,0,0-2.434.854.624.624,0,0,1-.238.059Zm7.422-2.019Zm-6.583-6.287a.571.571,0,0,0-.334.074,1.224,1.224,0,0,0,.223.371,29.9,29.9,0,0,1,3.325,5.084.668.668,0,0,1,.059.46c.423-.074.839-.134,1.143-.163a13.427,13.427,0,0,0,1.737-.223,17.985,17.985,0,0,1-.594-1.856,3.711,3.711,0,0,0-1.484-2.39,12.536,12.536,0,0,0-4.1-1.358Z" transform="translate(-35.532 -37.426)"/><path class="b" d="M114.45,130.945a.468.468,0,0,1-.223-.052,2.138,2.138,0,0,0-1-.215.557.557,0,1,1-.379-1.046,2.887,2.887,0,0,1,1.826.245.557.557,0,0,1-.223,1.069Z" transform="translate(-37.309 -41.544)"/><path class="b" d="M123.4,138.361a1.231,1.231,0,0,1-.364-.052,1.3,1.3,0,0,1-.9-.824,35.294,35.294,0,0,1-1.358-5.752.557.557,0,0,1,.453-.646.564.564,0,0,1,.646.453,33.325,33.325,0,0,0,1.3,5.559.23.23,0,0,0,.156.141.26.26,0,0,0,.215-.045l.92-.609a21.257,21.257,0,0,0,1.937-1.529,20.039,20.039,0,0,0,2.62-2.917.558.558,0,1,1,.883.683,21.183,21.183,0,0,1-2.768,3.073,20.278,20.278,0,0,1-2.063,1.618l-.876.579a1.269,1.269,0,0,1-.8.267Z" transform="translate(-39.484 -41.935)"/><path d="M122.111,148.7a16.419,16.419,0,0,1-2.449-.26c-.312-.052-.579-.1-.794-.119-2.627-.208-5.285-.623-7.86-1.017-1.306-.2-2.605-.4-3.911-.572a1.64,1.64,0,0,1-1.484-1.358,2.353,2.353,0,0,1,1.195-2.4,3.347,3.347,0,0,1,2.486-.111c.215.045.423.1.646.126,3.154.482,6.287.839,9.307,1.18h.208c2.093.223,4.579.638,5.2,1.907a1.574,1.574,0,0,1-.1,1.566h0A2.494,2.494,0,0,1,122.111,148.7Zm-14.057-4.906a1.484,1.484,0,0,0-.742.171,1.247,1.247,0,0,0-.616,1.21.527.527,0,0,0,.52.453c1.314.178,2.62.379,3.934.579,2.553.393,5.2.8,7.793,1.009a5.476,5.476,0,0,1,.861.126c1.1.171,3.37.542,3.808-.223h0c.171-.312.1-.453.074-.512-.215-.408-1.136-.965-4.364-1.306h-.208c-3.043-.341-6.183-.7-9.359-1.18-.245-.037-.482-.1-.742-.148a4.855,4.855,0,0,0-.957-.178Z" transform="translate(-35.554 -44.933)"/><path class="g" d="M130.21,150.045s5.938-1.009,8.164,6.591C138.352,156.635,130.121,156.68,130.21,150.045Z" transform="translate(-41.938 -46.826)"/><path class="g" d="M140.987,140.454s-5.76-1.766-8.907,5.485C132.065,145.939,140.222,147.015,140.987,140.454Z" transform="translate(-42.427 -44.309)"/><path d="M137.878,154.816c-.208,0-4.015,0-6.257-2.3a5.574,5.574,0,0,1-1.573-4.156v-.46l.46-.082c.059,0,5.819-.906,7.9,6.286l.208.705Zm-6.68-5.938a4.364,4.364,0,0,0,1.24,2.85,8,8,0,0,0,4.691,1.922c-1.625-4.431-4.75-4.8-5.96-4.772Z" transform="translate(-41.896 -46.253)"/><path d="M131.262,146.426h-.742l.208-.742c2.086-7.192,7.845-6.294,7.9-6.279l.453.074v.468a5.574,5.574,0,0,1-1.574,4.149C135.278,146.389,131.47,146.426,131.262,146.426Zm6.613-5.938c-1.262,0-4.283.475-5.834,4.772a8,8,0,0,0,4.691-1.922,4.32,4.32,0,0,0,1.232-2.843Z" transform="translate(-42.02 -44.076)"/><path class="h" d="M105.309,192.037s4.179-15.119,10.287-8.12-5.99,15.445-5.99,15.445S104.344,201.033,105.309,192.037Z" transform="translate(-35.435 -55.125)"/><path class="c" d="M12,245.355v16.678c12.618-1.989,22.3-11.534,26.133-21.814.661-1.789,3.548-21.361,3.184-21.279C26.347,222.3,14.227,231.6,12,245.355" transform="translate(-11.169 -64.69)"/><path d="M13.514,261.947a.557.557,0,0,1-.1-1.106c10.087-1.752,18.978-9.923,22.667-20.782.534-1.581,2.516-16.492,2.791-19.78-13.79,3.615-23.009,12.922-24.812,25.013a.557.557,0,1,1-1.1-.156c1.863-12.781,11.712-22.548,26.334-26.141a.579.579,0,0,1,.549.163c.215.238.379.416-.95,10.25-.609,4.453-1.432,10.005-1.759,10.977-3.815,11.267-13.018,19.735-23.528,21.554Z" transform="translate(-11.414 -64.7)"/><path d="M13.518,259.643a.579.579,0,0,1-.3-.089.564.564,0,0,1-.163-.742L37.1,222.132c-9.493,8.907-22.942,34.453-23.083,34.735a.558.558,0,1,1-.987-.52c.668-1.277,16.462-31.3,26.111-37.237a.557.557,0,0,1,.742.742l-25.9,39.538A.549.549,0,0,1,13.518,259.643Z" transform="translate(-11.417 -64.72)"/><path d="M38.807,234.4a.549.549,0,0,1-.549-.475.557.557,0,0,1,.468-.631l6-.891a.564.564,0,0,1,.631.475.557.557,0,0,1-.468.631l-6,.891Z" transform="translate(-18.004 -68.161)"/><path d="M37.1,237.238a.557.557,0,0,1-.557-.52.549.549,0,0,1,.52-.586l6.613-.423a.549.549,0,0,1,.586.52.564.564,0,0,1-.52.594l-6.606.416Z" transform="translate(-17.494 -69.013)"/><path d="M34.188,241.951a.557.557,0,0,1-.052-1.106L42.471,240a.542.542,0,0,1,.609.5.549.549,0,0,1-.5.609l-8.335.824Z" transform="translate(-16.753 -70.117)"/><path d="M39.818,250.443H28.537a.557.557,0,1,1,0-1.113H39.818a.557.557,0,1,1,0,1.113Z" transform="translate(-15.288 -72.524)"/><path d="M37.98,254.038h0l-11.63-.245a.564.564,0,0,1-.549-.572.534.534,0,0,1,.572-.542l11.63.245a.557.557,0,1,1,0,1.113Z" transform="translate(-14.726 -73.387)"/><path d="M34.574,259.69h0l-11.46-.356a.549.549,0,0,1-.534-.572.579.579,0,0,1,.572-.542l11.46.356a.557.557,0,1,1,0,1.113Z" transform="translate(-13.896 -74.816)"/><path d="M32.118,244.7a.549.549,0,0,1-.549-.512.542.542,0,0,1,.5-.594l9.871-.794a.571.571,0,0,1,.6.512.564.564,0,0,1-.512.6l-9.871.787Z" transform="translate(-16.213 -70.84)"/><path d="M31.349,236.241a.549.549,0,0,1-.527-.393L28.6,228.6a.557.557,0,0,1,1.061-.327l2.227,7.244a.557.557,0,0,1-.371.7.58.58,0,0,1-.163.022Z" transform="translate(-15.443 -67.005)"/><path d="M28.294,239.332a.564.564,0,0,1-.534-.379l-2.479-7.578a.559.559,0,0,1,1.061-.349l2.479,7.578a.549.549,0,0,1-.356.7A.489.489,0,0,1,28.294,239.332Z" transform="translate(-14.585 -67.707)"/><path d="M25.907,243.859a.594.594,0,0,1-.3-.082.557.557,0,0,1-.223-.683c0-.742-1.484-4.587-2.924-7.808a.558.558,0,0,1,1.017-.46c3.5,7.815,3.058,8.513,2.895,8.773A.557.557,0,0,1,25.907,243.859ZM25.432,243.035Z" transform="translate(-13.853 -68.701)"/><path d="M23.97,246.5a.557.557,0,0,1-.527-.379l-3.073-9.382a.557.557,0,0,1,.356-.705.542.542,0,0,1,.7.356l3.117,9.382a.572.572,0,0,1-.356.742Z" transform="translate(-13.319 -69.09)"/><path d="M20.379,252.406a.571.571,0,0,1-.542-.423l-2.642-10.436a.572.572,0,0,1,.408-.683.564.564,0,0,1,.675.408l2.642,10.435a.564.564,0,0,1-.4.683Z" transform="translate(-12.504 -70.338)"/><path d="M16.092,260.92a.564.564,0,0,1-.542-.416l-2.227-8.328a.557.557,0,0,1,.393-.683.564.564,0,0,1,.683.4l2.227,8.328a.549.549,0,0,1-.393.675A.466.466,0,0,1,16.092,260.92Z" transform="translate(-11.505 -73.077)"/><path d="M33.71,232.67a.557.557,0,0,1-.542-.43l-1.343-5.886a.557.557,0,0,1,.423-.668.564.564,0,0,1,.668.416l1.336,5.893a.564.564,0,0,1-.416.668Z" transform="translate(-16.276 -66.391)"/><path d="M30.248,265.093H18.937a.557.557,0,1,1,0-1.113H30.248a.557.557,0,1,1,0,1.113Z" transform="translate(-12.813 -76.301)"/><path d="M27.388,268.083H17a.557.557,0,1,1,0-1.113H27.388a.557.557,0,0,1,0,1.113Z" transform="translate(-12.313 -77.071)"/><path class="d" d="M48.116,220.1c1.4-1.173,1.6-2.115.683-2.806s-1.789-.1-2.486,1.6l-.742,2.739A18,18,0,0,0,48.116,220.1Z" transform="translate(-19.906 -64.15)"/><path d="M44.638,222.766a.579.579,0,0,1-.356-.126.557.557,0,0,1-.178-.572l.742-2.739c.512-1.254,1.091-1.945,1.8-2.175a1.841,1.841,0,0,1,2.345,1.64A3.145,3.145,0,0,1,47.5,221.1l-.1.074a17.948,17.948,0,0,1-2.509,1.484A.527.527,0,0,1,44.638,222.766Zm2.5-4.579a.542.542,0,0,0-.171,0c-.208.067-.623.349-1.084,1.484l-.379,1.432c.43-.26.831-.534,1.254-.816l.074-.059c.9-.742,1.032-1.2,1.024-1.41,0-.059,0-.26-.334-.5A.742.742,0,0,0,47.139,218.187Zm0,2.486Z" transform="translate(-19.52 -64.169)"/><g class="i" transform="translate(0 0)"><path d="M138.88,210.85h-128v-200h128ZM13.84,207.884H135.92V13.816H13.84Z" transform="translate(-10.88 -10.85)"/></g><g class="j" transform="translate(1.484 1.484)"><path d="M55.832,27.5a23.008,23.008,0,0,0,1.1-7.058c0-12.417-9.871-22.526-22-22.526S12.925,8.029,12.925,20.446A22.756,22.756,0,0,0,14.03,27.5C2.289,27.957-7.13,37.9-7.13,50.016c0,12.417,9.871,22.526,22.007,22.526A21.65,21.65,0,0,0,29.528,66.8l-4.735,16.44H44.921L40.149,66.634a21.643,21.643,0,0,0,14.844,5.938c12.135,0,22-10.109,22-22.526C76.985,37.881,67.574,27.957,55.832,27.5Z" transform="translate(-7.722 -9.001)"/></g><path class="b" d="M26.593,35.692a2.88,2.88,0,0,0,.742-1.232,5.1,5.1,0,0,0,.252-1.321c.045-.5.059-1.269.059-2.316v-6.6l-1.425-.193V23.29H30.6v.742l-1.358.193V32.85a7.615,7.615,0,0,1-.134,1.225,3.563,3.563,0,0,1-1.173,1.967,4.394,4.394,0,0,1-2.086.98l-.43-.586A2.969,2.969,0,0,0,26.593,35.692Z" transform="translate(-14.628 -14.057)"/></svg>