<svg xmlns="http://www.w3.org/2000/svg" xmlns:xlink="http://www.w3.org/1999/xlink" width="128" height="200" viewBox="0 0 128 200"><defs><style>.a{fill:none;}.b{fill:#fff;}.c{fill:#170000;}.d{clip-path:url(#a);}</style><clipPath id="a"><rect class="a" width="88.42" height="84.377"/></clipPath></defs><rect class="b" width="125.044" height="197.044" transform="translate(1.478 1.478)"/><path d="M138.88,210.85h-128v-200h128ZM13.84,207.884H135.92V13.816H13.84Z" transform="translate(-10.88 -10.85)"/><path class="c" d="M28.54,27.235a7.753,7.753,0,0,1-.983.281c-.443.111-.806.185-1.079.229l-.148-.835a6.8,6.8,0,0,0,1.545-.547,6.245,6.245,0,0,0,1.33-.843h0l.9.148V34l1.84.14v.739H26.626v-.739L28.54,34Z" transform="translate(-14.911 -14.677)"/><path class="c" d="M36.556,33.71a5.662,5.662,0,0,1-.939-3.4,5.721,5.721,0,0,1,.532-2.543,3.939,3.939,0,0,1,1.478-1.67,3.7,3.7,0,0,1,1.966-.562A3.215,3.215,0,0,1,42.41,26.77a5.743,5.743,0,0,1,.887,3.393,6.009,6.009,0,0,1-.51,2.543,4.058,4.058,0,0,1-1.4,1.715,3.5,3.5,0,0,1-2.01.606A3.259,3.259,0,0,1,36.556,33.71Zm5.115-3.4a7.059,7.059,0,0,0-.5-2.956,1.707,1.707,0,0,0-1.663-1.035,1.8,1.8,0,0,0-1.693.983,5.913,5.913,0,0,0-.547,2.831,7.169,7.169,0,0,0,.525,3.016,1.752,1.752,0,0,0,1.67,1.138Q41.671,34.272,41.671,30.31Z" transform="translate(-17.332 -14.678)"/><path d="M165.174,27.153a3.215,3.215,0,1,0-6.253-1.027,3.429,3.429,0,0,0,.155,1.027A3.275,3.275,0,1,0,159.2,33.7a3.134,3.134,0,0,0,2.129-.835l-.687,2.395H163.6l-.695-2.417a3.141,3.141,0,0,0,2.158.857,3.275,3.275,0,0,0,.118-6.549Z" transform="translate(-48.571 -13.99)"/><path d="M146.936,174.1a2.956,2.956,0,0,0-.739.333,2.522,2.522,0,1,0,2.705,4.257,2.749,2.749,0,0,0,.621-.547,2.581,2.581,0,0,0,4.3-2.853,2.491,2.491,0,0,0-1.478-1.064l1.877-.554-1.242-1.944-1.308,1.478a2.528,2.528,0,0,0-.34-1.8,2.593,2.593,0,0,0-4.435,2.69Z" transform="translate(-45.766 -52.014)"/><path d="M107.618,194.537a2.446,2.446,0,0,0-.739.333,2.521,2.521,0,1,0,2.713,4.25,2.846,2.846,0,0,0,.613-.54,2.587,2.587,0,0,0,4.3-2.853,2.461,2.461,0,0,0-1.478-1.064l1.877-.554-1.234-1.951-1.316,1.478a2.513,2.513,0,0,0-.34-1.8,2.593,2.593,0,1,0-4.435,2.69Z" transform="translate(-35.542 -57.296)"/><path d="M117.853,166.952a2.535,2.535,0,1,0,.37,4.967,2.749,2.749,0,0,0,.739-.31,2.587,2.587,0,1,0,3.954-2.794l1.966.089-.547-2.217-1.722.983a2.469,2.469,0,0,0,.259-1.811,2.587,2.587,0,0,0-5.041,1.123Z" transform="translate(-37.964 -50.42)"/><path d="M159.214,140.135a2.727,2.727,0,0,0-.8.185,2.522,2.522,0,1,0,1.848,4.693A2.705,2.705,0,0,0,161,144.6a2.587,2.587,0,0,0,4.767-1.988,2.506,2.506,0,0,0-1.227-1.323l1.951-.185-.85-2.143-1.567,1.2a2.491,2.491,0,0,0,0-1.833,2.587,2.587,0,0,0-4.841,1.8Z" transform="translate(-48.82 -43.39)"/><path d="M90.352,185.165a2.706,2.706,0,0,0-.813-.118,2.521,2.521,0,1,0,.865,4.908,2.588,2.588,0,1,0,5.174-.148,2.5,2.5,0,0,0-.673-1.67l1.885.517v-2.306l-1.9.569a2.5,2.5,0,0,0,.658-1.707,2.587,2.587,0,1,0-5.174-.044Z" transform="translate(-30.687 -55.229)"/><path d="M19.786,182.858a2.875,2.875,0,0,0-.554-.606,2.528,2.528,0,1,0-3.156,3.939,2.721,2.721,0,0,0,.739.407,2.587,2.587,0,0,0,4.087,3.156,2.483,2.483,0,0,0,.54-1.722l1.131,1.6,1.412-1.826-1.826-.739a2.446,2.446,0,0,0,1.589-.9,2.579,2.579,0,1,0-3.962-3.3Z" transform="translate(-11.959 -54.974)"/><path d="M39.955,176.46a2.476,2.476,0,0,0-.835-.118,2.52,2.52,0,1,0,.052,5.041,2.453,2.453,0,0,0,.806-.133,2.588,2.588,0,1,0,5.174-.155,2.446,2.446,0,0,0-.673-1.67l1.892.525v-2.313l-1.9.569a2.476,2.476,0,0,0,.658-1.707,2.587,2.587,0,1,0-5.174,0Z" transform="translate(-17.597 -52.984)"/><path d="M167.485,156.425a2.631,2.631,0,0,0-.318.739,2.523,2.523,0,1,0,4.893,1.234,2.735,2.735,0,0,0,.074-.813,2.587,2.587,0,0,0,1.175-5.033,2.505,2.505,0,0,0-1.8.229l.99-1.693-2.217-.569.067,1.981a2.5,2.5,0,0,0-1.478-1.072,2.587,2.587,0,0,0-1.367,4.982Z" transform="translate(-51.148 -46.94)"/><path d="M27.431,202.091a2.646,2.646,0,0,0-.325.739,2.523,2.523,0,1,0,4.967.421,2.581,2.581,0,0,0,1.175-5.026,2.447,2.447,0,0,0-1.789.222l.976-1.648-2.217-.569.067,1.981a2.491,2.491,0,0,0-1.478-1.072,2.587,2.587,0,0,0-1.375,4.952Z" transform="translate(-14.777 -58.751)"/><path d="M58.47,189.979a2.425,2.425,0,0,0-.739.407,2.521,2.521,0,0,0,3.119,3.962,2.662,2.662,0,0,0,.554-.6,2.587,2.587,0,0,0,4-3.274,2.491,2.491,0,0,0-1.56-.909l1.818-.739-1.426-1.818-1.16,1.611a2.491,2.491,0,0,0-.517-1.759,2.587,2.587,0,0,0-4.117,3.119Z" transform="translate(-22.814 -56.098)"/><g class="d" transform="translate(2.602 43.189)"><path d="M-9.193,159.8a.547.547,0,0,1-.547-.532.547.547,0,0,1,.147-.4.547.547,0,0,1,.385-.173,27.265,27.265,0,0,0,11.175-2.956c.791-.525,3.038-2.173,3.6-3.23.739-1.375,7.783-8.463,12.092-8.322a.554.554,0,0,1,0,1.1h0c-3.622-.155-10.311,6.268-11.087,7.731s-3.7,3.444-3.991,3.7A27.954,27.954,0,0,1-9.193,159.8Z" transform="translate(-8.102 -88.586)"/><path d="M46.2,136.274c-4.435,0-10.052-1.715-11.774-3.415-1.973-1.936-4.109-1.286-6.585-.532l-.51.155a17.776,17.776,0,0,1-7.509.266c-4.76-.658-8.5-5.839-8.655-6.061a.554.554,0,0,1,.894-.643c.037.052,3.622,5.026,7.916,5.617a16.94,16.94,0,0,0,7.036-.229l.51-.155c2.572-.791,5.24-1.6,7.672.8,2.04,2,11.028,4.176,14.45,2.506,1.973-.961,2.217-1.648,2.217-1.9,0-.384-.436-.843-1.256-1.286l-.443-.244c-1.293-.739-1.737-.939-5.3-.939h-.1c-3.592,0-4.161-.739-5.011-2.313-.126-.229-.259-.473-.421-.739-1.256-2.077-2.343-3.1-4.435-2.535-2.883.739-4.8-2.18-5-2.52a3.1,3.1,0,0,1-.244-1.678c0-.2,0-.37,0-.451a22.307,22.307,0,0,0-1.116-4.708c-1.271-3.585-3.481-6.105-6.216-7.1a.562.562,0,0,1-.34-.695.554.554,0,0,1,.687-.347,13.622,13.622,0,0,0,10.673-.872A10.976,10.976,0,0,0,38.633,99.1c.783-3.171-1.523-6.866-4.036-9.017a12.447,12.447,0,0,1,1.086,6.844c-.473,2.72-2.217,3.7-4.6,4.767a19.135,19.135,0,0,1-9.823,1.109c-2.077-.325-9.542-.739-18.655,7.738-8.1,7.517-10.466,8.418-14.213,9.372-3.259.85-8.869,2.025-9.941.259a.547.547,0,0,1,.192-.739.547.547,0,0,1,.739.192c.384.643,3.755.54,8.714-.739,3.6-.946,5.839-1.774,13.747-9.128,9.512-8.855,17.391-8.4,19.586-8.056a17.946,17.946,0,0,0,9.2-1.02c2.217-1,3.585-1.759,3.962-3.954A11.264,11.264,0,0,0,32.38,88.6a.547.547,0,0,1,0-.687.554.554,0,0,1,.673-.163c3.489,1.656,7.82,7.014,6.652,11.634a12.1,12.1,0,0,1-5.817,7.857,14.043,14.043,0,0,1-8.285,1.619,13.925,13.925,0,0,1,3.969,6.061,23.216,23.216,0,0,1,1.153,4.952,5.387,5.387,0,0,1,0,.584,6.718,6.718,0,0,0,.059,1.079h0c.067.111,1.6,2.624,3.8,2.047,3.038-.806,4.516,1.138,5.662,3.03.17.281.318.54.443.783.687,1.256.953,1.737,4.028,1.737h.318c3.489,0,4.146.266,5.617,1.079l.429.237c1.242.665,1.863,1.434,1.84,2.276,0,1.013-.946,1.951-2.823,2.868a9.187,9.187,0,0,1-3.9.68ZM30.813,121.492Zm-.052-.081Z" transform="translate(-5.003 -73.849)"/><path d="M65.2,137.892a22.38,22.38,0,0,1-8.988-2.262.547.547,0,0,1,.466-.99c3.9,1.826,9.195,3.134,12.343,1.286a3.164,3.164,0,0,0,1.523-1.478.613.613,0,0,0-.126-.54,5.255,5.255,0,0,0-3.023-2.025,9.608,9.608,0,0,0-2.336.052A9.113,9.113,0,0,1,62,131.883a3.474,3.474,0,0,1-2.217-1.722c-.148-.207-.3-.429-.488-.658a6.171,6.171,0,0,0-3.252-1.988c-2.956-.65-4.856-.288-8.256.466a.554.554,0,0,1-.658-.421.547.547,0,0,1,.421-.658c3.459-.739,5.565-1.16,8.729-.458a7.332,7.332,0,0,1,3.873,2.365c.2.251.37.5.532.739a2.476,2.476,0,0,0,1.574,1.279,8.079,8.079,0,0,0,2.705,0,11.249,11.249,0,0,1,2.594-.044,6.379,6.379,0,0,1,3.762,2.483,1.73,1.73,0,0,1,.31,1.4,3.964,3.964,0,0,1-2.047,2.217,8.647,8.647,0,0,1-4.376,1.005Z" transform="translate(-22.934 -83.863)"/><path d="M-5.32,124.451s8.455,4.782,13.3,2.956c6.763-2.513,10.429-5.359,11.892-6.8,2.306-2.262,3.8-10.466-3.7-10.658,0,0-1.478.111-9.608,5.95C3.786,117.873-1.055,122.286-5.32,124.451Z" transform="translate(-9.255 -79.654)"/><path d="M5.253,128.206c-4.856,0-10.747-3.289-11.042-3.459a.54.54,0,0,1-.281-.5.54.54,0,0,1,.3-.48,56.279,56.279,0,0,0,8.685-6.105c1.183-.946,2.217-1.766,3.053-2.373,7.923-5.639,9.66-6.031,9.926-6.053,3.7.089,5.174,1.922,5.75,3.437a8.577,8.577,0,0,1-1.589,8.175c-1.2,1.175-4.767,4.2-12.092,6.918a7.738,7.738,0,0,1-2.713.436Zm-9.608-3.947c2.269,1.138,8.271,3.821,11.914,2.476,7.118-2.646,10.554-5.551,11.7-6.652a7.443,7.443,0,0,0,1.33-6.977c-.68-1.737-2.217-2.661-4.619-2.735-.266.074-2.173.739-9.379,5.846-.828.591-1.833,1.4-3,2.336a64.964,64.964,0,0,1-7.923,5.706Z" transform="translate(-9.059 -79.469)"/></g><path d="M138.88,210.85h-128v-200h128ZM13.84,207.884H135.92V13.816H13.84Z" transform="translate(-10.88 -10.85)"/></svg>