<svg xmlns="http://www.w3.org/2000/svg" xmlns:xlink="http://www.w3.org/1999/xlink" width="128" height="200" viewBox="0 0 128 200"><defs><style>.a{fill:none;}.b{fill:#fff;}.c{fill:#858585;}.d{fill:#ffe700;}.e{clip-path:url(#a);}.f{fill:#231815;}.g{fill:#c21823;}.h{fill:#ffb4c0;}.i{fill:#da003a;}.j{clip-path:url(#b);}.k{opacity:0.6;}</style><clipPath id="a"><rect class="a" width="27.34" height="78.796"/></clipPath><clipPath id="b"><rect class="a" width="77.17" height="82.115"/></clipPath></defs><rect class="b" width="125.044" height="197.044" transform="translate(1.478 1.478)"/><path d="M138.88,210.85h-128v-200h128ZM13.84,207.884H135.92V13.816H13.84Z" transform="translate(-10.88 -10.85)"/><path class="c" d="M169.341,236.447v21.338c-15.041-2.55-26.608-14.782-31.2-27.9-.8-2.291-4.242-27.347-3.806-27.214,17.916,4.287,32.366,16.164,35,33.777" transform="translate(-42.945 -60.254)"/><path d="M170.867,256.857h-.1c-13.3-2.4-25-13.555-29.838-28.411-.414-1.271-1.478-8.6-2.217-14.5-1.685-12.934-1.478-13.186-1.249-13.407a.576.576,0,0,1,.554-.163c18.552,4.738,31.043,17.6,33.4,34.413a.54.54,0,0,1-.466.621.554.554,0,0,1-.628-.466c-2.269-16.15-14.176-28.559-31.907-33.312.251,3.843,2.846,24.228,3.577,26.467,4.716,14.479,16.09,25.337,28.973,27.665a.562.562,0,0,1,.451.643A.554.554,0,0,1,170.867,256.857Z" transform="translate(-43.731 -59.651)"/><path d="M170.868,253.781a.539.539,0,0,1-.466-.259L137.409,201.2a.547.547,0,0,1,.074-.687.562.562,0,0,1,.695-.074c12.247,7.842,32.336,47.532,33.186,49.217a.554.554,0,1,1-.99.5c-.192-.377-18.2-35.965-30.348-46.874l31.316,49.653a.562.562,0,0,1-.177.739A.525.525,0,0,1,170.868,253.781Z" transform="translate(-43.733 -59.649)"/><path d="M147.425,220.485h-.081l-7.65-1.175a.554.554,0,1,1,.17-1.094l7.642,1.175a.562.562,0,0,1,.466.636A.547.547,0,0,1,147.425,220.485Z" transform="translate(-44.249 -64.449)"/><path d="M149.418,224.252h0L141,223.7a.554.554,0,0,1-.51-.591.54.54,0,0,1,.584-.517l8.418.554a.555.555,0,0,1-.037,1.109Z" transform="translate(-44.585 -65.584)"/><path d="M152.357,230.524H152.3l-10.614-1.086a.554.554,0,0,1-.5-.613.547.547,0,0,1,.606-.5l10.621,1.094a.555.555,0,1,1-.059,1.109Z" transform="translate(-44.764 -66.947)"/><path d="M158.245,241.8H143.884a.554.554,0,0,1,0-1.109h14.361a.554.554,0,1,1,0,1.109Z" transform="translate(-45.301 -70.173)"/><path d="M146.084,246.574a.554.554,0,0,1,0-1.109l14.782-.325h0a.554.554,0,1,1,0,1.109Z" transform="translate(-45.875 -71.334)"/><path d="M150.514,254.084a.554.554,0,0,1,0-1.109l14.59-.466h0a.547.547,0,0,1,.554.532.562.562,0,0,1-.532.576l-14.59.466Z" transform="translate(-47.031 -73.257)"/><path d="M154.3,234.165h-.044l-12.565-1.042a.564.564,0,0,1,.1-1.123l12.565,1.042a.555.555,0,1,1-.044,1.109Z" transform="translate(-44.738 -67.905)"/><path d="M158.734,222.865h-.155a.554.554,0,0,1-.377-.687l2.8-9.608a.562.562,0,0,1,.687-.377.554.554,0,0,1,.377.687l-2.8,9.608A.562.562,0,0,1,158.734,222.865Z" transform="translate(-49.175 -62.868)"/><path d="M162.525,227a.609.609,0,0,1-.163,0,.554.554,0,0,1-.37-.68l3.156-10.03a.547.547,0,0,1,.695-.362.554.554,0,0,1,.362.695l-3.156,10.03a.554.554,0,0,1-.525.347Z" transform="translate(-50.164 -63.831)"/><path d="M165.368,233a.547.547,0,0,1-.473-.273c-.473-.739.739-4.619,3.7-11.419a.556.556,0,1,1,1.02.443c-1.936,4.494-3.858,9.608-3.747,10.458a.554.554,0,0,1-.214.739A.569.569,0,0,1,165.368,233ZM165.848,232.162Z" transform="translate(-50.901 -65.14)"/><path d="M167.806,236.523a.612.612,0,0,1-.163,0,.554.554,0,0,1-.362-.695l3.91-12.439a.554.554,0,0,1,1.057.333l-3.91,12.439A.554.554,0,0,1,167.806,236.523Z" transform="translate(-51.543 -65.563)"/><path d="M172.574,244.35h-.133a.554.554,0,0,1-.407-.673l3.363-13.829a.554.554,0,0,1,.665-.414.562.562,0,0,1,.406.673l-3.363,13.784A.547.547,0,0,1,172.574,244.35Z" transform="translate(-52.785 -67.233)"/><path d="M178.234,255.726H178.1a.554.554,0,0,1-.407-.673l2.823-11.02a.554.554,0,0,1,.673-.4.547.547,0,0,1,.4.673l-2.816,11.02a.562.562,0,0,1-.54.4Z" transform="translate(-54.262 -70.937)"/><path d="M156.1,218.138a.324.324,0,0,1-.118,0,.547.547,0,0,1-.421-.658l1.707-7.79a.554.554,0,1,1,1.079.237l-1.73,7.775a.547.547,0,0,1-.517.436Z" transform="translate(-48.489 -62.107)"/><path d="M170.51,261.269H156.1a.554.554,0,1,1,0-1.109H170.51a.554.554,0,0,1,0,1.109Z" transform="translate(-48.489 -75.253)"/><path d="M173.419,265.249H160.174a.554.554,0,0,1,0-1.109h13.245a.554.554,0,1,1,0,1.109Z" transform="translate(-49.551 -76.291)"/><path class="d" d="M140.232,203.632,139.3,200c-.887-2.217-1.981-2.89-3.171-2.121-1.16.916-.916,2.166.872,3.7A22.86,22.86,0,0,0,140.232,203.632Z" transform="translate(-43.271 -59.108)"/><path d="M141.036,204.987a.561.561,0,0,1-.244-.059,22.3,22.3,0,0,1-3.171-1.981l-.133-.1c-1.256-1.087-1.84-2.033-1.818-2.956a2.173,2.173,0,0,1,.917-1.663,2.128,2.128,0,0,1,1.848-.34c.865.281,1.582,1.16,2.217,2.7l.953,3.7a.547.547,0,0,1-.185.569.554.554,0,0,1-.384.133Zm-3.171-6.061a1.2,1.2,0,0,0-.636.222,1.072,1.072,0,0,0-.451.791c0,.37.229,1.035,1.39,2.04l.1.067c.636.451,1.242.88,1.914,1.286l-.613-2.387c-.436-1.094-.961-1.818-1.478-1.981a.783.783,0,0,0-.222-.037Z" transform="translate(-43.335 -59.166)"/><g class="e" transform="translate(1.722 98.136)"><path class="c" d="M30.633,207.771,17.743,228.3C4.816,216.766,1.025,198.015,4.557,182.612c.621-2.683,12.424-28.825,12.779-28.493,14.649,14.952,21.382,35.108,13.3,53.652" transform="translate(-10.626 -145.723)"/><path d="M19.726,228.505a.613.613,0,0,1-.421-.163C7.967,217.995,3.436,200.2,7.76,182.983c.37-1.478,3.792-9.165,6.652-15.3,6.186-13.467,6.549-13.563,6.9-13.651a.643.643,0,0,1,.628.177c15,15.765,19.217,35.684,11.36,53.282a.628.628,0,1,1-1.146-.51c7.532-16.911,3.57-36.039-10.591-51.331-2.077,3.858-11.9,25.041-12.565,27.635-4.206,16.785.177,34.1,11.175,44.125a.621.621,0,0,1,0,.887.606.606,0,0,1-.443.207Z" transform="translate(-11.367 -145.695)"/><path d="M26.739,225.548a.636.636,0,0,1-.628-.628L26,154.645a.643.643,0,0,1,.5-.621.621.621,0,0,1,.7.347c2.956,6.3,4.25,19.564,3.784,39.439-.34,14.745-1.567,27.842-1.574,27.968a.643.643,0,0,1-.687.569.628.628,0,0,1-.569-.687c.044-.48,4.213-45.6-.88-63.438l.126,66.734a.628.628,0,0,1-.628.628Z" transform="translate(-16.547 -145.695)"/><path d="M24.33,179.354a.628.628,0,0,1-.414-.155l-6.652-5.75a.628.628,0,0,1-.059-.887.621.621,0,0,1,.887-.067l6.652,5.75a.628.628,0,0,1-.407,1.109Z" transform="translate(-14.212 -150.477)"/><path d="M23.938,184.171a.613.613,0,0,1-.362-.126l-7.768-5.617a.63.63,0,1,1,.739-1.02l7.768,5.617a.636.636,0,0,1,.14.88A.643.643,0,0,1,23.938,184.171Z" transform="translate(-13.82 -151.768)"/><path d="M23,191.982a.636.636,0,0,1-.384-.133l-9.557-7.465a.628.628,0,0,1-.111-.88.636.636,0,0,1,.887-.111l9.557,7.465a.636.636,0,0,1,.111.887A.643.643,0,0,1,23,191.982Z" transform="translate(-13.106 -153.327)"/><path d="M21.888,206.376a.621.621,0,0,1-.333-.1L7.7,197.588a.631.631,0,0,1,.665-1.072l13.821,8.677a.628.628,0,0,1,.192.865A.613.613,0,0,1,21.888,206.376Z" transform="translate(-11.696 -156.76)"/><path d="M21.675,212.388a.628.628,0,0,1-.318-.089L6.893,203.667a.636.636,0,0,1-.214-.865.628.628,0,0,1,.865-.214l14.427,8.633a.621.621,0,0,1,.222.857A.636.636,0,0,1,21.675,212.388Z" transform="translate(-11.483 -158.345)"/><path d="M21.212,222.056a.606.606,0,0,1-.318-.089L6.57,213.586a.629.629,0,0,1,.636-1.086l14.324,8.359a.636.636,0,0,1,.222.865A.628.628,0,0,1,21.212,222.056Z" transform="translate(-11.396 -160.932)"/><path d="M22.674,196.68a.6.6,0,0,1-.377-.133l-11.456-8.588a.628.628,0,0,1,.739-1.013l11.464,8.6a.628.628,0,0,1,.118.88A.613.613,0,0,1,22.674,196.68Z" transform="translate(-12.533 -154.262)"/><path d="M31.715,189.068a.628.628,0,0,1-.421-1.1l8.492-7.524a.621.621,0,0,1,.887.052.628.628,0,0,1-.052.887l-8.492,7.561a.628.628,0,0,1-.414.126Z" transform="translate(-17.872 -152.549)"/><path d="M32.778,195.4a.628.628,0,0,1-.407-1.109l9.1-7.738a.627.627,0,1,1,.813.953l-9.091,7.746A.636.636,0,0,1,32.778,195.4Z" transform="translate(-18.151 -154.146)"/><path d="M31.711,203.034h0a.636.636,0,0,1-.621-.643c0-1.035,3.54-3.976,10.466-8.751a.621.621,0,0,1,.872.163.628.628,0,0,1-.163.88c-4.575,3.156-9.512,6.918-9.919,7.8A.621.621,0,0,1,31.711,203.034ZM32.339,202.413Z" transform="translate(-17.875 -156.005)"/><path d="M31.578,207.9a.628.628,0,0,1-.407-1.109l11.279-9.608a.629.629,0,0,1,.813.961l-11.279,9.608A.658.658,0,0,1,31.578,207.9Z" transform="translate(-17.838 -156.921)"/><path d="M31.145,218.216a.643.643,0,0,1-.451-.192.628.628,0,0,1,0-.894l11.582-11.264a.628.628,0,0,1,.887,0,.636.636,0,0,1,0,.894L31.611,218.038a.636.636,0,0,1-.466.177Z" transform="translate(-17.723 -159.176)"/><path d="M30.356,232.424a.628.628,0,0,1-.436-1.086l9.372-8.869a.63.63,0,1,1,.872.909l-9.372,8.884a.658.658,0,0,1-.436.163Z" transform="translate(-17.518 -163.509)"/><path d="M32.419,182.7a.636.636,0,0,1-.443-.177.628.628,0,0,1,0-.887l6.349-6.467a.63.63,0,0,1,.9.88l-6.349,6.467a.628.628,0,0,1-.458.185Z" transform="translate(-18.058 -151.167)"/><path d="M21.878,232.538a.688.688,0,0,1-.333-.1L7.687,223.735a.628.628,0,1,1,.665-1.064l13.866,8.7a.636.636,0,0,1-.34,1.168Z" transform="translate(-11.685 -163.579)"/><path d="M22.273,238.121a.621.621,0,0,1-.333-.1l-12.742-8a.628.628,0,0,1-.229-.865.636.636,0,0,1,.872-.2l12.75,8a.628.628,0,0,1,.2.865A.636.636,0,0,1,22.273,238.121Z" transform="translate(-12.081 -165.223)"/><path class="d" d="M26.937,158.854l1.3-4.05c.5-2.7-.163-3.976-1.774-3.954-1.663.177-2.217,1.53-1.4,4.1A25.765,25.765,0,0,0,26.937,158.854Z" transform="translate(-16.205 -144.87)"/><path d="M28.384,159.209a.554.554,0,0,1-.473-.259,25.669,25.669,0,0,1-1.848-3.814l-.067-.17c-.547-1.774-.532-3.016,0-3.858A2.417,2.417,0,0,1,27.83,150.1a2.277,2.277,0,0,1,1.922.739c.643.776.8,2.033.458,3.851L28.894,158.8a.562.562,0,0,1-.458.384Zm-.436-8h-.037a1.271,1.271,0,0,0-.968.517c-.355.532-.318,1.523.1,2.868l.044.118c.37.88.739,1.715,1.16,2.572l.9-2.823c.325-1.737.052-2.52-.229-2.86A1.182,1.182,0,0,0,27.948,151.2Z" transform="translate(-16.44 -144.671)"/></g><path class="f" d="M118.224,129.393a34.977,34.977,0,0,0,1.323,5.632.783.783,0,0,0,1.234.333l1.766-1.426s5.262-5.033,2.668-7.724c-1.944-2.025-5.388-2.1-6.992-2.01a7.864,7.864,0,0,1-2.276-.185,3.289,3.289,0,0,1-.924-.318,2.3,2.3,0,0,1-.687-1.2s.222.857-.857,1.678-4.435,2.07-4.789,3.614c-.347,1.4-.044,4.819,2.786,6.312a10.717,10.717,0,0,0,4.937,1.441,7.021,7.021,0,0,1,4.213,2.72,5.078,5.078,0,0,0,2.469,1.781l.621.251-1.168-6.356" transform="translate(-36.28 -39.685)"/><path class="f" d="M123.522,140.647a.686.686,0,0,1-.214,0l-.621-.259a5.514,5.514,0,0,1-2.735-2.01,6.614,6.614,0,0,0-3.829-2.454,5.182,5.182,0,0,0-.525-.059,10.65,10.65,0,0,1-4.575-1.478c-3.171-1.67-3.429-5.462-3.067-6.933.333-1.323,2.173-2.328,3.651-3.126a11.745,11.745,0,0,0,1.345-.8c.739-.562.65-1.086.65-1.109a.562.562,0,0,1,.407-.658.54.54,0,0,1,.658.362,1.84,1.84,0,0,0,.473.916,2.719,2.719,0,0,0,.739.237,7.34,7.34,0,0,0,2.121.17c1.885-.1,5.366,0,7.391,2.217a3.067,3.067,0,0,1,.872,2.276c-.052,2.469-2.579,5.233-3.348,6.016l1.116,6.075a.54.54,0,0,1-.54.65Zm-9.246-16.9a3.037,3.037,0,0,1-.65.665,12.753,12.753,0,0,1-1.478.88c-1.153.628-2.89,1.574-3.1,2.424-.259,1.027-.14,4.294,2.506,5.691a9.683,9.683,0,0,0,4.154,1.316,3.9,3.9,0,0,1,.621.066,7.642,7.642,0,0,1,4.6,2.956,4.117,4.117,0,0,0,1.877,1.4l-.813-4.435-1.035.835a1.367,1.367,0,0,1-1.2.259,1.345,1.345,0,0,1-.9-.828,35.308,35.308,0,0,1-1.353-5.662.547.547,0,0,1,.451-.643.554.554,0,0,1,.636.451,33.683,33.683,0,0,0,1.3,5.536.222.222,0,0,0,.148.14.259.259,0,0,0,.214-.044L122,133.315h0c.044-.044,3.134-3.053,3.186-5.432a1.944,1.944,0,0,0-.562-1.478c-1.811-1.885-5.174-1.914-6.563-1.84a8.685,8.685,0,0,1-2.432-.2,3,3,0,0,1-1.1-.4,1.626,1.626,0,0,1-.251-.214Z" transform="translate(-36.086 -39.49)"/><path class="f" d="M112.2,228.209a11.146,11.146,0,0,1-4.3-1.094c-2-.9-2.358-2.129-2.853-3.821l-.163-.562-2.284-7.6c-.739-2.579-1.426-4.383-3.415-5.913l-.443-.34c-1.848-1.412-4.146-3.163-5.218-5.662a.554.554,0,1,1,1.013-.436c.968,2.217,3.134,3.88,4.878,5.218l.451.347c2.217,1.73,2.956,3.769,3.8,6.467l2.446,8.13c.473,1.619.739,2.432,2.217,3.126,1.2.532,4.139,1.656,5.706.451.318-.244.5-.473.5-.643,0-.31-.577-.739-1-1.094-.207-.155-.407-.31-.577-.466a22.913,22.913,0,0,1-3.969-5.24,10.429,10.429,0,0,1-1.537-7.029,15.747,15.747,0,0,1,.606-2.047c1.057-3.163,2.838-8.448.562-12.565-1.323-2.387.931-4.716,1.648-5.373a12.513,12.513,0,0,0,3.378-4.494,27.635,27.635,0,0,0,1.478-4.826c.384-1.633.48-1.988.8-2.18a.554.554,0,0,1,.739.2.547.547,0,0,1-.067.65c-.089.214-.259.939-.414,1.582a28.557,28.557,0,0,1-1.53,5.048,13.437,13.437,0,0,1-3.636,4.841c-.569.517-2.35,2.343-1.426,4.013,2.513,4.516.562,10.311-.48,13.43a16.2,16.2,0,0,0-.562,1.87,9.409,9.409,0,0,0,1.4,6.282,21.915,21.915,0,0,0,3.762,4.989c.155.14.325.273.51.414.673.525,1.434,1.116,1.426,1.973a1.944,1.944,0,0,1-.931,1.478A4.035,4.035,0,0,1,112.2,228.209ZM116.489,181.586Z" transform="translate(-32.344 -54.47)"/><path class="f" d="M72.815,219.5a7.243,7.243,0,0,1-5.913-3.548,12.891,12.891,0,0,1-1.626-7.391,38.736,38.736,0,0,1,1.582-8.988l.067-.251a12.779,12.779,0,0,0,.643-3.607,37.849,37.849,0,0,0-1.02-6.652,49.647,49.647,0,0,1-.88-4.952c-.613-5.957,2.5-13.215,9.608-15.521a14.782,14.782,0,0,0,6.327-4.228l.17-.185a49.882,49.882,0,0,0,4.878-6.009c1.6-2.483,3.156-4.752,4.8-7.155l.946-1.375c1.005-1.478,2.04-3.075,3.06-4.738a6.859,6.859,0,0,0,.8-5.292,6.77,6.77,0,0,0-3.208-4.228c-.806-.466-1.685-.931-2.6-1.419-.739-.384-1.478-.783-2.217-1.212-5.75-3.186-2.4-10.606-2.365-10.68a.547.547,0,0,1,.665-.3l4.132,1.308a.555.555,0,1,1-.34,1.057l-3.636-1.153c-.584,1.53-2.077,6.489,2.077,8.8q1.109.632,2.217,1.2c.939.5,1.818.968,2.631,1.441a7.953,7.953,0,0,1,2.8,11.087c-1.027,1.685-2.062,3.289-3.082,4.782l-.946,1.382c-1.641,2.395-3.186,4.656-4.782,7.132a50.088,50.088,0,0,1-4.989,6.142l-.163.185a15.854,15.854,0,0,1-6.807,4.538c-6.5,2.129-9.431,9-8.869,14.383a46.821,46.821,0,0,0,.865,4.834,38.738,38.738,0,0,1,1.042,6.859,13.422,13.422,0,0,1-.687,3.925l-.067.251a37.791,37.791,0,0,0-1.537,8.729,11.636,11.636,0,0,0,1.478,6.755,5.942,5.942,0,0,0,5.913,2.956.34.34,0,0,0,.222-.14c.377-.658-.488-2-.953-2.735l-.163-.259c-.163-.259-.318-.5-.466-.739a5.277,5.277,0,0,1-1.212-3.777c.044-.628.067-1.264.089-1.907a21.93,21.93,0,0,1,.562-5.048c.739-2.646,2.6-3.792,4.59-5.011.347-.214.739-.429,1.057-.665a22.582,22.582,0,0,0,6.852-6.2c1.286-2.092,3.54-7.857,1.412-11.552a.554.554,0,0,1,.961-.547c2.387,4.2,0,10.348-1.523,12.661a23.729,23.729,0,0,1-7.177,6.526c-.362.237-.739.458-1.086.68-1.877,1.146-3.5,2.136-4.1,4.361a21.767,21.767,0,0,0-.525,4.789c0,.658-.044,1.308-.089,1.951a4.214,4.214,0,0,0,1.035,3.082c.148.229.31.473.48.739l.155.251c.636.983,1.693,2.639.976,3.88a1.4,1.4,0,0,1-.946.665,5.226,5.226,0,0,1-1.109.133Z" transform="translate(-25.012 -39.141)"/><path class="f" d="M117.683,133.433a1.375,1.375,0,0,1-.355-.044,1.338,1.338,0,0,1-.9-.82,35.646,35.646,0,0,1-1.345-5.735.54.54,0,0,1,.451-.636.554.554,0,0,1,.636.451,34.126,34.126,0,0,0,1.3,5.536.207.207,0,0,0,.148.133.214.214,0,0,0,.214-.044l1.759-1.426s3.134-3.03,3.186-5.425a1.973,1.973,0,0,0-.562-1.478c-1.818-1.885-5.174-1.914-6.563-1.84a8.426,8.426,0,0,1-2.432-.192,3.333,3.333,0,0,1-1.1-.4c-.739-.5-1.013-1.781-1.212-2.72a1.78,1.78,0,0,0-.1-.443,3.5,3.5,0,0,0-1.589-2.217c-.739-.48-3.925-1.648-4.435-1.279a1.086,1.086,0,0,0,.222.37,29.564,29.564,0,0,1,3.3,5.063.673.673,0,0,1,0,.687.7.7,0,0,1-.591.325h-.044a3.7,3.7,0,0,0-2.816,1.412,1.064,1.064,0,0,1-.673.384c-.591.1-2.055.081-5.174-1.027a.554.554,0,1,1,.37-1.042c3.112,1.094,4.361,1.02,4.664.976a4.849,4.849,0,0,1,3.038-1.766,28.226,28.226,0,0,0-2.883-4.309,1.774,1.774,0,0,1-.451-.968,1.05,1.05,0,0,1,.525-1.057c1.382-.82,5.307,1.116,5.588,1.3a4.642,4.642,0,0,1,2.062,2.956,3.172,3.172,0,0,0,.1.48c.126.576.384,1.781.739,2.025a2.5,2.5,0,0,0,.739.244,7.612,7.612,0,0,0,2.121.163c1.892-.1,5.366.044,7.391,2.217a3.089,3.089,0,0,1,.872,2.276c-.059,2.86-3.415,6.1-3.562,6.238l-1.789,1.478A1.382,1.382,0,0,1,117.683,133.433ZM107.336,120.75Z" transform="translate(-33.68 -37.411)"/><path class="f" d="M138.332,164.09a4.575,4.575,0,0,1-.739-.052l-1.478-.259c-2.217-.4-5.492-.99-6.408-.347a.554.554,0,1,1-.636-.9c1.2-.857,3.762-.473,7.243.155l1.478.259c2,.333,5.913-1.345,9.35-2.823,4.146-1.781,6.549-2.749,7.65-2s2.217,1.027,2.875.665a1.892,1.892,0,0,0,.813-1.774,5.033,5.033,0,0,0-3.016-4.206c-1.419-.739-6.016.806-9.7,2.033s-7.029,2.321-8.64,1.959a10.05,10.05,0,0,1-7.761-6.866c-.14-.458-2.217-10.525-2.624-12.565a.554.554,0,0,1,.436-.658.547.547,0,0,1,.65.429c.983,4.782,2.483,12.033,2.594,12.439a8.963,8.963,0,0,0,6.948,6.105c1.323.3,4.738-.835,8.049-1.929,4.479-1.478,8.714-2.89,10.547-1.973a6.157,6.157,0,0,1,3.629,5.174,2.956,2.956,0,0,1-1.4,2.772c-.613.333-1.951.68-4.021-.739-.65-.443-4.087,1.027-6.593,2.106C144.186,162.589,140.69,164.09,138.332,164.09Z" transform="translate(-40.969 -43.335)"/><path class="f" d="M142.341,190.234a4.435,4.435,0,0,1-3.319-1.744c-1.826-2.055-4.435-3.348-6.918-4.6a38.436,38.436,0,0,1-4.575-2.557,55.227,55.227,0,0,1-4.656-3.7c-.54-.458-1.079-.917-1.626-1.367a4.1,4.1,0,0,0-1.375-.865,1.042,1.042,0,0,0-1.094.237.54.54,0,0,1-.739.118.547.547,0,0,1-.118-.776,2.114,2.114,0,0,1,2.291-.65,5.322,5.322,0,0,1,1.774,1.079c.547.451,1.086.916,1.633,1.375a56.582,56.582,0,0,0,4.568,3.607,38.687,38.687,0,0,0,4.435,2.483c2.6,1.293,5.285,2.639,7.251,4.856a3.146,3.146,0,0,0,3,1.308,1.766,1.766,0,0,0,1.293-1.079,5.329,5.329,0,0,0-.613-3.274,6.334,6.334,0,0,0-2.033-2.757l-.244-.148a4.537,4.537,0,0,0-1.035-.318l-.436-.1a14.453,14.453,0,0,1-1.685-.429,13.066,13.066,0,0,1-1.9-.865,17.434,17.434,0,0,1-3.4-2.432,24.508,24.508,0,0,1-1.929-1.973l-.177-.207a43.349,43.349,0,0,1-5.846-7.753,4.738,4.738,0,0,0-1.9-2l-.3-.148a.554.554,0,1,1,.443-1.013c.133.052.259.118.377.177a5.913,5.913,0,0,1,2.358,2.454,42.5,42.5,0,0,0,5.7,7.546l.185.207a21.164,21.164,0,0,0,1.84,1.877,16.039,16.039,0,0,0,3.178,2.276,11.348,11.348,0,0,0,1.737.8,12.214,12.214,0,0,0,1.552.392l.451.1a5.632,5.632,0,0,1,1.286.414c.118.059.244.133.362.207a7.428,7.428,0,0,1,2.432,3.23,6.3,6.3,0,0,1,.673,4.006,2.853,2.853,0,0,1-2.1,1.877A3.267,3.267,0,0,1,142.341,190.234Z" transform="translate(-38.671 -50.515)"/><path class="f" d="M66.93,185.3a.532.532,0,0,1-.355-.126,16.826,16.826,0,0,1-6.467-13.733c.126-5.373,2.727-9.394,7.517-11.382a10.562,10.562,0,0,1,7.007-.621,7.613,7.613,0,0,1,5.048,5.085,4.922,4.922,0,0,1,.089,2.358s-.377,1.56-1.146,1.619a.687.687,0,0,1-.687-.488c-.739-1.9-2.594-3.821-5.055-3.555-2.7.288-4.612,2.89-5.425,5.033-1.663,4.361,1.072,8.241,4.634,9.823a.547.547,0,0,1,.281.739.562.562,0,0,1-.739.281c-4.708-2.092-6.9-6.815-5.218-11.227.924-2.439,3.149-5.4,6.342-5.75a6.033,6.033,0,0,1,5.861,3.481l.067-.2a3.762,3.762,0,0,0-.074-1.8,6.578,6.578,0,0,0-4.294-4.331,9.557,9.557,0,0,0-6.26.584c-4.353,1.811-6.718,5.4-6.837,10.392s1.87,9.3,6.075,12.853a.562.562,0,0,1,.059.783.54.54,0,0,1-.421.185Z" transform="translate(-23.677 -49.125)"/><path class="g" d="M124.047,148.9c1.434-2.72-4.3-3.1-5.521-3.23-3.54-.362-7.051-.739-10.569-1.249-1.094-.155-2.084-.673-3.163,0-1.279.739-1.633,3.193,0,3.4,4.435.569,8.869,1.4,13.3,1.707C119.516,149.632,123.138,150.6,124.047,148.9Z" transform="translate(-35.009 -45.284)"/><path class="b" d="M117.918,128.547a.554.554,0,0,1-.488-.244,6.653,6.653,0,0,0-1.345-.968.547.547,0,0,1-.2-.739.554.554,0,0,1,.739-.2,6.3,6.3,0,0,1,1.737,1.353.547.547,0,0,1-.48.835Z" transform="translate(-38.174 -40.7)"/><path class="f" d="M96.415,159.89s3.518,9.054,1.05,13.577c-3.459,6.342-6.792,9.557-8.433,10.8-2.572,1.959-10.9,2.262-10.015-5.211C78.987,179.055,85.794,177.577,96.415,159.89Z" transform="translate(-28.577 -49.327)"/><path class="f" d="M84.593,185.8a7.606,7.606,0,0,1-3.74-.9c-1.412-.806-3.008-2.52-2.587-6.12a.547.547,0,0,1,.436-.473c.059,0,6.741-1.752,17.044-18.914a.547.547,0,0,1,.517-.266.569.569,0,0,1,.473.355c.148.377,3.585,9.35,1.02,14.043-3.74,6.859-7.251,9.963-8.581,10.976A7.968,7.968,0,0,1,84.593,185.8Zm-5.262-6.526c-.177,2.217.525,3.784,2.077,4.671a7.45,7.45,0,0,0,7.1-.318c1.279-.976,4.642-3.954,8.278-10.628,1.833-3.348.118-9.52-.739-12.018C87.1,175.634,80.927,178.693,79.33,179.277Z" transform="translate(-28.38 -49.128)"/><path class="f" d="M96.852,123.562l-3.385-1.072s-.85,3.141-.857,3.193A6.9,6.9,0,0,0,96.852,123.562Z" transform="translate(-32.137 -39.707)"/><path class="f" d="M92.413,126.041a.554.554,0,0,1-.547-.658s0-.074.865-3.237a.569.569,0,0,1,.273-.34.547.547,0,0,1,.429-.044l3.385,1.072a.569.569,0,0,1,.37.377.547.547,0,0,1-.118.517,7.391,7.391,0,0,1-4.612,2.313ZM93.655,123c-.133.5-.333,1.227-.48,1.789a6.393,6.393,0,0,0,2.424-1.175Z" transform="translate(-31.941 -39.51)"/><path class="f" d="M114.013,120.691s.6.318-2.38.576c-.739.059-2.143.347-2.705.466a11.339,11.339,0,0,0-2.557.894h0a4.235,4.235,0,0,1,3.393-1.752.14.14,0,0,0,.126-.207,28.98,28.98,0,0,0-3.245-4.967,1.264,1.264,0,0,1-.325-.658c-.126-1.715,4.656.362,5.262.739a4.228,4.228,0,0,1,1.67,2.749,13.3,13.3,0,0,0,.739,2.217" transform="translate(-35.7 -37.602)"/><path class="f" d="M106.18,122.989a.54.54,0,0,1-.429-.2.554.554,0,0,1,0-.695,4.871,4.871,0,0,1,3.171-1.922,27.865,27.865,0,0,0-2.883-4.309,1.737,1.737,0,0,1-.443-.968,1.057,1.057,0,0,1,.517-1.057c1.382-.82,5.307,1.116,5.6,1.3a4.789,4.789,0,0,1,1.907,3.023,12.075,12.075,0,0,0,.665,1.988.65.65,0,0,1,.148.54c-.1.48-.547.739-2.956.939-.739.059-2.217.362-2.631.451a10.665,10.665,0,0,0-2.424.85A.621.621,0,0,1,106.18,122.989Zm7.391-2.01Zm-6.556-6.26a.569.569,0,0,0-.333.074,1.22,1.22,0,0,0,.222.37,29.771,29.771,0,0,1,3.311,5.063.665.665,0,0,1,.059.458c.421-.074.835-.133,1.138-.163a13.572,13.572,0,0,0,1.73-.222,17.907,17.907,0,0,1-.591-1.848,3.7,3.7,0,0,0-1.478-2.38,12.484,12.484,0,0,0-4.08-1.353Z" transform="translate(-35.509 -37.41)"/><path class="b" d="M114.442,130.932a.569.569,0,0,1-.222-.044,2.129,2.129,0,0,0-1-.214.554.554,0,1,1-.377-1.042,2.831,2.831,0,0,1,1.818.244.554.554,0,0,1-.222,1.057Z" transform="translate(-37.302 -41.541)"/><path class="b" d="M123.386,138.33a1.227,1.227,0,0,1-.362-.052,1.293,1.293,0,0,1-.894-.82,35.147,35.147,0,0,1-1.353-5.728.555.555,0,1,1,1.094-.192,33.186,33.186,0,0,0,1.293,5.536.229.229,0,0,0,.155.14.259.259,0,0,0,.214-.044l.916-.606a21.174,21.174,0,0,0,1.929-1.523,19.513,19.513,0,0,0,2.609-2.9.556.556,0,0,1,.88.68,21.094,21.094,0,0,1-2.757,3.06,21.307,21.307,0,0,1-2.055,1.611l-.872.576A1.264,1.264,0,0,1,123.386,138.33Z" transform="translate(-39.457 -41.92)"/><path d="M122.042,148.674a16.351,16.351,0,0,1-2.439-.259c-.31-.052-.577-.1-.791-.118-2.616-.207-5.27-.621-7.827-1.013-1.3-.2-2.6-.4-3.9-.569a1.633,1.633,0,0,1-1.478-1.353,2.343,2.343,0,0,1,1.19-2.387,3.333,3.333,0,0,1,2.476-.111c.214.044.421.1.643.126,3.1.48,6.238.835,9.268,1.175h.207c2.084.222,4.56.636,5.174,1.9a1.567,1.567,0,0,1-.1,1.56A2.484,2.484,0,0,1,122.042,148.674Zm-14-4.886a1.478,1.478,0,0,0-.739.17,1.242,1.242,0,0,0-.613,1.2.525.525,0,0,0,.517.451c1.3.177,2.609.377,3.91.577,2.55.392,5.174.791,7.768,1.005a5.452,5.452,0,0,1,.857.126c1.094.17,3.356.54,3.792-.222h0c.17-.31.1-.451.074-.51-.214-.407-1.131-.961-4.346-1.3h-.207c-3.045-.34-6.186-.739-9.32-1.175-.244-.037-.48-.1-.739-.148A4.831,4.831,0,0,0,108.043,143.788Z" transform="translate(-35.502 -44.92)"/><path class="g" d="M130.21,150.044s5.913-1.005,8.13,6.563C138.318,156.608,130.121,156.652,130.21,150.044Z" transform="translate(-41.913 -46.811)"/><path class="g" d="M140.949,140.453s-5.735-1.759-8.869,5.462C132.065,145.915,140.188,146.987,140.949,140.453Z" transform="translate(-42.399 -44.297)"/><path d="M137.845,154.787c-.207,0-4,0-6.231-2.291a5.551,5.551,0,0,1-1.567-4.139V147.9l.458-.081c.052,0,5.795-.9,7.872,6.26l.207.7Zm-6.652-5.913a4.346,4.346,0,0,0,1.234,2.838,8.014,8.014,0,0,0,4.671,1.914c-1.611-4.383-4.738-4.76-5.935-4.752Z" transform="translate(-41.869 -46.237)"/><path d="M131.259,146.4h-.739l.207-.739c2.077-7.162,7.812-6.268,7.871-6.26l.451.081v.458a5.543,5.543,0,0,1-1.567,4.139C135.258,146.359,131.459,146.4,131.259,146.4Zm6.585-5.913c-1.256,0-4.265.473-5.809,4.752a7.965,7.965,0,0,0,4.671-1.914,4.3,4.3,0,0,0,1.227-2.838Z" transform="translate(-41.994 -44.06)"/><path class="h" d="M105.308,192s4.161-15.056,10.244-8.086-5.965,15.381-5.965,15.381S104.348,200.954,105.308,192Z" transform="translate(-35.404 -55.074)"/><path class="c" d="M12,245.245v16.608c12.565-1.981,22.21-11.486,26.024-21.722.658-1.781,3.533-21.272,3.171-21.19-14.908,3.348-26.977,12.609-29.195,26.3" transform="translate(-11.172 -64.499)"/><path d="M13.512,261.767a.554.554,0,0,1-.1-1.1c10.037-1.744,18.9-9.882,22.572-20.7.532-1.574,2.506-16.423,2.779-19.7-13.733,3.6-22.912,12.868-24.708,24.908a.562.562,0,0,1-.628.473.554.554,0,0,1-.466-.628c1.855-12.727,11.663-22.462,26.224-26.031a.577.577,0,0,1,.547.163c.214.237.377.414-.946,10.207-.606,4.435-1.426,9.963-1.752,10.931-3.8,11.22-12.964,19.653-23.43,21.464Z" transform="translate(-11.421 -64.509)"/><path d="M13.515,259.474a.576.576,0,0,1-.3-.089.562.562,0,0,1-.163-.739L37,222.119c-9.453,8.869-22.846,34.309-22.986,34.59a.555.555,0,1,1-.983-.517c.665-1.271,16.393-31.168,26-37.081a.554.554,0,0,1,.739.739L13.981,259.222A.547.547,0,0,1,13.515,259.474Z" transform="translate(-11.424 -64.529)"/><path d="M38.8,234.4a.547.547,0,0,1-.547-.473.554.554,0,0,1,.466-.628l5.979-.887a.562.562,0,0,1,.628.473.554.554,0,0,1-.466.628l-5.979.887Z" transform="translate(-17.999 -68.011)"/><path d="M37.094,237.232a.554.554,0,0,1-.554-.517.547.547,0,0,1,.517-.584l6.585-.421a.547.547,0,0,1,.584.517.554.554,0,0,1-.517.591l-6.578.414Z" transform="translate(-17.574 -68.873)"/><path d="M34.186,241.942a.554.554,0,0,1-.052-1.1l8.3-.843a.539.539,0,0,1,.606.5.547.547,0,0,1-.5.606l-8.3.82Z" transform="translate(-16.824 -69.991)"/><path d="M39.769,250.439H28.534a.554.554,0,1,1,0-1.109H39.769a.554.554,0,1,1,0,1.109Z" transform="translate(-15.341 -72.427)"/><path d="M37.929,254.032h0l-11.582-.244a.562.562,0,0,1-.547-.569.547.547,0,0,1,.569-.54l11.582.244a.554.554,0,0,1,0,1.109Z" transform="translate(-14.772 -73.301)"/><path d="M34.524,259.683h0l-11.412-.355a.547.547,0,0,1-.532-.569.562.562,0,0,1,.569-.54l11.412.355a.554.554,0,0,1,0,1.109Z" transform="translate(-13.932 -74.746)"/><path d="M32.116,244.692a.547.547,0,0,1-.547-.51.54.54,0,0,1,.5-.591l9.83-.791a.569.569,0,0,1,.6.51.562.562,0,0,1-.51.6l-9.83.783Z" transform="translate(-16.277 -70.723)"/><path d="M31.328,236.176a.547.547,0,0,1-.525-.392l-2.217-7.214a.554.554,0,1,1,1.057-.318l2.217,7.206a.554.554,0,0,1-.37.695A.577.577,0,0,1,31.328,236.176Z" transform="translate(-15.489 -66.812)"/><path d="M28.281,239.3a.562.562,0,0,1-.532-.377l-2.469-7.546a.556.556,0,0,1,1.057-.347l2.469,7.546a.562.562,0,0,1-.355.7Z" transform="translate(-14.63 -67.552)"/><path d="M25.892,243.82a.591.591,0,0,1-.3-.081.554.554,0,0,1-.222-.68c0-.739-1.478-4.568-2.912-7.775a.556.556,0,0,1,1.013-.458c3.481,7.783,3.045,8.478,2.883,8.736a.54.54,0,0,1-.466.259ZM25.375,243.08ZM25.419,242.97Z" transform="translate(-13.889 -68.558)"/><path d="M23.95,246.456a.562.562,0,0,1-.525-.384l-3.06-9.342a.554.554,0,1,1,1.05-.347l3.1,9.342a.562.562,0,0,1-.355.739A.739.739,0,0,1,23.95,246.456Z" transform="translate(-13.343 -68.939)"/><path d="M20.365,252.358a.569.569,0,0,1-.54-.421l-2.631-10.392a.569.569,0,0,1,.407-.68.562.562,0,0,1,.673.406L20.9,251.663a.554.554,0,0,1-.4.673Z" transform="translate(-12.523 -70.215)"/><path d="M16.08,260.881a.562.562,0,0,1-.54-.414l-2.217-8.293a.554.554,0,0,1,.392-.68.562.562,0,0,1,.68.4l2.217,8.293a.547.547,0,0,1-.392.673A.464.464,0,0,1,16.08,260.881Z" transform="translate(-11.512 -72.987)"/><path d="M33.7,232.64a.554.554,0,0,1-.54-.429l-1.338-5.861a.554.554,0,0,1,.421-.665.562.562,0,0,1,.665.414l1.33,5.868a.562.562,0,0,1-.414.665Z" transform="translate(-16.341 -66.367)"/><path d="M30.2,265.089H18.934a.554.554,0,1,1,0-1.109H30.2a.554.554,0,1,1,0,1.109Z" transform="translate(-12.837 -76.249)"/><path d="M27.342,268.079H16.994a.554.554,0,0,1,0-1.109H27.342a.554.554,0,0,1,0,1.109Z" transform="translate(-12.331 -77.029)"/><path class="d" d="M48.105,220.085c1.4-1.168,1.589-2.106.68-2.794s-1.781-.1-2.476,1.6l-.739,2.727A17.926,17.926,0,0,0,48.105,220.085Z" transform="translate(-19.903 -64.134)"/><path d="M44.635,222.742a.576.576,0,0,1-.355-.126.54.54,0,0,1-.177-.569l.739-2.727c.51-1.249,1.086-1.936,1.789-2.166a1.833,1.833,0,0,1,2.336,1.633,3.131,3.131,0,0,1-1.478,2.3l-.1.074a17.871,17.871,0,0,1-2.5,1.478.525.525,0,0,1-.251.1Zm2.491-4.56a.54.54,0,0,0-.17,0c-.207.066-.621.347-1.079,1.478l-.377,1.426c.429-.259.828-.532,1.249-.813l.074-.052c.894-.739,1.027-1.2,1.02-1.412,0-.059,0-.251-.333-.5A.739.739,0,0,0,47.125,218.182Zm0,2.476Z" transform="translate(-19.515 -64.151)"/><path d="M138.88,210.85h-128v-200h128ZM13.84,207.884H135.92V13.816H13.84Z" transform="translate(-10.88 -10.85)"/><path class="i" d="M161.52,21.52l-6.46,7.258,6.46,7.258,6.46-7.258Z" transform="translate(-48.361 -13.634)"/><g class="j" transform="translate(1.478 1.478)"><path class="i" d="M39.227-14.13-4.89,35.427l44.117,49.55,44.117-49.55Z" transform="translate(-8.244 -5.811)"/></g><path class="b" d="M33.812,33.711c-.259-.407-.636-1.035-1.116-1.892l-.5-.887c-.266-.48-.525-.887-.739-1.234a7.347,7.347,0,0,0-.613-.82L29.363,30.57v2.853l1.353.155v.739H26.51v-.739l1.227-.155V24.206l-1.212-.177V23.29h4.043v.739l-1.234.177V29.38l4.361-5.174-1.242-.177V23.29h3.7v.739L35,24.206,31.795,27.8A6.814,6.814,0,0,1,32.9,29.085c.392.569.865,1.293,1.426,2.18.488.739.843,1.308,1.064,1.626s.4.5.525.532l.739.163v.739h-2.2Q34.212,34.31,33.812,33.711Z" transform="translate(-14.958 -14.095)"/><g class="k" transform="translate(0 0)"><path d="M138.88,210.85h-128v-200h128ZM13.84,207.884H135.92V13.816H13.84Z" transform="translate(-10.88 -10.85)"/></g></svg>