<svg xmlns="http://www.w3.org/2000/svg" width="128" height="200" viewBox="0 0 128 200"><defs><style>.a{fill:#fff;}.b{fill:#170000;}.c{stroke:#000;stroke-linecap:round;stroke-linejoin:round;stroke-width:1.5px;}.d{fill:#c21823;}.e{fill:#da003a;}.f{fill:#858585;}</style></defs><g transform="translate(-10.878 -10.852)"><g transform="translate(10.878 10.852)"><rect class="a" width="125.032" height="197.031" transform="translate(1.484 1.485)"/><path d="M138.878,210.852h-128v-200h128Zm-125.04-2.966H135.918V13.818H13.838Z" transform="translate(-10.878 -10.852)"/></g><g transform="translate(19.712 19.99)"><path class="b" d="M27.3,23.166h1.638l3.618,10.276.924.149v.729H29.544v-.729l1.236-.149-.7-2.2H25.732l-.7,2.2,1.281.149v.729H22.783v-.729l.923-.149Zm.938,2.383-.373-1.31-.357,1.34L26,30.359h3.8Z" transform="translate(-22.783 -23.166)"/></g><g transform="translate(10.878 10.852)"><path d="M138.878,210.852h-128v-200h128Zm-125.04-2.966H135.918V13.818H13.838Z" transform="translate(-10.878 -10.852)"/></g><g transform="translate(21.795 103.455)"><g transform="translate(48.576)"><path d="M122.106,160.181c-1.6,0-4.538-1.362-5.462-2.865-1.138-1.851-.991-5.051-.985-5.187a.54.54,0,0,1,.583-.528.557.557,0,0,1,.528.583c0,.03-.135,2.992.821,4.549.854,1.39,4.056,2.567,4.733,2.319.2-1.373-.067-6.481-.579-7.2a42.25,42.25,0,0,0-3.169-3.09c-1.423-1.319-2.894-2.682-3.687-3.557-1.19-1.314-4.6-1.792-5.816-1.866-.094-.01-6.129-.707-9.23,2.075a.559.559,0,0,1-.631.078,9.324,9.324,0,0,1-4.229-5.7,26.424,26.424,0,0,1-.945-2.586,8.207,8.207,0,0,0-1.388,2.516,6.072,6.072,0,0,0-.033,4.6,41.352,41.352,0,0,1,2.918,7.6h0a7.26,7.26,0,0,0,3.429,3.024.557.557,0,1,1-.5.994c-3.16-1.595-3.953-3.594-3.986-3.678a41.45,41.45,0,0,0-2.85-7.433c-1.408-2.74.057-6.384,1.311-8.036.554-.73,1.021-1.028,1.465-.935a.763.763,0,0,1,.587.6,23.619,23.619,0,0,0,1.032,2.927.512.512,0,0,1,.027.08,8.486,8.486,0,0,0,3.372,4.841c3.532-2.8,9.492-2.115,9.752-2.082.163.009,4.8.307,6.54,2.225.761.84,2.214,2.186,3.618,3.488a38.215,38.215,0,0,1,3.319,3.26c.841,1.178.962,6.946.758,8.108a1.031,1.031,0,0,1-.908.831A2.187,2.187,0,0,1,122.106,160.181Z" transform="translate(-91.052 -135.853)"/></g><g transform="translate(18.222 14.371)"><path d="M50.7,196.622a.547.547,0,0,1-.193-.035.556.556,0,0,1-.329-.715c3.761-10.157,17.185-13.851,22.04-14.418,4.4-.513,7.556-1.518,9.388-2.985,2.6-2.088,4.051-6.344,5.007-9.161a18.882,18.882,0,0,1,.932-2.444A4.2,4.2,0,0,0,87.5,163.5a.575.575,0,0,1-.043-.126c-.5-2.419,1.474-7.576,1.558-7.795a.557.557,0,0,1,1.038.4c-.536,1.388-1.84,5.338-1.517,7.11a5.206,5.206,0,0,1-.01,4.3,19.149,19.149,0,0,0-.859,2.274c-1,2.939-2.507,7.381-5.365,9.671-2.026,1.624-5.283,2.677-9.955,3.223s-17.558,4.067-21.126,13.7A.557.557,0,0,1,50.7,196.622Z" transform="translate(-50.146 -155.219)"/></g><g transform="translate(0 37.05)"><path d="M41.382,211.125A14.36,14.36,0,0,1,34,209.239c-6.591-3.9-7.725-8.857-7.831-9.4-.2-.636-2.37-8.024,3.29-12.254,2.091-1.564,3.954-2.114,5.53-1.637a4.54,4.54,0,0,1,2.731,2.66.556.556,0,0,1-.744.7,3.528,3.528,0,0,0-3.04.362c-1.563.951-3.531,6.169-.8,10.844,2.524,4.318,12.449,2.865,13.861,2.5a.556.556,0,0,1,.281,1.077c-.116.03-11.894,2.478-15.1-3.011a11.237,11.237,0,0,1-1.347-7.6c.384-2.19,1.375-4.057,2.527-4.758a4.749,4.749,0,0,1,2.736-.706,2.96,2.96,0,0,0-1.436-1c-1.223-.361-2.746.13-4.532,1.466-5.246,3.921-2.913,10.974-2.889,11.045a.544.544,0,0,1,.022.085c.009.047.946,4.91,7.309,8.675s14.662.141,14.745.1a.556.556,0,0,1,.453,1.016A22.546,22.546,0,0,1,41.382,211.125Z" transform="translate(-25.59 -185.782)"/></g><g transform="translate(66.071 18.426)"><path d="M123.443,227.558a2.674,2.674,0,0,1-1.125-.22,1.943,1.943,0,0,1-1.053-1.221,6.3,6.3,0,0,0-.85-1.311,9.533,9.533,0,0,1-2.174-4.475,51.857,51.857,0,0,0-1.223-5.852c-.211-.843-.314-1.257-.338-1.451-.016-.027-.16-.234-.274-.4a8.938,8.938,0,0,1-1.776-5.677l.022-1.011c.1-4.574.344-15.284.095-17.137a.557.557,0,1,1,1.1-.148c.229,1.709.085,9.709-.085,17.309l-.022,1.011a7.925,7.925,0,0,0,1.58,5.022,2.2,2.2,0,0,1,.462.9c.016.134.16.706.312,1.313a52.816,52.816,0,0,1,1.25,6,8.507,8.507,0,0,0,1.96,3.931,6.355,6.355,0,0,1,1.019,1.644.827.827,0,0,0,.458.544c.336.155,1.177.295,3.045-.5.648-.275.981-.65,1.02-1.145a2.194,2.194,0,0,0-.66-1.567c-.836-.22-2.987-2.118-4-6-.914-3.517-.309-10.622.091-15.325.053-.623.1-1.206.145-1.736a71.049,71.049,0,0,0-.969-14.9c-.558-1.959-1.2-13.436-.7-15.26.449-1.651,1.146-8.638,1.153-8.709a.556.556,0,1,1,1.107.111c-.029.291-.713,7.15-1.187,8.891-.437,1.607.2,12.905.7,14.662a71.124,71.124,0,0,1,1.008,15.294c-.042.533-.092,1.118-.145,1.743-.394,4.626-.988,11.617-.122,14.95.956,3.679,2.916,5.109,3.178,5.2.6.051,1.339,1.221,1.483,2.138a2.425,2.425,0,0,1-1.667,2.678A7.507,7.507,0,0,1,123.443,227.558Zm2.854-4.425h0Zm-.131-.037Z" transform="translate(-114.628 -160.684)"/></g><g transform="translate(13.535 52.511)"><path d="M60.312,253.951a3.817,3.817,0,0,1-1.348-.217,2.2,2.2,0,0,1-1.359-1.358c-.171-.5-.432-1.078-.735-1.753a19.583,19.583,0,0,1-1.964-6.356c-.217-2.569-.136-6.276-.09-7.751a4.285,4.285,0,0,1,.374-1.626l2.322-5.188c.053-.1,2.133-3.566,1.809-5.68a6.287,6.287,0,0,0-.844-2.431c-2.672,3.456-8.286,11.422-8.148,14.645a28.49,28.49,0,0,0,2,8.543,3.031,3.031,0,0,1-.359,2.84c-.651.683-1.772.807-3.333.374-4.584-1.276-4.627-4.3-4.627-4.432-.056-.914-.541-9.306.331-11.462.583-1.44-.042-3.833-.336-4.8a2.508,2.508,0,0,1,.049-1.648,10.935,10.935,0,0,1,3.143-4.42c2.166-1.8.83-4.951.772-5.084a.557.557,0,0,1,1.02-.447c.073.165,1.733,4.051-1.081,6.388a9.788,9.788,0,0,0-2.814,3.961,1.406,1.406,0,0,0-.024.924c.41,1.335.994,3.83.3,5.538-.657,1.629-.4,8.5-.25,11.013,0,.124.089,2.356,3.813,3.392,1.1.306,1.891.281,2.228-.069.407-.424.222-1.381.125-1.682a29,29,0,0,1-2.074-8.885c-.193-4.521,8.452-15.473,8.82-15.937a.554.554,0,0,1,.384-.209.56.56,0,0,1,.416.134,6.025,6.025,0,0,1,1.584,3.581c.385,2.511-1.831,6.207-1.926,6.364l-2.289,5.127a3.163,3.163,0,0,0-.278,1.206c-.045,1.455-.126,5.111.087,7.622a18.691,18.691,0,0,0,1.87,6c.314.7.585,1.3.772,1.846a1.092,1.092,0,0,0,.7.679c1.094.413,3.1-.033,4.987-1.108.322-.183.707-.468.712-.784.011-.788-1.789-1.884-2.559-2.352l-.266-.163c-1.56-.965-2.631-5.829-1.82-8.259.5-1.513,2.1-2.685,3.949-4.042a32.886,32.886,0,0,0,3.7-3.013,4.542,4.542,0,0,0,1.633-3.888,13.954,13.954,0,0,1,.971-5.058c1.82-4.8,3.948-5.1,4.6-5.081a46.023,46.023,0,0,1,6.058-1.382,69.47,69.47,0,0,0,9.023-2.117c5.554-1.8,6.394-8.274,6.4-8.339a.556.556,0,0,1,1.1.131c-.034.295-.922,7.244-7.163,9.267a70.485,70.485,0,0,1-9.164,2.152,43.821,43.821,0,0,0-6.011,1.379.565.565,0,0,1-.287.02h0c-.008,0-1.81-.145-3.518,4.363a12.983,12.983,0,0,0-.9,4.7,5.588,5.588,0,0,1-1.965,4.644,33.754,33.754,0,0,1-3.818,3.117c-1.7,1.245-3.16,2.32-3.552,3.5-.71,2.126.419,6.385,1.35,6.961l.258.158c1.164.709,3.114,1.894,3.093,3.32a2.1,2.1,0,0,1-1.275,1.735A9.783,9.783,0,0,1,60.312,253.951Z" transform="translate(-43.83 -206.617)"/></g><g transform="translate(52.757 62.269)"><path d="M103.383,238.049c-1.592,0-4.374-.643-5.072-2.625-.869-2.463-1.593-13.816-1.624-14.3a.555.555,0,0,1,.52-.59.542.542,0,0,1,.591.52c.007.116.745,11.679,1.563,14,.58,1.645,3.67,2.07,4.567,1.837a2.509,2.509,0,0,0,1.613-1.068,1.74,1.74,0,0,0,.177-1.317,6.421,6.421,0,0,0-1.049-1.6,10.419,10.419,0,0,1-1.863-3.08c-.6-1.925-.717-9.186-.721-9.494a.555.555,0,0,1,.548-.565h.009a.557.557,0,0,1,.557.548c.03,2.055.211,7.708.67,9.179a9.624,9.624,0,0,0,1.681,2.729,6.612,6.612,0,0,1,1.244,2,2.858,2.858,0,0,1-.291,2.167,3.537,3.537,0,0,1-2.3,1.584A3.5,3.5,0,0,1,103.383,238.049Z" transform="translate(-96.687 -219.767)"/></g><g transform="translate(48.672 0.195)"><path d="M107.5,142.96s1.826,8.082-8.269,17.646l-.293-4.89a10.039,10.039,0,0,1-4.095-4.673c-1.037-2.94-1.316-5.169-2.5-6.2s.294-7.93,2.328-7.981l2.27,5.727,2.752,2.671S104.362,142.725,107.5,142.96Z" transform="translate(-91.374 -136.309)"/><path d="M99.042,160.97a.563.563,0,0,1-.2-.039.558.558,0,0,1-.351-.485l-.276-4.6a10.316,10.316,0,0,1-4.082-4.811c-.319-.905-.569-1.749-.79-2.493-.473-1.6-.847-2.858-1.547-3.468-1.064-.925-.548-4.169.137-6.07.467-1.3,1.288-2.856,2.543-2.887a.576.576,0,0,1,.531.352l2.226,5.616,2.377,2.308c1.187-.6,4.964-2.378,7.748-2.179a.556.556,0,0,1,.5.433c.078.343,1.779,8.5-8.429,18.173A.555.555,0,0,1,99.042,160.97Zm-4.879-23.6a4.507,4.507,0,0,0-1.188,2.008c-.83,2.309-.79,4.56-.453,4.853.945.822,1.359,2.221,1.884,3.992.217.732.462,1.561.772,2.439a9.528,9.528,0,0,0,3.845,4.374.559.559,0,0,1,.28.451l.22,3.675c7.595-7.662,7.485-14.178,7.3-15.855-2.927.025-7.013,2.228-7.056,2.252a.559.559,0,0,1-.654-.09L96.366,142.8a.556.556,0,0,1-.13-.194Z" transform="translate(-91.182 -136.116)"/></g><g transform="translate(64.93 12.166)"><path class="c" d="M113.091,152.247" transform="translate(-113.091 -152.247)"/></g><g transform="translate(64.93 12.166)"><path class="c" d="M113.091,152.247" transform="translate(-113.091 -152.247)"/></g><g transform="translate(63.843 6.28)"><path d="M120.717,164.247s-6.7-8.536-7.809-11.928a14.865,14.865,0,0,1-.129-7.242s6.743-.234,8.025,2.136,6.9,6.7,6.9,6.7.7,6.35.662,7.688-4.444-1.239-5.743-2.194-1.9-1.5-1.9-1.5l.887,1.964Z" transform="translate(-111.82 -144.51)"/><path d="M120.522,164.609a.557.557,0,0,1-.437-.213c-.276-.352-6.776-8.652-7.9-12.1a15.286,15.286,0,0,1-.14-7.552.557.557,0,0,1,.52-.419c.723-.025,7.128-.171,8.534,2.428,1.211,2.239,6.692,6.478,6.747,6.521a.554.554,0,0,1,.213.379c.029.261.7,6.4.666,7.764a.891.891,0,0,1-.5.806c-1.446.7-6.083-2.535-6.127-2.568l-.142-.1a.551.551,0,0,1,0,.229l-.887,4.382a.553.553,0,0,1-.416.431A.548.548,0,0,1,120.522,164.609Zm-7.487-19.181a14.016,14.016,0,0,0,.206,6.523c.85,2.6,5.213,8.479,6.978,10.795l.609-3.011-.813-1.8a.556.556,0,0,1,.881-.641c.006,0,.6.544,1.858,1.466a15.938,15.938,0,0,0,4.859,2.468c-.011-1.391-.515-6.111-.634-7.218-1.013-.794-5.657-4.5-6.859-6.727C119.351,145.861,115.533,145.388,113.036,145.428Z" transform="translate(-111.626 -144.316)"/></g><g transform="translate(28.563 36.142)"><path d="M65.761,192.847s-1.485,5.411-.7,8.833c.7,3.034,3.215,7.785,6.467,8.646,4.444,1.175,9.865-3.641,13.315-5.859,7.406-4.76,13.27-13.57,13.27-13.57s.98-2.408-4.545-4.678-7.825.447-7.825.447-.11,1.167-6.092,2.188A93.863,93.863,0,0,0,65.761,192.847Z" transform="translate(-64.276 -184.753)"/><path d="M72.8,210.871a6.221,6.221,0,0,1-1.6-.2c-3.512-.929-6.129-5.858-6.867-9.06-.81-3.517.64-8.878.7-9.1a.556.556,0,0,1,.341-.373,95.068,95.068,0,0,1,14-4.02c4.736-.809,5.565-1.694,5.655-1.808a.538.538,0,0,1,.106-.192c.1-.124,2.63-3,8.461-.6,5.97,2.452,4.9,5.283,4.849,5.4a.57.57,0,0,1-.052.1c-.242.363-6.014,8.961-13.433,13.729-.629.4-1.334.9-2.081,1.431C79.867,208.3,76.227,210.871,72.8,210.871Zm-6.762-17.8c-.28,1.127-1.27,5.469-.621,8.286.655,2.846,3.036,7.432,6.067,8.234,3.367.886,7.461-2,10.749-4.331.758-.536,1.473-1.042,2.123-1.46,6.887-4.427,12.51-12.533,13.063-13.344.053-.266.237-2.077-4.249-3.921-4.612-1.894-6.735-.155-7.127.228-.288.63-1.6,1.608-6.485,2.442A91.642,91.642,0,0,0,66.034,193.073ZM85,186.417h0Zm0,0h0Zm0,0h0Zm0,0h0Zm.032-.123Z" transform="translate(-64.083 -184.558)"/></g></g><g transform="translate(67.643 125.728)"><g transform="translate(8.24 6.81)"><path class="d" d="M98.891,177.429c-1.029-2.908,4.721-2.459,5.952-2.408,3.567.149,7.111.3,10.684.287,1.1,0,2.162-.368,3.144.433,1.161.946,1.164,3.405-.525,3.376-4.475-.078-9,.115-13.472-.232C103.284,178.814,99.536,179.251,98.891,177.429Z" transform="translate(-98.769 -174.966)"/></g><g transform="translate(8.361 5.673)"><path d="M109.949,177.769c-1.763,0-3.545-.028-5.3-.14-.2-.007-.473,0-.785,0-1.665.028-4.184.064-4.783-1.475a1.577,1.577,0,0,1,.13-1.563c.827-1.16,3.35-1.216,5.453-1.132l.206.007c3.053.1,6.209.2,9.383.174.22,0,.438-.02.653-.036a3.366,3.366,0,0,1,2.444.469,2.352,2.352,0,0,1,.837,2.542,1.628,1.628,0,0,1-1.627,1.132h-.021c-1.316-.014-2.632,0-3.952.008C111.712,177.762,110.832,177.769,109.949,177.769Zm-5.58-1.257c.122,0,.234,0,.333.006,2.616.166,5.286.145,7.87.125,1.327-.011,2.651-.022,3.972-.008h.011a.524.524,0,0,0,.57-.37,1.251,1.251,0,0,0-.436-1.291,2.358,2.358,0,0,0-1.7-.26c-.242.019-.486.038-.733.04-3.195.022-6.363-.077-9.427-.174l-.213-.007c-3.235-.129-4.236.292-4.5.666-.039.053-.128.18,0,.512h0c.318.818,2.621.784,3.73.767C104.032,176.515,104.21,176.512,104.368,176.512Z" transform="translate(-98.933 -173.434)"/></g><g transform="translate(0.164 8.774)"><path class="d" d="M96.888,177.828s-5.728-1.858-9,5.346C87.885,183.174,96.025,184.373,96.888,177.828Z" transform="translate(-87.885 -177.613)"/></g><g transform="translate(0 0.468)"><path class="d" d="M87.668,166.455s5.951-.922,8.036,6.712C95.7,173.167,87.476,173.053,87.668,166.455Z" transform="translate(-87.665 -166.42)"/></g><g transform="translate(0.037 7.099)"><path d="M89.839,181.5a10.317,10.317,0,0,1-1.393-.085l-.732-.108.306-.673c3.1-6.813,8.67-5.095,8.726-5.079l.441.143-.061.459a5.571,5.571,0,0,1-2.155,3.883A8.686,8.686,0,0,1,89.839,181.5Zm-.45-1.125a8,8,0,0,0,4.916-1.225,4.361,4.361,0,0,0,1.632-2.639C94.749,176.319,91.592,176.258,89.389,180.38Z" transform="translate(-87.715 -175.356)"/></g><g transform="translate(1.423)"><path d="M97.228,173.874l-.732-.1c-.161-.023-3.961-.594-5.864-3.175a5.57,5.57,0,0,1-.961-4.336l.073-.457.463-.012c.067.019,5.89-.059,6.918,7.352Zm-6.516-6.943a4.363,4.363,0,0,0,.813,3,8,8,0,0,0,4.364,2.575C94.948,167.9,91.9,167.074,90.712,166.931Z" transform="translate(-89.582 -165.789)"/></g></g><g transform="translate(117.491 18.765)"><path class="e" d="M161.545,21.516,155.057,28.8l6.488,7.288,6.488-7.288Z" transform="translate(-155.057 -21.516)"/></g><g transform="translate(74.071 45.854)"><g transform="translate(12.822 4.161)"><path d="M162.577,83.735a60.337,60.337,0,0,1-26.5-8.786c-3.566-2.162-6.665-4.809-9.99-7.294-3.189-2.382-7.767-1.258-10.652-3.737-.9-.775-2.219.531-1.312,1.311,2.97,2.553,6.932,1.372,10.132,3.359,4.161,2.584,7.677,6.1,11.962,8.6a61.956,61.956,0,0,0,26.357,8.4c1.19.095,1.184-1.761,0-1.855Z" transform="translate(-113.821 -63.682)"/></g><g transform="translate(23.093)"><path d="M129.526,66.15a44.251,44.251,0,0,0,.312-7.182c-.045-1.19-1.9-1.2-1.855,0a44.251,44.251,0,0,1-.312,7.182c-.148,1.182,1.709,1.171,1.855,0Z" transform="translate(-127.663 -58.074)"/></g><g transform="translate(13.947 10.761)"><path d="M129.086,72.582a105.169,105.169,0,0,1-12.853.591.928.928,0,0,0,0,1.855,105.169,105.169,0,0,0,12.853-.591c1.175-.127,1.187-1.983,0-1.855Z" transform="translate(-115.337 -72.576)"/></g><g transform="translate(29.491 6.193)"><path d="M140.56,74.715a16.881,16.881,0,0,1-2.416-7.406c-.1-1.181-1.954-1.192-1.855,0a18.987,18.987,0,0,0,2.67,8.342.928.928,0,0,0,1.6-.936Z" transform="translate(-136.285 -66.42)"/></g><g transform="translate(25.338 17.939)"><path d="M143.174,82.307q-5.863,2.086-11.835,3.827a.929.929,0,0,0,.493,1.789q5.974-1.742,11.834-3.827c1.118-.4.636-2.191-.493-1.789Z" transform="translate(-130.688 -82.249)"/></g><g transform="translate(41.053 11.327)"><path d="M156.611,82.951c-.686-3.08-1.972-5.963-2.91-8.967-.354-1.135-2.145-.651-1.788.493.936,3,2.222,5.887,2.909,8.966.26,1.165,2.049.672,1.789-.493Z" transform="translate(-151.866 -73.338)"/></g><g transform="translate(39.737 21.905)"><path d="M159.318,87.668l-8.611,3.576c-1.086.451-.61,2.247.493,1.788l8.61-3.576c1.087-.451.61-2.247-.493-1.788Z" transform="translate(-150.093 -87.594)"/></g><g transform="translate(50.717 13.356)"><path d="M170.993,86.313a25.58,25.58,0,0,1-4.288-9.574c-.257-1.166-2.046-.672-1.789.493a26.946,26.946,0,0,0,4.475,10.017c.692.959,2.3.035,1.6-.936Z" transform="translate(-164.89 -76.073)"/></g><g transform="translate(45.826 24.518)"><path d="M171.661,91.254,158.74,99.073a.928.928,0,0,0,.936,1.6l12.92-7.82a.928.928,0,0,0-.936-1.6Z" transform="translate(-158.299 -91.114)"/></g><g transform="translate(1.791 32.453)"><path d="M160.585,130.038c-18.014-13.514-37.335-27.493-60.734-28.23-1.194-.037-1.193,1.818,0,1.855,23.031.726,42.083,14.687,59.8,27.976.956.717,1.881-.893.936-1.6Z" transform="translate(-98.956 -101.807)"/></g><g transform="translate(50.518 44.283)"><path d="M164.848,118.644a40.847,40.847,0,0,1-.219,7.172c-.14,1.184,1.716,1.173,1.855,0a40.846,40.846,0,0,0,.219-7.172c-.068-1.187-1.923-1.195-1.855,0Z" transform="translate(-164.622 -117.751)"/></g><g transform="translate(51.216 56.49)"><path d="M170.52,134.224a37.337,37.337,0,0,1-4.071.833c-1.177.115-1.189,1.972,0,1.855a41.69,41.69,0,0,0,4.564-.9c1.168-.244.674-2.033-.493-1.788Z" transform="translate(-165.561 -134.201)"/></g><g transform="translate(43.081 41.575)"><path d="M158.243,121.4a36.968,36.968,0,0,0-1.793-6.67c-.412-1.109-2.206-.629-1.789.493a36.976,36.976,0,0,1,1.793,6.67c.2,1.175,1.989.677,1.789-.493Z" transform="translate(-154.599 -114.101)"/></g><g transform="translate(35.685 48.193)"><path d="M154.778,123.02a83.581,83.581,0,0,0-9.474.5c-1.178.171-.677,1.958.493,1.788a79.7,79.7,0,0,1,8.981-.435c1.191-.036,1.2-1.891,0-1.855Z" transform="translate(-144.632 -123.019)"/></g><g transform="translate(33.961 35.598)"><path d="M149.089,115.617c-1.132-3.334-3.13-6.209-5.027-9.143-.646-1-2.252-.07-1.6.936,1.8,2.788,3.763,5.529,4.839,8.7.382,1.124,2.174.642,1.789-.493Z" transform="translate(-142.309 -106.046)"/></g><g transform="translate(23.363 42.194)"><path d="M140.277,114.94l-11.362,1.144c-1.177.119-1.189,1.975,0,1.855l11.362-1.144c1.177-.118,1.189-1.975,0-1.855Z" transform="translate(-128.027 -114.935)"/></g><g transform="translate(23.675 30.586)"><path d="M134.107,107.961c-1.07-2.852-2.624-5.465-3.956-8.2-.523-1.072-2.124-.134-1.6.936,1.26,2.582,2.756,5.055,3.768,7.752.416,1.107,2.209.628,1.789-.493Z" transform="translate(-128.447 -99.292)"/></g><g transform="translate(15.657 37.189)"><path d="M126.318,108.206l-8,1.389c-1.174.2-.676,1.992.493,1.789l8-1.389c1.174-.2.677-1.992-.493-1.789Z" transform="translate(-117.643 -108.19)"/></g><g transform="translate(12.956 28.132)"><path d="M120.82,103.121a19.176,19.176,0,0,0-5.212-6.885c-.881-.8-2.2.506-1.312,1.312a17.268,17.268,0,0,1,4.735,6.066c.447,1.089,2.243.612,1.789-.493Z" transform="translate(-114.003 -95.985)"/></g><g transform="translate(0 33.413)"><path d="M107.213,103.193l-10.188,4.595c-1.086.491-.145,2.09.936,1.6l10.188-4.595c1.086-.491.145-2.09-.936-1.6Z" transform="translate(-96.543 -103.102)"/></g></g><g transform="translate(113.645 100.933)"><g transform="translate(0.781 2.046)"><path class="f" d="M157.172,142.411c-3.023.646-6.245-2.441-6.245-2.441s1.681-4.133,4.7-4.778,6.245,2.441,6.245,2.441S160.2,141.765,157.172,142.411Z" transform="translate(-150.927 -135.102)"/></g><path d="M155.915,140.852c-2.929,0-5.642-2.565-5.768-2.685l-.273-.261.142-.35c.073-.18,1.829-4.414,5.1-5.113,3.234-.687,7.442,2.485,7.619,2.621l.407.311-.277.432c-.111.173-2.763,4.259-5.976,4.945h0A4.68,4.68,0,0,1,155.915,140.852Zm-4.705-3.232c.823.693,3.246,2.512,5.451,2.042s4.224-2.994,4.97-4.023c-1.1-.75-4.075-2.578-6.279-2.109S151.676,136.651,151.21,137.62Z" transform="translate(-149.874 -132.345)"/></g><g transform="translate(103.164 90.971)"><g transform="translate(0.781 2.045)"><path class="f" d="M142.948,128.974c-3.023.646-6.245-2.441-6.245-2.441s1.681-4.132,4.7-4.778,6.245,2.441,6.245,2.441S145.972,128.329,142.948,128.974Z" transform="translate(-136.703 -121.665)"/></g><path d="M141.692,127.416c-2.93,0-5.642-2.565-5.769-2.685l-.272-.262.142-.35c.073-.181,1.828-4.414,5.1-5.113,3.241-.686,7.444,2.485,7.621,2.62l.407.311-.277.432c-.111.174-2.764,4.259-5.977,4.945h0A4.678,4.678,0,0,1,141.692,127.416Zm-4.706-3.232c.824.694,3.247,2.514,5.451,2.042h0c2.2-.468,4.224-2.994,4.97-4.022-1.1-.75-4.076-2.577-6.279-2.109S137.453,123.215,136.986,124.184Z" transform="translate(-135.651 -118.909)"/></g><g transform="translate(105.733 76.491)"><g transform="translate(2.053 1.667)"><path class="f" d="M149.232,106.716c.39,3.067-2.956,6.018-2.956,6.018s-3.977-2.021-4.367-5.088,2.956-6.018,2.956-6.018S148.843,103.649,149.232,106.716Z" transform="translate(-141.877 -101.628)"/></g><path d="M144.149,112.82l-.337-.171c-.174-.088-4.246-2.193-4.668-5.514-.417-3.284,3.1-7.208,3.25-7.375l.344-.379.407.312c.163.125,4.012,3.111,4.426,6.371.422,3.321-2.994,6.377-3.14,6.506Zm-1.272-11.905c-.841,1.037-2.912,3.85-2.628,6.08s2.8,3.922,3.728,4.471c.759-.764,2.775-3.024,2.491-5.261S143.839,101.744,142.878,100.914Z" transform="translate(-139.111 -99.381)"/></g><g transform="translate(101.43 45.724)"><g transform="translate(1.937 2.083)"><path class="f" d="M143.166,67.07c-.823,2.979-5.049,4.412-5.049,4.412s-2.89-3.4-2.067-6.379,5.049-4.412,5.049-4.412S143.99,64.09,143.166,67.07Z" transform="translate(-135.903 -60.691)"/></g><path d="M135.884,70.826l-.245-.288c-.125-.148-3.071-3.661-2.179-6.888.882-3.19,5.64-5.453,5.842-5.548l.464-.218.255.444c.1.18,2.5,4.417,1.627,7.586h0c-.892,3.227-5.223,4.728-5.407,4.79ZM139.3,59.352c-1.175.632-4.17,2.428-4.77,4.6s1.071,4.7,1.715,5.562c.994-.411,3.727-1.719,4.328-3.893h0C141.174,63.452,139.87,60.489,139.3,59.352Z" transform="translate(-133.293 -57.884)"/></g><g transform="translate(76.181 53.588)"><path class="e" d="M113.056,71.774l-8.149-3.283L99.17,75.144l8.149,3.283Z" transform="translate(-99.17 -68.491)"/></g><g transform="translate(76.272 54.823)"><path d="M108.537,81.423,99.3,77.7l6.5-7.544,9.239,3.724Zm-7.38-4.174,7.058,2.844,4.97-5.763-7.058-2.844Z" transform="translate(-99.298 -70.156)"/></g></g></svg>