<svg xmlns="http://www.w3.org/2000/svg" width="128" height="200" viewBox="0 0 128 200"><defs><style>.a{fill:#fff;}.b{fill:#170000;}.c{fill:#da003a;}.d{fill:#c21823;}.e{fill:#858585;}</style></defs><rect class="a" width="125.044" height="197.044" transform="translate(1.478 1.478)"/><path d="M138.88,210.85h-128v-200h128ZM13.84,207.884H135.92V13.816H13.84Z" transform="translate(-10.88 -10.85)"/><path class="b" d="M28.54,27.235a7.753,7.753,0,0,1-.983.281c-.443.111-.806.185-1.079.229l-.148-.835a6.8,6.8,0,0,0,1.545-.547,6.245,6.245,0,0,0,1.33-.843h0l.9.148V34l1.84.133v.739H26.626v-.739L28.54,34Z" transform="translate(-14.911 -14.677)"/><path class="b" d="M36.556,33.71a5.662,5.662,0,0,1-.939-3.4,5.721,5.721,0,0,1,.532-2.543,3.939,3.939,0,0,1,1.478-1.67,3.7,3.7,0,0,1,1.966-.562A3.215,3.215,0,0,1,42.41,26.77a5.743,5.743,0,0,1,.887,3.393,6.031,6.031,0,0,1-.51,2.543,4.058,4.058,0,0,1-1.4,1.715,3.5,3.5,0,0,1-2.01.606A3.259,3.259,0,0,1,36.556,33.71Zm5.115-3.4a7.059,7.059,0,0,0-.5-2.956,1.707,1.707,0,0,0-1.663-1.035,1.8,1.8,0,0,0-1.693.983,5.913,5.913,0,0,0-.547,2.831,7.169,7.169,0,0,0,.525,3.016,1.752,1.752,0,0,0,1.67,1.138Q41.671,34.272,41.671,30.31Z" transform="translate(-17.332 -14.678)"/><path d="M138.88,210.85h-128v-200h128ZM13.84,207.884H135.92V13.816H13.84Z" transform="translate(-10.88 -10.85)"/><path class="c" d="M161.52,21.52l-6.46,7.258,6.46,7.258,6.46-7.258Z" transform="translate(-48.361 -13.634)"/><path d="M122.01,160.077c-1.574,0-4.56-1.382-5.462-2.853-1.131-1.848-.99-5.033-.983-5.174a.555.555,0,0,1,1.109.052s-.133,2.956.82,4.531c.85,1.382,4.036,2.557,4.716,2.313.2-1.367-.067-6.46-.576-7.169a42.484,42.484,0,0,0-3.156-3.075c-1.419-1.316-2.883-2.676-3.7-3.548-1.19-1.308-4.59-1.789-5.795-1.855-.1,0-6.105-.739-9.195,2.062a.562.562,0,0,1-.628.081,9.283,9.283,0,0,1-4.213-5.676,26.015,26.015,0,0,1-.939-2.579,8.219,8.219,0,0,0-1.382,2.506,5.9,5.9,0,0,0,0,4.59,41.293,41.293,0,0,1,2.912,7.568h0a7.319,7.319,0,0,0,3.415,3.016.555.555,0,0,1-.5.99c-3.149-1.589-3.939-3.585-3.969-3.7a41.443,41.443,0,0,0-2.838-7.391c-1.4-2.727.052-6.356,1.308-8,.547-.739,1.013-1.02,1.478-.931a.739.739,0,0,1,.584.6,23.879,23.879,0,0,0,1.027,2.919.266.266,0,0,1,0,.081,8.418,8.418,0,0,0,3.356,4.819c3.518-2.794,9.461-2.106,9.712-2.077s4.789.31,6.519,2.217c.739.843,2.217,2.217,3.607,3.481a39.775,39.775,0,0,1,3.3,3.245c.835,1.175.953,6.918.739,8.071a1.027,1.027,0,0,1-.9.828,2.04,2.04,0,0,1-.37.059Z" transform="translate(-31.718 -43.115)"/><path d="M50.7,196.451a.554.554,0,0,1-.192,0,.562.562,0,0,1-.333-.739c3.747-10.111,17.118-13.792,21.959-14.361,4.376-.51,7.524-1.478,9.35-2.956,2.594-2.077,4.028-6.319,4.982-9.121a20.037,20.037,0,0,1,.931-2.439,4.037,4.037,0,0,0-.044-3.356.362.362,0,0,1-.044-.126c-.5-2.41,1.478-7.539,1.552-7.761a.562.562,0,0,1,.739-.318.554.554,0,0,1,.318.739c-.532,1.382-1.833,5.322-1.478,7.081a5.174,5.174,0,0,1,0,4.287,21.274,21.274,0,0,0-.857,2.269c-.99,2.956-2.491,7.347-5.336,9.608-2.025,1.619-5.262,2.668-9.919,3.208s-17.487,4.05-21.042,13.644a.547.547,0,0,1-.584.34Z" transform="translate(-21.077 -48.086)"/><path d="M41.331,211.022a14.294,14.294,0,0,1-7.354-1.877c-6.571-3.88-7.694-8.818-7.8-9.365s-2.358-7.99,3.282-12.2c2.084-1.552,3.939-2.1,5.506-1.626a4.531,4.531,0,0,1,2.72,2.646.569.569,0,0,1-.14.591.562.562,0,0,1-.6.1,3.511,3.511,0,0,0-3.03.362c-1.56.946-3.518,6.142-.8,10.8,2.52,4.3,12.4,2.853,13.807,2.491a.554.554,0,1,1,.281,1.072c-.111,0-11.826,2.469-15.041-3a11.183,11.183,0,0,1-1.338-7.568c.377-2.217,1.367-4.043,2.513-4.738a4.693,4.693,0,0,1,2.727-.739,2.956,2.956,0,0,0-1.434-1c-1.212-.362-2.735.126-4.509,1.478-5.225,3.91-2.9,10.931-2.883,11.005a.259.259,0,0,1,0,.081c0,.052.946,4.893,7.28,8.64s14.6.14,14.686.1a.562.562,0,0,1,.739.281.554.554,0,0,1-.281.739,22.477,22.477,0,0,1-8.33,1.722Z" transform="translate(-14.73 -56.014)"/><path d="M123.409,227.3a2.772,2.772,0,0,1-1.123-.214,1.944,1.944,0,0,1-1.05-1.22,6.445,6.445,0,0,0-.843-1.308,9.441,9.441,0,0,1-2.166-4.435,53.661,53.661,0,0,0-1.22-5.832c-.214-.835-.31-1.249-.34-1.441l-.273-.4a8.936,8.936,0,0,1-1.766-5.654V205.79c.1-4.56.34-15.226.1-17.073a.547.547,0,0,1,.473-.621.554.554,0,0,1,.628.473c.222,1.707.081,9.675-.089,17.243v1.005a7.894,7.894,0,0,0,1.574,5,2.129,2.129,0,0,1,.458.894,12.611,12.611,0,0,0,.31,1.3A52.664,52.664,0,0,1,119.329,220a8.5,8.5,0,0,0,1.951,3.917,6.194,6.194,0,0,1,1.013,1.633.806.806,0,0,0,.458.54c.333.155,1.168.3,3.03-.5.65-.273.983-.65,1.02-1.146a2.217,2.217,0,0,0-.658-1.56c-.835-.214-2.956-2.106-3.984-5.972-.909-3.5-.3-10.577.1-15.263.052-.621.1-1.2.14-1.73a71.282,71.282,0,0,0-.961-14.841c-.562-1.951-1.2-13.385-.739-15.2.451-1.641,1.146-8.6,1.153-8.67a.547.547,0,0,1,.606-.5.554.554,0,0,1,.5.606c0,.288-.739,7.118-1.183,8.869-.436,1.6.192,12.853.695,14.6a70.935,70.935,0,0,1,1.005,15.233c-.044.532-.1,1.116-.148,1.737-.392,4.6-.983,11.567-.118,14.893.953,3.659,2.9,5.085,3.163,5.174.6.052,1.33,1.212,1.478,2.129a2.417,2.417,0,0,1-1.663,2.668A7.539,7.539,0,0,1,123.409,227.3ZM126.247,222.863ZM126.121,222.826Z" transform="translate(-37.856 -49.308)"/><path d="M60.216,253.766a3.7,3.7,0,0,1-1.338-.222,2.217,2.217,0,0,1-1.36-1.353c-.17-.488-.429-1.072-.739-1.744a19.6,19.6,0,0,1-1.951-6.327,75.425,75.425,0,0,1-.089-7.724,4.243,4.243,0,0,1,.37-1.619l2.313-5.174c.052-.1,2.121-3.555,1.8-5.662a6.3,6.3,0,0,0-.843-2.417c-2.661,3.437-8.256,11.375-8.13,14.583a28.189,28.189,0,0,0,2.047,8.485c.074.229.577,1.855-.362,2.831-.643.68-1.759.806-3.319.377-4.56-1.271-4.6-4.287-4.6-4.435-.059-.909-.54-9.268.333-11.412.577-1.434-.044-3.821-.34-4.775a2.52,2.52,0,0,1,.052-1.648,10.85,10.85,0,0,1,3.126-4.435c2.173-1.8.783-5.033.739-5.063a.562.562,0,0,1,.288-.739.554.554,0,0,1,.739.288c.074.163,1.722,4.028-1.079,6.356a9.741,9.741,0,0,0-2.8,3.947,1.389,1.389,0,0,0,0,.916c.407,1.338.99,3.821.3,5.521s-.407,8.47-.251,10.968c0,.126.089,2.343,3.8,3.378,1.094.3,1.885.281,2.217-.067s.222-1.375.126-1.678a28.514,28.514,0,0,1-2.07-8.869c-.192-4.5,8.418-15.41,8.788-15.876a.54.54,0,0,1,.377-.207.577.577,0,0,1,.421.133,6.068,6.068,0,0,1,1.574,3.57c.384,2.5-1.826,6.179-1.914,6.334l-2.284,5.107a3.112,3.112,0,0,0-.273,1.2,74.649,74.649,0,0,0,.081,7.591,18.6,18.6,0,0,0,1.863,5.965,14.444,14.444,0,0,1,.739,1.84,1.072,1.072,0,0,0,.739.68c1.086.414,3.082,0,4.967-1.1.318-.185.739-.466.739-.783,0-.783-1.781-1.877-2.55-2.343l-.266-.163c-1.552-.961-2.616-5.8-1.811-8.226.5-1.478,2.092-2.676,3.932-4.028a32.362,32.362,0,0,0,3.7-3,4.5,4.5,0,0,0,1.626-3.866,14.043,14.043,0,0,1,.924-4.93c1.818-4.782,3.939-5.092,4.582-5.063a46.23,46.23,0,0,1,6.031-1.375,69.166,69.166,0,0,0,8.988-2.106c5.529-1.8,6.371-8.241,6.378-8.308a.554.554,0,0,1,.613-.488.562.562,0,0,1,.488.621c0,.288-.924,7.214-7.14,9.231a69.988,69.988,0,0,1-9.128,2.136,44.413,44.413,0,0,0-5.987,1.375.517.517,0,0,1-.281,0h0s-1.8-.14-3.5,4.346a12.853,12.853,0,0,0-.909,4.745,5.558,5.558,0,0,1-1.959,4.619,33.261,33.261,0,0,1-3.8,3.1c-1.693,1.242-3.149,2.313-3.54,3.489-.7,2.114.421,6.356,1.345,6.933l.259.155c1.16.739,3.1,1.885,3.082,3.3a2.092,2.092,0,0,1-1.271,1.73A9.779,9.779,0,0,1,60.216,253.766Z" transform="translate(-19.432 -61.283)"/><path d="M103.354,237.977c-1.582,0-4.353-.636-5.048-2.609-.865-2.454-1.589-13.762-1.619-14.243a.554.554,0,1,1,1.1-.074c0,.118.739,11.634,1.56,13.947.577,1.633,3.659,2.062,4.553,1.826a2.491,2.491,0,0,0,1.6-1.064,1.722,1.722,0,0,0,.177-1.308,6.5,6.5,0,0,0-1.05-1.6,10.473,10.473,0,0,1-1.855-3.067c-.6-1.914-.739-9.15-.739-9.453a.554.554,0,0,1,1.109,0c0,2.047.214,7.679.665,9.143a9.609,9.609,0,0,0,1.678,2.72,6.777,6.777,0,0,1,1.242,1.988,2.823,2.823,0,0,1-.3,2.158,3.526,3.526,0,0,1-2.284,1.582A3.49,3.49,0,0,1,103.354,237.977Z" transform="translate(-33.192 -64.718)"/><path d="M107.441,142.938s1.818,8.049-8.241,17.576l-.288-4.871a10.023,10.023,0,0,1-4.08-4.656c-1.035-2.927-1.308-5.174-2.491-6.172s.3-7.9,2.321-7.945l2.262,5.7,2.742,2.661S104.308,142.7,107.441,142.938Z" transform="translate(-31.951 -43.388)"/><path d="M99.008,160.873a.635.635,0,0,1-.2-.037.569.569,0,0,1-.355-.488l-.273-4.582a10.3,10.3,0,0,1-4.065-4.789c-.318-.9-.569-1.744-.783-2.483-.473-1.589-.806-2.853-1.545-3.452-1.057-.924-.54-4.154.14-6.046.466-1.293,1.279-2.846,2.528-2.875a.577.577,0,0,1,.532.347l2.217,5.6,2.365,2.3c1.183-.6,4.945-2.373,7.716-2.173a.562.562,0,0,1,.5.429c.074.34,1.774,8.47-8.4,18.1a.54.54,0,0,1-.384.155Zm-4.856-23.5a4.435,4.435,0,0,0-1.183,2c-.828,2.3-.791,4.538-.451,4.826.939.82,1.353,2.217,1.877,3.976.214.739.458,1.56.739,2.432a9.534,9.534,0,0,0,3.829,4.361.554.554,0,0,1,.281.443l.214,3.659c7.568-7.628,7.458-14.117,7.28-15.787-2.956,0-6.985,2.217-7.029,2.217a.547.547,0,0,1-.65-.089l-2.742-2.661a.5.5,0,0,1-.133-.192Z" transform="translate(-31.759 -43.192)"/><path d="M120.693,164.169s-6.652-8.5-7.783-11.877a14.819,14.819,0,0,1-.126-7.214s6.711-.237,7.99,2.129,6.874,6.652,6.874,6.652.695,6.327.658,7.657-4.435-1.234-5.721-2.217-1.892-1.478-1.892-1.478l.88,1.959Z" transform="translate(-37.275 -45.515)"/><path d="M120.487,164.529a.547.547,0,0,1-.429-.207c-.281-.355-6.755-8.618-7.872-12.055a15.137,15.137,0,0,1-.14-7.524.554.554,0,0,1,.517-.414c.739,0,7.1-.17,8.5,2.417,1.2,2.217,6.652,6.452,6.726,6.5a.54.54,0,0,1,.207.377c0,.259.7,6.379.665,7.731a.894.894,0,0,1-.5.806c-1.426.739-6.053-2.52-6.105-2.557a.982.982,0,0,0-.14-.1.48.48,0,0,1,0,.229l-.887,4.361a.547.547,0,0,1-.414.429A.406.406,0,0,1,120.487,164.529Zm-7.45-19.1a13.9,13.9,0,0,0,.2,6.5c.85,2.587,5.174,8.441,6.955,10.747l.606-2.993-.813-1.8a.554.554,0,0,1,.88-.643s.6.547,1.848,1.478a15.967,15.967,0,0,0,4.841,2.461c0-1.39-.51-6.09-.628-7.192-1.013-.791-5.639-4.486-6.837-6.7C119.3,145.859,115.535,145.408,113.037,145.43Z" transform="translate(-37.077 -45.32)"/><path d="M65.754,192.819s-1.478,5.388-.695,8.8c.739,3.023,3.208,7.753,6.445,8.611,4.435,1.168,9.823-3.629,13.26-5.839,7.391-4.738,13.223-13.511,13.223-13.511s.976-2.4-4.531-4.664-7.79.443-7.79.443-.111,1.168-6.068,2.217A99.957,99.957,0,0,0,65.754,192.819Z" transform="translate(-24.899 -55.891)"/><path d="M72.757,210.753a6.459,6.459,0,0,1-1.589-.2c-3.5-.931-6.105-5.839-6.844-9.024-.806-3.5.643-8.869.739-9.069a.576.576,0,0,1,.34-.377,103.545,103.545,0,0,1,13.94-4c4.716-.806,5.543-1.693,5.632-1.8a.606.606,0,0,1,.1-.192c.111-.126,2.616-2.956,8.433-.6,5.913,2.446,4.878,5.262,4.826,5.381a.4.4,0,0,1-.052.1c-.244.362-5.987,8.928-13.378,13.673-.628.407-1.33.9-2.077,1.434C79.8,208.2,76.18,210.753,72.757,210.753Zm-6.733-17.739c-.281,1.123-1.264,5.447-.621,8.256s3.03,7.391,6.046,8.2c3.356.88,7.435-2,10.71-4.316.739-.532,1.478-1.035,2.114-1.478,6.866-4.435,12.461-12.476,13.008-13.3.052-.266.237-2.07-4.228-3.9-4.6-1.892-6.711-.155-7.1.222-.288.628-1.6,1.6-6.46,2.432A99.434,99.434,0,0,0,66.024,193.014ZM84.916,186.362ZM84.916,186.362ZM84.916,186.362ZM84.916,186.237Z" transform="translate(-24.703 -55.693)"/><path class="d" d="M98.887,177.416c-1.02-2.89,4.708-2.446,5.913-2.395,3.555.148,7.088.3,10.643.288,1.1,0,2.158-.37,3.134.429,1.16.939,1.16,3.393-.525,3.363-4.435-.081-8.958.111-13.415-.229C103.263,178.8,99.53,179.234,98.887,177.416Z" transform="translate(-33.727 -53.269)"/><path d="M109.9,177.753c-1.759,0-3.533,0-5.285-.14h-.783c-1.67,0-4.169.059-4.767-1.478a1.582,1.582,0,0,1,.133-1.552c.82-1.16,3.333-1.212,5.432-1.131h.207c3.038.1,6.186.192,9.342.17a6.271,6.271,0,0,0,.65-.037,3.326,3.326,0,0,1,2.432.473,2.328,2.328,0,0,1,.835,2.528,1.611,1.611,0,0,1-1.619,1.131h-3.939Zm-5.558-1.256h.333c2.6.163,5.262.148,7.835.126h3.962a.525.525,0,0,0,.577-.37,1.249,1.249,0,0,0-.436-1.286,2.35,2.35,0,0,0-1.693-.259c-.244,0-.488.037-.739.037-3.186,0-6.334-.074-9.387-.17h-.214c-3.223-.133-4.22.288-4.486.665a.605.605,0,0,0,0,.51h0c.318.813,2.616.776,3.7.739Z" transform="translate(-33.77 -52.87)"/><path class="d" d="M96.833,177.825s-5.706-1.848-8.973,5.329C87.875,183.154,95.983,184.344,96.833,177.825Z" transform="translate(-30.899 -53.949)"/><path class="d" d="M87.669,166.457s5.913-.924,8,6.652C95.673,173.139,87.477,173.028,87.669,166.457Z" transform="translate(-30.849 -51.055)"/><path d="M89.829,181.478a10.9,10.9,0,0,1-1.39-.081l-.739-.111.3-.665c3.082-6.792,8.633-5.078,8.692-5.063l.436.148-.059.451a5.536,5.536,0,0,1-2.151,3.866,8.618,8.618,0,0,1-5.092,1.456Zm-.429-1.116a7.938,7.938,0,0,0,4.9-1.227,4.3,4.3,0,0,0,1.619-2.624C94.722,176.319,91.573,176.253,89.4,180.362Z" transform="translate(-30.857 -53.365)"/><path d="M97.193,173.841l-.739-.1c-.163,0-3.947-.591-5.839-3.163a5.536,5.536,0,0,1-.961-4.316l.074-.458h.458c.074,0,5.869-.067,6.9,7.325ZM90.7,166.931a4.324,4.324,0,0,0,.806,2.956,7.969,7.969,0,0,0,4.346,2.565c-.939-4.56-3.969-5.381-5.152-5.521Z" transform="translate(-31.34 -50.892)"/><path d="M162.386,83.673a60.193,60.193,0,0,1-26.394-8.751c-3.555-2.158-6.652-4.789-9.956-7.265-3.171-2.373-7.731-1.256-10.606-3.7-.894-.739-2.217.532-1.308,1.308,2.956,2.543,6.9,1.367,10.1,3.341,4.139,2.579,7.642,6.083,11.914,8.574a61.671,61.671,0,0,0,26.253,8.367c1.183.089,1.175-1.759,0-1.848Z" transform="translate(-37.601 -24.507)"/><path d="M129.515,66.161a42.867,42.867,0,0,0,.31-7.155c-.044-1.183-1.892-1.19-1.848,0a42.871,42.871,0,0,1-.31,7.155C127.519,67.336,129.374,67.328,129.515,66.161Z" transform="translate(-41.254 -23.064)"/><path d="M129.015,72.578a104.252,104.252,0,0,1-12.8.591.924.924,0,0,0,0,1.848,104.256,104.256,0,0,0,12.8-.591C130.19,74.3,130.2,72.452,129.015,72.578Z" transform="translate(-38.028 -26.804)"/><path d="M140.546,74.678a16.807,16.807,0,0,1-2.409-7.391c-.1-1.175-1.944-1.19-1.848,0a18.84,18.84,0,0,0,2.661,8.308.924.924,0,1,0,1.6-.931Z" transform="translate(-43.496 -25.204)"/><path d="M143.121,82.31q-5.832,2.077-11.781,3.806a.924.924,0,0,0,.488,1.781q5.957-1.73,11.826-3.806c1.109-.4.636-2.18-.5-1.781Z" transform="translate(-42.033 -29.304)"/><path d="M156.592,82.911c-.687-3.067-1.966-5.913-2.9-8.928-.355-1.131-2.136-.65-1.781.488.931,2.956,2.217,5.869,2.9,8.936.259,1.16,2.04.665,1.781-.5Z" transform="translate(-47.528 -26.996)"/><path d="M159.278,87.666,150.7,91.228c-1.079.451-.606,2.217.488,1.781l8.581-3.562C160.853,89,160.38,87.23,159.278,87.666Z" transform="translate(-47.066 -30.685)"/><path d="M170.965,86.278a25.484,25.484,0,0,1-4.265-9.512c-.259-1.16-2.04-.673-1.789.488a26.741,26.741,0,0,0,4.435,9.978c.687.961,2.291.037,1.589-.931Z" transform="translate(-50.925 -27.709)"/><path d="M171.6,91.256l-12.875,7.79a.926.926,0,1,0,.939,1.6l12.868-7.79a.924.924,0,1,0-.931-1.6Z" transform="translate(-49.199 -31.594)"/><path d="M160.331,129.936c-17.946-13.459-37.185-27.347-60.5-28.086a.924.924,0,0,0,0,1.848c22.912.739,41.915,14.627,59.565,27.864.946.739,1.87-.887.931-1.6Z" transform="translate(-33.721 -34.337)"/><path d="M164.849,118.686a41.229,41.229,0,0,1-.222,7.147c-.14,1.175,1.707,1.168,1.848,0a41.228,41.228,0,0,0,.222-7.147C166.63,117.5,164.783,117.5,164.849,118.686Z" transform="translate(-50.855 -38.486)"/><path d="M170.5,134.222a36.088,36.088,0,0,1-4.05.828c-1.175.118-1.19,1.966,0,1.848a41.506,41.506,0,0,0,4.546-.894C172.153,135.759,171.665,133.978,170.5,134.222Z" transform="translate(-51.1 -42.734)"/><path d="M158.226,121.37a36.749,36.749,0,0,0-1.789-6.652c-.406-1.109-2.217-.628-1.781.488a37.081,37.081,0,0,1,1.789,6.652C156.644,123.033,158.426,122.53,158.226,121.37Z" transform="translate(-48.238 -37.528)"/><path d="M154.734,123a82.036,82.036,0,0,0-9.431.5c-1.175.17-.673,1.944.488,1.781a78.5,78.5,0,0,1,8.943-.436.924.924,0,0,0,0-1.848Z" transform="translate(-45.641 -39.839)"/><path d="M149.067,115.576c-1.131-3.319-3.119-6.179-5.011-9.106-.643-.99-2.217-.067-1.6.939,1.8,2.772,3.755,5.506,4.826,8.662C147.663,117.187,149.452,116.707,149.067,115.576Z" transform="translate(-45.063 -35.447)"/><path d="M140.232,114.938l-11.323,1.138c-1.168.118-1.183,1.973,0,1.848l11.323-1.138c1.168-.118,1.183-1.966,0-1.848Z" transform="translate(-41.342 -37.753)"/><path d="M134.082,107.963a89.578,89.578,0,0,0-3.939-8.13c-.517-1.072-2.114-.133-1.589.931,1.249,2.572,2.742,5.033,3.747,7.724.414,1.1,2.217.621,1.781-.5Z" transform="translate(-41.457 -33.72)"/><path d="M126.28,108.2l-7.968,1.382c-1.175.207-.68,1.988.488,1.781l7.975-1.382C127.943,109.786,127.448,108,126.28,108.2Z" transform="translate(-38.643 -36.01)"/><path d="M120.795,103.091a19.217,19.217,0,0,0-5.174-6.859c-.88-.8-2.217.5-1.308,1.308a17.429,17.429,0,0,1,4.716,6.046c.443,1.079,2.217.606,1.781-.5Z" transform="translate(-37.701 -32.849)"/><path d="M107.169,103.2l-10.148,4.575c-1.079.488-.14,2.077.931,1.6l10.148-4.582c1.086-.488.148-2.077-.931-1.589Z" transform="translate(-33.155 -34.692)"/><path class="c" d="M113,71.764l-8.115-3.274L99.17,75.12l8.115,3.267Z" transform="translate(-33.837 -25.744)"/><path d="M108.5,81.385l-9.2-3.7,6.475-7.509,9.209,3.7Zm-7.391-4.161,7.029,2.838,4.952-5.743L106.1,71.525Z" transform="translate(-33.87 -26.179)"/><path class="c" d="M44.346,107.228l8.182-3.1-.3-8.744-8.182,3.1Z" transform="translate(-19.506 -32.69)"/><path d="M40.88,106.8l-.34-9.919,9.276-3.518.34,9.911Zm.791-9.165.259,7.576,7.081-2.69-.259-7.576Z" transform="translate(-18.593 -32.166)"/><path class="c" d="M79.377,109.75l-8.744.214-2.624,8.352,8.744-.214Z" transform="translate(-25.736 -36.407)"/><path d="M69.26,120.492l2.956-9.468,9.919-.244-2.956,9.468Zm3.792-8.382-2.269,7.236,7.576-.185,2.269-7.236Z" transform="translate(-26.06 -36.672)"/><path class="c" d="M100.924,92.8l-8.16-3.163L87.14,96.351l8.167,3.156Z" transform="translate(-30.709 -31.209)"/><path d="M96.564,102.473,87.31,98.9l6.371-7.605,9.254,3.585Zm-7.391-4.05,7.066,2.735,4.886-5.809-7.073-2.735Z" transform="translate(-30.752 -31.634)"/><path class="c" d="M139.079,83.2l-8.115-3.267-5.713,6.622,8.115,3.274Z" transform="translate(-40.619 -28.7)"/><path d="M134.582,92.822l-9.2-3.7,6.475-7.517,9.209,3.7Zm-7.391-4.161,7.066,2.846,4.952-5.735L132.18,82.94Z" transform="translate(-40.651 -29.133)"/><path class="c" d="M129.784,117.81l-8.67-1.19-3.925,7.82,8.67,1.19Z" transform="translate(-38.524 -38.182)"/><path d="M127.838,128.178,118,126.869,122.435,118l9.83,1.345Zm-8.13-2.217,7.509,1.027,3.4-6.77-7.509-1.035Z" transform="translate(-38.733 -38.536)"/><path class="c" d="M63.623,138.99l-7.073,5.137,2.579,8.367,7.081-5.144Z" transform="translate(-22.757 -43.954)"/><path d="M61.5,153.277l-2.956-9.483L66.6,138l2.956,9.483Zm-1.641-9.047,2.217,7.236,6.135-4.435-2.217-7.243Z" transform="translate(-23.274 -43.695)"/><path class="c" d="M165.268,123.17l7.325-4.782-2.151-8.478-7.332,4.782Z" transform="translate(-50.461 -36.442)"/><path d="M161.806,123.406,159.36,113.8l8.308-5.418,2.446,9.608Zm-1.175-9.121,1.87,7.347,6.349-4.139-1.87-7.347Z" transform="translate(-49.483 -36.044)"/><path class="e" d="M157.146,142.43c-3.008.643-6.216-2.432-6.216-2.432s1.67-4.117,4.686-4.76,6.216,2.432,6.216,2.432S160.161,141.75,157.146,142.43Z" transform="translate(-47.284 -42.973)"/><path d="M155.874,140.822c-2.956,0-5.625-2.557-5.75-2.676l-.273-.259.148-.347c.074-.185,1.818-4.435,5.078-5.092s7.391,2.476,7.591,2.609l.407.31-.273.429c-.111.17-2.757,4.243-5.957,4.922A4.362,4.362,0,0,1,155.874,140.822ZM151.18,137.6c.82.695,3.223,2.506,5.432,2.04h0c2.217-.473,4.206-2.956,4.952-4.006-1.1-.739-4.065-2.572-6.253-2.106s-3.651,3.112-4.117,4.072Z" transform="translate(-47.002 -42.249)"/><path class="e" d="M142.923,128.943c-3.016.643-6.223-2.432-6.223-2.432s1.678-4.117,4.686-4.752,6.223,2.424,6.223,2.424S145.931,128.3,142.923,128.943Z" transform="translate(-43.599 -39.489)"/><path d="M141.666,127.382c-2.919,0-5.617-2.55-5.743-2.676l-.273-.259.14-.347c.074-.177,1.826-4.435,5.085-5.092s7.391,2.476,7.591,2.609l.407.31-.281.429c-.1.177-2.749,4.242-5.913,4.93a4.85,4.85,0,0,1-1.013.1Zm-4.686-3.23c.82.687,3.223,2.5,5.432,2.033s4.206-2.956,4.945-4.006c-1.094-.739-4.058-2.565-6.253-2.1S137.446,123.2,136.98,124.152Z" transform="translate(-43.323 -38.776)"/><path class="e" d="M149.2,106.693c.384,3.06-2.956,6-2.956,6s-3.962-2.018-4.346-5.07,2.956-5.994,2.956-5.994S148.81,103.64,149.2,106.693Z" transform="translate(-44.946 -34.306)"/><path d="M144.129,112.765l-.333-.17c-.177-.089-4.228-2.217-4.649-5.492s3.082-7.177,3.237-7.347l.34-.377.407.31c.163.126,4,3.1,4.435,6.349s-2.956,6.349-3.126,6.475Zm-1.264-11.826c-.835,1.027-2.9,3.829-2.616,6.053s2.786,3.91,3.7,4.435c.739-.739,2.764-3.016,2.483-5.24s-2.609-4.457-3.563-5.277Z" transform="translate(-44.228 -33.721)"/><path class="e" d="M143.136,67.033c-.82,2.956-5.026,4.39-5.026,4.39s-2.883-3.385-2.062-6.349,5.033-4.435,5.033-4.435S143.957,64.062,143.136,67.033Z" transform="translate(-43.394 -23.715)"/><path d="M135.871,70.777l-.244-.288c-.126-.148-3.053-3.651-2.166-6.859s5.617-5.432,5.817-5.529l.466-.222.251.443c.1.177,2.491,4.435,1.619,7.554h0c-.887,3.208-5.174,4.708-5.381,4.767Zm3.407-11.434c-1.168.628-4.154,2.417-4.752,4.582s1.072,4.679,1.715,5.536c.99-.407,3.7-1.707,4.309-3.873h0C141.14,63.431,139.847,60.474,139.278,59.343Z" transform="translate(-42.715 -23)"/><path class="c" d="M163.654,73.515l4.065-7.746-6.031-6.349-4.058,7.753Z" transform="translate(-49.032 -23.397)"/><path d="M160.852,75.247,154,68.048l4.6-8.788,6.852,7.2Zm-5.484-7.391,5.226,5.5,3.518-6.718-5.226-5.492Z" transform="translate(-48.085 -23.355)"/><path class="c" d="M53.435,141.82l-8.751.214-2.624,8.352,8.751-.214Z" transform="translate(-18.988 -44.694)"/><path d="M43.32,152.572l2.956-9.468,9.919-.244-2.956,9.468Zm3.792-8.374-2.269,7.228,7.576-.185,2.269-7.228Z" transform="translate(-19.315 -44.961)"/></svg>