<svg xmlns="http://www.w3.org/2000/svg" xmlns:xlink="http://www.w3.org/1999/xlink" width="128" height="200" viewBox="0 0 128 200"><defs><style>.a{fill:none;}.b{fill:#fff;}.c{clip-path:url(#a);}.d{fill:#da003a;}.e{fill:#858585;}.f{fill:#ffe700;}.g{clip-path:url(#b);}.h{fill:#231815;}.i{fill:#c21823;}.j{fill:#ffb4c0;}</style><clipPath id="a"><rect class="a" width="77.537" height="82.505"/></clipPath><clipPath id="b"><rect class="a" width="27.469" height="79.17"/></clipPath></defs><g transform="translate(-10.88 -10.85)"><rect class="b" width="125.03" height="197.03" transform="translate(12.365 12.335)"/><path d="M138.88,210.85h-128v-200h128ZM13.84,207.884H135.92V13.816H13.84Z" transform="translate(0)"/><g class="c" transform="translate(12.365 12.335)"><path class="d" d="M39.437-14.13-4.89,35.662,39.437,85.447,83.764,35.662Z" transform="translate(-8.306 -5.906)"/></g><path class="e" d="M169.507,236.607v21.439c-15.112-2.562-26.734-14.852-31.346-28.034-.8-2.3-4.263-27.477-3.824-27.343,18,4.307,32.519,16.241,35.17,33.938" transform="translate(-32.239 -49.677)"/><path d="M171.026,257.125h-.1c-13.367-2.413-25.115-13.62-29.979-28.546-.416-1.277-1.485-8.644-2.228-14.57-1.693-13-1.485-13.248-1.255-13.471a.579.579,0,0,1,.557-.163c18.64,4.76,31.19,17.682,33.559,34.576a.542.542,0,0,1-.468.624.557.557,0,0,1-.631-.468c-2.28-16.226-14.243-28.695-32.059-33.47.252,3.862,2.859,24.343,3.594,26.593,4.738,14.548,16.167,25.457,29.111,27.8a.564.564,0,0,1,.453.646A.557.557,0,0,1,171.026,257.125Z" transform="translate(-33.015 -49.082)"/><path d="M171.027,254.034a.542.542,0,0,1-.468-.26l-33.15-52.57a.55.55,0,0,1,.074-.691.564.564,0,0,1,.7-.074c12.305,7.879,32.489,47.758,33.343,49.451a.557.557,0,1,1-1,.5c-.193-.379-18.283-36.136-30.492-47.1L171.5,253.18a.564.564,0,0,1-.178.743A.527.527,0,0,1,171.027,254.034Z" transform="translate(-33.016 -49.081)"/><path d="M147.464,220.5h-.082l-7.686-1.181a.557.557,0,1,1,.171-1.1l7.679,1.181a.564.564,0,0,1,.468.639A.549.549,0,0,1,147.464,220.5Z" transform="translate(-33.402 -53.607)"/><path d="M149.46,224.26h0L141,223.7a.557.557,0,0,1-.512-.594.542.542,0,0,1,.587-.52l8.458.557a.557.557,0,0,1-.037,1.114Z" transform="translate(-33.742 -54.74)"/><path d="M152.41,230.534h-.059l-10.664-1.092a.557.557,0,0,1-.5-.616.55.55,0,0,1,.609-.5l10.671,1.1a.558.558,0,1,1-.059,1.114Z" transform="translate(-33.931 -56.281)"/><path d="M158.316,241.8H143.887a.557.557,0,0,1,0-1.114h14.429a.557.557,0,1,1,0,1.114Z" transform="translate(-34.563 -59.463)"/><path d="M146.087,246.581a.557.557,0,1,1,0-1.114l14.852-.327a.557.557,0,0,1,.572.542.564.564,0,0,1-.55.572l-14.852.327Z" transform="translate(-35.129 -60.608)"/><path d="M150.517,254.091a.557.557,0,1,1,0-1.114l14.659-.468a.542.542,0,0,1,.572.535.564.564,0,0,1-.535.579l-14.659.468Z" transform="translate(-36.27 -62.505)"/><path d="M154.363,234.183h-.045l-12.624-1.047a.555.555,0,0,1,.089-1.106l12.624,1.047a.557.557,0,0,1-.045,1.114Z" transform="translate(-34.011 -57.233)"/><path d="M158.737,222.917h-.156a.557.557,0,0,1-.379-.691l2.814-9.654a.572.572,0,0,1,.691-.379.557.557,0,0,1,.379.691l-2.815,9.654a.564.564,0,0,1-.535.379Z" transform="translate(-38.385 -52.059)"/><path d="M162.527,227.055a.615.615,0,0,1-.163,0,.557.557,0,0,1-.371-.683l3.171-10.077a.55.55,0,0,1,.7-.364.557.557,0,0,1,.364.7l-3.171,10.077a.557.557,0,0,1-.527.349Z" transform="translate(-39.361 -53.024)"/><path d="M165.371,233.062a.55.55,0,0,1-.475-.275c-.475-.743.743-4.641,3.713-11.473a.559.559,0,1,1,1.025.446c-1.946,4.515-3.876,9.654-3.765,10.508a.557.557,0,0,1-.215.743A.572.572,0,0,1,165.371,233.062ZM165.853,232.215Z" transform="translate(-40.088 -54.337)"/><path d="M167.808,236.587a.617.617,0,0,1-.163,0,.557.557,0,0,1-.364-.7l3.928-12.5a.557.557,0,0,1,1.062.334l-3.928,12.5a.557.557,0,0,1-.535.364Z" transform="translate(-40.721 -54.915)"/><path d="M172.576,244.4h-.134a.557.557,0,0,1-.408-.676l3.379-13.894a.557.557,0,1,1,1.077.26l-3.379,13.85A.55.55,0,0,1,172.576,244.4Z" transform="translate(-41.947 -56.544)"/><path d="M178.236,255.783H178.1a.557.557,0,0,1-.408-.676l2.837-11.072a.557.557,0,0,1,.676-.4.549.549,0,0,1,.4.676l-2.829,11.072a.564.564,0,0,1-.542.4Z" transform="translate(-43.404 -60.216)"/><path d="M156.107,218.18a.327.327,0,0,1-.119,0,.549.549,0,0,1-.423-.661l1.715-7.827a.557.557,0,1,1,1.084.238l-1.738,7.812a.55.55,0,0,1-.52.438Z" transform="translate(-37.709 -51.29)"/><path d="M170.581,261.274H156.107a.557.557,0,1,1,0-1.114h14.474a.557.557,0,1,1,0,1.114Z" transform="translate(-37.708 -64.474)"/><path d="M173.485,265.254H160.177a.557.557,0,1,1,0-1.114h13.308a.557.557,0,1,1,0,1.114Z" transform="translate(-38.756 -65.499)"/><path class="f" d="M140.254,203.661l-.936-3.646c-.891-2.228-1.99-2.9-3.186-2.131-1.166.921-.921,2.176.876,3.713A22.969,22.969,0,0,0,140.254,203.661Z" transform="translate(-32.408 -48.279)"/><path d="M141.061,205.021a.564.564,0,0,1-.245-.059,22.4,22.4,0,0,1-3.186-1.99l-.134-.1c-1.262-1.092-1.849-2.042-1.827-2.97a2.183,2.183,0,0,1,.921-1.671,2.139,2.139,0,0,1,1.857-.342c.869.282,1.589,1.166,2.228,2.711l.958,3.713a.55.55,0,0,1-.186.572.557.557,0,0,1-.386.134Zm-3.186-6.089a1.2,1.2,0,0,0-.639.223,1.077,1.077,0,0,0-.453.795c0,.371.23,1.04,1.4,2.05l.1.067c.639.453,1.248.884,1.923,1.292l-.616-2.4c-.438-1.1-.965-1.827-1.485-1.99A.788.788,0,0,0,137.875,198.932Z" transform="translate(-32.476 -48.341)"/><g class="g" transform="translate(12.61 108.503)"><path class="e" d="M30.763,208.025l-12.951,20.63c-12.988-11.592-16.8-30.432-13.248-45.909.624-2.7,12.483-28.962,12.84-28.628,14.719,15.023,21.484,35.274,13.367,53.907" transform="translate(-10.66 -145.683)"/><path d="M19.791,228.859a.616.616,0,0,1-.423-.163c-11.392-10.4-15.944-28.271-11.6-45.574.371-1.485,3.81-9.208,6.684-15.372,6.216-13.53,6.58-13.627,6.929-13.716a.646.646,0,0,1,.631.178c15.068,15.84,19.308,35.854,11.414,53.535a.631.631,0,1,1-1.151-.512c7.567-16.991,3.587-36.21-10.642-51.575-2.087,3.876-11.956,25.16-12.624,27.766-4.225,16.865.178,34.264,11.228,44.334a.624.624,0,0,1,0,.891.609.609,0,0,1-.446.208Z" transform="translate(-11.392 -145.656)"/><path d="M26.743,225.888a.639.639,0,0,1-.631-.631L26,154.648a.646.646,0,0,1,.5-.624.624.624,0,0,1,.705.349c2.97,6.327,4.27,19.657,3.8,39.626-.342,14.815-1.574,27.974-1.582,28.1a.646.646,0,0,1-.691.572.631.631,0,0,1-.572-.691c.045-.483,4.233-45.819-.884-63.739l.126,67.051a.631.631,0,0,1-.631.631Z" transform="translate(-16.502 -145.655)"/><path d="M24.365,179.387a.631.631,0,0,1-.416-.156l-6.684-5.778a.631.631,0,0,1-.059-.891.624.624,0,0,1,.891-.067l6.684,5.778a.631.631,0,0,1-.408,1.114Z" transform="translate(-14.198 -150.373)"/><path d="M23.978,184.2a.616.616,0,0,1-.364-.126l-7.8-5.644a.633.633,0,1,1,.743-1.025l7.8,5.644a.639.639,0,0,1,.141.884.646.646,0,0,1-.52.267Z" transform="translate(-13.812 -151.647)"/><path d="M23.044,192.023a.639.639,0,0,1-.386-.134l-9.6-7.5a.631.631,0,0,1-.111-.884.639.639,0,0,1,.891-.111l9.6,7.5a.639.639,0,0,1,.111.891A.646.646,0,0,1,23.044,192.023Z" transform="translate(-13.108 -153.184)"/><path d="M21.957,206.423a.624.624,0,0,1-.334-.1L7.706,197.594a.634.634,0,0,1,.668-1.077l13.887,8.718a.631.631,0,0,1,.193.869A.616.616,0,0,1,21.957,206.423Z" transform="translate(-11.716 -156.572)"/><path d="M21.747,212.435a.631.631,0,0,1-.319-.089L6.895,203.673a.639.639,0,0,1-.215-.869.631.631,0,0,1,.869-.215l14.5,8.674a.624.624,0,0,1,.223.861A.639.639,0,0,1,21.747,212.435Z" transform="translate(-11.506 -158.135)"/><path d="M21.284,222.1a.609.609,0,0,1-.319-.089L6.573,213.591a.631.631,0,0,1-.223-.861.624.624,0,0,1,.861-.23L21.6,220.9a.639.639,0,0,1,.223.869.631.631,0,0,1-.542.334Z" transform="translate(-11.422 -160.687)"/><path d="M22.731,196.726a.6.6,0,0,1-.379-.134l-11.511-8.629a.631.631,0,0,1,.743-1.017L23.1,195.583a.631.631,0,0,1,.119.884A.616.616,0,0,1,22.731,196.726Z" transform="translate(-12.542 -154.108)"/><path d="M31.718,189.11A.631.631,0,0,1,31.3,188l8.533-7.56a.624.624,0,0,1,.891.052.631.631,0,0,1-.052.891l-8.533,7.6a.631.631,0,0,1-.416.126Z" transform="translate(-17.809 -152.417)"/><path d="M32.781,195.446a.631.631,0,0,1-.408-1.114l9.142-7.775a.63.63,0,1,1,.817.958L33.2,195.3a.639.639,0,0,1-.416.149Z" transform="translate(-18.084 -153.993)"/><path d="M31.714,203.079h0a.639.639,0,0,1-.624-.646c0-1.04,3.557-4,10.515-8.793a.624.624,0,0,1,.876.163.631.631,0,0,1-.163.884c-4.6,3.171-9.557,6.951-9.966,7.842a.624.624,0,0,1-.639.55ZM32.345,202.456Z" transform="translate(-17.812 -155.827)"/><path d="M31.581,207.956a.631.631,0,0,1-.408-1.114L42.5,197.188a.632.632,0,0,1,.817.965l-11.332,9.654a.661.661,0,0,1-.408.149Z" transform="translate(-17.775 -156.73)"/><path d="M31.148,218.275a.646.646,0,0,1-.453-.193.631.631,0,0,1,0-.9l11.637-11.317a.631.631,0,0,1,.891,0,.639.639,0,0,1,0,.9L31.616,218.1a.639.639,0,0,1-.468.178Z" transform="translate(-17.662 -158.955)"/><path d="M30.359,232.472a.631.631,0,0,1-.438-1.092l9.416-8.911a.633.633,0,1,1,.876.913L30.8,232.309a.661.661,0,0,1-.438.163Z" transform="translate(-17.46 -163.23)"/><path d="M32.422,182.741a.639.639,0,0,1-.446-.178.631.631,0,0,1,0-.891l6.379-6.5a.633.633,0,1,1,.906.884l-6.379,6.5a.631.631,0,0,1-.46.186Z" transform="translate(-17.993 -151.054)"/><path d="M21.947,232.585a.691.691,0,0,1-.334-.1L7.688,223.74a.631.631,0,1,1,.668-1.069l13.931,8.741a.639.639,0,0,1-.342,1.173Z" transform="translate(-11.706 -163.299)"/><path d="M22.337,238.165a.624.624,0,0,1-.334-.1L9.2,230.026a.631.631,0,0,1-.23-.869.639.639,0,0,1,.876-.2L22.656,237a.631.631,0,0,1,.2.869.639.639,0,0,1-.52.3Z" transform="translate(-12.096 -164.921)"/><path class="f" d="M26.948,158.892l1.307-4.07c.5-2.711-.163-4-1.782-3.973-1.671.178-2.228,1.537-1.411,4.122a25.887,25.887,0,0,0,1.886,3.921Z" transform="translate(-16.165 -144.842)"/><path d="M28.4,159.252a.557.557,0,0,1-.475-.26,25.791,25.791,0,0,1-1.857-3.832L26,154.99c-.55-1.782-.535-3.03,0-3.876a2.428,2.428,0,0,1,1.842-1.017,2.287,2.287,0,0,1,1.931.743c.646.78.8,2.042.46,3.869l-1.322,4.136a.564.564,0,0,1-.46.386Zm-.438-8.043h-.037a1.277,1.277,0,0,0-.973.52c-.356.535-.319,1.53.1,2.881l.045.119c.371.884.743,1.723,1.166,2.584l.906-2.837c.327-1.745.052-2.532-.23-2.874A1.188,1.188,0,0,0,27.96,151.21Z" transform="translate(-16.397 -144.645)"/></g><path class="h" d="M118.27,129.426a35.141,35.141,0,0,0,1.329,5.659.787.787,0,0,0,1.24.334l1.775-1.433s5.287-5.057,2.681-7.76c-1.953-2.035-5.414-2.109-7.025-2.02a7.9,7.9,0,0,1-2.287-.186,3.3,3.3,0,0,1-.928-.319,2.31,2.31,0,0,1-.691-1.21s.223.861-.861,1.686-4.456,2.079-4.812,3.631c-.349,1.4-.045,4.842,2.8,6.342a10.768,10.768,0,0,0,4.961,1.448,7.055,7.055,0,0,1,4.233,2.733,5.1,5.1,0,0,0,2.48,1.79l.624.252-1.173-6.387" transform="translate(-25.454 -28.873)"/><path class="h" d="M123.6,140.737a.691.691,0,0,1-.215,0l-.624-.26a5.54,5.54,0,0,1-2.748-2.02,6.645,6.645,0,0,0-3.847-2.465,5.2,5.2,0,0,0-.527-.059,10.7,10.7,0,0,1-4.6-1.485c-3.186-1.678-3.446-5.488-3.082-6.966.334-1.329,2.183-2.339,3.669-3.141a11.8,11.8,0,0,0,1.352-.8c.743-.564.654-1.092.654-1.114a.564.564,0,0,1,.408-.661.535.535,0,0,1,.661.364,1.849,1.849,0,0,0,.475.921,2.732,2.732,0,0,0,.743.238,7.374,7.374,0,0,0,2.131.171c1.894-.1,5.391,0,7.426,2.228a3.082,3.082,0,0,1,.876,2.287c-.052,2.48-2.592,5.258-3.364,6.045l1.121,6.1a.542.542,0,0,1-.542.654Zm-9.29-16.976a3.052,3.052,0,0,1-.654.668,12.811,12.811,0,0,1-1.485.884c-1.158.631-2.9,1.582-3.119,2.436-.26,1.032-.141,4.315,2.517,5.718a9.728,9.728,0,0,0,4.174,1.322,3.918,3.918,0,0,1,.624.067,7.678,7.678,0,0,1,4.619,2.97,4.136,4.136,0,0,0,1.886,1.411l-.817-4.456-1.04.839a1.374,1.374,0,0,1-1.21.26,1.352,1.352,0,0,1-.906-.832,35.476,35.476,0,0,1-1.359-5.688.557.557,0,1,1,1.092-.193,33.843,33.843,0,0,0,1.307,5.562.223.223,0,0,0,.149.141.26.26,0,0,0,.215-.045l1.767-1.456h0c.045-.045,3.149-3.067,3.2-5.458a1.953,1.953,0,0,0-.564-1.485c-1.819-1.894-5.2-1.923-6.594-1.849a8.726,8.726,0,0,1-2.443-.2,3.015,3.015,0,0,1-1.106-.4A1.635,1.635,0,0,1,114.306,123.76Z" transform="translate(-25.263 -28.681)"/><path class="h" d="M112.291,228.436a11.2,11.2,0,0,1-4.322-1.1c-2.012-.906-2.369-2.139-2.867-3.839l-.163-.564-2.295-7.634c-.743-2.592-1.433-4.4-3.431-5.941l-.446-.342c-1.857-1.418-4.166-3.178-5.243-5.688a.557.557,0,1,1,1.017-.438c.973,2.228,3.149,3.9,4.9,5.243l.453.349c2.228,1.738,2.97,3.787,3.817,6.5l2.458,8.169c.475,1.626.743,2.443,2.228,3.141,1.2.535,4.159,1.663,5.733.453.319-.245.5-.475.5-.646,0-.312-.579-.743-1-1.1-.208-.156-.408-.312-.579-.468a23.021,23.021,0,0,1-3.988-5.265,10.478,10.478,0,0,1-1.545-7.062,15.825,15.825,0,0,1,.609-2.057c1.062-3.178,2.852-8.488.564-12.624-1.329-2.4.936-4.738,1.656-5.4a12.572,12.572,0,0,0,3.394-4.515,27.766,27.766,0,0,0,1.485-4.849c.386-1.641.483-2,.8-2.191a.557.557,0,0,1,.743.2.55.55,0,0,1-.067.654c-.089.215-.26.943-.416,1.589a28.694,28.694,0,0,1-1.537,5.072,13.5,13.5,0,0,1-3.654,4.864c-.572.52-2.362,2.354-1.433,4.032,2.525,4.537.564,10.359-.483,13.493a16.273,16.273,0,0,0-.564,1.879,9.454,9.454,0,0,0,1.4,6.312,22.019,22.019,0,0,0,3.78,5.013c.156.141.327.275.512.416.676.527,1.441,1.121,1.433,1.983a1.953,1.953,0,0,1-.936,1.485,4.055,4.055,0,0,1-2.517.876ZM116.6,181.591Z" transform="translate(-21.529 -43.971)"/><path class="h" d="M72.851,219.96A7.278,7.278,0,0,1,66.91,216.4a12.952,12.952,0,0,1-1.634-7.426,38.921,38.921,0,0,1,1.589-9.03l.067-.252a12.84,12.84,0,0,0,.646-3.624,38.029,38.029,0,0,0-1.025-6.684,49.88,49.88,0,0,1-.884-4.976c-.616-5.985,2.51-13.278,9.654-15.595a14.853,14.853,0,0,0,6.357-4.248l.171-.186a50.119,50.119,0,0,0,4.9-6.037c1.611-2.5,3.171-4.775,4.82-7.189l.951-1.381c1.01-1.485,2.05-3.089,3.074-4.76a6.891,6.891,0,0,0,.8-5.317,6.8,6.8,0,0,0-3.223-4.248c-.809-.468-1.693-.936-2.614-1.426-.743-.386-1.485-.787-2.228-1.218-5.778-3.2-2.413-10.657-2.376-10.731a.55.55,0,0,1,.668-.3l4.151,1.314a.558.558,0,1,1-.342,1.062l-3.654-1.158c-.587,1.537-2.087,6.52,2.087,8.837q1.114.635,2.228,1.2c.943.5,1.827.973,2.644,1.448a7.991,7.991,0,0,1,2.815,11.139c-1.032,1.693-2.072,3.3-3.1,4.8l-.951,1.389c-1.649,2.406-3.2,4.678-4.8,7.166a50.33,50.33,0,0,1-5.013,6.171l-.163.186a15.929,15.929,0,0,1-6.84,4.56c-6.535,2.139-9.476,9.045-8.911,14.451a47.046,47.046,0,0,0,.869,4.857,38.921,38.921,0,0,1,1.047,6.891A13.486,13.486,0,0,1,68,200.035l-.067.252a37.97,37.97,0,0,0-1.545,8.77,11.691,11.691,0,0,0,1.485,6.788,5.97,5.97,0,0,0,5.941,2.97.342.342,0,0,0,.223-.141c.379-.661-.49-2.013-.958-2.748l-.163-.26c-.163-.26-.319-.5-.468-.743a5.3,5.3,0,0,1-1.218-3.795c.045-.631.067-1.27.089-1.916a22.033,22.033,0,0,1,.564-5.072c.743-2.659,2.614-3.81,4.612-5.035.349-.215.743-.431,1.062-.668a22.689,22.689,0,0,0,6.884-6.231c1.292-2.1,3.557-7.894,1.418-11.607a.557.557,0,0,1,.965-.55c2.4,4.218,0,10.4-1.53,12.721a23.842,23.842,0,0,1-7.211,6.557c-.364.238-.743.46-1.092.683-1.886,1.151-3.513,2.146-4.122,4.381a21.87,21.87,0,0,0-.527,4.812c0,.661-.045,1.314-.089,1.961a4.234,4.234,0,0,0,1.04,3.1c.149.23.312.475.483.743l.156.252c.639.988,1.7,2.651.98,3.9a1.4,1.4,0,0,1-.951.668,5.248,5.248,0,0,1-1.114.134Z" transform="translate(-14.197 -28.848)"/><path class="h" d="M117.774,133.527a1.381,1.381,0,0,1-.356-.045,1.344,1.344,0,0,1-.906-.824,35.817,35.817,0,0,1-1.352-5.763.542.542,0,0,1,.453-.639.557.557,0,0,1,.639.453,34.287,34.287,0,0,0,1.307,5.562.208.208,0,0,0,.148.134.215.215,0,0,0,.215-.045l1.767-1.433s3.149-3.045,3.2-5.451a1.983,1.983,0,0,0-.564-1.485c-1.827-1.894-5.2-1.923-6.594-1.849a8.466,8.466,0,0,1-2.443-.193,3.349,3.349,0,0,1-1.106-.4c-.743-.5-1.017-1.79-1.218-2.733a1.788,1.788,0,0,0-.1-.446,3.52,3.52,0,0,0-1.6-2.228c-.743-.483-3.943-1.656-4.456-1.285a1.092,1.092,0,0,0,.223.371,29.706,29.706,0,0,1,3.32,5.087.676.676,0,0,1,0,.691.7.7,0,0,1-.594.327h-.045a3.713,3.713,0,0,0-2.829,1.418,1.069,1.069,0,0,1-.676.386c-.594.1-2.064.082-5.2-1.032a.557.557,0,1,1,.371-1.047c3.126,1.1,4.381,1.025,4.686.98a4.872,4.872,0,0,1,3.052-1.775,28.361,28.361,0,0,0-2.9-4.329,1.782,1.782,0,0,1-.453-.973,1.055,1.055,0,0,1,.527-1.062c1.389-.824,5.325,1.121,5.614,1.307a4.664,4.664,0,0,1,2.072,2.97,3.184,3.184,0,0,0,.1.483c.126.579.386,1.79.743,2.035a2.51,2.51,0,0,0,.743.245,7.649,7.649,0,0,0,2.131.163c1.894-.1,5.391.045,7.426,2.228a3.1,3.1,0,0,1,.876,2.287c-.059,2.874-3.431,6.127-3.579,6.268l-1.8,1.485A1.389,1.389,0,0,1,117.774,133.527ZM107.377,120.784Z" transform="translate(-22.876 -26.601)"/><path class="h" d="M138.388,164.22a4.6,4.6,0,0,1-.743-.052l-1.485-.26c-2.228-.4-5.518-1-6.438-.349a.557.557,0,1,1-.639-.906c1.21-.861,3.78-.475,7.278.156l1.485.26c2.005.334,5.941-1.352,9.394-2.837,4.166-1.79,6.58-2.763,7.686-2.012s2.228,1.032,2.889.668a1.9,1.9,0,0,0,.817-1.782,5.057,5.057,0,0,0-3.03-4.225c-1.426-.743-6.045.809-9.751,2.042s-7.055,2.332-8.681,1.968a10.1,10.1,0,0,1-7.8-6.9c-.141-.46-2.228-10.575-2.636-12.624a.557.557,0,0,1,.438-.661.55.55,0,0,1,.654.431c.988,4.8,2.5,12.09,2.607,12.5a9.006,9.006,0,0,0,6.981,6.134c1.322.3,4.76-.839,8.087-1.938,4.5-1.485,8.755-2.9,10.6-1.983a6.186,6.186,0,0,1,3.646,5.2,2.971,2.971,0,0,1-1.4,2.785c-.616.334-1.961.683-4.04-.743-.654-.446-4.107,1.032-6.624,2.116C144.269,162.712,140.756,164.22,138.388,164.22Z" transform="translate(-30.289 -32.556)"/><path class="h" d="M142.457,190.356a4.456,4.456,0,0,1-3.334-1.753c-1.834-2.064-4.456-3.364-6.951-4.619a38.613,38.613,0,0,1-4.6-2.569A55.49,55.49,0,0,1,122.9,177.7c-.542-.46-1.084-.921-1.634-1.374a4.114,4.114,0,0,0-1.381-.869,1.047,1.047,0,0,0-1.1.238.542.542,0,0,1-.743.119.55.55,0,0,1-.119-.78,2.124,2.124,0,0,1,2.3-.654,5.347,5.347,0,0,1,1.782,1.084c.55.453,1.092.921,1.641,1.381a56.857,56.857,0,0,0,4.589,3.624,38.881,38.881,0,0,0,4.456,2.5c2.614,1.3,5.31,2.651,7.285,4.879a3.155,3.155,0,0,0,3.015,1.314,1.775,1.775,0,0,0,1.3-1.084,5.354,5.354,0,0,0-.616-3.29,6.364,6.364,0,0,0-2.042-2.77l-.245-.149a4.558,4.558,0,0,0-1.04-.319l-.438-.1a14.516,14.516,0,0,1-1.693-.431,13.13,13.13,0,0,1-1.909-.869,17.518,17.518,0,0,1-3.416-2.443,24.633,24.633,0,0,1-1.938-1.983l-.178-.208a43.555,43.555,0,0,1-5.874-7.79,4.76,4.76,0,0,0-1.909-2.005l-.3-.149a.557.557,0,1,1,.446-1.017c.134.052.26.119.379.178a5.941,5.941,0,0,1,2.369,2.465,42.7,42.7,0,0,0,5.726,7.582l.186.208a21.265,21.265,0,0,0,1.849,1.886,16.115,16.115,0,0,0,3.193,2.287,11.4,11.4,0,0,0,1.745.8,12.277,12.277,0,0,0,1.559.394l.453.1a5.66,5.66,0,0,1,1.292.416c.119.059.245.134.364.208a7.463,7.463,0,0,1,2.443,3.245,6.327,6.327,0,0,1,.676,4.025,2.867,2.867,0,0,1-2.109,1.886A3.282,3.282,0,0,1,142.457,190.356Z" transform="translate(-27.894 -39.745)"/><path class="h" d="M66.963,185.429a.535.535,0,0,1-.356-.126,16.905,16.905,0,0,1-6.5-13.8c.126-5.4,2.74-9.439,7.552-11.436a10.612,10.612,0,0,1,7.04-.624,7.649,7.649,0,0,1,5.072,5.109,4.946,4.946,0,0,1,.089,2.369s-.379,1.567-1.151,1.626a.7.7,0,0,1-.691-.49c-.743-1.909-2.614-3.839-5.079-3.572-2.711.29-4.634,2.9-5.451,5.057-1.671,4.381,1.077,8.28,4.656,9.869a.55.55,0,0,1,.282.743.564.564,0,0,1-.743.282c-4.73-2.1-6.936-6.847-5.243-11.28.928-2.451,3.164-5.429,6.372-5.778a6.062,6.062,0,0,1,5.889,3.5l.067-.2a3.78,3.78,0,0,0-.074-1.812,6.609,6.609,0,0,0-4.315-4.352,9.6,9.6,0,0,0-6.29.587c-4.374,1.819-6.75,5.429-6.869,10.441s1.879,9.342,6.1,12.914a.564.564,0,0,1,.059.787.542.542,0,0,1-.423.186Z" transform="translate(-12.828 -38.354)"/><path class="i" d="M124.143,148.923c1.441-2.733-4.322-3.119-5.547-3.245-3.557-.364-7.085-.743-10.619-1.255-1.1-.156-2.094-.676-3.178,0-1.285.743-1.641,3.208,0,3.416,4.456.572,8.911,1.411,13.367,1.715C119.591,149.658,123.23,150.631,124.143,148.923Z" transform="translate(-24.192 -34.448)"/><path class="b" d="M117.928,128.557a.557.557,0,0,1-.49-.245,6.684,6.684,0,0,0-1.352-.973.55.55,0,0,1-.2-.743.557.557,0,0,1,.743-.2,6.327,6.327,0,0,1,1.745,1.359.55.55,0,0,1-.483.839Z" transform="translate(-27.301 -29.855)"/><path class="h" d="M96.5,159.89s3.535,9.1,1.055,13.642c-3.475,6.372-6.825,9.6-8.473,10.85-2.584,1.968-10.954,2.272-10.062-5.235C78.987,179.146,85.827,177.661,96.5,159.89Z" transform="translate(-17.74 -38.554)"/><path class="h" d="M84.623,185.93a7.641,7.641,0,0,1-3.758-.906c-1.418-.809-3.022-2.532-2.6-6.149a.55.55,0,0,1,.438-.475c.059,0,6.773-1.76,17.125-19a.542.542,0,0,1,.52-.267.572.572,0,0,1,.475.356c.149.379,3.6,9.394,1.025,14.11-3.758,6.891-7.285,10.01-8.622,11.028A8.005,8.005,0,0,1,84.623,185.93Zm-5.287-6.557c-.178,2.228.527,3.8,2.087,4.693a7.486,7.486,0,0,0,7.129-.319c1.285-.98,4.664-3.973,8.317-10.679,1.842-3.364.119-9.565-.743-12.075-8.986,14.719-15.187,17.793-16.791,18.38Z" transform="translate(-17.545 -38.358)"/><path class="h" d="M96.873,123.567l-3.4-1.077s-.854,3.156-.861,3.208a6.936,6.936,0,0,0,4.263-2.131Z" transform="translate(-21.267 -28.863)"/><path class="h" d="M92.416,126.061a.557.557,0,0,1-.55-.661s0-.074.869-3.253a.572.572,0,0,1,.275-.342.55.55,0,0,1,.431-.045l3.4,1.077a.572.572,0,0,1,.371.379.55.55,0,0,1-.119.52,7.426,7.426,0,0,1-4.634,2.324ZM93.664,123c-.134.5-.334,1.233-.483,1.8a6.424,6.424,0,0,0,2.436-1.181Z" transform="translate(-21.073 -28.669)"/><path class="h" d="M114.05,120.721s.6.319-2.391.579c-.743.059-2.154.349-2.718.468a11.392,11.392,0,0,0-2.569.9h0a4.255,4.255,0,0,1,3.409-1.76.141.141,0,0,0,.126-.208,29.119,29.119,0,0,0-3.26-4.99,1.27,1.27,0,0,1-.327-.661c-.126-1.723,4.678.364,5.287.743a4.248,4.248,0,0,1,1.678,2.763,13.367,13.367,0,0,0,.743,2.228" transform="translate(-24.841 -26.768)"/><path class="h" d="M106.183,123.033a.542.542,0,0,1-.431-.2.557.557,0,0,1,0-.7,4.894,4.894,0,0,1,3.186-1.931,28,28,0,0,0-2.9-4.329,1.745,1.745,0,0,1-.446-.973,1.062,1.062,0,0,1,.52-1.062c1.389-.824,5.332,1.121,5.622,1.307a4.812,4.812,0,0,1,1.916,3.037,12.134,12.134,0,0,0,.668,2,.653.653,0,0,1,.149.542c-.1.483-.55.743-2.97.943-.743.059-2.228.364-2.644.453a10.717,10.717,0,0,0-2.436.854A.624.624,0,0,1,106.183,123.033Zm7.426-2.02Zm-6.587-6.29a.572.572,0,0,0-.334.074,1.226,1.226,0,0,0,.223.371,29.912,29.912,0,0,1,3.327,5.087.668.668,0,0,1,.059.46c.423-.074.839-.134,1.144-.163a13.637,13.637,0,0,0,1.738-.223,17.992,17.992,0,0,1-.594-1.857,3.713,3.713,0,0,0-1.485-2.391,12.543,12.543,0,0,0-4.1-1.359Z" transform="translate(-24.654 -26.578)"/><path class="b" d="M114.452,130.938a.572.572,0,0,1-.223-.045,2.124,2.124,0,0,0-1-.215.557.557,0,1,1-.379-1.047,2.844,2.844,0,0,1,1.827.245.557.557,0,0,1-.223,1.062Z" transform="translate(-26.429 -30.694)"/><path class="b" d="M123.4,138.365a1.232,1.232,0,0,1-.364-.052,1.3,1.3,0,0,1-.9-.824,35.312,35.312,0,0,1-1.359-5.755.557.557,0,0,1,.453-.646.564.564,0,0,1,.646.453,33.344,33.344,0,0,0,1.3,5.562.23.23,0,0,0,.156.141.26.26,0,0,0,.215-.045l.921-.609a21.272,21.272,0,0,0,1.938-1.53,19.605,19.605,0,0,0,2.621-2.918.559.559,0,0,1,.884.683,19.636,19.636,0,0,1-4.834,4.693l-.876.579a1.27,1.27,0,0,1-.8.267Z" transform="translate(-28.607 -31.087)"/><path d="M122.12,148.7a16.424,16.424,0,0,1-2.451-.26c-.312-.052-.579-.1-.795-.119-2.629-.208-5.295-.624-7.864-1.017-1.307-.2-2.614-.4-3.914-.572a1.641,1.641,0,0,1-1.485-1.359,2.354,2.354,0,0,1,1.2-2.4,3.349,3.349,0,0,1,2.488-.111c.215.045.423.1.646.126,3.119.483,6.268.839,9.312,1.181h.208c2.094.223,4.582.639,5.2,1.909a1.574,1.574,0,0,1-.1,1.567A2.5,2.5,0,0,1,122.12,148.7Zm-14.065-4.909a1.485,1.485,0,0,0-.743.171,1.248,1.248,0,0,0-.616,1.21.527.527,0,0,0,.52.453c1.307.178,2.621.379,3.928.579,2.562.394,5.2.795,7.8,1.01a5.479,5.479,0,0,1,.861.126c1.1.171,3.371.542,3.81-.223h0c.171-.312.1-.453.074-.512-.215-.408-1.136-.965-4.367-1.307h-.208c-3.06-.342-6.216-.743-9.364-1.181-.245-.037-.483-.1-.743-.149a4.856,4.856,0,0,0-.958-.178Z" transform="translate(-24.68 -34.084)"/><path class="i" d="M130.21,150.045s5.941-1.01,8.169,6.594C138.356,156.639,130.121,156.684,130.21,150.045Z" transform="translate(-31.062 -35.978)"/><path class="i" d="M140.991,140.454s-5.763-1.767-8.911,5.488C132.065,145.942,140.227,147.019,140.991,140.454Z" transform="translate(-31.551 -33.46)"/><path d="M137.882,154.82c-.208,0-4.018,0-6.26-2.3a5.577,5.577,0,0,1-1.574-4.159v-.46l.46-.082c.052,0,5.822-.906,7.909,6.29l.208.705Zm-6.684-5.941a4.367,4.367,0,0,0,1.24,2.852,8.052,8.052,0,0,0,4.693,1.923c-1.619-4.4-4.775-4.782-5.963-4.775Z" transform="translate(-31.019 -35.405)"/><path d="M131.263,146.429h-.743l.208-.743c2.087-7.2,7.849-6.3,7.909-6.29l.453.082v.46a5.57,5.57,0,0,1-1.574,4.159C135.28,146.392,131.463,146.429,131.263,146.429Zm6.617-5.941c-1.262,0-4.285.475-5.837,4.775a8,8,0,0,0,4.693-1.923,4.322,4.322,0,0,0,1.233-2.852Z" transform="translate(-31.144 -33.227)"/><path class="j" d="M105.309,192.043s4.181-15.127,10.293-8.124-5.993,15.454-5.993,15.454S104.344,201.043,105.309,192.043Z" transform="translate(-24.559 -44.281)"/><path class="e" d="M12,245.37v16.687c12.624-1.99,22.316-11.54,26.148-21.825.661-1.79,3.55-21.373,3.186-21.291C26.355,222.3,14.228,231.609,12,245.37" transform="translate(-0.288 -53.865)"/><path d="M13.515,261.97a.557.557,0,0,1-.1-1.107c10.085-1.753,18.989-9.929,22.68-20.793.535-1.582,2.517-16.5,2.792-19.791-13.8,3.617-23.021,12.929-24.826,25.026a.564.564,0,0,1-.631.475.557.557,0,0,1-.468-.631c1.864-12.788,11.718-22.568,26.348-26.155a.572.572,0,0,1,.55.163c.215.238.379.416-.951,10.256-.609,4.456-1.433,10.01-1.76,10.983-3.817,11.273-13.025,19.746-23.541,21.566Z" transform="translate(-0.533 -53.875)"/><path d="M13.518,259.665a.579.579,0,0,1-.3-.089.564.564,0,0,1-.163-.743l24.061-36.7c-9.5,8.911-22.954,34.472-23.1,34.754a.558.558,0,0,1-.988-.52c.668-1.277,16.471-31.316,26.125-37.257a.557.557,0,0,1,.743.743l-25.91,39.559A.549.549,0,0,1,13.518,259.665Z" transform="translate(-0.536 -53.895)"/><path d="M38.807,234.406a.55.55,0,0,1-.55-.475.557.557,0,0,1,.468-.631l6.008-.891a.564.564,0,0,1,.631.475.557.557,0,0,1-.468.631l-6.008.891Z" transform="translate(-7.124 -57.33)"/><path d="M37.1,237.239a.557.557,0,0,1-.557-.52.55.55,0,0,1,.52-.587l6.617-.423a.55.55,0,0,1,.587.52.557.557,0,0,1-.52.594l-6.609.416Z" transform="translate(-6.604 -58.181)"/><path d="M34.188,241.951a.557.557,0,0,1-.052-1.107l8.34-.847a.557.557,0,1,1,.111,1.107l-8.34.824Z" transform="translate(-5.864 -59.283)"/><path d="M39.825,250.444H28.537a.557.557,0,1,1,0-1.114H39.825a.557.557,0,1,1,0,1.114Z" transform="translate(-4.401 -61.687)"/><path d="M37.986,254.039h0l-11.637-.245a.564.564,0,0,1-.55-.572.557.557,0,0,1,.572-.542l11.637.245a.557.557,0,0,1,0,1.114Z" transform="translate(-3.84 -62.549)"/><path d="M34.581,259.69h0l-11.466-.356a.55.55,0,0,1-.535-.572.579.579,0,0,1,.572-.542l11.466.356a.557.557,0,1,1,0,1.114Z" transform="translate(-3.011 -63.975)"/><path d="M32.119,244.7a.55.55,0,0,1-.55-.512.542.542,0,0,1,.5-.594l9.877-.795a.579.579,0,0,1,.6.512.564.564,0,0,1-.512.6l-9.877.787Z" transform="translate(-5.324 -60.006)"/><path d="M31.341,236.216a.55.55,0,0,1-.527-.394l-2.228-7.248a.557.557,0,1,1,1.062-.319l2.228,7.241a.557.557,0,0,1-.371.7A.579.579,0,0,1,31.341,236.216Z" transform="translate(-4.547 -56.147)"/><path d="M28.3,239.337a.564.564,0,0,1-.535-.379l-2.48-7.582a.559.559,0,0,1,1.062-.349l2.48,7.582a.564.564,0,0,1-.356.705Z" transform="translate(-3.699 -56.877)"/><path d="M25.908,243.864a.594.594,0,0,1-.3-.082.557.557,0,0,1-.223-.683c0-.743-1.485-4.589-2.926-7.812a.558.558,0,1,1,1.017-.46c3.5,7.82,3.06,8.518,2.9,8.778a.542.542,0,0,1-.468.26ZM25.389,243.121ZM25.433,243.01Z" transform="translate(-2.968 -57.869)"/><path d="M23.967,246.506a.564.564,0,0,1-.527-.386l-3.074-9.387a.557.557,0,1,1,1.055-.349l3.119,9.387a.564.564,0,0,1-.356.743A.742.742,0,0,1,23.967,246.506Z" transform="translate(-2.43 -58.246)"/><path d="M20.381,252.412a.572.572,0,0,1-.542-.423l-2.644-10.441a.572.572,0,0,1,.408-.683.564.564,0,0,1,.676.408l2.644,10.441a.557.557,0,0,1-.4.676Z" transform="translate(-1.621 -59.504)"/><path d="M16.093,260.925a.564.564,0,0,1-.542-.416l-2.228-8.332a.557.557,0,0,1,.394-.683.564.564,0,0,1,.683.4l2.228,8.332a.55.55,0,0,1-.394.676.467.467,0,0,1-.141.022Z" transform="translate(-0.624 -62.239)"/><path d="M33.711,232.673a.557.557,0,0,1-.542-.431l-1.344-5.889a.557.557,0,0,1,.423-.668.564.564,0,0,1,.668.416l1.337,5.9a.564.564,0,0,1-.416.668Z" transform="translate(-5.387 -55.544)"/><path d="M30.254,265.094H18.937a.557.557,0,1,1,0-1.114H30.254a.557.557,0,1,1,0,1.114Z" transform="translate(-1.93 -65.457)"/><path d="M27.394,268.084H17a.557.557,0,1,1,0-1.114h10.4a.557.557,0,0,1,0,1.114Z" transform="translate(-1.431 -66.227)"/><path class="f" d="M48.117,220.1c1.4-1.173,1.6-2.116.683-2.807s-1.79-.1-2.488,1.6l-.743,2.74A18.009,18.009,0,0,0,48.117,220.1Z" transform="translate(-9.026 -53.302)"/><path d="M44.637,222.769a.579.579,0,0,1-.356-.126.542.542,0,0,1-.178-.572l.743-2.74c.512-1.255,1.092-1.946,1.8-2.176a1.842,1.842,0,0,1,2.347,1.641,3.146,3.146,0,0,1-1.485,2.31l-.1.074a17.957,17.957,0,0,1-2.51,1.485.527.527,0,0,1-.252.1Zm2.5-4.582a.543.543,0,0,0-.171,0c-.208.067-.624.349-1.084,1.485l-.379,1.433c.431-.26.832-.535,1.255-.817l.074-.052c.9-.743,1.032-1.21,1.025-1.418,0-.059,0-.252-.334-.5A.743.743,0,0,0,47.14,218.187Zm0,2.488Z" transform="translate(-8.64 -53.322)"/><path d="M138.88,210.85h-128v-200h128ZM13.84,207.884H135.92V13.816H13.84Z" transform="translate(0)"/><path class="b" d="M36.52,37.044a5.2,5.2,0,0,1-1.077-.542c-.327-.215-.705-.5-1.158-.847s-.891-.668-1.225-.876a3.015,3.015,0,0,0-1.047-.416,4.864,4.864,0,0,1-1.069.119,4.53,4.53,0,0,1-2.562-.7,4.315,4.315,0,0,1-1.567-1.975,7.619,7.619,0,0,1-.535-2.97,6.684,6.684,0,0,1,.646-2.97,4.879,4.879,0,0,1,1.782-2.005,4.782,4.782,0,0,1,2.562-.735,4.374,4.374,0,0,1,3.55,1.485,6.193,6.193,0,0,1,1.218,4.062A6.684,6.684,0,0,1,35.243,32a4.834,4.834,0,0,1-2.154,2.042,4.136,4.136,0,0,1,1.292.327,13.463,13.463,0,0,1,1.485.743c.624.342,1.136.587,1.485.743a3.171,3.171,0,0,0,1.188.238,4.381,4.381,0,0,0,.468,0l.178.639a1.745,1.745,0,0,1-.646.423,2.094,2.094,0,0,1-.743.141,3.624,3.624,0,0,1-1.277-.252ZM33.409,32.4a6.892,6.892,0,0,0,.832-3.713,6.5,6.5,0,0,0-.8-3.505,2.547,2.547,0,0,0-2.265-1.262,2.614,2.614,0,0,0-2.287,1.255,6.6,6.6,0,0,0-.847,3.713,6.684,6.684,0,0,0,.817,3.542,2.547,2.547,0,0,0,2.272,1.307,2.584,2.584,0,0,0,2.28-1.337Z" transform="translate(-3.963 -3.158)"/><path class="d" d="M161.55,21.52l-6.49,7.292,6.49,7.292,6.49-7.292Z" transform="translate(-37.582 -2.746)"/></g></svg>