<svg xmlns="http://www.w3.org/2000/svg" width="128" height="200" viewBox="0 0 128 200"><defs><style>.a{fill:#fff;}.b{fill:#170000;}.c{fill:#da003a;}.d{fill:#4fad28;}.e{fill:#231815;}.f{fill:#c21823;}.g{fill:#ffb4c0;}</style></defs><rect class="a" width="125.031" height="197.031" transform="translate(1.484 1.484)"/><path d="M138.88,210.85h-128v-200h128ZM13.84,207.884H135.92V13.816H13.84Z" transform="translate(-10.88 -10.85)"/><path class="b" d="M28.549,27.242a7.785,7.785,0,0,1-.987.282c-.445.111-.809.186-1.084.23l-.148-.839a6.829,6.829,0,0,0,1.551-.549,6.272,6.272,0,0,0,1.336-.846h0l.913.148v8.372l1.841.134v.742H26.627v-.742l1.922-.134Z" transform="translate(-14.863 -14.632)"/><path class="b" d="M36.56,33.745a5.685,5.685,0,0,1-.943-3.414,5.745,5.745,0,0,1,.534-2.553A3.956,3.956,0,0,1,37.637,26.1a3.711,3.711,0,0,1,1.974-.564,3.229,3.229,0,0,1,2.828,1.239,5.76,5.76,0,0,1,.9,3.407,6.034,6.034,0,0,1-.52,2.553,4.075,4.075,0,0,1-1.41,1.722,3.518,3.518,0,0,1-2.019.609,3.273,3.273,0,0,1-2.828-1.321ZM41.7,30.331a7.222,7.222,0,0,0-.5-2.969,1.737,1.737,0,0,0-1.677-1.039,1.811,1.811,0,0,0-1.7.987,5.938,5.938,0,0,0-.549,2.843,7.2,7.2,0,0,0,.527,3.028,1.759,1.759,0,0,0,1.677,1.143Q41.7,34.309,41.7,30.331Z" transform="translate(-17.255 -14.633)"/><path class="c" d="M164.8,23.048a3.05,3.05,0,0,0-2.672,1.291,3.021,3.021,0,0,0-2.657-1.291,3.57,3.57,0,0,0-3.711,3.77,5.01,5.01,0,0,0,.742,2.716,12.907,12.907,0,0,0,3.192,3.132c.623.475,1.2.883,1.581,1.136.742.482.742.49.831.49h0c.082,0,.134,0,.824-.49.379-.252.957-.653,1.581-1.128a12.84,12.84,0,0,0,3.2-3.14,4.988,4.988,0,0,0,.742-2.716,3.57,3.57,0,0,0-3.652-3.77Z" transform="translate(-48.629 -13.993)"/><path class="d" d="M84.782,104.981c4.453,1.87,6.45,7.1,6.45,7.1s-5.2,2.227-9.589.349-6.442-7.1-6.442-7.1S80.358,103.118,84.782,104.981Z" transform="translate(-27.632 -34.995)"/><path class="e" d="M86.7,112.517a9.159,9.159,0,0,1-3.563-.675c-3.9-1.64-5.656-6.1-5.73-6.294a.386.386,0,0,1,.2-.475c.186-.082,4.609-1.937,8.506-.3s5.648,6.1,5.722,6.294a.371.371,0,0,1-.2.475,13.82,13.82,0,0,1-4.936.972Zm-8.446-6.9c.482,1.054,2.167,4.268,5.2,5.537s6.48.23,7.578-.163c-.49-1.054-2.175-4.275-5.2-5.537S79.325,105.228,78.249,105.622Z" transform="translate(-28.198 -34.96)"/><path class="e" d="M91.471,111.907a.319.319,0,0,1-.141,0L77.6,106.118a.371.371,0,1,1,.282-.683l13.738,5.789a.379.379,0,0,1,.2.482.386.386,0,0,1-.349.2Z" transform="translate(-28.186 -35.293)"/><path class="d" d="M101.423,97.711c-3.229,3.555-2.858,9.159-2.858,9.159s5.611-.163,8.84-3.711S110.263,94,110.263,94,104.652,94.141,101.423,97.711Z" transform="translate(-33.705 -32.35)"/><path class="e" d="M98.338,106.519a.371.371,0,0,1-.371-.349c0-.2-.3-4.988,2.538-8.12s7.637-3.3,7.838-3.31a.379.379,0,0,1,.379.349c0,.2.3,5-2.538,8.12s-7.637,3.3-7.838,3.31Zm9.649-11.007c-1.158.1-4.75.631-6.94,3.043s-2.316,6.027-2.316,7.192c1.158-.1,4.75-.623,6.94-3.036s2.323-6.034,2.323-7.2Z" transform="translate(-33.549 -32.541)"/><path class="e" d="M98.34,106.526a.371.371,0,0,1-.275-.623l10.012-11.029a.379.379,0,0,1,.527,0,.371.371,0,0,1,0,.527l-9.99,11.007A.371.371,0,0,1,98.34,106.526Z" transform="translate(-33.551 -32.548)"/><path class="c" d="M91.31,103.447a3.615,3.615,0,0,0,2.9-2.019,3.629,3.629,0,0,0,3.384,1.024,4.268,4.268,0,0,0,3.644-5.144,6.034,6.034,0,0,0-1.381-3.058,15.237,15.237,0,0,0-4.349-3.1c-.824-.445-1.581-.816-2.071-1.047-.943-.438-.98-.438-1.076-.423h0c-.1,0-.156.052-.883.742-.393.371-1,.95-1.655,1.625a15.334,15.334,0,0,0-3.184,4.3,5.975,5.975,0,0,0-.364,3.34,4.268,4.268,0,0,0,5.032,3.756Z" transform="translate(-30.491 -31.232)"/><path class="e" d="M88.749,103.378A4.587,4.587,0,0,1,84.1,99.237a6.257,6.257,0,0,1,.386-3.533,15.676,15.676,0,0,1,3.229-4.416c.661-.683,1.269-1.269,1.67-1.648.742-.742.861-.787,1.084-.824s.356,0,1.306.453c.5.23,1.262.6,2.093,1.054a15.586,15.586,0,0,1,4.453,3.192A6.272,6.272,0,0,1,99.8,96.75a4.617,4.617,0,0,1-3.926,5.559,4.052,4.052,0,0,1-3.347-.794,4.03,4.03,0,0,1-2.969,1.789h0A5.137,5.137,0,0,1,88.749,103.378ZM90.59,89.544s-.416.4-.675.646c-.386.364-.995.943-1.64,1.611a14.919,14.919,0,0,0-3.1,4.179,5.641,5.641,0,0,0-.349,3.147,4.082,4.082,0,0,0,1.759,2.9,4.231,4.231,0,0,0,2.872.557h0a3.273,3.273,0,0,0,2.627-1.818.364.364,0,0,1,.282-.2.356.356,0,0,1,.327.111,3.281,3.281,0,0,0,3.05.891,3.919,3.919,0,0,0,3.34-4.72,5.626,5.626,0,0,0-1.306-2.88,14.845,14.845,0,0,0-4.231-3.013c-.824-.445-1.573-.809-2.056-1.032C91.183,89.8,90.679,89.566,90.59,89.544Z" transform="translate(-29.922 -31.007)"/><path class="d" d="M67.386,62.426C70.7,65.892,70.473,71.5,70.473,71.5s-5.611,0-8.907-3.5-3.088-9.077-3.088-9.077S64.061,58.982,67.386,62.426Z" transform="translate(-23.272 -23.282)"/><path class="e" d="M71.012,71.159h0c-.2,0-5-.052-7.919-3.11S60.331,60.2,60.339,60a.371.371,0,0,1,.371-.356h0c.208,0,5,.059,7.927,3.11S71.39,70.6,71.383,70.8A.371.371,0,0,1,71.012,71.159ZM61.081,60.4c0,1.158.3,4.78,2.546,7.133s5.856,2.783,7.014,2.865c0-1.165-.289-4.787-2.546-7.14h0C65.846,60.909,62.246,60.479,61.081,60.4Z" transform="translate(-23.755 -23.465)"/><path class="e" d="M71.011,71.157a.356.356,0,0,1-.267-.119l-10.3-10.769a.371.371,0,0,1,0-.527.364.364,0,0,1,.52,0L71.278,70.526a.371.371,0,0,1,0,.527A.4.4,0,0,1,71.011,71.157Z" transform="translate(-23.754 -23.463)"/><path class="d" d="M83.924,63.284c-4.379,1.982-6.264,7.266-6.264,7.266s5.2,2.078,9.589.1S93.5,63.388,93.5,63.388,88.3,61.31,83.924,63.284Z" transform="translate(-28.272 -24.187)"/><path class="e" d="M82.439,70.868a13.679,13.679,0,0,1-4.661-.854.371.371,0,0,1-.215-.468c.074-.193,1.715-4.7,5.567-6.435h0c3.845-1.744,8.313,0,8.506.074a.371.371,0,0,1,.208.468c-.067.193-1.707,4.7-5.559,6.442a9.248,9.248,0,0,1-3.845.772ZM78.4,69.45c1.106.364,4.609,1.314,7.578,0s4.572-4.6,5.025-5.67c-1.1-.356-4.609-1.306-7.571.037h0C80.457,65.131,78.862,68.381,78.4,69.45Zm4.876-6Z" transform="translate(-28.239 -24.163)"/><path class="e" d="M77.92,70.326a.373.373,0,0,1-.156-.713l13.582-6.138a.371.371,0,1,1,.3.675L78.068,70.3a.356.356,0,0,1-.148.03Z" transform="translate(-28.24 -24.445)"/><path class="c" d="M72.7,64.117a3.629,3.629,0,0,0,3.466-.7,3.637,3.637,0,0,0,2.694,2.286,4.275,4.275,0,0,0,5.388-3.273,5.938,5.938,0,0,0-.052-3.355A15.223,15.223,0,0,0,81.45,54.5c-.586-.742-1.136-1.373-1.484-1.781-.69-.742-.742-.787-.824-.816h0a4.057,4.057,0,0,0-1.1.319c-.512.178-1.3.468-2.167.831a15.178,15.178,0,0,0-4.631,2.687,5.938,5.938,0,0,0-1.685,2.917,4.268,4.268,0,0,0,3.14,5.463Z" transform="translate(-26.109 -21.464)"/><path class="e" d="M78.568,65.094a5.107,5.107,0,0,1-1.3-.148,4.023,4.023,0,0,1-2.716-2.078,4.067,4.067,0,0,1-3.414.475h0A4.624,4.624,0,0,1,67.732,57.4a6.272,6.272,0,0,1,1.759-3.088,15.408,15.408,0,0,1,4.72-2.731c.883-.371,1.677-.661,2.19-.846.972-.341,1.1-.379,1.321-.327s.319.156,1.017.935c.52.594,1.039,1.217,1.484,1.8a15.505,15.505,0,0,1,2.82,4.706,6.3,6.3,0,0,1,.052,3.555A4.557,4.557,0,0,1,78.568,65.094Zm-3.9-3.177h.089a.379.379,0,0,1,.26.238A3.258,3.258,0,0,0,77.455,64.2a3.911,3.911,0,0,0,4.936-2.969,5.589,5.589,0,0,0-.045-3.162A15.067,15.067,0,0,0,79.66,53.62c-.453-.572-.965-1.18-1.484-1.766-.223-.245-.586-.661-.668-.742s-.557.215-.868.327c-.5.178-1.284.46-2.145.824a14.844,14.844,0,0,0-4.513,2.605,5.589,5.589,0,0,0-1.566,2.746,3.9,3.9,0,0,0,2.872,5.01,3.258,3.258,0,0,0,3.14-.646A.371.371,0,0,1,74.672,61.918Z" transform="translate(-25.628 -21.044)"/><path class="d" d="M117.129,91.861c4.453,1.87,6.442,7.1,6.442,7.1s-5.158,2.227-9.582.349-6.45-7.1-6.45-7.1S112.7,90,117.129,91.861Z" transform="translate(-36.055 -31.603)"/><path class="e" d="M119.036,99.4a9.159,9.159,0,0,1-3.563-.675c-3.9-1.64-5.656-6.1-5.722-6.294a.371.371,0,0,1,.2-.475c.186-.082,4.609-1.937,8.5-.3h0c3.9,1.64,5.656,6.108,5.722,6.294a.371.371,0,0,1-.2.475,13.642,13.642,0,0,1-4.936.972Zm-8.446-6.917c.482,1.061,2.167,4.275,5.2,5.537s6.472.223,7.571-.163c-.482-1.054-2.167-4.268-5.2-5.537h0C115.162,91.077,111.681,92.116,110.59,92.479Z" transform="translate(-36.621 -31.568)"/><path class="e" d="M123.822,98.782a.356.356,0,0,1-.148,0L109.92,92.963a.364.364,0,0,1-.2-.482.379.379,0,0,1,.49-.2L123.94,98.07a.378.378,0,0,1-.141.742Z" transform="translate(-36.611 -31.896)"/><path class="d" d="M133.765,84.571c-3.229,3.563-2.85,9.159-2.85,9.159s5.6-.163,8.832-3.711,2.858-9.159,2.858-9.159S136.994,81.016,133.765,84.571Z" transform="translate(-42.128 -28.952)"/><path class="e" d="M130.678,93.4a.371.371,0,0,1-.371-.349c0-.2-.3-4.988,2.538-8.12s7.637-3.3,7.838-3.31a.386.386,0,0,1,.386.349c0,.2.3,5-2.546,8.12s-7.63,3.3-7.838,3.31Zm9.649-11.007c-1.158.1-4.75.631-6.94,3.043s-2.36,6.034-2.36,7.2c1.158-.111,4.75-.631,6.94-3.043s2.375-6.034,2.368-7.2Z" transform="translate(-41.968 -29.149)"/><path class="e" d="M130.684,93.4a.371.371,0,0,1-.252-.1.364.364,0,0,1,0-.52l10.02-11.037a.364.364,0,0,1,.52,0,.379.379,0,0,1,0,.527l-10.02,11.037A.371.371,0,0,1,130.684,93.4Z" transform="translate(-41.974 -29.154)"/><path class="c" d="M123.661,90.327a3.629,3.629,0,0,0,2.909-2.019,3.607,3.607,0,0,0,3.377,1.024,4.26,4.26,0,0,0,3.644-5.136,5.938,5.938,0,0,0-1.343-3.065,15.29,15.29,0,0,0-4.342-3.1c-.831-.445-1.588-.816-2.078-1.039-.943-.445-.972-.445-1.076-.43h0c-.1,0-.163.052-.883.742-.4.371-1.009.95-1.655,1.625a15.037,15.037,0,0,0-3.184,4.3,5.938,5.938,0,0,0-.371,3.34,4.268,4.268,0,0,0,5,3.756Z" transform="translate(-38.924 -27.839)"/><path class="e" d="M121.091,90.251a4.587,4.587,0,0,1-4.654-4.134,6.309,6.309,0,0,1,.393-3.526,15.49,15.49,0,0,1,3.266-4.453c.661-.7,1.277-1.277,1.67-1.648.742-.7.854-.787,1.076-.824s.356,0,1.306.453c.5.23,1.262.6,2.093,1.054a15.586,15.586,0,0,1,4.453,3.192,6.412,6.412,0,0,1,1.484,3.243,4.772,4.772,0,0,1-.935,3.882,4.854,4.854,0,0,1-3.021,1.677,4.052,4.052,0,0,1-3.347-.794,4.015,4.015,0,0,1-2.969,1.789h0a5.134,5.134,0,0,1-.816.089Zm1.841-13.835s-.423.416-.668.646c-.386.356-.987.928-1.64,1.611a14.933,14.933,0,0,0-3.11,4.179A5.567,5.567,0,0,0,117.172,86a4.038,4.038,0,0,0,1.752,2.9,4.245,4.245,0,0,0,2.88.557h0a3.3,3.3,0,0,0,2.627-1.811.371.371,0,0,1,.6-.1,3.281,3.281,0,0,0,3.05.913,4.2,4.2,0,0,0,2.561-1.418,4.067,4.067,0,0,0,.742-3.3,5.567,5.567,0,0,0-1.306-2.88,14.644,14.644,0,0,0-4.231-3.013c-.824-.445-1.573-.809-2.056-1.032A6.268,6.268,0,0,0,122.931,76.416Z" transform="translate(-38.347 -27.607)"/><path class="d" d="M47.979,107.513c4.379,1.982,6.264,7.266,6.264,7.266s-5.2,2.078-9.589.1-6.264-7.266-6.264-7.266S43.608,105.531,47.979,107.513Z" transform="translate(-18.045 -35.621)"/><path class="e" d="M50,115.107a9.367,9.367,0,0,1-3.845-.742c-3.852-1.744-5.492-6.249-5.559-6.442a.371.371,0,0,1,.208-.468c.193-.074,4.661-1.818,8.513-.082s5.485,6.249,5.559,6.442a.371.371,0,0,1-.215.468,13.731,13.731,0,0,1-4.661.824Zm-8.565-7.118c.453,1.069,2.056,4.327,5.025,5.67s6.472.393,7.578,0c-.46-1.069-2.063-4.327-5.032-5.67S42.53,107.641,41.431,107.99Z" transform="translate(-18.612 -35.608)"/><path class="e" d="M54.515,114.623a.393.393,0,0,1-.148,0l-13.582-6.138A.371.371,0,0,1,40.6,108a.379.379,0,0,1,.49-.186l13.582,6.071a.379.379,0,0,1,.186.49.364.364,0,0,1-.341.252Z" transform="translate(-18.611 -35.91)"/><path class="c" d="M59.888,101.5a5.975,5.975,0,0,0-1.663-2.917,15.29,15.29,0,0,0-4.631-2.679c-.876-.364-1.663-.653-2.167-.839-.935-.327-1.009-.341-1.106-.319h0c-.1,0-.134,0-.816.816-.356.4-.905,1.039-1.484,1.781a15.267,15.267,0,0,0-2.754,4.572,5.938,5.938,0,0,0-.052,3.362,4.268,4.268,0,0,0,5.388,3.266,3.607,3.607,0,0,0,2.694-2.286,3.629,3.629,0,0,0,3.474.7,4.268,4.268,0,0,0,3.117-5.455Z" transform="translate(-19.765 -32.542)"/><path class="e" d="M50.621,107.964a4.728,4.728,0,0,1-2.145-.5,4.787,4.787,0,0,1-2.4-3.2,6.3,6.3,0,0,1,.059-3.555,15.5,15.5,0,0,1,2.8-4.661c.594-.742,1.15-1.4,1.484-1.8.742-.816.787-.876,1-.935s.349,0,1.336.327c.512.186,1.314.475,2.182.846a15.319,15.319,0,0,1,4.75,2.761,6.309,6.309,0,0,1,1.766,3.088h0a4.624,4.624,0,0,1-3.414,5.938,4.052,4.052,0,0,1-3.407-.475,4.052,4.052,0,0,1-2.731,2,5.137,5.137,0,0,1-1.277.163ZM51.608,94c0,.037-.386.453-.6.742-.356.4-.9,1.024-1.484,1.766a14.725,14.725,0,0,0-2.687,4.453,5.656,5.656,0,0,0-.052,3.162,4.067,4.067,0,0,0,2.026,2.724,4.156,4.156,0,0,0,2.909.282,3.281,3.281,0,0,0,2.442-2.056.356.356,0,0,1,.252-.23.386.386,0,0,1,.341.082,3.266,3.266,0,0,0,3.125.616A3.911,3.911,0,0,0,60.8,100.5a5.671,5.671,0,0,0-1.566-2.754,14.919,14.919,0,0,0-4.513-2.6c-.861-.356-1.64-.646-2.152-.831A9.713,9.713,0,0,0,51.608,94Z" transform="translate(-19.986 -32.168)"/><path class="d" d="M61.676,104.676c-3.318,3.466-3.088,9.077-3.088,9.077s5.611,0,8.907-3.5,3.1-9.077,3.1-9.077S65,101.2,61.676,104.676Z" transform="translate(-23.3 -34.206)"/><path class="e" d="M58.381,113.409a.379.379,0,0,1-.371-.356c0-.208-.163-5,2.754-8.053s7.719-3.1,7.919-3.11h0a.371.371,0,0,1,.371.356c0,.208.171,5-2.746,8.053s-7.719,3.11-7.919,3.11Zm9.931-10.755c-1.158.074-4.765.5-7.014,2.858s-2.516,5.938-2.546,7.133c1.165-.074,4.765-.5,7.021-2.858s2.516-5.975,2.538-7.133Z" transform="translate(-23.149 -34.39)"/><path class="e" d="M58.384,113.4a.379.379,0,0,1-.252-.1.371.371,0,0,1,0-.527L68.4,102a.371.371,0,1,1,.534.512L58.659,113.285a.364.364,0,0,1-.275.119Z" transform="translate(-23.153 -34.384)"/><path class="e" d="M143.554,166.543l-.163-3.563-3.31.3A6.917,6.917,0,0,0,143.554,166.543Z" transform="translate(-44.495 -50.18)"/><path class="e" d="M143.358,166.908a.557.557,0,0,1-.193-.037,7.422,7.422,0,0,1-3.785-3.54.557.557,0,0,1,0-.5.549.549,0,0,1,.393-.289l3.355-.3a.542.542,0,0,1,.416.134.549.549,0,0,1,.186.393l.171,3.555a.557.557,0,0,1-.23.482.572.572,0,0,1-.312.1Zm-2.546-3.34a6.562,6.562,0,0,0,1.945,1.878l-.1-2.049Z" transform="translate(-44.301 -49.989)"/><path class="b" d="M68.387,214.706a24.575,24.575,0,0,1-14.362-4.349C41.363,201.48,41.63,199.7,41.964,197.672v-.2c.163-1.188.905-2.583,2.152-2.813s2.479.742,3.667,2.828c1.93,3.444,4.179,3.125,4.832,2.969a25.184,25.184,0,0,1,3.2-5.047c2.8-3.37,5.789-4.587,8.669-3.525a25.709,25.709,0,0,1,7.036,4.1,26.555,26.555,0,0,1,2.086,2.019,14.266,14.266,0,0,0,3.154,2.761.557.557,0,0,1,.319.742.564.564,0,0,1-.742.319,13.919,13.919,0,0,1-3.548-3.028,25.092,25.092,0,0,0-1.989-1.922,24.359,24.359,0,0,0-6.68-3.963c-2.42-.9-4.913.178-7.422,3.192a25.049,25.049,0,0,0-3.14,5.01.549.549,0,0,1-.282.282s-3.711,1.559-6.435-3.347c-.883-1.588-1.8-2.42-2.486-2.286s-1.143,1.047-1.254,1.878l-.045.252c-.23,1.536-.475,3.125,11.623,11.608,12.5,8.766,28.018.92,28.2.839a.564.564,0,0,1,.245-.059,39.028,39.028,0,0,0,32.739-18.667.512.512,0,0,1,.5-.3,5.871,5.871,0,0,0,3.169-1.21.564.564,0,0,1,.52-.1,5.849,5.849,0,0,1,3.192,3.488,12.617,12.617,0,0,1,.512,3.867,8.321,8.321,0,0,0,.282,2.449,1.619,1.619,0,0,0,.468-.312,24.939,24.939,0,0,0,3.971-4.453,3.934,3.934,0,0,0,.082-3.132c-1.106-2.768-5-4.453-5.032-4.453a.549.549,0,0,1-.26-.794,22.951,22.951,0,0,0,1.774-3.481,22.015,22.015,0,0,0,.393-5.158.557.557,0,0,1,.156-.423.542.542,0,0,1,.423-.171,14.783,14.783,0,0,0,6.376-2.063,8.491,8.491,0,0,0,4.2-4.72c-1.885-1.1-6.123-3.229-8.008-2.665-2.026.616-4.372,4.149-5.106,5.463a.549.549,0,0,1-.43.282.542.542,0,0,1-.475-.186c-1.618-1.826-3.711-.319-3.822-.26a.564.564,0,0,1-.579.052.557.557,0,0,1-.312-.482l-.341-9.753a6.651,6.651,0,0,0-6.724,2.687,8.12,8.12,0,0,0-1.648,3.711,13.677,13.677,0,0,0-.1,2.086,11.259,11.259,0,0,1-.282,2.872c-1.054,4.275-2.828,4.535-5.4,4.453s-7.719-4.231-8.291-4.7h0a.341.341,0,0,1-.052-.052.549.549,0,0,1,0-.742.534.534,0,0,1,.408-.178h0c.193-.1.995-.579,3.384-3.073a1.484,1.484,0,0,0,.475-1.2c-.111-1.789-2.969-4.342-5.2-6.116-4.2-3.429-8.342-3.711-9.2-2.687a2.338,2.338,0,0,0-.668,2.227c.653,2.227,5.114,3.986,6.776,4.453a.557.557,0,1,1-.312,1.069c-.275-.082-6.576-1.982-7.533-5.2a3.414,3.414,0,0,1,.891-3.3c1.484-1.737,6.4-1.017,10.755,2.546,3.8,3.1,5.463,5.2,5.574,6.91a2.642,2.642,0,0,1-.787,2.041,27.075,27.075,0,0,1-3.162,2.969c1.826,1.418,5.285,3.852,6.955,3.911,2.1.082,3.362.126,4.275-3.592a10.116,10.116,0,0,0,.2-2.613,14.563,14.563,0,0,1,.119-2.227,9.166,9.166,0,0,1,1.87-4.26A7.628,7.628,0,0,1,118,162.142l.126.037a.549.549,0,0,1,.379.512l.327,9.241a3.748,3.748,0,0,1,4.03.3c.861-1.388,3.1-4.683,5.4-5.374,2.85-.854,8.61,2.59,9.263,2.969a.549.549,0,0,1,.252.572c0,.148-.668,3.555-4.854,5.863a16.611,16.611,0,0,1-6.353,2.175,25.3,25.3,0,0,1-.43,4.869,17.762,17.762,0,0,1-1.611,3.318c1.225.616,4.052,2.271,5.062,4.8a5.017,5.017,0,0,1-.111,4.03l-.045.089a25.525,25.525,0,0,1-4.208,4.713c-.23.2-.935.809-1.633.5-.839-.364-.883-1.663-.95-3.451a11.7,11.7,0,0,0-.438-3.488,5.047,5.047,0,0,0-2.264-2.731,6.925,6.925,0,0,1-3.266,1.247c-1.4,2.375-11.734,18.555-33.4,18.956a36.591,36.591,0,0,1-14.889,3.407Zm27.358-41.4h.037Z" transform="translate(-19.269 -49.068)"/><path class="b" d="M59.65,197.663a8.45,8.45,0,0,1-6.9-3.34c-.393-.549-.809-1.1-1.232-1.648-2.739-3.592-5.856-7.674-2.427-14.659.312-.631,3.117-6.146,6-5.307a2.375,2.375,0,0,1,1.559,1.484c.668,1.685-.111,4.171-.668,5.121-.861,1.484-1.529,3.778-.972,5.455a2.724,2.724,0,0,0,1.158,1.484c.905-1.7,3.986-7.155,7.066-8.817,3.837-2.078,9.886-.445,12.529,2.345,1.9,2,2.561,5.3,2.783,7.14,1.715-1.848,5.693-5.589,10-5.737a.534.534,0,0,1,.571.542.549.549,0,0,1-.534.572c-5.1.171-9.99,6.264-10.042,6.324a.534.534,0,0,1-.609.178.542.542,0,0,1-.379-.5c0-.052-.208-5.2-2.59-7.749s-7.838-3.934-11.2-2.138-6.821,8.766-6.858,8.84a.549.549,0,0,1-.742.26,3.837,3.837,0,0,1-2.227-2.42c-.661-2.019.059-4.654,1.069-6.368a5.966,5.966,0,0,0,.594-4.149,1.247,1.247,0,0,0-.831-.794c-1.432-.408-3.607,2.516-4.691,4.728C46.959,184.875,49.6,188.341,52.4,192c.423.564.846,1.121,1.247,1.685,2.227,3.154,6.316,2.858,6.353,2.85a.559.559,0,1,1,.1,1.113S59.91,197.663,59.65,197.663Z" transform="translate(-20.469 -52.688)"/><path class="b" d="M109.8,213.159a8.7,8.7,0,0,1-5.752-2.034,2.746,2.746,0,0,1-.92-2.776c.542-1.863,2.271-2.36,3.941-2.843s3.132-.906,3.793-2.457a.542.542,0,0,1,.208-.252c-.334-.193-.668-.416-1-.646-2.9-2.056-3.243-4.735-2.286-6.479a3.347,3.347,0,0,1,4.3-1.529,15.371,15.371,0,0,1,1.484.742l.742.393a18.354,18.354,0,0,0,2.308.943l4.275,1.4a3.824,3.824,0,0,1,2.835,2.561c.646,2.516-2.056,5.448-2.175,5.574s-5.329,5.752-9.292,7.036A8.039,8.039,0,0,1,109.8,213.159Zm2.115-9.886a.527.527,0,0,1-.045.208c-.868,2.041-2.806,2.605-4.513,3.1-1.484.438-2.806.809-3.177,2.078a1.737,1.737,0,0,0,.623,1.677,7.84,7.84,0,0,0,7.118,1.388c3.711-1.195,8.766-6.68,8.817-6.732.675-.742,2.323-2.969,1.915-4.542a2.805,2.805,0,0,0-2.108-1.774l-4.275-1.41a18.033,18.033,0,0,1-2.449-1l-.742-.4c-.482-.252-.98-.512-1.4-.683a2.227,2.227,0,0,0-2.9,1.032c-.742,1.314-.393,3.377,1.952,5.032a12.291,12.291,0,0,0,2.071,1.2c3.073,1.381,4.75.245,4.817.2a.557.557,0,0,1,.653.9c-.089.067-2.227,1.581-5.938-.082Z" transform="translate(-34.897 -58.177)"/><path class="b" d="M102.032,181.551a.572.572,0,0,1-.267-.067,3.385,3.385,0,0,1-1.922-2.553c-.267-2.167,1.878-4.453,2.813-5.307a14.657,14.657,0,0,1,1.811-1.366c.512-.341,1.373-.913,1.381-1.15,0,0,0-.126-.356-.364a.564.564,0,0,1-.126-.779.557.557,0,0,1,.742-.126,1.6,1.6,0,0,1,.824,1.284c0,.816-.831,1.366-1.87,2.063a13.145,13.145,0,0,0-1.677,1.254c-.631.586-2.672,2.642-2.464,4.357a2.316,2.316,0,0,0,1.358,1.714.557.557,0,0,1,.215.742A.571.571,0,0,1,102.032,181.551Z" transform="translate(-34.027 -51.936)"/><path class="e" d="M144.747,175.876c-1.484,2.293-.742,5.6,2.575,5.448s5-.3,5-.3,9.226-.861,11.245-7.608c0,0-5.285-2.969-7.051-2.969s-4.617,1.343-7.2,5.76c0,0-1.017-1.21-2.1-1.091a10.041,10.041,0,0,0-2.472.757Z" transform="translate(-45.604 -52.116)"/><path class="e" d="M146.858,181.689A3.459,3.459,0,0,1,143.674,180a4.5,4.5,0,0,1,.356-4.624.52.52,0,0,1,.238-.2,10.2,10.2,0,0,1,2.642-.8,2.857,2.857,0,0,1,2.049.742c3.117-4.958,6.353-5.418,7.3-5.433h0c1.893,0,6.739,2.731,7.3,3.043a.557.557,0,0,1,.252.646c-2.093,7.029-11.326,7.957-11.72,7.994,0,0-1.722.156-5.025.3Zm-1.982-5.574a3.4,3.4,0,0,0-.23,3.333,2.412,2.412,0,0,0,2.4,1.121c3.281-.148,4.958-.3,4.98-.3s8.476-.868,10.614-6.791c-2.026-1.121-5.2-2.672-6.338-2.672h0c-.839,0-3.793.46-6.732,5.485a.564.564,0,0,1-.906.074c-.23-.267-.98-.965-1.618-.9a9.107,9.107,0,0,0-2.175.646Z" transform="translate(-45.392 -51.918)"/><path class="e" d="M150.45,188.086s-5.678-1.277-8.417.134-3.644,4.884-3.644,4.884-1.484,7.37-.2,9.367l6.346-4.49s3.444,1.87,3.14,4.29a9.508,9.508,0,0,0,.3,4.335c.223.868,0,2.145,3.384-1.017s3.5-5.685,1.811-7.489c-1.188-1.269-3.021-3.585-4.9-3.711.067,0,1.484-2.575,1.648-2.843A5.4,5.4,0,0,0,150.45,188.086Z" transform="translate(-43.966 -56.546)"/><path class="e" d="M148.336,207.972a1,1,0,0,1-.3-.052c-.557-.178-.668-.742-.742-1.136a1.229,1.229,0,0,0-.052-.238l-.074-.26a9.753,9.753,0,0,1-.237-4.283c.208-1.64-1.8-3.073-2.561-3.563l-6.056,4.29a.572.572,0,0,1-.423.089.557.557,0,0,1-.364-.237c-1.4-2.138-.037-9.018.126-9.79.045-.178,1-3.756,3.926-5.27s8.558-.238,8.8-.178a.557.557,0,0,1,.43.453,6.012,6.012,0,0,1-.594,3.785c-.542,1.054-.928,1.752-1.217,2.227a11.434,11.434,0,0,1,3.9,3.184l.482.534c1.217,1.3,2.6,4.1-1.826,8.268C149.732,207.489,148.908,207.972,148.336,207.972Zm-4-10.747a.572.572,0,0,1,.267.067c.156.082,3.778,2.086,3.422,4.854A8.8,8.8,0,0,0,148.24,206l.074.275.067.3a.468.468,0,0,0,.052.26,9.486,9.486,0,0,0,2.345-1.848c2.835-2.672,3.436-4.928,1.781-6.68-.156-.163-.327-.349-.5-.549-1.106-1.217-2.62-2.895-4.038-3.006h0a.557.557,0,0,1-.512-.594.527.527,0,0,1,.156-.349c.223-.327,1.388-2.4,1.551-2.709a4.75,4.75,0,0,0,.527-2.716c-1.284-.252-5.522-.943-7.66.163-2.479,1.277-3.347,4.453-3.355,4.527-.5,2.434-1.017,6.583-.512,8.38l5.8-4.1a.557.557,0,0,1,.319-.119Z" transform="translate(-43.768 -56.348)"/><path class="a" d="M151.584,183.763a.564.564,0,0,1-.542-.416,6.619,6.619,0,0,0-1.017-1.314.557.557,0,1,1,.809-.742,6.4,6.4,0,0,1,1.291,1.789.564.564,0,0,1-.4.683Z" transform="translate(-47.097 -54.848)"/><path class="a" d="M149.867,191.6a.549.549,0,0,1-.334-.111.557.557,0,0,1-.111-.779,6.954,6.954,0,0,0,.379-1.618.558.558,0,0,1,1.106.156,6.465,6.465,0,0,1-.594,2.13A.557.557,0,0,1,149.867,191.6Z" transform="translate(-46.916 -56.807)"/><path class="a" d="M146.235,191.575a.557.557,0,0,1-.549-.49,2.123,2.123,0,0,0-.334-.972.568.568,0,0,1,.742-.861,2.865,2.865,0,0,1,.742,1.692.557.557,0,0,1-.482.623Z" transform="translate(-45.811 -56.936)"/><path class="a" d="M145.7,183a.586.586,0,0,1-.341-.111.557.557,0,0,1-.1-.779,2.226,2.226,0,0,0,.445-.928.549.549,0,0,1,.49-.609.557.557,0,0,1,.616.49,2.873,2.873,0,0,1-.668,1.714A.534.534,0,0,1,145.7,183Z" transform="translate(-45.806 -54.726)"/><path class="e" d="M107.5,244.714a14.918,14.918,0,0,1-5.537-1.106c-4.743-1.93-9.575-6.68-8.981-12.484a8.444,8.444,0,0,1,.289-1.484.557.557,0,0,1,.69-.378.564.564,0,0,1,.379.7,6.917,6.917,0,0,0-.252,1.306c-.542,5.262,3.919,9.56,8.283,11.326,3.837,1.551,9.055,1.774,12.209-2.227a6.606,6.606,0,0,0,1.017-6.042,3.793,3.793,0,0,0-.987-1.536l-.171-.119a6.076,6.076,0,0,1-2.783,6.249c-3.147,1.752-7-.126-8.506-1.017-2.969-1.752-5.6-5.737-4.854-9.374a.557.557,0,0,1,.661-.43.549.549,0,0,1,.43.661c-.638,3.1,1.744,6.68,4.327,8.164,1.343.794,4.758,2.479,7.422,1,2.167-1.21,2.6-3.874,2.086-5.841a.7.7,0,0,1,.275-.8c.661-.393,1.87.653,1.878.661a4.824,4.824,0,0,1,1.291,1.989,7.615,7.615,0,0,1-1.188,7.1,9.745,9.745,0,0,1-7.979,3.689Z" transform="translate(-32.267 -67.047)"/><path class="f" d="M135.468,201.751c3.028-.6-.3-5.314-.965-6.346-1.952-2.969-3.889-5.938-5.708-9.048-.557-.95-.787-2.048-1.974-2.479-1.4-.52-3.525.742-2.635,2.175,2.353,3.808,4.453,7.793,7.073,11.467C132.032,198.663,133.568,202.115,135.468,201.751Z" transform="translate(-40.327 -55.563)"/><path d="M136.428,201.345c-1.484,0-2.657-2.019-3.436-3.384-.156-.267-.289-.5-.408-.683-1.484-2.175-2.843-4.5-4.149-6.747-.668-1.143-1.329-2.286-2.011-3.407a1.625,1.625,0,0,1,.134-2,2.345,2.345,0,0,1,2.613-.579,3.377,3.377,0,0,1,1.648,1.863c.1.193.193.393.3.579,1.6,2.739,3.3,5.4,4.936,7.986l.111.171c1.15,1.766,2.39,3.963,1.811,5.27a1.566,1.566,0,0,1-1.277.906h0Zm-8.164-15.861a1.24,1.24,0,0,0-.9.371.527.527,0,0,0,0,.69c.683,1.128,1.351,2.271,2.019,3.422,1.306,2.227,2.65,4.542,4.119,6.68.134.2.275.453.445.742.549.957,1.715,2.969,2.561,2.813h0c.356-.059.416-.2.445-.26.186-.416.037-1.484-1.729-4.208l-.111-.186c-1.648-2.583-3.355-5.255-4.965-8.016-.126-.215-.23-.438-.341-.653-.3-.609-.534-1.091-1.091-1.329a1.061,1.061,0,0,0-.416-.067Z" transform="translate(-40.889 -55.721)"/><path class="f" d="M138.429,206.86s4.527,3.971,0,10.465C138.429,217.355,133.241,210.942,138.429,206.86Z" transform="translate(-43.468 -61.53)"/><path class="f" d="M151.941,210.264s-2.227-5.589-9.871-3.488C142.07,206.776,146.367,213.8,151.941,210.264Z" transform="translate(-45.03 -61.382)"/><path d="M139.88,216.407l-.468-.572c-.1-.126-2.5-3.132-2.145-6.316a5.574,5.574,0,0,1,2.227-3.837l.364-.282.349.3c.045.037,4.372,3.956.089,10.094Zm-.067-9.523a4.364,4.364,0,0,0-1.44,2.754,7.794,7.794,0,0,0,1.484,4.854C142.255,210.469,140.585,207.8,139.813,206.884Z" transform="translate(-43.758 -61.153)"/><path d="M147.089,209.97a4.539,4.539,0,0,1-.549,0c-3.192-.319-5.626-3.3-5.73-3.422l-.46-.572.683-.289c6.9-2.9,9.827,2.145,9.857,2.227l.223.408-.356.3a5.663,5.663,0,0,1-3.667,1.351Zm-4.876-3.54a8.106,8.106,0,0,0,4.453,2.434,4.357,4.357,0,0,0,2.969-.824C148.908,207.061,146.629,204.864,142.213,206.43Z" transform="translate(-44.585 -60.99)"/><path class="e" d="M114.58,218.34s-2.368-4.06-5.277-2.546-5.255,2.546-8.907,1.1-2.472-3.333-2.472-3.333-4.268.572-6.324,2.286-8.684,5.2-8.684,5.2-3.963.95-.95,3.2a16.767,16.767,0,0,0,5.507,2.843l5.648-2.1s7.311-.705,8.751-1.069S113.912,220.225,114.58,218.34Z" transform="translate(-29.135 -63.265)"/><path class="e" d="M87.3,227.44h-.126a17.249,17.249,0,0,1-5.715-2.969c-1.032-.742-1.484-1.544-1.321-2.308.252-1.225,1.989-1.752,2.4-1.863.646-.341,6.68-3.5,8.528-5.069,2.152-1.8,6.428-2.39,6.606-2.412a.557.557,0,0,1,.549.846,1.017,1.017,0,0,0,0,.794c.156.445.668,1.1,2.227,1.722,3.347,1.336,5.515.445,8.424-1.069,2.672-1.4,5.106,1.188,6.012,2.754a.519.519,0,0,1,.045.468c-.854,2.4-12.952,5.878-13.078,5.938-1.4.356-7.942.995-8.758,1.069l-5.581,2.078A.557.557,0,0,1,87.3,227.44Zm9.716-13.36c-1.3.252-3.845.868-5.2,2.026-2.078,1.737-8.521,5.092-8.788,5.2l-.126.052c-.616.148-1.559.572-1.648,1.017-.059.289.267.742.9,1.195a17.071,17.071,0,0,0,5.121,2.746l5.478-2.041H92.9c.074,0,7.281-.7,8.662-1.054,2.642-.668,10.97-3.57,12.18-5-.549-.8-2.36-3.11-4.372-2.063-3.088,1.611-5.559,2.627-9.352,1.121a4.623,4.623,0,0,1-2.887-2.434,2.412,2.412,0,0,1-.111-.772Z" transform="translate(-28.947 -63.073)"/><path class="g" d="M78.528,193.478s16.826-5.129,16.44,5.2-18.741,3.563-18.741,3.563S69.926,198.042,78.528,193.478Z" transform="translate(-27.327 -57.742)"/><path class="d" d="M102.164,134.664c-1.677,4.505.742,9.567.742,9.567s5.151-2.227,6.836-6.732-.742-9.56-.742-9.56S103.849,130.137,102.164,134.664Z" transform="translate(-34.486 -41.127)"/><path class="e" d="M102.294,144.154a.371.371,0,0,1-.334-.208c-.089-.186-2.123-4.527-.646-8.483h0c1.484-3.956,5.871-5.938,6.056-5.982a.379.379,0,0,1,.482.186c.089.178,2.123,4.527.646,8.483s-5.871,5.893-6.056,5.975a.334.334,0,0,1-.148.03Zm-.282-8.432c-1.143,3.05,0,6.479.475,7.563,1.032-.534,4.179-2.345,5.314-5.4s0-6.487-.475-7.563C106.294,130.853,103.147,132.672,102.011,135.722Z" transform="translate(-34.278 -41.518)"/><path class="e" d="M102.693,144.149h-.126a.364.364,0,0,1-.215-.475l5.2-13.961a.371.371,0,1,1,.69.26l-5.2,13.961a.364.364,0,0,1-.349.215Z" transform="translate(-34.677 -41.513)"/><path class="d" d="M84.953,143.069c4.8.089,8.617,4.208,8.617,4.208s-3.971,3.963-8.773,3.874-8.617-4.208-8.617-4.208S80.151,142.973,84.953,143.069Z" transform="translate(-27.889 -45.035)"/><path class="e" d="M86.125,150.152h-.148c-4.223-.082-7.511-3.577-7.652-3.711a.371.371,0,0,1,0-.512c.141-.141,3.585-3.5,7.786-3.429h0c4.223.082,7.511,3.577,7.645,3.711a.371.371,0,0,1,0,.52C93.644,146.864,90.281,150.152,86.125,150.152Zm-6.992-3.971c.846.8,3.6,3.162,6.858,3.221h.134c3.2,0,5.938-2.227,6.836-2.969-.839-.8-3.592-3.162-6.851-3.229h-.134c-3.2.015-5.982,2.219-6.843,2.976Z" transform="translate(-28.418 -44.887)"/><path class="e" d="M93.507,147.972h0l-14.9-.289a.371.371,0,0,1-.364-.379.386.386,0,0,1,.379-.364l14.9.289a.386.386,0,0,1,.364.379A.371.371,0,0,1,93.507,147.972Z" transform="translate(-28.423 -46.032)"/><path class="c" d="M97.5,133.265a5.937,5.937,0,0,0-2.679-2.026,15.089,15.089,0,0,0-5.314-.638c-.943,0-1.781.052-2.323.089-.987.059-1.061.082-1.136.141h0c-.082.067-.1.089-.43,1.076-.171.512-.423,1.314-.668,2.227a15.49,15.49,0,0,0-.742,5.292,6.019,6.019,0,0,0,1.284,3.11,4.26,4.26,0,0,0,6.235.876,3.637,3.637,0,0,0,1.581-3.162,3.6,3.6,0,0,0,3.459-.742,4.268,4.268,0,0,0,.735-6.242Z" transform="translate(-29.973 -41.807)"/><path class="e" d="M89.707,143.174h-.3a4.758,4.758,0,0,1-3.466-1.989,6.3,6.3,0,0,1-1.351-3.288,15.519,15.519,0,0,1,.742-5.433c.245-.913.5-1.722.675-2.227.341-1.032.371-1.113.557-1.254s.3-.156,1.351-.223c.542-.037,1.388-.082,2.338-.089a15.527,15.527,0,0,1,5.455.661,6.339,6.339,0,0,1,2.835,2.145h0a4.758,4.758,0,0,1,1.047,3.859,4.891,4.891,0,0,1-1.841,2.924,4.075,4.075,0,0,1-3.325.905,4.038,4.038,0,0,1-1.714,2.969A4.921,4.921,0,0,1,89.707,143.174Zm.839-13.783h-.3c-.935,0-1.766.052-2.3.082a6.014,6.014,0,0,0-.972.089c-.089.03-.178.594-.275.883-.171.512-.423,1.306-.668,2.227a15.03,15.03,0,0,0-.742,5.151,5.581,5.581,0,0,0,1.2,2.924,4.038,4.038,0,0,0,2.969,1.7,4.216,4.216,0,0,0,2.783-.92,3.281,3.281,0,0,0,1.432-2.85.386.386,0,0,1,.141-.319.349.349,0,0,1,.341-.052,3.288,3.288,0,0,0,3.117-.668,4.208,4.208,0,0,0,1.573-2.472,4.06,4.06,0,0,0-.906-3.273,5.633,5.633,0,0,0-2.524-1.908A14.414,14.414,0,0,0,90.545,129.391Z" transform="translate(-30.071 -41.309)"/><path class="d" d="M46.383,146.381c1.447,4.579-1.239,9.508-1.239,9.508s-5.025-2.5-6.472-7.081,1.247-9.508,1.247-9.508S44.943,141.8,46.383,146.381Z" transform="translate(-18.002 -44.065)"/><path class="e" d="M45.958,155.9a.341.341,0,0,1-.163-.045c-.186-.089-4.453-2.227-5.73-6.287s.995-8.261,1.091-8.439a.371.371,0,0,1,.49-.148c.186.089,4.453,2.227,5.73,6.287h0c1.269,4.03-.995,8.261-1.091,8.439A.378.378,0,0,1,45.958,155.9Zm-4.312-14.1c-.49,1.054-1.856,4.453-.876,7.526s4.023,5.084,5.025,5.671c.5-1.054,1.856-4.453.876-7.526h0c-.98-3.1-4.023-5.062-5.025-5.648Z" transform="translate(-18.375 -44.49)"/><path class="e" d="M46.464,155.9a.379.379,0,0,1-.356-.26l-4.453-14.221a.387.387,0,0,1,.742-.223l4.453,14.221a.371.371,0,0,1-.245.46A.3.3,0,0,1,46.464,155.9Z" transform="translate(-18.884 -44.483)"/><path class="d" d="M60.175,155.688c-4.8-.156-8.825,3.748-8.825,3.748s3.756,4.171,8.558,4.335,8.825-3.756,8.825-3.756S64.977,155.852,60.175,155.688Z" transform="translate(-21.422 -48.297)"/><path class="e" d="M59.654,162.716h-.267c-4.223-.141-7.459-3.711-7.593-3.837a.371.371,0,0,1,0-.512c.148-.141,3.592-3.459,7.838-3.318s7.422,3.711,7.593,3.83a.378.378,0,0,1,0,.52C67.084,159.531,63.8,162.716,59.654,162.716ZM52.6,158.648c.831.816,3.555,3.214,6.813,3.325s6.131-2.108,7.014-2.865c-.831-.809-3.555-3.206-6.814-3.318s-6.131,2.108-7.014,2.858Z" transform="translate(-21.509 -48.131)"/><path class="e" d="M66.972,160.619h0l-14.9-.5a.371.371,0,0,1-.356-.386.356.356,0,0,1,.386-.356l14.9.5a.371.371,0,1,1,0,.742Z" transform="translate(-21.516 -49.248)"/><path class="c" d="M49.606,151.587a3.629,3.629,0,0,0,3.422.906,3.629,3.629,0,0,0,1.41,3.236,4.253,4.253,0,0,0,6.272-.549,5.849,5.849,0,0,0,1.44-3.036,15.178,15.178,0,0,0-.445-5.314c-.193-.928-.408-1.737-.549-2.227-.275-1-.289-1.032-.371-1.1h0c-.074-.067-.141-.089-1.128-.2-.534-.067-1.373-.156-2.308-.215a15.267,15.267,0,0,0-5.344.364,5.938,5.938,0,0,0-2.783,1.878,4.275,4.275,0,0,0,.386,6.257Z" transform="translate(-20.557 -45.02)"/><path class="e" d="M56.439,155.578a4.95,4.95,0,0,1-3.177-1.239,4.045,4.045,0,0,1-1.559-3.065,4.052,4.052,0,0,1-3.266-1.084h0a4.624,4.624,0,0,1-.445-6.813,6.368,6.368,0,0,1,2.969-1.989,15.52,15.52,0,0,1,5.485-.379c.943.059,1.789.148,2.331.208,1.039.126,1.158.141,1.329.289s.215.245.5,1.291c.148.527.364,1.351.557,2.279a15.639,15.639,0,0,1,.453,5.463,6.309,6.309,0,0,1-1.529,3.206,4.7,4.7,0,0,1-3.644,1.833Zm-4.32-5.114a.408.408,0,0,1,.245.089.386.386,0,0,1,.126.327,3.251,3.251,0,0,0,1.277,2.917,3.919,3.919,0,0,0,5.76-.512,5.626,5.626,0,0,0,1.351-2.858,14.777,14.777,0,0,0-.445-5.2c-.193-.913-.4-1.722-.542-2.227-.089-.319-.238-.854-.282-.935s-.586-.059-.92-.1c-.534-.067-1.366-.156-2.286-.208a14.911,14.911,0,0,0-5.2.334,5.626,5.626,0,0,0-2.62,1.774,3.911,3.911,0,0,0,.364,5.767,3.273,3.273,0,0,0,3.08.831Z" transform="translate(-20.209 -44.482)"/><path class="d" d="M33.885,248.731c1.44,4.587-1.277,9.508-1.277,9.508s-5.025-2.5-6.465-7.081,1.269-9.508,1.269-9.508S32.445,244.136,33.885,248.731Z" transform="translate(-14.706 -70.544)"/><path class="e" d="M33.468,258.255a.311.311,0,0,1-.163-.037c-.186-.089-4.453-2.227-5.73-6.286s.995-8.261,1.091-8.439a.371.371,0,0,1,.49-.156c.186.089,4.453,2.264,5.73,6.287h0c1.269,4.023-.995,8.253-1.091,8.432A.364.364,0,0,1,33.468,258.255Zm-4.312-14.1c-.5,1.054-1.856,4.416-.876,7.526s4.023,5.084,5.025,5.663c.49-1.054,1.856-4.416.876-7.519h0c-.98-3.088-4.023-5.062-5.025-5.641Z" transform="translate(-15.084 -70.969)"/><path class="e" d="M33.974,258.255a.371.371,0,0,1-.356-.26l-4.453-14.213a.379.379,0,0,1,.245-.468.371.371,0,0,1,.46.245l4.453,14.213a.378.378,0,0,1-.245.468A.29.29,0,0,1,33.974,258.255Z" transform="translate(-15.589 -70.969)"/><path class="d" d="M47.685,258.048c-4.8-.163-8.825,3.748-8.825,3.748s3.756,4.171,8.558,4.327,8.825-3.748,8.825-3.748S52.487,258.2,47.685,258.048Z" transform="translate(-18.168 -74.77)"/><path class="e" d="M47.157,265.078H46.9c-4.223-.141-7.422-3.711-7.593-3.83a.371.371,0,0,1,0-.512c.148-.141,3.607-3.466,7.838-3.318s7.422,3.711,7.593,3.83a.371.371,0,0,1,0,.512C54.594,261.894,51.261,265.078,47.157,265.078Zm-7.044-4.067c.831.816,3.555,3.214,6.813,3.325s6.123-2.108,7.014-2.865c-.831-.809-3.555-3.214-6.813-3.318S41,260.254,40.113,261.011Z" transform="translate(-18.256 -74.608)"/><path class="e" d="M54.477,262.972h0l-14.9-.49a.371.371,0,1,1,0-.742h0l14.9.5a.371.371,0,0,1,0,.742Z" transform="translate(-18.258 -75.723)"/><path class="c" d="M37.116,253.942a3.659,3.659,0,0,0,3.422.913,3.615,3.615,0,0,0,1.4,3.236,4.268,4.268,0,0,0,6.279-.549,5.99,5.99,0,0,0,1.44-3.036,15.216,15.216,0,0,0-.445-5.322c-.193-.92-.408-1.737-.549-2.227-.275-1-.3-1.024-.371-1.091h0c-.074-.059-.148-.082-1.128-.2-.534-.059-1.373-.148-2.316-.208a15.275,15.275,0,0,0-5.337.356A5.982,5.982,0,0,0,36.73,247.7a4.26,4.26,0,0,0,.386,6.242Z" transform="translate(-17.24 -71.503)"/><path class="e" d="M43.934,257.918a4.9,4.9,0,0,1-3.162-1.21,4.06,4.06,0,0,1-1.559-3.073,4.038,4.038,0,0,1-3.273-1.076h0a4.631,4.631,0,0,1-.438-6.813,6.286,6.286,0,0,1,2.969-2,15.69,15.69,0,0,1,5.478-.371c.95.059,1.8.141,2.338.208,1.039.126,1.158.141,1.329.289s.215.245.5,1.291c.148.527.356,1.351.557,2.271a15.438,15.438,0,0,1,.445,5.463,6.235,6.235,0,0,1-1.484,3.214,4.78,4.78,0,0,1-3.629,1.8Zm-4.327-5.106a.386.386,0,0,1,.245.089.408.408,0,0,1,.126.327,3.251,3.251,0,0,0,1.277,2.917,4.171,4.171,0,0,0,2.739,1.032,4.023,4.023,0,0,0,3.013-1.544,5.633,5.633,0,0,0,1.358-2.858,14.844,14.844,0,0,0-.445-5.2c-.193-.906-.4-1.715-.542-2.227-.089-.319-.238-.861-.282-.943s-.586-.052-.92-.1c-.534-.059-1.358-.148-2.293-.2a14.889,14.889,0,0,0-5.2.334,5.626,5.626,0,0,0-2.62,1.774,3.911,3.911,0,0,0,.364,5.76,3.288,3.288,0,0,0,3.08.831Z" transform="translate(-16.895 -70.966)"/><path class="d" d="M163.883,240.3c-3.37,3.429-3.214,9.04-3.214,9.04s5.611.052,8.973-3.37,3.147-9.04,3.147-9.04S167.208,236.878,163.883,240.3Z" transform="translate(-49.896 -69.327)"/><path class="e" d="M160.464,248.991h0a.364.364,0,0,1-.364-.356c0-.208-.1-5,2.858-8.016h0c2.969-3.013,7.786-2.969,7.964-2.969a.371.371,0,0,1,.364.364c0,.2.1,5-2.857,8.016S160.924,248.991,160.464,248.991Zm2.969-7.853c-2.279,2.323-2.6,5.938-2.642,7.1,1.165-.059,4.772-.445,7.058-2.768s2.6-5.938,2.642-7.1C169.326,238.437,165.718,238.815,163.432,241.138Z" transform="translate(-49.75 -69.513)"/><path class="e" d="M160.432,248.981a.341.341,0,0,1-.26-.1.371.371,0,0,1,0-.527l10.45-10.628a.37.37,0,0,1,.527.52L160.7,248.87A.349.349,0,0,1,160.432,248.981Z" transform="translate(-49.74 -69.503)"/><path class="d" d="M146.009,240.883c4.342,2.041,6.153,7.355,6.153,7.355s-5.24,2-9.589-.037-6.153-7.348-6.153-7.348S141.66,238.85,146.009,240.883Z" transform="translate(-43.576 -70.112)"/><path class="e" d="M148.066,248.491a9.449,9.449,0,0,1-3.993-.824c-3.822-1.8-5.4-6.324-5.47-6.517a.371.371,0,0,1,.223-.468c.186-.074,4.683-1.759,8.506,0h0c3.822,1.8,5.4,6.324,5.47,6.517a.371.371,0,0,1-.215.468,13.984,13.984,0,0,1-4.52.824Zm-8.624-7.237c.445,1.076,2,4.357,4.951,5.737s6.465.482,7.571.134c-.445-1.076-2-4.349-4.943-5.73h0C144.088,240.007,140.555,240.913,139.442,241.254Z" transform="translate(-44.135 -70.089)"/><path class="e" d="M152.452,248.007a.326.326,0,0,1-.163,0L138.8,241.684a.371.371,0,0,1-.178-.5.379.379,0,0,1,.5-.178l13.493,6.331a.364.364,0,0,1,.178.49A.379.379,0,0,1,152.452,248.007Z" transform="translate(-44.134 -70.37)"/><path class="c" d="M160.667,236.438a5.938,5.938,0,0,0-1.625-2.969,15.334,15.334,0,0,0-4.594-2.746c-.861-.371-1.648-.675-2.152-.861-.928-.341-1-.356-1.1-.334h0c-.1,0-.134.037-.831.809-.364.4-.92,1.032-1.484,1.759a15.163,15.163,0,0,0-2.813,4.535,5.938,5.938,0,0,0-.1,3.362,4.26,4.26,0,0,0,5.337,3.34,3.637,3.637,0,0,0,2.731-2.227,3.637,3.637,0,0,0,3.459.742,4.275,4.275,0,0,0,3.169-5.411Z" transform="translate(-46.057 -67.418)"/><path class="e" d="M151.343,242.772a4.6,4.6,0,0,1-4.565-3.77,6.272,6.272,0,0,1,.111-3.563,15.46,15.46,0,0,1,2.88-4.668c.6-.742,1.165-1.373,1.529-1.774.705-.742.787-.861,1.017-.913s.349,0,1.329.341c.5.186,1.3.49,2.175.868a15.586,15.586,0,0,1,4.713,2.828,6.3,6.3,0,0,1,1.714,3.11,4.624,4.624,0,0,1-3.488,5.871,4.075,4.075,0,0,1-3.407-.52,4.03,4.03,0,0,1-2.776,2.026,5.365,5.365,0,0,1-1.232.163Zm1.113-13.954s-.393.445-.616.69c-.356.393-.906,1.017-1.484,1.744a15.03,15.03,0,0,0-2.754,4.416,5.589,5.589,0,0,0-.089,3.162,4.067,4.067,0,0,0,1.982,2.746,4.2,4.2,0,0,0,2.909.319,3.273,3.273,0,0,0,2.472-2.019.334.334,0,0,1,.252-.223.378.378,0,0,1,.341.082,3.266,3.266,0,0,0,3.125.661,3.919,3.919,0,0,0,2.969-4.973h0a5.626,5.626,0,0,0-1.529-2.768,14.8,14.8,0,0,0-4.453-2.665c-.861-.371-1.64-.675-2.138-.854a9.465,9.465,0,0,0-.965-.319Z" transform="translate(-46.263 -67.043)"/><path class="d" d="M141.613,255.637c-3.362,3.429-3.214,9.055-3.214,9.055s5.611.059,8.981-3.362,3.214-9.04,3.214-9.04S144.983,252.216,141.613,255.637Z" transform="translate(-44.081 -73.287)"/><path class="e" d="M138.251,264.321h0a.379.379,0,0,1-.371-.364c0-.2-.1-5,2.865-8.008s7.778-2.969,7.957-2.969a.379.379,0,0,1,.371.364c0,.2.1,5-2.858,8.008S138.711,264.321,138.251,264.321Zm10.042-10.584c-1.158.059-4.765.438-7.051,2.761s-2.6,5.938-2.642,7.1c1.158-.067,4.772-.445,7.051-2.768S148.256,254.865,148.293,253.737Z" transform="translate(-43.943 -73.465)"/><path class="e" d="M138.212,264.31a.4.4,0,0,1-.26-.1.371.371,0,0,1,0-.527l10.443-10.629a.373.373,0,0,1,.534.52L138.479,264.2A.378.378,0,0,1,138.212,264.31Z" transform="translate(-43.933 -73.454)"/><path class="d" d="M123.789,256.212c4.349,2.041,6.16,7.355,6.16,7.355s-5.24,2-9.589-.037-6.16-7.348-6.16-7.348S119.44,254.171,123.789,256.212Z" transform="translate(-37.789 -74.062)"/><path class="e" d="M125.856,263.813a9.315,9.315,0,0,1-3.993-.824c-3.83-1.789-5.4-6.324-5.47-6.517a.364.364,0,0,1,.215-.46c.193-.074,4.683-1.759,8.506,0s5.411,6.324,5.478,6.517a.371.371,0,0,1-.223.46A13.692,13.692,0,0,1,125.856,263.813Zm-8.625-7.229c.438,1.076,2,4.349,4.943,5.737s6.465.482,7.578.134c-.445-1.076-2-4.349-4.951-5.737s-6.479-.482-7.571-.134Z" transform="translate(-38.351 -74.041)"/><path class="e" d="M130.235,263.336a.4.4,0,0,1-.156,0l-13.493-6.324a.371.371,0,0,1-.178-.5.364.364,0,0,1,.49-.178l13.493,6.331a.371.371,0,0,1-.156.705Z" transform="translate(-38.35 -74.321)"/><path class="c" d="M138.448,251.766a5.938,5.938,0,0,0-1.625-2.969,14.985,14.985,0,0,0-4.594-2.746c-.861-.379-1.648-.675-2.152-.861-.928-.349-1-.364-1.1-.334h0c-.1,0-.126,0-.831.809-.364.393-.92,1.024-1.484,1.759a15.23,15.23,0,0,0-2.813,4.535,5.937,5.937,0,0,0-.1,3.355,4.275,4.275,0,0,0,5.344,3.347,3.637,3.637,0,0,0,2.724-2.227,3.615,3.615,0,0,0,3.459.742,4.26,4.26,0,0,0,3.169-5.411Z" transform="translate(-40.224 -71.368)"/><path class="e" d="M129.145,258.1a4.676,4.676,0,0,1-2.227-.534,4.78,4.78,0,0,1-2.36-3.229,6.3,6.3,0,0,1,.1-3.555,15.535,15.535,0,0,1,2.88-4.661c.594-.742,1.158-1.366,1.529-1.774.705-.742.794-.861,1.017-.92s.349,0,1.329.341c.512.193,1.306.5,2.175.876a15.587,15.587,0,0,1,4.713,2.828,6.309,6.309,0,0,1,1.722,3.11,4.772,4.772,0,0,1-.616,3.949,4.884,4.884,0,0,1-2.85,1.937,4.075,4.075,0,0,1-3.407-.52,4.045,4.045,0,0,1-2.783,2.019A4.934,4.934,0,0,1,129.145,258.1Zm1.113-13.954a7.946,7.946,0,0,1-.616.7c-.364.4-.92,1.024-1.484,1.744a14.889,14.889,0,0,0-2.746,4.409,5.685,5.685,0,0,0-.1,3.169,4.075,4.075,0,0,0,1.989,2.746,4.194,4.194,0,0,0,2.909.319,3.266,3.266,0,0,0,2.464-2.019.386.386,0,0,1,.26-.23.364.364,0,0,1,.334.089,3.3,3.3,0,0,0,3.125.661,4.216,4.216,0,0,0,2.442-1.625,4.052,4.052,0,0,0,.5-3.347h0a5.6,5.6,0,0,0-1.536-2.768,14.8,14.8,0,0,0-4.453-2.665c-.854-.371-1.625-.675-2.13-.861-.349-.111-.876-.3-.965-.319Z" transform="translate(-40.433 -70.996)"/><path class="d" d="M170.286,257.679c-2.086,4.327-.134,9.589-.134,9.589s5.329-1.752,7.422-6.079.134-9.589.134-9.589S172.364,253.381,170.286,257.679Z" transform="translate(-52.127 -73.109)"/><path class="e" d="M169.622,267.158a.379.379,0,0,1-.349-.237c-.067-.193-1.707-4.706.126-8.513h0c1.833-3.808,6.383-5.337,6.576-5.4a.371.371,0,0,1,.46.223c.074.193,1.707,4.706-.126,8.513s-6.376,5.336-6.569,5.4Zm6.235-13.315c-1.076.43-4.372,1.952-5.789,4.891h0c-1.41,2.932-.542,6.457-.208,7.571,1.076-.43,4.372-1.952,5.782-4.891s.542-6.457.208-7.571Zm-6.123,4.728Z" transform="translate(-51.924 -73.467)"/><path class="e" d="M169.871,267.159a.3.3,0,0,1-.156-.037.371.371,0,0,1-.178-.5L176,253.2a.372.372,0,1,1,.668.327l-6.465,13.427A.356.356,0,0,1,169.871,267.159Z" transform="translate(-52.173 -73.467)"/><path class="d" d="M152.6,264.551c4.772.527,8.2,4.973,8.2,4.973s-4.32,3.585-9.092,3.058-8.164-4.973-8.164-4.973S147.833,264.017,152.6,264.551Z" transform="translate(-45.483 -76.434)"/><path class="e" d="M153.858,271.707a7.132,7.132,0,0,1-.883-.052c-4.2-.468-7.155-4.245-7.281-4.4a.371.371,0,0,1,.059-.512c.156-.134,3.867-3.177,8.068-2.709s7.155,4.245,7.274,4.409a.371.371,0,0,1-.052.512A12.663,12.663,0,0,1,153.858,271.707Zm-7.333-4.624c.742.876,3.3,3.474,6.531,3.837s6.272-1.625,7.214-2.316c-.742-.876-3.3-3.474-6.531-3.837h0C150.488,264.412,147.46,266.393,146.525,267.084Z" transform="translate(-46.016 -76.302)"/><path class="e" d="M160.788,269.962h-.059l-14.844-1.64a.373.373,0,0,1,.082-.742l14.844,1.64a.371.371,0,0,1,.327.416.364.364,0,0,1-.349.327Z" transform="translate(-45.999 -77.228)"/><path class="c" d="M165.836,255.8a5.893,5.893,0,0,0-2.486-2.227,15.172,15.172,0,0,0-5.2-1.121c-.935-.074-1.774-.111-2.316-.119h-1.15c-.089.052-.111.074-.527,1.032-.215.49-.542,1.269-.868,2.152a15.2,15.2,0,0,0-1.2,5.2,5.938,5.938,0,0,0,.987,3.206,4.275,4.275,0,0,0,6.138,1.447,3.652,3.652,0,0,0,1.856-3.006,3.622,3.622,0,0,0,3.511-.416,4.26,4.26,0,0,0,1.254-6.146Z" transform="translate(-47.685 -73.297)"/><path class="e" d="M157.552,264.938a4.6,4.6,0,0,1-.742-.052,4.787,4.787,0,0,1-3.273-2.3,6.279,6.279,0,0,1-1.046-3.392,15.409,15.409,0,0,1,1.225-5.344c.327-.891.653-1.677.876-2.175.43-.995.475-1.076.661-1.195s.327-.134,1.373-.1c.542,0,1.388.045,2.338.126a15.453,15.453,0,0,1,5.374,1.158,6.235,6.235,0,0,1,2.627,2.39h0a4.75,4.75,0,0,1,.69,3.941,4.869,4.869,0,0,1-2.1,2.739,4.053,4.053,0,0,1-3.392.6,4.023,4.023,0,0,1-1.982,2.813A4.981,4.981,0,0,1,157.552,264.938ZM155.9,251.1h-.245c0,.045-.238.572-.364.861-.208.49-.534,1.262-.854,2.138a14.793,14.793,0,0,0-1.18,5.054,5.634,5.634,0,0,0,.928,3.028,4.053,4.053,0,0,0,2.768,1.96,4.223,4.223,0,0,0,2.858-.631A3.3,3.3,0,0,0,161.5,260.8a.356.356,0,0,1,.171-.3.349.349,0,0,1,.341,0,3.3,3.3,0,0,0,3.169-.379,4.2,4.2,0,0,0,1.789-2.316,4.023,4.023,0,0,0-.6-3.333h0A5.626,5.626,0,0,0,164,252.32a14.845,14.845,0,0,0-5.1-1.076c-.935-.082-1.766-.111-2.3-.126Z" transform="translate(-47.788 -72.79)"/><path d="M138.88,210.85h-128v-200h128ZM13.84,207.884H135.92V13.816H13.84Z" transform="translate(-10.88 -10.85)"/></svg>