<svg xmlns="http://www.w3.org/2000/svg" xmlns:xlink="http://www.w3.org/1999/xlink" width="128" height="200" viewBox="0 0 128 200"><defs><style>.a,.k{fill:none;}.b{fill:#fff;}.c{fill:#da003a;}.d{clip-path:url(#a);}.e{fill:#858585;}.f{fill:#ffe700;}.g{clip-path:url(#b);}.h{fill:#231815;}.i{fill:#c21823;}.j{fill:#ffb4c0;}.k{stroke:#000;stroke-linecap:round;stroke-linejoin:round;stroke-width:1.5px;}</style><clipPath id="a"><rect class="a" width="93.281" height="86.641"/></clipPath><clipPath id="b"><rect class="a" width="27.369" height="78.881"/></clipPath></defs><g transform="translate(-1945.803 325.181)"><g transform="translate(1945.803 -325.181)"><rect class="b" width="125.04" height="197.041" transform="translate(1.48 1.48)"/><path d="M2073.8-125.181h-128v-200h128Zm-125.04-2.966h122.081V-322.215H1948.763Z" transform="translate(-1945.803 325.181)"/></g><g transform="translate(2053.025 -316.157)"><path class="c" d="M2099.7-312.984a3.033,3.033,0,0,0-2.658,1.286,3.025,3.025,0,0,0-2.652-1.286,3.56,3.56,0,0,0-3.673,3.762,4.977,4.977,0,0,0,.739,2.7,12.715,12.715,0,0,0,3.176,3.124c.625.476,1.2.877,1.574,1.129.718.485.746.49.833.49h.012c.082,0,.138-.027.824-.488.374-.252.95-.65,1.577-1.125a12.7,12.7,0,0,0,3.184-3.13,4.974,4.974,0,0,0,.738-2.7A3.562,3.562,0,0,0,2099.7-312.984Z" transform="translate(-2090.72 312.984)"/></g><g transform="translate(1947.183 -324.22)"><g class="d"><g transform="translate(-3.357 0.241)"><path class="c" d="M2006.98-323.557c-10.535,0-16.113,5.079-18.889,9.139-2.772-4.06-8.343-9.139-18.854-9.139-12.574,0-26.106,8.368-26.106,26.742a35.335,35.335,0,0,0,5.256,19.216c3.586,6.062,11.18,13.532,22.572,22.205,4.446,3.385,8.542,6.233,11.2,8.026,5.1,3.446,5.3,3.481,5.914,3.482h.091c.582,0,.984-.186,5.858-3.463,2.655-1.785,6.754-4.622,11.2-8,11.406-8.656,19.022-16.142,22.636-22.251a35.33,35.33,0,0,0,5.247-19.216C2033.1-315.189,2019.562-323.557,2006.98-323.557Z" transform="translate(-1943.131 323.557)"/></g></g></g><g transform="translate(1957.189 -316.1)"><path class="b" d="M1971.408-299.037a5.364,5.364,0,0,1-1.076-.542c-.323-.213-.705-.493-1.151-.839q-.727-.565-1.224-.876a3.019,3.019,0,0,0-1.017-.416,5.059,5.059,0,0,1-1.07.118,4.518,4.518,0,0,1-2.553-.7,4.275,4.275,0,0,1-1.589-1.967,7.559,7.559,0,0,1-.534-2.948,6.627,6.627,0,0,1,.646-3,4.854,4.854,0,0,1,1.774-2,4.724,4.724,0,0,1,2.555-.706,4.338,4.338,0,0,1,3.533,1.463,6.138,6.138,0,0,1,1.219,4.046,6.587,6.587,0,0,1-.8,3.312,4.793,4.793,0,0,1-2.146,2.034,4.2,4.2,0,0,1,1.292.327,13.957,13.957,0,0,1,1.47.757,16.806,16.806,0,0,0,1.516.743,3.118,3.118,0,0,0,1.188.237,3.255,3.255,0,0,0,.459-.03l.178.638a1.719,1.719,0,0,1-.638.423,2.168,2.168,0,0,1-.773.141A3.572,3.572,0,0,1,1971.408-299.037Zm-3.1-4.626a6.864,6.864,0,0,0,.832-3.72,6.47,6.47,0,0,0-.8-3.5,2.535,2.535,0,0,0-2.256-1.255,2.611,2.611,0,0,0-2.279,1.247,6.622,6.622,0,0,0-.84,3.682,6.635,6.635,0,0,0,.809,3.527,2.535,2.535,0,0,0,2.264,1.3A2.577,2.577,0,0,0,1968.3-303.663Z" transform="translate(-1961.192 312.907)"/></g><g transform="translate(2037.116 -186.6)"><g transform="translate(0 3.772)"><path class="e" d="M2104.3-99.555v21.363c-15.053-2.548-26.665-14.767-31.235-27.926-.8-2.294-4.246-27.351-3.811-27.247,17.936,4.291,32.4,16.181,35.045,33.81" transform="translate(-2069.219 133.365)"/></g><g transform="translate(2.236 2.057)"><path d="M2105.829-79.119a.567.567,0,0,1-.1-.009c-13.3-2.4-25.022-13.565-29.867-28.443-.414-1.273-1.46-8.613-2.229-14.512-1.689-12.952-1.456-13.2-1.25-13.421a.572.572,0,0,1,.552-.162c18.573,4.739,31.074,17.616,33.441,34.444a.556.556,0,0,1-.473.627.558.558,0,0,1-.627-.472c-2.272-16.163-14.19-28.586-31.941-33.347.256,3.854,2.852,24.259,3.581,26.5,4.721,14.5,16.107,25.365,29.008,27.695a.556.556,0,0,1,.448.645A.556.556,0,0,1,2105.829-79.119Z" transform="translate(-2072.241 135.683)"/></g><g transform="translate(2.241 2.056)"><path d="M2105.83-82.2a.554.554,0,0,1-.47-.259l-33.028-52.379a.555.555,0,0,1,.079-.69.551.551,0,0,1,.689-.073c12.265,7.848,32.375,47.583,33.225,49.27a.555.555,0,0,1-.246.746.555.555,0,0,1-.744-.246c-.193-.384-18.22-36.01-30.382-46.93L2106.3-83.047a.555.555,0,0,1-.173.765A.55.55,0,0,1,2105.83-82.2Z" transform="translate(-2072.247 135.684)"/></g><g transform="translate(3.655 15.264)"><path d="M2082.369-115.547a.567.567,0,0,1-.086-.007l-7.654-1.177a.555.555,0,0,1-.464-.633.556.556,0,0,1,.633-.464l7.655,1.178a.555.555,0,0,1,.464.633A.555.555,0,0,1,2082.369-115.547Z" transform="translate(-2074.159 117.833)"/></g><g transform="translate(4.543 18.51)"><path d="M2084.338-111.78h-.038l-8.424-.556a.554.554,0,0,1-.516-.59.552.552,0,0,1,.59-.518l8.424.556a.555.555,0,0,1,.517.59A.554.554,0,0,1,2084.338-111.78Z" transform="translate(-2075.359 113.446)"/></g><g transform="translate(5.097 22.751)"><path d="M2087.293-105.511a.529.529,0,0,1-.058,0l-10.63-1.094a.554.554,0,0,1-.495-.608.555.555,0,0,1,.609-.5l10.631,1.094a.555.555,0,0,1,.494.609A.555.555,0,0,1,2087.293-105.511Z" transform="translate(-2076.107 107.714)"/></g><g transform="translate(6.684 31.901)"><path d="M2093.181-94.238h-14.374a.555.555,0,0,1-.555-.555.555.555,0,0,1,.555-.555h14.374a.555.555,0,0,1,.555.555A.555.555,0,0,1,2093.181-94.238Z" transform="translate(-2078.253 95.348)"/></g><g transform="translate(8.315 35.198)"><path d="M2081.012-89.456a.555.555,0,0,1-.555-.542.555.555,0,0,1,.542-.568l14.823-.325a.546.546,0,0,1,.568.542.556.556,0,0,1-.542.567l-14.824.325Z" transform="translate(-2080.457 90.891)"/></g><g transform="translate(11.588 40.645)"><path d="M2085.436-81.948a.555.555,0,0,1-.555-.538.555.555,0,0,1,.537-.572l14.6-.471a.542.542,0,0,1,.573.537.555.555,0,0,1-.537.572l-14.6.471Z" transform="translate(-2084.881 83.529)"/></g><g transform="translate(5.097 25.485)"><path d="M2089.239-101.864l-.047,0-12.576-1.045a.555.555,0,0,1-.507-.6.559.559,0,0,1,.6-.507l12.576,1.045a.555.555,0,0,1,.506.6A.555.555,0,0,1,2089.239-101.864Z" transform="translate(-2076.107 104.019)"/></g><g transform="translate(17.672 10.805)"><path d="M2093.659-113.156a.549.549,0,0,1-.156-.023.554.554,0,0,1-.376-.688l2.806-9.593a.554.554,0,0,1,.689-.377.554.554,0,0,1,.376.688l-2.807,9.593A.555.555,0,0,1,2093.659-113.156Z" transform="translate(-2093.104 123.86)"/></g><g transform="translate(20.479 13.528)"><path d="M2097.453-109.03a.547.547,0,0,1-.167-.026.555.555,0,0,1-.363-.7l3.16-10.039a.552.552,0,0,1,.7-.363.555.555,0,0,1,.364.7l-3.16,10.039A.556.556,0,0,1,2097.453-109.03Z" transform="translate(-2096.897 120.179)"/></g><g transform="translate(22.571 17.322)"><path d="M2100.3-103.018a.555.555,0,0,1-.476-.269c-.471-.781.775-4.626,3.707-11.43a.554.554,0,0,1,.729-.29.556.556,0,0,1,.29.73c-1.939,4.5-3.859,9.621-3.747,10.472a.555.555,0,0,1-.217.707A.556.556,0,0,1,2100.3-103.018Zm.506-.767Zm-.033-.075h0Z" transform="translate(-2099.725 115.053)"/></g><g transform="translate(24.37 18.788)"><path d="M2102.712-99.508a.57.57,0,0,1-.167-.025.556.556,0,0,1-.363-.7l3.917-12.452a.554.554,0,0,1,.7-.363.556.556,0,0,1,.363.7L2103.241-99.9A.556.556,0,0,1,2102.712-99.508Z" transform="translate(-2102.156 113.071)"/></g><g transform="translate(27.909 23.568)"><path d="M2107.495-91.669a.546.546,0,0,1-.132-.016.554.554,0,0,1-.407-.67l3.366-13.831a.557.557,0,0,1,.67-.408.555.555,0,0,1,.408.67l-3.366,13.831A.555.555,0,0,1,2107.495-91.669Z" transform="translate(-2106.939 106.61)"/></g><g transform="translate(32.102 34.017)"><path d="M2113.162-80.345a.548.548,0,0,1-.138-.017.555.555,0,0,1-.4-.676l2.824-11.033a.556.556,0,0,1,.675-.4.554.554,0,0,1,.4.675L2113.7-80.762A.555.555,0,0,1,2113.162-80.345Z" transform="translate(-2112.606 92.488)"/></g><g transform="translate(15.727 8.639)"><path d="M2091.03-117.876a.511.511,0,0,1-.119-.013.554.554,0,0,1-.423-.661l1.709-7.8a.556.556,0,0,1,.66-.422.554.554,0,0,1,.423.661l-1.708,7.8A.554.554,0,0,1,2091.03-117.876Z" transform="translate(-2090.474 126.787)"/></g><g transform="translate(15.726 46.313)"><path d="M2105.45-74.759h-14.421a.555.555,0,0,1-.555-.555.555.555,0,0,1,.555-.555h14.421a.555.555,0,0,1,.555.555A.555.555,0,0,1,2105.45-74.759Z" transform="translate(-2090.474 75.869)"/></g><g transform="translate(18.736 49.252)"><path d="M2108.361-70.787H2095.1a.555.555,0,0,1-.555-.555.555.555,0,0,1,.555-.555h13.264a.555.555,0,0,1,.555.555A.555.555,0,0,1,2108.361-70.787Z" transform="translate(-2094.542 71.897)"/></g><g transform="translate(0.833 0)"><path class="f" d="M2075.158-132.4l-.931-3.629c-.887-2.249-1.981-2.9-3.176-2.123-1.157.915-.914,2.167.878,3.72A22.7,22.7,0,0,0,2075.158-132.4Z" transform="translate(-2070.344 138.464)"/></g><g transform="translate(1.018 0.188)"><path d="M2075.964-131.039a.556.556,0,0,1-.245-.057,22.265,22.265,0,0,1-3.176-1.985l-.13-.092c-1.258-1.086-1.839-2.038-1.819-2.943a2.159,2.159,0,0,1,.917-1.665,2.1,2.1,0,0,1,1.849-.341c.866.278,1.581,1.16,2.187,2.7l.954,3.695a.555.555,0,0,1-.188.568A.553.553,0,0,1,2075.964-131.039Zm-3.173-6.063a1.182,1.182,0,0,0-.633.221,1.057,1.057,0,0,0-.454.788c-.008.376.226,1.036,1.393,2.047l.088.059c.637.451,1.25.886,1.923,1.292l-.614-2.391c-.436-1.091-.967-1.819-1.472-1.981A.744.744,0,0,0,2072.792-137.1Z" transform="translate(-2070.594 138.209)"/></g></g><g transform="translate(1947.528 -227.153)"><g class="g"><g transform="translate(-7.322 5.432)"><g transform="translate(0 2.971)"><path class="e" d="M1965.592-128.208l-12.9,20.555c-12.946-11.545-16.738-30.316-13.186-45.739.618-2.688,12.436-28.883,12.792-28.52,14.667,14.963,21.4,35.142,13.3,53.7" transform="translate(-1938.238 181.915)"/></g><g transform="translate(2.097 2.891)"><path d="M1954.668-107.449a.627.627,0,0,1-.425-.164c-11.345-10.343-15.882-28.167-11.557-45.41.37-1.475,3.8-9.169,6.62-15.31,6.2-13.484,6.558-13.578,6.905-13.669a.657.657,0,0,1,.63.178c15.009,15.78,19.26,35.722,11.371,53.343a.633.633,0,0,1-.833.318.631.631,0,0,1-.318-.833c7.576-16.926,3.612-36.079-10.592-51.381-2.083,3.862-11.91,25.064-12.562,27.663-4.213,16.8.177,34.137,11.184,44.17a.631.631,0,0,1,.042.891A.63.63,0,0,1,1954.668-107.449Z" transform="translate(-1941.072 182.023)"/></g><g transform="translate(16.779 2.894)"><path d="M1961.688-110.408a.631.631,0,0,1-.631-.629l-.141-70.351a.631.631,0,0,1,.492-.616.631.631,0,0,1,.709.346c2.974,6.3,4.248,19.582,3.786,39.475-.343,14.767-1.565,27.874-1.578,28a.628.628,0,0,1-.687.568.63.63,0,0,1-.568-.687c.046-.485,4.22-45.656-.884-63.51l.134,66.769a.631.631,0,0,1-.629.632Z" transform="translate(-1960.916 182.02)"/></g><g transform="translate(10.164 16.455)"><path d="M1959.26-156.672a.632.632,0,0,1-.413-.153l-6.654-5.758a.632.632,0,0,1-.064-.889.631.631,0,0,1,.89-.064l6.655,5.757a.633.633,0,0,1,.064.89A.632.632,0,0,1,1959.26-156.672Z" transform="translate(-1951.975 163.691)"/></g><g transform="translate(9.056 20.116)"><path d="M1958.877-151.858a.63.63,0,0,1-.369-.12l-7.77-5.624a.63.63,0,0,1-.141-.88.631.631,0,0,1,.881-.141l7.77,5.623a.631.631,0,0,1,.141.88A.629.629,0,0,1,1958.877-151.858Z" transform="translate(-1950.478 158.743)"/></g><g transform="translate(7.027 24.531)"><path d="M1957.933-144.041a.625.625,0,0,1-.387-.134l-9.568-7.474a.631.631,0,0,1-.109-.885.631.631,0,0,1,.885-.109l9.568,7.474a.631.631,0,0,1,.109.885A.628.628,0,0,1,1957.933-144.041Z" transform="translate(-1947.736 152.775)"/></g><g transform="translate(3.029 34.294)"><path d="M1956.793-129.636a.626.626,0,0,1-.334-.1l-13.832-8.683a.631.631,0,0,1-.2-.869.631.631,0,0,1,.869-.2l13.832,8.683a.631.631,0,0,1,.2.869A.629.629,0,0,1,1956.793-129.636Z" transform="translate(-1942.332 139.58)"/></g><g transform="translate(2.409 38.765)"><path d="M1956.583-123.636a.628.628,0,0,1-.323-.089l-14.46-8.641a.631.631,0,0,1-.217-.864.63.63,0,0,1,.865-.218l14.46,8.641a.631.631,0,0,1,.217.864A.63.63,0,0,1,1956.583-123.636Z" transform="translate(-1941.495 133.538)"/></g><g transform="translate(2.18 46.124)"><path d="M1956.15-113.962a.626.626,0,0,1-.317-.086l-14.335-8.368a.631.631,0,0,1-.226-.863.63.63,0,0,1,.863-.226l14.335,8.369a.63.63,0,0,1,.226.862A.631.631,0,0,1,1956.15-113.962Z" transform="translate(-1941.185 123.592)"/></g><g transform="translate(5.376 27.161)"><path d="M1957.6-139.357a.629.629,0,0,1-.378-.126l-11.47-8.6a.631.631,0,0,1-.125-.883.63.63,0,0,1,.883-.126l11.47,8.6a.631.631,0,0,1,.126.883A.629.629,0,0,1,1957.6-139.357Z" transform="translate(-1945.504 149.221)"/></g><g transform="translate(20.549 22.329)"><path d="M1966.641-146.955a.63.63,0,0,1-.472-.212.631.631,0,0,1,.054-.89l8.5-7.535a.631.631,0,0,1,.89.053.631.631,0,0,1-.053.89l-8.5,7.535A.628.628,0,0,1,1966.641-146.955Z" transform="translate(-1966.011 155.752)"/></g><g transform="translate(21.336 26.858)"><path d="M1967.706-140.618a.628.628,0,0,1-.48-.221.63.63,0,0,1,.071-.889l9.1-7.751a.631.631,0,0,1,.889.072.631.631,0,0,1-.071.889l-9.105,7.751A.628.628,0,0,1,1967.706-140.618Z" transform="translate(-1967.075 149.63)"/></g><g transform="translate(20.54 32.133)"><path d="M1966.629-132.989h-.01a.63.63,0,0,1-.619-.641c.018-1.036,3.54-3.984,10.47-8.76a.63.63,0,0,1,.877.161.63.63,0,0,1-.161.877c-4.584,3.161-9.523,6.927-9.931,7.815A.63.63,0,0,1,1966.629-132.989Zm.616-.528Zm.014-.091h0Z" transform="translate(-1965.999 142.502)"/></g><g transform="translate(20.445 34.727)"><path d="M1966.5-128.118a.628.628,0,0,1-.48-.221.63.63,0,0,1,.071-.889l11.29-9.616a.631.631,0,0,1,.889.071.63.63,0,0,1-.071.889l-11.291,9.617A.63.63,0,0,1,1966.5-128.118Z" transform="translate(-1965.871 138.996)"/></g><g transform="translate(20.13 41.131)"><path d="M1966.075-117.8a.631.631,0,0,1-.453-.191.631.631,0,0,1,.013-.892l11.595-11.275a.631.631,0,0,1,.892.013.631.631,0,0,1-.013.892l-11.595,11.275A.626.626,0,0,1,1966.075-117.8Z" transform="translate(-1965.445 130.34)"/></g><g transform="translate(19.543 53.39)"><path d="M1965.282-103.6a.629.629,0,0,1-.457-.2.63.63,0,0,1,.023-.892l9.381-8.91a.631.631,0,0,1,.892.023.63.63,0,0,1-.024.891l-9.381,8.911A.627.627,0,0,1,1965.282-103.6Z" transform="translate(-1964.651 113.771)"/></g><g transform="translate(21.068 18.406)"><path d="M1967.343-153.319a.626.626,0,0,1-.441-.181.631.631,0,0,1-.009-.892l6.357-6.474a.629.629,0,0,1,.891-.008.63.63,0,0,1,.008.892l-6.357,6.475A.629.629,0,0,1,1967.343-153.319Z" transform="translate(-1966.713 161.055)"/></g><g transform="translate(3.023 53.625)"><path d="M1956.828-103.482a.625.625,0,0,1-.334-.1l-13.876-8.711a.631.631,0,0,1-.2-.869.632.632,0,0,1,.869-.2l13.876,8.711a.631.631,0,0,1,.2.869A.631.631,0,0,1,1956.828-103.482Z" transform="translate(-1942.323 113.453)"/></g><g transform="translate(4.144 58.271)"><path d="M1957.231-97.9a.63.63,0,0,1-.334-.1l-12.762-8.012a.631.631,0,0,1-.2-.869.632.632,0,0,1,.87-.2l12.762,8.011a.631.631,0,0,1,.2.869A.631.631,0,0,1,1957.231-97.9Z" transform="translate(-1943.839 107.174)"/></g><g transform="translate(15.83 0.552)"><path class="f" d="M1961.873-177.169l1.3-4.055c.5-2.7-.158-3.982-1.773-3.961-1.667.182-2.189,1.533-1.4,4.11A25.793,25.793,0,0,0,1961.873-177.169Z" transform="translate(-1959.634 185.185)"/></g><g transform="translate(16.485)"><path d="M1963.312-176.808a.556.556,0,0,1-.473-.263,25.153,25.153,0,0,1-1.85-3.817l-.07-.169c-.545-1.775-.531-3.021.022-3.86a2.374,2.374,0,0,1,1.833-1.014,2.35,2.35,0,0,1,1.919.762c.649.772.8,2.032.459,3.853l-1.311,4.122a.556.556,0,0,1-.462.382A.526.526,0,0,1,1963.312-176.808Zm-.439-8.017h-.032a1.271,1.271,0,0,0-.974.519c-.35.53-.318,1.524.095,2.874l.052.118c.363.876.713,1.717,1.155,2.572l.908-2.845c.321-1.743.052-2.528-.235-2.868A1.186,1.186,0,0,0,1962.873-184.825Z" transform="translate(-1960.518 185.931)"/></g></g></g></g><g transform="translate(1982.224 -248.701)"><g transform="translate(35.313 6.003)"><path class="h" d="M2053.162-206.634a34.032,34.032,0,0,0,1.325,5.64.788.788,0,0,0,1.236.331l1.762-1.427s5.269-5.038,2.673-7.735c-1.947-2.024-5.4-2.1-7-2.011a8.039,8.039,0,0,1-2.278-.182,3.319,3.319,0,0,1-.923-.318,2.292,2.292,0,0,1-.693-1.209s.226.858-.856,1.682-4.407,2.072-4.794,3.616c-.35,1.4-.044,4.826,2.786,6.319a10.846,10.846,0,0,0,4.942,1.445,7.023,7.023,0,0,1,4.221,2.725,5.071,5.071,0,0,0,2.47,1.777l.618.257-1.168-6.364" transform="translate(-2042.95 214.091)"/><path class="h" d="M2058.459-195.362a.555.555,0,0,1-.214-.043l-.618-.257a5.518,5.518,0,0,1-2.737-2.012,6.526,6.526,0,0,0-3.835-2.455c-.158-.027-.33-.041-.523-.058a10.7,10.7,0,0,1-4.582-1.442c-3.175-1.674-3.435-5.47-3.067-6.944.331-1.324,2.172-2.325,3.652-3.13a12.43,12.43,0,0,0,1.344-.794c.746-.569.656-1.094.651-1.116a.565.565,0,0,1,.407-.653.551.551,0,0,1,.663.365c.211.678.4.865.473.913a2.686,2.686,0,0,0,.74.238,7.455,7.455,0,0,0,2.12.168c1.886-.1,5.37.04,7.429,2.18a3.073,3.073,0,0,1,.873,2.28c-.052,2.477-2.578,5.243-3.347,6.028l1.116,6.077a.556.556,0,0,1-.2.533A.557.557,0,0,1,2058.459-195.362Zm-9.25-16.915a3.133,3.133,0,0,1-.656.662,12.763,12.763,0,0,1-1.486.886c-1.153.626-2.893,1.572-3.105,2.423-.258,1.031-.143,4.3,2.507,5.693a9.61,9.61,0,0,0,4.16,1.318c.229.019.43.038.617.07a7.544,7.544,0,0,1,4.608,3,4.052,4.052,0,0,0,1.875,1.4l-.814-4.439-1.036.84a1.35,1.35,0,0,1-1.207.254,1.32,1.32,0,0,1-.9-.823,35.557,35.557,0,0,1-1.351-5.739.556.556,0,0,1,.452-.641.558.558,0,0,1,.642.452,33.406,33.406,0,0,0,1.3,5.542.218.218,0,0,0,.151.138.233.233,0,0,0,.214-.046l1.755-1.421.007-.007c.044-.045,3.137-3.052,3.185-5.434a1.975,1.975,0,0,0-.563-1.486c-1.815-1.888-5.2-1.918-6.568-1.842a8.6,8.6,0,0,1-2.435-.2,3.275,3.275,0,0,1-1.105-.4A1.5,1.5,0,0,1,2049.209-212.277Z" transform="translate(-2042.756 214.283)"/></g><g transform="translate(24.698 49.529)"><path class="h" d="M2047.154-107.756a11.2,11.2,0,0,1-4.3-1.089c-2-.9-2.361-2.131-2.855-3.83l-.165-.563-2.286-7.6c-.775-2.578-1.431-4.383-3.417-5.915l-.448-.344c-1.847-1.412-4.145-3.17-5.222-5.665a.555.555,0,0,1,.29-.73.554.554,0,0,1,.729.289c.963,2.23,3.133,3.89,4.877,5.223l.453.347c2.243,1.732,2.99,3.776,3.8,6.475l2.453,8.178c.471,1.621.707,2.435,2.244,3.127,1.195.539,4.141,1.66,5.705.458.323-.248.5-.476.5-.644,0-.312-.579-.764-1-1.094-.2-.159-.4-.314-.572-.468a22.781,22.781,0,0,1-3.975-5.247,10.405,10.405,0,0,1-1.541-7.041,15.546,15.546,0,0,1,.605-2.047c1.062-3.163,2.839-8.456.566-12.548-1.326-2.386.927-4.717,1.65-5.375a12.546,12.546,0,0,0,3.377-4.5,27.525,27.525,0,0,0,1.461-4.837c.386-1.635.479-1.988.8-2.178a.555.555,0,0,1,.761.194.557.557,0,0,1-.064.654c-.092.211-.263.939-.416,1.586a28.345,28.345,0,0,1-1.535,5.05,13.513,13.513,0,0,1-3.636,4.85c-.57.519-2.357,2.342-1.427,4.015,2.512,4.521.563,10.324-.484,13.441a15.574,15.574,0,0,0-.562,1.871,9.422,9.422,0,0,0,1.4,6.291,21.837,21.837,0,0,0,3.768,5c.151.136.328.274.509.414.672.524,1.434,1.117,1.431,1.973a1.967,1.967,0,0,1-.935,1.521A4.069,4.069,0,0,1,2047.154-107.756Zm4.292-46.667h0Z" transform="translate(-2028.411 155.455)"/></g><g transform="translate(3.789 5.994)"><path class="h" d="M2007.738-116.437a7.26,7.26,0,0,1-5.949-3.548,12.881,12.881,0,0,1-1.629-7.386,38.989,38.989,0,0,1,1.581-9l.069-.25a12.8,12.8,0,0,0,.646-3.607,38.119,38.119,0,0,0-1.023-6.66,49.3,49.3,0,0,1-.883-4.957c-.613-5.966,2.5-13.228,9.645-15.563a14.827,14.827,0,0,0,6.333-4.233l.167-.186a49.281,49.281,0,0,0,4.883-6.01c1.606-2.492,3.164-4.766,4.813-7.173l.938-1.37c1.011-1.48,2.041-3.076,3.06-4.743a6.832,6.832,0,0,0,.8-5.295,6.788,6.788,0,0,0-3.213-4.235c-.8-.463-1.68-.93-2.607-1.424-.721-.384-1.471-.784-2.239-1.209-5.754-3.187-2.4-10.614-2.368-10.688a.555.555,0,0,1,.672-.3l4.13,1.307a.554.554,0,0,1,.361.7.553.553,0,0,1-.7.362l-3.645-1.153c-.585,1.531-2.078,6.5,2.083,8.8.764.422,1.507.819,2.224,1.2.936.5,1.819.969,2.639,1.441a7.883,7.883,0,0,1,3.734,4.923,7.935,7.935,0,0,1-.929,6.148c-1.03,1.682-2.07,3.294-3.092,4.789l-.938,1.37c-1.644,2.4-3.2,4.669-4.8,7.148a50.225,50.225,0,0,1-4.99,6.152l-.167.185a15.931,15.931,0,0,1-6.812,4.545c-6.514,2.129-9.44,9.006-8.887,14.4a48.706,48.706,0,0,0,.865,4.84,38.841,38.841,0,0,1,1.047,6.868,13.664,13.664,0,0,1-.687,3.927l-.069.248a37.955,37.955,0,0,0-1.54,8.74,11.818,11.818,0,0,0,1.46,6.765,5.864,5.864,0,0,0,5.9,2.932.342.342,0,0,0,.222-.136c.38-.656-.486-2.01-.951-2.736l-.167-.261c-.162-.259-.319-.495-.466-.718a5.29,5.29,0,0,1-1.213-3.779c.044-.628.066-1.268.089-1.913a22.168,22.168,0,0,1,.563-5.048c.722-2.65,2.6-3.8,4.593-5.019.351-.215.707-.433,1.062-.663a22.73,22.73,0,0,0,6.86-6.214c1.352-2.051,3.605-7.8,1.49-11.518a.555.555,0,0,1,.208-.756.554.554,0,0,1,.758.208c2.389,4.2,0,10.355-1.529,12.676a23.731,23.731,0,0,1-7.183,6.534c-.364.236-.728.459-1.086.678-1.876,1.149-3.5,2.14-4.1,4.365a21.319,21.319,0,0,0-.525,4.8c-.023.657-.047,1.311-.091,1.952a4.242,4.242,0,0,0,1.031,3.087c.153.231.316.475.484.744l.159.25c.634.991,1.693,2.649.977,3.89a1.434,1.434,0,0,1-.951.667A5.4,5.4,0,0,1,2007.738-116.437Z" transform="translate(-2000.15 214.296)"/></g><g transform="translate(28.482 0.001)"><path class="h" d="M2052.625-202.591a1.321,1.321,0,0,1-.356-.048,1.317,1.317,0,0,1-.9-.822,35.65,35.65,0,0,1-1.351-5.739.555.555,0,0,1,.452-.641.556.556,0,0,1,.642.452,33.384,33.384,0,0,0,1.3,5.542.221.221,0,0,0,.151.138.241.241,0,0,0,.215-.046l1.761-1.427s3.137-3.034,3.185-5.434a1.977,1.977,0,0,0-.563-1.486c-1.816-1.889-5.2-1.919-6.569-1.842a8.6,8.6,0,0,1-2.435-.2,3.246,3.246,0,0,1-1.106-.4c-.738-.5-1.011-1.782-1.211-2.722-.036-.169-.068-.32-.1-.442a3.533,3.533,0,0,0-1.59-2.259c-.736-.479-3.93-1.649-4.429-1.278a1.1,1.1,0,0,0,.221.367,29.494,29.494,0,0,1,3.313,5.074.685.685,0,0,1-.026.684.739.739,0,0,1-.6.327,3.584,3.584,0,0,0-2.857,1.416,1.076,1.076,0,0,1-.668.384c-.594.091-2.059.077-5.21-1.031a.555.555,0,0,1-.339-.708.556.556,0,0,1,.707-.339c3.115,1.1,4.367,1.028,4.674.981a4.8,4.8,0,0,1,3.036-1.767,28.21,28.21,0,0,0-2.885-4.316,1.749,1.749,0,0,1-.45-.967,1.074,1.074,0,0,1,.522-1.062c1.378-.814,5.31,1.116,5.6,1.3a4.628,4.628,0,0,1,2.061,2.92c.033.132.069.3.107.48.124.58.381,1.787.747,2.034a2.669,2.669,0,0,0,.739.238,7.455,7.455,0,0,0,2.12.169c1.886-.1,5.371.041,7.429,2.18a3.075,3.075,0,0,1,.873,2.28c-.059,2.86-3.419,6.106-3.562,6.242l-1.8,1.458A1.352,1.352,0,0,1,2052.625-202.591Zm-9.98-13.306h0Z" transform="translate(-2033.524 222.395)"/></g><g transform="translate(49.293 17.09)"><path class="h" d="M2073.272-171.9a4.432,4.432,0,0,1-.724-.055c-.454-.075-.95-.164-1.466-.258-2.188-.4-5.5-1-6.413-.345a.556.556,0,0,1-.774-.131.554.554,0,0,1,.131-.774c1.206-.855,3.767-.474,7.254.158.51.093,1,.181,1.448.255,2,.332,5.909-1.348,9.359-2.828,4.154-1.782,6.558-2.752,7.661-2.005,1.176.8,2.2,1.033,2.877.665a1.894,1.894,0,0,0,.816-1.773,5.045,5.045,0,0,0-3.016-4.213c-1.425-.714-6.024.81-9.719,2.035-3.773,1.249-7.032,2.328-8.647,1.962a10.042,10.042,0,0,1-7.769-6.869c-.145-.462-2.214-10.538-2.627-12.554a.554.554,0,0,1,.432-.656.557.557,0,0,1,.655.432c.981,4.783,2.482,12.045,2.6,12.449a8.972,8.972,0,0,0,6.956,6.114c1.319.3,4.742-.837,8.052-1.934,4.489-1.486,8.729-2.891,10.563-1.973a6.161,6.161,0,0,1,3.631,5.188,2.967,2.967,0,0,1-1.4,2.767c-.615.332-1.954.681-4.028-.723-.653-.445-4.089,1.03-6.6,2.106C2079.129-173.4,2075.628-171.9,2073.272-171.9Z" transform="translate(-2061.651 199.298)"/></g><g transform="translate(42.673 37.666)"><path class="h" d="M2077.29-145.759a4.439,4.439,0,0,1-3.321-1.743c-1.831-2.059-4.419-3.355-6.922-4.607a38.539,38.539,0,0,1-4.582-2.558,58.926,58.926,0,0,1-4.666-3.685c-.54-.457-1.078-.912-1.621-1.359a4.159,4.159,0,0,0-1.378-.87,1.042,1.042,0,0,0-1.093.242.554.554,0,0,1-.775.118.555.555,0,0,1-.119-.775,2.116,2.116,0,0,1,2.3-.65,5.044,5.044,0,0,1,1.774,1.079c.546.45,1.088.909,1.632,1.368,1.469,1.242,2.987,2.527,4.578,3.618a37.946,37.946,0,0,0,4.451,2.481c2.6,1.3,5.282,2.644,7.254,4.862a3.133,3.133,0,0,0,3,1.31,1.765,1.765,0,0,0,1.295-1.076,5.37,5.37,0,0,0-.61-3.278,6.4,6.4,0,0,0-2.036-2.763,2.506,2.506,0,0,0-.25-.145,4.442,4.442,0,0,0-1.03-.323l-.448-.1a13.616,13.616,0,0,1-1.679-.43,13,13,0,0,1-1.9-.865,17.375,17.375,0,0,1-3.4-2.435,23.731,23.731,0,0,1-1.931-1.971l-.184-.209a43.518,43.518,0,0,1-5.844-7.758,4.757,4.757,0,0,0-1.9-2c-.1-.05-.2-.1-.3-.145a.557.557,0,0,1-.289-.73.556.556,0,0,1,.73-.289c.131.057.258.118.379.182a5.874,5.874,0,0,1,2.362,2.453,42.7,42.7,0,0,0,5.7,7.554l.184.21a22.816,22.816,0,0,0,1.841,1.879,16.3,16.3,0,0,0,3.183,2.281,11.965,11.965,0,0,0,1.741.794,12.694,12.694,0,0,0,1.544.393l.458.1a5.5,5.5,0,0,1,1.286.414,3.5,3.5,0,0,1,.365.211,7.389,7.389,0,0,1,2.437,3.233,6.358,6.358,0,0,1,.675,4.005,2.862,2.862,0,0,1-2.107,1.884A3.228,3.228,0,0,1,2077.29-145.759Z" transform="translate(-2052.705 171.488)"/></g><g transform="translate(0 33.622)"><path class="h" d="M2001.864-150.708a.548.548,0,0,1-.358-.132c-4.422-3.74-6.6-8.364-6.472-13.742.13-5.462,2.731-9.4,7.525-11.4a10.607,10.607,0,0,1,7.013-.622,7.613,7.613,0,0,1,5.053,5.1,4.856,4.856,0,0,1,.09,2.355c0,.015-.377,1.564-1.147,1.619a.688.688,0,0,1-.688-.486c-.712-1.9-2.605-3.819-5.059-3.561-2.7.289-4.615,2.9-5.434,5.043-1.665,4.362,1.075,8.247,4.641,9.829a.555.555,0,0,1,.283.732.555.555,0,0,1-.733.282c-4.717-2.092-6.915-6.819-5.229-11.24.931-2.438,3.153-5.407,6.353-5.75a6.044,6.044,0,0,1,5.863,3.485c.032-.086.058-.158.07-.2a3.753,3.753,0,0,0-.078-1.8,6.574,6.574,0,0,0-4.3-4.333,9.529,9.529,0,0,0-6.27.584c-4.357,1.813-6.723,5.409-6.841,10.4-.121,5.1,1.867,9.306,6.079,12.869a.555.555,0,0,1,.065.782A.556.556,0,0,1,2001.864-150.708Z" transform="translate(-1995.029 176.955)"/></g><g transform="translate(32.257 22.522)"><path class="i" d="M2058.995-187.134c1.432-2.721-4.306-3.1-5.528-3.229-3.542-.365-7.059-.729-10.584-1.25-1.088-.161-2.08-.673-3.164-.024-1.281.767-1.637,3.193.033,3.406,4.427.565,8.859,1.4,13.326,1.7C2054.461-186.4,2058.1-185.427,2058.995-187.134Z" transform="translate(-2038.626 191.957)"/></g><g transform="translate(41.227 9.344)"><path class="b" d="M2052.851-207.5a.554.554,0,0,1-.477-.269,6.923,6.923,0,0,0-1.35-.966.554.554,0,0,1-.2-.76.555.555,0,0,1,.76-.2,6.318,6.318,0,0,1,1.739,1.351.553.553,0,0,1-.19.761A.554.554,0,0,1,2052.851-207.5Z" transform="translate(-2050.75 209.768)"/></g><g transform="translate(13.387 33.667)"><path class="h" d="M2031.356-176.144s3.525,9.064,1.054,13.594c-3.46,6.344-6.8,9.564-8.442,10.81-2.574,1.956-10.913,2.265-10.028-5.218C2013.939-156.958,2020.728-158.439,2031.356-176.144Z" transform="translate(-2013.318 176.699)"/><path class="h" d="M2019.522-150.2a7.618,7.618,0,0,1-3.739-.89c-1.417-.81-3.016-2.53-2.591-6.128a.554.554,0,0,1,.433-.477c.062-.015,6.75-1.754,17.06-18.929a.544.544,0,0,1,.522-.266.554.554,0,0,1,.471.351c.147.38,3.588,9.358,1.023,14.06-3.745,6.866-7.257,9.971-8.594,10.987A7.959,7.959,0,0,1,2019.522-150.2Zm-5.263-6.534c-.178,2.217.519,3.791,2.075,4.681a7.441,7.441,0,0,0,7.1-.324c1.28-.972,4.648-3.955,8.291-10.634,1.829-3.354.119-9.534-.7-12.034C2022.032-160.38,2015.853-157.313,2014.259-156.734Z" transform="translate(-2013.123 176.894)"/></g><g transform="translate(23.494 5.994)"><path class="h" d="M2031.778-212.475l-3.387-1.071s-.847,3.143-.858,3.2A6.886,6.886,0,0,0,2031.778-212.475Z" transform="translate(-2026.978 214.101)"/><path class="h" d="M2027.338-209.988a.553.553,0,0,1-.413-.185.553.553,0,0,1-.132-.472c.005-.028.014-.075.867-3.241a.555.555,0,0,1,.269-.342.556.556,0,0,1,.434-.042l3.387,1.071a.555.555,0,0,1,.366.379.555.555,0,0,1-.115.514,7.4,7.4,0,0,1-4.621,2.315Zm1.243-3.049c-.134.5-.331,1.226-.482,1.791a6.438,6.438,0,0,0,2.428-1.175Z" transform="translate(-2026.783 214.296)"/></g><g transform="translate(33.64)"><path class="h" d="M2048.945-215.339s.6.325-2.383.58c-.732.062-2.144.346-2.7.463a11.29,11.29,0,0,0-2.567.9h0a4.241,4.241,0,0,1,3.4-1.753.139.139,0,0,0,.126-.2,28.878,28.878,0,0,0-3.247-4.973,1.231,1.231,0,0,1-.323-.658c-.133-1.717,4.661.359,5.264.752a4.237,4.237,0,0,1,1.677,2.707,12.453,12.453,0,0,0,.756,2.188" transform="translate(-2040.69 222.204)"/><path class="h" d="M2041.1-213.035a.556.556,0,0,1-.427-.2.556.556,0,0,1-.01-.7,4.878,4.878,0,0,1,3.173-1.921,28.24,28.24,0,0,0-2.886-4.316,1.752,1.752,0,0,1-.448-.968,1.071,1.071,0,0,1,.521-1.06c1.377-.819,5.31,1.116,5.6,1.3a4.786,4.786,0,0,1,1.91,3.029,12.249,12.249,0,0,0,.668,1.988.625.625,0,0,1,.144.54c-.1.483-.547.732-2.927.936-.722.061-2.2.363-2.636.454a10.8,10.8,0,0,0-2.425.848A.549.549,0,0,1,2041.1-213.035Zm7.382-2.012h0Zm-6.566-6.264a.579.579,0,0,0-.33.071,1.137,1.137,0,0,0,.221.368,29.583,29.583,0,0,1,3.311,5.07.686.686,0,0,1,.065.457c.421-.073.833-.134,1.139-.16a15.265,15.265,0,0,0,1.73-.221,16.94,16.94,0,0,1-.593-1.85,3.725,3.725,0,0,0-1.444-2.386A12.506,12.506,0,0,0,2041.914-221.311Z" transform="translate(-2040.495 222.397)"/></g><g transform="translate(38.753 11.77)"><path class="b" d="M2049.37-205.1a.55.55,0,0,1-.221-.047,2.166,2.166,0,0,0-1-.218.556.556,0,0,1-.71-.335.555.555,0,0,1,.334-.71,2.893,2.893,0,0,1,1.82.246.555.555,0,0,1,.286.73A.555.555,0,0,1,2049.37-205.1Z" transform="translate(-2047.407 206.489)"/></g><g transform="translate(44.884 12.906)"><path class="b" d="M2058.313-197.7a1.382,1.382,0,0,1-.363-.048,1.32,1.32,0,0,1-.9-.823,35.635,35.635,0,0,1-1.351-5.739.555.555,0,0,1,.452-.641.557.557,0,0,1,.641.452,33.543,33.543,0,0,0,1.3,5.542.22.22,0,0,0,.151.138.243.243,0,0,0,.216-.046l.922-.606a20.727,20.727,0,0,0,1.929-1.52,20.079,20.079,0,0,0,2.614-2.908.555.555,0,0,1,.778-.1.555.555,0,0,1,.1.778,21.068,21.068,0,0,1-2.762,3.066,21.681,21.681,0,0,1-2.053,1.614l-.876.573A1.274,1.274,0,0,1,2058.313-197.7Z" transform="translate(-2055.693 204.954)"/></g><g transform="translate(33.663 21.487)"><path d="M2056.99-187.355a15.789,15.789,0,0,1-2.448-.26c-.307-.05-.577-.093-.786-.115-2.619-.212-5.274-.619-7.841-1.014-1.3-.2-2.6-.4-3.894-.574a1.627,1.627,0,0,1-1.465-1.354,2.344,2.344,0,0,1,1.191-2.387,3.352,3.352,0,0,1,2.478-.112c.21.048.423.1.64.129,3.131.479,6.259.833,9.283,1.175l.206.022c2.087.221,4.566.637,5.215,1.9a1.568,1.568,0,0,1-.1,1.559h0A2.655,2.655,0,0,1,2056.99-187.355Zm-14.014-4.891a1.48,1.48,0,0,0-.711.169,1.244,1.244,0,0,0-.615,1.211.526.526,0,0,0,.52.448c1.3.176,2.607.377,3.914.577,2.547.391,5.181.8,7.774,1,.238.024.529.071.859.124,1.09.175,3.359.541,3.792-.221h0c.175-.309.1-.446.074-.5-.209-.407-1.133-.963-4.346-1.3l-.213-.023c-3.035-.343-6.174-.7-9.326-1.18-.243-.037-.483-.091-.718-.144A4.72,4.72,0,0,0,2042.976-192.246Z" transform="translate(-2040.526 193.356)"/></g><g transform="translate(51.872 26.906)"><path class="i" d="M2065.138-185.987s5.918-1.011,8.116,6.566C2073.254-179.421,2065.05-179.406,2065.138-185.987Z" transform="translate(-2065.137 186.032)"/></g><g transform="translate(53.239 19.702)"><path class="i" d="M2075.877-195.579s-5.739-1.763-8.892,5.47C2066.985-190.109,2075.119-189.04,2075.877-195.579Z" transform="translate(-2066.985 195.768)"/></g><g transform="translate(51.747 25.261)"><path d="M2072.778-181.242c-.2,0-4-.033-6.238-2.293a5.549,5.549,0,0,1-1.57-4.139l.007-.462.455-.078c.056-.013,5.8-.906,7.882,6.262l.205.708h-.74Zm-6.684-5.917a4.341,4.341,0,0,0,1.232,2.84A7.978,7.978,0,0,0,2072-182.4C2070.412-186.815,2067.284-187.194,2066.094-187.159Z" transform="translate(-2064.969 188.255)"/></g><g transform="translate(52.098 19.062)"><path d="M2066.184-189.621h-.741l.2-.708c2.08-7.166,7.827-6.272,7.883-6.262l.455.077.007.462a5.554,5.554,0,0,1-1.569,4.139C2070.188-189.654,2066.388-189.621,2066.184-189.621Zm6.6-5.915c-1.257,0-4.273.474-5.818,4.753a7.974,7.974,0,0,0,4.675-1.915,4.344,4.344,0,0,0,1.232-2.837Z" transform="translate(-2065.443 196.633)"/></g><g transform="translate(33.358 50.632)"><path class="j" d="M2040.232-144.027s4.168-15.072,10.253-8.092-5.969,15.4-5.969,15.4S2039.269-135.061,2040.232-144.027Z" transform="translate(-2040.113 153.964)"/></g></g><g transform="translate(2039.911 -184.116)"><path class="k" d="M2073-134.934" transform="translate(-2072.996 134.934)"/></g><g transform="translate(1946.666 -172.171)"><g transform="translate(0 1.389)"><path class="e" d="M1946.97-90.758v16.634c12.552-1.984,22.234-11.5,26.044-21.744.665-1.786,3.54-21.3,3.177-21.216-14.955,3.341-27.017,12.6-29.221,26.327" transform="translate(-1946.97 117.084)"/></g><g transform="translate(0.678 1.41)"><path d="M1948.441-74.222a.556.556,0,0,1-.547-.46.555.555,0,0,1,.453-.641c10.049-1.745,18.917-9.889,22.594-20.75.531-1.572,2.509-16.439,2.778-19.714-13.744,3.6-22.966,12.88-24.728,24.936a.551.551,0,0,1-.63.469.555.555,0,0,1-.469-.629c1.859-12.72,11.673-22.45,26.251-26.028a.574.574,0,0,1,.55.167c.211.23.378.412-.951,10.214-.6,4.443-1.422,9.974-1.75,10.941-3.8,11.24-13.011,19.674-23.456,21.487A.522.522,0,0,1,1948.441-74.222Z" transform="translate(-1947.886 117.056)"/></g><g transform="translate(0.678 1.411)"><path d="M1948.441-76.537a.554.554,0,0,1-.3-.09.555.555,0,0,1-.159-.769l23.969-36.566c-9.462,8.862-22.867,34.344-23.014,34.625a.554.554,0,0,1-.749.235.555.555,0,0,1-.234-.749c.666-1.272,16.411-31.2,26.034-37.123a.558.558,0,0,1,.689.086.554.554,0,0,1,.065.691L1948.9-76.788A.551.551,0,0,1,1948.441-76.537Z" transform="translate(-1947.886 117.055)"/></g><g transform="translate(19.417 11.346)"><path d="M1973.768-101.631a.556.556,0,0,1-.549-.474.556.556,0,0,1,.468-.63l5.988-.886a.552.552,0,0,1,.63.468.555.555,0,0,1-.468.63l-5.988.886A.61.61,0,0,1,1973.768-101.631Z" transform="translate(-1973.213 103.627)"/></g><g transform="translate(18.123 13.79)"><path d="M1972.018-98.8a.553.553,0,0,1-.553-.52.555.555,0,0,1,.518-.589l6.589-.418a.556.556,0,0,1,.589.519.555.555,0,0,1-.518.589l-6.589.418Z" transform="translate(-1971.464 100.324)"/></g><g transform="translate(15.964 16.981)"><path d="M1969.1-94.079a.554.554,0,0,1-.551-.5.554.554,0,0,1,.5-.607l8.315-.823a.553.553,0,0,1,.607.5.556.556,0,0,1-.5.607l-8.314.823Z" transform="translate(-1968.546 96.012)"/></g><g transform="translate(11.792 23.864)"><path d="M1974.706-85.6h-11.243a.555.555,0,0,1-.555-.555.555.555,0,0,1,.555-.555h11.243a.555.555,0,0,1,.555.555A.555.555,0,0,1,1974.706-85.6Z" transform="translate(-1962.908 86.708)"/></g><g transform="translate(10.166 26.345)"><path d="M1972.859-82h-.012l-11.595-.245a.555.555,0,0,1-.543-.566.57.57,0,0,1,.566-.544l11.595.245a.556.556,0,0,1,.544.566A.556.556,0,0,1,1972.859-82Z" transform="translate(-1960.71 83.355)"/></g><g transform="translate(7.777 30.444)"><path d="M1969.459-76.351h-.018l-11.422-.354a.555.555,0,0,1-.538-.572.558.558,0,0,1,.573-.537l11.422.354a.556.556,0,0,1,.538.572A.556.556,0,0,1,1969.459-76.351Z" transform="translate(-1957.482 77.815)"/></g><g transform="translate(14.441 19.038)"><path d="M1967.042-91.336a.555.555,0,0,1-.552-.511.555.555,0,0,1,.509-.6l9.837-.787a.561.561,0,0,1,.6.508.556.556,0,0,1-.509.6l-9.837.787Z" transform="translate(-1966.488 93.232)"/></g><g transform="translate(12.245 7.992)"><path d="M1966.271-99.832a.556.556,0,0,1-.531-.394l-2.2-7.218a.555.555,0,0,1,.369-.693.554.554,0,0,1,.692.37l2.2,7.218a.556.556,0,0,1-.369.693A.562.562,0,0,1,1966.271-99.832Z" transform="translate(-1963.52 108.161)"/></g><g transform="translate(9.774 10.042)"><path d="M1963.206-96.728a.556.556,0,0,1-.528-.382l-2.471-7.553a.555.555,0,0,1,.354-.7.555.555,0,0,1,.7.354l2.472,7.553a.555.555,0,0,1-.354.7A.543.543,0,0,1,1963.206-96.728Z" transform="translate(-1960.179 105.39)"/></g><g transform="translate(7.67 12.896)"><path d="M1960.817-92.2a.552.552,0,0,1-.295-.085.555.555,0,0,1-.219-.679c.029-.717-1.48-4.569-2.919-7.783a.556.556,0,0,1,.28-.734.557.557,0,0,1,.733.28c3.488,7.789,3.053,8.481,2.891,8.741A.556.556,0,0,1,1960.817-92.2Zm-.516-.737Zm.046-.113h0Z" transform="translate(-1957.336 101.533)"/></g><g transform="translate(6.138 13.998)"><path d="M1958.885-89.563a.556.556,0,0,1-.528-.383l-3.064-9.369a.555.555,0,0,1,.355-.7.554.554,0,0,1,.7.355l3.064,9.369a.555.555,0,0,1-.355.7A.542.542,0,0,1,1958.885-89.563Z" transform="translate(-1955.266 100.043)"/></g><g transform="translate(3.801 17.595)"><path d="M1955.295-83.665a.556.556,0,0,1-.538-.419l-2.633-10.406a.555.555,0,0,1,.4-.675.557.557,0,0,1,.674.4l2.633,10.407a.554.554,0,0,1-.4.674A.537.537,0,0,1,1955.295-83.665Z" transform="translate(-1952.107 95.182)"/></g><g transform="translate(0.946 25.457)"><path d="M1951.012-75.145a.553.553,0,0,1-.536-.412l-2.208-8.3a.555.555,0,0,1,.394-.678.552.552,0,0,1,.678.394l2.208,8.3a.556.556,0,0,1-.394.679A.56.56,0,0,1,1951.012-75.145Z" transform="translate(-1948.249 84.556)"/></g><g transform="translate(14.627 6.363)"><path d="M1968.63-103.383a.556.556,0,0,1-.541-.432l-1.336-5.869a.555.555,0,0,1,.417-.664.555.555,0,0,1,.664.418l1.337,5.869a.555.555,0,0,1-.417.664A.559.559,0,0,1,1968.63-103.383Z" transform="translate(-1966.739 110.363)"/></g><g transform="translate(4.684 34.709)"><path d="M1965.135-70.941h-11.28a.555.555,0,0,1-.555-.555.555.555,0,0,1,.555-.555h11.28a.555.555,0,0,1,.555.555A.555.555,0,0,1,1965.135-70.941Z" transform="translate(-1953.301 72.051)"/></g><g transform="translate(3.235 36.92)"><path d="M1962.271-67.953H1951.9a.555.555,0,0,1-.555-.555.555.555,0,0,1,.555-.555h10.374a.555.555,0,0,1,.555.555A.555.555,0,0,1,1962.271-67.953Z" transform="translate(-1951.342 69.063)"/></g><g transform="translate(24.836 0)"><path class="f" d="M1983.063-115.929c1.4-1.168,1.592-2.11.687-2.8-.935-.58-1.79-.094-2.484,1.6l-.729,2.731A17.859,17.859,0,0,0,1983.063-115.929Z" transform="translate(-1980.537 118.962)"/></g><g transform="translate(23.702 0.003)"><path d="M1979.56-113.287a.556.556,0,0,1-.356-.129.556.556,0,0,1-.181-.57l.729-2.73c.508-1.251,1.086-1.937,1.791-2.165a1.769,1.769,0,0,1,1.522.239,1.775,1.775,0,0,1,.815,1.395,3.145,3.145,0,0,1-1.439,2.3.419.419,0,0,1-.042.032l-.1.069a17.711,17.711,0,0,1-2.5,1.5A.546.546,0,0,1,1979.56-113.287Zm2.493-4.564a.551.551,0,0,0-.168.027c-.208.067-.624.347-1.083,1.463l-.376,1.42c.428-.26.832-.536,1.247-.82l.078-.053c.9-.752,1.024-1.2,1.02-1.408,0-.064-.005-.256-.334-.506A.729.729,0,0,0,1982.052-117.851Zm.033,2.48h0Z" transform="translate(-1979.005 118.959)"/></g></g><g transform="translate(1945.803 -325.181)"><path d="M2073.8-125.181h-128v-200h128Zm-125.04-2.966h122.081V-322.215H1948.763Z" transform="translate(-1945.803 325.181)"/></g></g></svg>