<svg xmlns="http://www.w3.org/2000/svg" width="128" height="200" viewBox="0 0 128 200"><defs><style>.a{fill:#fff;}.b{fill:#170000;}.c{fill:#da003a;}.d{fill:#4fad28;}.e{fill:#231815;}.f{fill:#c21823;}.g{fill:#ffb4c0;}</style></defs><rect class="a" width="125.031" height="197.031" transform="translate(1.484 1.484)"/><path d="M138.88,210.85h-128v-200h128ZM13.84,207.884H135.92V13.816H13.84Z" transform="translate(-10.88 -10.85)"/><path class="b" d="M32.937,26.091a3.451,3.451,0,0,1,1.284,1.573,5.678,5.678,0,0,1,.43,2.227,7.815,7.815,0,0,1-3.021,6.235,6.539,6.539,0,0,1-2.85,1.269l-.3-.631A6.146,6.146,0,0,0,31.3,34.931a6.791,6.791,0,0,0,1.484-2.969A3.288,3.288,0,0,1,30.376,33a3.57,3.57,0,0,1-1.811-.445A3.028,3.028,0,0,1,27.378,31.3,4.1,4.1,0,0,1,27,29.446a4.164,4.164,0,0,1,.468-1.952,3.711,3.711,0,0,1,1.351-1.432,3.845,3.845,0,0,1,2.071-.542,3.711,3.711,0,0,1,2.049.572Zm-.868,5.641a2.048,2.048,0,0,0,.868-.809l.045-.683a7.11,7.11,0,0,0-.49-2.88,1.93,1.93,0,0,0-2.917-.661,2.486,2.486,0,0,0-.742,1.069,3.882,3.882,0,0,0-.238,1.381,3.711,3.711,0,0,0,.557,2.227,1.8,1.8,0,0,0,1.484.742,2.627,2.627,0,0,0,1.462-.386Z" transform="translate(-15.035 -14.631)"/><path class="c" d="M164.8,23.048a3.05,3.05,0,0,0-2.672,1.291,3.021,3.021,0,0,0-2.657-1.291,3.57,3.57,0,0,0-3.711,3.77,5.01,5.01,0,0,0,.742,2.716,12.907,12.907,0,0,0,3.192,3.132c.623.475,1.2.883,1.581,1.136.742.482.742.49.831.49h0c.082,0,.134,0,.824-.49.379-.252.957-.653,1.581-1.128a12.84,12.84,0,0,0,3.2-3.14,4.988,4.988,0,0,0,.742-2.716,3.57,3.57,0,0,0-3.652-3.77Z" transform="translate(-48.629 -13.993)"/><path class="d" d="M84.782,104.981c4.453,1.87,6.45,7.1,6.45,7.1s-5.2,2.227-9.589.349-6.442-7.1-6.442-7.1S80.358,103.118,84.782,104.981Z" transform="translate(-27.632 -34.995)"/><path class="e" d="M86.7,112.517a9.159,9.159,0,0,1-3.563-.675c-3.9-1.64-5.656-6.1-5.73-6.294a.386.386,0,0,1,.2-.475c.186-.082,4.617-1.937,8.506-.3s5.648,6.1,5.722,6.294a.371.371,0,0,1-.2.475,13.82,13.82,0,0,1-4.936.972Zm-8.446-6.9c.482,1.054,2.167,4.268,5.2,5.537s6.48.23,7.578-.163c-.49-1.054-2.175-4.275-5.2-5.537h0C82.813,104.189,79.325,105.228,78.249,105.622Z" transform="translate(-28.198 -34.96)"/><path class="e" d="M91.471,111.907a.319.319,0,0,1-.141,0L77.6,106.118a.371.371,0,1,1,.282-.683l13.738,5.789a.379.379,0,0,1,.2.482.386.386,0,0,1-.349.2Z" transform="translate(-28.186 -35.293)"/><path class="d" d="M101.423,97.711c-3.229,3.555-2.858,9.159-2.858,9.159s5.611-.163,8.84-3.711S110.263,94,110.263,94,104.652,94.141,101.423,97.711Z" transform="translate(-33.705 -32.35)"/><path class="e" d="M98.338,106.519a.364.364,0,0,1-.371-.349c0-.2-.3-4.988,2.538-8.12s7.637-3.3,7.838-3.31a.379.379,0,0,1,.379.349c0,.2.3,5-2.538,8.12s-7.637,3.3-7.838,3.31Zm9.649-11.007c-1.158.1-4.75.631-6.94,3.043s-2.36,6.027-2.316,7.192c1.158-.1,4.75-.623,6.94-3.036s2.323-6.034,2.323-7.2Z" transform="translate(-33.549 -32.541)"/><path class="e" d="M98.34,106.526a.371.371,0,0,1-.275-.623l10.012-11.029a.379.379,0,0,1,.527,0,.371.371,0,0,1,0,.527l-9.99,11.007A.371.371,0,0,1,98.34,106.526Z" transform="translate(-33.551 -32.548)"/><path class="c" d="M91.31,103.447a3.615,3.615,0,0,0,2.9-2.019,3.629,3.629,0,0,0,3.384,1.024,4.268,4.268,0,0,0,3.644-5.144,6.034,6.034,0,0,0-1.381-3.058,15.237,15.237,0,0,0-4.349-3.1c-.824-.445-1.581-.816-2.071-1.047-.943-.438-.98-.438-1.076-.423h0c-.1,0-.156.052-.883.742-.393.371-1,.95-1.655,1.625a15.334,15.334,0,0,0-3.184,4.3,5.975,5.975,0,0,0-.364,3.34,4.268,4.268,0,0,0,5.032,3.756Z" transform="translate(-30.491 -31.232)"/><path class="e" d="M88.749,103.378A4.587,4.587,0,0,1,84.1,99.237a6.257,6.257,0,0,1,.386-3.533,15.587,15.587,0,0,1,3.229-4.416c.653-.683,1.269-1.269,1.67-1.648.742-.7.861-.787,1.084-.824s.356,0,1.306.453c.49.23,1.254.6,2.093,1.054a15.586,15.586,0,0,1,4.453,3.192A6.272,6.272,0,0,1,99.8,96.75a4.617,4.617,0,0,1-3.926,5.559,4.052,4.052,0,0,1-3.347-.794,4.03,4.03,0,0,1-2.969,1.789h0A5.137,5.137,0,0,1,88.749,103.378ZM90.59,89.544s-.43.416-.675.646c-.393.364-.995.943-1.633,1.611a14.844,14.844,0,0,0-3.11,4.179,5.641,5.641,0,0,0-.349,3.147,4.082,4.082,0,0,0,1.759,2.9,4.231,4.231,0,0,0,2.872.557h0a3.273,3.273,0,0,0,2.627-1.818.379.379,0,0,1,.609-.089,3.281,3.281,0,0,0,3.05.891,3.911,3.911,0,0,0,3.333-4.72,5.559,5.559,0,0,0-1.3-2.88,14.845,14.845,0,0,0-4.231-3.013c-.831-.445-1.581-.809-2.056-1.032C91.183,89.8,90.679,89.566,90.59,89.544Z" transform="translate(-29.922 -31.007)"/><path class="d" d="M46.366,71.156c3.318,3.436,3.088,9.077,3.088,9.077s-5.611,0-8.907-3.5-3.088-9.077-3.088-9.077S43.055,67.682,46.366,71.156Z" transform="translate(-17.799 -25.539)"/><path class="e" d="M49.992,79.889h0c-.208,0-5-.059-7.919-3.11s-2.761-7.845-2.754-8.053a.349.349,0,0,1,.371-.356c.208,0,5,.052,7.919,3.11s2.761,7.845,2.754,8.053A.371.371,0,0,1,49.992,79.889ZM40.061,69.134c0,1.158.3,4.78,2.546,7.133s5.856,2.783,7.014,2.858c0-1.158-.289-4.78-2.546-7.133h0C44.819,69.632,41.219,69.208,40.061,69.134Z" transform="translate(-18.283 -25.722)"/><path class="e" d="M49.991,79.887a.386.386,0,0,1-.267-.119L39.422,69a.371.371,0,0,1,0-.527.364.364,0,0,1,.52,0L50.258,79.227a.379.379,0,0,1,0,.527.4.4,0,0,1-.267.134Z" transform="translate(-18.282 -25.721)"/><path class="d" d="M62.9,72.013c-4.372,2-6.257,7.266-6.257,7.266s5.2,2.078,9.589.1,6.264-7.266,6.264-7.266S67.3,70.031,62.9,72.013Z" transform="translate(-22.798 -26.443)"/><path class="e" d="M61.419,79.6a13.68,13.68,0,0,1-4.661-.854.371.371,0,0,1-.215-.468c.074-.193,1.715-4.7,5.559-6.442h0c3.852-1.737,8.32,0,8.513.082a.371.371,0,0,1,.208.468c-.067.193-1.707,4.7-5.559,6.442A9.367,9.367,0,0,1,61.419,79.6Zm-4.038-1.418c1.106.364,4.609,1.314,7.578,0s4.572-4.6,5.025-5.67c-1.106-.364-4.6-1.306-7.571,0s-4.572,4.6-5.032,5.671Z" transform="translate(-22.766 -26.418)"/><path class="e" d="M56.873,79.06a.364.364,0,0,1-.334-.223.379.379,0,0,1,.186-.49l13.582-6.138a.379.379,0,0,1,.49.186.371.371,0,0,1-.186.49L57.044,79.023a.4.4,0,0,1-.171.037Z" transform="translate(-22.762 -26.706)"/><path class="c" d="M51.684,72.847a3.652,3.652,0,0,0,3.466-.7,3.637,3.637,0,0,0,2.694,2.286,4.275,4.275,0,0,0,5.388-3.273,5.938,5.938,0,0,0-.052-3.355,15.126,15.126,0,0,0-2.754-4.579c-.579-.742-1.128-1.373-1.484-1.781-.69-.742-.742-.787-.824-.816h0a3.976,3.976,0,0,0-1.1.319c-.512.178-1.3.468-2.167.831a15.193,15.193,0,0,0-4.631,2.679,5.975,5.975,0,0,0-1.663,2.917,4.275,4.275,0,0,0,3.125,5.47Z" transform="translate(-20.64 -23.722)"/><path class="e" d="M57.545,73.822a5.463,5.463,0,0,1-1.3-.163A4.023,4.023,0,0,1,53.5,71.6a4.06,4.06,0,0,1-3.414.475h0a4.862,4.862,0,0,1-2.843-1.959,4.735,4.735,0,0,1-.564-3.956,6.272,6.272,0,0,1,1.759-3.088,15.408,15.408,0,0,1,4.75-2.761c.868-.364,1.67-.661,2.19-.846.965-.341,1.1-.379,1.314-.327s.327.148,1.024.935c.356.408.913,1.054,1.484,1.8a15.5,15.5,0,0,1,2.82,4.706,6.338,6.338,0,0,1,.052,3.548,4.557,4.557,0,0,1-4.527,3.7Zm-3.9-3.177h.089a.379.379,0,0,1,.26.238,3.273,3.273,0,0,0,2.434,2.049,3.911,3.911,0,0,0,4.936-2.969,5.619,5.619,0,0,0-.045-3.169,15.052,15.052,0,0,0-2.687-4.453c-.579-.742-1.121-1.366-1.484-1.766-.223-.245-.594-.661-.668-.742s-.557.215-.868.327c-.5.178-1.291.468-2.145.824a14.651,14.651,0,0,0-4.513,2.605,5.529,5.529,0,0,0-1.566,2.746,4.045,4.045,0,0,0,.453,3.355,4.186,4.186,0,0,0,2.42,1.655,3.266,3.266,0,0,0,3.132-.616A.371.371,0,0,1,53.649,70.645Z" transform="translate(-20.151 -23.33)"/><path class="d" d="M90.479,82.737c4.453,1.863,6.442,7.1,6.442,7.1s-5.158,2.227-9.582.341-6.45-7.1-6.45-7.1S86.048,80.852,90.479,82.737Z" transform="translate(-29.114 -29.241)"/><path class="e" d="M92.386,90.247a9.144,9.144,0,0,1-3.563-.668c-3.9-1.648-5.656-6.108-5.722-6.3a.356.356,0,0,1,.2-.468c.186-.082,4.609-1.945,8.5-.3h0c3.9,1.64,5.648,6.108,5.722,6.294a.364.364,0,0,1-.2.475,13.642,13.642,0,0,1-4.936.972ZM83.939,83.36c.482,1.054,2.167,4.268,5.2,5.529s6.472.23,7.571-.163c-.482-1.054-2.167-4.268-5.2-5.537h0C88.511,81.957,85.038,82.966,83.939,83.36Z" transform="translate(-29.68 -29.203)"/><path class="e" d="M97.179,89.643a.356.356,0,0,1-.148,0L83.3,83.861a.371.371,0,0,1-.2-.49.386.386,0,0,1,.49-.2L97.32,88.96a.379.379,0,0,1,.2.49.371.371,0,0,1-.341.193Z" transform="translate(-29.679 -29.541)"/><path class="d" d="M107.115,75.426c-3.229,3.555-2.85,9.151-2.85,9.151s5.6-.163,8.832-3.711S115.94,71.7,115.94,71.7,110.344,71.871,107.115,75.426Z" transform="translate(-35.189 -26.584)"/><path class="e" d="M104.028,84.251a.371.371,0,0,1-.371-.341c0-.208-.3-5,2.538-8.12s7.637-3.3,7.838-3.31a.4.4,0,0,1,.386.341c0,.208.3,5-2.546,8.12s-7.63,3.31-7.838,3.31Zm9.649-11.007c-1.158.111-4.75.631-6.94,3.043s-2.36,6.034-2.353,7.2c1.158-.111,4.743-.631,6.932-3.043s2.375-6.034,2.368-7.2Z" transform="translate(-35.03 -26.785)"/><path class="e" d="M104.034,84.256a.371.371,0,0,1-.252-.1.364.364,0,0,1,0-.52L113.8,72.6a.371.371,0,0,1,.549.5l-10.02,11.037a.371.371,0,0,1-.3.119Z" transform="translate(-35.037 -26.79)"/><path class="c" d="M97,81.217a3.652,3.652,0,0,0,2.909-2.026,3.607,3.607,0,0,0,3.377,1.032,4.275,4.275,0,0,0,3.644-5.144,5.938,5.938,0,0,0-1.381-3.065,15.29,15.29,0,0,0-4.342-3.1c-.831-.445-1.588-.809-2.078-1.039-.943-.438-.972-.438-1.076-.423h0c-.1,0-.163.059-.883.742-.4.364-1.009.943-1.655,1.625a15.126,15.126,0,0,0-3.184,4.3,5.938,5.938,0,0,0-.371,3.34A4.275,4.275,0,0,0,97,81.217Z" transform="translate(-31.971 -25.484)"/><path class="e" d="M94.447,81.106a4.617,4.617,0,0,1-4.661-4.142,6.316,6.316,0,0,1,.386-3.533,15.49,15.49,0,0,1,3.266-4.453c.653-.683,1.269-1.269,1.67-1.64.742-.742.854-.794,1.076-.831s.364,0,1.306.453c.49.23,1.254.6,2.093,1.054a15.587,15.587,0,0,1,4.453,3.192,6.368,6.368,0,0,1,1.484,3.243,4.8,4.8,0,0,1-.935,3.889,4.891,4.891,0,0,1-3.021,1.677,4.045,4.045,0,0,1-3.347-.8,4.045,4.045,0,0,1-2.969,1.8h0a5.114,5.114,0,0,1-.8.1Zm.742-.438Zm1.076-13.36s-.408.4-.668.638c-.393.364-1,.943-1.64,1.611a14.845,14.845,0,0,0-3.11,4.186,5.537,5.537,0,0,0-.341,3.14,4.023,4.023,0,0,0,1.752,2.9,4.2,4.2,0,0,0,2.88.557h0a3.273,3.273,0,0,0,2.627-1.811.367.367,0,0,1,.6-.1,3.273,3.273,0,0,0,3.05.913,4.164,4.164,0,0,0,2.605-1.455,4.06,4.06,0,0,0,.742-3.3,5.619,5.619,0,0,0-1.3-2.88A14.963,14.963,0,0,0,99.227,68.7c-.824-.445-1.573-.809-2.056-1.032a9.7,9.7,0,0,0-.891-.393Z" transform="translate(-31.405 -25.239)"/><path class="d" d="M47.979,107.513c4.379,1.982,6.264,7.266,6.264,7.266s-5.2,2.078-9.589.1-6.264-7.266-6.264-7.266S43.608,105.531,47.979,107.513Z" transform="translate(-18.045 -35.621)"/><path class="e" d="M50,115.107a9.367,9.367,0,0,1-3.845-.742c-3.852-1.744-5.492-6.249-5.559-6.442a.371.371,0,0,1,.208-.468c.193-.074,4.661-1.818,8.513-.082s5.485,6.249,5.559,6.442a.371.371,0,0,1-.215.468,13.731,13.731,0,0,1-4.661.824Zm-8.565-7.118c.453,1.069,2.056,4.327,5.025,5.67s6.472.393,7.578,0c-.46-1.069-2.063-4.327-5.032-5.67h0C46.033,106.676,42.53,107.641,41.431,107.99Z" transform="translate(-18.612 -35.608)"/><path class="e" d="M54.522,114.625a.393.393,0,0,1-.148,0l-13.582-6.138a.371.371,0,0,1,.3-.675l13.582,6.071a.379.379,0,0,1,.186.49.364.364,0,0,1-.341.252Z" transform="translate(-18.617 -35.913)"/><path class="c" d="M59.888,101.5a5.975,5.975,0,0,0-1.663-2.917,15.29,15.29,0,0,0-4.631-2.679c-.876-.364-1.663-.653-2.167-.839-.935-.327-1.009-.341-1.106-.319h0c-.1,0-.134,0-.816.816-.356.4-.905,1.039-1.484,1.781a15.267,15.267,0,0,0-2.754,4.572,5.938,5.938,0,0,0-.052,3.362,4.268,4.268,0,0,0,5.388,3.266,3.607,3.607,0,0,0,2.694-2.286,3.629,3.629,0,0,0,3.474.7,4.268,4.268,0,0,0,3.117-5.455Z" transform="translate(-19.765 -32.542)"/><path class="e" d="M50.613,107.964a4.565,4.565,0,0,1-4.542-3.711,6.3,6.3,0,0,1,.059-3.555,15.5,15.5,0,0,1,2.8-4.654c.594-.742,1.143-1.4,1.484-1.8.69-.787.779-.876,1-.935s.349,0,1.336.327c.52.186,1.314.482,2.182.846a15.319,15.319,0,0,1,4.75,2.761,6.309,6.309,0,0,1,1.766,3.088h0a4.624,4.624,0,0,1-3.407,5.938,4.06,4.06,0,0,1-3.414-.475,4.052,4.052,0,0,1-2.731,2,5.365,5.365,0,0,1-1.284.163ZM51.608,94c0,.037-.386.453-.6.742-.356.4-.9,1.032-1.484,1.766a14.725,14.725,0,0,0-2.687,4.453,5.656,5.656,0,0,0-.052,3.162,3.919,3.919,0,0,0,4.936,3.006,3.281,3.281,0,0,0,2.442-2.056.356.356,0,0,1,.252-.23.386.386,0,0,1,.341.082,3.281,3.281,0,0,0,3.132.616A3.911,3.911,0,0,0,60.8,100.5h0a5.67,5.67,0,0,0-1.566-2.754,14.919,14.919,0,0,0-4.513-2.6c-.854-.356-1.64-.646-2.152-.831A9.713,9.713,0,0,0,51.608,94Z" transform="translate(-19.986 -32.168)"/><path class="d" d="M61.676,104.676c-3.318,3.466-3.088,9.077-3.088,9.077s5.611,0,8.907-3.5,3.1-9.077,3.1-9.077S65,101.2,61.676,104.676Z" transform="translate(-23.3 -34.206)"/><path class="e" d="M58.381,113.409a.379.379,0,0,1-.371-.356c0-.208-.163-5,2.754-8.053h0c2.917-3.05,7.719-3.1,7.919-3.11a.341.341,0,0,1,.371.356c0,.208.171,5-2.746,8.053s-7.719,3.11-7.919,3.11Zm2.917-7.9c-2.227,2.353-2.516,5.938-2.546,7.133,1.165-.074,4.765-.5,7.021-2.858s2.516-5.938,2.538-7.133C67.153,102.728,63.554,103.159,61.3,105.512Z" transform="translate(-23.149 -34.389)"/><path class="e" d="M58.384,113.4a.379.379,0,0,1-.252-.1.371.371,0,0,1,0-.527L68.4,102a.371.371,0,1,1,.534.512L58.659,113.285a.364.364,0,0,1-.275.119Z" transform="translate(-23.153 -34.384)"/><path class="e" d="M133.746,157.339l-1.069-3.4-3.117,1.128A6.9,6.9,0,0,0,133.746,157.339Z" transform="translate(-41.76 -47.843)"/><path class="e" d="M133.552,157.7h-.059a7.422,7.422,0,0,1-4.557-2.472.542.542,0,0,1-.111-.482.571.571,0,0,1,.312-.379l3.162-1.15a.564.564,0,0,1,.438,0,.557.557,0,0,1,.282.327l1.061,3.407a.549.549,0,0,1-.1.52A.564.564,0,0,1,133.552,157.7Zm-3.177-2.605a6.346,6.346,0,0,0,2.368,1.321l-.616-1.952Z" transform="translate(-41.567 -47.645)"/><path class="b" d="M69.9,218.648a23.364,23.364,0,0,1-8.164-1.484c-14.5-5.374-14.681-7.148-14.9-9.2v-.238c-.141-1.195.223-2.731,1.373-3.273s2.575.059,4.26,1.811c2.739,2.843,4.832,1.959,5.418,1.611a25.784,25.784,0,0,1,1.818-5.693c1.848-3.963,4.453-5.893,7.489-5.6a25.621,25.621,0,0,1,7.845,2.227,26.765,26.765,0,0,1,2.531,1.418,14.616,14.616,0,0,0,3.711,1.87.557.557,0,0,1,.49.616.564.564,0,0,1-.616.5,13.784,13.784,0,0,1-4.2-2.034,24.606,24.606,0,0,0-2.4-1.351,23.891,23.891,0,0,0-7.563-2.086c-2.568-.26-4.713,1.418-6.368,4.965a24.916,24.916,0,0,0-1.774,5.641.527.527,0,0,1-.2.341s-3.162,2.449-7.073-1.6c-1.254-1.306-2.345-1.885-2.969-1.581s-.839,1.306-.742,2.138v.252c.163,1.551.334,3.147,14.184,8.283,14.332,5.314,27.336-6.212,27.462-6.331a.668.668,0,0,1,.223-.126,39.018,39.018,0,0,0,26.935-26.356.557.557,0,0,1,.416-.408,5.811,5.811,0,0,0,2.754-1.982.579.579,0,0,1,.482-.215,5.71,5.71,0,0,1,3.971,2.561,12.3,12.3,0,0,1,1.484,3.607,8.469,8.469,0,0,0,.9,2.3,2.034,2.034,0,0,0,.371-.423,25.444,25.444,0,0,0,2.716-5.307,3.956,3.956,0,0,0-.742-3.05c-1.774-2.4-5.938-3.021-6-3.028a.549.549,0,0,1-.453-.705,23.1,23.1,0,0,0,.839-3.822,22.458,22.458,0,0,0-.928-5.084.571.571,0,0,1,0-.453.557.557,0,0,1,.364-.267,14.26,14.26,0,0,0,5.648-3.615,8.52,8.52,0,0,0,2.865-5.633c-2.1-.586-6.739-1.566-8.417-.542-1.811,1.106-3.184,5.121-3.555,6.576a.594.594,0,0,1-.341.386.571.571,0,0,1-.512-.059c-2.041-1.373-3.711.631-3.763.742a.564.564,0,0,1-.542.193.549.549,0,0,1-.43-.386L111,155.4a6.614,6.614,0,0,0-5.834,4.3,8.12,8.12,0,0,0-.638,4.038,12.841,12.841,0,0,0,.43,2.041,11.741,11.741,0,0,1,.5,2.85c.067,4.4-1.581,5.1-4.1,5.656s-8.543-2.13-9.218-2.442h-.059a.549.549,0,0,1-.193-.742.512.512,0,0,1,.349-.275c.163-.141.816-.816,2.494-3.83a1.484,1.484,0,0,0,.156-1.284c-.557-1.7-4-3.444-6.546-4.609-4.936-2.227-9.01-1.484-9.582-.26a2.338,2.338,0,0,0-.082,2.345c1.195,1.982,5.938,2.561,7.7,2.613a.557.557,0,1,1,0,1.113c-.282,0-6.858-.252-8.61-3.147a3.414,3.414,0,0,1,0-3.414c.995-2.049,5.938-2.6,11.044-.26,4.453,2.041,6.6,3.615,7.147,5.27a2.627,2.627,0,0,1-.245,2.175,27.081,27.081,0,0,1-2.308,3.667c2.123.906,6.094,2.383,7.719,2.019,2.049-.453,3.288-.742,3.229-4.557a10.465,10.465,0,0,0-.468-2.575,15.063,15.063,0,0,1-.468-2.227,9.225,9.225,0,0,1,.742-4.594,7.714,7.714,0,0,1,7.17-4.965h.193a.557.557,0,0,1,.5.393l2.657,8.862a3.711,3.711,0,0,1,3.9-.616c.475-1.566,1.8-5.314,3.859-6.569,2.538-1.551,8.988.319,9.708.542a.564.564,0,0,1,.4.49,9.229,9.229,0,0,1-3.206,6.9,16.8,16.8,0,0,1-5.6,3.711,24.492,24.492,0,0,1,.816,4.817,17.651,17.651,0,0,1-.742,3.622c1.336.282,4.453,1.165,6.108,3.355a5.055,5.055,0,0,1,.92,3.934v.1a25.694,25.694,0,0,1-2.872,5.619c-.171.26-.705,1.032-1.484.913-.905-.141-1.277-1.388-1.789-3.1A11.875,11.875,0,0,0,123.384,184a5.062,5.062,0,0,0-2.88-2.071,6.88,6.88,0,0,1-2.85,2.041,40.164,40.164,0,0,1-27.506,26.809C89.176,211.634,80.618,218.648,69.9,218.648Zm22.764-47.887h.045a.082.082,0,0,0-.045.03Z" transform="translate(-20.545 -48.025)"/><path class="b" d="M58.889,208.566a7.756,7.756,0,0,1-5.092-1.781c-.52-.438-1.061-.861-1.611-1.284-3.563-2.783-7.608-5.938-6.064-13.56.141-.69,1.432-6.68,4.4-6.68h.059a2.345,2.345,0,0,1,1.87,1.009c1.076,1.484.957,4.06.653,5.121a7.452,7.452,0,0,0,.445,5.522,2.694,2.694,0,0,0,1.484,1.165c.445-1.87,2.034-7.927,4.594-10.324,3.192-2.969,9.456-2.932,12.721-.906,2.338,1.484,3.815,4.453,4.5,6.2,1.188-2.227,4.09-6.858,8.216-8.083a.549.549,0,0,1,.69.371.557.557,0,0,1-.371.69c-4.884,1.484-8.075,8.595-8.1,8.662a.572.572,0,0,1-.549.334.557.557,0,0,1-.5-.4c0-.045-1.529-5.01-4.453-6.836s-8.587-1.833-11.371.779-4.379,10.213-4.394,10.287a.549.549,0,0,1-.623.438,3.845,3.845,0,0,1-2.768-1.752c-1.158-1.789-1.121-4.52-.579-6.435a5.931,5.931,0,0,0-.482-4.164,1.239,1.239,0,0,0-1-.549h0c-1.484,0-2.82,3.362-3.31,5.76-1.4,6.954,2.026,9.649,5.663,12.469.549.43,1.106.861,1.633,1.306,2.969,2.494,6.828,1.165,6.873,1.15a.557.557,0,0,1,.371,1.047,9.151,9.151,0,0,1-2.9.438Z" transform="translate(-19.996 -55.874)"/><path class="b" d="M111.738,210.878a7.622,7.622,0,0,1-3.622-.816,2.761,2.761,0,0,1-1.6-2.457c.052-1.937,1.6-2.858,3.088-3.748s2.806-1.67,3.043-3.34a.616.616,0,0,1,.141-.3c-.371-.1-.742-.23-1.128-.371-3.333-1.247-4.342-3.756-3.852-5.685a3.333,3.333,0,0,1,3.778-2.568c.5.067,1.069.2,1.618.327l.831.186a18,18,0,0,0,2.472.327l4.453.275a3.831,3.831,0,0,1,3.392,1.759c1.262,2.264-.609,5.789-.69,5.938-.148.282-3.711,6.917-7.2,9.166A8.944,8.944,0,0,1,111.738,210.878Zm2-10.391a.557.557,0,0,1,0,.223c-.319,2.227-2.049,3.221-3.577,4.134-1.351.8-2.509,1.484-2.546,2.82a1.715,1.715,0,0,0,1.024,1.484,7.859,7.859,0,0,0,7.244-.46c3.258-2.086,6.784-8.684,6.821-8.751.468-.868,1.484-3.436.7-4.876a2.82,2.82,0,0,0-2.486-1.18l-4.5-.282a19.157,19.157,0,0,1-2.62-.341l-.861-.193c-.527-.119-1.069-.245-1.484-.3a2.227,2.227,0,0,0-2.553,1.729c-.364,1.484.475,3.37,3.169,4.379a12.547,12.547,0,0,0,2.308.631c3.318.557,4.654-.965,4.706-1.024a.557.557,0,0,1,.861.705c-.067.082-1.752,2.086-5.752,1.418Z" transform="translate(-35.794 -57.579)"/><path class="b" d="M98,182.15a.482.482,0,0,1-.141,0,3.384,3.384,0,0,1-2.5-1.982c-.809-2.034.7-4.765,1.381-5.841a14.028,14.028,0,0,1,1.4-1.781c.408-.46,1.1-1.239,1.039-1.484,0,0-.045-.111-.43-.26a.557.557,0,1,1,.393-1.039,1.566,1.566,0,0,1,1.113,1.032c.2.8-.453,1.536-1.277,2.472a13.619,13.619,0,0,0-1.306,1.64c-.46.742-1.915,3.236-1.284,4.839a2.331,2.331,0,0,0,1.715,1.314.557.557,0,0,1-.141,1.091Z" transform="translate(-32.802 -51.927)"/><path class="e" d="M137.826,165.239c-.876,2.605.69,5.6,3.874,4.617s4.765-1.559,4.765-1.559,8.706-3.169,8.907-10.205c0,0-5.871-1.566-7.571-1.084s-4.119,2.472-5.5,7.422a2.975,2.975,0,0,0-2.316-.52,9.872,9.872,0,0,0-2.16,1.329Z" transform="translate(-43.946 -48.618)"/><path class="e" d="M140.306,170.413a3.229,3.229,0,0,1-2.375-.98,4.505,4.505,0,0,1-.831-4.565.587.587,0,0,1,.178-.26,10.763,10.763,0,0,1,2.345-1.432,2.887,2.887,0,0,1,2.182.208c1.759-5.581,4.772-6.843,5.685-7.1,1.789-.512,7.244.913,7.86,1.076a.557.557,0,0,1,.416.557c-.245,7.333-8.907,10.577-9.307,10.71,0,0-1.625.586-4.795,1.573A4.744,4.744,0,0,1,140.306,170.413Zm-2.227-5.04a3.392,3.392,0,0,0,.616,3.281,2.434,2.434,0,0,0,2.613.475c3.132-.972,4.72-1.544,4.735-1.551s7.986-2.969,8.55-9.255c-2.227-.579-5.774-1.277-6.828-.972-.809.23-3.548,1.41-5.121,7.014a.549.549,0,0,1-.349.371.557.557,0,0,1-.5-.067,2.375,2.375,0,0,0-1.8-.453,8.811,8.811,0,0,0-1.885,1.158Z" transform="translate(-43.746 -48.426)"/><path class="e" d="M146.581,175.77s-5.819.208-8.112,2.227-2.279,5.648-2.279,5.648.4,7.511,2.175,9.114l5-5.938s3.808.935,4.127,3.355a9.456,9.456,0,0,0,1.388,4.119c.43.779.564,2.063,3.013-1.848s1.945-6.383-.148-7.7c-1.484-.92-3.83-2.7-5.685-2.36.067,0,.809-2.88.876-3.169A5.411,5.411,0,0,0,146.581,175.77Z" transform="translate(-43.586 -53.498)"/><path class="e" d="M149.379,195.52h-.059c-.586,0-.839-.557-1.009-.906,0-.074-.067-.148-.1-.223l-.134-.23a9.8,9.8,0,0,1-1.321-4.082c-.2-1.484-2.271-2.457-3.377-2.8l-4.772,5.685a.557.557,0,0,1-.386.193.527.527,0,0,1-.416-.141c-1.893-1.707-2.316-8.706-2.36-9.5,0-.186,0-3.882,2.464-6.086s8.216-2.4,8.461-2.412a.586.586,0,0,1,.534.334,6.012,6.012,0,0,1,.386,3.808c-.26,1.158-.46,1.937-.616,2.464a11.056,11.056,0,0,1,4.572,2.086l.609.393c1.484.95,3.548,3.31.327,8.469C150.655,195,149.958,195.52,149.379,195.52Zm-6.2-9.426a.408.408,0,0,1,.134,0c.171,0,4.186,1.061,4.542,3.822a8.7,8.7,0,0,0,1.188,3.674l.141.252c.045.082.089.178.141.267s.074.163.111.238a9.59,9.59,0,0,0,1.8-2.383c2.063-3.3,2.071-5.641,0-6.932l-.623-.408c-1.381-.9-3.273-2.138-4.669-1.885a.557.557,0,0,1-.646-.445.527.527,0,0,1,.067-.371c.134-.379.742-2.679.809-3.021a4.8,4.8,0,0,0-.171-2.761c-1.306.089-5.581.49-7.37,2.1-2.086,1.878-2.1,5.2-2.1,5.233.134,2.486.683,6.628,1.633,8.239l4.565-5.44A.542.542,0,0,1,143.174,186.094Z" transform="translate(-43.393 -53.305)"/><path class="a" d="M145.781,172.192a.557.557,0,0,1-.49-.289,7.037,7.037,0,0,0-1.321-1.009.557.557,0,0,1,.594-.943,6.338,6.338,0,0,1,1.7,1.41.557.557,0,0,1-.215.742A.5.5,0,0,1,145.781,172.192Z" transform="translate(-45.437 -51.959)"/><path class="a" d="M146.243,180.187a.741.741,0,0,1-.215-.037.557.557,0,0,1-.3-.742,7.161,7.161,0,0,0-.037-1.663.549.549,0,0,1,.49-.616.557.557,0,0,1,.616.49,6.472,6.472,0,0,1-.037,2.227.549.549,0,0,1-.512.341Z" transform="translate(-45.946 -53.837)"/><path class="a" d="M142.561,181.131a.564.564,0,0,1-.52-.349,2.16,2.16,0,0,0-.564-.854.564.564,0,0,1-.275-.742.557.557,0,0,1,.742-.275,2.835,2.835,0,0,1,1.136,1.484.549.549,0,0,1-.3.742.527.527,0,0,1-.215-.007Z" transform="translate(-44.771 -54.285)"/><path class="a" d="M139.981,172.931a.557.557,0,0,1-.512-.742,2.226,2.226,0,0,0,.193-1,.557.557,0,0,1,1.039-.4,2.872,2.872,0,0,1-.208,1.826A.564.564,0,0,1,139.981,172.931Z" transform="translate(-44.323 -52.106)"/><path class="e" d="M115.287,242.023a16.33,16.33,0,0,1-2.019-.126c-5.077-.653-10.948-3.993-11.875-9.79a8.714,8.714,0,0,1-.1-1.536.549.549,0,0,1,.572-.542.557.557,0,0,1,.542.572,7.162,7.162,0,0,0,.089,1.336c.809,5.2,6.212,8.253,10.888,8.855,4.1.527,9.2-.579,11.237-5.27a6.606,6.606,0,0,0-.549-6.1,3.845,3.845,0,0,0-1.343-1.232l-.193-.074a6.068,6.068,0,0,1-1.113,6.754c-2.6,2.494-6.8,1.648-8.483,1.173-3.325-.943-6.873-4.134-7.066-7.838a.557.557,0,0,1,.527-.586.564.564,0,0,1,.586.527c.163,3.169,3.377,6,6.257,6.828,1.484.423,5.2,1.188,7.422-.905,1.8-1.722,1.536-4.409.534-6.183a.69.69,0,0,1,.074-.846c.534-.549,1.967.163,1.982.163A4.847,4.847,0,0,1,125,228.8a7.637,7.637,0,0,1,.646,7.17C123.719,240.457,119.332,242.023,115.287,242.023Z" transform="translate(-34.447 -66.724)"/><path class="f" d="M134.945,193.5c2.776-1.343-1.633-5.062-2.546-5.893-2.642-2.4-5.27-4.787-7.808-7.3-.742-.779-1.277-1.781-2.538-1.9-1.484-.141-3.221,1.611-2,2.776,3.236,3.088,6.324,6.4,9.753,9.3C130.848,191.4,133.208,194.35,134.945,193.5Z" transform="translate(-39.207 -54.175)"/><path d="M135.345,192.971c-1.329,0-2.754-1.447-3.748-2.457-.215-.223-.408-.416-.564-.557-1.989-1.729-3.9-3.637-5.737-5.485-.928-.935-1.856-1.863-2.8-2.776a1.64,1.64,0,0,1-.379-1.967,2.36,2.36,0,0,1,2.382-1.217,3.325,3.325,0,0,1,2.063,1.38c.141.163.289.327.445.482,2.227,2.227,4.565,4.4,6.8,6.472l.148.141c1.559,1.418,3.318,3.229,3.088,4.631a1.588,1.588,0,0,1-1,1.21A1.775,1.775,0,0,1,135.345,192.971Zm-11.133-13.36a1.262,1.262,0,0,0-1.069.623.527.527,0,0,0,.156.668c.95.92,1.885,1.856,2.82,2.791,1.826,1.833,3.711,3.711,5.685,5.44.171.156.379.371.616.609.779.794,2.4,2.434,3.2,2.078h0c.319-.148.349-.3.356-.364.074-.453-.341-1.484-2.739-3.644l-.156-.141c-2.227-2.078-4.565-4.231-6.836-6.5-.171-.171-.334-.356-.49-.542a2.353,2.353,0,0,0-1.4-1.009Z" transform="translate(-39.804 -54.198)"/><path class="f" d="M139.318,197.72s5.381,2.7,2.657,10.131C141.975,207.851,135.332,202.99,139.318,197.72Z" transform="translate(-43.969 -59.166)"/><path class="f" d="M152.956,197.407s-3.585-4.832-10.435-.861C142.52,196.546,148.458,202.239,152.956,197.407Z" transform="translate(-45.149 -58.454)"/><path d="M143.153,206.563l-.6-.438c-.126-.1-3.214-2.39-3.711-5.559a5.567,5.567,0,0,1,1.188-4.283l.282-.364.416.208c.052,0,5.2,2.717,2.642,9.745Zm-2.486-9.2a4.409,4.409,0,0,0-.69,3.028,8,8,0,0,0,2.635,4.327C143.955,200.217,141.654,198.058,140.667,197.367Z" transform="translate(-44.163 -58.701)"/><path d="M146.774,198.418a10.428,10.428,0,0,1-5.47-1.93l-.594-.438.586-.453c5.938-4.557,10.05-.416,10.094-.371l.319.334-.267.371a5.581,5.581,0,0,1-3.711,2.412,5.741,5.741,0,0,1-.957.074Zm-4.149-2.4a7.95,7.95,0,0,0,4.913,1.232,4.357,4.357,0,0,0,2.687-1.559c-.957-.727-3.711-2.271-7.6.327Z" transform="translate(-44.679 -58.061)"/><path class="e" d="M119.62,213.081s-3.318-3.318-5.745-1.113-4.453,3.793-8.32,3.31-3.236-2.59-3.236-2.59-3.986,1.633-5.537,3.815-7.088,7.2-7.088,7.2-3.592,1.93-.111,3.34a16.966,16.966,0,0,0,6.049,1.351l4.936-3.466s6.888-2.531,8.164-3.251S119.449,215.07,119.62,213.081Z" transform="translate(-31.015 -62.661)"/><path class="e" d="M95.387,228.747a17.62,17.62,0,0,1-6.2-1.4c-1.195-.482-1.826-1.121-1.863-1.9-.067-1.239,1.484-2.227,1.856-2.412.542-.49,5.537-5.069,6.962-7.066,1.625-2.286,5.611-3.934,5.774-4.008a.557.557,0,0,1,.742.683.987.987,0,0,0,.171.742c.26.393.928.9,2.6,1.106,3.585.438,5.448-.972,7.875-3.177,2.227-2.026,5.24-.141,6.517,1.136a.557.557,0,0,1,.163.445c-.215,2.538-11.044,8.966-11.133,9.025-1.269.705-7.422,2.969-8.164,3.266l-4.921,3.474a.557.557,0,0,1-.3.1Zm6.2-15.408a12.98,12.98,0,0,0-4.55,3.281c-1.566,2.227-6.94,7.081-7.17,7.289a.431.431,0,0,1-.111.082c-.549.3-1.358.95-1.336,1.4,0,.3.445.631,1.18.928a17.071,17.071,0,0,0,5.641,1.314l4.787-3.37a.416.416,0,0,1,.126-.067c.067,0,6.865-2.524,8.112-3.214,2.382-1.321,9.708-6.235,10.51-7.919-.742-.638-3.073-2.412-4.75-.891-2.575,2.338-4.713,3.956-8.758,3.451-1.707-.208-2.85-.742-3.414-1.618a2.226,2.226,0,0,1-.267-.668Z" transform="translate(-30.823 -62.459)"/><path class="g" d="M78.172,198.871s14.97-9.233,17.227.876-17.256,8.164-17.256,8.164S71.009,205.469,78.172,198.871Z" transform="translate(-27.582 -58.469)"/><path class="d" d="M102.164,134.664c-1.677,4.505.742,9.567.742,9.567s5.151-2.227,6.836-6.732-.742-9.56-.742-9.56S103.849,130.137,102.164,134.664Z" transform="translate(-34.486 -41.127)"/><path class="e" d="M102.294,144.154a.371.371,0,0,1-.334-.208c-.089-.186-2.123-4.527-.646-8.483h0c1.484-3.956,5.871-5.938,6.056-5.982a.379.379,0,0,1,.482.186c.089.178,2.123,4.527.646,8.483s-5.871,5.893-6.056,5.975a.334.334,0,0,1-.148.03Zm-.282-8.432c-1.143,3.05,0,6.479.475,7.563,1.032-.534,4.179-2.345,5.314-5.4s0-6.487-.475-7.563C106.294,130.853,103.147,132.672,102.011,135.722Z" transform="translate(-34.278 -41.518)"/><path class="e" d="M102.691,144.149h-.126a.371.371,0,0,1-.223-.475l5.2-13.961a.371.371,0,1,1,.69.26l-5.2,13.961a.364.364,0,0,1-.341.215Z" transform="translate(-34.675 -41.513)"/><path class="d" d="M84.953,143.069c4.8.089,8.617,4.208,8.617,4.208s-3.971,3.963-8.773,3.874-8.617-4.208-8.617-4.208S80.151,142.973,84.953,143.069Z" transform="translate(-27.889 -45.035)"/><path class="e" d="M86.125,150.152h-.148c-4.223-.082-7.511-3.577-7.652-3.711a.371.371,0,0,1,0-.512c.141-.141,3.481-3.429,7.63-3.429h.156c4.223.082,7.511,3.577,7.645,3.711a.371.371,0,0,1,0,.52C93.644,146.864,90.281,150.152,86.125,150.152Zm-6.992-3.971c.846.8,3.6,3.162,6.858,3.221s6.1-2.182,6.969-2.969c-.839-.8-3.592-3.162-6.851-3.229h-.134c-3.2.015-5.982,2.219-6.843,2.976Z" transform="translate(-28.418 -44.888)"/><path class="e" d="M93.507,147.972h0l-14.9-.289a.371.371,0,0,1-.364-.379.393.393,0,0,1,.379-.364l14.9.289a.386.386,0,0,1,.364.379A.371.371,0,0,1,93.507,147.972Z" transform="translate(-28.423 -46.032)"/><path class="c" d="M97.5,133.265a5.937,5.937,0,0,0-2.679-2.026,15.089,15.089,0,0,0-5.314-.638c-.943,0-1.781.052-2.323.089-.987.059-1.061.082-1.136.141h0c-.082.067-.1.089-.43,1.076-.171.512-.423,1.314-.668,2.227a15.49,15.49,0,0,0-.742,5.292,6.019,6.019,0,0,0,1.284,3.11,4.26,4.26,0,0,0,6.235.876,3.637,3.637,0,0,0,1.581-3.162,3.6,3.6,0,0,0,3.459-.742,4.268,4.268,0,0,0,.735-6.242Z" transform="translate(-29.973 -41.807)"/><path class="e" d="M89.706,143.174h-.3a4.758,4.758,0,0,1-3.466-1.989,6.3,6.3,0,0,1-1.351-3.288,15.5,15.5,0,0,1,.742-5.433c.245-.913.5-1.722.675-2.227.334-1.032.371-1.113.549-1.254s.312-.156,1.358-.223c.542-.037,1.388-.082,2.338-.089a15.675,15.675,0,0,1,5.455.661,6.3,6.3,0,0,1,2.835,2.145h0a4.758,4.758,0,0,1,1.047,3.859,4.862,4.862,0,0,1-1.841,2.924,4.075,4.075,0,0,1-3.325.906,4.038,4.038,0,0,1-1.714,2.969A4.921,4.921,0,0,1,89.706,143.174Zm.839-13.783h-.3c-.935,0-1.766.052-2.3.082a6.014,6.014,0,0,0-.972.089c-.089.03-.178.594-.275.883-.171.512-.423,1.306-.668,2.227a15.03,15.03,0,0,0-.742,5.151,5.611,5.611,0,0,0,1.2,2.924,4.038,4.038,0,0,0,2.969,1.7,4.231,4.231,0,0,0,2.783-.92,3.281,3.281,0,0,0,1.432-2.85.386.386,0,0,1,.141-.319.349.349,0,0,1,.341-.052,3.288,3.288,0,0,0,3.117-.668,4.208,4.208,0,0,0,1.573-2.472,4.06,4.06,0,0,0-.905-3.273h0a5.633,5.633,0,0,0-2.524-1.908A14.414,14.414,0,0,0,90.545,129.391Z" transform="translate(-30.071 -41.309)"/><path class="d" d="M46.383,146.381c1.447,4.579-1.239,9.508-1.239,9.508s-5.025-2.5-6.472-7.081,1.247-9.508,1.247-9.508S44.943,141.8,46.383,146.381Z" transform="translate(-18.002 -44.065)"/><path class="e" d="M45.958,155.9a.341.341,0,0,1-.163-.045c-.186-.089-4.453-2.227-5.73-6.287s.995-8.261,1.091-8.439a.371.371,0,0,1,.49-.148c.186.089,4.453,2.227,5.73,6.287h0c1.269,4.03-.995,8.261-1.091,8.439A.378.378,0,0,1,45.958,155.9Zm-4.312-14.1c-.49,1.054-1.856,4.453-.876,7.526s4.023,5.084,5.025,5.671c.5-1.054,1.856-4.453.876-7.526s-4.023-5.062-5.025-5.648Z" transform="translate(-18.375 -44.49)"/><path class="e" d="M46.464,155.9a.379.379,0,0,1-.356-.26l-4.453-14.221a.387.387,0,0,1,.742-.223l4.453,14.221a.371.371,0,0,1-.245.46A.3.3,0,0,1,46.464,155.9Z" transform="translate(-18.884 -44.483)"/><path class="d" d="M60.175,155.688c-4.8-.156-8.825,3.748-8.825,3.748s3.756,4.171,8.558,4.335,8.825-3.756,8.825-3.756S64.977,155.852,60.175,155.688Z" transform="translate(-21.422 -48.297)"/><path class="e" d="M59.654,162.716h-.267c-4.223-.141-7.459-3.711-7.593-3.837a.371.371,0,0,1,0-.512c.148-.141,3.585-3.459,7.838-3.318s7.422,3.711,7.593,3.83a.378.378,0,0,1,0,.52C67.084,159.531,63.751,162.716,59.654,162.716ZM52.6,158.648c.831.816,3.555,3.214,6.813,3.325s6.131-2.108,7.014-2.865c-.831-.809-3.555-3.206-6.814-3.318s-6.131,2.1-7.014,2.858Z" transform="translate(-21.509 -48.131)"/><path class="e" d="M66.972,160.619h0l-14.889-.5a.371.371,0,0,1,.007-.742h0l14.9.5a.371.371,0,1,1,0,.742Z" transform="translate(-21.516 -49.248)"/><path class="c" d="M49.606,151.587a3.629,3.629,0,0,0,3.422.906,3.629,3.629,0,0,0,1.41,3.236,4.253,4.253,0,0,0,6.272-.549,5.849,5.849,0,0,0,1.44-3.036,15.178,15.178,0,0,0-.445-5.314c-.193-.928-.408-1.737-.549-2.227-.275-1-.289-1.032-.371-1.1h0c-.074-.067-.141-.089-1.128-.2-.534-.067-1.373-.156-2.308-.215a15.267,15.267,0,0,0-5.344.364,5.938,5.938,0,0,0-2.783,1.878,4.275,4.275,0,0,0,.386,6.257Z" transform="translate(-20.557 -45.02)"/><path class="e" d="M56.442,155.578a4.936,4.936,0,0,1-3.177-1.239,4.045,4.045,0,0,1-1.559-3.065,4.06,4.06,0,0,1-3.266-1.084,4.891,4.891,0,0,1-1.692-3.013,4.78,4.78,0,0,1,1.247-3.8,6.368,6.368,0,0,1,2.969-1.989,15.52,15.52,0,0,1,5.485-.379c.943.059,1.789.148,2.331.208,1.039.126,1.158.141,1.329.289s.223.282.5,1.291c.148.512.356,1.329.557,2.279a15.638,15.638,0,0,1,.453,5.463,6.309,6.309,0,0,1-1.529,3.206A4.7,4.7,0,0,1,56.442,155.578Zm-4.32-5.114a.408.408,0,0,1,.245.089.386.386,0,0,1,.126.327A3.251,3.251,0,0,0,53.77,153.8a3.911,3.911,0,0,0,5.752-.512,5.581,5.581,0,0,0,1.358-2.858,14.844,14.844,0,0,0-.445-5.2c-.208-.972-.43-1.818-.542-2.227s-.238-.854-.282-.935-.586-.059-.92-.1c-.534-.067-1.366-.156-2.286-.208a14.911,14.911,0,0,0-5.2.334,5.626,5.626,0,0,0-2.62,1.774,4.03,4.03,0,0,0-1.069,3.214,4.171,4.171,0,0,0,1.432,2.553h0a3.273,3.273,0,0,0,3.08.831Z" transform="translate(-20.213 -44.482)"/><path class="d" d="M163.883,240.3c-3.37,3.429-3.214,9.04-3.214,9.04s5.611.052,8.973-3.37,3.147-9.04,3.147-9.04S167.208,236.878,163.883,240.3Z" transform="translate(-49.896 -69.327)"/><path class="e" d="M160.464,248.991h0a.356.356,0,0,1-.364-.356c0-.208-.1-5,2.858-8.016h0c2.969-3.013,7.793-2.969,7.964-2.969a.371.371,0,0,1,.364.364c0,.2.1,5-2.857,8.016S160.924,248.991,160.464,248.991Zm10.05-10.614c-1.165.059-4.772.438-7.058,2.761h0c-2.279,2.323-2.6,5.938-2.642,7.1,1.165-.059,4.772-.445,7.058-2.768s2.6-5.93,2.642-7.1Zm-7.318,2.5Z" transform="translate(-49.75 -69.513)"/><path class="e" d="M160.432,248.98a.341.341,0,0,1-.26-.1.371.371,0,0,1,0-.527l10.45-10.628a.356.356,0,0,1,.52,0,.364.364,0,0,1,0,.52l-10.45,10.628A.349.349,0,0,1,160.432,248.98Z" transform="translate(-49.74 -69.502)"/><path class="d" d="M146.009,240.883c4.342,2.041,6.153,7.355,6.153,7.355s-5.24,2-9.589-.037-6.153-7.348-6.153-7.348S141.66,238.85,146.009,240.883Z" transform="translate(-43.576 -70.112)"/><path class="e" d="M148.067,248.491a9.449,9.449,0,0,1-3.993-.824c-3.822-1.8-5.4-6.324-5.47-6.517a.379.379,0,0,1,.223-.468c.186-.074,4.683-1.759,8.506,0h0c3.822,1.8,5.4,6.324,5.47,6.517a.371.371,0,0,1-.223.468,13.859,13.859,0,0,1-4.513.824Zm-8.624-7.237c.445,1.076,2,4.357,4.951,5.737s6.457.482,7.571.134c-.445-1.076-2-4.349-4.951-5.73h0C144.089,240.007,140.548,240.905,139.442,241.254Z" transform="translate(-44.135 -70.089)"/><path class="e" d="M152.452,248.007a.312.312,0,0,1-.163,0L138.8,241.683a.374.374,0,0,1,.319-.675l13.493,6.331a.364.364,0,0,1,.178.49A.379.379,0,0,1,152.452,248.007Z" transform="translate(-44.134 -70.369)"/><path class="c" d="M160.667,236.438a5.938,5.938,0,0,0-1.625-2.969,15.334,15.334,0,0,0-4.594-2.746c-.861-.371-1.648-.675-2.152-.861-.928-.341-1-.356-1.1-.334h0c-.1,0-.134.037-.831.809-.364.4-.92,1.032-1.484,1.759a15.163,15.163,0,0,0-2.813,4.535,5.938,5.938,0,0,0-.1,3.362,4.26,4.26,0,0,0,5.337,3.34,3.637,3.637,0,0,0,2.731-2.227,3.637,3.637,0,0,0,3.459.742,4.275,4.275,0,0,0,3.169-5.411Z" transform="translate(-46.057 -67.418)"/><path class="e" d="M151.345,242.765A4.557,4.557,0,0,1,146.787,239a6.272,6.272,0,0,1,.1-3.563,15.461,15.461,0,0,1,2.88-4.668c.594-.742,1.158-1.366,1.529-1.774.742-.8.794-.861,1.017-.913s.349,0,1.329.341c.512.186,1.3.49,2.175.868a15.586,15.586,0,0,1,4.713,2.828,6.3,6.3,0,0,1,1.714,3.11h0a4.624,4.624,0,0,1-3.488,5.871,4.075,4.075,0,0,1-3.407-.52,4.03,4.03,0,0,1-2.776,2.026,5.2,5.2,0,0,1-1.232.156Zm1.121-13.946s-.408.46-.616.69c-.364.4-.92,1.032-1.484,1.744a15.03,15.03,0,0,0-2.754,4.416,5.589,5.589,0,0,0-.089,3.162,3.911,3.911,0,0,0,4.891,3.065,3.273,3.273,0,0,0,2.472-2.019.334.334,0,0,1,.252-.223.379.379,0,0,1,.341.082,3.251,3.251,0,0,0,3.117.661,3.911,3.911,0,0,0,2.969-4.973,5.626,5.626,0,0,0-1.529-2.768,14.8,14.8,0,0,0-4.453-2.665c-.861-.371-1.633-.675-2.138-.854a9.464,9.464,0,0,0-.965-.319Z" transform="translate(-46.264 -67.043)"/><path class="d" d="M141.613,255.637c-3.362,3.429-3.214,9.055-3.214,9.055s5.611.059,8.981-3.362,3.214-9.04,3.214-9.04S144.983,252.216,141.613,255.637Z" transform="translate(-44.081 -73.287)"/><path class="e" d="M138.251,264.321h0a.379.379,0,0,1-.371-.364c0-.2-.1-5,2.865-8.008h0c2.969-3.013,7.778-2.969,7.957-2.969a.379.379,0,0,1,.371.364c0,.2.1,5-2.865,8.008S138.711,264.321,138.251,264.321Zm2.969-7.853c-2.286,2.323-2.6,5.938-2.642,7.1,1.158-.067,4.772-.445,7.051-2.768s2.605-5.938,2.642-7.1C147.113,253.767,143.506,254.145,141.22,256.468Z" transform="translate(-43.943 -73.465)"/><path class="e" d="M138.212,264.311a.4.4,0,0,1-.26-.1.371.371,0,0,1,0-.527l10.443-10.628a.373.373,0,1,1,.527.527L138.479,264.2A.379.379,0,0,1,138.212,264.311Z" transform="translate(-43.933 -73.455)"/><path class="d" d="M123.789,256.212c4.349,2.041,6.16,7.355,6.16,7.355s-5.24,2-9.589-.037-6.16-7.348-6.16-7.348S119.44,254.171,123.789,256.212Z" transform="translate(-37.789 -74.062)"/><path class="e" d="M125.856,263.813a9.315,9.315,0,0,1-3.993-.824c-3.83-1.789-5.411-6.324-5.47-6.517a.364.364,0,0,1,.215-.46c.193-.074,4.683-1.759,8.506,0s5.411,6.324,5.47,6.517a.364.364,0,0,1-.215.46A13.692,13.692,0,0,1,125.856,263.813Zm-8.632-7.229c.445,1.076,2,4.349,4.951,5.737s6.465.482,7.578.134c-.445-1.076-2-4.349-4.951-5.737h0C121.856,255.337,118.323,256.235,117.224,256.584Z" transform="translate(-38.351 -74.041)"/><path class="e" d="M130.235,263.336a.4.4,0,0,1-.156,0l-13.493-6.324a.371.371,0,0,1-.178-.5.364.364,0,0,1,.49-.178l13.493,6.331a.371.371,0,0,1-.156.705Z" transform="translate(-38.35 -74.321)"/><path class="c" d="M138.448,251.766a5.938,5.938,0,0,0-1.625-2.969,14.985,14.985,0,0,0-4.594-2.746c-.861-.379-1.648-.675-2.152-.861-.928-.349-1-.364-1.1-.334h0c-.1,0-.126,0-.831.809-.364.393-.92,1.024-1.484,1.759a15.23,15.23,0,0,0-2.813,4.535,5.937,5.937,0,0,0-.1,3.355,4.275,4.275,0,0,0,5.344,3.347,3.637,3.637,0,0,0,2.724-2.227,3.615,3.615,0,0,0,3.459.742,4.26,4.26,0,0,0,3.169-5.411Z" transform="translate(-40.224 -71.368)"/><path class="e" d="M129.145,258.1a4.676,4.676,0,0,1-2.227-.534,4.78,4.78,0,0,1-2.36-3.229,6.3,6.3,0,0,1,.1-3.555,15.691,15.691,0,0,1,2.88-4.661c.609-.742,1.165-1.381,1.529-1.774.705-.742.794-.861,1.017-.92s.349,0,1.329.341c.512.193,1.3.5,2.175.876a15.587,15.587,0,0,1,4.713,2.828,6.309,6.309,0,0,1,1.722,3.11,4.631,4.631,0,0,1-3.488,5.871,4.075,4.075,0,0,1-3.407-.52,4.045,4.045,0,0,1-2.783,2.019A4.934,4.934,0,0,1,129.145,258.1Zm1.113-13.954a7.946,7.946,0,0,1-.616.7c-.356.393-.906,1.009-1.484,1.744a14.889,14.889,0,0,0-2.746,4.409,5.685,5.685,0,0,0-.1,3.169,4.075,4.075,0,0,0,1.989,2.746,4.194,4.194,0,0,0,2.909.319,3.266,3.266,0,0,0,2.464-2.019.386.386,0,0,1,.26-.23.364.364,0,0,1,.334.089,3.3,3.3,0,0,0,3.125.661,3.911,3.911,0,0,0,2.969-4.973h0a5.537,5.537,0,0,0-1.529-2.768,14.7,14.7,0,0,0-4.453-2.664c-.861-.379-1.633-.675-2.13-.861-.379-.111-.9-.3-.995-.319Z" transform="translate(-40.433 -70.996)"/><path class="d" d="M170.286,257.679c-2.086,4.327-.134,9.589-.134,9.589s5.329-1.752,7.422-6.079.134-9.589.134-9.589S172.364,253.381,170.286,257.679Z" transform="translate(-52.127 -73.109)"/><path class="e" d="M169.622,267.158a.379.379,0,0,1-.349-.237c-.067-.193-1.707-4.706.126-8.513h0c1.833-3.808,6.383-5.337,6.576-5.4a.371.371,0,0,1,.46.223c.074.193,1.707,4.706-.126,8.513s-6.376,5.336-6.569,5.4Zm6.235-13.315c-1.076.43-4.372,1.952-5.789,4.891h0c-1.41,2.932-.542,6.457-.208,7.571,1.076-.43,4.372-1.952,5.782-4.891s.542-6.457.208-7.571Zm-6.123,4.728Z" transform="translate(-51.924 -73.467)"/><path class="e" d="M169.871,267.159a.3.3,0,0,1-.156-.037.371.371,0,0,1-.178-.5L176,253.2a.372.372,0,1,1,.668.327l-6.465,13.427A.356.356,0,0,1,169.871,267.159Z" transform="translate(-52.173 -73.467)"/><path class="d" d="M152.6,264.551c4.772.527,8.2,4.973,8.2,4.973s-4.32,3.585-9.092,3.058-8.164-4.973-8.164-4.973S147.833,264.017,152.6,264.551Z" transform="translate(-45.483 -76.434)"/><path class="e" d="M153.858,271.707a7.132,7.132,0,0,1-.883-.052c-4.2-.468-7.155-4.245-7.281-4.4a.371.371,0,0,1,.059-.512c.156-.134,3.867-3.177,8.068-2.709h0c4.193.468,7.155,4.245,7.274,4.409a.371.371,0,0,1-.052.512A12.663,12.663,0,0,1,153.858,271.707Zm-7.333-4.624c.742.876,3.3,3.474,6.531,3.837s6.272-1.625,7.214-2.316c-.742-.876-3.3-3.474-6.531-3.837h0C150.488,264.412,147.46,266.393,146.525,267.084Z" transform="translate(-46.016 -76.302)"/><path class="e" d="M160.788,269.962h-.059l-14.844-1.64a.373.373,0,0,1,.082-.742l14.844,1.64a.371.371,0,0,1,.327.416.364.364,0,0,1-.349.327Z" transform="translate(-45.999 -77.228)"/><path class="c" d="M165.836,255.8a5.893,5.893,0,0,0-2.486-2.227,15.172,15.172,0,0,0-5.2-1.121c-.935-.074-1.774-.111-2.316-.119h-1.15c-.089.052-.111.074-.527,1.032-.215.49-.542,1.269-.868,2.152a15.2,15.2,0,0,0-1.2,5.2,5.938,5.938,0,0,0,.987,3.206,4.275,4.275,0,0,0,6.138,1.447,3.652,3.652,0,0,0,1.856-3.006,3.622,3.622,0,0,0,3.511-.416,4.26,4.26,0,0,0,1.254-6.146Z" transform="translate(-47.685 -73.297)"/><path class="e" d="M157.547,264.985a4.631,4.631,0,0,1-3.971-2.36,6.279,6.279,0,0,1-1.047-3.392,15.408,15.408,0,0,1,1.225-5.344c.334-.9.661-1.677.876-2.175.43-.995.475-1.076.668-1.195s.319-.134,1.366-.1c.542,0,1.388.045,2.338.126a15.453,15.453,0,0,1,5.374,1.158,6.234,6.234,0,0,1,2.627,2.39h0a4.75,4.75,0,0,1,.69,3.941,4.869,4.869,0,0,1-2.1,2.739,4.052,4.052,0,0,1-3.392.6,4.038,4.038,0,0,1-1.974,2.835,5.062,5.062,0,0,1-2.679.779Zm-1.633-13.842h-.245c0,.045-.238.572-.364.861-.208.482-.527,1.247-.854,2.138a14.792,14.792,0,0,0-1.18,5.054,5.633,5.633,0,0,0,.928,3.028,3.919,3.919,0,0,0,5.626,1.329,3.3,3.3,0,0,0,1.685-2.709.356.356,0,0,1,.171-.3.349.349,0,0,1,.341,0,3.3,3.3,0,0,0,3.169-.379,4.2,4.2,0,0,0,1.789-2.345,4.023,4.023,0,0,0-.6-3.333h0a5.67,5.67,0,0,0-2.368-2.16,14.843,14.843,0,0,0-5.1-1.076c-.935-.082-1.766-.111-2.3-.126Z" transform="translate(-47.798 -72.8)"/><path d="M138.88,210.85h-128v-200h128ZM13.84,207.884H135.92V13.816H13.84Z" transform="translate(-10.88 -10.85)"/></svg>