<svg xmlns="http://www.w3.org/2000/svg" width="128" height="200" viewBox="0 0 128 200"><defs><style>.a{fill:#fff;}.b{fill:#170000;}.c{fill:#da003a;}.d{fill:#4fad28;}.e{fill:#231815;}.f{fill:#c21823;}.g{fill:#ffb4c0;}</style></defs><rect class="a" width="125.031" height="197.031" transform="translate(1.484 1.484)"/><path d="M138.88,210.85h-128v-200h128ZM13.84,207.884H135.92V13.816H13.84Z" transform="translate(-10.88 -10.85)"/><path class="b" d="M27.416,29.952a4.32,4.32,0,0,1,1.722-1.262,5.077,5.077,0,0,1-1.358-1.21,2.605,2.605,0,0,1-.475-1.588,2.479,2.479,0,0,1,.468-1.484,2.88,2.88,0,0,1,1.247-.957,4.164,4.164,0,0,1,1.648-.341,3.756,3.756,0,0,1,2.323.668,2.138,2.138,0,0,1,.876,1.789,2.672,2.672,0,0,1-.512,1.574,4.342,4.342,0,0,1-1.484,1.254,7.845,7.845,0,0,1,1.848,1.358,2.353,2.353,0,0,1,.661,1.7,2.479,2.479,0,0,1-.527,1.581,3.466,3.466,0,0,1-1.41,1.054,4.847,4.847,0,0,1-1.9.371,5.27,5.27,0,0,1-1.8-.3,3.043,3.043,0,0,1-1.381-.95,2.464,2.464,0,0,1-.534-1.625,2.65,2.65,0,0,1,.586-1.633Zm5.092.861a3.281,3.281,0,0,0-.787-.742c-.312-.2-.742-.438-1.284-.742-.282-.141-.49-.252-.631-.334a3.162,3.162,0,0,0-1.128.957,2.13,2.13,0,0,0-.438,1.284A2.227,2.227,0,0,0,30.667,33.7a2.412,2.412,0,0,0,1.032-.237,2.167,2.167,0,0,0,.816-.69,1.715,1.715,0,0,0,.312-1.009,1.536,1.536,0,0,0-.319-.95Zm-3.5-4.3a2.969,2.969,0,0,0,.8.742c.319.193.779.453,1.373.742a2.969,2.969,0,0,0,1.054-.905,2.041,2.041,0,0,0,.393-1.195,2.152,2.152,0,0,0-.542-1.544,1.907,1.907,0,0,0-1.418-.549,2.093,2.093,0,0,0-1.4.475,1.581,1.581,0,0,0-.572,1.284A1.484,1.484,0,0,0,29,26.515Z" transform="translate(-14.991 -14.009)"/><path class="c" d="M164.8,23.048a3.05,3.05,0,0,0-2.672,1.291,3.021,3.021,0,0,0-2.657-1.291,3.57,3.57,0,0,0-3.711,3.77,5.01,5.01,0,0,0,.742,2.716,12.907,12.907,0,0,0,3.192,3.132c.623.475,1.2.883,1.581,1.136.742.482.742.49.831.49h0c.082,0,.134,0,.824-.49.379-.252.957-.653,1.581-1.128a12.84,12.84,0,0,0,3.2-3.14,4.988,4.988,0,0,0,.742-2.716,3.57,3.57,0,0,0-3.652-3.77Z" transform="translate(-48.629 -13.993)"/><path class="d" d="M84.782,104.981c4.453,1.87,6.45,7.1,6.45,7.1s-5.2,2.227-9.589.349-6.442-7.1-6.442-7.1S80.358,103.118,84.782,104.981Z" transform="translate(-27.632 -34.995)"/><path class="e" d="M86.7,112.517a9.159,9.159,0,0,1-3.563-.675c-3.9-1.64-5.656-6.1-5.73-6.294a.386.386,0,0,1,.2-.475c.186-.082,4.609-1.937,8.506-.3s5.648,6.1,5.722,6.294a.371.371,0,0,1-.2.475,13.82,13.82,0,0,1-4.936.972Zm-8.446-6.9c.482,1.054,2.167,4.268,5.2,5.537s6.48.23,7.578-.163c-.49-1.054-2.175-4.275-5.2-5.537h0C82.813,104.189,79.325,105.228,78.249,105.622Z" transform="translate(-28.198 -34.96)"/><path class="e" d="M91.471,111.907a.319.319,0,0,1-.141,0L77.6,106.118a.371.371,0,1,1,.282-.683l13.738,5.789a.379.379,0,0,1,.2.482.386.386,0,0,1-.349.2Z" transform="translate(-28.186 -35.293)"/><path class="d" d="M101.423,97.711c-3.229,3.555-2.858,9.159-2.858,9.159s5.611-.163,8.84-3.711S110.263,94,110.263,94,104.652,94.141,101.423,97.711Z" transform="translate(-33.705 -32.35)"/><path class="e" d="M98.338,106.519a.364.364,0,0,1-.371-.349c0-.2-.3-4.988,2.538-8.12s7.637-3.3,7.838-3.31a.379.379,0,0,1,.379.349c0,.2.3,5-2.538,8.12s-7.637,3.3-7.838,3.31Zm9.649-11.007c-1.158.1-4.75.631-6.94,3.043s-2.36,6.027-2.316,7.192c1.158-.1,4.75-.623,6.94-3.036s2.323-6.034,2.323-7.2Z" transform="translate(-33.549 -32.541)"/><path class="e" d="M98.34,106.526a.371.371,0,0,1-.275-.623l10.012-11.029a.379.379,0,0,1,.527,0,.371.371,0,0,1,0,.527l-9.99,11.007A.371.371,0,0,1,98.34,106.526Z" transform="translate(-33.551 -32.548)"/><path class="c" d="M91.31,103.447a3.615,3.615,0,0,0,2.9-2.019,3.629,3.629,0,0,0,3.384,1.024,4.268,4.268,0,0,0,3.644-5.144,6.034,6.034,0,0,0-1.381-3.058,15.237,15.237,0,0,0-4.349-3.1c-.824-.445-1.581-.816-2.071-1.047-.943-.438-.98-.438-1.076-.423h0c-.1,0-.156.052-.883.742-.393.371-1,.95-1.655,1.625a15.334,15.334,0,0,0-3.184,4.3,5.975,5.975,0,0,0-.364,3.34,4.268,4.268,0,0,0,5.032,3.756Z" transform="translate(-30.491 -31.232)"/><path class="e" d="M88.749,103.378A4.587,4.587,0,0,1,84.1,99.237a6.257,6.257,0,0,1,.386-3.533,15.587,15.587,0,0,1,3.229-4.416c.653-.683,1.269-1.269,1.67-1.648.742-.7.861-.787,1.084-.824s.356,0,1.306.453c.49.23,1.254.6,2.093,1.054a15.586,15.586,0,0,1,4.453,3.192A6.272,6.272,0,0,1,99.8,96.75a4.617,4.617,0,0,1-3.926,5.559,4.052,4.052,0,0,1-3.347-.794,4.03,4.03,0,0,1-2.969,1.789h0A5.137,5.137,0,0,1,88.749,103.378ZM90.59,89.544s-.43.416-.675.646c-.393.364-.995.943-1.633,1.611a14.844,14.844,0,0,0-3.11,4.179,5.633,5.633,0,0,0-.349,3.147,4.082,4.082,0,0,0,1.759,2.9,4.231,4.231,0,0,0,2.872.557h0a3.273,3.273,0,0,0,2.627-1.818.379.379,0,0,1,.609-.089,3.281,3.281,0,0,0,3.05.891,3.911,3.911,0,0,0,3.333-4.72,5.559,5.559,0,0,0-1.3-2.88,14.755,14.755,0,0,0-4.231-3.013c-.831-.445-1.581-.809-2.056-1.032C91.183,89.8,90.679,89.566,90.59,89.544Z" transform="translate(-29.922 -31.007)"/><path class="d" d="M46.366,71.156c3.318,3.436,3.088,9.077,3.088,9.077s-5.611,0-8.907-3.5-3.088-9.077-3.088-9.077S43.055,67.682,46.366,71.156Z" transform="translate(-17.799 -25.539)"/><path class="e" d="M49.992,79.889h0c-.208,0-5-.059-7.919-3.11s-2.761-7.845-2.754-8.053a.371.371,0,0,1,.371-.356h0c.208,0,5,.052,7.919,3.11s2.761,7.845,2.754,8.053A.371.371,0,0,1,49.992,79.889ZM40.061,69.134c0,1.158.3,4.78,2.546,7.133s5.856,2.783,7.014,2.858c0-1.158-.289-4.78-2.546-7.133h0C44.819,69.632,41.219,69.209,40.061,69.134Z" transform="translate(-18.283 -25.722)"/><path class="e" d="M49.991,79.887a.386.386,0,0,1-.267-.119L39.422,69a.371.371,0,0,1,0-.527.364.364,0,0,1,.52,0L50.258,79.227a.379.379,0,0,1,0,.527.4.4,0,0,1-.267.134Z" transform="translate(-18.282 -25.721)"/><path class="d" d="M62.9,72.013c-4.372,2-6.257,7.266-6.257,7.266s5.2,2.078,9.589.1,6.264-7.266,6.264-7.266S67.3,70.031,62.9,72.013Z" transform="translate(-22.798 -26.443)"/><path class="e" d="M61.419,79.6a13.68,13.68,0,0,1-4.661-.854.371.371,0,0,1-.215-.468c.067-.193,1.715-4.7,5.559-6.442h0c3.852-1.737,8.32,0,8.513.082a.371.371,0,0,1,.208.468c-.067.193-1.707,4.7-5.559,6.442A9.367,9.367,0,0,1,61.419,79.6Zm-4.038-1.418c1.106.364,4.609,1.314,7.578,0s4.572-4.6,5.025-5.67c-1.106-.364-4.6-1.306-7.571,0s-4.572,4.6-5.032,5.671Z" transform="translate(-22.766 -26.418)"/><path class="e" d="M56.873,79.062a.364.364,0,0,1-.334-.223.379.379,0,0,1,.186-.49l13.582-6.138a.371.371,0,0,1,.3.675L57.044,79.025A.4.4,0,0,1,56.873,79.062Z" transform="translate(-22.762 -26.708)"/><path class="c" d="M51.684,72.847a3.652,3.652,0,0,0,3.466-.7,3.637,3.637,0,0,0,2.694,2.286,4.275,4.275,0,0,0,5.388-3.273,5.938,5.938,0,0,0-.052-3.355,15.126,15.126,0,0,0-2.754-4.579c-.579-.742-1.128-1.373-1.484-1.781-.69-.742-.742-.787-.824-.816h0a3.976,3.976,0,0,0-1.1.319c-.512.178-1.3.468-2.167.831a15.193,15.193,0,0,0-4.631,2.679,5.975,5.975,0,0,0-1.663,2.917,4.275,4.275,0,0,0,3.125,5.47Z" transform="translate(-20.64 -23.722)"/><path class="e" d="M57.545,73.822a5.463,5.463,0,0,1-1.3-.163A4.023,4.023,0,0,1,53.5,71.6a4.06,4.06,0,0,1-3.414.475h0a4.862,4.862,0,0,1-2.843-1.959,4.735,4.735,0,0,1-.564-3.956,6.272,6.272,0,0,1,1.759-3.088,15.408,15.408,0,0,1,4.75-2.761c.868-.364,1.67-.661,2.19-.846.965-.341,1.1-.379,1.314-.327s.327.148,1.024.935c.52.594,1.039,1.217,1.484,1.8a15.5,15.5,0,0,1,2.82,4.706,6.338,6.338,0,0,1,.052,3.548,4.557,4.557,0,0,1-4.527,3.7Zm-3.9-3.177h.089a.379.379,0,0,1,.26.238,3.273,3.273,0,0,0,2.434,2.049,3.911,3.911,0,0,0,4.936-2.969,5.619,5.619,0,0,0-.045-3.169,15.052,15.052,0,0,0-2.687-4.453c-.453-.572-.965-1.18-1.484-1.766-.223-.245-.594-.661-.668-.742s-.557.215-.868.327c-.5.178-1.291.468-2.145.824a14.651,14.651,0,0,0-4.513,2.605,5.5,5.5,0,0,0-1.566,2.746,4.045,4.045,0,0,0,.453,3.355,4.186,4.186,0,0,0,2.42,1.655,3.266,3.266,0,0,0,3.132-.616A.371.371,0,0,1,53.649,70.645Z" transform="translate(-20.151 -23.33)"/><path class="d" d="M90.479,82.737c4.453,1.863,6.442,7.1,6.442,7.1s-5.158,2.227-9.582.341-6.45-7.1-6.45-7.1S86.048,80.852,90.479,82.737Z" transform="translate(-29.114 -29.241)"/><path class="e" d="M92.386,90.247a9.144,9.144,0,0,1-3.563-.668c-3.9-1.648-5.656-6.108-5.722-6.3a.356.356,0,0,1,.2-.468c.186-.082,4.609-1.945,8.5-.3h0c3.9,1.64,5.648,6.108,5.722,6.294a.364.364,0,0,1-.2.475,13.642,13.642,0,0,1-4.936.972ZM83.939,83.36c.482,1.054,2.167,4.268,5.2,5.529s6.472.23,7.571-.163c-.482-1.054-2.167-4.268-5.2-5.537h0C88.511,81.957,85.038,82.966,83.939,83.36Z" transform="translate(-29.68 -29.203)"/><path class="e" d="M97.179,89.643a.356.356,0,0,1-.148,0L83.3,83.861a.371.371,0,0,1-.2-.49.386.386,0,0,1,.49-.2L97.32,88.96a.386.386,0,0,1,.2.49A.371.371,0,0,1,97.179,89.643Z" transform="translate(-29.679 -29.541)"/><path class="d" d="M107.115,75.426c-3.229,3.555-2.85,9.151-2.85,9.151s5.6-.163,8.832-3.711S115.94,71.7,115.94,71.7,110.344,71.871,107.115,75.426Z" transform="translate(-35.189 -26.584)"/><path class="e" d="M104.028,84.251a.371.371,0,0,1-.371-.341c0-.208-.3-5,2.538-8.12s7.637-3.3,7.838-3.31a.4.4,0,0,1,.386.341c0,.208.3,5-2.546,8.12s-7.63,3.31-7.838,3.31Zm9.649-11.007c-1.158.111-4.75.631-6.94,3.043s-2.36,6.034-2.36,7.2c1.165-.111,4.75-.631,6.94-3.043s2.375-6.034,2.368-7.2Z" transform="translate(-35.03 -26.785)"/><path class="e" d="M104.034,84.256a.371.371,0,0,1-.252-.1.364.364,0,0,1,0-.52L113.8,72.6a.371.371,0,0,1,.549.5l-10.02,11.037a.371.371,0,0,1-.3.119Z" transform="translate(-35.037 -26.79)"/><path class="c" d="M97,81.217a3.652,3.652,0,0,0,2.909-2.026,3.607,3.607,0,0,0,3.377,1.032,4.275,4.275,0,0,0,3.644-5.144,5.938,5.938,0,0,0-1.381-3.065,15.29,15.29,0,0,0-4.342-3.1c-.831-.445-1.588-.809-2.078-1.039-.943-.438-.972-.438-1.076-.423h0c-.1,0-.163.059-.883.742-.4.364-1.009.943-1.655,1.625a15.126,15.126,0,0,0-3.184,4.3,5.938,5.938,0,0,0-.371,3.34A4.275,4.275,0,0,0,97,81.217Z" transform="translate(-31.971 -25.484)"/><path class="e" d="M94.447,81.106a4.617,4.617,0,0,1-4.661-4.142,6.316,6.316,0,0,1,.386-3.533,15.49,15.49,0,0,1,3.266-4.453c.653-.683,1.269-1.269,1.67-1.64.742-.742.854-.794,1.076-.831s.364,0,1.306.453c.49.23,1.254.6,2.093,1.054a15.587,15.587,0,0,1,4.453,3.192,6.368,6.368,0,0,1,1.484,3.243,4.8,4.8,0,0,1-.935,3.889,4.891,4.891,0,0,1-3.021,1.677,4.045,4.045,0,0,1-3.347-.8,4.045,4.045,0,0,1-2.969,1.8h0a5.114,5.114,0,0,1-.8.1Zm.742-.438Zm1.076-13.36s-.408.4-.668.638c-.393.364-1,.943-1.64,1.611a14.845,14.845,0,0,0-3.11,4.186,5.537,5.537,0,0,0-.341,3.14,4.023,4.023,0,0,0,1.752,2.9,4.2,4.2,0,0,0,2.88.557h0a3.273,3.273,0,0,0,2.627-1.811.367.367,0,0,1,.6-.1,3.273,3.273,0,0,0,3.05.913,4.164,4.164,0,0,0,2.605-1.455,4.06,4.06,0,0,0,.742-3.3,5.619,5.619,0,0,0-1.3-2.88A14.963,14.963,0,0,0,99.227,68.7c-.824-.445-1.573-.809-2.056-1.032a9.7,9.7,0,0,0-.891-.393Z" transform="translate(-31.405 -25.239)"/><path class="d" d="M47.979,107.513c4.379,1.982,6.264,7.266,6.264,7.266s-5.2,2.078-9.589.1-6.264-7.266-6.264-7.266S43.608,105.531,47.979,107.513Z" transform="translate(-18.045 -35.621)"/><path class="e" d="M50,115.107a9.367,9.367,0,0,1-3.845-.742c-3.852-1.744-5.492-6.249-5.559-6.442a.371.371,0,0,1,.208-.468c.193-.074,4.661-1.818,8.513-.082s5.485,6.249,5.559,6.442a.371.371,0,0,1-.215.468,13.731,13.731,0,0,1-4.661.824Zm-8.565-7.118c.453,1.069,2.056,4.327,5.025,5.67s6.472.393,7.578,0c-.46-1.069-2.063-4.327-5.032-5.67h0C46.033,106.676,42.53,107.641,41.431,107.99Z" transform="translate(-18.612 -35.608)"/><path class="e" d="M54.522,114.625a.393.393,0,0,1-.148,0l-13.582-6.138a.371.371,0,0,1,.3-.675l13.582,6.071a.379.379,0,0,1,.186.49.364.364,0,0,1-.341.252Z" transform="translate(-18.617 -35.913)"/><path class="c" d="M59.888,101.5a5.975,5.975,0,0,0-1.663-2.917,15.29,15.29,0,0,0-4.631-2.679c-.876-.364-1.663-.653-2.167-.839-.935-.327-1.009-.341-1.106-.319h0c-.1,0-.134,0-.816.816-.356.4-.905,1.039-1.484,1.781a15.267,15.267,0,0,0-2.754,4.572,5.938,5.938,0,0,0-.052,3.362,4.268,4.268,0,0,0,5.388,3.266,3.607,3.607,0,0,0,2.694-2.286,3.629,3.629,0,0,0,3.474.7,4.268,4.268,0,0,0,3.117-5.455Z" transform="translate(-19.765 -32.542)"/><path class="e" d="M50.613,107.964a4.565,4.565,0,0,1-4.542-3.711,6.3,6.3,0,0,1,.059-3.555,15.5,15.5,0,0,1,2.8-4.654c.46-.586.98-1.2,1.484-1.8.69-.787.779-.876,1-.935s.364,0,1.336.327c.52.186,1.314.482,2.182.846a15.319,15.319,0,0,1,4.75,2.761,6.309,6.309,0,0,1,1.766,3.088h0a4.624,4.624,0,0,1-3.407,5.938,4.06,4.06,0,0,1-3.414-.475,4.052,4.052,0,0,1-2.731,2,5.365,5.365,0,0,1-1.284.163ZM51.608,94c0,.037-.386.453-.6.742-.52.586-1.032,1.195-1.484,1.766a14.725,14.725,0,0,0-2.687,4.453,5.656,5.656,0,0,0-.052,3.162,3.919,3.919,0,0,0,4.936,3.006,3.281,3.281,0,0,0,2.442-2.056.356.356,0,0,1,.252-.23.386.386,0,0,1,.341.082,3.281,3.281,0,0,0,3.132.616A3.911,3.911,0,0,0,60.8,100.5h0a5.67,5.67,0,0,0-1.566-2.754,14.919,14.919,0,0,0-4.513-2.6c-.854-.356-1.64-.646-2.152-.831A9.713,9.713,0,0,0,51.608,94Z" transform="translate(-19.986 -32.168)"/><path class="d" d="M61.676,104.676c-3.318,3.466-3.088,9.077-3.088,9.077s5.611,0,8.907-3.5,3.1-9.077,3.1-9.077S65,101.2,61.676,104.676Z" transform="translate(-23.3 -34.206)"/><path class="e" d="M58.381,113.409a.379.379,0,0,1-.371-.356c0-.208-.163-5,2.754-8.053h0c2.917-3.05,7.719-3.1,7.919-3.11h0a.371.371,0,0,1,.371.356c0,.208.171,5-2.746,8.053s-7.719,3.11-7.919,3.11Zm2.917-7.9c-2.227,2.353-2.516,5.938-2.546,7.133,1.165-.074,4.765-.5,7.021-2.858s2.516-5.938,2.538-7.133C67.153,102.729,63.554,103.159,61.3,105.512Z" transform="translate(-23.149 -34.39)"/><path class="e" d="M58.384,113.4a.379.379,0,0,1-.252-.1.371.371,0,0,1,0-.527L68.4,102a.371.371,0,1,1,.534.512L58.659,113.285a.364.364,0,0,1-.275.119Z" transform="translate(-23.153 -34.384)"/><path class="d" d="M102.164,134.664c-1.677,4.505.742,9.567.742,9.567s5.151-2.227,6.836-6.732-.742-9.56-.742-9.56S103.849,130.137,102.164,134.664Z" transform="translate(-34.486 -41.127)"/><path class="e" d="M102.294,144.155a.371.371,0,0,1-.334-.208c-.089-.186-2.123-4.527-.646-8.483h0c1.484-3.956,5.871-5.938,6.056-5.982a.386.386,0,0,1,.482.186c.089.178,2.123,4.528.646,8.483s-5.871,5.893-6.056,5.975a.334.334,0,0,1-.148.03Zm-.282-8.432c-1.143,3.051,0,6.48.475,7.563,1.032-.534,4.179-2.345,5.314-5.4s0-6.487-.475-7.563C106.294,130.854,103.147,132.673,102.011,135.723Z" transform="translate(-34.278 -41.518)"/><path class="e" d="M102.691,144.149h-.126a.371.371,0,0,1-.223-.475l5.2-13.961a.371.371,0,1,1,.69.26l-5.2,13.961a.364.364,0,0,1-.341.215Z" transform="translate(-34.675 -41.513)"/><path class="d" d="M84.953,143.069c4.8.089,8.617,4.208,8.617,4.208s-3.971,3.963-8.773,3.874-8.617-4.208-8.617-4.208S80.151,142.973,84.953,143.069Z" transform="translate(-27.889 -45.035)"/><path class="e" d="M86.125,150.152h-.148c-4.223-.082-7.511-3.577-7.652-3.711a.371.371,0,0,1,0-.512c.141-.141,3.57-3.5,7.786-3.429h0c4.223.082,7.511,3.577,7.645,3.711a.371.371,0,0,1,0,.52C93.644,146.864,90.281,150.152,86.125,150.152Zm-6.992-3.971c.846.8,3.6,3.162,6.858,3.221s6.1-2.182,6.969-2.969c-.839-.8-3.592-3.162-6.851-3.229h-.134c-3.2.015-5.982,2.219-6.843,2.976Z" transform="translate(-28.418 -44.887)"/><path class="e" d="M93.507,147.971h0l-14.9-.289a.371.371,0,0,1-.364-.379.356.356,0,0,1,.379-.364l14.9.289a.386.386,0,0,1,.364.379.371.371,0,0,1-.379.364Z" transform="translate(-28.423 -46.032)"/><path class="c" d="M97.5,133.265a5.937,5.937,0,0,0-2.679-2.026,15.089,15.089,0,0,0-5.314-.638c-.943,0-1.781.052-2.323.089-.987.059-1.061.082-1.136.141h0c-.082.067-.1.089-.43,1.076-.171.512-.423,1.314-.668,2.227a15.49,15.49,0,0,0-.742,5.292,6.019,6.019,0,0,0,1.284,3.11,4.26,4.26,0,0,0,6.235.876,3.637,3.637,0,0,0,1.581-3.162,3.6,3.6,0,0,0,3.459-.742,4.268,4.268,0,0,0,.735-6.242Z" transform="translate(-29.973 -41.807)"/><path class="e" d="M89.692,143.179a4.683,4.683,0,0,1-3.756-2,6.3,6.3,0,0,1-1.351-3.288,15.5,15.5,0,0,1,.742-5.433c.245-.928.5-1.729.675-2.227.334-1.032.371-1.113.549-1.254s.312-.156,1.358-.223c.542-.037,1.388-.082,2.338-.089a15.653,15.653,0,0,1,5.455.661,6.339,6.339,0,0,1,2.835,2.145h0a4.758,4.758,0,0,1,1.047,3.859,4.861,4.861,0,0,1-1.841,2.924,4.075,4.075,0,0,1-3.325.905,4.038,4.038,0,0,1-1.715,2.969A4.98,4.98,0,0,1,89.692,143.179Zm.854-13.79h-.3c-.935,0-1.766.052-2.3.082a6.01,6.01,0,0,0-.972.089c-.089.03-.178.594-.275.883-.171.5-.423,1.3-.668,2.227a15.03,15.03,0,0,0-.742,5.151,5.611,5.611,0,0,0,1.2,2.924,3.919,3.919,0,0,0,5.722.816,3.3,3.3,0,0,0,1.432-2.85.364.364,0,0,1,.141-.312.334.334,0,0,1,.341-.059,3.288,3.288,0,0,0,3.117-.668,4.208,4.208,0,0,0,1.574-2.472,4.06,4.06,0,0,0-.906-3.273h0a5.633,5.633,0,0,0-2.524-1.908A14.414,14.414,0,0,0,90.545,129.389Z" transform="translate(-30.071 -41.307)"/><path class="d" d="M163.883,240.3c-3.37,3.429-3.214,9.04-3.214,9.04s5.611.052,8.973-3.37,3.147-9.04,3.147-9.04S167.208,236.878,163.883,240.3Z" transform="translate(-49.896 -69.327)"/><path class="e" d="M160.464,248.991h0a.356.356,0,0,1-.364-.356c0-.208-.1-5,2.858-8.016h0c2.969-3.013,7.771-2.969,7.964-2.969a.371.371,0,0,1,.364.364c0,.2.1,5-2.857,8.016S160.924,248.991,160.464,248.991Zm10.05-10.614c-1.165.059-4.772.438-7.058,2.761h0c-2.279,2.323-2.6,5.938-2.642,7.1,1.165-.059,4.772-.445,7.058-2.768s2.6-5.93,2.642-7.1Zm-7.318,2.5Z" transform="translate(-49.75 -69.513)"/><path class="e" d="M160.432,248.98a.341.341,0,0,1-.26-.1.371.371,0,0,1,0-.527l10.45-10.628a.356.356,0,0,1,.52,0,.364.364,0,0,1,0,.52l-10.45,10.628A.349.349,0,0,1,160.432,248.98Z" transform="translate(-49.74 -69.502)"/><path class="d" d="M146.009,240.883c4.342,2.041,6.153,7.355,6.153,7.355s-5.24,2-9.589-.037-6.153-7.348-6.153-7.348S141.66,238.85,146.009,240.883Z" transform="translate(-43.576 -70.112)"/><path class="e" d="M148.067,248.491a9.449,9.449,0,0,1-3.993-.824c-3.822-1.8-5.4-6.324-5.47-6.517a.379.379,0,0,1,.223-.468c.186-.074,4.683-1.759,8.506,0h0c3.822,1.8,5.4,6.324,5.47,6.517a.371.371,0,0,1-.223.468,13.859,13.859,0,0,1-4.513.824Zm-8.624-7.237c.445,1.076,2,4.357,4.951,5.737s6.457.482,7.571.134c-.445-1.076-2-4.349-4.951-5.73h0C144.089,240.007,140.548,240.905,139.442,241.254Z" transform="translate(-44.135 -70.089)"/><path class="e" d="M152.452,248.007a.312.312,0,0,1-.163,0L138.8,241.683a.374.374,0,0,1,.319-.675l13.493,6.331a.364.364,0,0,1,.178.49A.379.379,0,0,1,152.452,248.007Z" transform="translate(-44.134 -70.369)"/><path class="c" d="M160.667,236.438a5.938,5.938,0,0,0-1.625-2.969,15.334,15.334,0,0,0-4.594-2.746c-.861-.371-1.648-.675-2.152-.861-.928-.341-1-.356-1.1-.334h0c-.1,0-.134.037-.831.809-.364.4-.92,1.032-1.484,1.759a15.163,15.163,0,0,0-2.813,4.535,5.938,5.938,0,0,0-.1,3.362,4.26,4.26,0,0,0,5.337,3.34,3.637,3.637,0,0,0,2.731-2.227,3.637,3.637,0,0,0,3.459.742,4.275,4.275,0,0,0,3.169-5.411Z" transform="translate(-46.057 -67.418)"/><path class="e" d="M151.345,242.765A4.557,4.557,0,0,1,146.787,239a6.272,6.272,0,0,1,.1-3.563,15.461,15.461,0,0,1,2.88-4.668c.594-.742,1.158-1.366,1.529-1.774.742-.8.794-.861,1.017-.913s.349,0,1.329.341c.512.186,1.3.49,2.175.868a15.72,15.72,0,0,1,4.713,2.828,6.331,6.331,0,0,1,1.715,3.11h0a4.624,4.624,0,0,1-3.488,5.871,4.075,4.075,0,0,1-3.407-.52,4.03,4.03,0,0,1-2.776,2.026,5.2,5.2,0,0,1-1.232.156Zm1.121-13.946s-.408.46-.616.69c-.364.4-.92,1.032-1.484,1.744a15.03,15.03,0,0,0-2.754,4.416,5.589,5.589,0,0,0-.089,3.162,3.911,3.911,0,0,0,4.891,3.065,3.273,3.273,0,0,0,2.472-2.019.334.334,0,0,1,.252-.223.379.379,0,0,1,.341.082,3.251,3.251,0,0,0,3.117.661,3.911,3.911,0,0,0,2.969-4.973,5.566,5.566,0,0,0-1.529-2.768,14.8,14.8,0,0,0-4.453-2.665c-.861-.371-1.633-.675-2.138-.854a9.464,9.464,0,0,0-.965-.319Z" transform="translate(-46.264 -67.043)"/><path class="d" d="M141.613,255.637c-3.362,3.429-3.214,9.055-3.214,9.055s5.611.059,8.981-3.362,3.214-9.04,3.214-9.04S144.983,252.216,141.613,255.637Z" transform="translate(-44.081 -73.287)"/><path class="e" d="M138.251,264.321h0a.379.379,0,0,1-.371-.364c0-.2-.1-5,2.865-8.008h0c2.969-3.013,7.786-2.969,7.957-2.969a.379.379,0,0,1,.371.364c0,.2.1,5-2.865,8.008S138.711,264.321,138.251,264.321Zm2.969-7.853c-2.286,2.323-2.6,5.938-2.642,7.1,1.158-.067,4.772-.445,7.051-2.768s2.605-5.938,2.642-7.1C147.113,253.767,143.506,254.145,141.22,256.468Z" transform="translate(-43.943 -73.465)"/><path class="e" d="M138.212,264.311a.4.4,0,0,1-.26-.1.371.371,0,0,1,0-.527l10.443-10.628a.373.373,0,1,1,.527.527L138.479,264.2A.379.379,0,0,1,138.212,264.311Z" transform="translate(-43.933 -73.455)"/><path class="d" d="M123.789,256.212c4.349,2.041,6.16,7.355,6.16,7.355s-5.24,2-9.589-.037-6.16-7.348-6.16-7.348S119.44,254.171,123.789,256.212Z" transform="translate(-37.789 -74.062)"/><path class="e" d="M125.856,263.813a9.315,9.315,0,0,1-3.993-.824c-3.83-1.789-5.411-6.324-5.47-6.517a.364.364,0,0,1,.215-.46c.193-.074,4.683-1.759,8.506,0s5.411,6.324,5.47,6.517a.364.364,0,0,1-.215.46A13.692,13.692,0,0,1,125.856,263.813Zm-8.632-7.229c.445,1.076,2,4.349,4.951,5.737s6.465.482,7.578.134c-.445-1.076-2-4.349-4.951-5.737h0C121.856,255.337,118.323,256.235,117.224,256.584Z" transform="translate(-38.351 -74.041)"/><path class="e" d="M130.235,263.336a.4.4,0,0,1-.156,0l-13.493-6.324a.371.371,0,0,1-.178-.5.364.364,0,0,1,.49-.178l13.493,6.331a.371.371,0,0,1-.156.705Z" transform="translate(-38.35 -74.321)"/><path class="c" d="M138.448,251.766a5.938,5.938,0,0,0-1.625-2.969,14.985,14.985,0,0,0-4.594-2.746c-.861-.379-1.648-.675-2.152-.861-.928-.349-1-.364-1.1-.334h0c-.1,0-.126,0-.831.809-.364.393-.92,1.024-1.484,1.759a15.23,15.23,0,0,0-2.813,4.535,5.937,5.937,0,0,0-.1,3.355,4.275,4.275,0,0,0,5.344,3.347,3.637,3.637,0,0,0,2.724-2.227,3.615,3.615,0,0,0,3.459.742,4.26,4.26,0,0,0,3.169-5.411Z" transform="translate(-40.224 -71.368)"/><path class="e" d="M129.145,258.1a4.676,4.676,0,0,1-2.227-.534,4.78,4.78,0,0,1-2.36-3.229,6.3,6.3,0,0,1,.1-3.555,15.691,15.691,0,0,1,2.88-4.661c.609-.742,1.165-1.381,1.529-1.774.705-.742.794-.861,1.017-.92s.349,0,1.329.341c.512.193,1.3.5,2.175.876a15.587,15.587,0,0,1,4.713,2.828,6.309,6.309,0,0,1,1.722,3.11,4.631,4.631,0,0,1-3.488,5.871,4.067,4.067,0,0,1-3.407-.52,4.045,4.045,0,0,1-2.783,2.019A4.936,4.936,0,0,1,129.145,258.1Zm1.113-13.954a7.946,7.946,0,0,1-.616.7c-.356.393-.906,1.009-1.484,1.744a14.889,14.889,0,0,0-2.746,4.409,5.685,5.685,0,0,0-.1,3.169,4.075,4.075,0,0,0,1.989,2.746,4.194,4.194,0,0,0,2.909.319,3.266,3.266,0,0,0,2.464-2.019.386.386,0,0,1,.26-.23.364.364,0,0,1,.334.089,3.3,3.3,0,0,0,3.125.661,3.911,3.911,0,0,0,2.969-4.973h0a5.537,5.537,0,0,0-1.529-2.768,14.7,14.7,0,0,0-4.453-2.664c-.861-.379-1.633-.675-2.13-.861-.379-.111-.9-.3-.995-.319Z" transform="translate(-40.433 -70.996)"/><path class="d" d="M170.286,257.679c-2.086,4.327-.134,9.589-.134,9.589s5.329-1.752,7.422-6.079.134-9.589.134-9.589S172.364,253.381,170.286,257.679Z" transform="translate(-52.127 -73.109)"/><path class="e" d="M169.622,267.158a.379.379,0,0,1-.349-.237c-.067-.193-1.707-4.706.126-8.513h0c1.833-3.808,6.383-5.337,6.576-5.4a.371.371,0,0,1,.46.223c.074.193,1.707,4.706-.126,8.513s-6.376,5.336-6.569,5.4Zm6.235-13.315c-1.076.43-4.372,1.952-5.789,4.891h0c-1.41,2.932-.542,6.457-.208,7.571,1.076-.43,4.372-1.952,5.782-4.891s.542-6.457.208-7.571Zm-6.123,4.728Z" transform="translate(-51.924 -73.467)"/><path class="e" d="M169.871,267.159a.3.3,0,0,1-.156-.037.371.371,0,0,1-.178-.5L176,253.2a.372.372,0,1,1,.668.327l-6.465,13.427A.356.356,0,0,1,169.871,267.159Z" transform="translate(-52.173 -73.467)"/><path class="d" d="M152.6,264.551c4.772.527,8.2,4.973,8.2,4.973s-4.32,3.585-9.092,3.058-8.164-4.973-8.164-4.973S147.833,264.017,152.6,264.551Z" transform="translate(-45.483 -76.434)"/><path class="e" d="M153.858,271.707a7.132,7.132,0,0,1-.883-.052c-4.2-.468-7.155-4.245-7.281-4.4a.371.371,0,0,1,.059-.512c.156-.134,3.874-3.177,8.068-2.709h0c4.193.468,7.155,4.245,7.274,4.409a.371.371,0,0,1-.052.512A12.663,12.663,0,0,1,153.858,271.707Zm-7.333-4.624c.742.876,3.3,3.474,6.531,3.837s6.272-1.625,7.214-2.316c-.742-.876-3.3-3.474-6.531-3.837h0C150.488,264.412,147.46,266.393,146.525,267.084Z" transform="translate(-46.016 -76.302)"/><path class="e" d="M160.789,269.962h-.059l-14.844-1.64a.379.379,0,0,1-.327-.416.371.371,0,0,1,.408-.327l14.844,1.64a.371.371,0,0,1,.327.416.364.364,0,0,1-.349.327Z" transform="translate(-46.001 -77.228)"/><path class="c" d="M165.836,255.8a5.893,5.893,0,0,0-2.486-2.227,15.172,15.172,0,0,0-5.2-1.121c-.935-.074-1.774-.111-2.316-.119h-1.15c-.089.052-.111.074-.527,1.032-.215.49-.542,1.269-.868,2.152a15.2,15.2,0,0,0-1.2,5.2,5.938,5.938,0,0,0,.987,3.206,4.275,4.275,0,0,0,6.138,1.447,3.652,3.652,0,0,0,1.856-3.006,3.622,3.622,0,0,0,3.511-.416,4.26,4.26,0,0,0,1.254-6.146Z" transform="translate(-47.685 -73.297)"/><path class="e" d="M157.547,264.985a4.631,4.631,0,0,1-3.971-2.36,6.279,6.279,0,0,1-1.047-3.392,15.408,15.408,0,0,1,1.225-5.344c.334-.9.661-1.677.876-2.175.43-.995.475-1.076.668-1.195s.319-.134,1.366-.1c.542,0,1.388.045,2.338.126a15.453,15.453,0,0,1,5.374,1.158,6.234,6.234,0,0,1,2.627,2.39h0a4.75,4.75,0,0,1,.69,3.941,4.869,4.869,0,0,1-2.1,2.739,4.052,4.052,0,0,1-3.392.6,4.023,4.023,0,0,1-1.982,2.813,5.017,5.017,0,0,1-2.672.8Zm-1.633-13.842h-.245c0,.045-.238.572-.364.861-.208.482-.527,1.247-.854,2.138a14.792,14.792,0,0,0-1.18,5.054,5.633,5.633,0,0,0,.928,3.028,3.919,3.919,0,0,0,5.626,1.329,3.3,3.3,0,0,0,1.685-2.709.356.356,0,0,1,.171-.3.349.349,0,0,1,.341,0,3.3,3.3,0,0,0,3.169-.379,4.2,4.2,0,0,0,1.789-2.345,4.023,4.023,0,0,0-.6-3.333h0a5.67,5.67,0,0,0-2.368-2.16,14.843,14.843,0,0,0-5.1-1.076c-.935-.082-1.766-.111-2.3-.126Z" transform="translate(-47.798 -72.8)"/><path class="e" d="M129.123,148.262l-2.078-2.9s-2.568,2.019-2.605,2.056a6.917,6.917,0,0,0,4.683.846Z" transform="translate(-40.429 -45.625)"/><path class="e" d="M127.734,148.752a7.7,7.7,0,0,1-3.793-1.061.549.549,0,0,1-.252-.416.571.571,0,0,1,.178-.46s.052-.052,2.642-2.086a.579.579,0,0,1,.423-.111.557.557,0,0,1,.371.23l2.078,2.895a.557.557,0,0,1,.067.527.549.549,0,0,1-.4.341,6.288,6.288,0,0,1-1.314.141Zm-2.457-1.625a6.339,6.339,0,0,0,2.657.52l-1.195-1.663Z" transform="translate(-40.235 -45.432)"/><path class="b" d="M85.8,219.605h-.891c-15.453-.579-16.188-2.227-17.071-4.1l-.1-.215c-.512-1.091-.646-2.665.275-3.54s2.472-.742,4.617.393c3.488,1.841,5.2.349,5.648-.163a25.614,25.614,0,0,1-.052-5.975c.527-4.342,2.375-6.992,5.366-7.66a25.629,25.629,0,0,1,8.164-.341,27.033,27.033,0,0,1,2.85.557,13.859,13.859,0,0,0,4.149.609.557.557,0,0,1,.653.43.549.549,0,0,1-.43.661,13.943,13.943,0,0,1-4.624-.609,22.87,22.87,0,0,0-2.709-.534,24.136,24.136,0,0,0-7.793.312c-2.516.564-4.03,2.82-4.5,6.68a24.835,24.835,0,0,0,.082,5.938.542.542,0,0,1-.082.386c0,.037-2.227,3.31-7.222.683-1.6-.846-2.82-1.054-3.333-.564a2,2,0,0,0,0,2.227l.111.238c.638,1.418,1.3,2.88,16.054,3.436h.846c14.74,0,23.187-14.466,23.268-14.614a.609.609,0,0,1,.178-.186,38.989,38.989,0,0,0,17.353-33.444.549.549,0,0,1,.26-.527,5.834,5.834,0,0,0,2-2.739.549.549,0,0,1,.386-.356,5.8,5.8,0,0,1,4.572,1.195,12.246,12.246,0,0,1,2.531,2.969,8.721,8.721,0,0,0,1.566,1.907,1.559,1.559,0,0,0,.223-.512,25.68,25.68,0,0,0,.928-5.893,3.934,3.934,0,0,0-1.633-2.672c-2.427-1.722-6.606-1.017-6.68-1.009a.557.557,0,0,1-.653-.52,23.418,23.418,0,0,0-.4-3.9,22.362,22.362,0,0,0-2.472-4.542.549.549,0,0,1-.1-.438.564.564,0,0,1,.252-.379,14.227,14.227,0,0,0,4.238-5.2,8.491,8.491,0,0,0,.965-6.249c-2.182.1-6.9.616-8.164,2.115s-1.425,5.863-1.329,7.363a.572.572,0,0,1-.2.468.586.586,0,0,1-.5.1c-2.353-.661-3.318,1.752-3.355,1.856a.549.549,0,0,1-.453.356.572.572,0,0,1-.527-.238l-5.581-8a6.668,6.668,0,0,0-4.194,5.938,8.1,8.1,0,0,0,.653,4.038,13.983,13.983,0,0,0,1.047,1.8,11.274,11.274,0,0,1,1.366,2.546c1.44,4.164.1,5.337-2.123,6.68s-8.78.646-9.515.557h-.067a.549.549,0,0,1-.416-.638.542.542,0,0,1,.245-.371c.111-.178.52-1.024,1.18-4.416a1.484,1.484,0,0,0-.26-1.262c-1.061-1.447-4.876-2.019-7.66-2.331-5.388-.6-9.01,1.432-9.181,2.739a2.33,2.33,0,0,0,.653,2.227c1.759,1.484,6.465.572,8.164.082a.557.557,0,0,1,.69.371.564.564,0,0,1-.379.7c-.267.074-6.591,1.9-9.159-.3a3.422,3.422,0,0,1-1.039-3.251c.3-2.227,4.824-4.32,10.391-3.711,4.876.542,7.422,1.373,8.432,2.776a2.627,2.627,0,0,1,.453,2.138,26.459,26.459,0,0,1-1.054,4.2c2.308.2,6.531.364,7.971-.49,1.8-1.069,2.887-1.722,1.64-5.337a10.709,10.709,0,0,0-1.254-2.3,14.036,14.036,0,0,1-1.128-1.959,9.188,9.188,0,0,1-.742-4.594,7.686,7.686,0,0,1,5.255-6.954h.126a.557.557,0,0,1,.6.215l5.292,7.593a3.711,3.711,0,0,1,3.511-1.811c-.037-1.625.059-5.611,1.611-7.422,1.93-2.271,8.639-2.5,9.4-2.523h0a.549.549,0,0,1,.512.341c.059.134,1.373,3.347-.891,7.563a16.522,16.522,0,0,1-4.156,5.27,25.022,25.022,0,0,1,2.279,4.327,17.722,17.722,0,0,1,.453,3.659c1.366-.148,4.631-.3,6.858,1.284a5.054,5.054,0,0,1,2.1,3.444.422.422,0,0,1,0,.1,25.5,25.5,0,0,1-.972,6.242c-.089.3-.349,1.195-1.1,1.314-.9.148-1.64-.913-2.672-2.383a11.719,11.719,0,0,0-2.264-2.731,5.017,5.017,0,0,0-3.384-1.061,6.984,6.984,0,0,1-2.063,2.82,40.211,40.211,0,0,1-17.761,34.06C109.1,205.956,100.487,219.605,85.8,219.605Zm14.013-53.788Z" transform="translate(-25.837 -44.417)"/><path class="b" d="M72.109,216.783a7.319,7.319,0,0,1-2.783-.542c-.631-.245-1.277-.482-1.93-.742-4.253-1.529-9.077-3.266-10-10.992-.082-.7-.742-6.851,2.16-7.712a2.316,2.316,0,0,1,2.093.371c1.484,1.054,2.175,3.555,2.227,4.661.074,1.685.742,4,2.152,5.106a2.717,2.717,0,0,0,1.789.638c-.163-1.915-.542-8.164,1.143-11.244,2.093-3.83,8.06-5.745,11.794-4.839,2.679.653,5.025,3.065,6.22,4.49.43-2.486,1.744-7.786,5.277-10.243a.557.557,0,1,1,.631.913c-4.179,2.909-4.988,10.68-5,10.762a.557.557,0,0,1-.408.482.564.564,0,0,1-.6-.223c0-.045-3.013-4.283-6.383-5.1s-8.721.943-10.554,4.29-.965,11.074-.957,11.133a.557.557,0,0,1-.46.609,3.852,3.852,0,0,1-3.2-.816c-1.655-1.336-2.479-3.941-2.553-5.938a5.784,5.784,0,0,0-1.759-3.8,1.232,1.232,0,0,0-1.128-.215c-1.432.43-1.663,4.067-1.373,6.517.839,7.044,4.936,8.513,9.27,10.079.661.238,1.321.475,1.959.742,3.592,1.432,6.858-1.032,6.888-1.054a.564.564,0,0,1,.742.1.549.549,0,0,1-.1.779,9.159,9.159,0,0,1-5.166,1.789Z" transform="translate(-22.99 -56.052)"/><path class="b" d="M122.861,205.52a5.248,5.248,0,0,1-1.054-.1,2.746,2.746,0,0,1-2.279-1.833c-.557-1.856.623-3.214,1.766-4.527s2.138-2.457,1.848-4.119a.542.542,0,0,1,0-.327h-1.188c-3.555-.148-5.292-2.227-5.44-4.2a3.347,3.347,0,0,1,2.791-3.615c.49-.1,1.076-.148,1.648-.2l.839-.082a18.707,18.707,0,0,0,2.449-.46l4.349-1.143a3.852,3.852,0,0,1,3.778.609c1.9,1.759,1.225,5.693,1.195,5.863-.052.312-1.351,7.719-3.978,10.955A9.255,9.255,0,0,1,122.861,205.52Zm1.3-10.948a.6.6,0,0,1,.082.2c.379,2.182-.943,3.711-2.108,5.047-1.032,1.18-1.915,2.227-1.536,3.474a1.722,1.722,0,0,0,1.432,1.061,7.853,7.853,0,0,0,6.732-2.694c2.442-3.006,3.711-10.391,3.711-10.443.178-.972.356-3.711-.854-4.854a2.818,2.818,0,0,0-2.739-.349l-4.32,1.136a19.409,19.409,0,0,1-2.605.49c-.267.037-.564.059-.868.089-.542.045-1.1.1-1.544.178a2.227,2.227,0,0,0-1.878,2.442c.1,1.484,1.484,3.05,4.372,3.169a11.74,11.74,0,0,0,2.39-.119c3.333-.512,4.127-2.368,4.156-2.449a.558.558,0,0,1,1.039.408c-.037.1-1.009,2.531-5.025,3.147Z" transform="translate(-38.391 -55.809)"/><path class="b" d="M103.151,182.973a3.244,3.244,0,0,1-2.635-1.106c-1.4-1.685-.831-4.75-.52-5.99a14.1,14.1,0,0,1,.779-2.13c.245-.564.653-1.484.527-1.715,0,0-.082-.1-.49-.111a.571.571,0,0,1-.534-.586.557.557,0,0,1,.579-.527,1.581,1.581,0,0,1,1.388.631c.438.7.045,1.6-.445,2.746a14,14,0,0,0-.742,1.959c-.208.839-.809,3.711.3,5.01a2.323,2.323,0,0,0,2.071.7.557.557,0,1,1,.067,1.106Z" transform="translate(-33.968 -52.208)"/><path class="e" d="M136.33,153.284c0,2.746,2.4,5.114,5.121,3.177s4.038-2.969,4.038-2.969,7.281-5.73,5.307-12.491c0,0-6.064.349-7.526,1.336s-3.14,3.637-2.917,8.743a3.007,3.007,0,0,0-2.36.23,9.936,9.936,0,0,0-1.663,1.974Z" transform="translate(-43.55 -44.504)"/><path class="e" d="M139.27,157.528a3.2,3.2,0,0,1-1.484-.364,4.5,4.5,0,0,1-2.227-4.082.535.535,0,0,1,.089-.3,10.509,10.509,0,0,1,1.781-2.1,2.85,2.85,0,0,1,2.138-.475c-.074-5.856,2.4-8,3.177-8.528,1.544-1.047,7.17-1.4,7.808-1.432a.534.534,0,0,1,.564.4c2.056,7.036-5.2,12.84-5.492,13.085,0,0-1.366,1.061-4.06,2.969A4,4,0,0,1,139.27,157.528Zm-2.583-4.275a3.414,3.414,0,0,0,1.611,2.924,2.449,2.449,0,0,0,2.635-.364c2.672-1.907,4-2.969,4.015-2.969s6.68-5.337,5.2-11.467c-2.323.156-5.886.594-6.791,1.21-.69.468-2.932,2.449-2.672,8.261a.557.557,0,0,1-.742.557,2.434,2.434,0,0,0-1.848.126A9.137,9.137,0,0,0,136.687,153.253Z" transform="translate(-43.351 -44.31)"/><path class="e" d="M147.672,161s-5.463,2.011-6.992,4.691-.408,6.071-.408,6.071,2.724,7.014,4.913,7.979l2.895-7.222s3.911-.3,4.965,1.9a9.308,9.308,0,0,0,2.605,3.481c.653.609,1.188,1.789,2.286-2.694s-.148-6.68-2.546-7.266c-1.677-.423-4.453-1.373-6.138-.475.059,0-.134-2.969-.163-3.281A5.4,5.4,0,0,0,147.672,161Z" transform="translate(-44.536 -49.678)"/><path class="e" d="M144.966,180.105a.6.6,0,0,1-.223-.045c-2.331-1.032-4.921-7.548-5.2-8.283-.059-.178-1.195-3.711.445-6.561s7.051-4.847,7.281-4.928a.564.564,0,0,1,.609.148,6.034,6.034,0,0,1,1.559,3.5c.111,1.188.171,1.989.178,2.538a11.044,11.044,0,0,1,5,.549l.7.186c1.729.43,4.409,2.034,2.969,7.942-.705,2.872-1.195,3.533-1.789,3.711a1.306,1.306,0,0,1-1.247-.557,1.854,1.854,0,0,0-.171-.171l-.193-.178a9.649,9.649,0,0,1-2.531-3.466c-.742-1.484-3.177-1.611-4.09-1.6l-2.754,6.88a.549.549,0,0,1-.3.312A.527.527,0,0,1,144.966,180.105Zm2.323-18.629c-1.217.49-5.151,2.227-6.346,4.3-1.388,2.42-.371,5.6-.364,5.626.905,2.323,2.724,6.079,4.127,7.311l2.635-6.591a.564.564,0,0,1,.475-.341c.178,0,4.3-.3,5.515,2.227a8.75,8.75,0,0,0,2.271,3.125l.208.186.223.215a2.1,2.1,0,0,0,.178.186,9.263,9.263,0,0,0,.965-2.82c.935-3.785.215-6-2.138-6.6l-.742-.186c-1.6-.43-3.778-1.009-5.025-.334h0a.549.549,0,0,1-.742-.223.564.564,0,0,1-.059-.379c0-.393-.134-2.768-.171-3.117a4.75,4.75,0,0,0-.987-2.605ZM148.774,166.782Z" transform="translate(-44.339 -49.486)"/><path class="a" d="M144.941,158.943a.549.549,0,0,1-.371-.148,7.153,7.153,0,0,0-1.573-.549.557.557,0,1,1,.267-1.076,6.228,6.228,0,0,1,2.056.809.557.557,0,0,1,.037.787A.564.564,0,0,1,144.941,158.943Z" transform="translate(-45.13 -48.669)"/><path class="a" d="M147.9,166.364h0a.564.564,0,0,1-.52-.594,6.933,6.933,0,0,0-.557-1.566.56.56,0,1,1,1.017-.468,6.183,6.183,0,0,1,.661,2.108.557.557,0,0,1-.6.52Z" transform="translate(-46.231 -50.291)"/><path class="a" d="M144.674,168.4a.564.564,0,0,1-.423-.193,2.227,2.227,0,0,0-.8-.638.557.557,0,1,1,.119-1.106,2.85,2.85,0,0,1,1.529,1.024.549.549,0,0,1-.059.779.564.564,0,0,1-.364.134Z" transform="translate(-45.233 -51.079)"/><path class="a" d="M139.733,161.395h0a.557.557,0,0,1-.52-.594,2.122,2.122,0,0,0-.126-1.017.564.564,0,0,1,.082-.787.557.557,0,0,1,.779.082,2.9,2.9,0,0,1,.379,1.8A.557.557,0,0,1,139.733,161.395Z" transform="translate(-44.2 -49.118)"/><path class="e" d="M133.269,233.34c-4.372,0-9.07-1.685-11.207-5.886a8.522,8.522,0,0,1-.579-1.432.557.557,0,0,1,1.069-.312,6.6,6.6,0,0,0,.5,1.239c2.4,4.713,8.476,5.9,13.1,5.01,4.06-.779,8.565-3.429,9.033-8.513a6.583,6.583,0,0,0-2.427-5.626,3.807,3.807,0,0,0-1.663-.742h-.208a6.037,6.037,0,0,1,1.054,6.762c-1.625,3.065-5.522,3.674-7.689,3.763-3.466.134-7.823-1.781-9.166-5.24a.557.557,0,1,1,1.039-.4c1.143,2.969,5.092,4.654,8.075,4.527,1.559-.067,5.337-.5,6.762-3.177,1.165-2.189.074-4.668-1.425-6.042a.675.675,0,0,1-.193-.816c.334-.7,1.915-.468,1.937-.468a4.891,4.891,0,0,1,2.152.965,7.63,7.63,0,0,1,2.857,6.613c-.52,5.7-5.47,8.647-9.923,9.5A16.238,16.238,0,0,1,133.269,233.34Z" transform="translate(-39.705 -63.886)"/><path class="f" d="M141.634,182.306c2.227-2.152-3.132-4.3-4.26-4.81-3.258-1.484-6.5-2.9-9.7-4.5-.987-.49-1.774-1.291-2.969-1.009-1.484.327-2.561,2.531-1.032,3.258,4.045,1.922,8.008,4.1,12.172,5.789C137.084,181.586,140.246,183.65,141.634,182.306Z" transform="translate(-40.072 -52.499)"/><path d="M141.145,181.744a9.2,9.2,0,0,1-3.629-1.269l-.742-.356c-2.427-1.017-4.832-2.227-7.155-3.414-1.173-.594-2.353-1.188-3.533-1.759a1.64,1.64,0,0,1-.972-1.752,2.345,2.345,0,0,1,1.885-1.9,3.362,3.362,0,0,1,2.4.668c.186.1.371.223.564.319,2.82,1.425,5.7,2.746,8.483,4.023l.193.082c1.915.868,4.149,2.034,4.379,3.444a1.588,1.588,0,0,1-.579,1.484h0A1.863,1.863,0,0,1,141.145,181.744Zm-13.694-9.374h-.245a1.247,1.247,0,0,0-.965.965.534.534,0,0,0,.356.594c1.188.571,2.368,1.173,3.548,1.766,2.308,1.173,4.691,2.383,7.1,3.392a6.549,6.549,0,0,1,.742.386c.987.5,3.036,1.566,3.711.972h0c.26-.238.238-.393.223-.46-.067-.453-.779-1.269-3.711-2.6l-.193-.089c-2.8-1.277-5.685-2.605-8.521-4.038-.223-.111-.43-.238-.638-.364A2.82,2.82,0,0,0,127.452,172.37Z" transform="translate(-40.632 -52.329)"/><path class="f" d="M147.2,185.08s5.938.883,5.685,8.8C152.894,193.875,145.064,191.329,147.2,185.08Z" transform="translate(-46.259 -55.897)"/><path class="f" d="M159.941,179.978s-4.921-3.474-10.191,2.442C149.75,182.42,157.172,185.975,159.941,179.978Z" transform="translate(-47.082 -54.313)"/><path d="M153.649,192.245l-.705-.23c-.156-.045-3.8-1.262-5.233-4.134a5.544,5.544,0,0,1-.2-4.453l.148-.438.46.067c.052,0,5.811.95,5.552,8.432Zm-5.2-7.949a4.386,4.386,0,0,0,.289,3.088,8.014,8.014,0,0,0,3.859,3.288c-.178-4.706-3.036-6.027-4.186-6.376Z" transform="translate(-46.34 -55.357)"/><path d="M151.991,183.114a11.534,11.534,0,0,1-3.3-.5l-.705-.23.416-.609c4.223-6.183,9.419-3.533,9.471-3.511l.408.215-.134.445a5.611,5.611,0,0,1-2.791,3.459A7.378,7.378,0,0,1,151.991,183.114Zm-2.19-1.358a7.983,7.983,0,0,0,5.054-.364,4.349,4.349,0,0,0,2.056-2.323c-1.136-.371-4.231-.972-7.11,2.709Z" transform="translate(-46.628 -53.983)"/><path class="e" d="M134.549,202.9s-4.186-2.123-5.812.742-3.021,4.988-6.865,5.745-3.882-1.484-3.882-1.484-3.273,2.8-4.067,5.351-4.453,9.062-4.453,9.062-2.806,2.969.943,3.2a16.8,16.8,0,0,0,6.168-.6l3.6-4.832s5.76-4.557,6.769-5.648S135.009,204.834,134.549,202.9Z" transform="translate(-36.32 -60.32)"/><path class="e" d="M111.55,225.946a13.409,13.409,0,0,1-1.418-.052c-1.284-.082-2.078-.5-2.368-1.217-.453-1.165.742-2.553,1.009-2.872.364-.638,3.711-6.546,4.409-8.907.831-2.672,4.1-5.492,4.238-5.611a.557.557,0,0,1,.594-.082.571.571,0,0,1,.327.5,1.032,1.032,0,0,0,.408.683c.371.289,1.158.557,2.813.23,3.54-.7,4.869-2.62,6.487-5.47,1.484-2.627,4.936-1.774,6.546-.957a.542.542,0,0,1,.289.371c.586,2.479-7.689,11.972-7.771,12.061-.98,1.061-6.131,5.151-6.769,5.656l-3.525,4.795a.557.557,0,0,1-.26.193,16.157,16.157,0,0,1-5.01.683Zm6.012-17.242a13.037,13.037,0,0,0-3.288,4.542c-.8,2.575-4.386,8.907-4.535,9.166a1.269,1.269,0,0,1-.082.1c-.43.46-.995,1.329-.831,1.752.111.275.623.46,1.4.52a17.16,17.16,0,0,0,5.789-.527l3.5-4.691.1-.1c.059-.045,5.737-4.542,6.68-5.589,1.856-2,7.274-8.958,7.511-10.807-.9-.379-3.667-1.329-4.787.638-1.722,3.028-3.251,5.2-7.244,6.019-1.685.327-2.969.171-3.748-.475A2.353,2.353,0,0,1,117.562,208.7Z" transform="translate(-36.116 -60.123)"/><path class="g" d="M90.106,203.7s11.341-13.449,16.64-4.55-13.835,13.2-13.835,13.2S85.364,212.208,90.106,203.7Z" transform="translate(-31.113 -58.755)"/><path d="M138.88,210.85h-128v-200h128ZM13.84,207.884H135.92V13.816H13.84Z" transform="translate(-10.88 -10.85)"/></svg>