<svg xmlns="http://www.w3.org/2000/svg" width="128" height="200" viewBox="0 0 128 200"><defs><style>.a{fill:#fff;}.b{fill:#170000;}.c{fill:#da003a;}.d{fill:#4fad28;}.e{fill:#231815;}.f{fill:#c21823;}.g{fill:#858585;}</style></defs><rect class="a" width="125.031" height="197.031" transform="translate(1.484 1.484)"/><path d="M138.88,210.85h-128v-200h128ZM13.84,207.884H135.92V13.816H13.84Z" transform="translate(-10.88 -10.85)"/><path class="b" d="M28.187,37.095q.816-1.759,1.544-3.54c.5-1.188,1.18-2.865,2.063-5.04l.705-1.759-4.409.059L27.46,28.8l-.95-.178.312-2.969h6.791l.312.4-2.041,5.722L29.843,37.54Z" transform="translate(-14.909 -14.665)"/><path class="c" d="M164.8,23.048a3.05,3.05,0,0,0-2.672,1.291,3.021,3.021,0,0,0-2.657-1.291,3.57,3.57,0,0,0-3.711,3.77,5.01,5.01,0,0,0,.742,2.716,12.907,12.907,0,0,0,3.192,3.132c.623.475,1.2.883,1.581,1.136.742.482.742.49.831.49h0c.082,0,.134,0,.824-.49.379-.252.957-.653,1.581-1.128a12.84,12.84,0,0,0,3.2-3.14,4.988,4.988,0,0,0,.742-2.716,3.57,3.57,0,0,0-3.652-3.77Z" transform="translate(-48.629 -13.993)"/><path class="d" d="M73.982,139.431c4.453,1.863,6.442,7.1,6.442,7.1s-5.158,2.227-9.582.349-6.442-7.1-6.442-7.1S69.558,137.568,73.982,139.431Z" transform="translate(-24.819 -43.902)"/><path class="e" d="M75.886,146.967a9.211,9.211,0,0,1-3.563-.675c-3.9-1.64-5.648-6.108-5.722-6.294a.371.371,0,0,1,.2-.475c.186-.082,4.6-1.937,8.5-.3h0c3.9,1.64,5.656,6.1,5.73,6.294a.386.386,0,0,1-.2.475A13.931,13.931,0,0,1,75.886,146.967Zm-8.446-6.9c.49,1.054,2.167,4.268,5.2,5.537s6.48.223,7.571-.163c-.482-1.061-2.167-4.275-5.2-5.537S68.538,139.678,67.44,140.072Z" transform="translate(-25.384 -43.867)"/><path class="e" d="M80.681,146.362a.431.431,0,0,1-.141,0L66.8,140.573a.386.386,0,0,1-.2-.49.379.379,0,0,1,.49-.193l13.731,5.789a.364.364,0,0,1,.2.482.379.379,0,0,1-.341.2Z" transform="translate(-25.384 -44.205)"/><path class="d" d="M90.615,132.144c-3.229,3.555-2.85,9.159-2.85,9.159s5.611-.171,8.84-3.711,2.85-9.151,2.85-9.151S93.874,128.588,90.615,132.144Z" transform="translate(-30.893 -41.255)"/><path class="e" d="M87.528,140.969a.371.371,0,0,1-.371-.349c0-.2-.3-4.988,2.538-8.12s7.637-3.3,7.838-3.31a.379.379,0,0,1,.386.349c0,.2.3,4.988-2.546,8.12s-7.593,3.3-7.83,3.31Zm9.649-11.007c-1.158.1-4.75.631-6.94,3.036s-2.36,6.042-2.353,7.2c1.158-.1,4.743-.631,6.932-3.036s2.375-6.042,2.368-7.2Z" transform="translate(-30.735 -41.448)"/><path class="e" d="M87.53,140.965a.371.371,0,0,1-.275-.623l10.02-11.029a.371.371,0,1,1,.549.5L87.783,140.838A.371.371,0,0,1,87.53,140.965Z" transform="translate(-30.737 -41.444)"/><path class="c" d="M80.511,137.9a3.629,3.629,0,0,0,2.909-1.989,3.629,3.629,0,0,0,3.377,1.024,4.268,4.268,0,0,0,3.644-5.144,5.886,5.886,0,0,0-1.381-3.058,15.141,15.141,0,0,0-4.3-3.132c-.831-.453-1.588-.816-2.078-1.047-.943-.438-.972-.438-1.076-.423h0c-.1,0-.156.059-.883.742-.393.364-1,.95-1.655,1.625a15.186,15.186,0,0,0-3.184,4.3,5.938,5.938,0,0,0-.371,3.34,4.268,4.268,0,0,0,5,3.756Z" transform="translate(-27.687 -40.14)"/><path class="e" d="M77.948,137.818a4.6,4.6,0,0,1-4.661-4.142,6.324,6.324,0,0,1,.393-3.533,15.386,15.386,0,0,1,3.258-4.453c.668-.69,1.277-1.277,1.67-1.64.742-.7.854-.787,1.076-.824s.364,0,1.306.453c.5.23,1.262.6,2.1,1.047a15.587,15.587,0,0,1,4.453,3.2,6.272,6.272,0,0,1,1.484,3.236,4.787,4.787,0,0,1-.935,3.889,4.869,4.869,0,0,1-3.021,1.677,4.03,4.03,0,0,1-3.34-.794,4.075,4.075,0,0,1-2.969,1.789h0a5.117,5.117,0,0,1-.816.1Zm1.833-13.835s-.423.416-.668.638c-.386.364-.987.935-1.64,1.618a14.844,14.844,0,0,0-3.11,4.179,5.693,5.693,0,0,0-.341,3.147,4.023,4.023,0,0,0,1.752,2.895,4.171,4.171,0,0,0,2.88.557h0a3.258,3.258,0,0,0,2.627-1.811.371.371,0,0,1,.6-.1,3.273,3.273,0,0,0,3.043.913,4.194,4.194,0,0,0,2.561-1.41,4.067,4.067,0,0,0,.742-3.3,5.671,5.671,0,0,0-1.3-2.887,15.111,15.111,0,0,0-4.238-3.013c-.824-.438-1.573-.8-2.056-1.032A7.274,7.274,0,0,0,79.781,123.983Z" transform="translate(-27.109 -39.905)"/><path class="d" d="M82.879,163.273c4.379,1.974,6.257,7.266,6.257,7.266s-5.2,2.078-9.589.1-6.257-7.266-6.257-7.266S78.508,161.291,82.879,163.273Z" transform="translate(-27.134 -50.038)"/><path class="e" d="M84.887,170.856a9.375,9.375,0,0,1-3.845-.742c-3.845-1.744-5.485-6.249-5.559-6.442a.371.371,0,0,1,.215-.468c.186-.082,4.661-1.826,8.506-.082s5.492,6.249,5.559,6.442a.371.371,0,0,1-.208.468,13.835,13.835,0,0,1-4.669.824Zm-8.565-7.11c.46,1.069,2.063,4.327,5.032,5.663s6.465.4,7.571,0c-.453-1.069-2.056-4.327-5.025-5.67h0C80.931,162.432,77.427,163.382,76.322,163.745Z" transform="translate(-27.698 -50.02)"/><path class="e" d="M89.415,170.318a.342.342,0,0,1-.148-.037l-13.582-6.138a.378.378,0,0,1-.186-.5.364.364,0,0,1,.49-.178l13.582,6.138a.371.371,0,0,1,.186.49A.379.379,0,0,1,89.415,170.318Z" transform="translate(-27.699 -50.299)"/><path class="c" d="M92.323,154.462a6.012,6.012,0,0,0-1.67-2.917,15.037,15.037,0,0,0-4.639-2.679c-.868-.371-1.655-.661-2.167-.839-.928-.334-1-.341-1.1-.319h0c-.1,0-.134.037-.824.816-.356.4-.905,1.039-1.484,1.781a15.022,15.022,0,0,0-2.754,4.572,5.938,5.938,0,0,0-.052,3.362,4.268,4.268,0,0,0,5.388,3.266,3.637,3.637,0,0,0,2.694-2.286,3.622,3.622,0,0,0,3.466.7,4.268,4.268,0,0,0,3.14-5.455Z" transform="translate(-28.208 -46.236)"/><path class="e" d="M83.053,160.889a4.565,4.565,0,0,1-4.542-3.711,6.368,6.368,0,0,1,.052-3.555,15.586,15.586,0,0,1,2.82-4.7c.46-.586.98-1.21,1.484-1.8.7-.742.742-.868,1.009-.928s.364,0,1.336.327c.742.26,1.484.557,2.182.839a15.712,15.712,0,0,1,4.75,2.761,6.272,6.272,0,0,1,1.759,3.088h0a4.758,4.758,0,0,1-.542,3.971,4.906,4.906,0,0,1-2.85,1.959,4.067,4.067,0,0,1-3.407-.475,4.045,4.045,0,0,1-2.754,2.056,5.114,5.114,0,0,1-1.3.171Zm.995-13.968c0,.037-.386.453-.609.742-.512.579-1.024,1.188-1.484,1.759a15.068,15.068,0,0,0-2.687,4.453,5.589,5.589,0,0,0-.045,3.162,3.9,3.9,0,0,0,4.936,2.969,3.243,3.243,0,0,0,2.434-2.048.379.379,0,0,1,.594-.156,3.273,3.273,0,0,0,3.132.623,4.216,4.216,0,0,0,2.42-1.655,4.067,4.067,0,0,0,.46-3.362h0a5.6,5.6,0,0,0-1.573-2.746,14.844,14.844,0,0,0-4.513-2.6c-.668-.282-1.41-.572-2.145-.831-.3-.1-.831-.289-.92-.3Z" transform="translate(-28.435 -45.841)"/><path class="d" d="M94.109,157.628C90.791,161.1,91,166.713,91,166.713s5.611,0,8.907-3.5,3.088-9.077,3.088-9.077S97.427,154.162,94.109,157.628Z" transform="translate(-31.739 -47.9)"/><path class="e" d="M90.87,166.362a.371.371,0,0,1-.371-.356c0-.2-.171-5,2.754-8.046h0c2.924-3.065,7.734-3.11,7.919-3.11a.371.371,0,0,1,.371.356c0,.2.171,5-2.754,8.053S91.041,166.362,90.87,166.362Zm2.917-7.89c-2.227,2.353-2.516,5.938-2.546,7.133,1.165-.074,4.765-.5,7.014-2.858s2.524-5.975,2.546-7.14C99.643,155.689,96.036,156.119,93.787,158.472Z" transform="translate(-31.607 -48.083)"/><path class="e" d="M90.874,166.362a.356.356,0,0,1-.252-.1.371.371,0,0,1,0-.527l10.25-10.777a.371.371,0,0,1,.527,0,.379.379,0,0,1,0,.527L91.1,166.251a.379.379,0,0,1-.23.111Z" transform="translate(-31.611 -48.083)"/><path class="d" d="M90.977,116.623c-4.379,1.974-6.257,7.266-6.257,7.266s5.2,2.078,9.589.1,6.257-7.266,6.257-7.266S95.319,114.641,90.977,116.623Z" transform="translate(-30.111 -37.976)"/><path class="e" d="M89.5,124.193a13.835,13.835,0,0,1-4.669-.861.371.371,0,0,1-.208-.468c.067-.193,1.707-4.706,5.559-6.442l.148.341-.148-.341c3.845-1.744,8.32,0,8.506.082a.371.371,0,0,1,.215.468c-.074.193-1.715,4.7-5.559,6.435A9.27,9.27,0,0,1,89.5,124.193Zm-4.038-1.41c1.106.356,4.609,1.306,7.571-.037s4.572-4.594,5.032-5.663c-1.106-.364-4.609-1.314-7.578,0h0C87.517,118.455,85.921,121.714,85.461,122.783Z" transform="translate(-30.077 -37.946)"/><path class="e" d="M84.97,123.659a.386.386,0,0,1-.341-.215.371.371,0,0,1,.186-.49L98.4,116.809a.371.371,0,0,1,.49.186.379.379,0,0,1-.186.5l-13.582,6.131a.334.334,0,0,1-.148.037Z" transform="translate(-30.076 -38.237)"/><path class="c" d="M84.944,113.277a3.615,3.615,0,0,0,3.466-.7,3.637,3.637,0,0,0,2.694,2.286,4.268,4.268,0,0,0,5.388-3.273,5.938,5.938,0,0,0-.052-3.355,15.022,15.022,0,0,0-2.754-4.572c-.579-.742-1.128-1.381-1.484-1.781-.69-.742-.742-.794-.824-.824h0a3.9,3.9,0,0,0-1.1.319c-.512.178-1.3.468-2.167.831a15.178,15.178,0,0,0-4.631,2.687,5.938,5.938,0,0,0-1.663,2.917,4.26,4.26,0,0,0,3.125,5.463Z" transform="translate(-29.301 -34.176)"/><path class="e" d="M90.8,114.244a5.107,5.107,0,0,1-1.3-.163,4.052,4.052,0,0,1-2.754-2.063,4.038,4.038,0,0,1-3.407.475h0a4.617,4.617,0,0,1-3.414-5.938,6.272,6.272,0,0,1,1.759-3.088,15.712,15.712,0,0,1,4.75-2.761c.868-.364,1.67-.661,2.227-.839.965-.341,1.1-.386,1.314-.334s.327.156,1.024.935c.52.594,1.039,1.217,1.484,1.8a15.661,15.661,0,0,1,2.82,4.706,6.368,6.368,0,0,1,.052,3.555A4.557,4.557,0,0,1,90.8,114.244Zm-3.9-3.177h.089a.371.371,0,0,1,.26.23,3.243,3.243,0,0,0,2.434,2.049,3.9,3.9,0,0,0,4.936-2.969,5.589,5.589,0,0,0-.045-3.162,15.067,15.067,0,0,0-2.687-4.453c-.453-.572-.965-1.18-1.484-1.759-.223-.252-.594-.668-.668-.742s-.557.208-.868.319c-.512.178-1.3.468-2.145.824a14.963,14.963,0,0,0-4.513,2.605,5.529,5.529,0,0,0-1.566,2.746,3.911,3.911,0,0,0,2.88,5,3.288,3.288,0,0,0,3.132-.623A.371.371,0,0,1,86.9,111.068Z" transform="translate(-28.803 -33.777)"/><path class="d" d="M81.076,110.978c3.318,3.474,3.088,9.085,3.088,9.085s-5.611,0-8.907-3.5-3.088-9.077-3.088-9.077S77.758,107.512,81.076,110.978Z" transform="translate(-26.836 -35.838)"/><path class="e" d="M84.695,119.712h0c-.208,0-5-.052-7.919-3.1S74,108.794,74,108.556a.371.371,0,0,1,.371-.356h0c.208,0,5,.052,7.919,3.11h0c2.924,3.05,2.761,7.845,2.754,8.046a.371.371,0,0,1-.349.356Zm-9.953-10.755c0,1.165.3,4.787,2.546,7.14s5.856,2.783,7.014,2.858c0-1.165-.3-4.78-2.546-7.133h0C79.529,109.469,75.922,109.039,74.742,108.957Z" transform="translate(-27.312 -36.021)"/><path class="e" d="M84.7,119.711a.378.378,0,0,1-.267-.111l-10.3-10.769a.373.373,0,0,1,.534-.52l10.3,10.777a.371.371,0,0,1,0,.52.364.364,0,0,1-.267.1Z" transform="translate(-27.32 -36.02)"/><path d="M134.642,142.525s-.074,8.981-.972,10.473-6.2,4.513-6.2,4.513a15.334,15.334,0,0,1,.356-11.942.252.252,0,0,0-.3-.341l-1.6.386s-6.613,1.959-7.519.156c0,0,1.707-4.149,3.808-6.034a12.447,12.447,0,0,1,3.986-2.494,11.69,11.69,0,0,1,2.531.742,13.308,13.308,0,0,1,2.679,2.9l.905,1.418Z" transform="translate(-38.886 -43.534)"/><path d="M144.631,143.2s-.638,6.739,0,8.283,1.677,4.372,2.835,5.144a12.246,12.246,0,0,0,3.132,1.262s1.432-4.928.95-7.214a34.072,34.072,0,0,0-1.544-4.891,28.058,28.058,0,0,1,3.251.661,30.06,30.06,0,0,1,4.1,1.856l.824-2-2.969-5.841L153.2,138.71l-3.859,1.7-3.192,2.969Z" transform="translate(-45.689 -43.914)"/><path d="M110.573,222.68c-2,0-4.579-1.744-6.851-4.72-1.959-2.568-3.37-6.576-4.609-10.1-.564-1.6-1.1-3.11-1.6-4.223-1.277-2.835-1.551-7.326-1.611-9.2-.876.386-2.353,1.032-3.822,1.6-2.494.957-7.162-.809-10.25-1.974-2.791-1.047-8.164-2.449-9.886-2.895-2.323,9.649-10.68,14.666-12.35,15.586-.082.839-.252,1.729-.43,2.665-.527,2.761-1.061,5.619.356,7.593.23.319.475.616.7.883.646.742,1.247,1.484,1.069,2.345-.141.653-.742,1.195-1.841,1.744a4.668,4.668,0,0,1-3.815.134,3.206,3.206,0,0,1-1.833-2.049c0-.045-1.573-5.247-2.449-8.068s-1-11.348,1.536-13.887c1.484-1.447,1.306-3.919,1.091-7.667-.1-1.588-.2-3.4-.2-5.448,0-7.251,6.932-12.336,11.029-14.191,2.39-1.091,8.231-.683,13.879-.282,3.815.267,7.422.52,9.248.237,4.505-.7,16.225-4.082,17.36-4.876a67.488,67.488,0,0,1,4.921-5.233.556.556,0,1,1,.787.787,66.988,66.988,0,0,0-4.758,5.032c-.579,1.165-14.733,4.861-18.132,5.388-1.952.3-5.619.045-9.493-.23-5.262-.364-11.215-.779-13.36.186-3.852,1.752-10.391,6.5-10.391,13.182,0,2.019.1,3.808.193,5.388.238,4.045.386,6.717-1.4,8.513-2.049,2.049-2.1,10.027-1.232,12.766s2.449,8.038,2.464,8.1a2.071,2.071,0,0,0,1.2,1.329,3.614,3.614,0,0,0,2.865-.1c1-.49,1.21-.824,1.239-.98.067-.312-.371-.839-.831-1.4-.245-.289-.5-.6-.742-.943-1.7-2.368-1.084-5.6-.549-8.454a27.8,27.8,0,0,0,.453-2.858.549.549,0,0,1,.3-.453c.1-.045,9.968-5.158,12.157-15.52a.572.572,0,0,1,.252-.356.549.549,0,0,1,.431-.074c.289.074,7.162,1.8,10.562,3.08,2.754,1.039,7.363,2.776,9.456,1.974,2.227-.861,4.505-1.907,4.527-1.915a.557.557,0,0,1,.787.5c0,.059,0,6.235,1.529,9.6.52,1.15,1.061,2.679,1.633,4.3,1.217,3.451,2.6,7.37,4.453,9.8,2.665,3.5,5.277,4.624,6.576,4.193.609-.208.92-.408.972-.638s-.059-1.106-2.412-3.347c-2.969-2.85-4.386-11.875-3.585-17.679a10.027,10.027,0,0,1,1.789-5c1.225-1.484,1.774-2.227,2.019-2.605a.549.549,0,0,1,.193-.653.653.653,0,0,1,.935,0c.386.408.386.742-2.293,3.956a9.159,9.159,0,0,0-1.536,4.453c-.839,6.079.742,14.362,3.251,16.722,2.138,2.041,2.969,3.355,2.724,4.394-.186.846-1.009,1.217-1.707,1.484A2.88,2.88,0,0,1,110.573,222.68Z" transform="translate(-21.348 -49.622)"/><path d="M140.206,223.733a5.084,5.084,0,0,1-2.509-.853c-4.349-2.613-8.4-10.8-8.788-11.593-.453-.609-4.542-6.212-3.132-9.4l1.017.453c-.995,2.227,1.856,6.769,3.036,8.32l.059.1c.037.089,4.186,8.654,8.38,11.17.839.5,1.974.995,2.613.475a2.375,2.375,0,0,0,.571-1.959c-1.41-1.069-4.847-5.826-5.418-6.68-1.915-2.895-2.434-10.814-2.457-11.133s-.334-10.22,1.663-13.486c1.841-3.006,2.746-13.4,2.754-13.508l1.106.1c-.037.438-.935,10.762-2.909,14-1.818,2.969-1.484,12.744-1.484,12.848s.52,7.934,2.271,10.584a48.481,48.481,0,0,0,5.121,6.457.646.646,0,0,1,.4.43,3.407,3.407,0,0,1-.876,3.229A2.13,2.13,0,0,1,140.206,223.733Zm1.269-3.243a.49.49,0,0,0,.4.186.8.8,0,0,1-.423-.186ZM142.1,219.621Zm-.223-.059Z" transform="translate(-40.731 -53.525)"/><path d="M35.153,227.346a4.907,4.907,0,0,1-2.382-.683c-2.086-1.18-3.444-3.488-3.154-5.381.393-2.59,3.184-6.962,5.433-8.506a11.242,11.242,0,0,0,3.2-4.127c.95-1.744,1.848-3.392,3.592-4.008,2.286-.8,5.537-6.027,6.6-7.971l.972.534c-.163.3-4.052,7.378-7.2,8.491-1.343.475-2.108,1.87-2.969,3.488A11.759,11.759,0,0,1,35.7,213.7a15.123,15.123,0,0,0-4.965,7.756c-.215,1.432.928,3.3,2.605,4.245a3.021,3.021,0,0,0,3.511-.082c.379-.319.379-.809.341-1.588a5,5,0,0,1,.082-1.447,16.854,16.854,0,0,1,5.158-7.519c.43-.3.839-.564,1.217-.809.987-.646,1.841-1.2,1.915-1.663l1.1.163c-.148.957-1.091,1.574-2.4,2.427-.371.245-.742.5-1.188.794a15.69,15.69,0,0,0-4.743,6.917A4.06,4.06,0,0,0,38.286,224a2.886,2.886,0,0,1-.742,2.494A3.711,3.711,0,0,1,35.153,227.346Z" transform="translate(-15.7 -58.912)"/><path class="e" d="M52.612,180.28a.593.593,0,0,1-.223-.045c-5.329-2.316-8.751-6.123-10.183-11.326s-.1-9.827,3.926-13.122a10.658,10.658,0,0,1,6.561-2.627h0A7.622,7.622,0,0,1,59.01,156.6a4.891,4.891,0,0,1,.742,2.227s.082,1.611-.638,1.885a.683.683,0,0,1-.8-.267c-1.232-1.618-3.6-2.924-5.886-1.959-2.516,1.061-3.6,4.119-3.763,6.413-.341,4.676,3.414,7.615,7.3,8.1a.557.557,0,0,1,.482.623.564.564,0,0,1-.623.482c-5.136-.646-8.617-4.557-8.276-9.285.193-2.613,1.484-6.108,4.453-7.363a6,6,0,0,1,6.635,1.655v-.223a3.778,3.778,0,0,0-.594-1.707,6.6,6.6,0,0,0-5.381-2.917h0a9.537,9.537,0,0,0-5.856,2.375c-3.659,2.969-4.891,7.14-3.563,11.964s4.453,8.4,9.56,10.606a.557.557,0,0,1-.223,1.061Z" transform="translate(-18.895 -47.656)"/><path d="M140.278,168.921s-.186-1.054,1.737-.868,2.056.683,2.019.868-.349,1.974-.972,2.16a1.15,1.15,0,0,1-.906,0S140.961,171.021,140.278,168.921Z" transform="translate(-44.546 -51.486)"/><path class="e" d="M103.747,172.25S99.939,181.238,95,182.767c-6.925,2.138-11.578,2.115-13.627,1.863-3.221-.393-9.434-6-3.563-10.762C77.807,173.868,91.708,174.462,103.747,172.25Z" transform="translate(-27.7 -52.583)"/><path class="e" d="M83.317,185.114A18.554,18.554,0,0,1,81.091,185a8.6,8.6,0,0,1-6.264-5.537c-.453-1.573-.4-3.926,2.42-6.22a.586.586,0,0,1,.379-.119c.134,0,13.983.564,25.822-1.6a.557.557,0,0,1,.534.193.564.564,0,0,1,.074.571c-.156.371-3.963,9.233-9.1,10.821a39.759,39.759,0,0,1-11.638,2.011ZM77.8,174.24c-1.759,1.484-2.4,3.147-1.893,4.913a7.459,7.459,0,0,0,5.337,4.735c1.6.193,6.1.408,13.36-1.848,3.711-1.15,6.843-6.94,7.964-9.248A138.894,138.894,0,0,1,77.8,174.24Z" transform="translate(-27.503 -52.391)"/><path class="f" d="M123.14,165.529c-2.731,1.432,1.8,5.01,2.731,5.812,2.724,2.316,5.418,4.617,8.038,7.051.809.742,1.336,1.737,2.6,1.818,1.484.1,3.169-1.707,1.907-2.835-3.333-2.969-6.517-6.2-10.042-8.988C127.3,167.5,124.854,164.624,123.14,165.529Z" transform="translate(-39.894 -50.801)"/><path d="M135.662,180.487a1.357,1.357,0,0,1-.245,0,3.37,3.37,0,0,1-2.108-1.314c-.148-.163-.3-.319-.453-.475-2.316-2.175-4.7-4.245-7.006-6.249l-.156-.134c-1.6-1.373-3.414-3.125-3.229-4.535a1.559,1.559,0,0,1,.965-1.232h0c1.484-.742,3.31,1.017,4.513,2.167.223.215.423.4.586.542,2.041,1.663,4,3.511,5.938,5.3.957.9,1.922,1.8,2.887,2.687a1.625,1.625,0,0,1,.445,1.952A2.353,2.353,0,0,1,135.662,180.487Zm-11.749-12.952c-.319.148-.334.3-.349.371-.052.453.393,1.44,2.85,3.548l.163.141c2.316,2.011,4.706,4.09,7.036,6.279.178.171.349.349.512.527a2.308,2.308,0,0,0,1.425.965,1.247,1.247,0,0,0,1.195-.646.527.527,0,0,0-.171-.668c-.98-.891-1.945-1.8-2.909-2.7-1.885-1.774-3.83-3.607-5.849-5.255-.186-.156-.4-.356-.646-.594-.8-.742-2.472-2.36-3.258-1.967Z" transform="translate(-39.937 -51.064)"/><path class="f" d="M122.741,163.112s-5.47-2.531-2.969-10.042C119.773,153.07,126.542,157.724,122.741,163.112Z" transform="translate(-39.044 -47.622)"/><path class="f" d="M107.15,165.878s3.711,4.72,10.458.542C117.608,166.42,111.492,160.905,107.15,165.878Z" transform="translate(-35.941 -50.393)"/><path d="M121.524,164.777l-.423-.193c-.052,0-5.307-2.553-2.969-9.649l.238-.705.609.423c.134.089,3.288,2.286,3.852,5.44a5.581,5.581,0,0,1-1.054,4.312Zm-2.546-8.728c-1.195,4.55,1.173,6.635,2.175,7.288a4.453,4.453,0,0,0,.6-3.05,8.039,8.039,0,0,0-2.776-4.238Z" transform="translate(-38.633 -47.922)"/><path d="M113,169.428a6.754,6.754,0,0,1-4.4-1.618l-.334-.319.26-.386a5.552,5.552,0,0,1,3.652-2.531c3.147-.6,6.324,1.566,6.457,1.655l.609.423-.572.468a8.906,8.906,0,0,1-5.67,2.308Zm-3.251-2.115c.972.7,3.778,2.152,7.578-.564a7.927,7.927,0,0,0-4.951-1.076,4.342,4.342,0,0,0-2.627,1.64Z" transform="translate(-36.231 -50.566)"/><path d="M136.656,166.409a8.907,8.907,0,0,1-7.229-3.785,21.65,21.65,0,0,1-3.236-13.226,13.486,13.486,0,0,1,1.752-5.025c-.3-.111-.638-.193-.8-.089-.742.4-6.16,2.063-7.645,1.247a.957.957,0,0,1-.527-.809c-.1-2.227,4.869-6.45,5.863-7.274a2.783,2.783,0,0,1,2.442-.935c2.524.319,4.906,4.045,5.522,5.084l6.487.586a5.841,5.841,0,0,1,1.247-1.388c.379-.312,3.711-3.058,6.108-3.214,2.561-.186,5.448,7.6,5.559,8.951a.579.579,0,0,1,0,.223,1.833,1.833,0,0,1-1.084,1.113,2.16,2.16,0,0,1-1.945-.445,14.6,14.6,0,0,0-4.713-1.484,14.3,14.3,0,0,1,1.136,4.112c.275,2.791-.438,5.938-2.739,12.083a6.242,6.242,0,0,1-5.351,4.231A7.531,7.531,0,0,1,136.656,166.409Zm-7.645-21.65A11.875,11.875,0,0,0,127.3,149.5a20.7,20.7,0,0,0,3.058,12.514,7.712,7.712,0,0,0,6.984,3.243,5.2,5.2,0,0,0,4.453-3.511c2.227-5.938,2.924-8.988,2.665-11.593a13.739,13.739,0,0,0-1.484-4.669.571.571,0,0,1,0-.586.549.549,0,0,1,.534-.238c.186,0,4.453.623,6.235,1.848a1.217,1.217,0,0,0,.965.3.638.638,0,0,0,.334-.319,20.039,20.039,0,0,0-1.729-4.513c-1.351-2.65-2.279-3.31-2.627-3.288-1.648.1-4.3,1.982-5.47,2.969A4.06,4.06,0,0,0,140.093,143a.557.557,0,0,1-.564.334l-7.14-.638a.564.564,0,0,1-.438-.282c-.69-1.247-2.917-4.542-4.839-4.78a1.752,1.752,0,0,0-1.536.638c-2.3,1.907-5.426,5.04-5.515,6.331.854.393,5.589-.742,6.5-1.277a2.479,2.479,0,0,1,2.152.178.6.6,0,0,1,.245-.1.675.675,0,0,1,.742.438.69.69,0,0,1-.126.742A.624.624,0,0,1,129.012,144.759Z" transform="translate(-39.146 -43.347)"/><path class="a" d="M134.295,153.668a.557.557,0,0,1-.134-1.1,6.279,6.279,0,0,1,2.227-.245.557.557,0,0,1,.393.683.549.549,0,0,1-.683.393,7.066,7.066,0,0,0-1.64.245Z" transform="translate(-42.843 -47.42)"/><path class="a" d="M148.2,153.54a.542.542,0,0,1-.26-.067,7.074,7.074,0,0,0-1.663-.134.549.549,0,0,1-.564-.549.564.564,0,0,1,.557-.564,6.428,6.428,0,0,1,2.189.26.557.557,0,0,1-.26,1.054Z" transform="translate(-45.959 -47.397)"/><path class="g" d="M51.4,257.995l2.687-7.118,2.553-5.388,28.33-10.443,18.281,3.644,14.154-3.711s9.649-6.361,13.2-6.235l8.283.245,8.639-1.729v36.472l-104,1.292Z" transform="translate(-19.699 -66.835)"/><path d="M148.086,266.153H46.76v-.52c-.134-2.123,21.279-12.618,33.778-13.983l9.649-4.3,14.384-7.2,13.723-3.711c1.091-.809,10.777-7.823,17-6.724a37.112,37.112,0,0,0,12.15-.1l.668-.134ZM47.791,265.774Zm.883-.742h98.3V230.816a37.719,37.719,0,0,1-11.875,0c-6-1.061-16.128,6.5-16.225,6.576l-.089.067-13.872,3.756-14.258,7.155-9.923,4.379c-11.905,1.284-28.063,9.537-32.056,12.291Z" transform="translate(-20.532 -67.407)"/><path d="M70.84,272.282l-.46-1.009c.586-.267,14.466-6.539,21.613-8.164,6.739-1.484,19.023-2.828,20.455-2.969l10.146-6.68h.193c.408.045,9.79,1.009,13.761,4.624l6.509-2.152,10.517-.5.052,1.106-10.443.5-6.932,2.316-.245-.245c-3.251-3.251-11.742-4.357-13.137-4.52l-10.035,6.621H112.7c-.134,0-13.4,1.41-20.463,2.969S71,272.223,70.84,272.282Z" transform="translate(-26.621 -73.589)"/><path d="M105.7,273.822l-.5-.995c.631-.319,15.586-7.7,22.912-7.422,6.888.267,19.3,1.952,20.6,2.13l8.565-2.145H162.6V266.5h-5.247l-8.573,2.16h-.111c-.134,0-13.412-1.855-20.589-2.138h-.393C120.46,266.533,105.846,273.747,105.7,273.822Z" transform="translate(-35.597 -76.664)"/><path d="M58.1,263.361l-1.1-.3L60.711,249.8l.238-.111c.824-.379,20.322-9.441,25.094-10.925,4.906-1.484,20.782,3.5,21.48,3.711l-.341,1.061c-.163-.052-16.232-5.121-20.782-3.711-4.453,1.366-22.459,9.708-24.73,10.762Z" transform="translate(-22.946 -69.729)"/><path class="d" d="M98.617,63.212c2.382,4.171.8,9.56.8,9.56s-5.44-1.381-7.823-5.552-.779-9.56-.779-9.56S96.242,59.041,98.617,63.212Z" transform="translate(-31.551 -22.954)"/><path class="e" d="M100.151,72.61h-.089c-.2-.052-4.839-1.262-6.94-4.936s-.742-8.283-.742-8.476a.364.364,0,0,1,.445-.252c.193.045,4.839,1.262,6.932,4.928h0c2.093,3.667.742,8.283.742,8.476A.371.371,0,0,1,100.151,72.61ZM93,59.762c-.26,1.136-.876,4.706.742,7.541s5.01,4.112,6.116,4.453c.26-1.136.876-4.706-.742-7.533h0C97.5,61.4,94.109,60.118,93,59.762Z" transform="translate(-31.981 -23.283)"/><path class="e" d="M100.292,72.606a.386.386,0,0,1-.327-.186L92.543,59.477a.371.371,0,0,1,.141-.5.364.364,0,0,1,.5.134l7.422,12.944a.379.379,0,0,1-.134.512A.423.423,0,0,1,100.292,72.606Z" transform="translate(-32.122 -23.279)"/><path class="d" d="M113.96,68.82c-4.728.861-7.83,5.537-7.83,5.537s4.55,3.273,9.278,2.412,7.83-5.529,7.83-5.529S118.651,67.959,113.96,68.82Z" transform="translate(-35.69 -25.801)"/><path class="e" d="M113.188,76.049a12.981,12.981,0,0,1-6.762-2.264.371.371,0,0,1-.089-.512c.111-.163,2.8-4.142,6.955-4.9s8.068,2.019,8.231,2.138a.364.364,0,0,1,.134.52c-.111.171-2.8,4.142-6.955,4.9A7.756,7.756,0,0,1,113.188,76.049Zm-6.012-2.665c.98.616,4.156,2.382,7.355,1.8s5.544-3.355,6.249-4.283c-.987-.616-4.156-2.382-7.355-1.8h0c-3.214.586-5.552,3.355-6.249,4.283Zm6.183-4.646Z" transform="translate(-35.723 -25.689)"/><path class="e" d="M106.642,74.615a.379.379,0,0,1-.364-.3.371.371,0,0,1,.3-.43l14.659-2.672a.377.377,0,0,1,.134.742l-14.666,2.672Z" transform="translate(-35.723 -26.453)"/><path class="c" d="M102.83,66.954a3.629,3.629,0,0,0,3.533.163,3.629,3.629,0,0,0,2.063,2.872,4.268,4.268,0,0,0,6.019-1.87,6,6,0,0,0,.742-3.273,15.23,15.23,0,0,0-1.566-5.106c-.386-.854-.742-1.611-1.017-2.086-.475-.92-.5-.943-.594-.995h0c-.089-.045-.163-.052-1.143.045-.542.052-1.373.141-2.308.289a15.119,15.119,0,0,0-5.144,1.484,6,6,0,0,0-2.323,2.427,4.275,4.275,0,0,0,1.737,6.049Z" transform="translate(-34.21 -22.687)"/><path class="e" d="M109.415,69.5a5.01,5.01,0,0,1-2.382-.623,4.06,4.06,0,0,1-2.175-2.665,4.045,4.045,0,0,1-3.422-.364,4.854,4.854,0,0,1-2.286-2.59,4.758,4.758,0,0,1,.408-3.978,6.3,6.3,0,0,1,2.457-2.568,15.483,15.483,0,0,1,5.277-1.529c.943-.148,1.781-.238,2.331-.289,1.039-.1,1.158-.1,1.358,0s.275.223.742,1.158c.252.475.638,1.232,1.032,2.1a15.586,15.586,0,0,1,1.588,5.247,6.257,6.257,0,0,1-.794,3.429,4.557,4.557,0,0,1-4.134,2.642Zm-4.268-4.156a.394.394,0,0,1,.178.045.386.386,0,0,1,.193.289,3.236,3.236,0,0,0,1.863,2.575,4.171,4.171,0,0,0,2.895.43,4.067,4.067,0,0,0,2.627-2.145,5.641,5.641,0,0,0,.742-3.08,14.718,14.718,0,0,0-1.529-4.965c-.386-.861-.742-1.6-1-2.071-.156-.3-.408-.787-.475-.861s-.586.067-.92.1c-.534.045-1.358.141-2.279.282a14.681,14.681,0,0,0-5.01,1.432,5.552,5.552,0,0,0-2.227,2.286,4.038,4.038,0,0,0-.364,3.37,4.164,4.164,0,0,0,1.945,2.227,3.273,3.273,0,0,0,3.184.156A.438.438,0,0,1,105.147,65.344Z" transform="translate(-33.801 -22.219)"/><path class="d" d="M79.617,84.7c-4.372,1.974-6.257,7.266-6.257,7.266s5.2,2.078,9.589.1S89.206,84.8,89.206,84.8,84,82.738,79.617,84.7Z" transform="translate(-27.152 -29.726)"/><path class="e" d="M78.139,92.3a13.768,13.768,0,0,1-4.661-.846.371.371,0,0,1-.215-.468c.067-.193,1.715-4.7,5.559-6.442l.156.341-.156-.341c3.852-1.744,8.32,0,8.513.082a.379.379,0,0,1,.208.468c-.067.193-1.707,4.7-5.559,6.442A9.352,9.352,0,0,1,78.139,92.3ZM74.1,90.888c1.106.356,4.609,1.306,7.578,0s4.572-4.594,5.025-5.663c-1.106-.364-4.609-1.314-7.578,0h0C76.165,86.561,74.547,89.819,74.1,90.888Z" transform="translate(-27.12 -29.703)"/><path class="e" d="M73.583,91.758a.378.378,0,0,1-.148-.742l13.575-6.138a.371.371,0,0,1,.5.178.379.379,0,0,1-.186.5L73.776,91.72a.4.4,0,0,1-.193.037Z" transform="translate(-27.091 -29.98)"/><path class="c" d="M73.587,81.379a3.637,3.637,0,0,0,3.474-.7,3.622,3.622,0,0,0,2.694,2.286A4.26,4.26,0,0,0,85.136,79.7a6.019,6.019,0,0,0-.045-3.362,15.334,15.334,0,0,0-2.754-4.572c-.586-.742-1.136-1.381-1.484-1.781-.69-.742-.742-.794-.816-.816h0a3.965,3.965,0,0,0-1.106.319c-.5.178-1.3.468-2.167.839a15.038,15.038,0,0,0-4.631,2.679,5.938,5.938,0,0,0-1.663,2.917,4.268,4.268,0,0,0,3.117,5.455Z" transform="translate(-26.346 -25.93)"/><path class="e" d="M79.454,82.367a5.025,5.025,0,0,1-1.3-.171A4.045,4.045,0,0,1,75.4,80.141a4.09,4.09,0,0,1-3.414.475,4.891,4.891,0,0,1-2.843-1.959,4.78,4.78,0,0,1-.564-3.963,6.391,6.391,0,0,1,1.744-3.065,15.675,15.675,0,0,1,4.758-2.761c.861-.364,1.663-.653,2.182-.839.965-.341,1.1-.386,1.321-.334s.327.156,1.017.935c.527.594,1.047,1.217,1.484,1.8a15.5,15.5,0,0,1,2.813,4.7,6.234,6.234,0,0,1,.052,3.555A4.557,4.557,0,0,1,79.454,82.367ZM75.52,79.183h.1a.356.356,0,0,1,.252.23,3.243,3.243,0,0,0,2.442,2.049,3.911,3.911,0,0,0,4.936-2.969,5.656,5.656,0,0,0-.022-3.154,14.8,14.8,0,0,0-2.687-4.453c-.453-.579-.957-1.188-1.484-1.766a8.11,8.11,0,0,0-.668-.742s-.549.208-.868.319c-.5.178-1.291.468-2.145.831a14.918,14.918,0,0,0-4.513,2.6,5.648,5.648,0,0,0-1.566,2.746,4.038,4.038,0,0,0,.46,3.362,4.2,4.2,0,0,0,2.412,1.655h0a3.258,3.258,0,0,0,3.132-.623A.371.371,0,0,1,75.52,79.183Z" transform="translate(-25.855 -25.544)"/><path class="d" d="M69.731,79.078c3.318,3.5,3.1,9.085,3.1,9.085s-5.611,0-8.907-3.5-3.088-9.077-3.088-9.077S66.406,75.612,69.731,79.078Z" transform="translate(-23.886 -27.59)"/><path class="e" d="M73.343,87.812c-.171,0-4.988,0-7.919-3.1s-2.761-7.853-2.746-8.053a.371.371,0,0,1,.371-.356c.141,0,4.988.045,7.919,3.11h0c2.917,3.05,2.754,7.845,2.746,8.053A.371.371,0,0,1,73.343,87.812ZM63.42,77.057c0,1.165.289,4.787,2.538,7.14s5.856,2.783,7.014,2.858c0-1.165-.289-4.78-2.538-7.133h0C68.178,77.562,64.578,77.139,63.42,77.057Z" transform="translate(-24.363 -27.773)"/><path class="e" d="M73.344,87.812a.379.379,0,0,1-.267-.111l-10.3-10.769a.373.373,0,0,1,.542-.512l10.3,10.792a.364.364,0,0,1-.275.623Z" transform="translate(-24.363 -27.774)"/><path class="d" d="M127.15,52.6c-1.759,4.453-6.947,6.621-6.947,6.621s-2.368-5.084-.609-9.537,6.94-6.68,6.94-6.68S128.872,48.129,127.15,52.6Z" transform="translate(-39.008 -19.138)"/><path class="e" d="M121.241,59.832a.378.378,0,0,1-.341-.215c-.082-.186-2.049-4.565-.5-8.5s5.938-5.8,6.153-5.878a.364.364,0,0,1,.475.193c.089.186,2.056,4.557.512,8.491s-5.938,5.8-6.153,5.878a.534.534,0,0,1-.141.03Zm5.247-13.746c-1.039.512-4.216,2.271-5.4,5.307s-.067,6.48.349,7.563c1.047-.512,4.216-2.271,5.4-5.3h0C128.033,50.621,126.912,47.17,126.489,46.086Z" transform="translate(-39.231 -19.708)"/><path class="e" d="M121.61,59.844a.319.319,0,0,1-.141,0,.379.379,0,0,1-.208-.482l5.448-13.872a.379.379,0,0,1,.482-.208.371.371,0,0,1,.208.482l-5.448,13.842A.364.364,0,0,1,121.61,59.844Z" transform="translate(-39.599 -19.72)"/><path class="c" d="M134.6,61.73a5.938,5.938,0,0,0,2.828-1.811,15.022,15.022,0,0,0,2.442-4.765c.319-.883.572-1.692.742-2.227.282-.95.289-1.024.26-1.121h0c0-.1-.052-.126-.861-.742-.423-.341-1.084-.854-1.856-1.4a15.282,15.282,0,0,0-4.706-2.516,5.938,5.938,0,0,0-3.355.119,4.253,4.253,0,0,0-2.969,5.544,3.622,3.622,0,0,0,2.412,2.575,3.644,3.644,0,0,0-.52,3.5,4.268,4.268,0,0,0,5.581,2.85Z" transform="translate(-41.087 -20.158)"/><path class="e" d="M133.934,63.516a4.609,4.609,0,0,1-4.386-3.377,4.075,4.075,0,0,1,.3-3.436,4.015,4.015,0,0,1-2.227-2.642,4.631,4.631,0,0,1,3.236-6.012,6.368,6.368,0,0,1,3.585-.119,15.542,15.542,0,0,1,4.832,2.583c.779.549,1.484,1.069,1.87,1.41.824.653.913.742.98.957s.037.364-.252,1.343c-.156.527-.416,1.343-.742,2.227a15.587,15.587,0,0,1-2.516,4.884,6.316,6.316,0,0,1-2.969,1.915h0a5.737,5.737,0,0,1-1.715.267Zm1.581-.631Zm-2.65-14.414a5.73,5.73,0,0,0-1.752.289,4.045,4.045,0,0,0-2.62,2.152,4.2,4.2,0,0,0-.134,2.954,3.258,3.258,0,0,0,2.175,2.331.4.4,0,0,1,.245.245.356.356,0,0,1-.067.341,3.3,3.3,0,0,0-.46,3.162,3.919,3.919,0,0,0,5.158,2.62h0a5.648,5.648,0,0,0,2.672-1.707,14.925,14.925,0,0,0,2.375-4.646c.312-.868.564-1.67.742-2.182.082-.289.223-.742.252-.906a8.023,8.023,0,0,0-.742-.609c-.416-.334-1.076-.846-1.841-1.388a14.844,14.844,0,0,0-4.594-2.457,5.938,5.938,0,0,0-1.41-.178Z" transform="translate(-41.219 -20.357)"/><path class="d" d="M131.926,63.737c-3.637-3.14-9.226-2.627-9.226-2.627s.3,5.6,3.934,8.743,9.226,2.627,9.226,2.627S135.54,66.876,131.926,63.737Z" transform="translate(-39.996 -23.837)"/><path class="e" d="M134.236,70.989a11.556,11.556,0,0,1-7.333-2.368c-3.2-2.768-3.5-7.556-3.5-7.756a.371.371,0,0,1,.334-.393c.208,0,4.988-.416,8.164,2.345h0c3.2,2.761,3.488,7.548,3.5,7.756a.371.371,0,0,1-.334.386A8.01,8.01,0,0,1,134.236,70.989ZM124.179,61.2c.141,1.15.742,4.728,3.214,6.858s6.094,2.227,7.251,2.182c-.134-1.158-.742-4.735-3.206-6.858h0C128.974,61.252,125.329,61.163,124.179,61.2Z" transform="translate(-40.175 -23.674)"/><path class="e" d="M135.054,70.967a.386.386,0,0,1-.245-.089l-11.274-9.745a.371.371,0,0,1,.482-.564L135.3,70.314a.379.379,0,0,1,0,.527.386.386,0,0,1-.245.126Z" transform="translate(-40.176 -23.682)"/><path class="d" d="M151.583,104.7c-4.453-1.759-6.613-6.94-6.613-6.94s5.106-2.338,9.575-.579,6.613,6.947,6.613,6.947S156.051,106.46,151.583,104.7Z" transform="translate(-45.849 -33.002)"/><path class="e" d="M154.129,105.71a9,9,0,0,1-3.318-.594c-3.926-1.544-5.789-5.938-5.871-6.153a.379.379,0,0,1,.193-.482c.178-.082,4.557-2.049,8.491-.5s5.8,5.938,5.871,6.153a.379.379,0,0,1-.186.482A13.776,13.776,0,0,1,154.129,105.71Zm-8.342-6.68c.5,1.047,2.271,4.223,5.3,5.411s6.48.074,7.571-.341c-.512-1.047-2.271-4.216-5.307-5.411s-6.48-.1-7.563.327Z" transform="translate(-45.835 -33.225)"/><path class="e" d="M159.154,105.024a.423.423,0,0,1-.134,0l-13.872-5.463a.364.364,0,0,1-.208-.475.371.371,0,0,1,.482-.215l13.864,5.463a.377.377,0,0,1-.134.742Z" transform="translate(-45.835 -33.601)"/><path class="c" d="M142.91,112.183a6,6,0,0,0,1.8,2.828,15.3,15.3,0,0,0,4.765,2.449c.883.319,1.685.571,2.227.742.95.282,1.024.289,1.113.26h0c.1,0,.134-.052.779-.861.334-.423.854-1.084,1.4-1.848a15.385,15.385,0,0,0,2.516-4.713,5.938,5.938,0,0,0-.111-3.355,4.268,4.268,0,0,0-5.544-2.969,3.615,3.615,0,0,0-2.575,2.42,3.652,3.652,0,0,0-3.5-.527,4.268,4.268,0,0,0-2.872,5.574Z" transform="translate(-45.252 -35.059)"/><path class="e" d="M151.224,119.753a5.612,5.612,0,0,1-1.158-.3c-.52-.156-1.329-.408-2.227-.742a15.587,15.587,0,0,1-4.876-2.524,6.287,6.287,0,0,1-1.915-2.969h0a4.624,4.624,0,0,1,3.11-6.079,4.06,4.06,0,0,1,3.429.3,4.075,4.075,0,0,1,2.65-2.227,4.624,4.624,0,0,1,6,3.243,6.3,6.3,0,0,1,.126,3.555,15.705,15.705,0,0,1-2.583,4.832c-.549.742-1.069,1.484-1.41,1.87-.653.816-.742.913-.957.98A.594.594,0,0,1,151.224,119.753Zm-9.471-6.762a5.663,5.663,0,0,0,1.707,2.665,15.1,15.1,0,0,0,4.631,2.375c.883.312,1.677.564,2.227.742.319.089.854.252.943.26s.364-.475.572-.742c.334-.423.846-1.076,1.388-1.841a14.9,14.9,0,0,0,2.457-4.572,5.589,5.589,0,0,0-.1-3.162,3.911,3.911,0,0,0-5.084-2.754,3.266,3.266,0,0,0-2.331,2.167.371.371,0,0,1-.245.245.379.379,0,0,1-.341-.059,3.258,3.258,0,0,0-3.154-.46,3.919,3.919,0,0,0-2.627,5.151Z" transform="translate(-44.763 -35.186)"/><path class="d" d="M142.1,109.508c3.147-3.629,2.635-9.218,2.635-9.218s-5.6.3-8.751,3.926-2.627,9.218-2.627,9.218S138.963,113.138,142.1,109.508Z" transform="translate(-42.758 -33.976)"/><path class="e" d="M135.563,113.009a.371.371,0,0,1-.371-.341c0-.2-.423-4.98,2.345-8.164s7.556-3.5,7.756-3.5a.371.371,0,0,1,.386.341c0,.2.423,4.98-2.345,8.164h0c-2.761,3.2-7.548,3.488-7.756,3.5Zm9.4-11.267c-1.15.134-4.728.742-6.858,3.206s-2.227,6.086-2.227,7.251c1.158-.134,4.735-.742,6.865-3.206h0C144.907,106.559,145,102.937,144.959,101.742Z" transform="translate(-43.235 -34.159)"/><path class="e" d="M135.57,113a.341.341,0,0,1-.245-.1.364.364,0,0,1-.037-.52l9.753-11.274a.371.371,0,1,1,.557.49l-9.753,11.267a.341.341,0,0,1-.275.134Z" transform="translate(-43.242 -34.153)"/><path d="M138.88,210.85h-128v-200h128ZM13.84,207.884H135.92V13.816H13.84Z" transform="translate(-10.88 -10.85)"/></svg>