<svg xmlns="http://www.w3.org/2000/svg" width="128" height="200" viewBox="0 0 128 200"><defs><style>.a{fill:#fff;}.b{fill:#170000;}.c{fill:#da003a;}.d{fill:#231815;}.e{fill:#c21823;}.f{fill:#858585;}.g{fill:#4fad28;}</style></defs><rect class="a" width="125.031" height="197.031" transform="translate(1.484 1.484)"/><path d="M138.88,210.85h-128v-200h128ZM13.84,207.884H135.92V13.816H13.84Z" transform="translate(-10.88 -10.85)"/><path class="b" d="M27.293,23.17h1.64l3.659,10.265.92.148v.742H29.579v-.742l1.239-.148-.7-2.227H25.734l-.742,2.227,1.284.148v.742h-3.5v-.742l.905-.148Zm.943,2.382-.371-1.314L27.5,25.582l-1.484,4.78h3.8Z" transform="translate(-13.948 -14.026)"/><path class="c" d="M164.8,23.048a3.05,3.05,0,0,0-2.672,1.291,3.021,3.021,0,0,0-2.657-1.291,3.57,3.57,0,0,0-3.711,3.77,5.01,5.01,0,0,0,.742,2.716,12.907,12.907,0,0,0,3.192,3.132c.623.475,1.2.883,1.581,1.136.742.482.742.49.831.49h0c.082,0,.134,0,.824-.49.379-.252.957-.653,1.581-1.128a12.84,12.84,0,0,0,3.2-3.14,4.988,4.988,0,0,0,.742-2.716,3.57,3.57,0,0,0-3.652-3.77Z" transform="translate(-48.629 -13.993)"/><path d="M134.642,142.525s-.074,8.981-.972,10.473-6.2,4.513-6.2,4.513a15.334,15.334,0,0,1,.356-11.942.252.252,0,0,0-.3-.341l-1.6.386s-6.613,1.959-7.519.156c0,0,1.707-4.149,3.808-6.034a12.447,12.447,0,0,1,3.986-2.494,11.69,11.69,0,0,1,2.531.742,13.308,13.308,0,0,1,2.679,2.9l.905,1.418Z" transform="translate(-38.886 -43.534)"/><path d="M144.631,143.2s-.638,6.739,0,8.283,1.677,4.372,2.835,5.144a12.246,12.246,0,0,0,3.132,1.262s1.432-4.928.95-7.214a34.072,34.072,0,0,0-1.544-4.891,28.058,28.058,0,0,1,3.251.661,30.06,30.06,0,0,1,4.1,1.856l.824-2-2.969-5.841L153.2,138.71l-3.859,1.7-3.192,2.969Z" transform="translate(-45.689 -43.914)"/><path d="M110.572,222.68c-2,0-4.579-1.744-6.851-4.72-1.959-2.568-3.37-6.569-4.609-10.1-.564-1.6-1.1-3.11-1.6-4.223-1.277-2.835-1.551-7.326-1.611-9.2-.876.386-2.353,1.032-3.822,1.6-2.486.957-7.162-.809-10.25-1.974-2.791-1.047-8.164-2.449-9.886-2.895-2.323,9.649-10.68,14.666-12.35,15.586-.082.839-.252,1.729-.43,2.665-.527,2.761-1.061,5.619.356,7.593.23.319.475.616.7.883.646.742,1.247,1.484,1.069,2.345-.141.653-.742,1.195-1.841,1.744a4.668,4.668,0,0,1-3.815.134,3.206,3.206,0,0,1-1.833-2.049c0-.045-1.566-5.247-2.449-8.068s-1-11.348,1.536-13.887c1.484-1.447,1.306-3.919,1.091-7.667-.1-1.588-.2-3.4-.2-5.448,0-7.251,6.932-12.336,11.029-14.191,2.39-1.091,8.231-.675,13.879-.282,3.815.267,7.422.52,9.248.237,4.505-.7,16.225-4.082,17.36-4.876a67.488,67.488,0,0,1,4.921-5.233.556.556,0,1,1,.787.787,66.992,66.992,0,0,0-4.758,5.032c-.579,1.165-14.733,4.861-18.132,5.388-1.952.3-5.619.045-9.493-.23-5.255-.364-11.215-.779-13.36.186-3.852,1.752-10.391,6.5-10.391,13.182,0,2.019.1,3.808.193,5.388.238,4.045.386,6.717-1.4,8.513-2.049,2.049-2.1,10.027-1.232,12.766s2.449,8.038,2.464,8.1a2.041,2.041,0,0,0,1.2,1.321,3.585,3.585,0,0,0,2.865-.1c1-.49,1.21-.824,1.239-.98.067-.312-.371-.839-.831-1.4-.245-.289-.5-.6-.742-.943-1.7-2.368-1.084-5.6-.542-8.454.193-1.024.371-1.989.445-2.858a.549.549,0,0,1,.3-.453c.1-.045,9.968-5.158,12.157-15.52a.572.572,0,0,1,.252-.356.549.549,0,0,1,.431-.074c.289.074,7.162,1.8,10.562,3.08,2.754,1.039,7.363,2.776,9.456,1.974,2.227-.861,4.505-1.907,4.527-1.915a.557.557,0,0,1,.787.5c0,.059,0,6.235,1.529,9.6.52,1.15,1.061,2.679,1.633,4.3,1.217,3.451,2.6,7.37,4.453,9.8,2.665,3.5,5.277,4.624,6.576,4.193.609-.208.92-.408.972-.638s-.059-1.106-2.412-3.347c-2.969-2.85-4.386-11.875-3.585-17.679a10.027,10.027,0,0,1,1.789-5,27.281,27.281,0,0,0,2.026-2.62.527.527,0,0,1,.186-.638.661.661,0,0,1,.935,0c.386.408.386.742-2.293,3.956a9.159,9.159,0,0,0-1.536,4.453c-.839,6.079.742,14.362,3.251,16.722,2.138,2.041,2.969,3.355,2.724,4.394-.186.846-1.009,1.217-1.707,1.484A2.88,2.88,0,0,1,110.572,222.68Z" transform="translate(-21.346 -49.622)"/><path d="M140.206,223.733a5.084,5.084,0,0,1-2.509-.853c-4.357-2.613-8.4-10.8-8.788-11.593-.453-.609-4.542-6.212-3.132-9.4l1.017.453c-.995,2.227,1.856,6.769,3.036,8.32l.059.1c.037.089,4.186,8.654,8.38,11.17.839.5,1.974.995,2.613.475a2.375,2.375,0,0,0,.571-1.959c-1.41-1.069-4.847-5.826-5.418-6.68-1.915-2.895-2.434-10.814-2.457-11.133s-.334-10.22,1.663-13.486c1.841-3.006,2.746-13.4,2.754-13.508l1.106.1c-.037.438-.935,10.762-2.909,14-1.818,2.969-1.484,12.744-1.484,12.848s.52,7.934,2.271,10.584a48.481,48.481,0,0,0,5.121,6.457.646.646,0,0,1,.4.43,3.407,3.407,0,0,1-.876,3.229A2.13,2.13,0,0,1,140.206,223.733Zm1.269-3.243a.512.512,0,0,0,.4.186.742.742,0,0,1-.423-.186Zm.4-.928Z" transform="translate(-40.731 -53.525)"/><path d="M35.153,227.346a4.907,4.907,0,0,1-2.382-.683c-2.086-1.18-3.444-3.488-3.154-5.381.393-2.59,3.184-6.962,5.433-8.506a11.242,11.242,0,0,0,3.2-4.127c.95-1.744,1.848-3.392,3.592-4.008,2.286-.8,5.537-6.027,6.6-7.971l.972.534c-.163.3-4.052,7.378-7.2,8.491-1.343.475-2.108,1.87-2.969,3.488A11.759,11.759,0,0,1,35.7,213.7a15.123,15.123,0,0,0-4.965,7.756c-.215,1.432.928,3.3,2.605,4.245a3.021,3.021,0,0,0,3.511-.082c.379-.319.379-.809.341-1.588a4.758,4.758,0,0,1,.089-1.447,16.781,16.781,0,0,1,5.151-7.519c.43-.3.839-.564,1.217-.809.987-.646,1.841-1.2,1.915-1.663l1.1.163c-.148.957-1.1,1.574-2.4,2.427-.371.245-.742.5-1.188.794a15.586,15.586,0,0,0-4.735,6.917A3.763,3.763,0,0,0,38.286,224a2.885,2.885,0,0,1-.742,2.494A3.711,3.711,0,0,1,35.153,227.346Z" transform="translate(-15.7 -58.912)"/><path class="d" d="M52.612,180.28a.593.593,0,0,1-.223-.045c-5.322-2.316-8.751-6.123-10.183-11.326s-.1-9.827,3.926-13.122a10.658,10.658,0,0,1,6.561-2.627h0A7.622,7.622,0,0,1,59.01,156.6a4.891,4.891,0,0,1,.742,2.227s.082,1.611-.638,1.885a.683.683,0,0,1-.8-.267c-1.232-1.618-3.6-2.924-5.886-1.959-2.516,1.061-3.6,4.119-3.763,6.413-.334,4.676,3.414,7.615,7.3,8.1a.557.557,0,0,1,.482.623.564.564,0,0,1-.623.482c-5.136-.646-8.617-4.557-8.276-9.285.193-2.613,1.484-6.108,4.453-7.363a6.007,6.007,0,0,1,6.643,1.655v-.223a3.778,3.778,0,0,0-.594-1.707,6.6,6.6,0,0,0-5.381-2.917h0a9.537,9.537,0,0,0-5.856,2.375c-3.659,2.969-4.891,7.14-3.563,11.964s4.453,8.4,9.56,10.606a.557.557,0,0,1-.223,1.061Z" transform="translate(-18.895 -47.656)"/><path d="M140.278,168.921s-.186-1.054,1.737-.868,2.056.683,2.019.868-.349,1.974-.972,2.16a1.15,1.15,0,0,1-.906,0S140.961,171.021,140.278,168.921Z" transform="translate(-44.546 -51.486)"/><path class="d" d="M103.747,172.25S99.939,181.238,95,182.767c-6.925,2.138-11.578,2.115-13.627,1.863-3.221-.393-9.434-6-3.563-10.762C77.807,173.868,91.708,174.462,103.747,172.25Z" transform="translate(-27.7 -52.583)"/><path class="d" d="M83.317,185.114A18.662,18.662,0,0,1,81.091,185a8.6,8.6,0,0,1-6.264-5.537c-.453-1.574-.4-3.926,2.42-6.22a.587.587,0,0,1,.379-.119c.141,0,13.976.564,25.822-1.6a.549.549,0,0,1,.609.742c-.156.371-3.963,9.233-9.1,10.821a39.759,39.759,0,0,1-11.638,2.034ZM77.8,174.241c-1.766,1.484-2.4,3.147-1.9,4.913a7.459,7.459,0,0,0,5.337,4.735c1.6.193,6.1.408,13.36-1.848,3.711-1.15,6.843-6.94,7.964-9.248a138.821,138.821,0,0,1-24.76,1.447Z" transform="translate(-27.503 -52.391)"/><path class="e" d="M123.14,165.529c-2.731,1.432,1.8,5.01,2.731,5.812,2.724,2.316,5.418,4.617,8.038,7.051.809.742,1.336,1.737,2.6,1.818,1.484.1,3.169-1.707,1.907-2.835-3.333-2.969-6.517-6.2-10.042-8.988C127.3,167.5,124.854,164.624,123.14,165.529Z" transform="translate(-39.894 -50.801)"/><path d="M135.662,180.487a1.357,1.357,0,0,1-.245,0,3.392,3.392,0,0,1-2.108-1.314c-.148-.163-.3-.319-.453-.475-2.323-2.175-4.706-4.245-7.006-6.249l-.156-.134c-1.6-1.373-3.414-3.125-3.229-4.535a1.559,1.559,0,0,1,.965-1.232h0c1.484-.742,3.31,1.017,4.513,2.167.223.215.423.4.586.542,2.041,1.663,4,3.511,5.938,5.292.957.906,1.915,1.811,2.895,2.694a1.633,1.633,0,0,1,.438,1.952A2.353,2.353,0,0,1,135.662,180.487Zm-11.749-12.952c-.319.148-.334.3-.349.371-.052.453.393,1.44,2.85,3.548l.163.141c2.316,2.011,4.706,4.082,7.036,6.279.186.171.349.349.512.527a2.308,2.308,0,0,0,1.425.965,1.239,1.239,0,0,0,1.195-.646.527.527,0,0,0-.171-.668c-.98-.891-1.945-1.8-2.909-2.709-1.885-1.766-3.83-3.6-5.849-5.247-.186-.156-.4-.356-.638-.594-.8-.742-2.472-2.36-3.266-1.967Z" transform="translate(-39.937 -51.064)"/><path class="e" d="M122.741,163.112s-5.47-2.531-2.969-10.042C119.773,153.07,126.542,157.724,122.741,163.112Z" transform="translate(-39.044 -47.622)"/><path class="e" d="M107.15,165.878s3.711,4.72,10.458.542C117.608,166.42,111.492,160.905,107.15,165.878Z" transform="translate(-35.941 -50.393)"/><path d="M121.524,164.777l-.423-.193c-.052,0-5.307-2.553-2.969-9.649l.238-.705.609.423c.134.089,3.288,2.286,3.852,5.44a5.581,5.581,0,0,1-1.054,4.312Zm-2.546-8.728c-1.195,4.55,1.173,6.635,2.175,7.288a4.453,4.453,0,0,0,.6-3.05,8.039,8.039,0,0,0-2.776-4.238Z" transform="translate(-38.633 -47.922)"/><path d="M113,169.428a6.754,6.754,0,0,1-4.4-1.618l-.334-.319.26-.386a5.552,5.552,0,0,1,3.652-2.531c3.147-.6,6.324,1.566,6.457,1.655l.609.423-.572.468a8.906,8.906,0,0,1-5.67,2.308Zm-3.251-2.115c.972.7,3.778,2.152,7.578-.564a7.927,7.927,0,0,0-4.951-1.076,4.342,4.342,0,0,0-2.627,1.64Z" transform="translate(-36.231 -50.566)"/><path d="M136.661,166.412a8.906,8.906,0,0,1-7.229-3.785A21.636,21.636,0,0,1,126.2,149.4a13.486,13.486,0,0,1,1.752-5.025,1.143,1.143,0,0,0-.787-.082c-.742.4-6.16,2.063-7.645,1.247a.957.957,0,0,1-.527-.809c-.1-2.227,4.869-6.45,5.863-7.274a2.791,2.791,0,0,1,2.442-.935c2.524.319,4.906,4.045,5.522,5.084l6.487.586a5.841,5.841,0,0,1,1.247-1.388c.379-.312,3.711-3.058,6.108-3.214,2.538-.163,5.448,7.6,5.559,8.951a.468.468,0,0,1,0,.223,1.833,1.833,0,0,1-1.084,1.113,2.16,2.16,0,0,1-1.945-.445,14.6,14.6,0,0,0-4.713-1.484,14.3,14.3,0,0,1,1.136,4.112c.275,2.791-.438,5.938-2.739,12.083a6.242,6.242,0,0,1-5.351,4.231A7.637,7.637,0,0,1,136.661,166.412Zm-7.645-21.65a11.876,11.876,0,0,0-1.707,4.743,20.782,20.782,0,0,0,3.058,12.514,7.712,7.712,0,0,0,6.984,3.243,5.2,5.2,0,0,0,4.453-3.511c2.227-5.938,2.924-8.988,2.665-11.593a13.664,13.664,0,0,0-1.484-4.668.572.572,0,0,1,0-.586.549.549,0,0,1,.534-.238c.186,0,4.453.623,6.235,1.848a1.21,1.21,0,0,0,.957.3.631.631,0,0,0,.341-.319,20.039,20.039,0,0,0-1.729-4.513c-1.343-2.65-2.279-3.31-2.627-3.288-1.648.1-4.3,1.982-5.47,2.969A4.06,4.06,0,0,0,140.1,143a.564.564,0,0,1-.564.334l-7.14-.638a.564.564,0,0,1-.438-.282c-.69-1.247-2.917-4.542-4.839-4.78a1.752,1.752,0,0,0-1.536.638c-2.3,1.907-5.426,5.04-5.515,6.331.861.393,5.589-.742,6.5-1.277a2.509,2.509,0,0,1,2.152.178.6.6,0,0,1,.245-.1.668.668,0,0,1,.742.438.69.69,0,0,1-.126.742.631.631,0,0,1-.564.171Z" transform="translate(-39.152 -43.349)"/><path class="a" d="M134.295,153.669a.557.557,0,0,1-.134-1.1,6.457,6.457,0,0,1,2.227-.245.557.557,0,0,1,.393.683.549.549,0,0,1-.683.393,7.519,7.519,0,0,0-1.64.245Z" transform="translate(-42.843 -47.421)"/><path class="a" d="M148.2,153.54a.542.542,0,0,1-.26-.067,6.258,6.258,0,0,0-1.663-.134.579.579,0,0,1-.564-.549.564.564,0,0,1,.557-.564,6.451,6.451,0,0,1,2.19.26.557.557,0,0,1-.26,1.054Z" transform="translate(-45.959 -47.397)"/><path class="f" d="M48.707,257.992l2.687-7.118,2.561-5.388,28.323-10.443,18.3,3.644,14.161-3.711s9.649-6.361,13.189-6.235l8.291.245,8.654-1.737v36.48L40.84,265.021Z" transform="translate(-19.006 -66.832)"/><path d="M145.4,266.153H44.07v-.52c-.134-2.123,21.279-12.618,33.771-13.983l9.649-4.3,14.384-7.2,13.723-3.711c1.091-.809,10.769-7.823,17-6.724a37.111,37.111,0,0,0,12.157-.1l.668-.134ZM45.1,265.774Zm.883-.742h98.3V230.816a37.533,37.533,0,0,1-11.875,0c-6-1.061-16.121,6.5-16.217,6.576l-.089.067-13.872,3.756-14.258,7.155-9.931,4.379c-11.905,1.284-28.085,9.537-32.056,12.291Z" transform="translate(-19.838 -67.407)"/><path d="M68.18,272.282l-.46-1.009c.586-.267,14.458-6.539,21.613-8.164,6.739-1.484,19.023-2.828,20.455-2.969l10.139-6.68h.2c.408.045,9.782,1.009,13.753,4.624l6.517-2.152,10.51-.5.052,1.106-10.436.5-6.932,2.316-.245-.245c-3.251-3.251-11.742-4.357-13.137-4.52l-10.035,6.621h-.141c-.134,0-13.36,1.41-20.455,2.969S68.321,272.223,68.18,272.282Z" transform="translate(-25.935 -73.589)"/><path d="M103.007,273.822l-.5-.995c.631-.319,15.586-7.7,22.912-7.422,6.888.267,19.3,1.952,20.6,2.13l8.565-2.145h5.322V266.5H154.65l-8.573,2.16h-.1c-.134,0-13.419-1.855-20.6-2.138C118.341,266.266,103.156,273.747,103.007,273.822Z" transform="translate(-34.904 -76.664)"/><path d="M55.416,263.361l-1.076-.3L58.007,249.8l.23-.111c.831-.379,20.329-9.441,25.1-10.925,4.906-1.484,20.782,3.5,21.472,3.711l-.334,1.061c-.163-.052-16.232-5.121-20.782-3.711-4.453,1.366-22.459,9.708-24.723,10.762Z" transform="translate(-22.25 -69.729)"/><path class="g" d="M83.99,163.073c4.112,2.486,5.351,7.964,5.351,7.964s-5.426,1.44-9.537-1.047-5.344-7.964-5.344-7.964S79.886,160.586,83.99,163.073Z" transform="translate(-27.438 -49.83)"/><path class="d" d="M86.587,170.911a10.139,10.139,0,0,1-5.24-1.306c-3.615-2.227-4.706-6.865-4.75-7.058a.371.371,0,0,1,.267-.445c.193-.052,4.839-1.247,8.454.943h0c3.615,2.182,4.706,6.858,4.75,7.058a.371.371,0,0,1-.267.438A13.516,13.516,0,0,1,86.587,170.911Zm-9.166-8.164c.327,1.113,1.522,4.542,4.312,6.227s6.376,1.165,7.519.935c-.334-1.113-1.529-4.535-4.312-6.227h0c-2.8-1.7-6.383-1.173-7.519-.943Z" transform="translate(-27.989 -49.86)"/><path class="d" d="M89.7,170.674a.364.364,0,0,1-.186-.059L76.759,162.9a.371.371,0,1,1,.386-.631l12.744,7.719a.364.364,0,0,1,.126.512A.379.379,0,0,1,89.7,170.674Z" transform="translate(-27.981 -49.98)"/><path class="c" d="M94.077,155.492a5.99,5.99,0,0,0-1.306-3.1,15.222,15.222,0,0,0-4.283-3.221c-.816-.46-1.566-.846-2.049-1.084-.883-.438-.957-.46-1.054-.453h0c-.1,0-.134,0-.913.742-.4.356-1.024.92-1.692,1.588a15.126,15.126,0,0,0-3.281,4.216,6.012,6.012,0,0,0-.453,3.325,4.268,4.268,0,0,0,4.958,3.889,3.629,3.629,0,0,0,2.969-1.945,3.615,3.615,0,0,0,3.325,1.069,4.26,4.26,0,0,0,3.778-5.032Z" transform="translate(-28.616 -46.22)"/><path class="d" d="M84.7,160.831a4.587,4.587,0,0,1-4.72-4.253,6.316,6.316,0,0,1,.482-3.525,15.587,15.587,0,0,1,3.355-4.327c.675-.675,1.306-1.247,1.707-1.611.816-.742.883-.742,1.113-.8s.364,0,1.284.482c.49.245,1.239.631,2.071,1.1a15.587,15.587,0,0,1,4.386,3.31,6.3,6.3,0,0,1,1.381,3.273h0a4.631,4.631,0,0,1-4.1,5.47,4.045,4.045,0,0,1-3.325-.883,4.06,4.06,0,0,1-2.969,1.722,5.194,5.194,0,0,1-.668.045Zm2.034-13.783c0,.037-.453.416-.683.623-.4.356-1.017.92-1.677,1.581a14.844,14.844,0,0,0-3.2,4.09,5.633,5.633,0,0,0-.453,3.125,3.919,3.919,0,0,0,4.542,3.57,3.281,3.281,0,0,0,2.665-1.744.4.4,0,0,1,.282-.208.371.371,0,0,1,.327.126,3.288,3.288,0,0,0,3.036.987,3.911,3.911,0,0,0,3.451-4.639h0A5.6,5.6,0,0,0,93.8,151.65a14.94,14.94,0,0,0-4.171-3.11c-.809-.46-1.551-.839-2.034-1.076A8.971,8.971,0,0,0,86.73,147.048Z" transform="translate(-28.857 -45.873)"/><path class="g" d="M95.339,159.145c-3.711,3.05-4.149,8.647-4.149,8.647s5.574.653,9.285-2.4,4.149-8.647,4.149-8.647S99.05,156.065,95.339,159.145Z" transform="translate(-31.792 -48.557)"/><path class="d" d="M92.274,167.418a10.387,10.387,0,0,1-1.188-.059.364.364,0,0,1-.327-.393c0-.2.43-4.988,3.711-7.667h0c3.266-2.679,8.038-2.16,8.239-2.138a.371.371,0,0,1,.327.4c0,.2-.43,4.98-3.711,7.66A11.522,11.522,0,0,1,92.274,167.418Zm-.742-.742c1.158.059,4.787.067,7.3-2s3.214-5.626,3.377-6.776c-1.158-.067-4.787-.067-7.3,2h0c-2.486,2.026-3.229,5.589-3.362,6.739Zm3.14-7.066Z" transform="translate(-31.677 -48.666)"/><path class="d" d="M91.131,167.356a.356.356,0,0,1-.289-.141.371.371,0,0,1,.052-.52l11.512-9.463a.386.386,0,0,1,.527.052.371.371,0,0,1-.052.52l-11.519,9.463A.349.349,0,0,1,91.131,167.356Z" transform="translate(-31.677 -48.677)"/><path d="M138.88,210.85h-128v-200h128ZM13.84,207.884H135.92V13.816H13.84Z" transform="translate(-10.88 -10.85)"/><path class="a" d="M136.966,157.709a.534.534,0,0,1-.26-.059,1.848,1.848,0,0,0-.891-.223.6.6,0,0,1-.742-.341.564.564,0,0,1,.289-.742,2.561,2.561,0,0,1,1.87.252.579.579,0,0,1,.267.779A.586.586,0,0,1,136.966,157.709Z" transform="translate(-43.178 -48.444)"/><path class="a" d="M147.186,158.712a.586.586,0,0,1-.527-.327.579.579,0,0,1,.267-.779,2.553,2.553,0,0,1,1.87-.252.587.587,0,0,1-.468,1.076,1.841,1.841,0,0,0-.883.223A.549.549,0,0,1,147.186,158.712Z" transform="translate(-46.189 -48.705)"/></svg>