<svg xmlns="http://www.w3.org/2000/svg" xmlns:xlink="http://www.w3.org/1999/xlink" width="128" height="200" viewBox="0 0 128 200"><defs><style>.a,.i{fill:none;}.b{fill:#fff;}.c{fill:#858585;}.d{fill:#ffe700;}.e{clip-path:url(#a);}.f{fill:#231815;}.g{fill:#c21823;}.h{fill:#ffb4c0;}.i{stroke:#000;stroke-linecap:round;stroke-linejoin:round;stroke-width:1.5px;}.j{clip-path:url(#b);}.k{clip-path:url(#c);}.l{fill:#da003a;}.m{clip-path:url(#d);}.n{clip-path:url(#e);}</style><clipPath id="a"><rect class="a" width="27.369" height="78.881"/></clipPath><clipPath id="b"><path d="M139.736,210.853h-128v-200h128ZM14.7,207.887H136.776V13.819H14.7Z" transform="translate(-11.736 -10.853)"/></clipPath><clipPath id="c"><rect class="a" width="77.251" height="82.201" transform="translate(9.53 9.508)"/></clipPath><clipPath id="d"><rect class="a" width="27.368" height="78.879" transform="translate(9.774 105.626)"/></clipPath><clipPath id="e"><rect class="a" width="73.769" height="73.769"/></clipPath></defs><g transform="translate(-11.736 -10.853)"><g transform="translate(11.736 10.853)"><rect class="b" width="125.04" height="197.041" transform="translate(1.48 1.48)"/><path d="M139.736,210.853h-128v-200h128ZM14.7,207.887H136.776V13.819H14.7Z" transform="translate(-11.736 -10.853)"/></g><g transform="translate(102.415 149.434)"><g transform="translate(0 3.772)"><path class="c" d="M169.377,236.479v21.362c-15.054-2.548-26.665-14.767-31.235-27.926-.8-2.294-4.245-27.351-3.81-27.247,17.936,4.291,32.4,16.181,35.045,33.811" transform="translate(-134.294 -202.669)"/></g><g transform="translate(2.236 2.057)"><path d="M170.9,256.914a.566.566,0,0,1-.1-.008c-13.3-2.4-25.022-13.564-29.866-28.443-.415-1.273-1.461-8.613-2.23-14.513-1.689-12.952-1.456-13.2-1.25-13.422a.573.573,0,0,1,.553-.161c18.573,4.739,31.074,17.614,33.441,34.443a.556.556,0,0,1-1.1.155c-2.272-16.163-14.19-28.585-31.94-33.346.255,3.853,2.851,24.258,3.58,26.5,4.72,14.5,16.107,25.365,29.008,27.694a.555.555,0,0,1-.1,1.1Z" transform="translate(-137.316 -200.35)"/></g><g transform="translate(2.241 2.057)"><path d="M170.906,253.838a.556.556,0,0,1-.471-.258L137.407,201.2a.556.556,0,0,1,.769-.764c12.265,7.849,32.374,47.584,33.225,49.271a.555.555,0,1,1-.991.5c-.193-.384-18.22-36.01-30.382-46.931l31.347,49.711a.554.554,0,0,1-.468.851Z" transform="translate(-137.322 -200.35)"/></g><g transform="translate(3.655 15.264)"><path d="M147.444,220.487a.557.557,0,0,1-.085-.007L139.7,219.3a.555.555,0,1,1,.169-1.1l7.655,1.177a.555.555,0,0,1-.084,1.1Z" transform="translate(-139.234 -218.199)"/></g><g transform="translate(4.542 18.51)"><path d="M149.412,224.253h-.038l-8.423-.556a.555.555,0,1,1,.073-1.108l8.424.556a.555.555,0,0,1-.036,1.108Z" transform="translate(-140.433 -222.588)"/></g><g transform="translate(5.096 22.751)"><path d="M152.368,230.522a.523.523,0,0,1-.058,0l-10.63-1.094a.555.555,0,0,1,.114-1.1l10.631,1.094a.555.555,0,0,1-.056,1.107Z" transform="translate(-141.182 -228.319)"/></g><g transform="translate(6.684 31.9)"><path d="M158.257,241.795H143.883a.555.555,0,1,1,0-1.11h14.374a.555.555,0,0,1,0,1.11Z" transform="translate(-143.328 -240.685)"/></g><g transform="translate(8.315 35.196)"><path d="M146.087,246.577a.555.555,0,0,1-.013-1.11l14.824-.326a.529.529,0,0,1,.567.543.555.555,0,0,1-.542.567l-14.823.326Z" transform="translate(-145.532 -245.14)"/></g><g transform="translate(11.588 40.646)"><path d="M150.511,254.085a.555.555,0,0,1-.018-1.11l14.6-.471a.555.555,0,0,1,.036,1.11l-14.6.471Z" transform="translate(-149.956 -252.505)"/></g><g transform="translate(5.097 25.484)"><path d="M154.314,234.169l-.047,0-12.576-1.046a.555.555,0,1,1,.092-1.105l12.576,1.046a.555.555,0,0,1-.046,1.108Z" transform="translate(-141.182 -232.013)"/></g><g transform="translate(17.672 10.805)"><path d="M158.734,222.877a.576.576,0,0,1-.156-.022.554.554,0,0,1-.376-.689l2.807-9.593a.555.555,0,1,1,1.065.312l-2.807,9.594A.555.555,0,0,1,158.734,222.877Z" transform="translate(-158.179 -212.174)"/></g><g transform="translate(20.48 13.528)"><path d="M162.528,227a.545.545,0,0,1-.166-.025.556.556,0,0,1-.363-.7l3.159-10.039a.555.555,0,1,1,1.06.334l-3.16,10.039A.556.556,0,0,1,162.528,227Z" transform="translate(-161.973 -215.854)"/></g><g transform="translate(22.57 17.321)"><path d="M165.372,233.016a.556.556,0,0,1-.476-.269c-.471-.781.776-4.627,3.708-11.431a.555.555,0,0,1,1.019.439c-1.939,4.5-3.859,9.621-3.746,10.473a.555.555,0,0,1-.5.787Zm.475-.842h0Z" transform="translate(-164.799 -220.98)"/></g><g transform="translate(24.37 18.788)"><path d="M167.787,236.526a.538.538,0,0,1-.166-.026.555.555,0,0,1-.364-.7l3.917-12.452a.555.555,0,0,1,1.06.332l-3.917,12.452A.556.556,0,0,1,167.787,236.526Z" transform="translate(-167.231 -222.963)"/></g><g transform="translate(27.909 23.568)"><path d="M172.57,244.364a.535.535,0,0,1-.132-.016.553.553,0,0,1-.408-.67l3.366-13.831a.555.555,0,0,1,1.078.263l-3.366,13.831A.555.555,0,0,1,172.57,244.364Z" transform="translate(-172.014 -229.423)"/></g><g transform="translate(32.102 34.018)"><path d="M178.237,255.689a.544.544,0,0,1-.138-.018.554.554,0,0,1-.4-.675l2.823-11.032a.555.555,0,0,1,1.075.275l-2.823,11.032A.556.556,0,0,1,178.237,255.689Z" transform="translate(-177.681 -243.547)"/></g><g transform="translate(15.727 8.64)"><path d="M156.105,218.158a.557.557,0,0,1-.543-.674l1.709-7.8a.555.555,0,1,1,1.084.237l-1.709,7.8A.555.555,0,0,1,156.105,218.158Z" transform="translate(-155.549 -209.247)"/></g><g transform="translate(15.727 46.313)"><path d="M170.525,261.275H156.1a.555.555,0,1,1,0-1.11h14.42a.555.555,0,1,1,0,1.11Z" transform="translate(-155.55 -260.165)"/></g><g transform="translate(18.736 49.251)"><path d="M173.436,265.246H160.172a.555.555,0,0,1,0-1.11h13.264a.555.555,0,0,1,0,1.11Z" transform="translate(-159.617 -264.136)"/></g><g transform="translate(0.833)"><path class="d" d="M140.234,203.633,139.3,200c-.887-2.248-1.981-2.894-3.176-2.123-1.157.916-.914,2.168.878,3.72A22.693,22.693,0,0,0,140.234,203.633Z" transform="translate(-135.42 -197.57)"/></g><g transform="translate(1.018 0.188)"><path d="M141.039,204.995a.553.553,0,0,1-.245-.057,22.209,22.209,0,0,1-3.181-1.99l-.124-.088c-1.259-1.086-1.839-2.038-1.819-2.943a2.156,2.156,0,0,1,.917-1.665,2.1,2.1,0,0,1,1.85-.341c.865.278,1.58,1.159,2.186,2.7l.954,3.695a.555.555,0,0,1-.188.568A.549.549,0,0,1,141.039,204.995Zm-3.173-6.063a1.183,1.183,0,0,0-.633.221,1.056,1.056,0,0,0-.453.788c-.009.376.226,1.037,1.392,2.047l.082.054c.638.453,1.253.889,1.929,1.3l-.614-2.391c-.435-1.091-.966-1.818-1.472-1.98A.738.738,0,0,0,137.867,198.932Z" transform="translate(-135.67 -197.824)"/></g></g><g transform="translate(12.826 108.881)"><g class="e"><g transform="translate(-7.322 5.432)"><g transform="translate(0 2.972)"><path class="c" d="M30.667,207.826l-12.9,20.555C4.816,216.836,1.025,198.064,4.577,182.642c.619-2.689,12.436-28.883,12.792-28.52,14.667,14.963,21.4,35.142,13.3,53.7" transform="translate(-3.313 -154.119)"/></g><g transform="translate(2.097 2.892)"><path d="M19.743,228.585a.631.631,0,0,1-.425-.164C7.973,218.077,3.436,200.253,7.761,183.011c.37-1.475,3.8-9.17,6.62-15.311,6.2-13.484,6.558-13.578,6.905-13.669a.652.652,0,0,1,.63.178c15.009,15.779,19.259,35.72,11.371,53.344a.631.631,0,0,1-1.151-.516c7.576-16.926,3.612-36.078-10.591-51.381-2.083,3.862-11.91,25.064-12.563,27.662-4.213,16.8.177,34.137,11.184,44.171a.63.63,0,0,1-.425,1.1Z" transform="translate(-6.147 -154.01)"/></g><g transform="translate(16.779 2.894)"><path d="M26.763,225.626a.631.631,0,0,1-.631-.629l-.141-70.351a.631.631,0,0,1,1.2-.27c2.974,6.3,4.248,19.581,3.786,39.474-.343,14.767-1.566,27.874-1.578,28a.631.631,0,0,1-1.256-.118c.047-.487,4.22-45.656-.884-63.51l.134,66.768a.63.63,0,0,1-.629.632Z" transform="translate(-25.991 -154.013)"/></g><g transform="translate(10.164 16.456)"><path d="M24.335,179.362a.629.629,0,0,1-.412-.154l-6.655-5.757a.631.631,0,0,1,.826-.954l6.655,5.757a.631.631,0,0,1-.413,1.108Z" transform="translate(-17.05 -172.344)"/></g><g transform="translate(9.056 20.115)"><path d="M23.952,184.174a.624.624,0,0,1-.369-.12l-7.77-5.623a.631.631,0,0,1,.74-1.022l7.77,5.623a.631.631,0,0,1-.371,1.142Z" transform="translate(-15.553 -177.289)"/></g><g transform="translate(7.027 24.532)"><path d="M23.008,191.993a.626.626,0,0,1-.387-.134l-9.568-7.474a.631.631,0,0,1,.776-.994l9.568,7.474a.631.631,0,0,1-.389,1.128Z" transform="translate(-12.811 -183.259)"/></g><g transform="translate(3.029 34.296)"><path d="M21.868,206.4a.624.624,0,0,1-.334-.1L7.7,197.619a.631.631,0,1,1,.671-1.068L22.2,205.234a.63.63,0,0,1-.336,1.165Z" transform="translate(-7.407 -196.455)"/></g><g transform="translate(2.409 38.765)"><path d="M21.659,212.4a.631.631,0,0,1-.323-.09l-14.46-8.64a.631.631,0,0,1,.647-1.082l14.46,8.641a.631.631,0,0,1-.324,1.172Z" transform="translate(-6.57 -202.495)"/></g><g transform="translate(2.18 46.125)"><path d="M21.225,222.073a.629.629,0,0,1-.317-.087L6.572,213.618a.631.631,0,0,1,.636-1.09L21.544,220.9a.631.631,0,0,1-.319,1.176Z" transform="translate(-6.26 -212.443)"/></g><g transform="translate(5.376 27.162)"><path d="M22.678,196.677a.628.628,0,0,1-.377-.127l-11.47-8.6a.63.63,0,1,1,.757-1.008l11.47,8.6a.631.631,0,0,1-.38,1.135Z" transform="translate(-10.579 -186.813)"/></g><g transform="translate(20.549 22.33)"><path d="M31.716,189.079a.631.631,0,0,1-.418-1.1l8.5-7.535a.631.631,0,0,1,.837.943l-8.5,7.536A.633.633,0,0,1,31.716,189.079Z" transform="translate(-31.086 -180.282)"/></g><g transform="translate(21.337 26.859)"><path d="M32.781,195.416a.631.631,0,0,1-.409-1.111l9.105-7.752a.63.63,0,0,1,.818.96l-9.105,7.751A.629.629,0,0,1,32.781,195.416Z" transform="translate(-32.151 -186.403)"/></g><g transform="translate(20.54 32.133)"><path d="M31.7,203.045h-.011a.629.629,0,0,1-.619-.641c.018-1.037,3.54-3.984,10.47-8.76a.63.63,0,0,1,.715,1.038c-4.584,3.16-9.523,6.927-9.931,7.814A.63.63,0,0,1,31.7,203.045Zm.616-.529Zm.013-.091h0Z" transform="translate(-31.074 -193.532)"/></g><g transform="translate(20.445 34.728)"><path d="M31.577,207.916a.631.631,0,0,1-.409-1.111l11.291-9.616a.63.63,0,0,1,.818.96l-11.291,9.616A.631.631,0,0,1,31.577,207.916Z" transform="translate(-30.946 -197.039)"/></g><g transform="translate(20.13 41.132)"><path d="M31.15,218.23a.63.63,0,0,1-.439-1.083l11.595-11.275a.63.63,0,1,1,.878.9L31.59,218.052A.631.631,0,0,1,31.15,218.23Z" transform="translate(-30.52 -205.694)"/></g><g transform="translate(19.543 53.39)"><path d="M30.357,232.435a.63.63,0,0,1-.434-1.088l9.382-8.911a.63.63,0,1,1,.868.915l-9.381,8.911A.63.63,0,0,1,30.357,232.435Z" transform="translate(-29.726 -222.262)"/></g><g transform="translate(21.068 18.407)"><path d="M32.418,182.715a.631.631,0,0,1-.45-1.072l6.357-6.474a.63.63,0,1,1,.9.883l-6.357,6.474A.63.63,0,0,1,32.418,182.715Z" transform="translate(-31.788 -174.98)"/></g><g transform="translate(3.023 53.625)"><path d="M21.9,232.551a.632.632,0,0,1-.335-.1l-13.875-8.71a.63.63,0,1,1,.67-1.068l13.876,8.71a.631.631,0,0,1-.336,1.165Z" transform="translate(-7.399 -222.58)"/></g><g transform="translate(4.145 58.271)"><path d="M22.306,238.132a.632.632,0,0,1-.334-.1L9.209,230.023a.63.63,0,0,1,.67-1.068l12.762,8.012a.63.63,0,0,1-.336,1.165Z" transform="translate(-8.915 -228.859)"/></g><g transform="translate(15.83 0.552)"><path class="d" d="M26.948,158.865l1.3-4.055c.5-2.7-.158-3.982-1.773-3.962-1.667.182-2.189,1.534-1.4,4.11A25.75,25.75,0,0,0,26.948,158.865Z" transform="translate(-24.709 -150.848)"/></g><g transform="translate(16.485)"><path d="M28.387,159.225a.556.556,0,0,1-.473-.263,25.3,25.3,0,0,1-1.85-3.819l-.07-.166c-.545-1.775-.531-3.021.022-3.86a2.371,2.371,0,0,1,1.833-1.014,2.246,2.246,0,0,1,1.919.762c.649.772.8,2.032.459,3.853l-1.311,4.123a.556.556,0,0,1-.462.381A.523.523,0,0,1,28.387,159.225Zm-.439-8.017h-.031a1.275,1.275,0,0,0-.974.519c-.35.531-.317,1.525.1,2.874l.05.116c.363.876.713,1.719,1.156,2.574l.909-2.846c.322-1.742.052-2.527-.233-2.867A1.192,1.192,0,0,0,27.947,151.209Z" transform="translate(-25.593 -150.102)"/></g></g></g></g><g transform="translate(47.523 87.333)"><g transform="translate(35.313 6.003)"><path class="f" d="M118.237,129.4a34.045,34.045,0,0,0,1.324,5.64.787.787,0,0,0,1.236.33l1.762-1.426s5.269-5.039,2.673-7.736c-1.947-2.023-5.4-2.1-7-2.01a8.014,8.014,0,0,1-2.278-.183,3.329,3.329,0,0,1-.923-.317,2.293,2.293,0,0,1-.693-1.209s.226.858-.855,1.681-4.408,2.072-4.794,3.617c-.35,1.4-.044,4.826,2.786,6.319a10.844,10.844,0,0,0,4.942,1.444,7.025,7.025,0,0,1,4.221,2.726,5.067,5.067,0,0,0,2.47,1.776l.618.257-1.168-6.364" transform="translate(-108.025 -121.942)"/><path class="f" d="M123.535,140.671a.551.551,0,0,1-.213-.043l-.618-.257a5.512,5.512,0,0,1-2.738-2.013,6.527,6.527,0,0,0-3.834-2.454c-.159-.028-.331-.042-.525-.059a10.7,10.7,0,0,1-4.581-1.442c-3.175-1.674-3.435-5.468-3.066-6.944.331-1.324,2.172-2.325,3.651-3.13a12.342,12.342,0,0,0,1.345-.793c.746-.569.655-1.094.65-1.116a.564.564,0,0,1,.408-.653.546.546,0,0,1,.663.363c.211.679.4.865.473.914a2.711,2.711,0,0,0,.74.238,7.4,7.4,0,0,0,2.12.168c1.891-.1,5.372.041,7.43,2.181a3.077,3.077,0,0,1,.872,2.28c-.052,2.476-2.578,5.242-3.347,6.027l1.116,6.077a.555.555,0,0,1-.546.656Zm-9.25-16.915a3.157,3.157,0,0,1-.656.662,12.8,12.8,0,0,1-1.486.886c-1.153.626-2.893,1.572-3.105,2.424-.258,1.031-.143,4.3,2.507,5.693a9.6,9.6,0,0,0,4.16,1.318c.229.02.431.038.618.07a7.535,7.535,0,0,1,4.608,3,4.042,4.042,0,0,0,1.875,1.4l-.814-4.439-1.037.841a1.348,1.348,0,0,1-1.206.254,1.322,1.322,0,0,1-.9-.822A35.79,35.79,0,0,1,117.5,129.3a.556.556,0,0,1,.453-.642.562.562,0,0,1,.641.453,33.366,33.366,0,0,0,1.3,5.542.222.222,0,0,0,.151.138.241.241,0,0,0,.215-.046l1.755-1.421.008-.007c.044-.044,3.136-3.051,3.184-5.432a1.98,1.98,0,0,0-.562-1.486c-1.817-1.888-5.2-1.915-6.569-1.841a8.654,8.654,0,0,1-2.435-.2,3.3,3.3,0,0,1-1.106-.4A1.494,1.494,0,0,1,114.285,123.757Z" transform="translate(-107.832 -121.75)"/></g><g transform="translate(24.699 49.53)"><path class="f" d="M112.229,228.278a11.19,11.19,0,0,1-4.3-1.09c-2-.9-2.362-2.13-2.855-3.83l-.165-.563-2.286-7.6c-.774-2.578-1.431-4.382-3.416-5.915l-.452-.346c-1.845-1.412-4.142-3.169-5.218-5.663a.555.555,0,1,1,1.019-.439c.962,2.228,3.131,3.887,4.874,5.221l.455.348c2.243,1.732,2.991,3.776,3.8,6.475l2.453,8.178c.471,1.621.707,2.435,2.244,3.128,1.2.536,4.144,1.657,5.705.457.323-.248.5-.477.5-.644,0-.312-.58-.764-1-1.1-.2-.158-.4-.314-.572-.468a22.8,22.8,0,0,1-3.975-5.247,10.4,10.4,0,0,1-1.54-7.041,15.627,15.627,0,0,1,.6-2.047c1.063-3.162,2.84-8.455.567-12.548-1.326-2.385.927-4.718,1.649-5.375a12.554,12.554,0,0,0,3.378-4.5,27.586,27.586,0,0,0,1.46-4.837c.386-1.636.479-1.99.8-2.18a.555.555,0,0,1,.7.848c-.091.212-.263.94-.416,1.586a28.269,28.269,0,0,1-1.535,5.05,13.5,13.5,0,0,1-3.636,4.849c-.57.519-2.357,2.342-1.427,4.016,2.512,4.52.563,10.324-.484,13.441a15.8,15.8,0,0,0-.562,1.871,9.423,9.423,0,0,0,1.4,6.292,21.859,21.859,0,0,0,3.769,5c.15.137.327.274.508.415.672.523,1.435,1.116,1.432,1.973a1.967,1.967,0,0,1-.936,1.52A4.071,4.071,0,0,1,112.229,228.278Zm4.292-46.668h0Z" transform="translate(-93.486 -180.579)"/></g><g transform="translate(3.789 5.993)"><path class="f" d="M72.812,219.6a7.261,7.261,0,0,1-5.947-3.549,12.884,12.884,0,0,1-1.628-7.387,39.041,39.041,0,0,1,1.58-9l.069-.249a12.811,12.811,0,0,0,.647-3.608,38.125,38.125,0,0,0-1.023-6.66,49.179,49.179,0,0,1-.883-4.956c-.613-5.966,2.5-13.229,9.645-15.564A14.808,14.808,0,0,0,81.6,164.39l.172-.191a49.306,49.306,0,0,0,4.877-6c1.6-2.487,3.159-4.757,4.8-7.16l.946-1.382c1.008-1.475,2.038-3.071,3.06-4.743a6.859,6.859,0,0,0-2.411-9.53c-.806-.463-1.681-.929-2.6-1.421-.722-.384-1.474-.784-2.243-1.21-5.754-3.187-2.4-10.614-2.367-10.688a.551.551,0,0,1,.671-.3l4.13,1.307a.555.555,0,1,1-.335,1.057l-3.645-1.152c-.585,1.531-2.078,6.5,2.083,8.8.765.424,1.51.821,2.228,1.2.934.5,1.816.967,2.635,1.438a7.967,7.967,0,0,1,2.8,11.071c-1.033,1.688-2.073,3.3-3.091,4.79l-.946,1.383c-1.642,2.4-3.193,4.661-4.789,7.135a50.043,50.043,0,0,1-4.984,6.145l-.172.192a15.93,15.93,0,0,1-6.813,4.545c-6.513,2.129-9.44,9.007-8.887,14.4a48.855,48.855,0,0,0,.865,4.84,38.842,38.842,0,0,1,1.047,6.867,13.627,13.627,0,0,1-.687,3.929l-.069.247a38,38,0,0,0-1.54,8.74,11.82,11.82,0,0,0,1.461,6.765,5.867,5.867,0,0,0,5.9,2.933.344.344,0,0,0,.222-.136c.38-.657-.486-2.011-.951-2.738l-.165-.26c-.162-.259-.319-.5-.468-.718a5.3,5.3,0,0,1-1.213-3.779c.044-.628.067-1.268.089-1.913a22.134,22.134,0,0,1,.564-5.049c.721-2.648,2.6-3.8,4.592-5.019.351-.215.707-.433,1.062-.664a22.732,22.732,0,0,0,6.861-6.214c1.352-2.051,3.6-7.8,1.489-11.517a.555.555,0,0,1,.966-.549c2.389,4.2,0,10.355-1.529,12.677a23.75,23.75,0,0,1-7.183,6.534c-.365.235-.729.459-1.088.678-1.876,1.149-3.5,2.14-4.1,4.364a21.316,21.316,0,0,0-.525,4.8c-.023.658-.047,1.311-.091,1.953a4.241,4.241,0,0,0,1.03,3.085c.154.232.317.476.485.745l.159.249c.633.991,1.7,2.65.977,3.891a1.43,1.43,0,0,1-.952.666A5.358,5.358,0,0,1,72.812,219.6Z" transform="translate(-65.225 -121.736)"/></g><g transform="translate(28.482 0.002)"><path class="f" d="M117.7,133.443a1.357,1.357,0,0,1-.356-.048,1.322,1.322,0,0,1-.9-.823,35.628,35.628,0,0,1-1.351-5.739.556.556,0,0,1,.453-.641.562.562,0,0,1,.641.452,33.3,33.3,0,0,0,1.3,5.542.216.216,0,0,0,.151.138.231.231,0,0,0,.215-.045l1.762-1.427s3.136-3.035,3.184-5.434a1.983,1.983,0,0,0-.562-1.486c-1.818-1.888-5.2-1.92-6.568-1.84a8.711,8.711,0,0,1-2.436-.2,3.3,3.3,0,0,1-1.106-.4c-.738-.5-1.012-1.783-1.212-2.722-.036-.169-.068-.32-.1-.442a3.529,3.529,0,0,0-1.589-2.259c-.737-.48-3.931-1.648-4.43-1.278a1.123,1.123,0,0,0,.221.367,29.546,29.546,0,0,1,3.313,5.073.694.694,0,0,1-.616,1.012h-.052a3.667,3.667,0,0,0-2.817,1.417,1.086,1.086,0,0,1-.667.383c-.6.092-2.06.078-5.212-1.03a.555.555,0,0,1,.368-1.048c3.114,1.1,4.365,1.027,4.674.981a4.8,4.8,0,0,1,3.037-1.767,28.194,28.194,0,0,0-2.886-4.316,1.752,1.752,0,0,1-.45-.968,1.075,1.075,0,0,1,.522-1.061c1.378-.814,5.31,1.118,5.6,1.305a4.622,4.622,0,0,1,2.061,2.919c.033.132.069.3.108.48.124.579.38,1.787.747,2.033a2.653,2.653,0,0,0,.74.238,7.482,7.482,0,0,0,2.121.169c1.892-.1,5.369.039,7.429,2.18a3.077,3.077,0,0,1,.872,2.28c-.06,2.86-3.419,6.106-3.562,6.242l-1.8,1.458A1.356,1.356,0,0,1,117.7,133.443Z" transform="translate(-98.599 -113.639)"/></g><g transform="translate(49.293 17.091)"><path class="f" d="M138.347,164.132a4.519,4.519,0,0,1-.724-.055c-.454-.074-.949-.165-1.466-.258-2.188-.4-5.5-.994-6.414-.345a.555.555,0,0,1-.643-.9c1.206-.856,3.768-.474,7.255.158.51.092,1,.181,1.448.255,2,.33,5.91-1.349,9.36-2.829,4.152-1.78,6.555-2.751,7.66-2.005,1.176.8,2.2,1.032,2.877.666a1.894,1.894,0,0,0,.815-1.774,5.045,5.045,0,0,0-3.017-4.212c-1.425-.713-6.024.811-9.718,2.034-3.773,1.25-7.03,2.328-8.647,1.962a10.04,10.04,0,0,1-7.77-6.869c-.145-.462-2.213-10.538-2.627-12.554a.555.555,0,0,1,1.087-.222c.981,4.781,2.482,12.043,2.6,12.449a8.971,8.971,0,0,0,6.956,6.114c1.318.3,4.742-.836,8.053-1.933,4.488-1.487,8.728-2.891,10.563-1.973a6.161,6.161,0,0,1,3.631,5.187,2.967,2.967,0,0,1-1.4,2.767c-.615.333-1.956.681-4.027-.722-.654-.448-4.092,1.03-6.6,2.106C144.2,162.63,140.7,164.132,138.347,164.132Z" transform="translate(-126.726 -136.736)"/></g><g transform="translate(42.674 37.667)"><path class="f" d="M142.366,190.275a4.438,4.438,0,0,1-3.322-1.743c-1.83-2.06-4.419-3.355-6.922-4.607a38.518,38.518,0,0,1-4.582-2.558,59.213,59.213,0,0,1-4.666-3.685c-.54-.457-1.079-.912-1.622-1.359a4.225,4.225,0,0,0-1.378-.871,1.041,1.041,0,0,0-1.092.243.555.555,0,1,1-.894-.658,2.113,2.113,0,0,1,2.3-.651,5.139,5.139,0,0,1,1.774,1.08c.547.45,1.089.909,1.633,1.369,1.468,1.242,2.986,2.527,4.576,3.618a38.047,38.047,0,0,0,4.451,2.48c2.6,1.3,5.283,2.643,7.255,4.862a3.134,3.134,0,0,0,3,1.31,1.767,1.767,0,0,0,1.3-1.076,5.372,5.372,0,0,0-.61-3.278,6.383,6.383,0,0,0-2.036-2.763,2.481,2.481,0,0,0-.249-.145,4.521,4.521,0,0,0-1.031-.323l-.445-.1a13.4,13.4,0,0,1-1.682-.431,13.022,13.022,0,0,1-1.9-.864,17.4,17.4,0,0,1-3.4-2.435,23.748,23.748,0,0,1-1.93-1.971l-.184-.209a43.558,43.558,0,0,1-5.844-7.759,4.762,4.762,0,0,0-1.9-2q-.144-.075-.306-.146a.555.555,0,1,1,.447-1.016c.129.057.255.118.375.181a5.865,5.865,0,0,1,2.364,2.453,42.683,42.683,0,0,0,5.7,7.554l.184.21a22.805,22.805,0,0,0,1.841,1.879,16.328,16.328,0,0,0,3.183,2.281,11.96,11.96,0,0,0,1.741.793,12.35,12.35,0,0,0,1.546.393l.457.1a5.491,5.491,0,0,1,1.287.414,3.254,3.254,0,0,1,.367.212,7.387,7.387,0,0,1,2.435,3.231,6.358,6.358,0,0,1,.675,4.005,2.863,2.863,0,0,1-2.107,1.884A3.261,3.261,0,0,1,142.366,190.275Z" transform="translate(-117.78 -164.546)"/></g><g transform="translate(0 33.622)"><path class="f" d="M66.939,185.326a.553.553,0,0,1-.358-.131c-4.421-3.741-6.6-8.364-6.472-13.743.129-5.461,2.731-9.4,7.525-11.4a10.612,10.612,0,0,1,7.013-.622,7.617,7.617,0,0,1,5.053,5.1,4.876,4.876,0,0,1,.09,2.356c0,.014-.377,1.563-1.148,1.619a.691.691,0,0,1-.688-.487c-.712-1.9-2.605-3.824-5.059-3.56-2.7.289-4.615,2.9-5.433,5.043-1.665,4.362,1.074,8.246,4.641,9.829a.555.555,0,1,1-.449,1.014c-4.716-2.092-6.916-6.819-5.23-11.239.932-2.439,3.153-5.409,6.353-5.751a6.042,6.042,0,0,1,5.863,3.485c.033-.085.058-.158.07-.2a3.745,3.745,0,0,0-.078-1.8,6.568,6.568,0,0,0-4.3-4.333,9.525,9.525,0,0,0-6.27.583c-4.357,1.813-6.723,5.409-6.841,10.4-.121,5.1,1.867,9.306,6.079,12.869a.555.555,0,0,1-.359.978Z" transform="translate(-60.104 -159.079)"/></g><g transform="translate(32.257 22.522)"><path class="g" d="M124.07,148.9c1.432-2.722-4.305-3.1-5.528-3.23-3.542-.365-7.059-.729-10.584-1.25-1.088-.161-2.08-.673-3.164-.024-1.281.767-1.637,3.194.033,3.407,4.427.565,8.86,1.4,13.326,1.7C119.536,149.637,123.172,150.607,124.07,148.9Z" transform="translate(-103.701 -144.077)"/></g><g transform="translate(41.228 9.344)"><path class="b" d="M117.926,128.534a.555.555,0,0,1-.476-.269,6.9,6.9,0,0,0-1.35-.966.555.555,0,1,1,.562-.957,6.337,6.337,0,0,1,1.739,1.35.555.555,0,0,1-.474.841Z" transform="translate(-115.826 -126.266)"/></g><g transform="translate(13.387 33.667)"><path class="f" d="M96.432,159.89s3.524,9.064,1.053,13.594c-3.46,6.343-6.8,9.564-8.442,10.81-2.574,1.956-10.913,2.265-10.028-5.218C79.014,179.075,85.8,177.594,96.432,159.89Z" transform="translate(-78.393 -159.335)"/><path class="f" d="M84.6,185.833a7.613,7.613,0,0,1-3.739-.89c-1.417-.809-3.017-2.53-2.591-6.128a.554.554,0,0,1,.433-.476c.062-.016,6.75-1.754,17.06-18.928a.543.543,0,0,1,.522-.268.556.556,0,0,1,.471.352c.147.379,3.588,9.357,1.023,14.06-3.746,6.866-7.258,9.97-8.593,10.985A7.962,7.962,0,0,1,84.6,185.833ZM79.334,179.3c-.178,2.217.519,3.791,2.075,4.681a7.44,7.44,0,0,0,7.1-.324c1.28-.972,4.649-3.955,8.291-10.634,1.829-3.353.118-9.533-.7-12.034C87.107,175.653,80.928,178.72,79.334,179.3Z" transform="translate(-78.198 -159.14)"/></g><g transform="translate(23.495 5.994)"><path class="f" d="M96.853,123.559l-3.387-1.071s-.847,3.143-.858,3.2A6.886,6.886,0,0,0,96.853,123.559Z" transform="translate(-92.053 -121.933)"/><path class="f" d="M92.413,126.045a.556.556,0,0,1-.545-.656c.005-.029.014-.076.867-3.24a.554.554,0,0,1,.7-.385l3.387,1.071a.555.555,0,0,1,.252.893,7.4,7.4,0,0,1-4.621,2.316ZM93.656,123c-.134.5-.33,1.225-.482,1.791a6.446,6.446,0,0,0,2.428-1.176Z" transform="translate(-91.858 -121.738)"/></g><g transform="translate(33.64)"><path class="f" d="M114.02,120.694s.6.326-2.382.58c-.732.063-2.144.347-2.7.463a11.316,11.316,0,0,0-2.566.9h0a4.24,4.24,0,0,1,3.4-1.753.14.14,0,0,0,.127-.2,28.953,28.953,0,0,0-3.247-4.973,1.228,1.228,0,0,1-.324-.658c-.132-1.717,4.661.359,5.264.751a4.239,4.239,0,0,1,1.677,2.708,12.443,12.443,0,0,0,.756,2.187" transform="translate(-105.765 -113.829)"/><path class="f" d="M106.174,123a.555.555,0,0,1-.438-.9,4.873,4.873,0,0,1,3.173-1.921,28.151,28.151,0,0,0-2.886-4.316,1.757,1.757,0,0,1-.448-.969,1.071,1.071,0,0,1,.522-1.059c1.377-.82,5.31,1.116,5.6,1.3a4.785,4.785,0,0,1,1.91,3.028,12.279,12.279,0,0,0,.667,1.989.622.622,0,0,1,.144.539c-.1.484-.547.733-2.927.936-.585.05-1.745.268-2.635.454a10.783,10.783,0,0,0-2.426.848A.557.557,0,0,1,106.174,123Zm7.381-2.011h0Zm-6.566-6.265a.575.575,0,0,0-.33.071,1.144,1.144,0,0,0,.222.368,29.6,29.6,0,0,1,3.31,5.07.688.688,0,0,1,.065.458c.418-.073.832-.135,1.138-.161a15.462,15.462,0,0,0,1.73-.22,17.123,17.123,0,0,1-.592-1.85,3.725,3.725,0,0,0-1.444-2.387A12.521,12.521,0,0,0,106.989,114.723Z" transform="translate(-105.57 -113.637)"/></g><g transform="translate(38.754 11.77)"><path class="b" d="M114.445,130.929a.557.557,0,0,1-.22-.047,2.162,2.162,0,0,0-1-.218.555.555,0,1,1-.376-1.045,2.9,2.9,0,0,1,1.819.246.555.555,0,0,1-.223,1.064Z" transform="translate(-112.482 -129.545)"/></g><g transform="translate(44.885 12.907)"><path class="b" d="M123.388,138.339a1.353,1.353,0,0,1-.363-.048,1.319,1.319,0,0,1-.9-.822,35.709,35.709,0,0,1-1.351-5.739.556.556,0,0,1,.452-.642.564.564,0,0,1,.642.453,33.551,33.551,0,0,0,1.3,5.542.223.223,0,0,0,.152.138.239.239,0,0,0,.215-.047l.922-.605a20.842,20.842,0,0,0,1.929-1.52A19.99,19.99,0,0,0,129,132.14a.555.555,0,0,1,.879.678,21.02,21.02,0,0,1-2.762,3.066,21.426,21.426,0,0,1-2.053,1.614l-.876.572A1.269,1.269,0,0,1,123.388,138.339Z" transform="translate(-120.768 -131.081)"/></g><g transform="translate(33.663 21.487)"><path d="M122.064,148.678a15.852,15.852,0,0,1-2.446-.26c-.307-.049-.578-.093-.786-.115-2.618-.212-5.272-.619-7.837-1.013-1.3-.2-2.6-.4-3.9-.576a1.626,1.626,0,0,1-1.465-1.353,2.344,2.344,0,0,1,1.191-2.387,3.349,3.349,0,0,1,2.479-.112c.209.048.422.1.639.129,3.147.482,6.267.834,9.283,1.174l.206.022c2.087.221,4.567.637,5.216,1.9a1.574,1.574,0,0,1-.1,1.56A2.658,2.658,0,0,1,122.064,148.678Zm-14.013-4.891a1.479,1.479,0,0,0-.711.169,1.247,1.247,0,0,0-.615,1.212.525.525,0,0,0,.52.448c1.305.176,2.61.377,3.918.577,2.546.392,5.179.8,7.77,1.006.238.024.53.07.86.124,1.09.174,3.358.54,3.79-.223h0c.175-.309.1-.446.075-.505-.21-.407-1.134-.963-4.346-1.3l-.214-.024c-3.026-.341-6.157-.694-9.326-1.179-.243-.037-.481-.091-.717-.145A4.716,4.716,0,0,0,108.051,143.787Z" transform="translate(-105.602 -142.678)"/></g><g transform="translate(51.873 26.906)"><path class="g" d="M130.214,150.047s5.918-1.012,8.116,6.566C138.33,156.613,130.126,156.628,130.214,150.047Z" transform="translate(-130.213 -150.002)"/></g><g transform="translate(53.239 19.703)"><path class="g" d="M140.952,140.455s-5.739-1.763-8.892,5.469C132.06,145.925,140.194,146.993,140.952,140.455Z" transform="translate(-132.06 -140.266)"/></g><g transform="translate(51.748 25.261)"><path d="M137.853,154.791c-.2,0-4-.031-6.238-2.292a5.548,5.548,0,0,1-1.569-4.139l.006-.462.456-.078c.055-.013,5.8-.906,7.881,6.261l.2.709h-.741Zm-6.684-5.917a4.348,4.348,0,0,0,1.232,2.841,7.974,7.974,0,0,0,4.675,1.914C135.487,149.218,132.36,148.845,131.169,148.874Z" transform="translate(-130.045 -147.779)"/></g><g transform="translate(52.098 19.061)"><path d="M131.259,146.412h-.741l.206-.708c2.079-7.168,7.825-6.273,7.882-6.262l.455.078.007.462a5.555,5.555,0,0,1-1.569,4.14C135.263,146.38,131.463,146.412,131.259,146.412Zm6.6-5.915c-1.257,0-4.273.474-5.819,4.753a7.966,7.966,0,0,0,4.675-1.915,4.341,4.341,0,0,0,1.232-2.837Z" transform="translate(-130.518 -139.399)"/></g><g transform="translate(33.358 50.633)"><path class="h" d="M105.307,192.007s4.168-15.071,10.253-8.091-5.969,15.4-5.969,15.4S104.345,200.973,105.307,192.007Z" transform="translate(-105.189 -182.07)"/></g></g><g transform="translate(105.21 151.918)"><path class="i" d="M138.072,201.1" transform="translate(-138.072 -201.1)"/></g><g transform="translate(11.965 163.862)"><g transform="translate(0 1.389)"><path class="c" d="M12.045,245.276V261.91c12.552-1.984,22.234-11.5,26.044-21.745.664-1.786,3.54-21.3,3.178-21.216-14.956,3.342-27.018,12.6-29.222,26.327" transform="translate(-12.045 -218.949)"/></g><g transform="translate(0.678 1.411)"><path d="M13.516,261.812a.555.555,0,0,1-.094-1.1c10.049-1.745,18.917-9.89,22.594-20.749.532-1.572,2.509-16.44,2.778-19.714-13.743,3.6-22.966,12.88-24.728,24.936a.555.555,0,1,1-1.1-.161c1.859-12.719,11.673-22.449,26.251-26.028a.575.575,0,0,1,.55.166c.211.231.378.412-.951,10.214-.6,4.444-1.422,9.974-1.75,10.941-3.8,11.24-13.011,19.675-23.455,21.488A.593.593,0,0,1,13.516,261.812Z" transform="translate(-12.961 -218.979)"/></g><g transform="translate(0.678 1.41)"><path d="M13.516,259.5a.555.555,0,0,1-.463-.859l23.969-36.567c-9.462,8.86-22.867,34.345-23.014,34.626a.555.555,0,0,1-.983-.515c.665-1.271,16.411-31.2,26.034-37.122a.555.555,0,0,1,.755.776l-25.834,39.41A.553.553,0,0,1,13.516,259.5Z" transform="translate(-12.962 -218.977)"/></g><g transform="translate(19.417 11.348)"><path d="M38.843,234.4a.555.555,0,0,1-.081-1.1l5.988-.886a.555.555,0,1,1,.162,1.1l-5.988.886A.612.612,0,0,1,38.843,234.4Z" transform="translate(-38.289 -232.409)"/></g><g transform="translate(18.123 13.789)"><path d="M37.093,237.237a.555.555,0,0,1-.035-1.108l6.589-.418a.555.555,0,0,1,.071,1.107l-6.589.418Z" transform="translate(-36.539 -235.708)"/></g><g transform="translate(15.964 16.979)"><path d="M34.175,241.954a.555.555,0,0,1-.054-1.107l8.314-.823a.545.545,0,0,1,.607.5.555.555,0,0,1-.5.607l-8.314.823A.475.475,0,0,1,34.175,241.954Z" transform="translate(-33.621 -240.02)"/></g><g transform="translate(11.792 23.865)"><path d="M39.781,250.436H28.538a.555.555,0,1,1,0-1.11H39.781a.555.555,0,1,1,0,1.11Z" transform="translate(-27.983 -249.326)"/></g><g transform="translate(10.166 26.345)"><path d="M37.935,254.033h-.012l-11.595-.245a.554.554,0,0,1-.543-.566.57.57,0,0,1,.567-.544l11.594.245a.555.555,0,0,1-.011,1.11Z" transform="translate(-25.785 -252.678)"/></g><g transform="translate(7.777 30.445)"><path d="M34.534,259.682h-.018l-11.422-.354a.555.555,0,0,1-.538-.572.566.566,0,0,1,.573-.538l11.422.354a.555.555,0,0,1-.017,1.11Z" transform="translate(-22.557 -258.219)"/></g><g transform="translate(14.441 19.038)"><path d="M32.117,244.7a.555.555,0,0,1-.043-1.108l9.837-.787a.566.566,0,0,1,.6.51.555.555,0,0,1-.509.6l-9.837.787Z" transform="translate(-31.563 -242.802)"/></g><g transform="translate(12.246 7.993)"><path d="M31.346,236.2a.556.556,0,0,1-.531-.394l-2.2-7.218a.555.555,0,1,1,1.062-.323l2.2,7.218a.556.556,0,0,1-.369.693A.563.563,0,0,1,31.346,236.2Z" transform="translate(-28.596 -227.874)"/></g><g transform="translate(9.774 10.041)"><path d="M28.281,239.306a.554.554,0,0,1-.527-.382l-2.472-7.553a.555.555,0,1,1,1.054-.346l2.472,7.553a.554.554,0,0,1-.528.727Z" transform="translate(-25.255 -230.642)"/></g><g transform="translate(7.67 12.895)"><path d="M25.892,243.83a.554.554,0,0,1-.513-.764c.029-.717-1.48-4.569-2.92-7.784a.555.555,0,1,1,1.013-.454c3.487,7.787,3.054,8.481,2.891,8.741A.556.556,0,0,1,25.892,243.83Zm-.47-.849h0Z" transform="translate(-22.411 -234.499)"/></g><g transform="translate(6.138 13.999)"><path d="M23.96,246.471a.555.555,0,0,1-.528-.383l-3.063-9.369a.555.555,0,0,1,1.054-.346l3.064,9.37a.555.555,0,0,1-.354.7A.571.571,0,0,1,23.96,246.471Z" transform="translate(-20.342 -235.992)"/></g><g transform="translate(3.801 17.595)"><path d="M20.37,252.369a.557.557,0,0,1-.538-.42L17.2,241.543a.555.555,0,0,1,1.077-.272l2.633,10.406a.555.555,0,0,1-.4.674A.545.545,0,0,1,20.37,252.369Z" transform="translate(-17.182 -240.852)"/></g><g transform="translate(0.946 25.457)"><path d="M16.087,260.889a.555.555,0,0,1-.536-.413l-2.209-8.3a.555.555,0,0,1,1.073-.285l2.208,8.3a.555.555,0,0,1-.394.678A.53.53,0,0,1,16.087,260.889Z" transform="translate(-13.324 -251.478)"/></g><g transform="translate(14.627 6.363)"><path d="M33.705,232.651a.555.555,0,0,1-.541-.431l-1.336-5.869a.555.555,0,1,1,1.082-.247l1.336,5.869a.556.556,0,0,1-.417.665A.6.6,0,0,1,33.705,232.651Z" transform="translate(-31.814 -225.672)"/></g><g transform="translate(4.684 34.709)"><path d="M30.21,265.092H18.931a.555.555,0,0,1,0-1.11H30.21a.555.555,0,0,1,0,1.11Z" transform="translate(-18.376 -263.982)"/></g><g transform="translate(3.235 36.919)"><path d="M27.346,268.08H16.972a.555.555,0,0,1,0-1.11H27.346a.555.555,0,0,1,0,1.11Z" transform="translate(-16.417 -266.97)"/></g><g transform="translate(24.836)"><path class="d" d="M48.138,220.1c1.4-1.168,1.592-2.11.687-2.8-.934-.581-1.79-.094-2.484,1.6l-.729,2.73A17.75,17.75,0,0,0,48.138,220.1Z" transform="translate(-45.612 -217.071)"/></g><g transform="translate(23.702 0.003)"><path d="M44.635,222.746a.555.555,0,0,1-.536-.7l.73-2.73c.508-1.25,1.086-1.937,1.79-2.165a1.841,1.841,0,0,1,2.337,1.634,3.147,3.147,0,0,1-1.439,2.3c-.013.011-.028.022-.042.032l-.1.068a17.554,17.554,0,0,1-2.5,1.5A.553.553,0,0,1,44.635,222.746Zm2.493-4.564a.554.554,0,0,0-.169.027c-.208.067-.624.347-1.082,1.463l-.377,1.42c.428-.26.832-.536,1.247-.82l.078-.053c.9-.753,1.025-1.205,1.02-1.408,0-.063-.006-.257-.335-.507A.731.731,0,0,0,47.128,218.182Zm.033,2.48h0Z" transform="translate(-44.08 -217.075)"/></g></g><g transform="translate(11.736 10.853)"><g class="j"><g transform="translate(-8.05 -7.812)"><rect class="b" width="125.04" height="196.609" transform="translate(9.53 9.508)"/><path d="M136.05,207.6H8.05V8.028h128Zm-125.04-2.96H133.09V10.987H11.009Z"/><g class="k"><path class="l" d="M40.546-10.455-3.618,39.155l44.164,49.6,44.164-49.6Z"/></g><path class="c" d="M134.444,183.765v21.36c-15.057-2.553-26.636-14.8-31.231-27.931-.8-2.294-4.247-27.376-3.81-27.243,17.935,4.291,32.4,16.181,35.041,33.813"/><path d="M135.184,204.8h-.1c-13.318-2.4-25.023-13.569-29.869-28.441-.414-1.273-1.48-8.612-2.22-14.517-1.687-12.948-1.48-13.2-1.25-13.422a.577.577,0,0,1,.555-.163c18.571,4.743,31.075,17.617,33.435,34.449a.54.54,0,0,1-.466.622.555.555,0,0,1-.629-.466c-2.271-16.167-14.191-28.589-31.941-33.347.252,3.847,2.849,24.253,3.581,26.5,4.72,14.494,16.107,25.363,29,27.694a.562.562,0,0,1,.451.644A.555.555,0,0,1,135.184,204.8Z"/><path d="M135.184,201.722a.54.54,0,0,1-.466-.259L101.69,149.087a.547.547,0,0,1,.074-.688.562.562,0,0,1,.7-.074c12.26,7.85,32.37,47.582,33.221,49.269a.555.555,0,1,1-.991.5c-.192-.377-18.216-36-30.38-46.923l31.349,49.705a.562.562,0,0,1-.178.74A.525.525,0,0,1,135.184,201.722Z"/><path d="M111.227,163.729h-.081l-7.658-1.176a.555.555,0,1,1,.17-1.1l7.65,1.176a.562.562,0,0,1,.466.636A.547.547,0,0,1,111.227,163.729Z"/><path d="M112.884,166.356h0l-8.427-.555a.555.555,0,0,1-.511-.592.54.54,0,0,1,.584-.518l8.427.555a.555.555,0,1,1-.037,1.11Z"/><path d="M115.644,171.135h-.059l-10.625-1.088a.555.555,0,0,1-.5-.614.548.548,0,0,1,.607-.5l10.632,1.1a.556.556,0,1,1-.059,1.11Z"/><path d="M120.978,179.193H106.6a.555.555,0,1,1,0-1.11h14.376a.555.555,0,1,1,0,1.11Z"/><path d="M108.23,182.811a.555.555,0,1,1,0-1.11l14.8-.326a.555.555,0,0,1,.57.54.562.562,0,0,1-.548.57l-14.8.326Z"/><path d="M111.508,188.4a.555.555,0,0,1,0-1.11l14.605-.466a.54.54,0,0,1,.57.533.562.562,0,0,1-.533.577l-14.605.466Z"/><path d="M117.59,173.821h-.044l-12.578-1.043a.553.553,0,0,1,.089-1.1l12.578,1.043a.555.555,0,1,1-.044,1.11Z"/><path d="M117.59,167.687h-.155a.555.555,0,0,1-.377-.688l2.8-9.618a.57.57,0,0,1,.688-.377.555.555,0,0,1,.377.688l-2.8,9.618a.562.562,0,0,1-.533.377Z"/><path d="M120.394,170.854a.614.614,0,0,1-.163,0,.555.555,0,0,1-.37-.681l3.159-10.04a.548.548,0,0,1,.7-.363.555.555,0,0,1,.363.7l-3.159,10.04a.555.555,0,0,1-.525.348Z"/><path d="M122.5,175.538a.547.547,0,0,1-.474-.274c-.474-.74.74-4.624,3.7-11.431a.557.557,0,1,1,1.021.444c-1.938,4.5-3.862,9.618-3.751,10.469a.555.555,0,0,1-.215.74A.57.57,0,0,1,122.5,175.538ZM122.984,174.694Z"/><path d="M124.3,178.527a.615.615,0,0,1-.163,0,.555.555,0,0,1-.363-.7l3.914-12.452a.555.555,0,0,1,1.058.333l-3.914,12.452a.555.555,0,0,1-.533.363Z"/><path d="M127.83,184.69H127.7a.555.555,0,0,1-.407-.673l3.366-13.843a.555.555,0,1,1,1.073.259l-3.366,13.8A.548.548,0,0,1,127.83,184.69Z"/><path d="M132.018,192.37h-.133a.555.555,0,0,1-.407-.673l2.826-11.032a.555.555,0,0,1,.673-.4.548.548,0,0,1,.4.673l-2.819,11.032a.562.562,0,0,1-.54.4Z"/><path d="M115.644,163.729a.326.326,0,0,1-.118,0,.547.547,0,0,1-.422-.658l1.709-7.8a.555.555,0,1,1,1.08.237l-1.731,7.784a.547.547,0,0,1-.518.437Z"/><path d="M130.064,193.6h-14.42a.555.555,0,1,1,0-1.11h14.42a.555.555,0,1,1,0,1.11Z"/><path d="M131.914,196.543H118.655a.555.555,0,1,1,0-1.11h13.259a.555.555,0,1,1,0,1.11Z"/><path class="d" d="M105.012,152.246l-.932-3.633c-.888-2.22-1.983-2.893-3.174-2.123-1.162.917-.917,2.168.873,3.7a22.885,22.885,0,0,0,3.233,2.057Z"/><path d="M105.752,153.541a.562.562,0,0,1-.244-.059,22.322,22.322,0,0,1-3.174-1.983l-.133-.1c-1.258-1.088-1.842-2.035-1.82-2.96a2.175,2.175,0,0,1,.917-1.665,2.131,2.131,0,0,1,1.85-.34c.866.281,1.583,1.162,2.22,2.7l.954,3.7a.548.548,0,0,1-.185.57.555.555,0,0,1-.385.133Zm-3.174-6.067a1.2,1.2,0,0,0-.636.222,1.073,1.073,0,0,0-.451.792c0,.37.229,1.036,1.391,2.042l.1.067c.636.451,1.243.88,1.916,1.287l-.614-2.39c-.437-1.1-.962-1.82-1.48-1.983a.784.784,0,0,0-.222-.037Z"/><g class="m"><path class="c" d="M29.8,167.739,16.9,188.293C3.958,176.744.163,157.973,3.7,142.554c.622-2.686,12.437-28.855,12.793-28.523C31.157,129,37.9,149.175,29.81,167.739"/><path d="M18.142,188.523a.614.614,0,0,1-.422-.163C6.37,178,1.835,160.192,6.163,142.953c.37-1.48,3.8-9.175,6.659-15.316,6.193-13.481,6.555-13.577,6.9-13.666a.644.644,0,0,1,.629.178c15.012,15.782,19.237,35.722,11.372,53.338a.629.629,0,1,1-1.147-.511c7.539-16.929,3.574-36.077-10.6-51.385C17.9,119.454,8.065,140.659,7.4,143.256c-4.21,16.8.178,34.138,11.187,44.171a.622.622,0,0,1,0,.888A.607.607,0,0,1,18.142,188.523Z"/><path d="M19.977,185.563a.636.636,0,0,1-.629-.629l-.111-70.348a.644.644,0,0,1,.5-.622.622.622,0,0,1,.7.348c2.96,6.3,4.254,19.585,3.788,39.48-.34,14.761-1.569,27.871-1.576,28a.644.644,0,0,1-.688.57.629.629,0,0,1-.57-.688c.044-.481,4.217-45.651-.88-63.5l.126,66.8a.629.629,0,0,1-.629.629Z"/><path d="M19.9,134.533a.629.629,0,0,1-.414-.155l-6.659-5.756a.629.629,0,0,1-.059-.888.622.622,0,0,1,.888-.067l6.659,5.756a.629.629,0,0,1-.407,1.11Z"/><path d="M19.9,138.062a.614.614,0,0,1-.363-.126l-7.776-5.623a.63.63,0,1,1,.74-1.021l7.776,5.623a.636.636,0,0,1,.141.88A.644.644,0,0,1,19.9,138.062Z"/><path d="M19.674,144.322a.636.636,0,0,1-.385-.133l-9.567-7.473a.629.629,0,0,1-.111-.88.636.636,0,0,1,.888-.111l9.567,7.473a.636.636,0,0,1,.111.888A.644.644,0,0,1,19.674,144.322Z"/><path d="M19.977,155.294a.621.621,0,0,1-.333-.1L5.778,146.5a.631.631,0,0,1,.666-1.073l13.836,8.686a.629.629,0,0,1,.192.866.614.614,0,0,1-.5.318Z"/><path d="M19.977,159.726a.629.629,0,0,1-.318-.089L5.179,151a.636.636,0,0,1-.215-.866.629.629,0,0,1,.866-.215l14.443,8.642a.621.621,0,0,1,.222.858.636.636,0,0,1-.518.311Z"/><path d="M19.6,166.814a.607.607,0,0,1-.318-.089l-14.339-8.39a.629.629,0,0,1-.222-.858.621.621,0,0,1,.858-.229l14.339,8.368a.636.636,0,0,1,.222.866.629.629,0,0,1-.54.333Z"/><path d="M19.925,148.088a.6.6,0,0,1-.377-.133l-11.468-8.6a.629.629,0,0,1,.74-1.014l11.476,8.6a.629.629,0,0,1,.118.88A.614.614,0,0,1,19.925,148.088Z"/><path d="M23.632,142.184a.629.629,0,0,1-.422-1.1l8.5-7.532a.621.621,0,0,1,.888.052.629.629,0,0,1-.052.888l-8.5,7.569a.629.629,0,0,1-.414.126Z"/><path d="M24.416,146.926a.629.629,0,0,1-.407-1.11l9.108-7.747a.627.627,0,1,1,.814.954l-9.1,7.754a.636.636,0,0,1-.414.148Z"/><path d="M23.625,152.7h0a.636.636,0,0,1-.622-.644c0-1.036,3.544-3.981,10.477-8.76a.622.622,0,0,1,.873.163.629.629,0,0,1-.163.88c-4.58,3.159-9.522,6.925-9.929,7.813a.622.622,0,0,1-.636.548ZM24.253,152.083Z"/><path d="M23.528,156.663a.629.629,0,0,1-.407-1.11l11.291-9.618a.63.63,0,0,1,.814.962l-11.291,9.618a.659.659,0,0,1-.407.148Z"/><path d="M23.21,164.728a.644.644,0,0,1-.451-.192.629.629,0,0,1,0-.9l11.594-11.276a.629.629,0,0,1,.888,0,.636.636,0,0,1,0,.9L23.676,164.55a.636.636,0,0,1-.466.178Z"/><path d="M22.626,174.613a.629.629,0,0,1-.437-1.088l9.382-8.879a.631.631,0,1,1,.873.91l-9.382,8.893a.659.659,0,0,1-.437.163Z"/><path d="M24.15,137.2a.636.636,0,0,1-.444-.178.629.629,0,0,1,0-.888l6.356-6.474a.63.63,0,0,1,.9.88l-6.356,6.474a.629.629,0,0,1-.459.185Z"/><path d="M19.977,174.657a.688.688,0,0,1-.333-.1L5.771,165.845a.629.629,0,1,1,.666-1.065l13.88,8.708a.636.636,0,0,1-.34,1.169Z"/><path d="M19.977,178.6a.622.622,0,0,1-.333-.1L6.888,170.492a.629.629,0,0,1-.229-.866.636.636,0,0,1,.873-.2L20.3,177.439a.629.629,0,0,1,.2.866.636.636,0,0,1-.518.3Z"/><path class="d" d="M20.517,119.625l1.3-4.055c.5-2.7-.163-3.981-1.776-3.958-1.665.178-2.22,1.532-1.406,4.106a25.792,25.792,0,0,0,1.879,3.907Z"/><path d="M21.73,120.179a.555.555,0,0,1-.474-.259,25.7,25.7,0,0,1-1.85-3.818l-.067-.17c-.548-1.776-.533-3.019,0-3.862a2.419,2.419,0,0,1,1.835-1.014,2.279,2.279,0,0,1,1.924.74c.644.777.8,2.035.459,3.855l-1.317,4.121a.562.562,0,0,1-.459.385Zm-.437-8.013h-.037a1.273,1.273,0,0,0-.969.518c-.355.533-.318,1.524.1,2.871l.044.118c.37.88.74,1.717,1.162,2.575l.9-2.826c.326-1.739.052-2.523-.229-2.863a1.184,1.184,0,0,0-.969-.392Z"/></g><path class="f" d="M89.992,97.539a35.013,35.013,0,0,0,1.324,5.638.784.784,0,0,0,1.236.333l1.768-1.428s5.268-5.039,2.671-7.732c-1.946-2.027-5.394-2.1-7-2.012a7.873,7.873,0,0,1-2.279-.185,3.293,3.293,0,0,1-.925-.318,2.3,2.3,0,0,1-.688-1.206s.222.858-.858,1.68S80.8,94.38,80.448,95.926c-.348,1.4-.044,4.824,2.789,6.319a10.728,10.728,0,0,0,4.942,1.443A7.029,7.029,0,0,1,92.4,106.41a5.083,5.083,0,0,0,2.471,1.783l.621.252-1.169-6.363"/><path class="f" d="M95.489,109a.688.688,0,0,1-.215,0l-.622-.259a5.52,5.52,0,0,1-2.738-2.012,6.62,6.62,0,0,0-3.833-2.456,5.184,5.184,0,0,0-.525-.059,10.662,10.662,0,0,1-4.58-1.48c-3.174-1.672-3.433-5.468-3.071-6.94.333-1.324,2.175-2.331,3.655-3.13a11.756,11.756,0,0,0,1.347-.8c.74-.562.651-1.088.651-1.11a.562.562,0,0,1,.407-.659.533.533,0,0,1,.659.363,1.842,1.842,0,0,0,.474.917,2.723,2.723,0,0,0,.74.237,7.347,7.347,0,0,0,2.123.17c1.887-.1,5.372,0,7.4,2.22a3.07,3.07,0,0,1,.873,2.279c-.052,2.471-2.582,5.238-3.352,6.023L96,108.386a.54.54,0,0,1-.54.651ZM86.234,92.086a3.041,3.041,0,0,1-.651.666,12.765,12.765,0,0,1-1.48.88c-1.154.629-2.893,1.576-3.108,2.427-.259,1.028-.141,4.3,2.508,5.7a9.692,9.692,0,0,0,4.158,1.317,3.9,3.9,0,0,1,.621.067,7.649,7.649,0,0,1,4.6,2.96,4.121,4.121,0,0,0,1.879,1.406l-.814-4.439-1.036.836a1.369,1.369,0,0,1-1.206.259,1.347,1.347,0,0,1-.9-.829,35.345,35.345,0,0,1-1.354-5.668.555.555,0,1,1,1.088-.192,33.719,33.719,0,0,0,1.3,5.542.222.222,0,0,0,.148.141.259.259,0,0,0,.215-.044l1.761-1.45h0c.044-.044,3.137-3.056,3.189-5.438a1.946,1.946,0,0,0-.562-1.48c-1.813-1.887-5.179-1.916-6.57-1.842a8.694,8.694,0,0,1-2.434-.2,3,3,0,0,1-1.1-.4,1.628,1.628,0,0,1-.252-.215Z"/><path class="f" d="M87.913,181.309a11.158,11.158,0,0,1-4.306-1.1c-2.005-.9-2.36-2.131-2.856-3.825l-.163-.562L78.3,168.22c-.74-2.582-1.428-4.388-3.418-5.919l-.444-.34c-1.85-1.413-4.151-3.167-5.224-5.668a.555.555,0,1,1,1.014-.437c.969,2.22,3.137,3.884,4.883,5.224l.451.348c2.22,1.731,2.96,3.773,3.8,6.474l2.449,8.139c.474,1.62.74,2.434,2.22,3.13,1.2.533,4.143,1.657,5.712.451.318-.244.5-.474.5-.644,0-.311-.577-.74-1-1.1-.207-.155-.407-.311-.577-.466a22.937,22.937,0,0,1-3.973-5.246,10.44,10.44,0,0,1-1.539-7.036,15.768,15.768,0,0,1,.607-2.049c1.058-3.167,2.841-8.457.562-12.578-1.324-2.39.932-4.72,1.65-5.379a12.526,12.526,0,0,0,3.381-4.5,27.665,27.665,0,0,0,1.48-4.831c.385-1.635.481-1.99.8-2.183a.555.555,0,0,1,.74.2.548.548,0,0,1-.067.651c-.089.215-.259.94-.414,1.583a28.588,28.588,0,0,1-1.532,5.053,13.451,13.451,0,0,1-3.64,4.846c-.57.518-2.353,2.345-1.428,4.018,2.516,4.521.562,10.321-.481,13.444a16.211,16.211,0,0,0-.562,1.872,9.419,9.419,0,0,0,1.4,6.289,21.939,21.939,0,0,0,3.766,4.994c.155.141.326.274.511.414.673.525,1.435,1.117,1.428,1.975a1.946,1.946,0,0,1-.932,1.48,4.04,4.04,0,0,1-2.508.873ZM92.2,134.637Z"/><path class="f" d="M55.846,187.931a7.251,7.251,0,0,1-5.919-3.551,12.9,12.9,0,0,1-1.628-7.4,38.777,38.777,0,0,1,1.583-9l.067-.252a12.792,12.792,0,0,0,.644-3.611,37.888,37.888,0,0,0-1.021-6.659,49.7,49.7,0,0,1-.88-4.957c-.614-5.963,2.5-13.229,9.618-15.538a14.8,14.8,0,0,0,6.333-4.232l.17-.185a49.935,49.935,0,0,0,4.883-6.015c1.606-2.486,3.159-4.757,4.8-7.162L75.446,118c1.006-1.48,2.042-3.078,3.063-4.743a6.866,6.866,0,0,0,.8-5.3,6.777,6.777,0,0,0-3.211-4.232c-.806-.466-1.687-.932-2.6-1.421-.74-.385-1.48-.784-2.22-1.213-5.756-3.189-2.4-10.617-2.368-10.691a.548.548,0,0,1,.666-.3l4.136,1.31a.556.556,0,0,1-.34,1.058l-3.64-1.154c-.585,1.532-2.079,6.5,2.079,8.8q1.11.633,2.22,1.2c.94.5,1.82.969,2.634,1.443a7.961,7.961,0,0,1,2.8,11.1c-1.028,1.687-2.064,3.292-3.085,4.787l-.947,1.384c-1.643,2.4-3.189,4.661-4.787,7.14a50.144,50.144,0,0,1-4.994,6.148l-.163.185a15.871,15.871,0,0,1-6.814,4.543c-6.511,2.131-9.441,9.012-8.879,14.4a46.873,46.873,0,0,0,.866,4.839,38.778,38.778,0,0,1,1.043,6.866,13.436,13.436,0,0,1-.688,3.929l-.067.252a37.831,37.831,0,0,0-1.539,8.738,11.648,11.648,0,0,0,1.48,6.763,5.948,5.948,0,0,0,5.919,2.96.34.34,0,0,0,.222-.141c.377-.659-.488-2.005-.954-2.738l-.163-.259c-.163-.259-.318-.5-.466-.74a5.283,5.283,0,0,1-1.213-3.781c.044-.629.067-1.265.089-1.909a21.953,21.953,0,0,1,.562-5.053c.74-2.649,2.6-3.8,4.595-5.016.348-.215.74-.429,1.058-.666a22.606,22.606,0,0,0,6.859-6.208c1.287-2.094,3.544-7.865,1.413-11.564a.555.555,0,0,1,.962-.548c2.39,4.2,0,10.358-1.524,12.674a23.754,23.754,0,0,1-7.184,6.533c-.363.237-.74.459-1.088.681-1.879,1.147-3.5,2.138-4.106,4.365a21.789,21.789,0,0,0-.525,4.794c0,.658-.044,1.31-.089,1.953a4.218,4.218,0,0,0,1.036,3.085c.148.229.311.474.481.74l.155.252c.636.984,1.694,2.641.977,3.884a1.4,1.4,0,0,1-.947.666,5.23,5.23,0,0,1-1.11.133Z"/><path class="f" d="M92.056,103.88a1.376,1.376,0,0,1-.355-.044,1.339,1.339,0,0,1-.9-.821,35.683,35.683,0,0,1-1.347-5.741.54.54,0,0,1,.451-.636.555.555,0,0,1,.636.451,34.161,34.161,0,0,0,1.3,5.542.207.207,0,0,0,.148.133.215.215,0,0,0,.215-.044l1.761-1.428s3.137-3.034,3.189-5.431a1.975,1.975,0,0,0-.562-1.48c-1.82-1.887-5.179-1.916-6.57-1.842a8.435,8.435,0,0,1-2.434-.192,3.337,3.337,0,0,1-1.1-.4c-.74-.5-1.014-1.783-1.213-2.723a1.781,1.781,0,0,0-.1-.444,3.507,3.507,0,0,0-1.591-2.22c-.74-.481-3.929-1.65-4.439-1.28a1.088,1.088,0,0,0,.222.37,29.6,29.6,0,0,1,3.307,5.068.673.673,0,0,1,0,.688.7.7,0,0,1-.592.326h-.044a3.7,3.7,0,0,0-2.819,1.413,1.065,1.065,0,0,1-.673.385c-.592.1-2.057.081-5.179-1.028a.555.555,0,1,1,.37-1.043c3.115,1.1,4.365,1.021,4.669.977a4.854,4.854,0,0,1,3.041-1.768,28.256,28.256,0,0,0-2.886-4.314,1.776,1.776,0,0,1-.451-.969,1.051,1.051,0,0,1,.525-1.058c1.384-.821,5.3,1.117,5.594,1.3a4.646,4.646,0,0,1,2.064,2.96,3.174,3.174,0,0,0,.1.481c.126.577.385,1.783.74,2.027a2.5,2.5,0,0,0,.74.244,7.621,7.621,0,0,0,2.123.163c1.887-.1,5.372.044,7.4,2.22A3.093,3.093,0,0,1,98.264,96c-.059,2.863-3.418,6.1-3.566,6.245l-1.791,1.48A1.384,1.384,0,0,1,92.056,103.88ZM81.7,91.183Z"/><path class="f" d="M105.382,128.562a4.578,4.578,0,0,1-.74-.052l-1.48-.259c-2.22-.4-5.5-.991-6.415-.348a.555.555,0,1,1-.636-.9c1.206-.858,3.766-.474,7.251.155l1.48.259c2,.333,5.919-1.347,9.36-2.826,4.151-1.783,6.555-2.752,7.658-2.005s2.22,1.028,2.878.666a1.894,1.894,0,0,0,.814-1.776,5.039,5.039,0,0,0-3.019-4.21c-1.421-.74-6.023.806-9.715,2.035s-7.029,2.323-8.649,1.961a10.061,10.061,0,0,1-7.769-6.874c-.141-.459-2.22-10.536-2.627-12.578a.555.555,0,0,1,.437-.659.548.548,0,0,1,.651.429c.984,4.787,2.486,12.045,2.6,12.452a8.973,8.973,0,0,0,6.955,6.111c1.317.3,4.743-.836,8.057-1.931,4.484-1.48,8.723-2.893,10.558-1.975a6.163,6.163,0,0,1,3.633,5.179,2.96,2.96,0,0,1-1.4,2.775c-.614.333-1.953.681-4.025-.74-.651-.444-4.092,1.028-6.6,2.109C111.242,127.06,107.742,128.562,105.382,128.562Z"/><path class="f" d="M111.723,147.474a4.439,4.439,0,0,1-3.322-1.746c-1.828-2.057-4.439-3.352-6.925-4.6a38.473,38.473,0,0,1-4.58-2.56,55.284,55.284,0,0,1-4.661-3.7c-.54-.459-1.08-.917-1.628-1.369a4.1,4.1,0,0,0-1.376-.866,1.043,1.043,0,0,0-1.1.237.54.54,0,0,1-.74.118.548.548,0,0,1-.118-.777,2.116,2.116,0,0,1,2.294-.651,5.328,5.328,0,0,1,1.776,1.08c.548.451,1.088.917,1.635,1.376a56.647,56.647,0,0,0,4.572,3.611,38.735,38.735,0,0,0,4.439,2.486c2.6,1.295,5.29,2.641,7.258,4.861a3.143,3.143,0,0,0,3,1.31,1.768,1.768,0,0,0,1.295-1.08,5.335,5.335,0,0,0-.614-3.278,6.341,6.341,0,0,0-2.035-2.76l-.244-.148a4.543,4.543,0,0,0-1.036-.318l-.437-.1a14.467,14.467,0,0,1-1.687-.429,13.08,13.08,0,0,1-1.9-.866,17.454,17.454,0,0,1-3.4-2.434,24.542,24.542,0,0,1-1.931-1.975l-.178-.207a43.4,43.4,0,0,1-5.852-7.761,4.743,4.743,0,0,0-1.9-2l-.3-.148a.555.555,0,1,1,.444-1.014c.133.052.259.118.377.178a5.919,5.919,0,0,1,2.36,2.456,42.543,42.543,0,0,0,5.7,7.554l.185.207a21.187,21.187,0,0,0,1.842,1.879,16.054,16.054,0,0,0,3.182,2.279,11.358,11.358,0,0,0,1.739.8,12.228,12.228,0,0,0,1.554.392l.451.1a5.639,5.639,0,0,1,1.287.414c.118.059.244.133.363.207a7.436,7.436,0,0,1,2.434,3.233,6.3,6.3,0,0,1,.673,4.01,2.856,2.856,0,0,1-2.1,1.879A3.271,3.271,0,0,1,111.723,147.474Z"/><path class="f" d="M51.3,143.945a.533.533,0,0,1-.355-.126,16.843,16.843,0,0,1-6.474-13.747c.126-5.379,2.73-9.4,7.525-11.394a10.573,10.573,0,0,1,7.014-.621,7.621,7.621,0,0,1,5.053,5.09,4.928,4.928,0,0,1,.089,2.36s-.377,1.561-1.147,1.62a.7.7,0,0,1-.688-.488c-.74-1.9-2.6-3.825-5.061-3.559-2.7.289-4.617,2.893-5.431,5.039-1.665,4.365,1.073,8.25,4.639,9.833a.548.548,0,0,1,.281.74.562.562,0,0,1-.74.281c-4.713-2.094-6.911-6.822-5.224-11.239.925-2.442,3.152-5.409,6.348-5.756A6.04,6.04,0,0,1,63,125.462l.067-.2a3.766,3.766,0,0,0-.074-1.805,6.585,6.585,0,0,0-4.3-4.336,9.567,9.567,0,0,0-6.267.584c-4.358,1.813-6.726,5.409-6.844,10.4s1.872,9.308,6.082,12.867a.562.562,0,0,1,.059.784.54.54,0,0,1-.422.185Z"/><path class="g" d="M97.1,111.427c1.435-2.723-4.306-3.108-5.527-3.233-3.544-.363-7.058-.74-10.58-1.25-1.1-.155-2.086-.673-3.167,0-1.28.74-1.635,3.2,0,3.4,4.439.57,8.879,1.406,13.318,1.709C92.56,112.159,96.185,113.128,97.1,111.427Z"/><path class="b" d="M87.795,95.689a.555.555,0,0,1-.488-.244,6.659,6.659,0,0,0-1.347-.969.548.548,0,0,1-.2-.74.555.555,0,0,1,.74-.2,6.3,6.3,0,0,1,1.739,1.354.548.548,0,0,1-.481.836Z"/><path class="f" d="M75.9,118.3s3.522,9.064,1.051,13.592c-3.463,6.348-6.8,9.567-8.442,10.81-2.575,1.961-10.913,2.264-10.025-5.216C58.451,137.485,65.265,136.006,75.9,118.3Z"/><path class="f" d="M64.259,144.44a7.613,7.613,0,0,1-3.744-.9c-1.413-.806-3.011-2.523-2.59-6.126a.548.548,0,0,1,.437-.474c.059,0,6.748-1.754,17.062-18.934a.54.54,0,0,1,.518-.266.57.57,0,0,1,.474.355c.148.377,3.588,9.36,1.021,14.058-3.744,6.866-7.258,9.974-8.59,10.987A7.976,7.976,0,0,1,64.259,144.44Zm-5.268-6.533c-.178,2.22.525,3.788,2.079,4.676a7.458,7.458,0,0,0,7.1-.318c1.28-.977,4.646-3.958,8.287-10.64,1.835-3.352.118-9.53-.74-12.031-8.953,14.665-15.131,17.728-16.729,18.312Z"/><path class="f" d="M72.768,91.7l-3.389-1.073s-.851,3.145-.858,3.2A6.911,6.911,0,0,0,72.768,91.7Z"/><path class="f" d="M68.521,94.38a.555.555,0,0,1-.548-.658s0-.074.866-3.241a.57.57,0,0,1,.274-.34.548.548,0,0,1,.429-.044l3.389,1.073a.57.57,0,0,1,.37.377.548.548,0,0,1-.118.518,7.4,7.4,0,0,1-4.617,2.316Zm1.243-3.048c-.133.5-.333,1.228-.481,1.791a6.4,6.4,0,0,0,2.427-1.176Z"/><path class="f" d="M86.367,90.947s.6.318-2.382.577c-.74.059-2.146.348-2.708.466a11.35,11.35,0,0,0-2.56.9h0a4.24,4.24,0,0,1,3.4-1.754.141.141,0,0,0,.126-.207,29.011,29.011,0,0,0-3.248-4.972,1.265,1.265,0,0,1-.326-.659c-.126-1.717,4.661.363,5.268.74A4.232,4.232,0,0,1,85.6,88.786a13.317,13.317,0,0,0,.74,2.22"/><path class="f" d="M78.716,93.44a.54.54,0,0,1-.429-.2.555.555,0,0,1,0-.7,4.876,4.876,0,0,1,3.174-1.924,27.9,27.9,0,0,0-2.886-4.314,1.739,1.739,0,0,1-.444-.969,1.058,1.058,0,0,1,.518-1.058c1.384-.821,5.312,1.117,5.6,1.3a4.794,4.794,0,0,1,1.909,3.026,12.09,12.09,0,0,0,.666,1.99.651.651,0,0,1,.148.54c-.1.481-.548.74-2.96.94-.74.059-2.22.363-2.634.451a10.677,10.677,0,0,0-2.427.851A.622.622,0,0,1,78.716,93.44Zm7.4-2.012Zm-6.563-6.267a.57.57,0,0,0-.333.074,1.221,1.221,0,0,0,.222.37,29.8,29.8,0,0,1,3.315,5.068.666.666,0,0,1,.059.459c.422-.074.836-.133,1.139-.163a13.582,13.582,0,0,0,1.731-.222,17.927,17.927,0,0,1-.592-1.85,3.7,3.7,0,0,0-1.48-2.382,12.5,12.5,0,0,0-4.084-1.354Z"/><path class="b" d="M85.19,97.228a.57.57,0,0,1-.222-.044,2.116,2.116,0,0,0-1-.215.555.555,0,1,1-.377-1.043,2.834,2.834,0,0,1,1.82.244.555.555,0,0,1-.222,1.058Z"/><path class="b" d="M91.975,104.242a1.228,1.228,0,0,1-.363-.052,1.3,1.3,0,0,1-.9-.821,35.182,35.182,0,0,1-1.354-5.734.555.555,0,0,1,.451-.644.562.562,0,0,1,.644.451,33.221,33.221,0,0,0,1.295,5.542.229.229,0,0,0,.155.141.259.259,0,0,0,.215-.044l.917-.607a21.2,21.2,0,0,0,1.931-1.524,19.534,19.534,0,0,0,2.612-2.908.556.556,0,0,1,.88.681,21.117,21.117,0,0,1-2.76,3.063,21.33,21.33,0,0,1-2.057,1.613l-.873.577a1.265,1.265,0,0,1-.8.266Z"/><path d="M94.594,111.567a16.366,16.366,0,0,1-2.442-.259c-.311-.052-.577-.1-.792-.118-2.619-.207-5.275-.621-7.835-1.014-1.3-.2-2.6-.4-3.9-.57a1.635,1.635,0,0,1-1.48-1.354,2.345,2.345,0,0,1,1.191-2.39,3.337,3.337,0,0,1,2.479-.111c.215.044.422.1.644.126,3.108.481,6.245.836,9.278,1.176h.207c2.086.222,4.565.636,5.179,1.9a1.569,1.569,0,0,1-.1,1.561A2.487,2.487,0,0,1,94.594,111.567Zm-14.013-4.891a1.48,1.48,0,0,0-.74.17,1.243,1.243,0,0,0-.614,1.206.525.525,0,0,0,.518.451c1.3.178,2.612.377,3.914.577,2.553.392,5.179.792,7.776,1.006a5.459,5.459,0,0,1,.858.126c1.1.17,3.359.54,3.8-.222h0c.17-.311.1-.451.074-.511-.215-.407-1.132-.962-4.351-1.3h-.207c-3.048-.34-6.193-.74-9.33-1.176-.244-.037-.481-.1-.74-.148a4.838,4.838,0,0,0-.954-.178Z"/><path class="g" d="M96.34,111.027s5.919-1.006,8.139,6.57C104.457,117.6,96.252,117.642,96.34,111.027Z"/><path class="g" d="M106.6,103.969s-5.741-1.761-8.879,5.468C97.709,109.436,105.84,110.509,106.6,103.969Z"/><path d="M104.028,116.354c-.207,0-4,0-6.237-2.294a5.557,5.557,0,0,1-1.569-4.143v-.459l.459-.081c.052,0,5.8-.9,7.88,6.267l.207.7Zm-6.659-5.919a4.351,4.351,0,0,0,1.236,2.841,8.022,8.022,0,0,0,4.676,1.916c-1.613-4.388-4.757-4.765-5.941-4.757Z"/><path d="M97.31,110.154h-.74l.207-.74c2.079-7.169,7.821-6.274,7.88-6.267l.451.081v.459a5.549,5.549,0,0,1-1.569,4.143C101.312,110.117,97.509,110.154,97.31,110.154Zm6.592-5.919c-1.258,0-4.269.474-5.815,4.757a7.974,7.974,0,0,0,4.676-1.916,4.306,4.306,0,0,0,1.228-2.841Z"/><path class="h" d="M77.947,144.647s4.166-15.071,10.255-8.094-5.971,15.4-5.971,15.4S76.985,153.615,77.947,144.647Z"/><path class="c" d="M8.879,188.323v16.625c12.578-1.983,22.234-11.5,26.051-21.745.658-1.783,3.537-21.294,3.174-21.212C23.181,165.342,11.1,174.613,8.879,188.323"/><path d="M10.144,204.852a.555.555,0,0,1-.1-1.1c10.048-1.746,18.919-9.892,22.6-20.717.533-1.576,2.508-16.44,2.782-19.718-13.747,3.6-22.936,12.881-24.734,24.934a.562.562,0,0,1-.629.474.555.555,0,0,1-.466-.629c1.857-12.741,11.675-22.485,26.251-26.059a.57.57,0,0,1,.548.163c.215.237.377.414-.947,10.218-.607,4.439-1.428,9.974-1.754,10.943-3.8,11.231-12.978,19.674-23.454,21.486Z"/><path d="M10.144,202.536a.577.577,0,0,1-.3-.089.562.562,0,0,1-.163-.74L33.65,165.142c-9.463,8.879-22.87,34.345-23.01,34.627a.556.556,0,1,1-.984-.518c.666-1.273,16.411-31.2,26.029-37.12a.555.555,0,0,1,.74.74L10.61,202.284A.547.547,0,0,1,10.144,202.536Z"/><path d="M28.855,173.947a.548.548,0,0,1-.548-.474.555.555,0,0,1,.466-.629l5.986-.888a.562.562,0,0,1,.629.474.555.555,0,0,1-.466.629l-5.986.888Z"/><path d="M27.59,175.922a.555.555,0,0,1-.555-.518.548.548,0,0,1,.518-.585l6.592-.422a.548.548,0,0,1,.585.518.555.555,0,0,1-.518.592l-6.585.414Z"/><path d="M25.43,179.518a.555.555,0,0,1-.052-1.1l8.309-.843a.555.555,0,1,1,.111,1.1l-8.309.821Z"/><path d="M32.5,185.585H21.257a.555.555,0,0,1,0-1.11H32.5a.555.555,0,0,1,0,1.11Z"/><path d="M31.231,188.308h0l-11.594-.244a.562.562,0,0,1-.548-.57.555.555,0,0,1,.57-.54l11.594.244a.555.555,0,0,1,0,1.11Z"/><path d="M28.663,192.518h0l-11.424-.355a.547.547,0,0,1-.533-.57.577.577,0,0,1,.57-.54l11.424.355a.555.555,0,0,1,0,1.11Z"/><path d="M23.906,181.538a.548.548,0,0,1-.548-.511.54.54,0,0,1,.5-.592l9.84-.792a.577.577,0,0,1,.6.511.562.562,0,0,1-.511.6l-9.84.784Z"/><path d="M23.906,176.929a.548.548,0,0,1-.525-.392l-2.22-7.221A.555.555,0,1,1,22.219,169l2.22,7.214a.555.555,0,0,1-.37.7A.578.578,0,0,1,23.906,176.929Z"/><path d="M21.716,179.311a.562.562,0,0,1-.533-.377l-2.471-7.554a.557.557,0,0,1,1.058-.348l2.471,7.554a.562.562,0,0,1-.355.7Z"/><path d="M20.066,182.833a.592.592,0,0,1-.3-.081.555.555,0,0,1-.222-.681c0-.74-1.48-4.572-2.915-7.784a.556.556,0,0,1,1.014-.459c3.485,7.791,3.048,8.486,2.886,8.745a.54.54,0,0,1-.466.259ZM19.548,182.093ZM19.592,181.982Z"/><path d="M18.667,185.089a.562.562,0,0,1-.525-.385l-3.063-9.352A.555.555,0,1,1,16.129,175l3.108,9.352a.562.562,0,0,1-.355.74A.74.74,0,0,1,18.667,185.089Z"/><path d="M15.9,189.721a.57.57,0,0,1-.54-.422l-2.634-10.4a.57.57,0,0,1,.407-.681.562.562,0,0,1,.673.407l2.634,10.4a.555.555,0,0,1-.4.673Z"/><path d="M12.622,195.477a.562.562,0,0,1-.54-.414l-2.22-8.3a.555.555,0,0,1,.392-.681.562.562,0,0,1,.681.4l2.22,8.3a.548.548,0,0,1-.392.673.465.465,0,0,1-.141.022Z"/><path d="M25.43,173.947a.555.555,0,0,1-.54-.429l-1.339-5.867a.555.555,0,0,1,.422-.666.562.562,0,0,1,.666.414l1.332,5.875a.562.562,0,0,1-.414.666Z"/><path d="M25.43,196.425H14.154a.555.555,0,0,1,0-1.11H25.43a.555.555,0,0,1,0,1.11Z"/><path d="M23.077,198.637H12.719a.555.555,0,1,1,0-1.11H23.077a.555.555,0,0,1,0,1.11Z"/><path class="d" d="M36.254,163.64c1.4-1.169,1.591-2.109.681-2.8s-1.783-.1-2.479,1.6l-.74,2.73a17.943,17.943,0,0,0,2.538-1.532Z"/><path d="M33.169,166.282a.577.577,0,0,1-.355-.126.54.54,0,0,1-.178-.57l.74-2.73c.511-1.25,1.088-1.939,1.791-2.168a1.835,1.835,0,0,1,2.338,1.635,3.135,3.135,0,0,1-1.48,2.3l-.1.074a17.889,17.889,0,0,1-2.5,1.48.525.525,0,0,1-.252.1Zm2.493-4.565a.541.541,0,0,0-.17,0c-.207.067-.622.348-1.08,1.48l-.377,1.428c.429-.259.829-.533,1.25-.814l.074-.052c.9-.74,1.028-1.206,1.021-1.413,0-.059,0-.252-.333-.5A.74.74,0,0,0,35.662,161.717Zm0,2.479Z"/><path d="M136.05,207.6H8.05V8.028h128Zm-125.04-2.96H133.09V10.987H11.009Z"/><path class="b" d="M29.647,30.979a5.179,5.179,0,0,1-1.073-.54c-.326-.215-.7-.5-1.154-.843s-.888-.666-1.221-.873a3,3,0,0,0-1.043-.414,4.846,4.846,0,0,1-1.065.118,4.513,4.513,0,0,1-2.553-.7,4.3,4.3,0,0,1-1.561-1.968,7.591,7.591,0,0,1-.533-2.96,6.659,6.659,0,0,1,.644-2.96,4.861,4.861,0,0,1,1.776-2,4.765,4.765,0,0,1,2.553-.732,4.358,4.358,0,0,1,3.537,1.48,6.171,6.171,0,0,1,1.213,4.047,6.659,6.659,0,0,1-.792,3.315,4.817,4.817,0,0,1-2.146,2.035,4.121,4.121,0,0,1,1.287.326,13.413,13.413,0,0,1,1.48.74c.622.34,1.132.585,1.48.74a3.159,3.159,0,0,0,1.184.237,4.365,4.365,0,0,0,.466,0l.178.636a1.739,1.739,0,0,1-.644.422,2.086,2.086,0,0,1-.74.141,3.61,3.61,0,0,1-1.273-.252Zm-3.1-4.624a6.866,6.866,0,0,0,.829-3.7,6.474,6.474,0,0,0-.8-3.492,2.538,2.538,0,0,0-2.257-1.258,2.6,2.6,0,0,0-2.279,1.25,6.578,6.578,0,0,0-.843,3.7,6.659,6.659,0,0,0,.814,3.529,2.538,2.538,0,0,0,2.264,1.3,2.575,2.575,0,0,0,2.271-1.332Z"/><path class="l" d="M121.193,15.922l-6.467,7.266,6.467,7.266,6.467-7.266Z"/></g></g></g><g transform="translate(118.347 19.745)"><path d="M167.7,27.6a12.657,12.657,0,0,0-3.164-3.113c-.623-.475-1.2-.874-1.569-1.125-.722-.488-.743-.488-.832-.488s-.109,0-.832.485c-.371.25-.946.648-1.57,1.122a12.618,12.618,0,0,0-3.173,3.118,4.953,4.953,0,0,0-.735,2.694,3.549,3.549,0,0,0,3.662,3.748,3.349,3.349,0,0,0,1.792-.464L160.8,35.4h2.65l-.488-1.844a3.323,3.323,0,0,0,1.819.482,3.548,3.548,0,0,0,3.659-3.748A4.951,4.951,0,0,0,167.7,27.6Z" transform="translate(-155.827 -22.871)"/></g><g transform="translate(12.581 12.333)"><g class="n"><g transform="translate(-10.269 -10.25)"><path d="M77.467,30.225C74.145,24.61,67.111,17.691,56.561,9.658c-4.12-3.136-7.912-5.773-10.369-7.434C41.42-1,41.281-1,40.695-1S39.972-1,35.2,2.207c-2.459,1.654-6.256,4.282-10.378,7.41C14.261,17.633,7.207,24.566,3.86,30.224A32.726,32.726,0,0,0-1,48.022C-1,65.04,11.542,72.791,23.2,72.791a22.125,22.125,0,0,0,11.841-3.062L31.851,81.788H49.356L46.136,69.6a21.959,21.959,0,0,0,12.019,3.187c11.646,0,24.18-7.75,24.18-24.768A32.73,32.73,0,0,0,77.467,30.225Z" transform="translate(1.001 1.001)"/></g></g></g><g transform="translate(22.487 19.934)"><path class="b" d="M36.483,37a5.331,5.331,0,0,1-1.077-.542c-.323-.213-.705-.493-1.151-.839q-.727-.564-1.225-.876a3.051,3.051,0,0,0-1.017-.416,5.057,5.057,0,0,1-1.069.119,4.516,4.516,0,0,1-2.554-.7A4.272,4.272,0,0,1,26.8,31.776a7.57,7.57,0,0,1-.534-2.947,6.626,6.626,0,0,1,.646-3,4.849,4.849,0,0,1,1.774-2,4.718,4.718,0,0,1,2.555-.706,4.334,4.334,0,0,1,3.533,1.463,6.138,6.138,0,0,1,1.219,4.046,6.591,6.591,0,0,1-.795,3.311,4.8,4.8,0,0,1-2.146,2.034,4.224,4.224,0,0,1,1.292.327,14.176,14.176,0,0,1,1.471.757,16.715,16.715,0,0,0,1.515.743,3.105,3.105,0,0,0,1.188.238,3.235,3.235,0,0,0,.459-.03l.178.639a1.7,1.7,0,0,1-.638.423,2.168,2.168,0,0,1-.773.141A3.555,3.555,0,0,1,36.483,37Zm-3.1-4.626a6.859,6.859,0,0,0,.832-3.72,6.476,6.476,0,0,0-.8-3.5A2.536,2.536,0,0,0,31.152,23.9a2.613,2.613,0,0,0-2.279,1.247,6.624,6.624,0,0,0-.84,3.683,6.633,6.633,0,0,0,.809,3.526,2.533,2.533,0,0,0,2.264,1.3A2.577,2.577,0,0,0,33.38,32.37Z" transform="translate(-26.267 -23.127)"/></g></g></svg>