<svg xmlns="http://www.w3.org/2000/svg" width="128" height="200" viewBox="0 0 128 200"><defs><style>.a{fill:#fff;}.b{fill:#170000;}.c{fill:#c21823;}.d{fill:#b28247;}</style></defs><rect class="a" width="125.031" height="197.031" transform="translate(1.484 1.484)"/><path d="M138.88,210.85h-128v-200h128ZM13.84,207.884H135.92V13.816H13.84Z" transform="translate(-10.88 -10.85)"/><path class="b" d="M28.851,33.694a3.778,3.778,0,0,1-1.329-1.64,5.633,5.633,0,0,1-.453-2.3,6.9,6.9,0,0,1,.905-3.466,8.3,8.3,0,0,1,2.331-2.605,6.888,6.888,0,0,1,2.917-1.262l.341.646a6.576,6.576,0,0,0-2.932,1.841,6.806,6.806,0,0,0-1.625,2.924,2.887,2.887,0,0,1,1.024-.742,3.5,3.5,0,0,1,1.522-.3,3.036,3.036,0,0,1,2.375.906,3.622,3.622,0,0,1,.831,2.516,4.528,4.528,0,0,1-.46,2.019,3.607,3.607,0,0,1-3.37,2.063A3.555,3.555,0,0,1,28.851,33.694Zm.824-5.648a2.3,2.3,0,0,0-.861.779c0,.245,0,.438,0,.586a6.724,6.724,0,0,0,.475,2.969,1.8,1.8,0,0,0,1.759,1.15,1.663,1.663,0,0,0,1.165-.423A2.553,2.553,0,0,0,32.956,32a4.654,4.654,0,0,0,.23-1.447,3.474,3.474,0,0,0-.549-2.16,1.766,1.766,0,0,0-1.484-.683A2.776,2.776,0,0,0,29.675,28.046Z" transform="translate(-15.053 -13.833)"/><path d="M138.88,210.85h-128v-200h128ZM13.84,207.884H135.92V13.816H13.84Z" transform="translate(-10.88 -10.85)"/><path d="M167.737,27.613a12.655,12.655,0,0,0-3.177-3.125c-.623-.475-1.2-.876-1.573-1.128-.742-.49-.742-.49-.839-.49s-.1,0-.831.49c-.371.252-.95.646-1.573,1.121a12.721,12.721,0,0,0-3.184,3.132,4.936,4.936,0,0,0-.742,2.7A3.555,3.555,0,0,0,159.5,34.1a3.384,3.384,0,0,0,1.8-.46l-.482,1.826h2.657l-.49-1.848a3.3,3.3,0,0,0,1.826.482,3.555,3.555,0,0,0,3.667-3.756A5.017,5.017,0,0,0,167.737,27.613Z" transform="translate(-48.644 -13.949)"/><path d="M99.458,149.553a43.191,43.191,0,0,0,1.262,6.4.742.742,0,0,0,1.2.356l.876-1.885a7.422,7.422,0,0,1,1.559-2.227c1.41-1.358,3.808-4.2,1.959-6.42a6.458,6.458,0,0,0-5.522-2.613c-.742.059-2.108,1.484-2.835,1.306-.379-.1-1.432-1.239-1.6-1.373a2.672,2.672,0,0,1-.675-1.366,2.123,2.123,0,0,1-.846,1.93c-1.061.957-4.32,2.434-4.706,4.2-.349,1.6-.074,5.492,2.687,7.14a9.24,9.24,0,0,0,4.824,1.559,6.635,6.635,0,0,1,4.119,3.028,4.839,4.839,0,0,0,2.4,1.982l.6.282-1.856-7.682" transform="translate(-31.491 -44.695)"/><path d="M104.557,162.26a.6.6,0,0,1-.252-.059l-.6-.282a5.448,5.448,0,0,1-2.679-2.227,6.037,6.037,0,0,0-3.711-2.709,4.346,4.346,0,0,0-.5-.059,9.211,9.211,0,0,1-4.52-1.573c-3.088-1.841-3.325-6.108-2.969-7.771.319-1.484,2.123-2.642,3.57-3.585a13.093,13.093,0,0,0,1.351-.943,1.611,1.611,0,0,0,.661-1.373.588.588,0,0,1,1.143-.275c.208.809.408,1.009.46,1.054a4.535,4.535,0,0,1,.356.334,8.365,8.365,0,0,0,1.091.943,5.774,5.774,0,0,0,1.091-.609,3.808,3.808,0,0,1,1.529-.742,6.933,6.933,0,0,1,6.019,2.828c1.551,1.863.816,4.453-2.011,7.214a6.747,6.747,0,0,0-1.232,1.633l1.8,7.459a.579.579,0,0,1-.193.594.586.586,0,0,1-.408.148Zm-8.936-19.045a3.533,3.533,0,0,1-.631.742,12.459,12.459,0,0,1-1.484,1.032c-1.2.742-2.843,1.848-3.065,2.857-.341,1.559,0,5.077,2.42,6.517a8.164,8.164,0,0,0,4.015,1.41,1.675,1.675,0,0,1,.616.074,7.167,7.167,0,0,1,4.527,3.34,3.711,3.711,0,0,0,1.625,1.484l-1.173-4.854-.275.594a.6.6,0,0,1-.126.178,1.284,1.284,0,0,1-1.217.334,1.366,1.366,0,0,1-.95-.943,43.938,43.938,0,0,1-1.284-6.487.571.571,0,0,1,.49-.661.586.586,0,0,1,.668.5,42.306,42.306,0,0,0,1.239,6.3.23.23,0,0,0,.126.156h.052l.816-1.744a1.4,1.4,0,0,1,.082-.186,1.038,1.038,0,0,1,.067-.126,7.845,7.845,0,0,1,1.529-2.071c1.366-1.314,3.436-3.8,1.915-5.619a5.757,5.757,0,0,0-5.017-2.4,3.9,3.9,0,0,0-.987.534c-.683.453-1.4.92-2.049.742a4.646,4.646,0,0,1-1.566-1.232l-.252-.245a1.553,1.553,0,0,1-.111-.223Z" transform="translate(-31.283 -44.495)"/><path d="M90,185.069a.571.571,0,0,1-.393-.156c-5.069-4.683-7.222-12.35-5.2-18.644,1.18-3.711,0-7.749-2.85-9.6-.787-.512-1.64-1.024-2.546-1.573q-1.061-.638-2.182-1.336c-5.581-3.511-2.4-11.675-2.227-12.024a.579.579,0,0,1,.742-.334l4.03,1.418a.579.579,0,0,1,.356.742.586.586,0,0,1-.742.364L75.508,142.7c-.571,1.781-2.034,7.541,1.982,10.072l2.16,1.321c.92.549,1.781,1.076,2.583,1.6,3.258,2.138,4.661,6.732,3.333,10.933a17.414,17.414,0,0,0,4.9,17.435.586.586,0,0,1,0,.831A.616.616,0,0,1,90,185.069Z" transform="translate(-27.202 -44.616)"/><path d="M98.923,153.477a1.482,1.482,0,0,1-.312,0,1.381,1.381,0,0,1-.95-.943,44.958,44.958,0,0,1-1.284-6.487.586.586,0,1,1,1.158-.163,43.618,43.618,0,0,0,1.239,6.3.23.23,0,0,0,.126.156h.067l1.484-2.768a.527.527,0,0,1,.141-.171c.052-.045,4.921-4.26,2.8-6.806-1.284-1.536-2.82-1.232-4.3-.943a10.39,10.39,0,0,1-1.143.186,7.422,7.422,0,0,1-2.42-.186c-.371-.089-.854-.52-1.729-1.388L93.513,140c-.653-.5-.913-1.677-1.158-3.043a2.331,2.331,0,0,0-.1-.512c-.052-.267-.1-.586-.163-.928-.186-1.1-.46-2.746-1.032-3.177-1.239-.92-3.132-1.937-3.652-1.87v.067c.052.319.742,2.538.883,2.813a6.68,6.68,0,0,1,1.047,3.125,8.907,8.907,0,0,0,.579,2.286.75.75,0,0,1-.661,1.069,3.429,3.429,0,0,0-2.754,1.655,1.113,1.113,0,0,1-.683.453c-.594.119-2.056.134-5.158-1.084a.594.594,0,0,1-.327-.742.586.586,0,0,1,.742-.327c3.013,1.18,4.208,1.084,4.5,1.024a4.668,4.668,0,0,1,3.043-2.071,11.616,11.616,0,0,1-.453-2.049,5.663,5.663,0,0,0-.868-2.665,20.158,20.158,0,0,1-1.076-3.474,1.121,1.121,0,0,1,.557-1.158c1.284-.7,4.357,1.484,4.965,1.952.943.705,1.239,2.486,1.484,3.919.059.327.111.631.163.883s.067.334.1.542c.111.609.371,2.049.742,2.331a4.592,4.592,0,0,1,.386.356,10.036,10.036,0,0,0,1.232,1.1,6.176,6.176,0,0,0,2,.141,6.568,6.568,0,0,0,1.009-.163c1.566-.312,3.711-.742,5.433,1.336,2.7,3.236-2.108,7.712-2.85,8.365l-1.484,2.783a.615.615,0,0,1-.119.156A1.336,1.336,0,0,1,98.923,153.477Z" transform="translate(-28.977 -41.472)"/><path class="a" d="M99.134,148.574a.586.586,0,0,1-.52-.319,6.428,6.428,0,0,0-1.314-1.076.579.579,0,0,1-.156-.809.586.586,0,0,1,.809-.163,6.2,6.2,0,0,1,1.7,1.484.586.586,0,0,1-.252.787.594.594,0,0,1-.267.1Z" transform="translate(-33.297 -45.818)"/><path d="M78.624,143.318l-3.3-1.158-.861,3.652A6.5,6.5,0,0,0,78.624,143.318Z" transform="translate(-27.423 -44.798)"/><path d="M74.257,146.186a.594.594,0,0,1-.579-.683s0-.082.868-3.711a.557.557,0,0,1,.289-.379.586.586,0,0,1,.475-.045l3.3,1.2a.579.579,0,0,1,.282.9,7.044,7.044,0,0,1-4.572,2.724Zm1.277-3.474c-.134.579-.334,1.447-.49,2.1a6.16,6.16,0,0,0,2.375-1.44Z" transform="translate(-27.219 -44.586)"/><path d="M95.36,137.846s.586.364-2.331.705a26.021,26.021,0,0,0-2.65.571,10.531,10.531,0,0,0-2.516,1.069,4.053,4.053,0,0,1,3.34-2.056.156.156,0,0,0,.119-.23c-.854-1.937-3.525-2.969-3.563-5.136s1.6-6.68,4.817-7.548c1.047-.282,1.069,1.722,1.091,2.464A20.381,20.381,0,0,0,94,131.834c.46,1.989.5,4.179,1.358,6.012" transform="translate(-30.889 -40.417)"/><path d="M87.66,140.576a.572.572,0,0,1-.416-.178.586.586,0,0,1-.067-.742,4.847,4.847,0,0,1,3.117-2.227,9.583,9.583,0,0,0-1.277-1.4c-.995-.95-2.019-1.93-2.049-3.451,0-2.383,1.685-7.14,5.247-8.12a1.143,1.143,0,0,1,1.024.178c.69.5.742,1.692.809,2.768v.742a16.277,16.277,0,0,0,.3,3.384c.163.7.275,1.418.386,2.123a14.287,14.287,0,0,0,.9,3.711.653.653,0,0,1,.126.557c-.1.49-.579.794-2.88,1.061a24.957,24.957,0,0,0-2.568.564,9.493,9.493,0,0,0-2.353.995.587.587,0,0,1-.3.03ZM94.845,138.141Zm-2.3-12.551c-2.909.816-4.453,5.04-4.4,6.992,0,1.032.787,1.766,1.685,2.62a7.622,7.622,0,0,1,1.833,2.264.794.794,0,0,1,.045.49,10.482,10.482,0,0,1,1.054-.193,12.671,12.671,0,0,0,1.692-.282,16.588,16.588,0,0,1-.861-3.711c-.1-.683-.215-1.381-.364-2.034a17.323,17.323,0,0,1-.334-3.622v-.646C92.833,125.932,92.633,125.635,92.544,125.59Z" transform="translate(-30.685 -40.215)"/><path class="a" d="M95.735,151.349a.63.63,0,0,1-.26-.059,1.781,1.781,0,0,0-.891-.223.6.6,0,0,1-.742-.341.557.557,0,0,1,.289-.742,2.568,2.568,0,0,1,1.87.245.586.586,0,0,1-.26,1.113Z" transform="translate(-32.451 -46.799)"/><path d="M104.54,143.667c1.8,0,3.986-.356,6.324.6.868.356,1.618.371,2.16.668l2.613.579a.854.854,0,0,1,.275,1.336c-.653.742-5.76,2.36-7.9,5.938Z" transform="translate(-35.264 -45.174)"/><path d="M107.812,153.173h-.052a.564.564,0,0,1-.49-.371l-3.474-9.1a.609.609,0,0,1,.059-.542.594.594,0,0,1,.482-.252h1.136a12.209,12.209,0,0,1,5.4.675,7.246,7.246,0,0,0,1.084.319,4.853,4.853,0,0,1,1.069.334l2.531.564.1.037a1.351,1.351,0,0,1,.809.965,1.432,1.432,0,0,1-.319,1.284,6,6,0,0,1-1.7,1.047c-1.759.906-4.706,2.42-6.131,4.8A.586.586,0,0,1,107.812,153.173Zm-2.627-9.129,2.783,7.3a18.023,18.023,0,0,1,5.938-4.3,8.976,8.976,0,0,0,1.351-.742.3.3,0,0,0,.067-.252.223.223,0,0,0-.1-.141l-2.538-.564a.668.668,0,0,1-.156-.059,3.8,3.8,0,0,0-.846-.267,7.653,7.653,0,0,1-1.254-.371,11.207,11.207,0,0,0-4.921-.586Z" transform="translate(-35.063 -44.979)"/><path class="c" d="M111.77,169.554s5.084-3.54,9.649,3.563C121.441,173.116,113.922,176.56,111.77,169.554Z" transform="translate(-37.142 -51.653)"/><path class="c" d="M119.039,154s-5.863.527-6.309,9.5C112.73,163.515,120.56,161.251,119.039,154Z" transform="translate(-37.385 -47.862)"/><path d="M111.56,164.7l-.052-.846c-.267-4.335,1.106-6.776,2.308-8.053a6.234,6.234,0,0,1,2.806-1.8l.52-.126.171.512c2.227,6.621-4.906,9.931-4.98,9.96Zm4.81-9.359c-1.15.527-3.756,2.293-3.711,7.511C114.2,161.911,117.387,159.432,116.37,155.342Z" transform="translate(-37.058 -47.832)"/><path class="c" d="M106.049,169.3c.393-3.481-5-1.484-6.168-1.113-3.37,1.091-6.724,2.167-10.131,3.088-1.054.282-2.138.156-2.909,1.3-.92,1.343-.423,4.06,1.188,3.592,4.253-1.247,8.6-2.227,12.8-3.756C102.138,171.971,105.8,171.481,106.049,169.3Z" transform="translate(-30.551 -51.295)"/><path d="M89.27,174.274a1.484,1.484,0,0,1-1.277-.69,2.872,2.872,0,0,1,.141-3.117,3.228,3.228,0,0,1,2.271-1.165,6.183,6.183,0,0,0,.623-.126c3.028-.794,6.019-1.722,8.907-2.627l.193-.059c1.93-.616,4.29-1.2,5.4-.26a1.789,1.789,0,0,1,.557,1.729h0c-.252,1.811-2.672,2.427-4.275,2.828-.289.074-.549.141-.742.208-2.479.868-5.054,1.544-7.541,2.227-1.262.334-2.516.661-3.77,1.017a1.855,1.855,0,0,1-.49.037Zm14.592-7.378a11.8,11.8,0,0,0-3.37.705l-.208.067c-2.9.906-5.938,1.841-8.958,2.642-.238.059-.475.1-.742.148a2.108,2.108,0,0,0-1.544.742,1.692,1.692,0,0,0-.111,1.744.371.371,0,0,0,.482.156c1.262-.356,2.524-.69,3.793-1.024,2.464-.646,5.017-1.314,7.467-2.175.23-.074.512-.148.839-.23,1.217-.3,3.251-.824,3.4-1.856h0c.067-.49-.1-.631-.148-.675a1.484,1.484,0,0,0-.9-.245Z" transform="translate(-30.866 -50.895)"/><path d="M116.662,172.1a6.168,6.168,0,0,1-2.546-.512,5.8,5.8,0,0,1-3.11-3.845l-.126-.408.349-.245a5.864,5.864,0,0,1,4.216-.787c1.967.386,3.711,1.781,5.255,4.134l.371.571-.616.282A10.138,10.138,0,0,1,116.662,172.1Zm-4.386-4.26a4.505,4.505,0,0,0,2.316,2.679,6.965,6.965,0,0,0,4.713-.052,6.914,6.914,0,0,0-4.067-3.013,4.817,4.817,0,0,0-2.961.386Z" transform="translate(-36.912 -51.014)"/><path d="M96.3,235.6a4.2,4.2,0,0,1-3.837-3.258,2.093,2.093,0,0,1,1.165-1.915,5.27,5.27,0,0,0,2.553-3.006,4.068,4.068,0,0,1,.468-.972c.312-.43.905-3.036-.1-9.767-.906-5.938-4.364-20.277-4.394-20.418a.586.586,0,0,1,1.136-.275c0,.141,3.5,14.5,4.409,20.515.809,5.359.742,9.434-.1,10.636a3.712,3.712,0,0,0-.319.7,6.45,6.45,0,0,1-3.006,3.592c-.623.379-.609.742-.609.876a2.605,2.605,0,0,0,1.544,1.8,1.789,1.789,0,0,0,1.625.2,40.087,40.087,0,0,1,4.015-2.227.579.579,0,0,1,.779.267.594.594,0,0,1-.267.787,39.705,39.705,0,0,0-3.882,2.167,2.1,2.1,0,0,1-1.173.3Z" transform="translate(-32.032 -58.671)"/><path d="M106.68,236.408a2.353,2.353,0,0,1-1.967-.95c-.816-1.121-.742-3.11.171-5.329a15.119,15.119,0,0,0,1.484-5.715l.045-.468c.289-2.657-1.536-16.536-1.559-16.677a.586.586,0,0,1,.5-.653.579.579,0,0,1,.661.5c.074.579,1.863,14.161,1.559,16.96l-.052.468a16.091,16.091,0,0,1-1.551,6.034c-.742,1.781-.861,3.429-.3,4.186a1.343,1.343,0,0,0,1.306.468,6.75,6.75,0,0,0,3.644-1.484c1.24-.891,2-3.422,2.115-5.47a3.818,3.818,0,0,0-.393-2.442.579.579,0,0,1-.134-.7c.037-.067,3.466-7.14,1.381-17.813,0-.037-.965-4.609-1.44-7.964a.588.588,0,0,1,1.165-.163c.46,3.318,1.41,7.845,1.425,7.89,1.93,9.886-.631,16.655-1.329,18.236a5.737,5.737,0,0,1,.49,3.028c-.126,2.323-.98,5.2-2.6,6.353a7.569,7.569,0,0,1-4.3,1.707A2.23,2.23,0,0,1,106.68,236.408Z" transform="translate(-35.161 -59.469)"/><path d="M124.861,228.133a23.7,23.7,0,0,1-4.327-.289,1.418,1.418,0,0,1-1.017-1.039,4.2,4.2,0,0,1,1.44-3.711,7.934,7.934,0,0,1,5.581-2.16,15.527,15.527,0,0,1-6.5-7.37,13.383,13.383,0,0,1,1.841-12.929c1.484-1.692,3.236-2.39,5-1.967.238.067,5.574,1.529,7.689,5a.586.586,0,1,1-.995.609c-1.885-3.073-6.932-4.453-6.984-4.453a3.994,3.994,0,0,0-3.822,1.6,12.116,12.116,0,0,0-1.648,11.727c2.546,6.264,9.255,8.328,9.322,8.342a.586.586,0,1,1-.319,1.128c-4.965-1.373-7.489.467-8.342,1.321a3.357,3.357,0,0,0-1.136,2.575c.052.178.134.2.171.208,2.063.52,15.074.564,18.08-2.969,3.555-4.179-.052-22.007-5.084-30.483-4.312-7.251-11.571-13.085-15.512-15.92a27.231,27.231,0,0,1-5.277-4.951c-2.754-3.384-4.29-6.064-4.587-7.964a.586.586,0,1,1,1.158-.178c.26,1.67,1.759,4.223,4.335,7.422a26.052,26.052,0,0,0,5.054,4.743c4.015,2.887,11.415,8.84,15.831,16.277,5.938,9.953,8.654,27.506,4.973,31.833-1.893,2.227-6.583,3.088-10.183,3.422C127.919,228.066,126.286,228.133,124.861,228.133Z" transform="translate(-36.331 -50.459)"/><path d="M153.6,225.293a7.422,7.422,0,0,1-1.967-.267.586.586,0,0,1,.312-1.128c2.19.6,4.4,0,6.576-1.744,4.654-3.778,7.571-11.623,7.281-16.329-.23-3.711-1.93-8.164-4.691-10.057a32.011,32.011,0,0,1,.542,6.635c.779,14.4-10.309,15.52-10.391,15.527a.594.594,0,0,1-.631-.534.579.579,0,0,1,.534-.631c.408,0,10.064-1.061,9.344-14.362a34.951,34.951,0,0,0-.742-7.63.579.579,0,0,1,.215-.557.594.594,0,0,1,.586-.082c4.275,1.781,6.175,7.927,6.405,11.616.312,4.965-2.776,13.286-7.712,17.286A9,9,0,0,1,153.6,225.293Z" transform="translate(-47.308 -58.246)"/><path d="M121.846,243.319a9.846,9.846,0,0,1-5.982-1.715.591.591,0,0,1,.742-.92c2.776,2.145,7.422,1.3,7.5,1.291a.579.579,0,0,1,.683.46.594.594,0,0,1-.46.69,15.091,15.091,0,0,1-2.479.193Z" transform="translate(-38.149 -70.262)"/><path d="M116.6,177s-2.9,3.555-.527,9.159c3.333,7.838,6.257,9.137,7.964,10.747,2.672,2.538,12.016,7.422,12.863,1.9C136.9,198.814,129.235,185.61,116.6,177Z" transform="translate(-38.049 -53.819)"/><path d="M133.562,201.764c-3.459,0-8.283-2.806-10.183-4.609-.282-.26-.594-.52-.965-.816-1.722-1.41-4.335-3.533-7.147-10.146-2.494-5.886.5-9.649.623-9.8a.631.631,0,0,1,.846-.126c12.618,8.587,20.418,21.88,20.492,22.014a.631.631,0,0,1,.082.416,3.3,3.3,0,0,1-2.227,2.843A4.87,4.87,0,0,1,133.562,201.764ZM116.55,177.672c-.638,1.1-1.833,3.963-.111,8.023,2.687,6.324,5.054,8.253,6.776,9.649.371.3.742.586,1.039.883,2.086,1.982,7.793,5,10.436,4.1a1.989,1.989,0,0,0,1.321-1.611C135.017,197.066,127.773,185.525,116.55,177.672Z" transform="translate(-37.828 -53.601)"/><path class="d" d="M11.11,103.935S18.3,95.927,21.5,92.542c2.486-2.613,11.022-9,14.777-11.771a5.767,5.767,0,0,0,2.227-3.5c.742-3.711,2.442-11.519,4.223-18.214,2.442-9.151,2.264-11.378,2.264-11.378-1.239-2.969-4.951,9.649-4.951,9.649-1.314,4.386-2.62,8.773-4.015,13.137-2.049,6.413-7.444,7.667-12.8,10.925-4.142,2.516-8.253,5.092-12.343,7.682Z" transform="translate(-10.88 -20.229)"/><path d="M14.118,102.083l-.408-.623c.393-.26,9.686-6.368,11.645-7.207a55.893,55.893,0,0,0,10.191-6.888,3.407,3.407,0,0,0,1.032-3.518l.7-.267a4.134,4.134,0,0,1-1.2,4.3,57,57,0,0,1-10.428,7.051C23.745,95.745,14.215,102.017,14.118,102.083Z" transform="translate(-11.61 -29.657)"/><path d="M14.618,100.955l-.408-.616c.534-.356,13.256-8.788,15.245-9.812A35.15,35.15,0,0,0,35.638,86.6a9.931,9.931,0,0,0,3.2-4.928,26.66,26.66,0,0,0,1.039-6.19c.052-.638.111-1.277.178-1.893q.267-2.4.512-4.81l.742.082q-.245,2.4-.5,4.81c-.074.616-.126,1.239-.178,1.878a26.912,26.912,0,0,1-1.084,6.361,10.769,10.769,0,0,1-3.429,5.27A35.877,35.877,0,0,1,29.8,91.187C27.844,92.189,14.752,100.858,14.618,100.955Z" transform="translate(-11.738 -25.834)"/><path d="M13.407,105.458l-.824-.742c.067-.082,7.229-8.053,10.391-11.4C25.5,90.658,34.2,84.157,37.818,81.477a5.2,5.2,0,0,0,2.026-3.162c.824-3.971,2.464-11.63,4.231-18.244C46.109,52.457,46.3,49.681,46.3,49.028c-.868.787-2.635,5.455-3.86,9.649l-.052.163c-1.269,4.26-2.59,8.669-3.971,12.981-1.655,5.2-5.455,7.155-9.478,9.255-1.173.616-2.39,1.247-3.592,1.974-3.659,2.227-7.585,4.669-12.336,7.682l-.594-.943c4.8-3.043,8.728-5.455,12.4-7.682,1.232-.742,2.464-1.388,3.652-2.011,3.978-2.078,7.422-3.867,8.907-8.61,1.373-4.3,2.687-8.706,3.963-12.959l.045-.163c1.4-4.743,3.392-10.391,4.965-10.495a1.069,1.069,0,0,1,1.032.794l.045.163c0,.1.163,2.427-2.279,11.571-1.729,6.546-3.355,14.184-4.186,18.14a6.376,6.376,0,0,1-2.457,3.837c-3.6,2.657-12.239,9.114-14.711,11.7C20.629,97.42,13.481,105.384,13.407,105.458Z" transform="translate(-11.277 -20.393)"/><path class="d" d="M20.43,261.8s2.843-6.287,4.646-10.591c1.388-3.325,3.785-13.716,4.81-18.273a5.8,5.8,0,0,1,2.293-3.459c3.088-2.227,9.552-6.88,14.956-11.215,7.422-5.938,9.508-6.68,9.508-6.68,3.214-.045-6.843,8.476-6.843,8.476-3.481,2.969-6.969,5.938-10.391,8.973-5.04,4.453-4,9.938-4.824,16.151-.631,4.81-1.329,9.6-2.049,14.4Z" transform="translate(-13.342 -62.792)"/><path d="M31.632,265.256l-.742-.126c0-.111,1.907-11.363,1.885-13.427A58.579,58.579,0,0,1,35,239.315a4.119,4.119,0,0,1,3.451-2.835v.742a3.385,3.385,0,0,0-2.791,2.36A58.779,58.779,0,0,0,33.436,251.7C33.547,253.818,31.714,264.788,31.632,265.256Z" transform="translate(-16.038 -69.212)"/><path d="M28.112,263.231l-.742-.126c0-.156,2.687-15.638,2.813-17.813a36.049,36.049,0,0,1,1.128-7.422,10.8,10.8,0,0,1,3.429-5.27,27.463,27.463,0,0,1,5.4-3.555c.557-.3,1.106-.609,1.64-.92l4.2-2.4.364.646q-2.108,1.188-4.186,2.4c-.542.312-1.1.616-1.655.928a26.035,26.035,0,0,0-5.24,3.466,9.946,9.946,0,0,0-3.221,4.906,35.8,35.8,0,0,0-1.1,7.244C30.806,247.548,28.216,262.593,28.112,263.231Z" transform="translate(-15.131 -66.438)"/><path d="M18.449,261.027l-1.009-.46c0-.067,3.073-6.791,4.847-11.044,1.373-3.3,3.8-13.813,4.78-18.184a6.346,6.346,0,0,1,2.516-3.793c3.288-2.345,9.649-6.925,14.933-11.193,7.378-5.938,9.575-6.68,9.649-6.747h.215a1.047,1.047,0,0,1,1.1.616c.557,1.484-3.822,5.6-7.6,8.78l-.223.193c-3.355,2.858-6.821,5.812-10.168,8.773-3.711,3.3-3.978,7.17-4.268,11.653-.089,1.336-.186,2.724-.371,4.156-.564,4.3-1.217,8.907-2.056,14.406l-1.061-.193c.831-5.522,1.484-10.094,2.049-14.391.186-1.4.275-2.761.364-4.082.3-4.527.571-8.8,4.646-12.41,3.355-2.969,6.828-5.938,10.176-8.788l.23-.193c3.318-2.806,6.873-6.294,7.237-7.422-.571.26-3.043,1.566-9.2,6.5-5.336,4.283-11.675,8.907-14.978,11.23a5.277,5.277,0,0,0-2.078,3.132c-.987,4.394-3.429,14.978-4.839,18.37C21.567,254.214,18.479,260.96,18.449,261.027Z" transform="translate(-12.571 -62.281)"/><path class="d" d="M13.11,129.132s7.192-8,10.391-11.386a71.107,71.107,0,0,1,7.994-6.68c2.716-2.115,6.888-4.075,8.469-7.058.965-1.818,1.885-3.659,2.887-5.463a2.271,2.271,0,0,1,2.672-1.076c1.551.045,5.418.178,6.68-1.106,1.136-1.165-.275-2.115-1.4-2.279-.742-.111-7.214,1.047-7.125.171a58.545,58.545,0,0,1,2.472-9.775c1.113-2.843,2.605-6.962,2.605-6.962A1.329,1.329,0,0,0,46.6,76.034C43.7,78.951,41.47,87.479,41.47,87.479c-1.314,4.386-2.138,7.326-4.758,11.081-3.088,4.453-6.131,4.78-11.489,8.031q-6.212,3.785-12.343,7.689Z" transform="translate(-11.396 -27.617)"/><path d="M14.118,125.936l-.408-.623c.393-.26,9.686-6.361,11.645-7.2a55.953,55.953,0,0,0,10.191-6.9,3.422,3.422,0,0,0,1.032-3.511l.7-.267a4.119,4.119,0,0,1-1.2,4.3A57.7,57.7,0,0,1,25.645,118.8C23.745,119.612,14.215,125.877,14.118,125.936Z" transform="translate(-11.61 -35.827)"/><path d="M14.618,123.3l-.408-.616c.534-.356,13.256-8.788,15.245-9.812a35.152,35.152,0,0,0,6.183-3.926,10.356,10.356,0,0,0,3.2-4.936,62.918,62.918,0,0,0,3.934-16.6l.067-.683.742.082-.074.675a63.459,63.459,0,0,1-3.971,16.774,10.836,10.836,0,0,1-3.429,5.262,36.442,36.442,0,0,1-6.309,4.008C27.844,114.518,14.752,123.2,14.618,123.3Z" transform="translate(-11.738 -30.479)"/><path d="M13.42,130.427l-.824-.742c.067-.082,7.229-8.053,10.391-11.4a54.925,54.925,0,0,1,6.68-5.685l1.351-1.032c.742-.579,1.611-1.143,2.524-1.752,2.227-1.484,4.72-3.11,5.8-5.129l1.061-2.034c.594-1.136,1.195-2.3,1.833-3.444a2.776,2.776,0,0,1,3.288-1.351h0c1.4,0,5.1.141,6.153-.943.215-.223.3-.416.245-.571A1.729,1.729,0,0,0,50.6,95.6a19.155,19.155,0,0,0-1.989.178c-3.548.408-4.9.468-5.4,0a.742.742,0,0,1-.215-.586,58.724,58.724,0,0,1,2.531-9.975c1.1-2.806,2.59-6.91,2.605-6.947a.779.779,0,0,0-.3-.957.742.742,0,0,0-.943.089c-2.754,2.724-4.965,11.052-4.988,11.133l-.148.49c-1.225,4.112-2.108,7.081-4.691,10.769-2.227,3.214-4.542,4.394-7.459,5.886-1.225.631-2.613,1.343-4.193,2.3-3.637,2.227-7.556,4.654-12.336,7.682l-.594-.935c4.78-3.036,8.706-5.478,12.358-7.7,1.611-.98,3.013-1.7,4.26-2.338,2.88-1.484,4.965-2.546,7.058-5.537,2.472-3.54,3.288-6.294,4.535-10.45l.141-.475c.089-.334,2.3-8.684,5.277-11.63a1.826,1.826,0,0,1,2.331-.223,1.856,1.856,0,0,1,.742,2.279S47.688,82.8,46.567,85.62a59.667,59.667,0,0,0-2.4,9.322,28.859,28.859,0,0,0,4.342-.3,13.294,13.294,0,0,1,2.271-.178,2.768,2.768,0,0,1,2.227,1.484,1.618,1.618,0,0,1-.5,1.715c-1.225,1.262-4.216,1.351-6.977,1.277h-.26a1.685,1.685,0,0,0-2.019.824c-.631,1.128-1.232,2.286-1.811,3.414-.356.683-.742,1.366-1.076,2.049-1.2,2.227-3.837,4-6.16,5.537-.9.586-1.744,1.143-2.464,1.7L30.387,113.5a53.831,53.831,0,0,0-6.569,5.567C20.642,122.389,13.494,130.353,13.42,130.427Z" transform="translate(-11.29 -27.725)"/><path class="d" d="M15.24,265.436s8.008-7.185,11.386-10.391a70.374,70.374,0,0,0,6.68-7.986c2.115-2.716,4.082-6.888,7.058-8.469,1.818-.972,3.659-1.885,5.463-2.887a2.279,2.279,0,0,0,1.076-2.679c-.045-1.544-.178-5.411,1.106-6.68,1.165-1.143,2.115.275,2.279,1.4.111.742-1.047,7.222-.171,7.133a59.452,59.452,0,0,0,9.775-2.479c2.843-1.113,6.962-2.605,6.962-2.605a1.336,1.336,0,0,1,1.484,2.16c-2.917,2.939-11.445,5.166-11.445,5.166-4.379,1.314-7.326,2.13-11.081,4.758-4.453,3.088-4.78,6.123-8.031,11.482Q34,259.565,30.092,265.7Z" transform="translate(-12.004 -66.489)"/><path d="M31.213,270.414l-.623-.408c.067-.1,6.331-9.649,7.147-11.527a56.669,56.669,0,0,1,7.051-10.391,4.119,4.119,0,0,1,4.3-1.2l-.275.69a3.392,3.392,0,0,0-3.5,1.039,57.116,57.116,0,0,0-6.9,10.191C37.574,260.72,31.473,270.02,31.213,270.414Z" transform="translate(-15.961 -71.846)"/><path d="M27.594,267.949,27,267.541c.089-.134,8.766-13.226,9.767-15.178a35.878,35.878,0,0,1,4.008-6.309,10.956,10.956,0,0,1,5.262-3.429,63.645,63.645,0,0,1,16.774-3.978l.675-.067.082.742-.683.074A62.857,62.857,0,0,0,46.3,243.345a10.2,10.2,0,0,0-4.936,3.2,35.707,35.707,0,0,0-3.971,6.153C36.382,254.686,27.95,267.407,27.594,267.949Z" transform="translate(-15.036 -69.753)"/><path d="M29.348,265.751l-.943-.594c3.021-4.765,5.455-8.684,7.682-12.343.957-1.574,1.67-2.969,2.3-4.193,1.484-2.909,2.672-5.2,5.886-7.459,3.711-2.575,6.68-3.466,10.777-4.691l.468-.141c.1,0,8.432-2.227,11.133-5a.775.775,0,0,0-.854-1.247c-.052,0-4.156,1.484-6.962,2.605a58.018,58.018,0,0,1-9.923,2.509.683.683,0,0,1-.586-.215c-.49-.5-.438-1.848,0-5.4A19.3,19.3,0,0,0,48.5,227.6a1.744,1.744,0,0,0-.742-1.329c-.156-.045-.349,0-.572.252-1.084,1.054-.98,4.758-.943,6.145h0a2.791,2.791,0,0,1-1.351,3.251c-1.136.631-2.3,1.239-3.429,1.826q-1.024.52-2.048,1.069c-2.019,1.069-3.711,3.577-5.129,5.789-.6.913-1.173,1.781-1.752,2.531l-1.032,1.343a55.011,55.011,0,0,1-5.685,6.68c-3.347,3.184-11.319,10.339-11.4,10.391l-.742-.831c.074-.067,8.038-7.214,11.378-10.391a55.021,55.021,0,0,0,5.567-6.569c.341-.46.69-.913,1.032-1.358.557-.742,1.113-1.559,1.7-2.457,1.536-2.323,3.273-4.958,5.537-6.168l2.063-1.076c1.121-.579,2.279-1.18,3.4-1.8a1.685,1.685,0,0,0,.809-2.011v-.26c-.074-2.768,0-5.752,1.277-6.984a1.611,1.611,0,0,1,1.715-.5,2.739,2.739,0,0,1,1.484,2.227,13.36,13.36,0,0,1-.178,2.271,27.827,27.827,0,0,0-.289,4.342A60.231,60.231,0,0,0,58.45,231.7c2.82-1.106,6.94-2.6,6.977-2.613a1.893,1.893,0,0,1,2.041,3.073c-2.969,2.969-11.3,5.2-11.653,5.277l-.445.141c-4.164,1.239-6.91,2.063-10.458,4.535-2.969,2.093-4.06,4.171-5.537,7.058-.638,1.24-1.358,2.65-2.338,4.26C34.811,257.052,32.369,260.978,29.348,265.751Z" transform="translate(-11.602 -66.27)"/><path d="M61.882,91.241a12.759,12.759,0,0,0,4.409.653h1.937c.868-.037.891-.045.957-.1s.089-.067.386-.891c.156-.416.386-1.084.609-1.833a12.617,12.617,0,0,0,.742-4.4,4.943,4.943,0,0,0-.995-2.62,3.555,3.555,0,0,0-5.2-.868,3.3,3.3,0,0,0-1.18,1.432l-.69-1.766-2.145,1.566,1.484,1.21a3.28,3.28,0,0,0-1.759.683,3.563,3.563,0,0,0-.742,5.2A4.951,4.951,0,0,0,61.882,91.241Z" transform="translate(-23.381 -28.838)"/><path d="M40.952,213.1a12.692,12.692,0,0,0-3.9-2.16c-.742-.289-1.388-.52-1.818-.661A3.194,3.194,0,0,0,34.3,210c-.089,0-.1,0-.668.7-.3.341-.742.883-1.217,1.484a12.692,12.692,0,0,0-2.227,3.867,4.921,4.921,0,0,0,0,2.8,3.555,3.555,0,0,0,4.55,2.635,3.347,3.347,0,0,0,1.6-.928v1.893L38.9,221.7l-.965-1.648a3.325,3.325,0,0,0,1.885,0,3.555,3.555,0,0,0,2.531-4.6,4.988,4.988,0,0,0-1.4-2.36Z" transform="translate(-15.805 -62.343)"/><path d="M77.5,221.767a12.766,12.766,0,0,0-3.4-2.9c-.661-.43-1.262-.794-1.648-1.017-.742-.445-.742-.438-.868-.438s-.111,0-.8.549c-.356.275-.9.742-1.484,1.225a12.684,12.684,0,0,0-2.969,3.333,5.032,5.032,0,0,0-.549,2.746,3.548,3.548,0,0,0,3.919,3.5,3.355,3.355,0,0,0,1.759-.579l-.356,1.856,2.65-.178-.609-1.811a3.355,3.355,0,0,0,1.848.356,3.555,3.555,0,0,0,3.407-4,4.988,4.988,0,0,0-.9-2.642Z" transform="translate(-25.171 -64.26)"/><path d="M70.394,206.437a12.766,12.766,0,0,0-.935-4.386c-.26-.742-.52-1.4-.69-1.811-.334-.8-.356-.816-.43-.868s-.089-.059-.965-.052c-.445,0-1.15,0-1.93.074a12.617,12.617,0,0,0-4.379.861,4.98,4.98,0,0,0-2.108,1.848,3.563,3.563,0,0,0,1,5.158,3.3,3.3,0,0,0,1.752.6l-1.41,1.262,2.227,1.484.609-1.818A3.325,3.325,0,0,0,64.4,210.2a3.548,3.548,0,0,0,5.129-1.121A4.958,4.958,0,0,0,70.394,206.437Z" transform="translate(-23.215 -59.58)"/><path d="M35.52,66.24a12.759,12.759,0,0,0,1.536,4.179c.364.7.742,1.306.943,1.7.445.742.46.742.542.794s.1.052.965-.082c.445-.067,1.136-.186,1.9-.341A12.684,12.684,0,0,0,45.622,71a4.943,4.943,0,0,0,1.826-2.13,3.555,3.555,0,0,0-1.715-4.965,3.318,3.318,0,0,0-1.826-.349l1.225-1.447L42.727,61l-.349,1.878a3.4,3.4,0,0,0-1.44-1.217,3.555,3.555,0,0,0-4.928,1.833A4.98,4.98,0,0,0,35.52,66.24Z" transform="translate(-17.225 -23.817)"/><path d="M59.948,65.016a12.744,12.744,0,0,0,4.364-.92c.742-.252,1.4-.5,1.811-.675.809-.327.824-.341.876-.416s.059-.1.059-.965c0-.453,0-1.15-.052-1.937a12.892,12.892,0,0,0-.816-4.386,4.988,4.988,0,0,0-1.833-2.123,3.555,3.555,0,0,0-5.2.95,3.333,3.333,0,0,0-.623,1.752L57.291,54.87,55.806,57.1l1.811.623a3.355,3.355,0,0,0-1.425,1.247,3.563,3.563,0,0,0,1.1,5.129,4.958,4.958,0,0,0,2.657.92Z" transform="translate(-22.506 -21.711)"/></svg>