<svg xmlns="http://www.w3.org/2000/svg" width="128" height="200" viewBox="0 0 128 200"><defs><style>.a{fill:#fff;}.b{fill:#170000;}.c{fill:none;stroke:#231815;stroke-linecap:round;stroke-linejoin:round;stroke-width:1.578px;}.d{fill:#c21823;}.e{fill:#b28247;}</style></defs><g transform="translate(2346.048 -10.853)"><g transform="translate(-2346.047 10.853)"><rect class="a" width="125.04" height="197.041" transform="translate(1.48 1.48)"/><path d="M-2218.048,210.853h-128v-200h128Zm-125.04-2.966h122.08V13.819h-122.08Z" transform="translate(2346.047 -10.853)"/></g><g transform="translate(-2337.239 19.964)"><path class="b" d="M-2329.643,23.167h1.634l3.608,10.245.921.148v.728h-3.921V33.56l1.232-.148-.7-2.2h-4.335l-.7,2.2,1.277.148v.728h-3.519V33.56l.92-.148Zm.935,2.376-.372-1.307-.356,1.337-1.5,4.766h3.787Z" transform="translate(2334.142 -23.167)"/></g><g transform="translate(-2299.715 95.302)"><g transform="translate(0)"><g transform="translate(11.634 12.258)"><path d="M-2257.5,149.537a43.2,43.2,0,0,0,1.259,6.376.716.716,0,0,0,1.2.354l.872-1.878a7.3,7.3,0,0,1,1.549-2.194c1.409-1.358,3.8-4.191,1.956-6.4a6.347,6.347,0,0,0-5.5-2.6c-.745.061-2.106,1.484-2.832,1.3-.376-.1-1.427-1.235-1.6-1.365a2.646,2.646,0,0,1-.668-1.36,2.136,2.136,0,0,1-.844,1.923c-1.059.953-4.309,2.428-4.695,4.186-.349,1.594-.071,5.476,2.681,7.12a9.275,9.275,0,0,0,4.811,1.553,6.6,6.6,0,0,1,4.1,3.018,4.867,4.867,0,0,0,2.4,1.973l.6.281-1.852-7.656" transform="translate(2267.497 -141.179)"/><path d="M-2252.411,162.2a.6.6,0,0,1-.248-.055l-.6-.281a5.43,5.43,0,0,1-2.674-2.244,6.059,6.059,0,0,0-3.682-2.7c-.151-.027-.314-.039-.5-.055a9.281,9.281,0,0,1-4.505-1.57c-3.076-1.837-3.314-6.088-2.952-7.746.323-1.473,2.12-2.638,3.563-3.574a12.425,12.425,0,0,0,1.312-.92,1.628,1.628,0,0,0,.664-1.363.583.583,0,0,1,.433-.693.58.58,0,0,1,.7.419c.211.8.406,1,.459,1.045s.185.166.353.331a7.93,7.93,0,0,0,1.064.942,4.241,4.241,0,0,0,1.084-.6,3.729,3.729,0,0,1,1.524-.723,6.887,6.887,0,0,1,6,2.812c1.549,1.856.82,4.479-2,7.195a6.586,6.586,0,0,0-1.227,1.628l1.8,7.437a.584.584,0,0,1-.2.589A.582.582,0,0,1-2252.411,162.2Zm-8.908-18.97a3.542,3.542,0,0,1-.6.688,12.5,12.5,0,0,1-1.457,1.032c-1.2.777-2.838,1.841-3.059,2.846-.341,1.559.016,5.063,2.411,6.494a8.163,8.163,0,0,0,4,1.409c.227.018.428.036.614.07a7.16,7.16,0,0,1,4.518,3.334,3.657,3.657,0,0,0,1.62,1.456l-1.17-4.838-.274.59a.569.569,0,0,1-.126.176,1.29,1.29,0,0,1-1.215.333,1.365,1.365,0,0,1-.948-.932,45.412,45.412,0,0,1-1.28-6.47.583.583,0,0,1,.494-.66.581.581,0,0,1,.661.494,42.732,42.732,0,0,0,1.239,6.284.214.214,0,0,0,.125.153.1.1,0,0,0,.055,0l.81-1.744c.027-.06.056-.119.085-.178a.571.571,0,0,1,.064-.129,7.819,7.819,0,0,1,1.523-2.062c1.365-1.315,3.428-3.79,1.913-5.608a5.78,5.78,0,0,0-5.005-2.4,3.914,3.914,0,0,0-.98.537,2.9,2.9,0,0,1-2.044.746,4.539,4.539,0,0,1-1.564-1.232c-.115-.114-.2-.2-.25-.243A1.316,1.316,0,0,1-2261.319,143.226Z" transform="translate(2267.7 -140.974)"/></g><g transform="translate(56.843 57.662)"><path class="c" d="M-2206.6,202.34" transform="translate(2206.598 -202.34)"/></g><g transform="translate(0 12.55)"><path d="M-2266.992,184.934a.583.583,0,0,1-.4-.155c-5.053-4.671-7.191-12.315-5.2-18.589,1.172-3.7-.025-7.721-2.847-9.568-.781-.511-1.632-1.026-2.534-1.57-.7-.422-1.429-.863-2.175-1.332-5.566-3.5-2.392-11.639-2.254-11.985a.585.585,0,0,1,.736-.334l4.02,1.409a.583.583,0,0,1,.357.744.585.585,0,0,1-.744.357l-3.468-1.216c-.568,1.77-2.03,7.518,1.975,10.035.74.465,1.463.9,2.157,1.321.911.55,1.771,1.07,2.57,1.593,3.25,2.129,4.646,6.711,3.32,10.9a17.363,17.363,0,0,0,4.882,17.379.584.584,0,0,1,.032.825A.582.582,0,0,1-2266.992,184.934Z" transform="translate(2283.425 -141.369)"/></g><g transform="translate(5.003 3.607)"><path d="M-2258.073,153.406a1.222,1.222,0,0,1-.309-.038,1.363,1.363,0,0,1-.948-.933,45.371,45.371,0,0,1-1.28-6.468.584.584,0,0,1,.494-.661.58.58,0,0,1,.661.494,42.7,42.7,0,0,0,1.239,6.283.21.21,0,0,0,.124.154.1.1,0,0,0,.064-.008l1.461-2.76a.583.583,0,0,1,.137-.17c.049-.042,4.9-4.248,2.788-6.785-1.275-1.529-2.809-1.227-4.291-.934a10.7,10.7,0,0,1-1.14.184,7.325,7.325,0,0,1-2.413-.184c-.364-.093-.844-.519-1.719-1.381-.133-.13-.235-.233-.283-.273-.654-.5-.91-1.674-1.154-3.038-.034-.192-.064-.363-.094-.5-.055-.266-.109-.585-.167-.929-.182-1.091-.457-2.74-1.024-3.162-1.24-.921-3.1-1.923-3.641-1.865,0,.017,0,.038,0,.066a28.415,28.415,0,0,0,.877,2.8,6.721,6.721,0,0,1,1.047,3.118,8.615,8.615,0,0,0,.571,2.277.759.759,0,0,1-.058.723.715.715,0,0,1-.6.328,3.412,3.412,0,0,0-2.744,1.645,1.109,1.109,0,0,1-.681.456c-.6.116-2.049.128-5.14-1.084a.584.584,0,0,1-.331-.757.586.586,0,0,1,.757-.33c3,1.179,4.194,1.084,4.487,1.025a4.633,4.633,0,0,1,3.031-2.067,11.265,11.265,0,0,1-.448-2.041,5.688,5.688,0,0,0-.866-2.655,19.7,19.7,0,0,1-1.068-3.37,1.13,1.13,0,0,1,.554-1.155c1.314-.708,4.579,1.672,4.947,1.947.946.7,1.242,2.479,1.48,3.907.054.326.1.627.157.88.031.149.064.332.1.538a5.9,5.9,0,0,0,.724,2.323c.053.041.2.178.383.361a10.084,10.084,0,0,0,1.228,1.094,6.166,6.166,0,0,0,1.989.139,9.617,9.617,0,0,0,1.01-.166c1.56-.307,3.7-.727,5.414,1.333,2.693,3.229-2.1,7.688-2.841,8.344l-1.469,2.775a.6.6,0,0,1-.113.149A1.313,1.313,0,0,1-2258.073,153.406Z" transform="translate(2276.664 -129.281)"/></g><g transform="translate(17.419 16.057)"><path class="a" d="M-2257.8,148.563a.585.585,0,0,1-.52-.316,6.463,6.463,0,0,0-1.305-1.071.582.582,0,0,1-.16-.809.581.581,0,0,1,.809-.161,6.215,6.215,0,0,1,1.694,1.5.584.584,0,0,1-.251.786A.59.59,0,0,1-2257.8,148.563Z" transform="translate(2259.882 -146.108)"/></g><g transform="translate(0.129 12.55)"><path d="M-2278.31,143.313l-3.3-1.156s-.844,3.581-.854,3.642A6.5,6.5,0,0,0-2278.31,143.313Z" transform="translate(2283.045 -141.573)"/><path d="M-2282.666,146.178a.583.583,0,0,1-.424-.183.583.583,0,0,1-.153-.5c0-.024.014-.081.862-3.682a.581.581,0,0,1,.288-.378.582.582,0,0,1,.474-.038l3.3,1.156a.586.586,0,0,1,.365.38.586.586,0,0,1-.09.519,7.064,7.064,0,0,1-4.557,2.718A.6.6,0,0,1-2282.666,146.178Zm1.272-3.46c-.136.577-.339,1.439-.491,2.09a6.029,6.029,0,0,0,2.368-1.432Z" transform="translate(2283.25 -141.368)"/></g><g transform="translate(9.969)"><path d="M-2261.586,137.808s.583.359-2.326.7a26.091,26.091,0,0,0-2.638.573,10.318,10.318,0,0,0-2.508,1.064,4.046,4.046,0,0,1,3.324-2.048.162.162,0,0,0,.124-.235c-.853-1.929-3.517-2.931-3.553-5.116-.036-2.165,1.593-6.642,4.8-7.523,1.041-.286,1.065,1.717,1.085,2.45a20.687,20.687,0,0,0,.33,4.139c.458,1.985.5,4.165,1.358,6" transform="translate(2269.746 -124.611)"/><path d="M-2269.262,140.523a.587.587,0,0,1-.42-.178.586.586,0,0,1-.067-.73,4.844,4.844,0,0,1,3.11-2.237,9.3,9.3,0,0,0-1.276-1.389c-.989-.946-2.012-1.924-2.036-3.439-.039-2.379,1.676-7.118,5.231-8.1a1.143,1.143,0,0,1,1.019.173c.687.509.775,1.694.8,2.763l.017.713a16.41,16.41,0,0,0,.3,3.372c.161.695.272,1.414.38,2.109a14.253,14.253,0,0,0,.9,3.685.669.669,0,0,1,.126.555c-.108.49-.582.788-2.874,1.056a26.067,26.067,0,0,0-2.559.559,9.776,9.776,0,0,0-2.347,1A.584.584,0,0,1-2269.262,140.523Zm7.165-2.423h0Zm-2.3-12.534c-2.9.809-4.419,5.023-4.387,6.966.017,1.027.786,1.762,1.677,2.615a7.468,7.468,0,0,1,1.827,2.274.759.759,0,0,1,.044.49c.392-.084.767-.155,1.051-.188a12.905,12.905,0,0,0,1.688-.281,16.646,16.646,0,0,1-.857-3.678c-.105-.675-.213-1.372-.364-2.025a17.516,17.516,0,0,1-.329-3.611l-.016-.643C-2264.105,125.928-2264.31,125.626-2264.4,125.565Z" transform="translate(2269.952 -124.406)"/></g><g transform="translate(15.013 18.847)"><path class="a" d="M-2261.2,151.337a.574.574,0,0,1-.256-.059,1.861,1.861,0,0,0-.885-.226.6.6,0,0,1-.752-.335.563.563,0,0,1,.288-.735,2.54,2.54,0,0,1,1.864.249.584.584,0,0,1,.266.781A.584.584,0,0,1-2261.2,151.337Z" transform="translate(2263.135 -149.879)"/></g><g transform="translate(22.386 13.62)"><path d="M-2252.381,143.668c1.8,0,3.969-.353,6.3.6.868.354,1.618.369,2.158.667l2.6.58a.839.839,0,0,1,.274,1.326c-.649.753-5.742,2.358-7.868,5.914Z" transform="translate(2252.965 -143.02)"/><path d="M-2249.124,153.13h-.051a.585.585,0,0,1-.495-.374l-3.462-9.084a.582.582,0,0,1,.065-.539.584.584,0,0,1,.48-.253c.362,0,.739-.015,1.129-.03a12.172,12.172,0,0,1,5.39.67,7,7,0,0,0,1.079.319,4.739,4.739,0,0,1,1.061.336l2.524.564a.517.517,0,0,1,.1.031,1.367,1.367,0,0,1,.808.96,1.46,1.46,0,0,1-.317,1.284,6.167,6.167,0,0,1-1.7,1.043c-1.756.9-4.694,2.415-6.112,4.788A.584.584,0,0,1-2249.124,153.13Zm-2.622-9.1,2.774,7.28a17.978,17.978,0,0,1,5.927-4.29,8.924,8.924,0,0,0,1.347-.767.29.29,0,0,0,.064-.254.224.224,0,0,0-.092-.136l-2.532-.565a.561.561,0,0,1-.155-.059,3.529,3.529,0,0,0-.842-.263,7.937,7.937,0,0,1-1.255-.374,11.248,11.248,0,0,0-4.9-.585Z" transform="translate(2253.17 -142.814)"/></g><g transform="translate(28.316 32.75)"><path class="d" d="M-2245.154,169.548s5.071-3.528,9.642,3.557C-2235.512,173.105-2243.01,176.533-2245.154,169.548Z" transform="translate(2245.154 -168.67)"/></g><g transform="translate(29.028 21.91)"><path class="d" d="M-2237.908,154.019s-5.845.525-6.284,9.472C-2244.192,163.491-2236.391,161.237-2237.908,154.019Z" transform="translate(2244.192 -154.019)"/></g><g transform="translate(28.097 21.808)"><path d="M-2245.363,164.669l-.052-.844c-.267-4.324,1.1-6.754,2.3-8.031a6.233,6.233,0,0,1,2.8-1.787l.522-.127.169.509c2.2,6.6-4.892,9.9-4.964,9.931Zm4.8-9.332c-1.148.525-3.748,2.289-3.715,7.491C-2242.733,161.889-2239.56,159.412-2240.567,155.337Z" transform="translate(2245.449 -153.881)"/></g><g transform="translate(9.531 31.718)"><path class="d" d="M-2250.937,169.289c.39-3.469-4.987-1.486-6.147-1.111-3.362,1.088-6.7,2.166-10.1,3.082-1.049.283-2.129.155-2.9,1.29-.913,1.343-.418,4.052,1.182,3.582,4.24-1.244,8.578-2.2,12.764-3.742C-2254.834,171.952-2251.181,171.464-2250.937,169.289Z" transform="translate(2270.543 -167.275)"/></g><g transform="translate(10.43 30.575)"><path d="M-2267.659,174.25a1.514,1.514,0,0,1-1.274-.688,2.849,2.849,0,0,1,.143-3.11,3.186,3.186,0,0,1,2.26-1.159c.206-.036.414-.073.621-.127,3.018-.794,6-1.722,8.884-2.619l.194-.061c1.922-.616,4.274-1.2,5.389-.263a1.788,1.788,0,0,1,.552,1.727h0c-.252,1.806-2.662,2.417-4.256,2.822-.3.075-.555.14-.752.2-2.468.866-5.035,1.54-7.518,2.192-1.255.329-2.509.659-3.754,1.013A1.788,1.788,0,0,1-2267.659,174.25Zm14.545-7.361a11.911,11.911,0,0,0-3.361.707l-.2.064c-2.9.9-5.89,1.833-8.933,2.633-.238.063-.477.106-.713.148a2.1,2.1,0,0,0-1.534.715,1.7,1.7,0,0,0-.11,1.745.373.373,0,0,0,.48.154c1.253-.356,2.514-.687,3.778-1.019,2.46-.646,5-1.314,7.442-2.169.23-.075.513-.146.836-.229,1.213-.309,3.244-.823,3.388-1.853h0c.068-.489-.095-.627-.149-.672A1.414,1.414,0,0,0-2253.114,166.889Z" transform="translate(2269.328 -165.73)"/></g><g transform="translate(27.654 30.918)"><path d="M-2240.279,172.078a6.187,6.187,0,0,1-2.539-.506,5.8,5.8,0,0,1-3.106-3.839l-.125-.407.35-.243a5.853,5.853,0,0,1,4.2-.782c1.961.386,3.723,1.774,5.239,4.124l.366.566-.613.281A10.038,10.038,0,0,1-2240.279,172.078Zm-4.377-4.242a4.483,4.483,0,0,0,2.311,2.669,6.867,6.867,0,0,0,4.7-.048,6.873,6.873,0,0,0-4.055-3.007A4.75,4.75,0,0,0-2244.656,167.836Z" transform="translate(2246.049 -166.194)"/></g></g><g transform="translate(13.781 52.62)"><path d="M-2260.642,235.452a3.686,3.686,0,0,1-1.667-.448,3.722,3.722,0,0,1-2.163-2.788,2.1,2.1,0,0,1,1.166-1.91,5.248,5.248,0,0,0,2.54-3,4.093,4.093,0,0,1,.467-.965c.314-.432.908-3.025-.105-9.74-.9-5.952-4.343-20.209-4.378-20.352a.585.585,0,0,1,.43-.705.583.583,0,0,1,.7.431c.035.144,3.492,14.451,4.4,20.453.806,5.34.766,9.4-.1,10.6a3.281,3.281,0,0,0-.322.7,6.408,6.408,0,0,1-3.023,3.582c-.623.379-.611.75-.607.872a2.612,2.612,0,0,0,1.534,1.793,1.791,1.791,0,0,0,1.626.2,41.161,41.161,0,0,1,4-2.237.583.583,0,0,1,.779.27.583.583,0,0,1-.271.779,41.2,41.2,0,0,0-3.868,2.161A2.04,2.04,0,0,1-2260.642,235.452Z" transform="translate(2264.799 -195.526)"/></g><g transform="translate(22.671 54.947)"><path d="M-2250.251,236.287a2.33,2.33,0,0,1-1.961-.952c-.817-1.114-.755-3.1.167-5.312a15.113,15.113,0,0,0,1.463-5.7l.05-.462c.285-2.649-1.535-16.487-1.554-16.626a.583.583,0,0,1,.5-.655.579.579,0,0,1,.655.5c.076.575,1.856,14.118,1.556,16.9l-.049.461a16.118,16.118,0,0,1-1.547,6.023c-.74,1.776-.859,3.415-.3,4.174a1.327,1.327,0,0,0,1.3.463,6.7,6.7,0,0,0,3.634-1.487c1.235-.885,1.994-3.413,2.1-5.451a3.769,3.769,0,0,0-.392-2.435.586.586,0,0,1-.132-.7c.036-.07,3.46-7.12,1.378-17.767-.008-.037-.966-4.595-1.433-7.937a.583.583,0,0,1,.5-.659.584.584,0,0,1,.659.5c.462,3.3,1.411,7.822,1.421,7.868,1.927,9.851-.627,16.6-1.319,18.177a5.756,5.756,0,0,1,.486,3.016c-.126,2.32-.976,5.18-2.59,6.336a7.616,7.616,0,0,1-4.281,1.7C-2250.048,236.283-2250.151,236.287-2250.251,236.287Z" transform="translate(2252.784 -198.671)"/></g><g transform="translate(25.848 29.103)"><path d="M-2232.112,227.93a23.079,23.079,0,0,1-4.312-.289,1.409,1.409,0,0,1-1.018-1.033,4.194,4.194,0,0,1,1.436-3.7,7.915,7.915,0,0,1,5.563-2.151,15.5,15.5,0,0,1-6.477-7.345,13.326,13.326,0,0,1,1.834-12.892,4.979,4.979,0,0,1,4.984-1.958c.24.064,5.555,1.525,7.667,4.982a.584.584,0,0,1-.194.8.585.585,0,0,1-.8-.194c-1.872-3.065-6.908-4.446-6.959-4.459a3.982,3.982,0,0,0-3.812,1.589,12.082,12.082,0,0,0-1.637,11.692c2.533,6.246,9.227,8.3,9.294,8.317a.583.583,0,0,1,.394.72.583.583,0,0,1-.715.4c-4.949-1.37-7.463.467-8.315,1.319a3.169,3.169,0,0,0-1.137,2.564c.051.183.135.2.175.213,2.057.512,15.027.556,18.021-2.962,3.545-4.166-.048-21.937-5.07-30.386-4.3-7.233-11.533-13.049-15.463-15.873a27.239,27.239,0,0,1-5.259-4.938c-2.741-3.373-4.278-6.044-4.568-7.938a.583.583,0,0,1,.488-.664.584.584,0,0,1,.665.488c.255,1.662,1.748,4.214,4.319,7.378a26.079,26.079,0,0,0,5.034,4.726c4.005,2.877,11.38,8.808,15.787,16.225,5.9,9.921,8.628,27.421,4.955,31.737-1.885,2.216-6.562,3.079-10.154,3.412C-2229.062,227.869-2230.693,227.93-2232.112,227.93Z" transform="translate(2248.49 -163.741)"/></g><g transform="translate(57.035 51.582)"><path d="M-2203.347,225.2a7.309,7.309,0,0,1-1.96-.269.582.582,0,0,1-.406-.718.582.582,0,0,1,.718-.406c2.183.6,4.387.019,6.555-1.739,4.64-3.765,7.549-11.585,7.255-16.25-.229-3.665-1.919-8.138-4.671-10.028a31.61,31.61,0,0,1,.534,6.615c.777,14.349-10.272,15.466-10.383,15.476a.582.582,0,0,1-.63-.53.583.583,0,0,1,.529-.632c.41-.037,10.035-1.057,9.32-14.311a34.832,34.832,0,0,0-.719-7.607.584.584,0,0,1,.212-.554.584.584,0,0,1,.588-.083c4.265,1.776,6.156,7.9,6.386,11.581.31,4.948-2.769,13.242-7.685,17.23A8.971,8.971,0,0,1-2203.347,225.2Z" transform="translate(2206.338 -194.123)"/></g><g transform="translate(31.159 85.941)"><path d="M-2235.122,243.316a9.829,9.829,0,0,1-5.964-1.711.583.583,0,0,1-.1-.818.583.583,0,0,1,.818-.1c2.76,2.143,7.424,1.295,7.471,1.287a.582.582,0,0,1,.681.465.583.583,0,0,1-.464.681A14.123,14.123,0,0,1-2235.122,243.316Z" transform="translate(2241.312 -240.562)"/></g><g transform="translate(30.17 38.285)"><path d="M-2240.326,177.008s-2.9,3.547-.526,9.128c3.318,7.815,6.24,9.109,7.938,10.719,2.666,2.527,11.977,7.421,12.825,1.893C-2220.088,198.748-2227.737,185.586-2240.326,177.008Z" transform="translate(2242.424 -176.374)"/><path d="M-2223.426,201.685c-3.447,0-8.253-2.8-10.148-4.593-.279-.265-.595-.522-.96-.819-1.722-1.4-4.324-3.517-7.124-10.112-2.491-5.865.489-9.62.618-9.777a.633.633,0,0,1,.847-.123c12.562,8.561,20.351,21.813,20.428,21.946a.635.635,0,0,1,.078.414,3.275,3.275,0,0,1-2.2,2.832A4.741,4.741,0,0,1-2223.426,201.685Zm-16.956-24.014c-.636,1.092-1.831,3.947-.112,7.994,2.678,6.307,5.036,8.225,6.758,9.625.37.3.718.585,1.033.883,2.081,1.973,7.768,4.982,10.4,4.083a1.98,1.98,0,0,0,1.323-1.609C-2221.976,197-2229.2,185.5-2240.382,177.671Z" transform="translate(2242.649 -176.151)"/></g></g><g transform="translate(-2238.802 19.745)"><path d="M-2189.224,27.6a12.656,12.656,0,0,0-3.164-3.113c-.623-.475-1.2-.874-1.569-1.125-.722-.488-.743-.488-.832-.488s-.109,0-.831.485c-.372.25-.947.648-1.571,1.122a12.629,12.629,0,0,0-3.172,3.118,4.951,4.951,0,0,0-.736,2.694,3.549,3.549,0,0,0,3.662,3.748,3.349,3.349,0,0,0,1.792-.464l-.482,1.825h2.649l-.488-1.844a3.323,3.323,0,0,0,1.819.482,3.548,3.548,0,0,0,3.659-3.748A4.951,4.951,0,0,0-2189.224,27.6Z" transform="translate(2201.098 -22.871)"/></g><g transform="translate(-2346.048 37.769)"><path class="e" d="M-2345.813,103.756s7.164-7.981,10.37-11.352c2.477-2.6,10.989-8.974,14.733-11.736a5.79,5.79,0,0,0,2.234-3.488c.767-3.7,2.432-11.482,4.211-18.153,2.434-9.125,2.251-11.345,2.251-11.345-1.233-2.96-4.933,9.618-4.933,9.618-1.307,4.372-2.613,8.746-4,13.092-2.048,6.4-7.45,7.647-12.789,10.893-4.13,2.51-8.228,5.076-12.31,7.662Z" transform="translate(2346.048 -47.232)"/><g transform="translate(2.094 26.896)"><path d="M-2342.811,102.025l-.407-.619c.394-.258,9.658-6.347,11.609-7.183a57.11,57.11,0,0,0,10.16-6.873,3.407,3.407,0,0,0,1.032-3.5l.689-.269a4.1,4.1,0,0,1-1.2,4.29,57.071,57.071,0,0,1-10.392,7.03C-2333.208,95.714-2342.715,101.963-2342.811,102.025Z" transform="translate(2343.218 -83.584)"/></g><g transform="translate(2.463 15.947)"><path d="M-2342.31,100.857l-.409-.617c.539-.357,13.219-8.762,15.2-9.778a35.47,35.47,0,0,0,6.161-3.919,9.861,9.861,0,0,0,3.187-4.913,26.237,26.237,0,0,0,1.036-6.174c.056-.636.112-1.266.18-1.884q.263-2.394.507-4.788l.736.075q-.245,2.4-.508,4.8c-.067.613-.122,1.238-.178,1.867a26.8,26.8,0,0,1-1.074,6.35,10.714,10.714,0,0,1-3.422,5.248,36.143,36.143,0,0,1-6.288,4C-2329.126,92.118-2342.179,100.77-2342.31,100.857Z" transform="translate(2342.719 -68.785)"/></g><g transform="translate(1.184 0.432)"><path d="M-2343.5,105.265l-.826-.741c.071-.081,7.206-8.026,10.381-11.365,2.521-2.651,11.194-9.135,14.806-11.8a5.237,5.237,0,0,0,2.02-3.154c.82-3.956,2.457-11.581,4.219-18.183,2.025-7.592,2.219-10.371,2.234-11.009-.869.783-2.627,5.431-3.847,9.583l-.034.114c-1.275,4.265-2.593,8.676-3.973,12.99-1.652,5.161-5.44,7.137-9.449,9.229-1.171.61-2.382,1.242-3.58,1.97-3.671,2.232-7.579,4.665-12.3,7.657l-.594-.938c4.727-3,8.641-5.431,12.318-7.667,1.23-.748,2.457-1.388,3.644-2.007,3.967-2.069,7.392-3.856,8.905-8.583,1.377-4.3,2.693-8.709,3.967-12.969l.033-.112c1.389-4.725,3.378-10.379,4.951-10.464.257-.01.725.072,1.025.791l.041.168c.007.095.163,2.419-2.269,11.533-1.754,6.576-3.387,14.177-4.2,18.123a6.342,6.342,0,0,1-2.448,3.821c-3.588,2.647-12.2,9.084-14.66,11.671C-2336.308,97.251-2343.432,105.186-2343.5,105.265Z" transform="translate(2344.448 -47.816)"/></g></g><g transform="translate(-2341.194 158.31)"><g transform="translate(2.214 1.512)"><path class="e" d="M-2336.5,261.65s2.838-6.266,4.628-10.56c1.385-3.318,3.778-13.675,4.794-18.216a5.789,5.789,0,0,1,2.29-3.451c3.08-2.2,9.525-6.858,14.911-11.177,7.367-5.909,9.472-6.637,9.472-6.637,3.206-.066-6.811,8.393-6.811,8.393-3.473,2.96-6.948,5.92-10.364,8.946-5.029,4.455-3.992,9.9-4.808,16.1-.632,4.791-1.325,9.576-2.045,14.354Z" transform="translate(2336.495 -211.609)"/></g><g transform="translate(9.96 19.913)"><path d="M-2325.3,265.165l-.73-.123c.019-.113,1.9-11.333,1.879-13.39a57.085,57.085,0,0,1,2.24-12.345,4.106,4.106,0,0,1,3.443-2.828l.033.739a3.384,3.384,0,0,0-2.786,2.357,57.2,57.2,0,0,0-2.19,12.07C-2323.385,253.766-2325.218,264.7-2325.3,265.165Z" transform="translate(2326.026 -236.48)"/></g><g transform="translate(7.357 11.968)"><path d="M-2328.814,263.116l-.729-.125c.027-.155,2.677-15.59,2.8-17.773a36.254,36.254,0,0,1,1.124-7.369,10.724,10.724,0,0,1,3.422-5.248,26.844,26.844,0,0,1,5.379-3.546c.553-.3,1.1-.606,1.635-.914q2.086-1.209,4.182-2.4l.365.643q-2.093,1.189-4.177,2.4c-.537.311-1.092.616-1.649.923a26.257,26.257,0,0,0-5.232,3.441,9.858,9.858,0,0,0-3.21,4.9,35.441,35.441,0,0,0-1.1,7.22C-2326.13,247.486-2328.7,262.479-2328.814,263.116Z" transform="translate(2329.544 -225.742)"/></g><path d="M-2338.477,260.858l-1.011-.458c.031-.067,3.063-6.774,4.831-11.012,1.374-3.292,3.79-13.771,4.765-18.123a6.34,6.34,0,0,1,2.509-3.782c3.284-2.342,9.583-6.905,14.886-11.158,7.357-5.9,9.549-6.7,9.638-6.729l.17-.03c.783.016,1.047.382,1.137.619.557,1.474-3.814,5.574-7.579,8.754l-.222.189c-3.34,2.847-6.793,5.79-10.131,8.748-3.715,3.291-3.967,7.146-4.26,11.611-.087,1.335-.177,2.716-.365,4.143-.559,4.241-1.209,8.8-2.046,14.365l-1.1-.165c.836-5.553,1.486-10.111,2.043-14.344.183-1.391.272-2.753.359-4.071.3-4.513.576-8.776,4.631-12.369,3.346-2.965,6.8-5.912,10.148-8.762l.224-.191c3.308-2.795,6.853-6.278,7.218-7.388-.567.266-3.031,1.561-9.172,6.487-5.324,4.27-11.643,8.847-14.936,11.2a5.232,5.232,0,0,0-2.07,3.121c-.982,4.381-3.417,14.934-4.823,18.308C-2335.407,254.068-2338.446,260.79-2338.477,260.858Z" transform="translate(2339.488 -209.566)"/></g><g transform="translate(-2344.864 58.989)"><g transform="translate(0.297)"><path class="e" d="M-2343.812,128.986s7.164-7.981,10.371-11.353a68.212,68.212,0,0,1,7.964-6.64c2.61-2.012,6.865-4.068,8.444-7.036.966-1.816,1.88-3.653,2.88-5.451a2.264,2.264,0,0,1,2.664-1.067c1.542.042,5.4.178,6.648-1.1,1.136-1.167-.271-2.112-1.394-2.272-.774-.11-7.193,1.042-7.106.169a58.921,58.921,0,0,1,2.467-9.742c1.11-2.836,2.6-6.941,2.6-6.941a1.33,1.33,0,0,0-2.152-1.45c-2.892,2.861-5.12,11.36-5.12,11.36-1.307,4.372-2.126,7.306-4.74,11.046-3.08,4.407-6.111,4.764-11.449,8.011q-6.2,3.766-12.31,7.661Z" transform="translate(2344.047 -75.719)"/></g><g transform="translate(0.91 23.466)"><path d="M-2342.811,125.876l-.407-.619c.394-.259,9.658-6.347,11.609-7.183a57.178,57.178,0,0,0,10.16-6.873,3.407,3.407,0,0,0,1.032-3.5l.689-.269a4.1,4.1,0,0,1-1.2,4.29,57.089,57.089,0,0,1-10.392,7.031C-2333.208,119.566-2342.715,125.814-2342.811,125.876Z" transform="translate(2343.218 -107.435)"/></g><g transform="translate(1.279 8.131)"><path d="M-2342.31,123.167l-.409-.617c.539-.357,13.219-8.763,15.2-9.778a35.4,35.4,0,0,0,6.161-3.918,10.283,10.283,0,0,0,3.189-4.92,62.6,62.6,0,0,0,3.917-16.546l.072-.678.736.081-.071.673a63.342,63.342,0,0,1-3.96,16.726,10.94,10.94,0,0,1-3.418,5.241,36.182,36.182,0,0,1-6.289,4C-2329.126,114.427-2342.179,123.079-2342.31,123.167Z" transform="translate(2342.719 -86.709)"/></g><g transform="translate(0 0.259)"><path d="M-2343.5,130.261l-.826-.741c.071-.08,7.206-8.026,10.381-11.364a55.224,55.224,0,0,1,6.681-5.668q.678-.516,1.347-1.029c.747-.576,1.607-1.143,2.518-1.743,2.206-1.455,4.7-3.1,5.775-5.115.361-.679.716-1.361,1.069-2.042.583-1.125,1.186-2.286,1.815-3.418a2.786,2.786,0,0,1,3.239-1.351h.03c1.39.041,5.08.141,6.131-.937.216-.223.3-.416.246-.573a1.752,1.752,0,0,0-1.32-.762,19.841,19.841,0,0,0-1.979.181c-3.541.406-4.885.462-5.386-.031a.709.709,0,0,1-.214-.587,58.513,58.513,0,0,1,2.5-9.888c1.094-2.8,2.58-6.887,2.595-6.927a.767.767,0,0,0-.3-.95.718.718,0,0,0-.936.084c-2.751,2.721-4.952,11.022-4.973,11.106l-.146.488c-1.223,4.1-2.106,7.057-4.677,10.735-2.243,3.208-4.534,4.384-7.437,5.873-1.222.627-2.608,1.338-4.179,2.294-3.646,2.216-7.555,4.649-12.3,7.656l-.594-.937c4.752-3.011,8.666-5.448,12.318-7.667,1.605-.976,3.01-1.7,4.25-2.333,2.872-1.474,4.948-2.539,7.033-5.522,2.467-3.53,3.286-6.27,4.523-10.416l.141-.471c.087-.334,2.295-8.662,5.261-11.6a1.82,1.82,0,0,1,2.326-.222,1.857,1.857,0,0,1,.732,2.268c-.01.029-1.5,4.131-2.6,6.942a59.679,59.679,0,0,0-2.392,9.291,28,28,0,0,0,4.331-.292,13.144,13.144,0,0,1,2.262-.177,2.744,2.744,0,0,1,2.214,1.5,1.619,1.619,0,0,1-.5,1.707c-1.225,1.256-4.2,1.347-6.956,1.273l-.263-.031a1.685,1.685,0,0,0-2.005.81c-.621,1.118-1.22,2.272-1.8,3.389-.355.686-.711,1.371-1.074,2.054-1.2,2.26-3.828,3.992-6.144,5.519-.893.588-1.736,1.145-2.451,1.7q-.671.516-1.352,1.033a54.4,54.4,0,0,0-6.549,5.55C-2336.308,122.248-2343.432,130.182-2343.5,130.261Z" transform="translate(2344.448 -76.068)"/></g></g><g transform="translate(-2344.005 169.857)"><g transform="translate(1.184 0.554)"><path class="e" d="M-2341.687,265.312s7.982-7.164,11.353-10.371a68.22,68.22,0,0,0,6.64-7.964c2.012-2.61,4.069-6.865,7.036-8.444,1.816-.966,3.653-1.88,5.451-2.88a2.264,2.264,0,0,0,1.067-2.664c-.041-1.543-.177-5.4,1.1-6.648,1.167-1.136,2.113.271,2.272,1.394.11.775-1.041,7.193-.169,7.106a58.86,58.86,0,0,0,9.742-2.467c2.836-1.11,6.941-2.6,6.941-2.6a1.33,1.33,0,0,1,1.45,2.152c-2.86,2.892-11.36,5.12-11.36,5.12-4.372,1.307-7.306,2.126-11.046,4.74-4.407,3.08-4.765,6.111-8.011,11.45q-3.766,6.2-7.662,12.309Z" transform="translate(2341.687 -225.922)"/></g><g transform="translate(12.543 15.888)"><path d="M-2325.715,270.324l-.619-.406c.064-.1,6.311-9.6,7.121-11.493a57.12,57.12,0,0,1,7.03-10.392,4.1,4.1,0,0,1,4.291-1.2l-.269.69.135-.345-.133.346a3.384,3.384,0,0,0-3.5,1.031,57.217,57.217,0,0,0-6.874,10.161C-2319.368,260.665-2325.456,269.931-2325.715,270.324Z" transform="translate(2326.334 -246.647)"/></g><g transform="translate(9.863 9.918)"><path d="M-2329.341,267.857l-.616-.409c.086-.131,8.74-13.184,9.735-15.131a36.136,36.136,0,0,1,4-6.288,10.929,10.929,0,0,1,5.241-3.419,63.352,63.352,0,0,1,16.724-3.96l.674-.071.082.735-.679.072a62.631,62.631,0,0,0-16.545,3.918,10.284,10.284,0,0,0-4.92,3.189,35.453,35.453,0,0,0-3.918,6.161C-2320.578,254.637-2328.983,267.318-2329.341,267.857Z" transform="translate(2329.957 -238.578)"/></g><g transform="translate(0)"><path d="M-2327.64,265.65l-.937-.594c3-4.737,5.434-8.646,7.656-12.3.955-1.571,1.666-2.956,2.293-4.179,1.489-2.9,2.665-5.195,5.874-7.437,3.679-2.571,6.641-3.455,10.739-4.679l.467-.139c.1-.027,8.4-2.228,11.124-4.979a.718.718,0,0,0,.083-.936.764.764,0,0,0-.937-.309c-.053.02-4.143,1.5-6.94,2.6a58.4,58.4,0,0,1-9.889,2.5.689.689,0,0,1-.587-.215c-.493-.5-.437-1.847-.031-5.387.091-.792.2-1.779.181-1.98a1.75,1.75,0,0,0-.761-1.318c-.158-.051-.351.028-.574.246-1.079,1.05-.977,4.74-.938,6.13v.03a2.785,2.785,0,0,1-1.351,3.238c-1.135.631-2.3,1.236-3.427,1.821-.678.352-1.358.7-2.033,1.064-2.012,1.07-3.659,3.569-5.114,5.774-.6.912-1.167,1.772-1.744,2.519q-.515.667-1.03,1.347a55.306,55.306,0,0,1-5.667,6.68c-3.338,3.175-11.284,10.31-11.364,10.381l-.742-.826c.08-.072,8.014-7.195,11.34-10.359a54.454,54.454,0,0,0,5.549-6.549q.518-.681,1.034-1.353c.551-.715,1.107-1.559,1.7-2.452,1.526-2.316,3.257-4.941,5.519-6.144.679-.361,1.362-.715,2.043-1.069,1.121-.581,2.279-1.183,3.4-1.8a1.686,1.686,0,0,0,.809-2l-.03-.265c-.076-2.752.016-5.731,1.272-6.955a1.614,1.614,0,0,1,1.706-.5,2.744,2.744,0,0,1,1.5,2.214,13.429,13.429,0,0,1-.177,2.261,28.1,28.1,0,0,0-.292,4.332,59.987,59.987,0,0,0,9.292-2.392c2.81-1.1,6.913-2.59,6.953-2.605a1.854,1.854,0,0,1,2.257.738,1.82,1.82,0,0,1-.223,2.326c-2.934,2.966-11.26,5.174-11.613,5.266l-.448.135c-4.149,1.238-6.889,2.056-10.421,4.524-2.984,2.085-4.049,4.161-5.523,7.035-.636,1.239-1.355,2.643-2.332,4.248C-2322.2,256.993-2324.635,260.907-2327.64,265.65Z" transform="translate(2343.287 -225.173)"/></g></g><g transform="translate(-2346.047 10.853)"><path d="M-2218.048,210.853h-128v-200h128Zm-125.04-2.966h122.08V13.819h-122.08Z" transform="translate(2346.047 -10.853)"/></g><g transform="translate(-2310.53 62.466)"><path d="M-2295.053,91.247a12.667,12.667,0,0,0,4.39.649c.783.016,1.483,0,1.931-.016.871-.031.888-.044.959-.1s.088-.064.385-.882c.153-.422.383-1.082.607-1.832a12.618,12.618,0,0,0,.724-4.389,4.944,4.944,0,0,0-.994-2.609,3.548,3.548,0,0,0-5.167-.869,3.354,3.354,0,0,0-1.174,1.431l-.686-1.759-2.14,1.562,1.48,1.2a3.324,3.324,0,0,0-1.754.682,3.548,3.548,0,0,0-.746,5.185A4.948,4.948,0,0,0-2295.053,91.247Z" transform="translate(2298.043 -80.452)"/></g><g transform="translate(-2238.802 19.745)"><path d="M-2189.224,27.6a12.656,12.656,0,0,0-3.164-3.113c-.623-.475-1.2-.874-1.569-1.125-.722-.488-.743-.488-.832-.488s-.109,0-.831.485c-.372.25-.947.648-1.571,1.122a12.629,12.629,0,0,0-3.172,3.118,4.951,4.951,0,0,0-.736,2.694,3.549,3.549,0,0,0,3.662,3.748,3.349,3.349,0,0,0,1.792-.464l-.482,1.825h2.649l-.488-1.844a3.323,3.323,0,0,0,1.819.482,3.548,3.548,0,0,0,3.659-3.748A4.951,4.951,0,0,0-2189.224,27.6Z" transform="translate(2201.098 -22.871)"/></g></g></svg>