<svg xmlns="http://www.w3.org/2000/svg" width="128" height="200" viewBox="0 0 128 200"><defs><style>.a{fill:#fff;}.b{fill:#170000;}.c{fill:#231815;}.d{fill:#c21823;}.e{fill:#ffb4c0;}.f{fill:#b28247;}</style></defs><rect class="a" width="125.031" height="197.031" transform="translate(1.484 1.484)"/><path d="M138.88,210.85h-128v-200h128ZM13.84,207.884H135.92V13.816H13.84Z" transform="translate(-10.88 -10.85)"/><path class="b" d="M32.937,26.091a3.474,3.474,0,0,1,1.284,1.566,5.745,5.745,0,0,1,.43,2.227,7.734,7.734,0,0,1-.839,3.585,7.578,7.578,0,0,1-2.182,2.642,6.465,6.465,0,0,1-2.85,1.277l-.3-.623A6.146,6.146,0,0,0,31.3,34.931a6.791,6.791,0,0,0,1.484-2.969A3.288,3.288,0,0,1,30.376,33a3.57,3.57,0,0,1-1.811-.445A3.028,3.028,0,0,1,27.378,31.3,4.1,4.1,0,0,1,27,29.446a4.164,4.164,0,0,1,.468-1.952,3.711,3.711,0,0,1,1.351-1.432,3.845,3.845,0,0,1,2.071-.542,3.711,3.711,0,0,1,2.049.572Zm-.868,5.641a2.048,2.048,0,0,0,.868-.809l.045-.683a7.081,7.081,0,0,0-.49-2.88,1.93,1.93,0,0,0-2.917-.661,2.486,2.486,0,0,0-.742,1.069,3.882,3.882,0,0,0-.238,1.381,3.711,3.711,0,0,0,.557,2.227,1.8,1.8,0,0,0,1.484.742,2.694,2.694,0,0,0,1.462-.386Z" transform="translate(-15.035 -14.631)"/><path d="M167.737,27.613a12.655,12.655,0,0,0-3.177-3.125c-.623-.475-1.2-.876-1.573-1.128-.742-.49-.742-.49-.839-.49s-.1,0-.831.49c-.371.252-.95.646-1.573,1.121a12.721,12.721,0,0,0-3.184,3.132,4.936,4.936,0,0,0-.742,2.7A3.555,3.555,0,0,0,159.5,34.1a3.384,3.384,0,0,0,1.8-.46l-.482,1.826h2.657l-.49-1.848a3.3,3.3,0,0,0,1.826.482,3.555,3.555,0,0,0,3.667-3.756A5.017,5.017,0,0,0,167.737,27.613Z" transform="translate(-48.644 -13.949)"/><path class="c" d="M131.413,118.656,128.9,116.14l-2.227,2.442A6.873,6.873,0,0,0,131.413,118.656Z" transform="translate(-41.009 -38.07)"/><path class="c" d="M129.024,119.42a7.779,7.779,0,0,1-2.791-.52.557.557,0,0,1-.319-.371.527.527,0,0,1,.1-.475s.045-.067,2.271-2.486a.542.542,0,0,1,.4-.178.49.49,0,0,1,.4.163l2.524,2.524a.564.564,0,0,1,.148.5.549.549,0,0,1-.341.4A6.532,6.532,0,0,1,129.024,119.42Zm-1.566-1.3a6.494,6.494,0,0,0,2.7.074l-1.44-1.484C128.37,117.126,127.851,117.683,127.457,118.121Z" transform="translate(-40.81 -37.877)"/><path class="b" d="M92.22,193.569c-4.891,0-5.581-1.047-6.346-2.227l-.134-.2c-.675-.995-1.061-2.523-.3-3.533s2.316-1.136,4.617-.364c3.711,1.247,5.2-.5,5.552-1.076a25.339,25.339,0,0,1-1.024-5.886c-.186-4.372,1.217-7.288,4.052-8.432a25.422,25.422,0,0,1,7.986-1.655,27.619,27.619,0,0,1,2.9.089,13.809,13.809,0,0,0,4.186-.074.571.571,0,1,1,.423,1.061,13.917,13.917,0,0,1-4.661.148,27.287,27.287,0,0,0-2.761-.089,24.344,24.344,0,0,0-7.66,1.625c-2.4.965-3.526,3.436-3.355,7.348a24.791,24.791,0,0,0,1.039,5.819.571.571,0,0,1,0,.4c0,.037-1.685,3.637-7.021,1.848-1.722-.579-2.969-.586-3.377,0a2.117,2.117,0,0,0,.334,2.227l.141.215c.861,1.291,1.752,2.635,16.4.787,15.149-1.908,21.368-18.147,21.435-18.31a.5.5,0,0,1,.141-.208,39,39,0,0,0,11.7-35.819.557.557,0,0,1,.178-.564,5.841,5.841,0,0,0,1.529-3.021.564.564,0,0,1,.319-.423,5.841,5.841,0,0,1,4.713.438,12.617,12.617,0,0,1,2.969,2.516,8.483,8.483,0,0,0,1.856,1.625,1.617,1.617,0,0,0,.134-.542,24.76,24.76,0,0,0-.045-5.938,3.926,3.926,0,0,0-2.048-2.368c-2.679-1.306-6.68.067-6.68.082a.557.557,0,0,1-.742-.408,22.439,22.439,0,0,0-1.024-3.778,22.839,22.839,0,0,0-3.169-4.082.534.534,0,0,1-.171-.423.549.549,0,0,1,.193-.408,14.286,14.286,0,0,0,3.34-5.812,8.439,8.439,0,0,0-.067-6.316c-2.13.453-6.68,1.722-7.712,3.407-1.091,1.818-.453,6.012-.119,7.481a.52.52,0,0,1-.126.49.534.534,0,0,1-.475.186c-2.427-.26-2.969,2.271-2.969,2.383a.572.572,0,0,1-.393.423.579.579,0,0,1-.557-.148l-6.806-6.992a6.644,6.644,0,0,0-3.177,6.509,8.075,8.075,0,0,0,1.291,3.874,13.284,13.284,0,0,0,1.329,1.611,11.683,11.683,0,0,1,1.766,2.293c2.093,3.874.957,5.255-1.017,6.91s-8.565,2.063-9.3,2.093h-.074a.549.549,0,0,1-.512-.557.542.542,0,0,1,.186-.408c.082-.2.341-1.1.445-4.55a1.484,1.484,0,0,0-.46-1.21c-1.277-1.254-5.144-1.2-7.934-1.054-5.418.282-8.662,2.872-8.617,4.186a2.345,2.345,0,0,0,1.017,2.123c1.974,1.2,6.465-.482,8.023-1.239a.557.557,0,1,1,.482,1c-.252.126-6.2,2.969-9.085,1.195a3.429,3.429,0,0,1-1.551-3.043c-.067-2.279,4.052-5.047,9.649-5.336,4.906-.252,7.526.156,8.773,1.373a2.62,2.62,0,0,1,.794,2.034,27.4,27.4,0,0,1-.356,4.32c2.3-.178,6.5-.742,7.778-1.774,1.6-1.351,2.575-2.167.742-5.537a10.613,10.613,0,0,0-1.6-2.071,14.509,14.509,0,0,1-1.44-1.744,9.337,9.337,0,0,1-1.484-4.453,7.7,7.7,0,0,1,4.06-7.719l.119-.052a.557.557,0,0,1,.631.119l6.45,6.628a3.748,3.748,0,0,1,3.169-2.353c-.3-1.6-.854-5.544.386-7.6,1.536-2.553,8.12-3.867,8.862-4.015a.557.557,0,0,1,.579.252c.074.126,1.893,3.088.349,7.608a16.729,16.729,0,0,1-3.251,5.878,24.946,24.946,0,0,1,2.969,3.9,18.073,18.073,0,0,1,1.039,3.54c1.314-.364,4.52-1.047,6.969.148a5.092,5.092,0,0,1,2.635,3.065v.089a26.1,26.1,0,0,1,.052,6.316c-.037.312-.156,1.239-.868,1.484-.876.3-1.774-.638-3.028-1.922a11.943,11.943,0,0,0-2.665-2.286,5.047,5.047,0,0,0-3.511-.5,6.947,6.947,0,0,1-1.588,3.125,40.171,40.171,0,0,1-12,36.487c-.623,1.566-7.185,17-22.266,18.9A94.563,94.563,0,0,1,92.22,193.569ZM109.4,137.161Z" transform="translate(-30.396 -35.661)"/><path class="b" d="M85.8,193.754a7.426,7.426,0,0,1-1.62-.178c-.659-.141-1.334-.267-2.017-.393-4.453-.824-9.493-1.752-11.645-9.226-.193-.675-1.833-6.643.876-7.964a2.368,2.368,0,0,1,2.13,0c1.633.8,2.724,3.162,2.969,4.245a7.4,7.4,0,0,0,2.969,4.691,2.754,2.754,0,0,0,1.878.334c-.475-1.863-1.863-7.971-.742-11.274,1.484-4.119,7.021-6.969,10.859-6.68,2.754.208,5.455,2.227,6.865,3.422,0-2.524.453-7.971,3.548-10.97a.557.557,0,1,1,.742.8c-3.652,3.548-3.192,11.348-3.184,11.43a.557.557,0,0,1-.957.423s-3.667-3.711-7.125-4-8.454,2.345-9.723,5.938.846,11.081.861,11.133a.557.557,0,0,1-.349.675,3.822,3.822,0,0,1-3.288-.289c-1.848-1.047-3.088-3.481-3.488-5.433a5.987,5.987,0,0,0-2.345-3.474,1.262,1.262,0,0,0-1.15,0c-1.343.653-.98,4.283-.3,6.68,1.967,6.813,6.249,7.608,10.784,8.439.69.134,1.381.26,2.049.408,3.77.831,6.6-2.13,6.628-2.16a.557.557,0,1,1,.816.742,8.966,8.966,0,0,1-6.042,2.679Z" transform="translate(-26.267 -49.309)"/><path class="b" d="M133.8,175.616h-.148a2.731,2.731,0,0,1-2.546-1.44c-.854-1.737.1-3.273,1.009-4.75s1.707-2.776,1.15-4.372a.594.594,0,0,1,0-.319c-.371.074-.742.134-1.165.186-3.54.43-5.589-1.329-6.049-3.266a3.333,3.333,0,0,1,2.16-4c.475-.171,1.039-.319,1.588-.46l.824-.223a16.979,16.979,0,0,0,2.338-.854l4.112-1.826a3.792,3.792,0,0,1,3.822,0c2.167,1.425,2.138,5.418,2.13,5.589,0,.319-.074,7.845-2.145,11.452a9.04,9.04,0,0,1-7.081,4.283Zm.408-11.133a.43.43,0,0,1,.111.186c.742,2.093-.327,3.808-1.262,5.322-.824,1.336-1.536,2.486-.95,3.674a1.7,1.7,0,0,0,1.581.816,7.889,7.889,0,0,0,6.2-3.711c1.93-3.362,2-10.836,2-10.918,0-.987-.252-3.711-1.633-4.646a2.826,2.826,0,0,0-2.754.1l-4.1,1.811a19.236,19.236,0,0,1-2.486.913l-.846.223a15.169,15.169,0,0,0-1.484.43,2.227,2.227,0,0,0-1.484,2.716c.341,1.447,1.974,2.761,4.824,2.412a13.049,13.049,0,0,0,2.345-.5c3.2-1.047,3.711-3.013,3.711-3.1a.558.558,0,0,1,1.091.23c0,.111-.586,2.657-4.453,3.919Z" transform="translate(-40.851 -47.813)"/><path class="b" d="M110.812,157.249a3.051,3.051,0,0,1-2.049-.742c-1.655-1.432-1.588-4.55-1.484-5.826a13.456,13.456,0,0,1,.423-2.227c.148-.594.4-1.6.245-1.774,0,0-.1-.089-.5,0a.557.557,0,0,1-.623-.482.564.564,0,0,1,.49-.623,1.588,1.588,0,0,1,1.484.4c.542.616.3,1.574,0,2.791a13.887,13.887,0,0,0-.393,2.049c-.074.861-.2,3.756,1.1,4.891a2.345,2.345,0,0,0,2.16.349.557.557,0,1,1,.252,1.084,4.865,4.865,0,0,1-1.1.111Z" transform="translate(-35.844 -45.673)"/><path class="c" d="M139.91,121.776c.423,2.716,3.2,4.654,5.574,2.3s3.5-3.585,3.5-3.585,6.257-6.828,3.206-13.182c0,0-5.938,1.329-7.207,2.538s-2.509,4.1-1.484,9.107a2.968,2.968,0,0,0-2.286.609A9.739,9.739,0,0,0,139.91,121.776Z" transform="translate(-44.477 -35.794)"/><path class="c" d="M143.028,125.5a3.377,3.377,0,0,1-1.009-.163,4.527,4.527,0,0,1-2.85-3.711.608.608,0,0,1,.037-.3,10.562,10.562,0,0,1,1.418-2.36,2.88,2.88,0,0,1,2.034-.816c-1.017-5.767,1.069-8.283,1.752-8.907,1.358-1.284,6.851-2.538,7.474-2.679a.549.549,0,0,1,.623.3c3.177,6.613-3.036,13.508-3.3,13.8,0,0-1.173,1.269-3.525,3.607a3.778,3.778,0,0,1-2.65,1.232Zm-2.731-3.845a3.392,3.392,0,0,0,2.063,2.62,2.442,2.442,0,0,0,2.538-.787c2.331-2.316,3.474-3.555,3.481-3.563s5.7-6.346,3.3-12.165c-2.271.534-5.708,1.544-6.5,2.3-.609.572-2.5,2.887-1.3,8.58a.534.534,0,0,1-.141.49.549.549,0,0,1-.475.178,2.383,2.383,0,0,0-1.8.423A8.8,8.8,0,0,0,140.3,121.652Z" transform="translate(-44.352 -35.595)"/><path class="c" d="M152.072,127.9s-5.062,2.872-6.138,5.76.579,6.064.579,6.064,3.83,6.48,6.146,7.073l1.685-7.593s3.808-.928,5.2,1.069a9.4,9.4,0,0,0,3.132,3.013c.742.49,1.484,1.566,1.818-3.036s-1.225-6.554-3.711-6.754c-1.729-.148-4.646-.631-6.138.527.052-.045-.616-2.924-.69-3.214A5.344,5.344,0,0,0,152.072,127.9Z" transform="translate(-46.004 -41.118)"/><path class="c" d="M152.463,147.167h-.134c-2.472-.638-6.086-6.68-6.487-7.333-.089-.163-1.781-3.451-.631-6.539s6.183-5.938,6.39-6.049a.564.564,0,0,1,.623.052,6.027,6.027,0,0,1,2.108,3.2c.3,1.143.49,1.93.586,2.464a11.054,11.054,0,0,1,5.025-.26l.742.067c1.774.148,4.676,1.3,4.2,7.355-.23,2.969-.6,3.711-1.165,3.934a1.269,1.269,0,0,1-1.314-.341l-.2-.141-.223-.141a9.768,9.768,0,0,1-3.065-3.013c-.868-1.247-3.14-1.128-4.283-.92l-1.6,7.244a.572.572,0,0,1-.252.356A.594.594,0,0,1,152.463,147.167Zm-.638-18.771c-1.121.683-4.728,3.021-5.567,5.27-.98,2.613.542,5.581.557,5.611,1.269,2.145,3.667,5.559,5.255,6.546l1.536-6.925a.564.564,0,0,1,.408-.423c.171-.045,4.2-.995,5.8,1.291a8.7,8.7,0,0,0,2.754,2.709l.238.156.245.178c.067.045.148.111.215.148a9.166,9.166,0,0,0,.49-2.969c.312-3.889-.742-5.938-3.184-6.16l-.742-.067c-1.633-.163-3.874-.386-5,.475h0a.549.549,0,0,1-.779-.1.564.564,0,0,1-.119-.364c-.052-.393-.579-2.709-.668-3.051a4.794,4.794,0,0,0-1.44-2.331Z" transform="translate(-45.809 -40.932)"/><path class="a" d="M148.6,126.754a.557.557,0,0,1-.3-.089,6.68,6.68,0,0,0-1.64-.289.557.557,0,0,1-.512-.6.564.564,0,0,1,.6-.5,6.361,6.361,0,0,1,2.16.46.564.564,0,0,1,.163.742.571.571,0,0,1-.468.282Z" transform="translate(-46.07 -40.43)"/><path class="a" d="M152.679,133.579a.564.564,0,0,1-.557-.5,6.97,6.97,0,0,0-.8-1.484.557.557,0,1,1,.92-.623,6.339,6.339,0,0,1,.995,1.974.564.564,0,0,1-.5.609Z" transform="translate(-47.457 -41.834)"/><path class="a" d="M149.851,136.134a.549.549,0,0,1-.356-.134,2,2,0,0,0-.9-.5.549.549,0,0,1-.586-.527.564.564,0,0,1,.527-.586,3.028,3.028,0,0,1,1.677.742.549.549,0,0,1,.059.779A.534.534,0,0,1,149.851,136.134Z" transform="translate(-46.556 -42.788)"/><path class="a" d="M143.831,130.014a.557.557,0,0,1-.557-.5,2.16,2.16,0,0,0-.289-.987.564.564,0,0,1-.052-.787.557.557,0,0,1,.787-.045,2.85,2.85,0,0,1,.661,1.715.557.557,0,0,1-.5.609Z" transform="translate(-45.198 -41.02)"/><path class="c" d="M147.057,201.194c-3.548,0-7.11-1.188-9.337-4.216a8.289,8.289,0,0,1-.809-1.314.557.557,0,0,1,.26-.742.564.564,0,0,1,.742.26,6.434,6.434,0,0,0,.7,1.136c3.132,4.268,9.315,4.453,13.738,2.82,3.882-1.425,7.9-4.765,7.533-9.864a6.613,6.613,0,0,0-3.31-5.2,3.711,3.711,0,0,0-1.759-.468h-.2a6.08,6.08,0,0,1,2.13,6.5c-1.106,3.3-4.847,4.52-6.977,4.965-3.392.7-8.008-.49-9.894-3.711a.557.557,0,0,1,.957-.564c1.611,2.731,5.774,3.763,8.706,3.162,1.529-.319,5.2-1.358,6.153-4.231.794-2.345-.675-4.617-2.382-5.73a.69.69,0,0,1-.327-.742c.223-.742,1.818-.742,1.833-.742a4.847,4.847,0,0,1,2.286.6,7.645,7.645,0,0,1,3.889,6.064c.416,5.708-3.993,9.419-8.253,10.985a16.611,16.611,0,0,1-5.678,1.024Z" transform="translate(-43.758 -55.243)"/><path class="d" d="M149.261,150.232c1.841-2.479-3.785-3.711-4.98-4.053-3.451-.905-6.888-1.8-10.3-2.865-1.054-.327-1.959-.987-3.132-.512-1.388.564-2.115,2.917-.49,3.384,4.3,1.24,8.565,2.754,12.952,3.711C144.7,150.261,148.111,151.813,149.261,150.232Z" transform="translate(-41.768 -44.923)"/><path d="M148.161,149.787a11.392,11.392,0,0,1-3.236-.705c-.3-.1-.557-.186-.742-.238-2.568-.609-5.136-1.425-7.615-2.227-1.262-.4-2.516-.8-3.778-1.173a1.618,1.618,0,0,1-1.239-1.566,2.353,2.353,0,0,1,1.544-2.182,3.355,3.355,0,0,1,2.479.267c.2.082.4.163.609.23,3.043.957,6.079,1.789,9.025,2.59l.2.052c2.034.542,4.453,1.336,4.876,2.687a1.574,1.574,0,0,1-.334,1.529h0A2.13,2.13,0,0,1,148.161,149.787Zm-14.25-7.1a1.351,1.351,0,0,0-.468.082,1.225,1.225,0,0,0-.794,1.106c0,.267.148.43.445.52,1.262.379,2.531.779,3.793,1.18,2.464.779,5.01,1.581,7.548,2.19.23.059.512.148.831.252,1.054.341,3.251,1.054,3.793.364h0c.223-.275.171-.423.156-.49-.148-.43-.98-1.128-4.112-1.959l-.208-.052c-2.969-.809-6-1.64-9.062-2.605-.238-.074-.46-.163-.69-.252A3.34,3.34,0,0,0,133.91,142.691Z" transform="translate(-42.316 -44.648)"/><path class="d" d="M155.195,152.19s6.019-.1,7.036,7.756C162.231,159.946,154.1,158.729,155.195,152.19Z" transform="translate(-48.459 -47.393)"/><path class="d" d="M167.039,144.712s-5.418-2.635-9.649,4.053C157.383,148.765,165.265,151.073,167.039,144.712Z" transform="translate(-49.051 -45.326)"/><path d="M162.737,158.172l-.742-.111c-.156,0-3.956-.631-5.834-3.236a5.567,5.567,0,0,1-.92-4.342l.082-.453h.453c.052,0,5.893,0,6.851,7.422Zm-6.45-7a4.342,4.342,0,0,0,.787,2.969,7.974,7.974,0,0,0,4.335,2.613c-.891-4.52-3.934-5.388-5.121-5.552Z" transform="translate(-48.468 -46.835)"/><path d="M157.957,149.231a11.059,11.059,0,0,1-1.484-.1l-.742-.119.319-.668c3.162-6.784,8.714-5.017,8.773-5l.438.148-.067.453a5.567,5.567,0,0,1-2.227,3.867A8.6,8.6,0,0,1,157.957,149.231ZM157.4,148.1a7.871,7.871,0,0,0,4.928-1.18,4.453,4.453,0,0,0,1.663-2.627c-1.188-.2-4.349-.3-6.576,3.808Z" transform="translate(-48.623 -45.05)"/><path class="c" d="M146.734,170.517s-4.453-1.418-5.611,1.663-2.182,5.418-5.849,6.784-4.067-.8-4.067-.8-2.776,3.288-3.147,5.938-2.969,9.649-2.969,9.649-2.286,3.37,1.484,3.013a16.818,16.818,0,0,0,5.982-1.6l2.776-5.359s4.943-5.426,5.76-6.68S147.5,172.35,146.734,170.517Z" transform="translate(-40.465 -52.06)"/><path class="c" d="M125.85,197.171a2.1,2.1,0,0,1-1.967-.846c-.638-1.076.289-2.635.527-2.969.252-.683,2.575-7.051,2.909-9.485.386-2.776,3.154-6.086,3.273-6.227a.564.564,0,0,1,.564-.178.572.572,0,0,1,.408.438,1,1,0,0,0,.512.609c.408.223,1.232.364,2.813-.223,3.384-1.262,4.379-3.377,5.522-6.457,1.039-2.828,4.579-2.546,6.3-2a.594.594,0,0,1,.349.319c.98,2.353-5.648,13.063-5.722,13.159-.794,1.21-5.2,6.079-5.76,6.68l-2.761,5.262a.557.557,0,0,1-.223.23,17.071,17.071,0,0,1-6.2,1.663A5.045,5.045,0,0,1,125.85,197.171Zm5.084-18.192A12.961,12.961,0,0,0,128.426,184c-.371,2.672-2.887,9.485-2.969,9.775a.594.594,0,0,1-.059.119c-.356.527-.742,1.484-.534,1.863.148.26.683.356,1.484.282a17.2,17.2,0,0,0,5.626-1.484l2.687-5.2a.676.676,0,0,1,.082-.119c.052-.052,4.928-5.411,5.708-6.6,1.484-2.279,5.73-10.02,5.663-11.875-.95-.23-3.837-.742-4.624,1.4-1.2,3.266-2.353,5.685-6.175,7.11-1.6.6-2.872.653-3.77.141A2.278,2.278,0,0,1,130.934,178.979Z" transform="translate(-40.275 -51.876)"/><path class="e" d="M102.457,179.056s9-15.1,15.683-7.192S106.621,187.1,106.621,187.1,99.154,188.215,102.457,179.056Z" transform="translate(-34.516 -51.893)"/><path class="f" d="M11.11,103.935S18.3,95.927,21.5,92.542c2.486-2.613,11.022-9,14.777-11.771a5.767,5.767,0,0,0,2.227-3.5c.742-3.711,2.442-11.519,4.223-18.214,2.442-9.151,2.264-11.378,2.264-11.378-1.239-2.969-4.951,9.649-4.951,9.649-1.314,4.386-2.62,8.773-4.015,13.137-2.049,6.413-7.444,7.667-12.8,10.925-4.142,2.516-8.253,5.092-12.343,7.682Z" transform="translate(-10.88 -20.229)"/><path d="M14.118,102.083l-.408-.623c.393-.26,9.686-6.368,11.645-7.207a55.893,55.893,0,0,0,10.191-6.888,3.407,3.407,0,0,0,1.032-3.518l.7-.267a4.134,4.134,0,0,1-1.2,4.3,57,57,0,0,1-10.428,7.051C23.745,95.745,14.215,102.017,14.118,102.083Z" transform="translate(-11.61 -29.657)"/><path d="M14.618,100.955l-.408-.616c.534-.356,13.256-8.788,15.245-9.812A35.15,35.15,0,0,0,35.638,86.6a9.931,9.931,0,0,0,3.2-4.928,26.66,26.66,0,0,0,1.039-6.19c.052-.638.111-1.277.178-1.893q.267-2.4.512-4.81l.742.082q-.245,2.4-.5,4.81c-.067.616-.126,1.239-.178,1.878a26.912,26.912,0,0,1-1.084,6.361,10.769,10.769,0,0,1-3.429,5.27A35.877,35.877,0,0,1,29.8,91.187C27.844,92.189,14.752,100.858,14.618,100.955Z" transform="translate(-11.738 -25.834)"/><path d="M13.407,105.458l-.824-.742c.067-.082,7.229-8.053,10.391-11.4C25.5,90.658,34.2,84.157,37.818,81.477a5.2,5.2,0,0,0,2.026-3.162c.824-3.971,2.464-11.63,4.231-18.244C46.109,52.457,46.3,49.681,46.3,49.028c-.868.787-2.635,5.455-3.86,9.649l-.052.163c-1.269,4.26-2.59,8.669-3.971,12.981-1.655,5.2-5.455,7.155-9.478,9.255-1.173.616-2.39,1.247-3.592,1.974-3.659,2.227-7.578,4.669-12.336,7.682l-.594-.943c4.8-3.043,8.728-5.455,12.4-7.682,1.232-.742,2.464-1.388,3.652-2.011,3.978-2.078,7.422-3.867,8.907-8.61,1.373-4.3,2.687-8.706,3.963-12.959l.045-.163c1.4-4.743,3.392-10.391,4.973-10.495a1.056,1.056,0,0,1,1.024.794l.045.163c0,.1.163,2.427-2.279,11.571-1.729,6.546-3.355,14.184-4.186,18.14a6.376,6.376,0,0,1-2.457,3.837c-3.6,2.657-12.239,9.114-14.711,11.7C20.629,97.42,13.481,105.384,13.407,105.458Z" transform="translate(-11.277 -20.393)"/><path class="f" d="M20.43,261.8s2.843-6.287,4.646-10.591c1.388-3.325,3.785-13.716,4.81-18.273a5.8,5.8,0,0,1,2.293-3.459c3.088-2.227,9.552-6.88,14.956-11.215,7.422-5.938,9.508-6.68,9.508-6.68,3.214-.045-6.843,8.476-6.843,8.476-3.481,2.969-6.969,5.938-10.391,8.973-5.04,4.453-4,9.938-4.824,16.151-.631,4.81-1.329,9.6-2.049,14.4Z" transform="translate(-13.342 -62.792)"/><path d="M31.632,265.256l-.742-.126c0-.111,1.907-11.363,1.885-13.427A58.193,58.193,0,0,1,35,239.315a4.119,4.119,0,0,1,3.451-2.835v.742a3.385,3.385,0,0,0-2.791,2.36A58.869,58.869,0,0,0,33.436,251.7C33.547,253.818,31.714,264.788,31.632,265.256Z" transform="translate(-16.038 -69.212)"/><path d="M28.112,263.231l-.742-.126c0-.156,2.687-15.638,2.813-17.813a35.968,35.968,0,0,1,1.128-7.422,10.8,10.8,0,0,1,3.429-5.27,27.463,27.463,0,0,1,5.4-3.555c.557-.3,1.106-.609,1.64-.92l4.2-2.4.364.646q-2.108,1.188-4.186,2.4c-.542.312-1.1.616-1.655.928a26.035,26.035,0,0,0-5.24,3.466,9.946,9.946,0,0,0-3.221,4.906,35.8,35.8,0,0,0-1.1,7.244C30.806,247.548,28.216,262.593,28.112,263.231Z" transform="translate(-15.131 -66.438)"/><path d="M18.449,261.027l-1.009-.46c0-.067,3.073-6.791,4.847-11.044,1.373-3.3,3.8-13.813,4.78-18.184a6.346,6.346,0,0,1,2.516-3.793c3.288-2.345,9.649-6.925,14.933-11.193,7.378-5.938,9.575-6.68,9.649-6.747h.215a1.047,1.047,0,0,1,1.1.616c.557,1.484-3.83,5.6-7.6,8.78l-.275.238c-3.333,2.843-6.784,5.782-10.116,8.728-3.711,3.3-3.978,7.17-4.268,11.653-.089,1.336-.186,2.724-.371,4.156-.564,4.253-1.21,8.832-2.056,14.406l-1.061-.193c.839-5.567,1.484-10.139,2.049-14.391.186-1.4.275-2.761.364-4.082.3-4.527.571-8.8,4.646-12.41,3.34-2.969,6.791-5.9,10.124-8.743l.282-.238c3.318-2.806,6.873-6.294,7.237-7.422-.571.26-3.043,1.566-9.2,6.5-5.336,4.283-11.675,8.907-14.978,11.23a5.277,5.277,0,0,0-2.078,3.132c-.987,4.394-3.429,14.978-4.839,18.37C21.567,254.214,18.479,260.96,18.449,261.027Z" transform="translate(-12.571 -62.281)"/><path class="f" d="M13.11,129.132s7.192-8,10.391-11.386a71.107,71.107,0,0,1,7.994-6.68c2.716-2.115,6.888-4.075,8.469-7.058.965-1.818,1.885-3.659,2.887-5.463a2.271,2.271,0,0,1,2.672-1.076c1.551.045,5.418.178,6.68-1.106,1.136-1.165-.275-2.115-1.4-2.279-.742-.111-7.214,1.047-7.125.171a58.545,58.545,0,0,1,2.472-9.775c1.113-2.843,2.605-6.962,2.605-6.962A1.329,1.329,0,0,0,46.6,76.034C43.7,78.951,41.47,87.479,41.47,87.479c-1.314,4.386-2.138,7.326-4.758,11.081-3.088,4.453-6.131,4.78-11.489,8.031q-6.212,3.785-12.343,7.689Z" transform="translate(-11.396 -27.617)"/><path d="M14.118,125.936l-.408-.623c.393-.26,9.686-6.361,11.645-7.2a55.953,55.953,0,0,0,10.191-6.9,3.422,3.422,0,0,0,1.032-3.511l.7-.267a4.119,4.119,0,0,1-1.2,4.3A57.7,57.7,0,0,1,25.645,118.8C23.745,119.612,14.215,125.877,14.118,125.936Z" transform="translate(-11.61 -35.827)"/><path d="M14.618,123.3l-.408-.616c.534-.356,13.256-8.788,15.245-9.812a35.152,35.152,0,0,0,6.183-3.926,10.356,10.356,0,0,0,3.2-4.936,62.918,62.918,0,0,0,3.934-16.6l.067-.683.742.082-.074.675a63.459,63.459,0,0,1-3.971,16.774,10.836,10.836,0,0,1-3.429,5.262,36.442,36.442,0,0,1-6.309,4.008C27.844,114.518,14.752,123.2,14.618,123.3Z" transform="translate(-11.738 -30.479)"/><path d="M13.42,130.427l-.824-.742c.067-.082,7.229-8.053,10.391-11.4a54.925,54.925,0,0,1,6.68-5.685l1.351-1.032c.742-.579,1.611-1.143,2.524-1.752,2.227-1.484,4.72-3.11,5.8-5.129l1.061-2.034c.594-1.136,1.195-2.3,1.833-3.444a2.776,2.776,0,0,1,3.288-1.351h0c1.4,0,5.1.141,6.153-.943.215-.223.3-.416.245-.571A1.729,1.729,0,0,0,50.6,95.6a19.155,19.155,0,0,0-1.989.178c-3.548.408-4.9.468-5.4,0a.742.742,0,0,1-.215-.586,58.724,58.724,0,0,1,2.531-9.975c1.1-2.806,2.59-6.91,2.605-6.947a.779.779,0,0,0-.3-.957.742.742,0,0,0-.943.089c-2.754,2.724-4.965,11.052-4.988,11.133l-.148.49c-1.225,4.112-2.108,7.081-4.691,10.769-2.227,3.214-4.542,4.394-7.459,5.886-1.225.631-2.613,1.343-4.193,2.3-3.637,2.227-7.556,4.654-12.336,7.682l-.594-.935c4.78-3.036,8.706-5.478,12.358-7.7,1.611-.98,3.013-1.7,4.26-2.338,2.88-1.484,4.965-2.546,7.058-5.537,2.472-3.54,3.288-6.294,4.535-10.45l.141-.475c.089-.334,2.3-8.684,5.277-11.63a1.826,1.826,0,0,1,2.331-.223,1.856,1.856,0,0,1,.742,2.279S47.688,82.8,46.567,85.62a59.667,59.667,0,0,0-2.4,9.322,28.859,28.859,0,0,0,4.342-.3,13.294,13.294,0,0,1,2.271-.178,2.768,2.768,0,0,1,2.227,1.484,1.618,1.618,0,0,1-.5,1.715c-1.225,1.262-4.216,1.351-6.977,1.277h-.26a1.685,1.685,0,0,0-2.019.824c-.631,1.128-1.232,2.286-1.811,3.414-.356.683-.742,1.366-1.076,2.049-1.2,2.227-3.837,4-6.16,5.537-.9.586-1.744,1.143-2.464,1.7L30.387,113.5a53.831,53.831,0,0,0-6.569,5.567C20.642,122.389,13.494,130.353,13.42,130.427Z" transform="translate(-11.29 -27.725)"/><path class="f" d="M15.24,265.436s8.008-7.185,11.386-10.391a70.374,70.374,0,0,0,6.68-7.986c2.115-2.716,4.082-6.888,7.058-8.469,1.818-.972,3.659-1.885,5.463-2.887a2.279,2.279,0,0,0,1.076-2.679c-.045-1.544-.178-5.411,1.106-6.68,1.165-1.143,2.115.275,2.279,1.4.111.742-1.047,7.222-.171,7.133a59.452,59.452,0,0,0,9.775-2.479c2.843-1.113,6.962-2.605,6.962-2.605a1.336,1.336,0,0,1,1.484,2.16c-2.917,2.939-11.445,5.166-11.445,5.166-4.379,1.314-7.326,2.13-11.081,4.758-4.453,3.088-4.78,6.123-8.031,11.482Q34,259.565,30.092,265.7Z" transform="translate(-12.004 -66.489)"/><path d="M31.213,270.414l-.623-.408c.067-.1,6.331-9.649,7.147-11.527a56.669,56.669,0,0,1,7.051-10.391,4.119,4.119,0,0,1,4.3-1.2l-.275.69a3.392,3.392,0,0,0-3.5,1.039,57.116,57.116,0,0,0-6.9,10.191C37.574,260.72,31.473,270.02,31.213,270.414Z" transform="translate(-15.961 -71.846)"/><path d="M27.594,267.949,27,267.541c.089-.134,8.766-13.226,9.767-15.178a35.878,35.878,0,0,1,4.008-6.309,10.956,10.956,0,0,1,5.262-3.429,63.645,63.645,0,0,1,16.774-3.978l.675-.067.082.742-.683.074A62.857,62.857,0,0,0,46.3,243.345a10.2,10.2,0,0,0-4.936,3.2,35.707,35.707,0,0,0-3.971,6.153C36.389,254.686,27.95,267.407,27.594,267.949Z" transform="translate(-15.036 -69.753)"/><path d="M29.348,265.75l-.943-.594c3.021-4.765,5.455-8.684,7.682-12.343.957-1.574,1.67-2.969,2.3-4.193,1.484-2.909,2.672-5.2,5.886-7.459,3.711-2.575,6.68-3.466,10.777-4.691l.468-.141c.1,0,8.432-2.227,11.133-5a.775.775,0,0,0-.854-1.247c-.052,0-4.156,1.484-6.962,2.605A57.961,57.961,0,0,1,48.92,235.2a.69.69,0,0,1-.594-.215c-.49-.5-.438-1.848,0-5.4A19.237,19.237,0,0,0,48.5,227.6a1.744,1.744,0,0,0-.742-1.329c-.156-.045-.349,0-.571.252-1.084,1.054-.98,4.758-.943,6.145h0a2.791,2.791,0,0,1-1.351,3.251c-1.136.631-2.308,1.239-3.436,1.826-.683.356-1.366.705-2.041,1.069-2.019,1.069-3.711,3.577-5.129,5.789-.6.913-1.173,1.781-1.752,2.531l-1.032,1.343a55.011,55.011,0,0,1-5.685,6.68c-3.347,3.184-11.319,10.339-11.4,10.391l-.742-.831c.074-.067,8.038-7.214,11.378-10.391a55.021,55.021,0,0,0,5.567-6.569c.341-.46.69-.913,1.032-1.358.557-.742,1.113-1.559,1.707-2.457,1.529-2.323,3.266-4.958,5.529-6.168l2.049-1.069c1.128-.586,2.293-1.188,3.414-1.811a1.685,1.685,0,0,0,.809-2.011v-.26c-.074-2.768,0-5.752,1.277-6.984a1.611,1.611,0,0,1,1.715-.5,2.739,2.739,0,0,1,1.484,2.227,13.263,13.263,0,0,1-.178,2.227,27.968,27.968,0,0,0-.289,4.349A60.23,60.23,0,0,0,58.45,231.7c2.82-1.106,6.94-2.6,6.977-2.613a1.893,1.893,0,0,1,2.041,3.073c-2.969,2.969-11.3,5.2-11.653,5.277l-.445.141c-4.164,1.239-6.91,2.063-10.458,4.535-2.969,2.093-4.06,4.171-5.537,7.058-.638,1.24-1.358,2.65-2.338,4.26C34.811,257.052,32.369,260.978,29.348,265.75Z" transform="translate(-11.602 -66.27)"/><path d="M79.138,105.916a12.528,12.528,0,0,0,4.4.653h1.937c.876,0,.891-.045.965-.1s.089-.067.386-.883c.148-.423.379-1.091.609-1.841a12.618,12.618,0,0,0,.742-4.4,4.98,4.98,0,0,0-1.009-2.635,3.555,3.555,0,0,0-5.2-.868,3.4,3.4,0,0,0-1.173,1.4l-.683-1.766-2.152,1.573,1.484,1.2a3.37,3.37,0,0,0-1.759.683,3.555,3.555,0,0,0-.742,5.2,4.906,4.906,0,0,0,2.19,1.781Z" transform="translate(-27.871 -32.628)"/><path d="M38.191,141.311a12.676,12.676,0,0,0,3.8,2.331c.742.319,1.366.586,1.781.742.816.319.839.312.928.289s.1,0,.7-.661c.312-.327.742-.846,1.284-1.447a12.692,12.692,0,0,0,2.4-3.763A4.988,4.988,0,0,0,49.2,136a3.563,3.563,0,0,0-4.453-2.843,3.355,3.355,0,0,0-1.648.861l.059-1.893-2.59.594.891,1.692a3.347,3.347,0,0,0-1.885-.059,3.555,3.555,0,0,0-2.731,4.49,4.943,4.943,0,0,0,1.351,2.464Z" transform="translate(-17.535 -42.209)"/><path d="M77.04,148.267a12.617,12.617,0,0,0,2.227-3.86c.3-.742.549-1.388.7-1.811.289-.824.282-.846.26-.928s0-.111-.683-.683c-.341-.3-.868-.742-1.484-1.239a12.736,12.736,0,0,0-3.83-2.286,5.01,5.01,0,0,0-2.806,0,3.563,3.563,0,0,0-2.754,4.483,3.355,3.355,0,0,0,.905,1.618H67.71l.675,2.568,1.663-.943a3.377,3.377,0,0,0,0,1.893,3.555,3.555,0,0,0,4.557,2.605,4.943,4.943,0,0,0,2.434-1.418Z" transform="translate(-25.677 -43.535)"/><path d="M114.655,102.528a12.877,12.877,0,0,0,3.793,2.331c.742.319,1.366.579,1.789.742.816.319.831.312.92.289s.111,0,.742-.661c.3-.327.742-.846,1.284-1.484a12.885,12.885,0,0,0,2.4-3.763,4.988,4.988,0,0,0,.111-2.8,3.563,3.563,0,0,0-4.453-2.843,3.355,3.355,0,0,0-1.648.861l.059-1.893-2.59.594.9,1.692a3.377,3.377,0,0,0-1.893-.059,3.555,3.555,0,0,0-2.731,4.453A4.98,4.98,0,0,0,114.655,102.528Z" transform="translate(-37.521 -32.171)"/><path d="M40.952,213.1a12.692,12.692,0,0,0-3.9-2.16c-.742-.289-1.388-.52-1.818-.661A3.194,3.194,0,0,0,34.3,210c-.089,0-.1,0-.668.7-.3.341-.742.883-1.217,1.484a12.692,12.692,0,0,0-2.227,3.867,4.921,4.921,0,0,0,0,2.8,3.555,3.555,0,0,0,4.55,2.635,3.347,3.347,0,0,0,1.6-.928v1.893L38.9,221.7l-.965-1.648a3.325,3.325,0,0,0,1.885,0,3.555,3.555,0,0,0,2.531-4.6,4.988,4.988,0,0,0-1.4-2.36Z" transform="translate(-15.805 -62.343)"/><path d="M101.78,254.627a12.543,12.543,0,0,0-.928-4.357c-.26-.742-.52-1.4-.7-1.811-.334-.8-.349-.816-.423-.868s-.1-.059-.965-.052c-.453,0-1.15,0-1.937.074a12.684,12.684,0,0,0-4.379.861,4.958,4.958,0,0,0-2.1,1.848,3.563,3.563,0,0,0,.995,5.2,3.482,3.482,0,0,0,1.759.6l-1.41,1.262,2.227,1.484.609-1.818a3.354,3.354,0,0,0,1.254,1.41,3.563,3.563,0,0,0,5.136-1.121A4.928,4.928,0,0,0,101.78,254.627Z" transform="translate(-31.383 -72.062)"/><path d="M35.52,66.24a12.759,12.759,0,0,0,1.536,4.179c.364.7.742,1.306.943,1.7.445.742.46.742.542.794s.1.052.965-.082c.445-.067,1.136-.186,1.9-.341A12.684,12.684,0,0,0,45.622,71a4.943,4.943,0,0,0,1.826-2.13,3.555,3.555,0,0,0-1.715-4.965,3.318,3.318,0,0,0-1.826-.349l1.225-1.447L42.727,61l-.349,1.878a3.4,3.4,0,0,0-1.44-1.217,3.555,3.555,0,0,0-4.928,1.833A4.98,4.98,0,0,0,35.52,66.24Z" transform="translate(-17.225 -23.817)"/><path d="M59.948,65.016a12.744,12.744,0,0,0,4.364-.92c.742-.252,1.4-.5,1.811-.675.809-.327.824-.341.876-.416s.059-.1.059-.965c0-.453,0-1.15-.052-1.937a12.892,12.892,0,0,0-.816-4.386,4.988,4.988,0,0,0-1.833-2.123,3.555,3.555,0,0,0-5.2.95,3.333,3.333,0,0,0-.623,1.752L57.291,54.87,55.806,57.1l1.811.623a3.355,3.355,0,0,0-1.425,1.247,3.563,3.563,0,0,0,1.1,5.129,4.958,4.958,0,0,0,2.657.92Z" transform="translate(-22.506 -21.711)"/><path d="M86.733,82.5a12.929,12.929,0,0,0,4.364-.891c.742-.252,1.4-.5,1.811-.675.809-.327.824-.349.876-.423s.059-.089.059-.957c0-.453,0-1.15-.052-1.937a12.536,12.536,0,0,0-.816-4.386A4.988,4.988,0,0,0,91.141,71.1a3.555,3.555,0,0,0-5.2.95,3.31,3.31,0,0,0-.594,1.752L84.105,72.38l-1.484,2.227,1.811.623a3.347,3.347,0,0,0-1.425,1.247,3.563,3.563,0,0,0,1.069,5.144,4.958,4.958,0,0,0,2.657.876Z" transform="translate(-29.483 -26.238)"/><path d="M138.88,210.85h-128v-200h128ZM13.84,207.884H135.92V13.816H13.84Z" transform="translate(-10.88 -10.85)"/></svg>