<svg xmlns="http://www.w3.org/2000/svg" width="128" height="200" viewBox="0 0 128 200"><defs><style>.a{fill:#fff;}.b{fill:#170000;}.c{fill:#c21823;}.d{fill:#b28247;}</style></defs><g transform="translate(-10.88 -10.85)"><rect class="a" width="123.556" height="196.215" transform="translate(13.843 13.813)"/><rect class="a" width="125.037" height="197.037" transform="translate(12.361 12.331)"/><path d="M138.88,210.85h-128v-200h128ZM13.84,207.884H135.92V13.816H13.84Z" transform="translate(0)"/><path class="b" d="M29,32.536a9.866,9.866,0,0,0,1.822-2.074A3.829,3.829,0,0,0,31.5,28.44a1.755,1.755,0,0,0-.489-1.3,1.926,1.926,0,0,0-1.4-.526,3.015,3.015,0,0,0-1.481.333,5.444,5.444,0,0,0-1.126.83l-.474-.674A4.829,4.829,0,0,1,28.008,26a4.444,4.444,0,0,1,2.066-.5,3.7,3.7,0,0,1,1.755.378,2.533,2.533,0,0,1,1.059.985A2.755,2.755,0,0,1,33.23,28.2a4.6,4.6,0,0,1-1.415,3.022A14.865,14.865,0,0,1,28.3,34.017l4.607-.348.518-1.274.741.148-.385,2.348H26.712l-.222-.622A15.317,15.317,0,0,0,29,32.536Z" transform="translate(-4.048 -3.798)"/><path d="M99.438,149.537a43.1,43.1,0,0,0,1.259,6.385.741.741,0,0,0,1.2.356l.874-1.881a7.407,7.407,0,0,1,1.555-2.222c1.407-1.355,3.8-4.192,1.955-6.407a6.444,6.444,0,0,0-5.511-2.607c-.741.059-2.1,1.481-2.829,1.3-.378-.1-1.43-1.237-1.6-1.37a2.667,2.667,0,0,1-.674-1.363,2.118,2.118,0,0,1-.844,1.926c-1.059.955-4.311,2.429-4.7,4.192-.348,1.592-.074,5.481,2.681,7.125a9.221,9.221,0,0,0,4.814,1.555,6.622,6.622,0,0,1,4.111,3.022,4.829,4.829,0,0,0,2.4,1.978l.6.281-1.852-7.666" transform="translate(-20.592 -33.823)"/><path d="M104.525,162.218a.6.6,0,0,1-.252-.059l-.6-.281A5.437,5.437,0,0,1,101,159.655a6.024,6.024,0,0,0-3.7-2.7,4.356,4.356,0,0,0-.5-.059,9.192,9.192,0,0,1-4.511-1.57c-3.081-1.837-3.318-6.1-2.963-7.755.318-1.481,2.118-2.637,3.563-3.577a14.4,14.4,0,0,0,1.348-.941,1.652,1.652,0,0,0,.667-1.37.57.57,0,0,1,.43-.689.578.578,0,0,1,.741.415c.207.807.407,1.007.459,1.052s.185.163.356.326a7.9,7.9,0,0,0,1.052.948,4.179,4.179,0,0,0,1.089-.607,3.8,3.8,0,0,1,1.526-.741,6.911,6.911,0,0,1,6.007,2.822c1.548,1.859.815,4.444-2.007,7.2a6.733,6.733,0,0,0-1.23,1.629l1.807,7.444a.593.593,0,0,1-.2.593A.585.585,0,0,1,104.525,162.218Zm-8.918-19.006a3.526,3.526,0,0,1-.63.741,12.438,12.438,0,0,1-1.481,1.03c-1.2.741-2.837,1.844-3.059,2.852-.341,1.563,0,5.066,2.415,6.5a8.147,8.147,0,0,0,4.007,1.407,1.652,1.652,0,0,1,.615.074,7.152,7.152,0,0,1,4.518,3.333,3.7,3.7,0,0,0,1.622,1.481l-1.17-4.844-.274.593a.6.6,0,0,1-.126.178,1.3,1.3,0,0,1-1.215.333,1.378,1.378,0,0,1-.948-.933,44.209,44.209,0,0,1-1.281-6.481.57.57,0,0,1,.489-.659.585.585,0,0,1,.667.5,42.45,42.45,0,0,0,1.237,6.288.23.23,0,0,0,.126.156h.052l.815-1.741a.459.459,0,0,1,.081-.185.414.414,0,0,1,.067-.126,7.711,7.711,0,0,1,1.526-2.066c1.363-1.311,3.429-3.792,1.911-5.607a5.745,5.745,0,0,0-5.007-2.4,3.9,3.9,0,0,0-.985.533c-.681.452-1.392.911-2.044.741a4.636,4.636,0,0,1-1.563-1.23l-.252-.244A1.55,1.55,0,0,1,95.607,143.212Z" transform="translate(-20.383 -33.624)"/><path d="M89.959,184.979a.607.607,0,0,1-.4-.156c-5.051-4.674-7.2-12.325-5.185-18.606,1.178-3.7,0-7.733-2.844-9.584-.785-.511-1.637-1.022-2.541-1.57-.741-.422-1.43-.859-2.178-1.333-5.57-3.5-2.392-11.651-2.222-12a.578.578,0,0,1,.741-.333l4.022,1.415a.578.578,0,0,1,.356.741.585.585,0,0,1-.741.363l-3.474-1.222c-.57,1.778-2.029,7.525,1.978,10.051.741.467,1.481.9,2.163,1.318.911.548,1.77,1.074,2.57,1.592,3.252,2.133,4.651,6.718,3.326,10.91a17.378,17.378,0,0,0,4.888,17.4.585.585,0,0,1,0,.83A.615.615,0,0,1,89.959,184.979Z" transform="translate(-16.305 -33.71)"/><path d="M98.881,153.426a1.48,1.48,0,0,1-.311,0,1.378,1.378,0,0,1-.948-.941,44.863,44.863,0,0,1-1.281-6.473.585.585,0,1,1,1.155-.163,43.285,43.285,0,0,0,1.237,6.288.23.23,0,0,0,.126.156h.067l1.481-2.763a.526.526,0,0,1,.141-.17c.052-.044,4.911-4.251,2.792-6.792-1.281-1.533-2.815-1.23-4.3-.941a10.365,10.365,0,0,1-1.141.185,7.406,7.406,0,0,1-2.415-.185c-.37-.089-.852-.519-1.726-1.378-.133-.133-.23-.237-.281-.274-.652-.5-.911-1.674-1.155-3.044a2.254,2.254,0,0,0-.1-.5c-.052-.267-.1-.585-.163-.926-.185-1.1-.459-2.74-1.03-3.17-1.237-.918-3.1-1.918-3.644-1.866v.067c.052.318.741,2.533.881,2.807a6.666,6.666,0,0,1,1.044,3.118,8.607,8.607,0,0,0,.578,2.281.748.748,0,0,1-.659,1.067,3.422,3.422,0,0,0-2.748,1.652,1.111,1.111,0,0,1-.681.452c-.6.118-2.052.133-5.148-1.081a.585.585,0,1,1,.43-1.089c3.007,1.178,4.2,1.081,4.488,1.022a4.659,4.659,0,0,1,3.037-2.067,11.591,11.591,0,0,1-.452-2.044,5.652,5.652,0,0,0-.867-2.659,20.332,20.332,0,0,1-1.089-3.444,1.118,1.118,0,0,1,.556-1.155c1.311-.741,4.585,1.674,4.955,1.948.941.7,1.237,2.481,1.481,3.911.052.326.1.63.156.881s.059.333.1.533c.111.615.37,2.052.741,2.333a4.566,4.566,0,0,1,.385.356,9.733,9.733,0,0,0,1.23,1.1,6.177,6.177,0,0,0,1.992.141,6.55,6.55,0,0,0,1.007-.163c1.563-.311,3.7-.741,5.422,1.333,2.7,3.229-2.1,7.7-2.844,8.347L99.9,152.885a.592.592,0,0,1-.111.156A1.333,1.333,0,0,1,98.881,153.426Z" transform="translate(-18.068 -30.595)"/><path class="a" d="M99.13,148.569a.585.585,0,0,1-.518-.318,6.415,6.415,0,0,0-1.311-1.074.578.578,0,0,1-.156-.807.585.585,0,0,1,.807-.163,6.184,6.184,0,0,1,1.7,1.481.585.585,0,0,1-.252.785A.593.593,0,0,1,99.13,148.569Z" transform="translate(-22.414 -34.966)"/><path d="M78.615,143.315l-3.3-1.155L74.46,145.8A6.488,6.488,0,0,0,78.615,143.315Z" transform="translate(-16.54 -33.944)"/><path d="M74.258,146.176a.585.585,0,0,1-.57-.681s0-.081.859-3.7a.556.556,0,0,1,.289-.378.593.593,0,0,1,.474-.044l3.3,1.2a.578.578,0,0,1,.281.9,7.029,7.029,0,0,1-4.563,2.718Zm1.274-3.466c-.133.578-.333,1.444-.489,2.1a6.059,6.059,0,0,0,2.37-1.437Z" transform="translate(-16.337 -33.731)"/><path d="M95.344,137.819s.585.363-2.326.7a25.959,25.959,0,0,0-2.644.57,10.51,10.51,0,0,0-2.511,1.067,4.044,4.044,0,0,1,3.333-2.052.156.156,0,0,0,.118-.23c-.852-1.933-3.518-2.963-3.555-5.125s1.6-6.666,4.807-7.533c1.044-.281,1.067,1.718,1.089,2.459a20.339,20.339,0,0,0,.333,4.14c.459,1.985.5,4.17,1.355,6" transform="translate(-20.001 -29.552)"/><path d="M87.659,140.542a.57.57,0,0,1-.415-.178.585.585,0,0,1-.067-.741,4.837,4.837,0,0,1,3.111-2.222,9.562,9.562,0,0,0-1.274-1.392c-.993-.948-2.015-1.926-2.044-3.444,0-2.378,1.681-7.125,5.237-8.1a1.133,1.133,0,0,1,1.022.178c.689.5.741,1.689.807,2.763v.741a16.244,16.244,0,0,0,.3,3.377c.163.7.274,1.415.385,2.111a14.236,14.236,0,0,0,.9,3.7.652.652,0,0,1,.126.555c-.1.489-.578.793-2.874,1.059a24.906,24.906,0,0,0-2.563.563,9.629,9.629,0,0,0-2.348.992A.585.585,0,0,1,87.659,140.542Zm7.177-2.429Zm-2.3-12.525c-2.9.815-4.444,5.029-4.392,6.977,0,1.03.785,1.763,1.681,2.615a7.607,7.607,0,0,1,1.829,2.259.792.792,0,0,1,.044.489,10.452,10.452,0,0,1,1.052-.193,12.646,12.646,0,0,0,1.689-.281,16.525,16.525,0,0,1-.859-3.7c-.1-.674-.215-1.37-.363-2.022a17.776,17.776,0,0,1-.333-3.615v-.644C92.829,125.928,92.621,125.632,92.532,125.588Z" transform="translate(-19.797 -29.349)"/><path class="a" d="M95.732,151.346a.63.63,0,0,1-.259-.059,1.755,1.755,0,0,0-.889-.222.6.6,0,0,1-.741-.341.563.563,0,0,1,.289-.741,2.563,2.563,0,0,1,1.866.244.585.585,0,0,1-.259,1.111Z" transform="translate(-21.569 -35.948)"/><path d="M104.54,143.667c1.8,0,3.977-.356,6.311.6.867.355,1.615.37,2.155.667l2.607.578a.852.852,0,0,1,.274,1.333c-.652.741-5.748,2.355-7.881,5.925Z" transform="translate(-24.37 -34.314)"/><path d="M107.8,153.152h-.052a.563.563,0,0,1-.489-.37L103.8,143.7a.585.585,0,0,1,.059-.541.593.593,0,0,1,.481-.252h1.133a12.184,12.184,0,0,1,5.392.674,7.233,7.233,0,0,0,1.081.318,4.972,4.972,0,0,1,1.067.333l2.526.563.1.037a1.363,1.363,0,0,1,.807.963,1.429,1.429,0,0,1-.318,1.281,5.985,5.985,0,0,1-1.7,1.044c-1.755.9-4.7,2.415-6.118,4.792A.585.585,0,0,1,107.8,153.152Zm-2.622-9.11,2.778,7.288a17.987,17.987,0,0,1,5.925-4.3,8.953,8.953,0,0,0,1.348-.741.3.3,0,0,0,.067-.252.252.252,0,0,0-.1-.141l-2.533-.563a.669.669,0,0,1-.156-.059,3.79,3.79,0,0,0-.844-.267,7.634,7.634,0,0,1-1.252-.37,11.2,11.2,0,0,0-4.911-.585Z" transform="translate(-24.166 -34.118)"/><path class="c" d="M111.77,169.552s5.074-3.533,9.629,3.555C121.421,173.107,113.918,176.544,111.77,169.552Z" transform="translate(-26.25 -40.796)"/><path class="c" d="M119.026,154s-5.851.526-6.3,9.481C112.73,163.5,120.544,161.236,119.026,154Z" transform="translate(-26.497 -37.001)"/><path d="M111.56,164.679l-.052-.844c-.267-4.326,1.1-6.762,2.3-8.036a6.222,6.222,0,0,1,2.8-1.792l.518-.126.17.511c2.222,6.607-4.9,9.91-4.97,9.94Zm4.8-9.34c-1.148.526-3.748,2.289-3.7,7.5C114.2,161.894,117.374,159.42,116.36,155.339Z" transform="translate(-26.17 -36.969)"/><path class="c" d="M106.008,169.295c.393-3.474-4.992-1.481-6.155-1.111-3.363,1.089-6.711,2.163-10.11,3.081-1.052.281-2.133.156-2.9,1.3-.918,1.341-.422,4.051,1.185,3.585,4.244-1.244,8.584-2.222,12.777-3.748C102.1,171.961,105.764,171.472,106.008,169.295Z" transform="translate(-19.65 -40.434)"/><path d="M89.266,174.256a1.481,1.481,0,0,1-1.274-.681,2.874,2.874,0,0,1,.141-3.118,3.222,3.222,0,0,1,2.266-1.163,4.625,4.625,0,0,0,.622-.126c3.022-.793,6.007-1.718,8.888-2.622l.2-.059c1.926-.615,4.274-1.2,5.392-.259a1.785,1.785,0,0,1,.556,1.726h0c-.252,1.807-2.666,2.422-4.266,2.822-.289.074-.556.141-.741.207-2.474.867-5.044,1.541-7.525,2.222-1.259.333-2.511.659-3.763,1.015A1.85,1.85,0,0,1,89.266,174.256Zm14.562-7.362a11.769,11.769,0,0,0-3.363.7l-.207.067c-2.9.9-5.925,1.837-8.94,2.637-.237.059-.481.1-.741.148a2.1,2.1,0,0,0-1.541.741,1.689,1.689,0,0,0-.111,1.741.37.37,0,0,0,.481.156c1.259-.355,2.518-.689,3.785-1.022,2.459-.644,5.007-1.311,7.451-2.17.23-.074.511-.148.837-.23,1.215-.3,3.244-.822,3.385-1.852h0c.074-.489-.089-.63-.148-.674a1.415,1.415,0,0,0-.889-.244Z" transform="translate(-19.966 -40.035)"/><path d="M116.65,172.088a6.132,6.132,0,0,1-2.541-.511,5.792,5.792,0,0,1-3.1-3.837l-.126-.407.348-.244a5.851,5.851,0,0,1,4.207-.785c1.963.385,3.7,1.778,5.244,4.126l.37.57-.615.281A10.118,10.118,0,0,1,116.65,172.088Zm-4.377-4.251a4.5,4.5,0,0,0,2.311,2.674,6.951,6.951,0,0,0,4.7-.052,6.9,6.9,0,0,0-4.059-3.007,4.807,4.807,0,0,0-2.955.385Z" transform="translate(-26.018 -40.156)"/><path d="M96.288,235.513a3.645,3.645,0,0,1-1.667-.452,3.709,3.709,0,0,1-2.163-2.792,2.089,2.089,0,0,1,1.163-1.911,5.259,5.259,0,0,0,2.548-3,4.058,4.058,0,0,1,.467-.97c.311-.43.9-3.029-.1-9.747-.9-5.925-4.348-20.235-4.385-20.376a.585.585,0,0,1,1.133-.274c0,.141,3.5,14.465,4.4,20.472.807,5.348.741,9.414-.1,10.614a3.7,3.7,0,0,0-.318.7,6.436,6.436,0,0,1-3,3.585c-.622.378-.607.741-.607.874a2.607,2.607,0,0,0,1.533,1.792,1.8,1.8,0,0,0,1.629.2A39.992,39.992,0,0,1,100.821,232a.578.578,0,0,1,.778.267.593.593,0,0,1-.267.785,39.631,39.631,0,0,0-3.874,2.163,2.074,2.074,0,0,1-1.17.3Z" transform="translate(-21.142 -47.69)"/><path d="M106.675,236.33a2.348,2.348,0,0,1-1.963-.948c-.815-1.118-.741-3.1.17-5.318a15.088,15.088,0,0,0,1.481-5.7l.044-.467c.289-2.652-1.533-16.5-1.555-16.643a.587.587,0,0,1,1.163-.156c.074.578,1.859,14.139,1.555,16.924l-.052.459a16.058,16.058,0,0,1-1.548,6.029c-.741,1.778-.859,3.422-.3,4.177a1.34,1.34,0,0,0,1.3.467,6.736,6.736,0,0,0,3.637-1.481c1.237-.889,2-3.414,2.111-5.459a3.811,3.811,0,0,0-.393-2.437.578.578,0,0,1-.133-.7c.037-.067,3.459-7.125,1.378-17.776,0-.037-.963-4.6-1.437-7.947a.587.587,0,0,1,1.163-.163c.459,3.311,1.407,7.829,1.422,7.873,1.926,9.866-.63,16.621-1.326,18.2a5.725,5.725,0,0,1,.489,3.022c-.126,2.318-.978,5.185-2.592,6.34a7.555,7.555,0,0,1-4.289,1.7A2.225,2.225,0,0,1,106.675,236.33Z" transform="translate(-24.267 -48.493)"/><path d="M124.827,228a23.653,23.653,0,0,1-4.318-.289,1.415,1.415,0,0,1-1.015-1.037,4.189,4.189,0,0,1,1.437-3.7,7.918,7.918,0,0,1,5.57-2.155,15.5,15.5,0,0,1-6.488-7.355,13.355,13.355,0,0,1,1.837-12.9c1.481-1.689,3.229-2.385,4.992-1.963.237.067,5.562,1.526,7.673,4.992a.578.578,0,0,1-.193.8.585.585,0,0,1-.807-.193c-1.874-3.066-6.91-4.444-6.962-4.444a3.979,3.979,0,0,0-3.814,1.592,12.11,12.11,0,0,0-1.644,11.7c2.541,6.251,9.236,8.31,9.3,8.325a.585.585,0,1,1-.318,1.126c-4.955-1.37-7.473.466-8.325,1.318a3.35,3.35,0,0,0-1.133,2.57c.044.178.133.2.17.207,2.059.518,15.043.563,18.043-2.963,3.548-4.17-.052-21.961-5.074-30.419-4.3-7.236-11.547-13.058-15.48-15.887a27.4,27.4,0,0,1-5.266-4.94c-2.748-3.377-4.281-6.051-4.577-7.947a.585.585,0,1,1,1.155-.178c.259,1.659,1.755,4.214,4.326,7.407a26,26,0,0,0,5.044,4.733c4.007,2.881,11.392,8.814,15.8,16.243,5.925,9.932,8.636,27.449,4.963,31.768-1.889,2.222-6.57,3.081-10.162,3.414C127.879,227.933,126.249,228,124.827,228Z" transform="translate(-25.4 -39.429)"/><path d="M153.612,225.22a7.4,7.4,0,0,1-1.963-.267.6.6,0,1,1,.333-1.148c2.185.6,4.392,0,6.562-1.741,4.644-3.77,7.555-11.6,7.266-16.295-.23-3.7-1.926-8.147-4.681-10.036a31.99,31.99,0,0,1,.541,6.622c.778,14.369-10.288,15.488-10.369,15.495a.585.585,0,0,1-.1-1.163c.415,0,10.051-1.059,9.332-14.332a34.915,34.915,0,0,0-.741-7.614.585.585,0,0,1,.8-.637c4.266,1.778,6.162,7.91,6.392,11.592.311,4.955-2.77,13.258-7.7,17.25A8.969,8.969,0,0,1,153.612,225.22Z" transform="translate(-36.397 -47.336)"/><path d="M121.833,243.314a9.826,9.826,0,0,1-5.97-1.711.59.59,0,1,1,.741-.918c2.77,2.141,7.407,1.3,7.481,1.289a.578.578,0,0,1,.681.459.585.585,0,0,1-.459.689,15.067,15.067,0,0,1-2.474.193Z" transform="translate(-27.257 -59.35)"/><path d="M116.6,177s-2.9,3.548-.526,9.14c3.326,7.822,6.244,9.118,7.947,10.725,2.666,2.533,11.992,7.407,12.836,1.9C136.857,198.768,129.206,185.592,116.6,177Z" transform="translate(-27.137 -42.934)"/><path d="M133.522,201.711c-3.452,0-8.266-2.8-10.162-4.6-.281-.259-.593-.518-.963-.815-1.718-1.407-4.326-3.526-7.133-10.125-2.489-5.874.5-9.629.622-9.784a.63.63,0,0,1,.844-.126c12.591,8.57,20.376,21.835,20.45,21.968a.629.629,0,0,1,.081.415,3.289,3.289,0,0,1-2.222,2.837,4.86,4.86,0,0,1-1.518.23Zm-16.976-24.042c-.637,1.1-1.829,3.955-.111,8.007,2.681,6.311,5.044,8.236,6.762,9.629.37.3.741.585,1.037.881,2.081,1.978,7.777,4.992,10.414,4.089a1.97,1.97,0,0,0,1.318-1.607C134.974,197.023,127.745,185.505,116.546,177.669Z" transform="translate(-26.913 -42.714)"/><path class="d" d="M11.11,103.818s7.177-7.992,10.369-11.369c2.481-2.607,11-8.977,14.747-11.747a5.755,5.755,0,0,0,2.222-3.489c.741-3.7,2.437-11.5,4.214-18.176C45.1,49.9,44.921,47.682,44.921,47.682c-1.237-2.963-4.94,9.629-4.94,9.629-1.311,4.377-2.615,8.755-4.007,13.11-2.044,6.4-7.429,7.651-12.777,10.9-4.133,2.511-8.236,5.081-12.317,7.666Z" transform="translate(0 -9.434)"/><path d="M14.117,102.058l-.407-.622c.393-.259,9.666-6.355,11.621-7.192A55.777,55.777,0,0,0,35.5,87.37,3.415,3.415,0,0,0,36.53,83.9l.7-.274a4.126,4.126,0,0,1-1.2,4.3A56.883,56.883,0,0,1,25.62,94.962C23.724,95.77,14.214,101.991,14.117,102.058Z" transform="translate(-0.734 -18.809)"/><path d="M14.617,100.888l-.407-.615c.533-.356,13.228-8.77,15.213-9.792a35.078,35.078,0,0,0,6.17-3.918,9.91,9.91,0,0,0,3.192-4.918,26.6,26.6,0,0,0,1.037-6.185c.059-.637.111-1.267.178-1.881q.267-2.4.511-4.8l.741.081q-.244,2.4-.5,4.8c-.074.607-.126,1.237-.178,1.866a26.924,26.924,0,0,1-1.081,6.355,10.747,10.747,0,0,1-3.422,5.259,35.805,35.805,0,0,1-6.3,4C27.816,92.141,14.751,100.792,14.617,100.888Z" transform="translate(-0.864 -14.967)"/><path d="M13.418,105.336,12.6,104.6c.067-.081,7.214-8.036,10.369-11.377,2.526-2.652,11.206-9.147,14.813-11.814A5.281,5.281,0,0,0,39.8,78.25c.822-3.963,2.459-11.592,4.222-18.206,2.029-7.6,2.222-10.369,2.222-11.021-.867.785-2.629,5.444-3.852,9.629v.111c-1.274,4.274-2.592,8.688-3.977,13.006-1.652,5.185-5.444,7.14-9.458,9.236-1.17.615-2.385,1.244-3.585,1.97-3.7,2.222-7.585,4.674-12.31,7.666L12.47,89.7c4.733-2.963,8.651-5.437,12.332-7.673,1.23-.741,2.459-1.385,3.644-2.007,3.97-2.074,7.407-3.859,8.888-8.592,1.378-4.311,2.7-8.718,3.97-12.984v-.111C42.7,53.6,44.689,47.964,46.26,47.86a1.056,1.056,0,0,1,1.03.793l.044.163c0,.1.163,2.422-2.274,11.547-1.689,6.555-3.311,14.162-4.14,18.11A6.362,6.362,0,0,1,38.468,82.3c-3.592,2.652-12.214,9.1-14.68,11.68C20.625,97.315,13.492,105.262,13.418,105.336Z" transform="translate(-0.412 -9.598)"/><path class="d" d="M20.43,261.694s2.837-6.274,4.637-10.569c1.385-3.318,3.777-13.688,4.8-18.235a5.792,5.792,0,0,1,2.289-3.452c3.081-2.222,9.532-6.866,14.925-11.192,7.407-5.925,9.488-6.666,9.488-6.666,3.207-.044-6.829,8.458-6.829,8.458-3.474,2.963-6.955,5.925-10.369,8.955-5.029,4.444-3.992,9.918-4.814,16.117-.63,4.8-1.326,9.584-2.044,14.369Z" transform="translate(-2.477 -51.836)"/><path d="M31.631,265.2l-.741-.126c0-.111,1.9-11.34,1.881-13.4a58.072,58.072,0,0,1,2.222-12.362,4.111,4.111,0,0,1,3.444-2.829v.741a3.377,3.377,0,0,0-2.785,2.355,58.747,58.747,0,0,0-2.222,12.088C33.542,253.782,31.712,264.729,31.631,265.2Z" transform="translate(-5.189 -58.294)"/><path d="M28.111,263.154l-.741-.126c0-.156,2.681-15.606,2.807-17.776a35.894,35.894,0,0,1,1.126-7.407,10.777,10.777,0,0,1,3.422-5.259,27.4,27.4,0,0,1,5.385-3.548c.556-.3,1.1-.607,1.637-.918l4.192-2.4.363.644q-2.1,1.185-4.185,2.4c-.533.311-1.089.615-1.644.926a25.982,25.982,0,0,0-5.229,3.459,9.859,9.859,0,0,0-3.207,4.9,35.115,35.115,0,0,0-1.1,7.229C30.8,247.5,28.214,262.517,28.111,263.154Z" transform="translate(-4.276 -55.503)"/><path d="M18.447,260.924l-1.007-.459c0-.067,3.066-6.777,4.837-11.021,1.37-3.3,3.792-13.784,4.77-18.147a6.333,6.333,0,0,1,2.511-3.785c3.281-2.341,9.629-6.91,14.9-11.169,7.362-5.925,9.555-6.666,9.629-6.733h.17a1.114,1.114,0,0,1,1.141.615c.556,1.481-3.822,5.585-7.585,8.762l-.222.193c-3.348,2.852-6.807,5.8-10.147,8.755-3.7,3.3-3.97,7.155-4.259,11.629-.089,1.333-.185,2.718-.37,4.148-.556,4.244-1.207,8.814-2.044,14.376l-1.067-.193c.837-5.562,1.481-10.125,2.044-14.362.185-1.392.274-2.755.363-4.074.3-4.518.578-8.784,4.637-12.384,3.348-2.963,6.807-5.925,10.155-8.77l.23-.193c3.311-2.8,6.859-6.281,7.222-7.407-.57.267-3.037,1.563-9.184,6.5-5.325,4.274-11.651,8.888-14.947,11.206a5.266,5.266,0,0,0-2.074,3.126c-.985,4.385-3.422,14.954-4.829,18.332C21.558,254.125,18.477,260.857,18.447,260.924Z" transform="translate(-1.701 -51.326)"/><path class="d" d="M13.11,129.021s7.177-7.984,10.369-11.362a70.964,70.964,0,0,1,7.977-6.666c2.711-2.111,6.873-4.066,8.451-7.044.963-1.815,1.881-3.652,2.881-5.451a2.266,2.266,0,0,1,2.666-1.074c1.548.044,5.407.178,6.666-1.1,1.133-1.163-.274-2.111-1.4-2.274-.741-.111-7.2,1.044-7.11.17a58.423,58.423,0,0,1,2.466-9.755c1.111-2.837,2.6-6.948,2.6-6.948a1.326,1.326,0,0,0-2.148-1.481c-2.889,2.911-5.118,11.421-5.118,11.421-1.311,4.377-2.133,7.31-4.748,11.058-3.081,4.444-6.118,4.77-11.466,8.014Q19,110.3,12.88,114.2Z" transform="translate(-0.519 -16.731)"/><path d="M14.117,125.9l-.407-.622c.393-.259,9.666-6.348,11.621-7.185A55.836,55.836,0,0,0,35.5,111.21a3.415,3.415,0,0,0,1.03-3.5l.7-.267a4.111,4.111,0,0,1-1.2,4.289,57.323,57.323,0,0,1-10.406,7.044C23.724,119.587,14.214,125.838,14.117,125.9Z" transform="translate(-0.734 -24.962)"/><path d="M14.617,123.223l-.407-.615c.533-.356,13.228-8.77,15.213-9.792a35.076,35.076,0,0,0,6.17-3.918,10.335,10.335,0,0,0,3.192-4.925A62.883,62.883,0,0,0,42.711,87.4l.067-.674.741.081-.074.674a63.076,63.076,0,0,1-3.963,16.739,10.813,10.813,0,0,1-3.422,5.251,36.366,36.366,0,0,1-6.3,4C27.816,114.461,14.751,123.127,14.617,123.223Z" transform="translate(-0.864 -19.603)"/><path d="M13.418,130.314l-.822-.741c.067-.081,7.214-8.036,10.369-11.377a55.493,55.493,0,0,1,6.666-5.674l1.348-1.03c.741-.578,1.607-1.141,2.518-1.748,2.222-1.481,4.711-3.1,5.785-5.118.363-.681.741-1.363,1.067-2.044.585-1.126,1.192-2.289,1.815-3.422a2.785,2.785,0,0,1,3.289-1.348h0c1.392,0,5.088.141,6.14-.941.215-.222.3-.415.244-.57a1.726,1.726,0,0,0-1.318-.741,19.256,19.256,0,0,0-1.985.178c-3.54.407-4.888.467-5.392,0a.741.741,0,0,1-.215-.585A58.6,58.6,0,0,1,45.452,85.2c1.1-2.8,2.585-6.9,2.6-6.933a.778.778,0,0,0-.3-.955.741.741,0,0,0-.941.089c-2.748,2.718-4.955,11.029-4.977,11.11L41.69,89C40.46,93.1,39.579,96.065,37,99.747c-2.222,3.207-4.533,4.385-7.444,5.874-1.222.63-2.607,1.341-4.185,2.3-3.644,2.222-7.562,4.659-12.31,7.666l-.593-.933c4.755-3.015,8.673-5.459,12.332-7.681,1.607-.978,3.007-1.7,4.251-2.333,2.874-1.481,4.955-2.541,7.036-5.525,2.474-3.533,3.3-6.281,4.533-10.429l.141-.474c.089-.333,2.3-8.666,5.266-11.606a1.822,1.822,0,0,1,2.326-.222,1.859,1.859,0,0,1,.741,2.274s-1.481,4.133-2.6,6.948A59.543,59.543,0,0,0,44.1,94.9a27.86,27.86,0,0,0,4.333-.3,13.265,13.265,0,0,1,2.266-.178,2.763,2.763,0,0,1,2.222,1.481,1.615,1.615,0,0,1-.5,1.711c-1.222,1.259-4.207,1.348-6.962,1.274H45.2a1.681,1.681,0,0,0-2.015.822c-.622,1.118-1.222,2.274-1.807,3.392L40.3,105.168c-1.2,2.222-3.829,3.992-6.148,5.525-.9.585-1.741,1.141-2.459,1.7l-1.348,1.03a54.358,54.358,0,0,0-6.562,5.555C20.625,122.293,13.492,130.24,13.418,130.314Z" transform="translate(-0.412 -16.838)"/><path class="d" d="M15.24,265.354s7.992-7.17,11.362-10.369a70.229,70.229,0,0,0,6.666-7.97c2.111-2.711,4.074-6.873,7.044-8.451,1.815-.97,3.652-1.881,5.451-2.881a2.274,2.274,0,0,0,1.074-2.674c-.044-1.541-.178-5.4,1.1-6.666,1.163-1.141,2.111.274,2.274,1.392.111.741-1.044,7.207-.17,7.118a59.327,59.327,0,0,0,9.755-2.474c2.837-1.111,6.948-2.6,6.948-2.6a1.333,1.333,0,0,1,1.481,2.155c-2.911,2.933-11.421,5.155-11.421,5.155-4.37,1.311-7.31,2.126-11.058,4.748-4.444,3.081-4.77,6.111-8.014,11.458q-3.777,6.2-7.673,12.325Z" transform="translate(-1.131 -55.555)"/><path d="M31.212,270.365l-.622-.407c.067-.1,6.318-9.629,7.133-11.5a56.549,56.549,0,0,1,7.036-10.369,4.111,4.111,0,0,1,4.3-1.2l-.274.689.133-.341-.126.341a3.4,3.4,0,0,0-3.5,1.037A57,57,0,0,0,38.4,258.78C37.56,260.691,31.471,269.972,31.212,270.365Z" transform="translate(-5.111 -60.944)"/><path d="M27.593,267.888,27,267.481c.089-.133,8.747-13.2,9.747-15.147a35.8,35.8,0,0,1,4-6.3A10.933,10.933,0,0,1,46,242.617a63.513,63.513,0,0,1,16.739-3.97l.674-.067.081.741-.681.074a62.731,62.731,0,0,0-16.554,3.94,10.175,10.175,0,0,0-4.925,3.192,35.633,35.633,0,0,0-3.963,6.14C36.362,254.653,27.948,267.348,27.593,267.888Z" transform="translate(-4.18 -58.838)"/><path d="M29.313,265.669l-.941-.593c2.963-4.74,5.437-8.658,7.666-12.317.955-1.57,1.667-2.963,2.3-4.185,1.481-2.9,2.666-5.185,5.881-7.444,3.7-2.57,6.666-3.459,10.747-4.681l.467-.141c.1,0,8.414-2.222,11.11-4.985a.773.773,0,0,0-.852-1.244c-.052,0-4.148,1.481-6.948,2.6a57.9,57.9,0,0,1-9.9,2.5.689.689,0,0,1-.585-.215c-.5-.5-.437-1.844,0-5.392a19.2,19.2,0,0,0,.178-1.978,1.755,1.755,0,0,0-.741-1.326c-.163-.044-.356,0-.578.252-1.081,1.052-.978,4.74-.941,6.133h0a2.785,2.785,0,0,1-1.348,3.244c-1.133.63-2.3,1.237-3.429,1.822-.681.355-1.363.7-2.037,1.067-2.015,1.067-3.7,3.57-5.118,5.777-.6.911-1.17,1.778-1.748,2.526l-1.03,1.348a56.077,56.077,0,0,1-5.674,6.666c-3.34,3.177-11.3,10.318-11.377,10.369l-.741-.83c.081-.067,8.022-7.2,11.355-10.369a54.911,54.911,0,0,0,5.555-6.555l1.03-1.355c.556-.741,1.111-1.555,1.7-2.452,1.526-2.318,3.259-4.948,5.518-6.155l2.052-1.067c1.118-.585,2.281-1.185,3.4-1.807a1.7,1.7,0,0,0,.815-2.007v-.267c-.074-2.755,0-5.733,1.274-6.962a1.615,1.615,0,0,1,1.711-.5,2.733,2.733,0,0,1,1.481,2.222,13.237,13.237,0,0,1-.178,2.222,27.906,27.906,0,0,0-.289,4.34,60.1,60.1,0,0,0,9.258-2.252c2.815-1.1,6.925-2.592,6.962-2.607a1.889,1.889,0,0,1,2.037,3.066c-2.963,2.963-11.273,5.185-11.629,5.266l-.444.141c-4.155,1.237-6.9,2.059-10.436,4.526-2.963,2.089-4.051,4.17-5.525,7.044-.637,1.237-1.355,2.644-2.333,4.251C34.757,257,32.32,260.922,29.313,265.669Z" transform="translate(-0.724 -55.338)"/><path d="M61.876,91.219a12.732,12.732,0,0,0,4.4.652h1.933c.867-.037.889-.044.955-.1s.089-.067.385-.889c.156-.415.385-1.081.607-1.829a12.592,12.592,0,0,0,.741-4.392,4.933,4.933,0,0,0-.992-2.615,3.548,3.548,0,0,0-5.185-.867,3.288,3.288,0,0,0-1.178,1.43l-.689-1.763-2.141,1.563,1.481,1.207a3.274,3.274,0,0,0-1.755.681,3.555,3.555,0,0,0-.741,5.185A4.941,4.941,0,0,0,61.876,91.219Z" transform="translate(-12.493 -17.981)"/><path d="M59.939,64.991a12.718,12.718,0,0,0,4.355-.918c.741-.252,1.392-.5,1.807-.674.807-.326.822-.341.874-.415s.059-.1.059-.963c0-.452,0-1.148-.052-1.933a12.866,12.866,0,0,0-.815-4.377,4.977,4.977,0,0,0-1.829-2.118,3.548,3.548,0,0,0-5.185.948,3.326,3.326,0,0,0-.622,1.748l-1.244-1.422-1.481,2.222,1.807.622a3.348,3.348,0,0,0-1.422,1.244,3.555,3.555,0,0,0,1.1,5.118A4.948,4.948,0,0,0,59.939,64.991Z" transform="translate(-11.619 -10.857)"/><path d="M167.713,27.6a12.628,12.628,0,0,0-3.17-3.118c-.622-.474-1.2-.874-1.57-1.126-.741-.489-.741-.489-.837-.489s-.1,0-.83.489c-.37.252-.948.644-1.57,1.118a12.7,12.7,0,0,0-3.178,3.126,4.925,4.925,0,0,0-.741,2.7,3.548,3.548,0,0,0,3.674,3.777,3.377,3.377,0,0,0,1.792-.459l-.481,1.822h2.652l-.489-1.844a3.3,3.3,0,0,0,1.822.481,3.548,3.548,0,0,0,3.659-3.748A5.007,5.007,0,0,0,167.713,27.6Z" transform="translate(-37.721 -3.117)"/><path d="M138.88,210.85h-128v-200h128ZM13.84,207.884H135.92V13.816H13.84Z" transform="translate(0)"/></g></svg>