<svg xmlns="http://www.w3.org/2000/svg" width="128" height="200" viewBox="0 0 128 200"><defs><style>.a{fill:#fff;}.b{fill:#170000;}.c{fill:#231815;}.d{fill:#c21823;}.e{fill:#ffb4c0;}.f{fill:#b28247;}</style></defs><rect class="a" width="125.031" height="197.031" transform="translate(1.484 1.484)"/><path d="M138.88,210.85h-128v-200h128ZM13.84,207.884H135.92V13.816H13.84Z" transform="translate(-10.88 -10.85)"/><path class="b" d="M27.416,29.952a4.32,4.32,0,0,1,1.722-1.262,5.2,5.2,0,0,1-1.358-1.21,2.605,2.605,0,0,1-.475-1.588,2.479,2.479,0,0,1,.468-1.484,2.88,2.88,0,0,1,1.247-.957,4.142,4.142,0,0,1,1.648-.341,3.756,3.756,0,0,1,2.323.668,2.123,2.123,0,0,1,.876,1.789,2.672,2.672,0,0,1-.512,1.574,4.342,4.342,0,0,1-1.484,1.254,7.845,7.845,0,0,1,1.848,1.358,2.353,2.353,0,0,1,.661,1.7,2.479,2.479,0,0,1-.527,1.581,3.466,3.466,0,0,1-1.41,1.054,4.847,4.847,0,0,1-1.9.371,5.27,5.27,0,0,1-1.8-.3,3.043,3.043,0,0,1-1.381-.95,2.464,2.464,0,0,1-.534-1.625,2.65,2.65,0,0,1,.586-1.633Zm5.092.861a3.132,3.132,0,0,0-.787-.742c-.312-.2-.742-.438-1.284-.742-.282-.141-.49-.252-.631-.334a3.162,3.162,0,0,0-1.128.957,2.13,2.13,0,0,0-.438,1.284A2.227,2.227,0,0,0,30.667,33.7a2.412,2.412,0,0,0,1.032-.237,2.167,2.167,0,0,0,.816-.69,1.715,1.715,0,0,0,.312-1.009,1.536,1.536,0,0,0-.319-.95Zm-3.5-4.3a2.969,2.969,0,0,0,.8.742c.319.193.779.453,1.373.742a2.969,2.969,0,0,0,1.054-.905,2.041,2.041,0,0,0,.393-1.195,2.152,2.152,0,0,0-.542-1.544,1.907,1.907,0,0,0-1.418-.549,2.093,2.093,0,0,0-1.4.475,1.581,1.581,0,0,0-.572,1.284A1.484,1.484,0,0,0,29,26.515Z" transform="translate(-14.991 -14.009)"/><path class="c" d="M138.893,121.075l-2.071-2.895s-2.575,2.011-2.613,2.049A6.873,6.873,0,0,0,138.893,121.075Z" transform="translate(-42.971 -38.598)"/><path class="c" d="M137.5,121.564a7.66,7.66,0,0,1-3.785-1.054.557.557,0,0,1-.082-.883l2.642-2.078a.549.549,0,0,1,.423-.111.571.571,0,0,1,.379.223l2.071,2.9a.557.557,0,0,1-.334.868A6.265,6.265,0,0,1,137.5,121.564Zm-2.457-1.633a6.457,6.457,0,0,0,2.657.52l-1.195-1.67Z" transform="translate(-42.778 -38.405)"/><path class="b" d="M95.589,192.442H94.7c-15.453-.579-16.18-2.227-17.071-4.09l-.1-.215c-.512-1.091-.646-2.665.275-3.54s2.472-.742,4.617.386c3.488,1.848,5.2.349,5.656-.156a25.5,25.5,0,0,1-.059-5.975c.527-4.349,2.382-7,5.366-7.667a23.677,23.677,0,0,1,10.992.223,15.228,15.228,0,0,0,4.149.609.557.557,0,0,1,.661.43.564.564,0,0,1-.43.661,13.939,13.939,0,0,1-4.624-.616,27.162,27.162,0,0,0-2.709-.534,23.884,23.884,0,0,0-7.793.319c-2.524.564-4.038,2.82-4.505,6.68a24.738,24.738,0,0,0,.082,5.938.572.572,0,0,1-.082.393s-2.227,3.31-7.222.683c-1.6-.846-2.813-1.054-3.325-.572s-.393,1.484,0,2.264l.1.23c.638,1.418,1.3,2.887,16.054,3.436h.854c14.748,0,23.179-14.458,23.268-14.607a.453.453,0,0,1,.171-.186,38.992,38.992,0,0,0,17.353-33.451.534.534,0,0,1,.267-.52,5.938,5.938,0,0,0,2-2.739.571.571,0,0,1,.386-.364,5.8,5.8,0,0,1,4.572,1.195,12.728,12.728,0,0,1,2.538,2.969,8.351,8.351,0,0,0,1.559,1.908,1.4,1.4,0,0,0,.223-.512,24.717,24.717,0,0,0,.928-5.893,3.934,3.934,0,0,0-1.64-2.672c-2.427-1.722-6.6-1.009-6.635-1a.564.564,0,0,1-.445-.119.542.542,0,0,1-.208-.408,23.209,23.209,0,0,0-.4-3.889,23.253,23.253,0,0,0-2.464-4.55.542.542,0,0,1-.1-.438.534.534,0,0,1,.26-.371,14.175,14.175,0,0,0,4.231-5.2,8.439,8.439,0,0,0,.965-6.242c-2.175.1-6.9.616-8.164,2.108-1.373,1.618-1.425,5.863-1.329,7.363a.542.542,0,0,1-.2.468.557.557,0,0,1-.5.1c-2.375-.668-3.31,1.759-3.355,1.863a.549.549,0,0,1-.972.119l-5.574-8.046a6.668,6.668,0,0,0-4.193,5.938,8.1,8.1,0,0,0,.653,4.038,13.054,13.054,0,0,0,1.047,1.8,11.942,11.942,0,0,1,1.373,2.546c1.432,4.164.089,5.344-2.13,6.68s-8.78.646-9.515.564h-.067a.557.557,0,0,1-.163-1.009c.111-.186.512-1.024,1.173-4.453a1.484,1.484,0,0,0-.26-1.269c-1.061-1.44-4.876-2.019-7.652-2.331-5.4-.594-9.018,1.432-9.189,2.746a2.36,2.36,0,0,0,.661,2.227c1.752,1.484,6.457.564,8.12.074a.549.549,0,0,1,.69.379.557.557,0,0,1-.371.69c-.267.082-6.6,1.907-9.166-.3a3.422,3.422,0,0,1-1.039-3.251c.3-2.264,4.824-4.327,10.391-3.711,4.876.542,7.422,1.373,8.432,2.783a2.62,2.62,0,0,1,.453,2.13,26.639,26.639,0,0,1-1.054,4.208c2.308.2,6.531.356,7.971-.49,1.8-1.076,2.887-1.722,1.64-5.344a11.2,11.2,0,0,0-1.247-2.3,14.384,14.384,0,0,1-1.136-1.959,9.174,9.174,0,0,1-.742-4.587,7.7,7.7,0,0,1,5.262-6.962h.126a.549.549,0,0,1,.594.223l5.277,7.556a3.711,3.711,0,0,1,3.511-1.8c-.037-1.633.059-5.611,1.618-7.422,1.922-2.227,8.632-2.5,9.389-2.516a.52.52,0,0,1,.527.334c.059.134,1.373,3.355-.883,7.563a16.678,16.678,0,0,1-4.164,5.277,24.99,24.99,0,0,1,2.286,4.32,18.258,18.258,0,0,1,.453,3.667c1.358-.148,4.631-.3,6.851,1.277a5.047,5.047,0,0,1,2.1,3.444.459.459,0,0,1,0,.1,25.5,25.5,0,0,1-.972,6.242c-.082.3-.349,1.195-1.091,1.321-.9.148-1.648-.92-2.679-2.39a11.875,11.875,0,0,0-2.227-2.694,5.047,5.047,0,0,0-3.377-1.061,6.9,6.9,0,0,1-2.071,2.82,40.234,40.234,0,0,1-17.754,34.067C118.887,178.77,110.24,192.442,95.589,192.442ZM109.6,138.654Z" transform="translate(-28.361 -37.332)"/><path class="b" d="M81.849,189.61a7.474,7.474,0,0,1-2.783-.534c-.631-.252-1.277-.482-1.922-.742-4.26-1.529-9.085-3.266-10.005-10.985-.082-.742-.742-6.858,2.16-7.719a2.338,2.338,0,0,1,2.093.371c1.484,1.054,2.182,3.563,2.227,4.669.067,1.677.742,3.993,2.145,5.106a2.746,2.746,0,0,0,1.759.638h0c-.163-1.922-.542-8.164,1.136-11.245,2.093-3.83,8.06-5.752,11.8-4.839,2.672.653,5.025,3.065,6.212,4.49.43-2.486,1.744-7.793,5.277-10.25a.557.557,0,0,1,.742.141.549.549,0,0,1-.134.742c-4.186,2.917-4.988,10.688-5,10.762a.564.564,0,0,1-.416.482.542.542,0,0,1-.594-.215c0-.045-3.021-4.283-6.39-5.1s-8.721.935-10.554,4.29-.965,11.066-.957,11.133a.564.564,0,0,1-.46.609A3.815,3.815,0,0,1,75,180.592c-1.663-1.329-2.479-3.934-2.561-5.938a5.785,5.785,0,0,0-1.759-3.808,1.232,1.232,0,0,0-1.128-.208c-1.432.423-1.663,4.067-1.373,6.517.839,7.036,4.936,8.513,9.27,10.072.668.238,1.321.475,1.967.742,3.585,1.432,6.851-1.032,6.88-1.061a.564.564,0,0,1,.787.1.557.557,0,0,1-.1.742A9.211,9.211,0,0,1,81.849,189.61Z" transform="translate(-25.532 -49.036)"/><path class="b" d="M132.646,178.342a5.2,5.2,0,0,1-1.046-.1,2.768,2.768,0,0,1-2.286-1.841c-.557-1.848.623-3.206,1.766-4.52s2.138-2.464,1.848-4.127a.579.579,0,0,1,.037-.319h-1.188c-3.555-.141-5.292-2.227-5.433-4.193a3.347,3.347,0,0,1,2.783-3.622c.5-.089,1.076-.141,1.64-.193l.846-.082a17.178,17.178,0,0,0,2.449-.468l4.357-1.136a3.82,3.82,0,0,1,3.77.609c1.907,1.759,1.225,5.693,1.195,5.856-.052.312-1.343,7.726-3.978,10.955a9.218,9.218,0,0,1-6.762,3.177Zm1.3-10.977a.6.6,0,0,1,.082.2c.379,2.19-.943,3.711-2.108,5.047-1.024,1.188-1.915,2.227-1.536,3.474a1.729,1.729,0,0,0,1.432,1.069,7.881,7.881,0,0,0,6.732-2.7c2.449-3.006,3.711-10.391,3.748-10.443.171-.972.349-3.711-.861-4.847a2.8,2.8,0,0,0-2.731-.349l-4.357,1.143a19.409,19.409,0,0,1-2.605.49l-.868.082c-.542.052-1.1.1-1.536.186a2.227,2.227,0,0,0-1.885,2.442c.111,1.484,1.484,3.05,4.372,3.169a13.065,13.065,0,0,0,2.4-.119c3.333-.512,4.119-2.368,4.149-2.449a.564.564,0,0,1,.742-.312.549.549,0,0,1,.319.742c0,.1-1.009,2.531-5.025,3.147Z" transform="translate(-40.952 -48.782)"/><path class="b" d="M112.921,155.773a3.243,3.243,0,0,1-2.635-1.106c-1.4-1.677-.831-4.743-.52-5.99a13.7,13.7,0,0,1,.742-2.123c.245-.571.653-1.522.527-1.722,0,0-.074-.1-.49-.111a.557.557,0,0,1-.527-.579.549.549,0,0,1,.579-.534,1.559,1.559,0,0,1,1.381.638c.438.69.052,1.6-.445,2.746a13.657,13.657,0,0,0-.742,1.959c-.208.839-.809,3.711.3,5a2.316,2.316,0,0,0,2.071.7.579.579,0,0,1,.594.52.564.564,0,0,1-.52.594Z" transform="translate(-36.51 -45.175)"/><path class="c" d="M146.1,126.1c0,2.746,2.4,5.114,5.121,3.177s4.038-2.969,4.038-2.969,7.288-5.73,5.307-12.484c0,0-6.064.341-7.526,1.336s-3.14,3.637-2.909,8.743a2.976,2.976,0,0,0-2.36.23A9.923,9.923,0,0,0,146.1,126.1Z" transform="translate(-46.141 -37.476)"/><path class="c" d="M149.04,130.35a3.124,3.124,0,0,1-1.484-.371,4.5,4.5,0,0,1-2.227-4.075.52.52,0,0,1,.089-.3,10.3,10.3,0,0,1,1.781-2.1,2.9,2.9,0,0,1,2.138-.482c-.052-5.849,2.427-7.994,3.169-8.521,1.544-1.039,7.17-1.388,7.808-1.425a.534.534,0,0,1,.564.393c2.063,7.044-5.2,12.84-5.492,13.085,0,0-1.366,1.061-4.06,2.969A3.978,3.978,0,0,1,149.04,130.35Zm-2.583-4.283a3.407,3.407,0,0,0,1.618,2.924,2.434,2.434,0,0,0,2.627-.364c2.672-1.907,4-2.969,4.015-2.969s6.68-5.329,5.233-11.467c-2.331.163-5.886.6-6.8,1.217-.69.468-2.924,2.449-2.672,8.261a.549.549,0,0,1-.208.46.564.564,0,0,1-.5.1,2.368,2.368,0,0,0-1.848.126A8.907,8.907,0,0,0,146.457,126.068Z" transform="translate(-45.941 -37.285)"/><path class="c" d="M157.442,133.79s-5.463,2.011-6.992,4.683-.408,6.079-.408,6.079,2.724,7.014,4.921,7.979l2.887-7.222s3.911-.3,4.965,1.9a9.523,9.523,0,0,0,2.613,3.481c.646.6,1.18,1.781,2.279-2.7s-.148-6.68-2.546-7.266c-1.677-.423-4.453-1.373-6.138-.468.059-.037-.134-2.969-.163-3.288a5.374,5.374,0,0,0-1.418-3.177Z" transform="translate(-47.055 -42.641)"/><path class="c" d="M154.773,152.895a.6.6,0,0,1-.23-.045c-2.331-1.032-4.921-7.548-5.2-8.29-.059-.178-1.195-3.711.445-6.554s7.051-4.847,7.281-4.928a.557.557,0,0,1,.609.148,5.982,5.982,0,0,1,1.559,3.5c.111,1.18.171,1.982.186,2.531,1.551-.371,3.5.156,5,.549l.7.186c1.729.43,4.409,2.041,2.969,7.942-.742,2.88-1.188,3.533-1.789,3.711a1.284,1.284,0,0,1-1.239-.549l-.178-.171-.193-.186a9.767,9.767,0,0,1-2.531-3.466c-.661-1.366-2.917-1.618-4.082-1.6l-2.761,6.888a.512.512,0,0,1-.3.3.527.527,0,0,1-.238.03Zm2.316-18.637c-1.217.5-5.151,2.227-6.346,4.3-1.388,2.42-.371,5.589-.364,5.619.906,2.323,2.724,6.086,4.127,7.318l2.635-6.613a.542.542,0,0,1,.468-.349c.178,0,4.3-.3,5.515,2.227a8.6,8.6,0,0,0,2.279,3.125l.208.193c.074.067.141.141.215.215l.186.178a9.3,9.3,0,0,0,.965-2.82c.928-3.785.208-6-2.145-6.591l-.742-.193c-1.588-.423-3.756-1-5-.341h0a.557.557,0,0,1-.742-.23.564.564,0,0,1-.059-.379c0-.393-.134-2.768-.163-3.11A4.839,4.839,0,0,0,157.089,134.258Z" transform="translate(-46.865 -42.449)"/><path class="a" d="M154.736,131.758a.534.534,0,0,1-.379-.148,7.111,7.111,0,0,0-1.573-.542.549.549,0,0,1-.4-.675.557.557,0,0,1,.675-.408,6.42,6.42,0,0,1,2.048.809.557.557,0,0,1-.371.965Z" transform="translate(-47.756 -41.645)"/><path class="a" d="M157.653,139.184h-.045a.549.549,0,0,1-.512-.594,6.939,6.939,0,0,0-.564-1.566.56.56,0,0,1,1.017-.468,6.435,6.435,0,0,1,.653,2.115A.557.557,0,0,1,157.653,139.184Z" transform="translate(-48.817 -43.265)"/><path class="a" d="M154.46,141.224a.549.549,0,0,1-.423-.2,2.153,2.153,0,0,0-.8-.638.557.557,0,0,1,.119-1.106,2.9,2.9,0,0,1,1.536,1.024.572.572,0,0,1-.067.787A.549.549,0,0,1,154.46,141.224Z" transform="translate(-47.858 -44.052)"/><path class="a" d="M149.5,134.211h-.037a.557.557,0,0,1-.52-.594,2.108,2.108,0,0,0-.126-1.017.564.564,0,0,1,.082-.787.557.557,0,0,1,.764.111,2.85,2.85,0,0,1,.379,1.8.557.557,0,0,1-.542.482Z" transform="translate(-46.731 -42.095)"/><path class="c" d="M143.039,206.159c-4.372,0-9.062-1.692-11.207-5.893a8.462,8.462,0,0,1-.579-1.425.557.557,0,1,1,1.069-.312,7.09,7.09,0,0,0,.5,1.232c2.4,4.713,8.476,5.938,13.1,5.017,4.067-.787,8.573-3.429,9.033-8.521a6.606,6.606,0,0,0-2.427-5.626,3.711,3.711,0,0,0-1.663-.742h-.2a6.04,6.04,0,0,1,1.054,6.762c-1.633,3.065-5.522,3.674-7.7,3.763-3.466.141-7.823-1.774-9.159-5.233a.557.557,0,1,1,1.032-.4c1.15,2.969,5.1,4.631,8.083,4.52,1.559-.059,5.337-.5,6.754-3.169,1.165-2.19.082-4.669-1.425-6.042a.683.683,0,0,1-.193-.824c.334-.69,1.915-.468,1.937-.46a4.832,4.832,0,0,1,2.16.965,7.623,7.623,0,0,1,2.85,6.606c-.52,5.7-5.463,8.647-9.923,9.508A16.853,16.853,0,0,1,143.039,206.159Z" transform="translate(-42.307 -56.857)"/><path class="d" d="M151.392,155.117c2.227-2.145-3.132-4.3-4.26-4.8-3.258-1.484-6.5-2.9-9.693-4.5-.987-.5-1.774-1.291-3.013-1.017-1.484.334-2.553,2.538-1.032,3.258,4.045,1.922,8.008,4.112,12.172,5.789C146.842,154.4,149.982,156.468,151.392,155.117Z" transform="translate(-42.675 -45.47)"/><path d="M150.913,154.561a9.2,9.2,0,0,1-3.629-1.269c-.275-.141-.52-.267-.742-.356-2.434-1.024-4.839-2.227-7.162-3.422-1.18-.594-2.353-1.188-3.533-1.759a1.64,1.64,0,0,1-.972-1.744,2.36,2.36,0,0,1,1.885-1.907,3.347,3.347,0,0,1,2.4.668c.186.111.371.223.572.327,2.8,1.418,5.685,2.739,8.476,4.015l.193.089c1.922.861,4.156,2.034,4.379,3.436a1.581,1.581,0,0,1-.579,1.484,1.9,1.9,0,0,1-1.284.438Zm-13.723-9.382a1.366,1.366,0,0,0-.245,0,1.239,1.239,0,0,0-.965.965.52.52,0,0,0,.356.586c1.188.572,2.36,1.173,3.54,1.774,2.308,1.165,4.7,2.375,7.1,3.384l.787.386c.98.512,3.028,1.566,3.711.98h0c.26-.245.238-.393.23-.46-.074-.453-.779-1.277-3.711-2.605l-.193-.082c-2.806-1.284-5.7-2.613-8.521-4.045-.223-.111-.43-.238-.638-.356A2.768,2.768,0,0,0,137.19,145.179Z" transform="translate(-43.242 -45.298)"/><path class="d" d="M156.971,157.9s5.938.883,5.685,8.8C162.657,166.7,154.834,164.142,156.971,157.9Z" transform="translate(-48.848 -48.87)"/><path class="d" d="M169.713,152.8s-4.921-3.474-10.183,2.434C159.53,155.232,166.945,158.795,169.713,152.8Z" transform="translate(-49.603 -47.286)"/><path d="M163.42,165.065l-.742-.23c-.148-.052-3.8-1.262-5.2-4.134a5.589,5.589,0,0,1-.2-4.453l.148-.438.46.067c.059,0,5.812.95,5.559,8.432Zm-5.233-7.957a4.409,4.409,0,0,0,.289,3.1,8.027,8.027,0,0,0,3.859,3.281c-.163-4.676-3-6.049-4.149-6.376Z" transform="translate(-48.928 -48.33)"/><path d="M161.748,155.962a11.593,11.593,0,0,1-3.3-.5l-.742-.23.416-.616c4.223-6.183,9.419-3.533,9.471-3.5l.408.215-.134.438a5.574,5.574,0,0,1-2.791,3.459A7.422,7.422,0,0,1,161.748,155.962Zm-2.227-1.366a7.983,7.983,0,0,0,5.054-.364,4.409,4.409,0,0,0,2.063-2.316c-1.1-.4-4.2-1-7.081,2.672Z" transform="translate(-49.134 -46.961)"/><path class="c" d="M144.325,175.737s-4.193-2.123-5.811.742-3.028,5-6.873,5.752-3.882-1.484-3.882-1.484-3.273,2.8-4.067,5.351-4.453,9.055-4.453,9.055-2.813,2.969.943,3.206a16.632,16.632,0,0,0,6.16-.609l3.607-4.832s5.752-4.557,6.762-5.641S144.778,177.66,144.325,175.737Z" transform="translate(-38.866 -53.296)"/><path class="c" d="M121.323,198.758c-.445,0-.92,0-1.41-.045-1.291-.089-2.086-.5-2.368-1.225-.453-1.158.742-2.546,1.009-2.865.356-.638,3.711-6.546,4.4-8.907.831-2.679,4.1-5.492,4.238-5.611a.557.557,0,0,1,.594-.089.572.572,0,0,1,.327.5,1.039,1.039,0,0,0,.408.69c.371.282,1.158.557,2.813.23,3.54-.7,4.869-2.62,6.487-5.478,1.484-2.62,4.936-1.766,6.546-.95a.549.549,0,0,1,.289.364c.586,2.479-7.682,11.972-7.771,12.068-.98,1.054-6.131,5.144-6.769,5.656l-3.555,4.772a.579.579,0,0,1-.267.193,16.158,16.158,0,0,1-4.973.7Zm5.99-17.234a13,13,0,0,0-3.288,4.535c-.8,2.583-4.386,8.907-4.535,9.166l-.082.111c-.43.453-.995,1.329-.831,1.752.111.275.623.46,1.4.512a16.8,16.8,0,0,0,5.8-.527l3.5-4.691a.424.424,0,0,1,.1-.1c.059-.045,5.737-4.542,6.68-5.581,1.856-2,7.274-8.958,7.511-10.814-.9-.371-3.667-1.329-4.787.638-1.722,3.028-3.243,5.2-7.244,6.019-1.685.334-2.969.171-3.711-.475a2.33,2.33,0,0,1-.5-.542Z" transform="translate(-38.666 -53.094)"/><path class="e" d="M99.882,176.507s11.334-13.471,16.633-4.565-13.835,13.167-13.835,13.167S95.109,185.013,99.882,176.507Z" transform="translate(-33.656 -51.718)"/><path d="M167.737,27.613a12.655,12.655,0,0,0-3.177-3.125c-.623-.475-1.2-.876-1.573-1.128-.742-.49-.742-.49-.839-.49s-.1,0-.831.49c-.371.252-.95.646-1.573,1.121a12.721,12.721,0,0,0-3.184,3.132,4.936,4.936,0,0,0-.742,2.7A3.555,3.555,0,0,0,159.5,34.1a3.384,3.384,0,0,0,1.8-.46l-.482,1.826h2.657l-.49-1.848a3.3,3.3,0,0,0,1.826.482,3.555,3.555,0,0,0,3.667-3.756A5.017,5.017,0,0,0,167.737,27.613Z" transform="translate(-48.644 -13.949)"/><path class="f" d="M11.11,103.935S18.3,95.927,21.5,92.542c2.486-2.613,11.022-9,14.777-11.771a5.767,5.767,0,0,0,2.227-3.5c.742-3.711,2.442-11.519,4.223-18.214,2.442-9.151,2.264-11.378,2.264-11.378-1.239-2.969-4.951,9.649-4.951,9.649-1.314,4.386-2.62,8.773-4.015,13.137-2.049,6.413-7.444,7.667-12.8,10.925-4.142,2.516-8.253,5.092-12.343,7.682Z" transform="translate(-10.88 -20.229)"/><path d="M14.118,102.083l-.408-.623c.393-.26,9.686-6.368,11.645-7.207a55.893,55.893,0,0,0,10.191-6.888,3.407,3.407,0,0,0,1.032-3.518l.7-.267a4.134,4.134,0,0,1-1.2,4.3,57,57,0,0,1-10.428,7.051C23.745,95.745,14.215,102.017,14.118,102.083Z" transform="translate(-11.61 -29.657)"/><path d="M14.618,100.955l-.408-.616c.534-.356,13.256-8.788,15.245-9.812A35.15,35.15,0,0,0,35.638,86.6a9.931,9.931,0,0,0,3.2-4.928,26.66,26.66,0,0,0,1.039-6.19c.052-.638.111-1.277.178-1.893q.267-2.4.512-4.81l.742.082q-.245,2.4-.5,4.81c-.067.616-.126,1.239-.178,1.878a26.912,26.912,0,0,1-1.084,6.361,10.769,10.769,0,0,1-3.429,5.27A35.877,35.877,0,0,1,29.8,91.187C27.844,92.189,14.752,100.858,14.618,100.955Z" transform="translate(-11.738 -25.834)"/><path d="M13.407,105.458l-.824-.742c.067-.082,7.229-8.053,10.391-11.4C25.5,90.658,34.2,84.157,37.818,81.477a5.2,5.2,0,0,0,2.026-3.162c.824-3.971,2.464-11.63,4.231-18.244C46.109,52.457,46.3,49.681,46.3,49.028c-.868.787-2.635,5.455-3.86,9.649l-.052.163c-1.269,4.26-2.59,8.669-3.971,12.981-1.655,5.2-5.455,7.155-9.478,9.255-1.173.616-2.39,1.247-3.592,1.974-3.659,2.227-7.578,4.669-12.336,7.682l-.594-.943c4.8-3.043,8.728-5.455,12.4-7.682,1.232-.742,2.464-1.388,3.652-2.011,3.978-2.078,7.422-3.867,8.907-8.61,1.373-4.3,2.687-8.706,3.963-12.959l.045-.163c1.4-4.743,3.392-10.391,4.973-10.495a1.056,1.056,0,0,1,1.024.794l.045.163c0,.1.163,2.427-2.279,11.571-1.729,6.546-3.355,14.184-4.186,18.14a6.376,6.376,0,0,1-2.457,3.837c-3.6,2.657-12.239,9.114-14.711,11.7C20.629,97.42,13.481,105.384,13.407,105.458Z" transform="translate(-11.277 -20.393)"/><path class="f" d="M20.43,261.8s2.843-6.287,4.646-10.591c1.388-3.325,3.785-13.716,4.81-18.273a5.8,5.8,0,0,1,2.293-3.459c3.088-2.227,9.552-6.88,14.956-11.215,7.422-5.938,9.508-6.68,9.508-6.68,3.214-.045-6.843,8.476-6.843,8.476-3.481,2.969-6.969,5.938-10.391,8.973-5.04,4.453-4,9.938-4.824,16.151-.631,4.81-1.329,9.6-2.049,14.4Z" transform="translate(-13.342 -62.792)"/><path d="M31.632,265.256l-.742-.126c0-.111,1.907-11.363,1.885-13.427A58.579,58.579,0,0,1,35,239.315a4.119,4.119,0,0,1,3.451-2.835v.742a3.385,3.385,0,0,0-2.791,2.36A58.779,58.779,0,0,0,33.436,251.7C33.547,253.818,31.714,264.788,31.632,265.256Z" transform="translate(-16.038 -69.212)"/><path d="M28.112,263.231l-.742-.126c0-.156,2.687-15.638,2.813-17.813a35.968,35.968,0,0,1,1.128-7.422,10.8,10.8,0,0,1,3.429-5.27,27.463,27.463,0,0,1,5.4-3.555c.557-.3,1.106-.609,1.64-.92l4.2-2.4.364.646q-2.108,1.188-4.186,2.4c-.542.312-1.1.616-1.655.928a26.035,26.035,0,0,0-5.24,3.466,9.946,9.946,0,0,0-3.221,4.906,35.8,35.8,0,0,0-1.1,7.244C30.806,247.548,28.216,262.593,28.112,263.231Z" transform="translate(-15.131 -66.438)"/><path d="M18.449,261.027l-1.009-.46c0-.067,3.073-6.791,4.847-11.044,1.373-3.3,3.8-13.813,4.78-18.184a6.346,6.346,0,0,1,2.516-3.793c3.288-2.345,9.649-6.925,14.933-11.193,7.378-5.938,9.575-6.68,9.649-6.747h.215a1.047,1.047,0,0,1,1.1.616c.557,1.484-3.83,5.6-7.6,8.78l-.275.238c-3.333,2.843-6.784,5.782-10.116,8.728-3.711,3.3-3.978,7.17-4.268,11.653-.089,1.336-.186,2.724-.371,4.156-.564,4.3-1.217,8.907-2.056,14.406l-1.061-.193c.831-5.522,1.484-10.094,2.049-14.391.186-1.4.275-2.761.364-4.082.3-4.527.571-8.8,4.646-12.41,3.34-2.969,6.791-5.9,10.124-8.743l.282-.238c3.318-2.806,6.873-6.294,7.237-7.422-.571.26-3.043,1.566-9.2,6.5-5.336,4.283-11.675,8.907-14.978,11.23a5.277,5.277,0,0,0-2.078,3.132c-.987,4.394-3.429,14.978-4.839,18.37C21.567,254.214,18.479,260.96,18.449,261.027Z" transform="translate(-12.571 -62.281)"/><path class="f" d="M13.11,129.132s7.192-8,10.391-11.386a71.107,71.107,0,0,1,7.994-6.68c2.716-2.115,6.888-4.075,8.469-7.058.965-1.818,1.885-3.659,2.887-5.463a2.271,2.271,0,0,1,2.672-1.076c1.551.045,5.418.178,6.68-1.106,1.136-1.165-.275-2.115-1.4-2.279-.742-.111-7.214,1.047-7.125.171a58.545,58.545,0,0,1,2.472-9.775c1.113-2.843,2.605-6.962,2.605-6.962A1.329,1.329,0,0,0,46.6,76.034C43.7,78.951,41.47,87.479,41.47,87.479c-1.314,4.386-2.138,7.326-4.758,11.081-3.088,4.453-6.131,4.78-11.489,8.031q-6.212,3.785-12.343,7.689Z" transform="translate(-11.396 -27.617)"/><path d="M14.118,125.936l-.408-.623c.393-.26,9.686-6.361,11.645-7.2a55.953,55.953,0,0,0,10.191-6.9,3.422,3.422,0,0,0,1.032-3.511l.7-.267a4.119,4.119,0,0,1-1.2,4.3A57.7,57.7,0,0,1,25.645,118.8C23.745,119.612,14.215,125.877,14.118,125.936Z" transform="translate(-11.61 -35.827)"/><path d="M14.618,123.3l-.408-.616c.534-.356,13.256-8.788,15.245-9.812a35.152,35.152,0,0,0,6.183-3.926,10.356,10.356,0,0,0,3.2-4.936,62.918,62.918,0,0,0,3.934-16.6l.067-.683.742.082-.074.675a63.459,63.459,0,0,1-3.971,16.774,10.836,10.836,0,0,1-3.429,5.262,36.442,36.442,0,0,1-6.309,4.008C27.844,114.518,14.752,123.2,14.618,123.3Z" transform="translate(-11.738 -30.479)"/><path d="M13.42,130.427l-.824-.742c.067-.082,7.229-8.053,10.391-11.4a54.925,54.925,0,0,1,6.68-5.685l1.351-1.032c.742-.579,1.611-1.143,2.524-1.752,2.227-1.484,4.72-3.11,5.8-5.129l1.061-2.034c.594-1.136,1.195-2.3,1.833-3.444a2.776,2.776,0,0,1,3.288-1.351h0c1.4,0,5.1.141,6.153-.943.215-.223.3-.416.245-.571A1.729,1.729,0,0,0,50.6,95.6a19.3,19.3,0,0,0-1.989.178c-3.548.408-4.9.468-5.4,0a.742.742,0,0,1-.215-.586,58.724,58.724,0,0,1,2.531-9.975c1.1-2.806,2.59-6.91,2.605-6.947a.779.779,0,0,0-.3-.957.742.742,0,0,0-.943.089c-2.754,2.724-4.965,11.052-4.988,11.133l-.148.49c-1.225,4.112-2.108,7.081-4.691,10.769-2.227,3.214-4.542,4.394-7.459,5.886-1.225.631-2.613,1.343-4.193,2.3-3.637,2.227-7.556,4.654-12.336,7.682l-.594-.935c4.78-3.036,8.706-5.478,12.358-7.7,1.611-.98,3.013-1.7,4.26-2.338,2.88-1.484,4.965-2.546,7.058-5.537,2.472-3.54,3.288-6.294,4.535-10.45l.141-.475c.089-.334,2.3-8.684,5.277-11.63a1.826,1.826,0,0,1,2.331-.223,1.856,1.856,0,0,1,.742,2.279S47.688,82.8,46.567,85.62a59.667,59.667,0,0,0-2.4,9.322,28.859,28.859,0,0,0,4.342-.3,13.294,13.294,0,0,1,2.271-.178,2.768,2.768,0,0,1,2.227,1.484,1.618,1.618,0,0,1-.5,1.715c-1.225,1.262-4.216,1.351-6.977,1.277h-.26a1.685,1.685,0,0,0-2.019.824c-.631,1.128-1.232,2.286-1.811,3.414-.356.683-.742,1.366-1.076,2.049-1.2,2.227-3.837,4-6.16,5.537-.9.586-1.744,1.143-2.464,1.7L30.387,113.5a53.831,53.831,0,0,0-6.569,5.567C20.642,122.389,13.494,130.353,13.42,130.427Z" transform="translate(-11.29 -27.725)"/><path class="f" d="M15.24,265.436s8.008-7.185,11.386-10.391a70.374,70.374,0,0,0,6.68-7.986c2.115-2.716,4.082-6.888,7.058-8.469,1.818-.972,3.659-1.885,5.463-2.887a2.279,2.279,0,0,0,1.076-2.679c-.045-1.544-.178-5.411,1.106-6.68,1.165-1.143,2.115.275,2.279,1.4.111.742-1.047,7.222-.171,7.133a59.452,59.452,0,0,0,9.775-2.479c2.843-1.113,6.962-2.605,6.962-2.605a1.336,1.336,0,0,1,1.484,2.16c-2.917,2.939-11.445,5.166-11.445,5.166-4.379,1.314-7.326,2.13-11.081,4.758-4.453,3.088-4.78,6.123-8.031,11.482Q34,259.565,30.092,265.7Z" transform="translate(-12.004 -66.489)"/><path d="M31.213,270.414l-.623-.408c.067-.1,6.331-9.649,7.147-11.527a56.669,56.669,0,0,1,7.051-10.391,4.119,4.119,0,0,1,4.3-1.2l-.275.69a3.392,3.392,0,0,0-3.5,1.039,57.116,57.116,0,0,0-6.9,10.191C37.574,260.72,31.473,270.02,31.213,270.414Z" transform="translate(-15.961 -71.846)"/><path d="M27.594,267.949,27,267.541c.089-.134,8.766-13.226,9.767-15.178a35.878,35.878,0,0,1,4.008-6.309,10.956,10.956,0,0,1,5.262-3.429,63.645,63.645,0,0,1,16.774-3.978l.675-.067.082.742-.683.074A62.857,62.857,0,0,0,46.3,243.345a10.2,10.2,0,0,0-4.936,3.2,35.707,35.707,0,0,0-3.971,6.153C36.382,254.686,27.95,267.407,27.594,267.949Z" transform="translate(-15.036 -69.753)"/><path d="M29.348,265.75l-.943-.594c3.021-4.765,5.455-8.684,7.682-12.343.957-1.574,1.67-2.969,2.3-4.193,1.484-2.909,2.672-5.2,5.886-7.459,3.711-2.575,6.68-3.466,10.777-4.691l.468-.141c.1,0,8.432-2.227,11.133-5a.775.775,0,0,0-.854-1.247c-.052,0-4.156,1.484-6.962,2.605A58.13,58.13,0,0,1,48.92,235.2a.69.69,0,0,1-.594-.215c-.49-.5-.438-1.848,0-5.4A19.3,19.3,0,0,0,48.5,227.6a1.744,1.744,0,0,0-.742-1.329c-.156-.045-.349,0-.572.252-1.084,1.054-.98,4.758-.943,6.145h0a2.791,2.791,0,0,1-1.351,3.251c-1.136.631-2.308,1.239-3.436,1.826-.683.356-1.366.705-2.041,1.069-2.019,1.069-3.711,3.577-5.129,5.789-.6.913-1.173,1.781-1.752,2.531l-1.032,1.343a55.011,55.011,0,0,1-5.685,6.68c-3.347,3.184-11.319,10.339-11.4,10.391l-.742-.831c.074-.067,8.038-7.214,11.378-10.391a55.021,55.021,0,0,0,5.567-6.569c.341-.46.69-.913,1.032-1.358.557-.742,1.113-1.559,1.707-2.457,1.529-2.323,3.266-4.958,5.529-6.168l2.049-1.069c1.128-.586,2.293-1.188,3.414-1.811a1.685,1.685,0,0,0,.809-2.011v-.26c-.074-2.768,0-5.752,1.277-6.984a1.611,1.611,0,0,1,1.715-.5,2.739,2.739,0,0,1,1.484,2.227,13.359,13.359,0,0,1-.178,2.271,27.826,27.826,0,0,0-.289,4.342A60.231,60.231,0,0,0,58.45,231.7c2.82-1.106,6.94-2.6,6.977-2.613a1.893,1.893,0,0,1,2.041,3.073c-2.969,2.969-11.3,5.2-11.653,5.277l-.445.141c-4.164,1.239-6.91,2.063-10.458,4.535-2.969,2.093-4.06,4.171-5.537,7.058-.638,1.24-1.358,2.65-2.338,4.26C34.811,257.052,32.369,260.978,29.348,265.75Z" transform="translate(-11.602 -66.27)"/><path d="M79.138,105.916a12.528,12.528,0,0,0,4.4.653h1.937c.876,0,.891-.045.965-.1s.089-.067.386-.883c.148-.423.379-1.091.609-1.841a12.618,12.618,0,0,0,.742-4.4,4.98,4.98,0,0,0-1.009-2.635,3.555,3.555,0,0,0-5.2-.868,3.4,3.4,0,0,0-1.173,1.4l-.683-1.766-2.152,1.573,1.484,1.2a3.37,3.37,0,0,0-1.759.683,3.555,3.555,0,0,0-.742,5.2,4.906,4.906,0,0,0,2.19,1.781Z" transform="translate(-27.871 -32.628)"/><path d="M37.225,133.2a12.528,12.528,0,0,0,3.8,2.331c.742.327,1.366.586,1.781.742.816.312.839.312.928.289s.1,0,.7-.661c.312-.334.742-.846,1.284-1.484a12.617,12.617,0,0,0,2.4-3.733,4.988,4.988,0,0,0,.111-2.8,3.555,3.555,0,0,0-4.453-2.835,3.347,3.347,0,0,0-1.648.854l.059-1.893-2.59.6.891,1.692a3.273,3.273,0,0,0-1.885-.067,3.563,3.563,0,0,0-2.731,4.453A4.973,4.973,0,0,0,37.225,133.2Z" transform="translate(-17.289 -40.109)"/><path d="M97.134,109.8a12.877,12.877,0,0,0,3.793,2.331c.742.319,1.373.586,1.789.742.816.319.839.312.928.289s.1,0,.7-.661c.312-.327.742-.846,1.284-1.484a12.484,12.484,0,0,0,2.4-3.763,4.988,4.988,0,0,0,.119-2.8,3.57,3.57,0,0,0-4.453-2.843,3.355,3.355,0,0,0-1.648.861l.059-1.893-2.59.594.891,1.692a3.348,3.348,0,0,0-1.885-.059,3.548,3.548,0,0,0-2.731,4.453A4.936,4.936,0,0,0,97.134,109.8Z" transform="translate(-32.951 -34.051)"/><path d="M40.952,213.1a12.692,12.692,0,0,0-3.9-2.16c-.742-.289-1.388-.52-1.818-.661A3.194,3.194,0,0,0,34.3,210c-.089,0-.1,0-.668.7-.3.341-.742.883-1.217,1.484a12.692,12.692,0,0,0-2.227,3.867,4.921,4.921,0,0,0,0,2.8,3.555,3.555,0,0,0,4.55,2.635,3.347,3.347,0,0,0,1.6-.928v1.893L38.9,221.7l-.965-1.648a3.325,3.325,0,0,0,1.885,0,3.555,3.555,0,0,0,2.531-4.6,4.988,4.988,0,0,0-1.4-2.36Z" transform="translate(-15.805 -62.343)"/><path d="M121.57,239.3a12.937,12.937,0,0,0-.928-4.357c-.26-.742-.527-1.388-.7-1.8-.334-.809-.349-.824-.423-.868s-.1-.059-.965-.052c-.453,0-1.15,0-1.937.067a12.617,12.617,0,0,0-4.379.861,4.965,4.965,0,0,0-2.1,1.848,3.563,3.563,0,0,0,.995,5.2,3.384,3.384,0,0,0,1.759.6l-1.41,1.262,2.227,1.484.594-1.833a3.251,3.251,0,0,0,1.254,1.4,3.563,3.563,0,0,0,5.136-1.113,5.032,5.032,0,0,0,.876-2.694Z" transform="translate(-36.535 -68.113)"/><path d="M35.52,66.24a12.759,12.759,0,0,0,1.536,4.179c.364.7.742,1.306.943,1.7.445.742.46.742.542.794s.1.052.965-.082c.445-.067,1.136-.186,1.9-.341A12.684,12.684,0,0,0,45.622,71a4.943,4.943,0,0,0,1.826-2.13,3.555,3.555,0,0,0-1.715-4.965,3.318,3.318,0,0,0-1.826-.349l1.225-1.447L42.727,61l-.349,1.878a3.4,3.4,0,0,0-1.44-1.217,3.555,3.555,0,0,0-4.928,1.833A4.98,4.98,0,0,0,35.52,66.24Z" transform="translate(-17.225 -23.817)"/><path d="M59.948,65.016a12.744,12.744,0,0,0,4.364-.92c.742-.252,1.4-.5,1.811-.675.809-.327.824-.341.876-.416s.059-.1.059-.965c0-.453,0-1.15-.052-1.937a12.892,12.892,0,0,0-.816-4.386,4.988,4.988,0,0,0-1.833-2.123,3.555,3.555,0,0,0-5.2.95,3.333,3.333,0,0,0-.623,1.752L57.291,54.87,55.806,57.1l1.811.623a3.355,3.355,0,0,0-1.425,1.247,3.563,3.563,0,0,0,1.1,5.129,4.958,4.958,0,0,0,2.657.92Z" transform="translate(-22.506 -21.711)"/><path d="M86.733,82.5a12.929,12.929,0,0,0,4.364-.891c.742-.252,1.4-.5,1.811-.675.809-.327.824-.349.876-.423s.059-.089.059-.957c0-.453,0-1.15-.052-1.937a12.536,12.536,0,0,0-.816-4.386A4.988,4.988,0,0,0,91.141,71.1a3.555,3.555,0,0,0-5.2.95,3.31,3.31,0,0,0-.594,1.752L84.105,72.38l-1.484,2.227,1.811.623a3.347,3.347,0,0,0-1.425,1.247,3.563,3.563,0,0,0,1.069,5.144,4.958,4.958,0,0,0,2.657.876Z" transform="translate(-29.483 -26.238)"/><path d="M138.88,210.85h-128v-200h128ZM13.84,207.884H135.92V13.816H13.84Z" transform="translate(-10.88 -10.85)"/></svg>